<svg version="1.1" viewBox="0.0 0.0 472.6929133858268 389.13123359580055" fill="none" stroke="none" stroke-linecap="square" stroke-miterlimit="10" xmlns:xlink="http://www.w3.org/1999/xlink" xmlns="http://www.w3.org/2000/svg"><clipPath id="p.0"><path d="m0 0l472.6929 0l0 389.13123l-472.6929 0l0 -389.13123z" clip-rule="nonzero"/></clipPath><g clip-path="url(#p.0)"><path fill="#000000" fill-opacity="0.0" d="m0 0l472.6929 0l0 389.13123l-472.6929 0z" fill-rule="evenodd"/><path fill="#666666" d="m189.84871 63.56323l73.01204 -7.8082466l0 39.04122l-73.01204 0z" fill-rule="evenodd"/><path stroke="#000000" stroke-width="2.0" stroke-linejoin="round" stroke-linecap="butt" d="m189.84871 63.56323l73.01204 -7.8082466l0 39.04122l-73.01204 0z" fill-rule="evenodd"/><path fill="#ffffff" d="m214.98132 83.97971l-1.828125 0l0 -6.90625l1.703125 0l0 0.984375q0.4375 -0.703125 0.78125 -0.921875q0.34375 -0.21875 0.796875 -0.21875q0.625 0 1.203125 0.34375l-0.5625 1.59375q-0.46875 -0.296875 -0.859375 -0.296875q-0.390625 0 -0.65625 0.21875q-0.265625 0.203125 -0.421875 0.765625q-0.15625 0.546875 -0.15625 2.296875l0 2.140625zm7.436783 -2.203125l1.828125 0.3125q-0.34375 1.0 -1.109375 1.53125q-0.765625 0.515625 -1.890625 0.515625q-1.8125 0 -2.671875 -1.171875q-0.6875 -0.953125 -0.6875 -2.390625q0 -1.71875 0.890625 -2.6875q0.90625 -0.96875 2.28125 -0.96875q1.546875 0 2.4375 1.015625q0.890625 1.015625 0.84375 3.125l-4.578125 0q0.015625 0.8125 0.4375 1.265625q0.421875 0.453125 1.0625 0.453125q0.421875 0 0.71875 -0.234375q0.296875 -0.234375 0.4375 -0.765625zm0.109375 -1.84375q-0.015625 -0.796875 -0.40625 -1.203125q-0.390625 -0.421875 -0.953125 -0.421875q-0.59375 0 -0.984375 0.4375q-0.390625 0.4375 -0.390625 1.1875l2.734375 0zm4.6781006 -0.75l-1.671875 -0.3125q0.28125 -1.0 0.96875 -1.46875q0.6875 -0.484375 2.03125 -0.484375q1.21875 0 1.8125 0.296875q0.609375 0.28125 0.84375 0.734375q0.25 0.4375 0.25 1.625l-0.015625 2.140625q0 0.90625 0.078125 1.34375q0.09375 0.421875 0.34375 0.921875l-1.8125 0q-0.078125 -0.1875 -0.171875 -0.546875q-0.046875 -0.15625 -0.078125 -0.203125q-0.46875 0.453125 -1.0 0.6875q-0.53125 0.21875 -1.140625 0.21875q-1.0625 0 -1.6875 -0.578125q-0.609375 -0.578125 -0.609375 -1.46875q0 -0.578125 0.28125 -1.03125q0.28125 -0.46875 0.78125 -0.703125q0.515625 -0.25 1.46875 -0.4375q1.28125 -0.234375 1.765625 -0.453125l0 -0.171875q0 -0.53125 -0.265625 -0.75q-0.25 -0.234375 -0.96875 -0.234375q-0.484375 0 -0.765625 0.203125q-0.265625 0.1875 -0.4375 0.671875zm2.4375 1.484375q-0.34375 0.109375 -1.109375 0.28125q-0.765625 0.15625 -1.0 0.3125q-0.359375 0.25 -0.359375 0.640625q0 0.390625 0.28125 0.671875q0.296875 0.28125 0.734375 0.28125q0.5 0 0.953125 -0.328125q0.328125 -0.25 0.4375 -0.609375q0.0625 -0.234375 0.0625 -0.890625l0 -0.359375zm9.943726 3.3125l-1.703125 0l0 -1.015625q-0.421875 0.59375 -1.0 0.890625q-0.578125 0.28125 -1.15625 0.28125q-1.1875 0 -2.046875 -0.953125q-0.84375 -0.96875 -0.84375 -2.6875q0 -1.75 0.828125 -2.65625q0.828125 -0.921875 2.09375 -0.921875q1.15625 0 2.0 0.953125l0 -3.4375l1.828125 0l0 9.546875zm-4.875 -3.609375q0 1.109375 0.296875 1.609375q0.4375 0.71875 1.234375 0.71875q0.640625 0 1.078125 -0.53125q0.4375 -0.546875 0.4375 -1.609375q0 -1.203125 -0.4375 -1.71875q-0.421875 -0.53125 -1.09375 -0.53125q-0.640625 0 -1.078125 0.515625q-0.4375 0.515625 -0.4375 1.546875z" fill-rule="nonzero"/><path fill="#666666" d="m245.2469 313.28955l82.7433 0l0 31.311462c-41.371643 0 -41.371643 11.930237 -82.7433 5.1516724z" fill-rule="evenodd"/><path stroke="#000000" stroke-width="2.0" stroke-linejoin="round" stroke-linecap="butt" d="m245.2469 313.28955l82.7433 0l0 31.311462c-41.371643 0 -41.371643 11.930237 -82.7433 5.1516724z" fill-rule="evenodd"/><path fill="#ffffff" d="m266.4287 330.1984q0 -0.921875 0.453125 -1.765625q0.453125 -0.859375 1.265625 -1.296875q0.828125 -0.453125 1.84375 -0.453125q1.5625 0 2.5625 1.015625q1.015625 1.015625 1.015625 2.578125q0 1.5625 -1.015625 2.59375q-1.015625 1.03125 -2.546875 1.03125q-0.953125 0 -1.8125 -0.421875q-0.859375 -0.4375 -1.3125 -1.265625q-0.453125 -0.828125 -0.453125 -2.015625zm1.875 0.09375q0 1.03125 0.484375 1.578125q0.5 0.546875 1.203125 0.546875q0.71875 0 1.203125 -0.546875q0.484375 -0.546875 0.484375 -1.59375q0 -1.015625 -0.484375 -1.5625q-0.484375 -0.546875 -1.203125 -0.546875q-0.703125 0 -1.203125 0.546875q-0.484375 0.546875 -0.484375 1.578125zm11.235107 3.453125l0 -1.03125q-0.375 0.546875 -1.0 0.875q-0.609375 0.3125 -1.28125 0.3125q-0.703125 0 -1.265625 -0.296875q-0.546875 -0.3125 -0.796875 -0.859375q-0.234375 -0.5625 -0.234375 -1.53125l0 -4.375l1.828125 0l0 3.171875q0 1.453125 0.09375 1.78125q0.109375 0.328125 0.375 0.53125q0.265625 0.1875 0.671875 0.1875q0.46875 0 0.84375 -0.25q0.375 -0.265625 0.5 -0.640625q0.140625 -0.390625 0.140625 -1.875l0 -2.90625l1.828125 0l0 6.90625l-1.703125 0zm6.7663574 -6.90625l0 1.453125l-1.25 0l0 2.78125q0 0.84375 0.03125 0.984375q0.046875 0.140625 0.171875 0.234375q0.125 0.09375 0.3125 0.09375q0.25 0 0.734375 -0.171875l0.15625 1.421875q-0.640625 0.265625 -1.453125 0.265625q-0.484375 0 -0.890625 -0.15625q-0.390625 -0.171875 -0.578125 -0.4375q-0.1875 -0.265625 -0.265625 -0.71875q-0.046875 -0.3125 -0.046875 -1.28125l0 -3.015625l-0.84375 0l0 -1.453125l0.84375 0l0 -1.375l1.828125 -1.078125l0 2.453125l1.25 0zm1.219635 0l1.703125 0l0 1.015625q0.328125 -0.53125 0.890625 -0.84375q0.578125 -0.328125 1.265625 -0.328125q1.203125 0 2.03125 0.9375q0.84375 0.9375 0.84375 2.625q0 1.734375 -0.84375 2.703125q-0.84375 0.953125 -2.046875 0.953125q-0.578125 0 -1.046875 -0.21875q-0.453125 -0.234375 -0.96875 -0.796875l0 3.484375l-1.828125 0l0 -9.53125zm1.8125 3.328125q0 1.171875 0.453125 1.734375q0.46875 0.546875 1.125 0.546875q0.640625 0 1.0625 -0.5q0.421875 -0.515625 0.421875 -1.6875q0 -1.078125 -0.4375 -1.609375q-0.4375 -0.53125 -1.078125 -0.53125q-0.671875 0 -1.109375 0.515625q-0.4375 0.515625 -0.4375 1.53125zm10.922607 3.578125l0 -1.03125q-0.375 0.546875 -1.0 0.875q-0.609375 0.3125 -1.28125 0.3125q-0.703125 0 -1.265625 -0.296875q-0.546875 -0.3125 -0.796875 -0.859375q-0.234375 -0.5625 -0.234375 -1.53125l0 -4.375l1.828125 0l0 3.171875q0 1.453125 0.09375 1.78125q0.109375 0.328125 0.375 0.53125q0.265625 0.1875 0.671875 0.1875q0.46875 0 0.84375 -0.25q0.375 -0.265625 0.5 -0.640625q0.140625 -0.390625 0.140625 -1.875l0 -2.90625l1.828125 0l0 6.90625l-1.703125 0zm6.7663574 -6.90625l0 1.453125l-1.25 0l0 2.78125q0 0.84375 0.03125 0.984375q0.046875 0.140625 0.171875 0.234375q0.125 0.09375 0.3125 0.09375q0.25 0 0.734375 -0.171875l0.15625 1.421875q-0.640625 0.265625 -1.453125 0.265625q-0.484375 0 -0.890625 -0.15625q-0.390625 -0.171875 -0.578125 -0.4375q-0.1875 -0.265625 -0.265625 -0.71875q-0.046875 -0.3125 -0.046875 -1.28125l0 -3.015625l-0.84375 0l0 -1.453125l0.84375 0l0 -1.375l1.828125 -1.078125l0 2.453125l1.25 0z" fill-rule="nonzero"/><path fill="#f1c232" d="m15.811024 255.70395l73.012054 0l0 33.3367l-73.012054 0z" fill-rule="evenodd"/><path stroke="#000000" stroke-width="2.0" stroke-linejoin="round" stroke-linecap="butt" stroke-dasharray="8.0,6.0" d="m15.811024 255.70395l73.012054 0l0 33.3367l-73.012054 0z" fill-rule="evenodd"/><path fill="#000000" d="m30.776087 275.20355l1.8281231 -0.28125q0.125 0.53125 0.484375 0.8125q0.359375 0.265625 1.0 0.265625q0.703125 0 1.0625 -0.25q0.25 -0.1875 0.25 -0.484375q0 -0.21875 -0.140625 -0.359375q-0.125 -0.125 -0.609375 -0.234375q-2.203125 -0.484375 -2.796873 -0.890625q-0.828125 -0.5625 -0.828125 -1.5625q0 -0.890625 0.703125 -1.5q0.7187481 -0.609375 2.203123 -0.609375q1.421875 0 2.109375 0.46875q0.703125 0.453125 0.953125 1.359375l-1.71875 0.3125q-0.109375 -0.40625 -0.421875 -0.609375q-0.3125 -0.21875 -0.890625 -0.21875q-0.71875 0 -1.03125 0.203125q-0.203125 0.140625 -0.203125 0.359375q0 0.203125 0.1875 0.34375q0.234375 0.171875 1.6875 0.515625q1.46875 0.328125 2.0625 0.8125q0.5625 0.484375 0.5625 1.359375q0 0.953125 -0.796875 1.640625q-0.78125 0.671875 -2.34375 0.671875q-1.40625 0 -2.234373 -0.5625q-0.828125 -0.578125 -1.078125 -1.5625zm7.6312237 -1.578125q0 -0.921875 0.453125 -1.765625q0.453125 -0.859375 1.265625 -1.296875q0.828125 -0.453125 1.84375 -0.453125q1.5625 0 2.5625 1.015625q1.015625 1.015625 1.015625 2.578125q0 1.5625 -1.015625 2.59375q-1.015625 1.03125 -2.546875 1.03125q-0.953125 0 -1.8125 -0.421875q-0.859375 -0.4375 -1.3125 -1.265625q-0.453125 -0.828125 -0.453125 -2.015625zm1.875 0.09375q0 1.03125 0.484375 1.578125q0.5 0.546875 1.203125 0.546875q0.71875 0 1.203125 -0.546875q0.484375 -0.546875 0.484375 -1.59375q0 -1.015625 -0.484375 -1.5625q-0.484375 -0.546875 -1.203125 -0.546875q-0.703125 0 -1.203125 0.546875q-0.484375 0.546875 -0.484375 1.578125zm11.235111 3.453125l0 -1.03125q-0.375 0.546875 -1.0 0.875q-0.609375 0.3125 -1.28125 0.3125q-0.703125 0 -1.265625 -0.296875q-0.5468788 -0.3125 -0.7968788 -0.859375q-0.234375 -0.5625 -0.234375 -1.53125l0 -4.375l1.8281288 0l0 3.171875q0 1.453125 0.09375 1.78125q0.109375 0.328125 0.375 0.53125q0.265625 0.1875 0.671875 0.1875q0.46875 0 0.84375 -0.25q0.375 -0.265625 0.5 -0.640625q0.140625 -0.390625 0.140625 -1.875l0 -2.90625l1.828125 0l0 6.90625l-1.703125 0zm5.3444824 0l-1.828125 0l0 -6.90625l1.703125 0l0 0.984375q0.4375 -0.703125 0.78125 -0.921875q0.34375 -0.21875 0.796875 -0.21875q0.625 0 1.203125 0.34375l-0.5625 1.59375q-0.46875 -0.296875 -0.859375 -0.296875q-0.390625 0 -0.65625 0.21875q-0.265625 0.203125 -0.421875 0.765625q-0.15625 0.546875 -0.15625 2.296875l0 2.140625zm9.468029 -4.875l-1.796875 0.328125q-0.09375 -0.53125 -0.421875 -0.796875q-0.3281212 -0.28125 -0.8281212 -0.28125q-0.6875 0 -1.09375 0.46875q-0.40625 0.46875 -0.40625 1.578125q0 1.234375 0.40625 1.75q0.421875 0.5 1.109375 0.5q0.53125 0 0.8593712 -0.296875q0.328125 -0.296875 0.46875 -1.03125l1.796875 0.3125q-0.28125 1.234375 -1.078125 1.875q-0.796875 0.625 -2.1249962 0.625q-1.515625 0 -2.421875 -0.953125q-0.90625 -0.953125 -0.90625 -2.65625q0 -1.703125 0.90625 -2.65625q0.90625 -0.953125 2.453125 -0.953125q1.2656212 0 1.9999962 0.546875q0.75 0.53125 1.078125 1.640625zm5.3812256 2.671875l1.828125 0.3125q-0.34375 1.0 -1.109375 1.53125q-0.765625 0.515625 -1.890625 0.515625q-1.8125 0 -2.671875 -1.171875q-0.6875 -0.953125 -0.6875 -2.390625q0 -1.71875 0.890625 -2.6875q0.90625 -0.96875 2.28125 -0.96875q1.546875 0 2.4375 1.015625q0.890625 1.015625 0.84375 3.125l-4.578125 0q0.015625 0.8125 0.4375 1.265625q0.421875 0.453125 1.0625 0.453125q0.421875 0 0.71875 -0.234375q0.296875 -0.234375 0.4375 -0.765625zm0.109375 -1.84375q-0.015625 -0.796875 -0.40625 -1.203125q-0.390625 -0.421875 -0.953125 -0.421875q-0.59375 0 -0.984375 0.4375q-0.390625 0.4375 -0.390625 1.1875l2.734375 0z" fill-rule="nonzero"/><path fill="#f1c232" d="m122.267 255.70395l73.012054 0l0 33.3367l-73.012054 0z" fill-rule="evenodd"/><path stroke="#000000" stroke-width="2.0" stroke-linejoin="round" stroke-linecap="butt" stroke-dasharray="8.0,6.0" d="m122.267 255.70395l73.012054 0l0 33.3367l-73.012054 0z" fill-rule="evenodd"/><path fill="#000000" d="m137.23206 275.20355l1.828125 -0.28125q0.125 0.53125 0.484375 0.8125q0.359375 0.265625 1.0 0.265625q0.703125 0 1.0625 -0.25q0.25 -0.1875 0.25 -0.484375q0 -0.21875 -0.140625 -0.359375q-0.125 -0.125 -0.609375 -0.234375q-2.203125 -0.484375 -2.796875 -0.890625q-0.828125 -0.5625 -0.828125 -1.5625q0 -0.890625 0.703125 -1.5q0.71875 -0.609375 2.203125 -0.609375q1.421875 0 2.109375 0.46875q0.703125 0.453125 0.953125 1.359375l-1.71875 0.3125q-0.109375 -0.40625 -0.421875 -0.609375q-0.3125 -0.21875 -0.890625 -0.21875q-0.71875 0 -1.03125 0.203125q-0.203125 0.140625 -0.203125 0.359375q0 0.203125 0.1875 0.34375q0.234375 0.171875 1.6875 0.515625q1.46875 0.328125 2.0625 0.8125q0.5625 0.484375 0.5625 1.359375q0 0.953125 -0.796875 1.640625q-0.78125 0.671875 -2.34375 0.671875q-1.40625 0 -2.234375 -0.5625q-0.828125 -0.578125 -1.078125 -1.5625zm7.6312256 -1.578125q0 -0.921875 0.453125 -1.765625q0.453125 -0.859375 1.265625 -1.296875q0.828125 -0.453125 1.84375 -0.453125q1.5625 0 2.5625 1.015625q1.015625 1.015625 1.015625 2.578125q0 1.5625 -1.015625 2.59375q-1.015625 1.03125 -2.546875 1.03125q-0.953125 0 -1.8125 -0.421875q-0.859375 -0.4375 -1.3125 -1.265625q-0.453125 -0.828125 -0.453125 -2.015625zm1.875 0.09375q0 1.03125 0.484375 1.578125q0.5 0.546875 1.203125 0.546875q0.71875 0 1.203125 -0.546875q0.484375 -0.546875 0.484375 -1.59375q0 -1.015625 -0.484375 -1.5625q-0.484375 -0.546875 -1.203125 -0.546875q-0.703125 0 -1.203125 0.546875q-0.484375 0.546875 -0.484375 1.578125zm11.235107 3.453125l0 -1.03125q-0.375 0.546875 -1.0 0.875q-0.609375 0.3125 -1.28125 0.3125q-0.703125 0 -1.265625 -0.296875q-0.546875 -0.3125 -0.796875 -0.859375q-0.234375 -0.5625 -0.234375 -1.53125l0 -4.375l1.828125 0l0 3.171875q0 1.453125 0.09375 1.78125q0.109375 0.328125 0.375 0.53125q0.265625 0.1875 0.671875 0.1875q0.46875 0 0.84375 -0.25q0.375 -0.265625 0.5 -0.640625q0.140625 -0.390625 0.140625 -1.875l0 -2.90625l1.828125 0l0 6.90625l-1.703125 0zm5.3444824 0l-1.828125 0l0 -6.90625l1.703125 0l0 0.984375q0.4375 -0.703125 0.78125 -0.921875q0.34375 -0.21875 0.796875 -0.21875q0.625 0 1.203125 0.34375l-0.5625 1.59375q-0.46875 -0.296875 -0.859375 -0.296875q-0.390625 0 -0.65625 0.21875q-0.265625 0.203125 -0.421875 0.765625q-0.15625 0.546875 -0.15625 2.296875l0 2.140625zm9.468033 -4.875l-1.796875 0.328125q-0.09375 -0.53125 -0.421875 -0.796875q-0.328125 -0.28125 -0.828125 -0.28125q-0.6875 0 -1.09375 0.46875q-0.40625 0.46875 -0.40625 1.578125q0 1.234375 0.40625 1.75q0.421875 0.5 1.109375 0.5q0.53125 0 0.859375 -0.296875q0.328125 -0.296875 0.46875 -1.03125l1.796875 0.3125q-0.28125 1.234375 -1.078125 1.875q-0.796875 0.625 -2.125 0.625q-1.515625 0 -2.421875 -0.953125q-0.90625 -0.953125 -0.90625 -2.65625q0 -1.703125 0.90625 -2.65625q0.90625 -0.953125 2.453125 -0.953125q1.265625 0 2.0 0.546875q0.75 0.53125 1.078125 1.640625zm5.3812256 2.671875l1.828125 0.3125q-0.34375 1.0 -1.109375 1.53125q-0.765625 0.515625 -1.890625 0.515625q-1.8125 0 -2.671875 -1.171875q-0.6875 -0.953125 -0.6875 -2.390625q0 -1.71875 0.890625 -2.6875q0.90625 -0.96875 2.28125 -0.96875q1.546875 0 2.4375 1.015625q0.890625 1.015625 0.84375 3.125l-4.578125 0q0.015625 0.8125 0.4375 1.265625q0.421875 0.453125 1.0625 0.453125q0.421875 0 0.71875 -0.234375q0.296875 -0.234375 0.4375 -0.765625zm0.109375 -1.84375q-0.015625 -0.796875 -0.40625 -1.203125q-0.390625 -0.421875 -0.953125 -0.421875q-0.59375 0 -0.984375 0.4375q-0.390625 0.4375 -0.390625 1.1875l2.734375 0z" fill-rule="nonzero"/><path fill="#000000" fill-opacity="0.0" d="m158.79466 225.8315l-0.03149414 29.858261" fill-rule="evenodd"/><path stroke="#85200c" stroke-width="2.0" stroke-linejoin="round" stroke-linecap="butt" stroke-dasharray="8.0,6.0" d="m158.79468 225.83148l-0.018844604 17.858276" fill-rule="evenodd"/><path fill="#85200c" stroke="#85200c" stroke-width="2.0" stroke-linecap="butt" d="m155.47237 243.68628l3.2938995 9.079666l3.313034 -9.072693z" fill-rule="evenodd"/><path fill="#f1c232" d="m250.11232 257.72617l73.01204 0l0 33.3367l-73.01204 0z" fill-rule="evenodd"/><path stroke="#000000" stroke-width="2.0" stroke-linejoin="round" stroke-linecap="butt" d="m250.11232 257.72617l73.01204 0l0 33.3367l-73.01204 0z" fill-rule="evenodd"/><path fill="#000000" d="m265.0774 277.22577l1.828125 -0.28125q0.125 0.53125 0.484375 0.8125q0.359375 0.265625 1.0 0.265625q0.703125 0 1.0625 -0.25q0.25 -0.1875 0.25 -0.484375q0 -0.21875 -0.140625 -0.359375q-0.125 -0.125 -0.609375 -0.234375q-2.203125 -0.484375 -2.796875 -0.890625q-0.828125 -0.5625 -0.828125 -1.5625q0 -0.890625 0.703125 -1.5q0.71875 -0.609375 2.203125 -0.609375q1.421875 0 2.109375 0.46875q0.703125 0.453125 0.953125 1.359375l-1.71875 0.3125q-0.109375 -0.40625 -0.421875 -0.609375q-0.3125 -0.21875 -0.890625 -0.21875q-0.71875 0 -1.03125 0.203125q-0.203125 0.140625 -0.203125 0.359375q0 0.203125 0.1875 0.34375q0.234375 0.171875 1.6875 0.515625q1.46875 0.328125 2.0625 0.8125q0.5625 0.484375 0.5625 1.359375q0 0.953125 -0.796875 1.640625q-0.78125 0.671875 -2.34375 0.671875q-1.40625 0 -2.234375 -0.5625q-0.828125 -0.578125 -1.078125 -1.5625zm7.6312256 -1.578125q0 -0.921875 0.453125 -1.765625q0.453125 -0.859375 1.265625 -1.296875q0.828125 -0.453125 1.84375 -0.453125q1.5625 0 2.5625 1.015625q1.015625 1.015625 1.015625 2.578125q0 1.5625 -1.015625 2.59375q-1.015625 1.03125 -2.546875 1.03125q-0.953125 0 -1.8125 -0.421875q-0.859375 -0.4375 -1.3125 -1.265625q-0.453125 -0.828125 -0.453125 -2.015625zm1.875 0.09375q0 1.03125 0.484375 1.578125q0.5 0.546875 1.203125 0.546875q0.71875 0 1.203125 -0.546875q0.484375 -0.546875 0.484375 -1.59375q0 -1.015625 -0.484375 -1.5625q-0.484375 -0.546875 -1.203125 -0.546875q-0.703125 0 -1.203125 0.546875q-0.484375 0.546875 -0.484375 1.578125zm11.235107 3.453125l0 -1.03125q-0.375 0.546875 -1.0 0.875q-0.609375 0.3125 -1.28125 0.3125q-0.703125 0 -1.265625 -0.296875q-0.546875 -0.3125 -0.796875 -0.859375q-0.234375 -0.5625 -0.234375 -1.53125l0 -4.375l1.828125 0l0 3.171875q0 1.453125 0.09375 1.78125q0.109375 0.328125 0.375 0.53125q0.265625 0.1875 0.671875 0.1875q0.46875 0 0.84375 -0.25q0.375 -0.265625 0.5 -0.640625q0.140625 -0.390625 0.140625 -1.875l0 -2.90625l1.828125 0l0 6.90625l-1.703125 0zm5.3444824 0l-1.828125 0l0 -6.90625l1.703125 0l0 0.984375q0.4375 -0.703125 0.78125 -0.921875q0.34375 -0.21875 0.796875 -0.21875q0.625 0 1.203125 0.34375l-0.5625 1.59375q-0.46875 -0.296875 -0.859375 -0.296875q-0.390625 0 -0.65625 0.21875q-0.265625 0.203125 -0.421875 0.765625q-0.15625 0.546875 -0.15625 2.296875l0 2.140625zm9.468018 -4.875l-1.796875 0.328125q-0.09375 -0.53125 -0.421875 -0.796875q-0.328125 -0.28125 -0.828125 -0.28125q-0.6875 0 -1.09375 0.46875q-0.40625 0.46875 -0.40625 1.578125q0 1.234375 0.40625 1.75q0.421875 0.5 1.109375 0.5q0.53125 0 0.859375 -0.296875q0.328125 -0.296875 0.46875 -1.03125l1.796875 0.3125q-0.28125 1.234375 -1.078125 1.875q-0.796875 0.625 -2.125 0.625q-1.515625 0 -2.421875 -0.953125q-0.90625 -0.953125 -0.90625 -2.65625q0 -1.703125 0.90625 -2.65625q0.90625 -0.953125 2.453125 -0.953125q1.265625 0 2.0 0.546875q0.75 0.53125 1.078125 1.640625zm5.3812256 2.671875l1.828125 0.3125q-0.34375 1.0 -1.109375 1.53125q-0.765625 0.515625 -1.890625 0.515625q-1.8125 0 -2.671875 -1.171875q-0.6875 -0.953125 -0.6875 -2.390625q0 -1.71875 0.890625 -2.6875q0.90625 -0.96875 2.28125 -0.96875q1.546875 0 2.4375 1.015625q0.890625 1.015625 0.84375 3.125l-4.578125 0q0.015625 0.8125 0.4375 1.265625q0.421875 0.453125 1.0625 0.453125q0.421875 0 0.71875 -0.234375q0.296875 -0.234375 0.4375 -0.765625zm0.109375 -1.84375q-0.015625 -0.796875 -0.40625 -1.203125q-0.390625 -0.421875 -0.953125 -0.421875q-0.59375 0 -0.984375 0.4375q-0.390625 0.4375 -0.390625 1.1875l2.734375 0z" fill-rule="nonzero"/><path fill="#000000" fill-opacity="0.0" d="m52.317047 289.04065l0 87.79596l234.29922 0l0 -27.071533" fill-rule="evenodd"/><path stroke="#85200c" stroke-width="2.0" stroke-linejoin="round" stroke-linecap="butt" stroke-dasharray="8.0,6.0" d="m52.317047 289.04065l0 87.79596l234.29922 0l0 -15.071564" fill-rule="evenodd"/><path fill="#85200c" stroke="#85200c" stroke-width="2.0" stroke-linecap="butt" d="m289.91974 361.76505l-3.3034668 -9.076202l-3.3034668 9.076202z" fill-rule="evenodd"/><path fill="#000000" fill-opacity="0.0" d="m286.61835 291.06287l0 11.113434l0.06298828 0l0 11.122772" fill-rule="evenodd"/><path stroke="#cc0000" stroke-width="2.0" stroke-linejoin="round" stroke-linecap="butt" d="m286.61835 291.06287l0 10.236389" fill-rule="evenodd"/><path fill="#cc0000" stroke="#cc0000" stroke-width="2.0" stroke-linecap="butt" d="m283.3149 301.3166l3.3510742 9.058746l3.2557678 -9.093414z" fill-rule="evenodd"/><path fill="#000000" fill-opacity="0.0" d="m226.35474 94.7962l0 0" fill-rule="evenodd"/><path stroke="#000000" stroke-width="2.0" stroke-linejoin="round" stroke-linecap="butt" d="m226.35474 94.7962l0 0" fill-rule="evenodd"/><path fill="#000000" fill-opacity="0.0" d="m327.9902 332.81177l91.653534 0l0 -118.23624" fill-rule="evenodd"/><path stroke="#cc0000" stroke-width="2.0" stroke-linejoin="round" stroke-linecap="butt" d="m327.9902 332.81177l91.653534 0l0 -106.23622" fill-rule="evenodd"/><path fill="#cc0000" stroke="#cc0000" stroke-width="2.0" stroke-linecap="butt" d="m422.9472 226.57555l-3.3034668 -9.076202l-3.3034668 9.076202z" fill-rule="evenodd"/><path fill="#cfe2f3" d="m42.138172 7.1640434l53.83971 0l0 0c7.0531464 0 12.770851 6.5663967 12.770851 14.666456c0 8.100061 -5.717705 14.666456 -12.770851 14.666456l-53.83971 0l0 0c-7.05315 0 -12.770855 -6.566395 -12.770855 -14.666456c0 -8.1000595 5.717705 -14.666456 12.770855 -14.666456z" fill-rule="evenodd"/><path stroke="#000000" stroke-width="2.0" stroke-linejoin="round" stroke-linecap="butt" d="m42.138172 7.1640434l53.83971 0l0 0c7.0531464 0 12.770851 6.5663967 12.770851 14.666456c0 8.100061 -5.717705 14.666456 -12.770851 14.666456l-53.83971 0l0 0c-7.05315 0 -12.770855 -6.566395 -12.770855 -14.666456c0 -8.1000595 5.717705 -14.666456 12.770855 -14.666456z" fill-rule="evenodd"/><path fill="#000000" d="m54.92629 24.661749l1.828125 -0.28125q0.125 0.53125 0.484375 0.8125q0.359375 0.265625 1.0 0.265625q0.703125 0 1.0625 -0.25q0.25 -0.1875 0.25 -0.484375q0 -0.21875 -0.140625 -0.359375q-0.125 -0.125 -0.609375 -0.234375q-2.203125 -0.484375 -2.796875 -0.890625q-0.828125 -0.5625 -0.828125 -1.5625q0 -0.890625 0.703125 -1.5q0.71875 -0.609375 2.203125 -0.609375q1.421875 0 2.109375 0.46875q0.703125 0.453125 0.953125 1.359375l-1.71875 0.3125q-0.109375 -0.40625 -0.421875 -0.609375q-0.3125 -0.21875 -0.890625 -0.21875q-0.71875 0 -1.03125 0.203125q-0.203125 0.140625 -0.203125 0.359375q0 0.203125 0.1875 0.34375q0.234375 0.171875 1.6875 0.515625q1.46875 0.328125 2.0625 0.8125q0.5625 0.484375 0.5625 1.359375q0 0.953125 -0.796875 1.640625q-0.78125 0.671875 -2.34375 0.671875q-1.40625 0 -2.234375 -0.5625q-0.828125 -0.578125 -1.078125 -1.5625zm11.224979 -4.9375l0 1.453125l-1.25 0l0 2.78125q0 0.84375 0.03125 0.984375q0.046875 0.140625 0.171875 0.234375q0.125 0.09375 0.3125 0.09375q0.25 0 0.734375 -0.171875l0.15625 1.421875q-0.640625 0.265625 -1.453125 0.265625q-0.484375 0 -0.8906288 -0.15625q-0.390625 -0.171875 -0.578125 -0.4375q-0.1875 -0.265625 -0.265625 -0.71875q-0.046875 -0.3125 -0.046875 -1.28125l0 -3.015625l-0.84375 0l0 -1.453125l0.84375 0l0 -1.375l1.8281288 -1.078125l0 2.453125l1.25 0zm2.6414948 2.109375l-1.671875 -0.3125q0.28125 -1.0 0.96875 -1.46875q0.6875 -0.484375 2.03125 -0.484375q1.21875 0 1.8125 0.296875q0.609375 0.28125 0.84375 0.734375q0.25 0.4375 0.25 1.625l-0.015625 2.140625q0 0.90625 0.078125 1.34375q0.09375 0.421875 0.34375 0.921875l-1.8125 0q-0.078125 -0.1875 -0.171875 -0.546875q-0.046875 -0.15625 -0.078125 -0.203125q-0.46875 0.453125 -1.0 0.6875q-0.53125 0.21875 -1.140625 0.21875q-1.0625 0 -1.6875 -0.578125q-0.609375 -0.578125 -0.609375 -1.46875q0 -0.578125 0.28125 -1.03125q0.28125 -0.46875 0.78125 -0.703125q0.515625 -0.25 1.46875 -0.4375q1.28125 -0.234375 1.765625 -0.453125l0 -0.171875q0 -0.53125 -0.265625 -0.75q-0.25 -0.234375 -0.96875 -0.234375q-0.484375 0 -0.765625 0.203125q-0.265625 0.1875 -0.4375 0.671875zm2.4375 1.484375q-0.34375 0.109375 -1.109375 0.28125q-0.765625 0.15625 -1.0 0.3125q-0.359375 0.25 -0.359375 0.640625q0 0.390625 0.28125 0.671875q0.296875 0.28125 0.734375 0.28125q0.5 0 0.953125 -0.328125q0.328125 -0.25 0.4375 -0.609375q0.0625 -0.234375 0.0625 -0.890625l0 -0.359375zm5.3499756 3.3125l-1.828125 0l0 -6.90625l1.703125 0l0 0.984375q0.4375 -0.703125 0.78125 -0.921875q0.34375 -0.21875 0.796875 -0.21875q0.625 0 1.203125 0.34375l-0.5625 1.59375q-0.46875 -0.296875 -0.859375 -0.296875q-0.390625 0 -0.65625 0.21875q-0.265625 0.203125 -0.421875 0.765625q-0.15625 0.546875 -0.15625 2.296875l0 2.140625zm6.608658 -6.90625l0 1.453125l-1.25 0l0 2.78125q0 0.84375 0.03125 0.984375q0.046875 0.140625 0.171875 0.234375q0.125 0.09375 0.3125 0.09375q0.25 0 0.734375 -0.171875l0.15625 1.421875q-0.640625 0.265625 -1.453125 0.265625q-0.484375 0 -0.890625 -0.15625q-0.390625 -0.171875 -0.578125 -0.4375q-0.1875 -0.265625 -0.265625 -0.71875q-0.046875 -0.3125 -0.046875 -1.28125l0 -3.015625l-0.84375 0l0 -1.453125l0.84375 0l0 -1.375l1.828125 -1.078125l0 2.453125l1.25 0z" fill-rule="nonzero"/><path fill="#cfe2f3" d="m258.01886 163.17609l53.83972 0l0 0c7.053131 0 12.7708435 7.4636536 12.7708435 16.670547c0 9.206894 -5.7177124 16.670547 -12.7708435 16.670547l-53.83972 0l0 0c-7.0531464 0 -12.770859 -7.4636536 -12.770859 -16.670547c0 -9.206894 5.7177124 -16.670547 12.770859 -16.670547z" fill-rule="evenodd"/><path stroke="#000000" stroke-width="2.0" stroke-linejoin="round" stroke-linecap="butt" d="m258.01886 163.17609l53.83972 0l0 0c7.053131 0 12.7708435 7.4636536 12.7708435 16.670547c0 9.206894 -5.7177124 16.670547 -12.7708435 16.670547l-53.83972 0l0 0c-7.0531464 0 -12.770859 -7.4636536 -12.770859 -16.670547c0 -9.206894 5.7177124 -16.670547 12.770859 -16.670547z" fill-rule="evenodd"/><path fill="#000000" d="m278.4087 182.44351l1.828125 0.3125q-0.34375 1.0 -1.109375 1.53125q-0.765625 0.515625 -1.890625 0.515625q-1.8125 0 -2.671875 -1.171875q-0.6875 -0.953125 -0.6875 -2.390625q0 -1.71875 0.890625 -2.6875q0.90625 -0.96875 2.28125 -0.96875q1.546875 0 2.4375 1.015625q0.890625 1.015625 0.84375 3.125l-4.578125 0q0.015625 0.8125 0.4375 1.265625q0.421875 0.453125 1.0625 0.453125q0.421875 0 0.71875 -0.234375q0.296875 -0.234375 0.4375 -0.765625zm0.109375 -1.84375q-0.015625 -0.796875 -0.40625 -1.203125q-0.390625 -0.421875 -0.953125 -0.421875q-0.59375 0 -0.984375 0.4375q-0.390625 0.4375 -0.390625 1.1875l2.734375 0zm2.4281006 4.046875l2.5 -3.5625l-2.390625 -3.34375l2.234375 0l1.21875 1.890625l1.28125 -1.890625l2.15625 0l-2.34375 3.265625l2.546875 3.640625l-2.234375 0l-1.40625 -2.140625l-1.421875 2.140625l-2.140625 0zm8.287476 -7.84375l0 -1.703125l1.828125 0l0 1.703125l-1.828125 0zm0 7.84375l0 -6.90625l1.828125 0l0 6.90625l-1.828125 0zm6.8748474 -6.90625l0 1.453125l-1.25 0l0 2.78125q0 0.84375 0.03125 0.984375q0.046875 0.140625 0.171875 0.234375q0.125 0.09375 0.3125 0.09375q0.25 0 0.734375 -0.171875l0.15625 1.421875q-0.640625 0.265625 -1.453125 0.265625q-0.484375 0 -0.890625 -0.15625q-0.390625 -0.171875 -0.578125 -0.4375q-0.1875 -0.265625 -0.265625 -0.71875q-0.046875 -0.3125 -0.046875 -1.28125l0 -3.015625l-0.84375 0l0 -1.453125l0.84375 0l0 -1.375l1.828125 -1.078125l0 2.453125l1.25 0z" fill-rule="nonzero"/><path fill="#000000" fill-opacity="0.0" d="m115.76156 75.2774l39.129875 0l0 0.06299591l34.948868 0" fill-rule="evenodd"/><path stroke="#666666" stroke-width="2.0" stroke-linejoin="round" stroke-linecap="butt" d="m115.76155 75.2774l39.129883 0l0 0.06299591l22.948868 0" fill-rule="evenodd"/><path fill="#666666" stroke="#666666" stroke-width="2.0" stroke-linecap="butt" d="m177.8403 78.64386l9.076202 -3.3034668l-9.076202 -3.3034668z" fill-rule="evenodd"/><path fill="#000000" fill-opacity="0.0" d="m226.35474 94.7962l-36.031494 56.44095" fill-rule="evenodd"/><path stroke="#cc0000" stroke-width="2.0" stroke-linejoin="round" stroke-linecap="butt" d="m226.35474 94.796196l-29.574387 46.326317" fill-rule="evenodd"/><path fill="#cc0000" stroke="#cc0000" stroke-width="2.0" stroke-linecap="butt" d="m193.99591 139.34494l-2.0993958 9.427765l7.668289 -5.8726196z" fill-rule="evenodd"/><path fill="#000000" fill-opacity="0.0" d="m69.05803 36.496956l0 11.043785l0.06298828 0l0 11.034958" fill-rule="evenodd"/><path stroke="#666666" stroke-width="2.0" stroke-linejoin="round" stroke-linecap="butt" d="m69.05802 36.496956l0 10.078903" fill-rule="evenodd"/><path fill="#666666" stroke="#666666" stroke-width="2.0" stroke-linecap="butt" d="m65.75461 46.5932l3.351059 9.058731l3.2557755 -9.0934105z" fill-rule="evenodd"/><path fill="#000000" fill-opacity="0.0" d="m203.3931 182.1307l41.85826 -2.2992096" fill-rule="evenodd"/><path stroke="#85200c" stroke-width="2.0" stroke-linejoin="round" stroke-linecap="butt" stroke-dasharray="8.0,6.0" d="m203.39308 182.1307l29.876343 -1.6410675" fill-rule="evenodd"/><path fill="#85200c" stroke="#85200c" stroke-width="2.0" stroke-linecap="butt" d="m233.45059 183.78813l8.881363 -3.79628l-9.243713 -2.800705z" fill-rule="evenodd"/><path fill="#000000" fill-opacity="0.0" d="m190.33052 213.03183l96.28346 44.6929" fill-rule="evenodd"/><path stroke="#cc0000" stroke-width="2.0" stroke-linejoin="round" stroke-linecap="butt" d="m190.33052 213.03183l85.39894 39.64052" fill-rule="evenodd"/><path fill="#cc0000" stroke="#cc0000" stroke-width="2.0" stroke-linecap="butt" d="m274.33856 255.66873l9.623413 0.8249817l-6.841675 -6.8177643z" fill-rule="evenodd"/><path fill="#000000" fill-opacity="0.0" d="m158.77303 289.04065l0 43.77954l86.48819 0" fill-rule="evenodd"/><path stroke="#85200c" stroke-width="2.0" stroke-linejoin="round" stroke-linecap="butt" stroke-dasharray="8.0,6.0" d="m158.77301 289.04065l0 43.77954l74.488205 0" fill-rule="evenodd"/><path fill="#85200c" stroke="#85200c" stroke-width="2.0" stroke-linecap="butt" d="m233.26122 336.12366l9.076202 -3.3034668l-9.076202 -3.3034668z" fill-rule="evenodd"/><path fill="#000000" fill-opacity="0.0" d="m114.19624 182.1307l-61.889763 0l0 73.5748" fill-rule="evenodd"/><path stroke="#85200c" stroke-width="2.0" stroke-linejoin="round" stroke-linecap="butt" stroke-dasharray="8.0,6.0" d="m114.19624 182.1307l-61.889763 0l0 61.5748" fill-rule="evenodd"/><path fill="#85200c" stroke="#85200c" stroke-width="2.0" stroke-linecap="butt" d="m49.003017 243.7055l3.303463 9.076187l3.3034668 -9.076187z" fill-rule="evenodd"/><path fill="#f1c232" d="m114.19624 182.1307l0 0c0 -24.13527 19.967392 -43.70079 44.59842 -43.70079l0 0c11.828247 0 23.172028 4.604187 31.535858 12.799667c8.363831 8.195496 13.062576 19.310959 13.062576 30.901123l0 0c0 24.135284 -19.967392 43.70079 -44.598434 43.70079l0 0c-24.631027 0 -44.59842 -19.565506 -44.59842 -43.70079z" fill-rule="evenodd"/><path stroke="#000000" stroke-width="2.0" stroke-linejoin="round" stroke-linecap="butt" d="m114.19624 182.1307l0 0c0 -24.13527 19.967392 -43.70079 44.59842 -43.70079l0 0c11.828247 0 23.172028 4.604187 31.535858 12.799667c8.363831 8.195496 13.062576 19.310959 13.062576 30.901123l0 0c0 24.135284 -19.967392 43.70079 -44.598434 43.70079l0 0c-24.631027 0 -44.59842 -19.565506 -44.59842 -43.70079z" fill-rule="evenodd"/><path fill="#000000" d="m150.95409 182.05571l-1.796875 0.328125q-0.09375 -0.53125 -0.421875 -0.796875q-0.328125 -0.28125 -0.828125 -0.28125q-0.6875 0 -1.09375 0.46875q-0.40625 0.46875 -0.40625 1.578125q0 1.234375 0.40625 1.75q0.421875 0.5 1.109375 0.5q0.53125 0 0.859375 -0.296875q0.328125 -0.296875 0.46875 -1.03125l1.796875 0.3125q-0.28125 1.234375 -1.078125 1.875q-0.796875 0.625 -2.125 0.625q-1.515625 0 -2.421875 -0.953125q-0.90625 -0.953125 -0.90625 -2.65625q0 -1.703125 0.90625 -2.65625q0.90625 -0.953125 2.453125 -0.953125q1.265625 0 2.0 0.546875q0.75 0.53125 1.078125 1.640625zm2.7562256 0.078125l-1.671875 -0.3125q0.28125 -1.0 0.96875 -1.46875q0.6875 -0.484375 2.03125 -0.484375q1.21875 0 1.8125 0.296875q0.609375 0.28125 0.84375 0.734375q0.25 0.4375 0.25 1.625l-0.015625 2.140625q0 0.90625 0.078125 1.34375q0.09375 0.421875 0.34375 0.921875l-1.8125 0q-0.078125 -0.1875 -0.171875 -0.546875q-0.046875 -0.15625 -0.078125 -0.203125q-0.46875 0.453125 -1.0 0.6875q-0.53125 0.21875 -1.140625 0.21875q-1.0625 0 -1.6875 -0.578125q-0.609375 -0.578125 -0.609375 -1.46875q0 -0.578125 0.28125 -1.03125q0.28125 -0.46875 0.78125 -0.703125q0.515625 -0.25 1.46875 -0.4375q1.28125 -0.234375 1.765625 -0.453125l0 -0.171875q0 -0.53125 -0.265625 -0.75q-0.25 -0.234375 -0.96875 -0.234375q-0.484375 0 -0.765625 0.203125q-0.265625 0.1875 -0.4375 0.671875zm2.4375 1.484375q-0.34375 0.109375 -1.109375 0.28125q-0.765625 0.15625 -1.0 0.3125q-0.359375 0.25 -0.359375 0.640625q0 0.390625 0.28125 0.671875q0.296875 0.28125 0.734375 0.28125q0.5 0 0.953125 -0.328125q0.328125 -0.25 0.4375 -0.609375q0.0625 -0.234375 0.0625 -0.890625l0 -0.359375zm2.9593506 1.34375l1.8281403 -0.28125q0.125 0.53125 0.484375 0.8125q0.359375 0.265625 1.0 0.265625q0.703125 0 1.0625 -0.25q0.25 -0.1875 0.25 -0.484375q0 -0.21875 -0.140625 -0.359375q-0.125 -0.125 -0.609375 -0.234375q-2.203125 -0.484375 -2.796875 -0.890625q-0.828125 -0.5625 -0.828125 -1.5625q0 -0.890625 0.703125 -1.5q0.71875 -0.609375 2.203125 -0.609375q1.421875 0 2.109375 0.46875q0.703125 0.453125 0.953125 1.359375l-1.71875 0.3125q-0.109375 -0.40625 -0.421875 -0.609375q-0.3125 -0.21875 -0.890625 -0.21875q-0.71875 0 -1.03125 0.203125q-0.203125 0.140625 -0.203125 0.359375q0 0.203125 0.1875 0.34375q0.234375 0.171875 1.6875 0.515625q1.46875 0.328125 2.0625 0.8125q0.5625 0.484375 0.5625 1.359375q0 0.953125 -0.796875 1.640625q-0.78125 0.671875 -2.34375 0.671875q-1.40625 0 -2.234375 -0.5625q-0.828125 -0.578125 -1.0781403 -1.5625zm12.053116 -0.234375l1.828125 0.3125q-0.34375 1.0 -1.109375 1.53125q-0.765625 0.515625 -1.890625 0.515625q-1.8125 0 -2.671875 -1.171875q-0.6875 -0.953125 -0.6875 -2.390625q0 -1.71875 0.890625 -2.6875q0.90625 -0.96875 2.28125 -0.96875q1.546875 0 2.4375 1.015625q0.890625 1.015625 0.84375 3.125l-4.578125 0q0.015625 0.8125 0.4375 1.265625q0.421875 0.453125 1.0625 0.453125q0.421875 0 0.71875 -0.234375q0.296875 -0.234375 0.4375 -0.765625zm0.109375 -1.84375q-0.015625 -0.796875 -0.40625 -1.203125q-0.390625 -0.421875 -0.953125 -0.421875q-0.59375 0 -0.984375 0.4375q-0.390625 0.4375 -0.390625 1.1875l2.734375 0z" fill-rule="nonzero"/><path fill="#f1c232" d="m18.171007 91.970314l8.346457 -33.385826l85.07087 0l8.346451 33.385826z" fill-rule="evenodd"/><path stroke="#000000" stroke-width="2.0" stroke-linejoin="round" stroke-linecap="butt" d="m18.171007 91.970314l8.346457 -33.385826l85.07087 0l8.346451 33.385826z" fill-rule="evenodd"/><path fill="#000000" d="m52.09238 74.08389l1.6875 0l0 0.9375q0.90625 -1.09375 2.15625 -1.09375q0.671875 0 1.15625 0.28125q0.484375 0.265625 0.796875 0.8125q0.453125 -0.546875 0.984375 -0.8125q0.53125 -0.28125 1.125 -0.28125q0.765625 0 1.28125 0.3125q0.53125 0.296875 0.796875 0.90625q0.1875 0.4375 0.1875 1.421875l0 4.421875l-1.828125 0l0 -3.953125q0 -1.03125 -0.1875 -1.328125q-0.25 -0.390625 -0.78125 -0.390625q-0.390625 0 -0.734375 0.234375q-0.328125 0.234375 -0.484375 0.6875q-0.140625 0.453125 -0.140625 1.4375l0 3.3125l-1.828125 0l0 -3.78125q0 -1.015625 -0.109375 -1.296875q-0.09375 -0.296875 -0.296875 -0.4375q-0.203125 -0.15625 -0.546875 -0.15625q-0.421875 0 -0.765625 0.234375q-0.34375 0.21875 -0.484375 0.65625q-0.140625 0.421875 -0.140625 1.421875l0 3.359375l-1.84375 0l0 -6.90625zm15.9914665 4.703125l1.828125 0.3125q-0.34375 1.0 -1.109375 1.53125q-0.765625 0.515625 -1.890625 0.515625q-1.8125 0 -2.671875 -1.171875q-0.6874962 -0.953125 -0.6874962 -2.390625q0 -1.71875 0.8906212 -2.6875q0.90625 -0.96875 2.28125 -0.96875q1.546875 0 2.4375 1.015625q0.890625 1.015625 0.84375 3.125l-4.578125 0q0.015625 0.8125 0.4375 1.265625q0.421875 0.453125 1.0625 0.453125q0.421875 0 0.71875 -0.234375q0.296875 -0.234375 0.4375 -0.765625zm0.109375 -1.84375q-0.015625 -0.796875 -0.40625 -1.203125q-0.390625 -0.421875 -0.953125 -0.421875q-0.59375 0 -0.984375 0.4375q-0.390625 0.4375 -0.390625 1.1875l2.734375 0zm9.599976 4.046875l-1.828125 0l0 -3.53125q0 -1.109375 -0.125 -1.4375q-0.109375 -0.328125 -0.375 -0.515625q-0.265625 -0.1875 -0.640625 -0.1875q-0.46875 0 -0.859375 0.265625q-0.375 0.265625 -0.515625 0.703125q-0.140625 0.421875 -0.140625 1.578125l0 3.125l-1.828125 0l0 -6.90625l1.703125 0l0 1.015625q0.90625 -1.171875 2.28125 -1.171875q0.609375 0 1.109375 0.21875q0.5 0.21875 0.75 0.5625q0.265625 0.328125 0.359375 0.765625q0.109375 0.421875 0.109375 1.21875l0 4.296875zm6.3913574 0l0 -1.03125q-0.375 0.546875 -1.0 0.875q-0.609375 0.3125 -1.28125 0.3125q-0.703125 0 -1.265625 -0.296875q-0.546875 -0.3125 -0.796875 -0.859375q-0.234375 -0.5625 -0.234375 -1.53125l0 -4.375l1.828125 0l0 3.171875q0 1.453125 0.09375 1.78125q0.109375 0.328125 0.375 0.53125q0.265625 0.1875 0.671875 0.1875q0.46875 0 0.84375 -0.25q0.375 -0.265625 0.5 -0.640625q0.140625 -0.390625 0.140625 -1.875l0 -2.90625l1.828125 0l0 6.90625l-1.703125 0z" fill-rule="nonzero"/><path fill="#999999" d="m343.7006 163.17522c-1.4143066 0 -2.4958496 0.51490784 -3.2445984 1.5447235l0 -1.3328705l-1.5551147 0l0 9.374268l1.7279053 0l0 -5.1196594c0 -1.20047 0.26663208 -2.0154877 0.79992676 -2.4450684c0.5354614 -0.4295807 1.1711426 -0.64437866 1.9071045 -0.64437866c0.4607544 0 0.8618164 0.09611511 1.203125 0.28834534c0.34344482 0.1902771 0.58236694 0.44625854 0.71673584 0.7679596c0.13439941 0.31973267 0.20159912 0.8032532 0.20159912 1.4505615l0 5.70224l1.7279053 0l0 -5.764023c0 -0.73558044 -0.03201294 -1.2505035 -0.0960083 -1.5447235c-0.102386475 -0.453125 -0.2815857 -0.8444519 -0.53756714 -1.173996c-0.25598145 -0.32954407 -0.64208984 -0.5953369 -1.1583252 -0.79737854c-0.5140991 -0.20399475 -1.0783386 -0.30599976 -1.692688 -0.30599976z" fill-rule="evenodd"/><path fill="#999999" d="m353.97195 164.49045c0.85113525 0 1.562561 0.2991333 2.1342468 0.8973999c0.57385254 0.5963135 0.8607483 1.4741211 0.8607483 2.6333923c0 1.2298889 -0.28475952 2.1449585 -0.8543396 2.7451935c-0.56954956 0.600235 -1.2831116 0.9003601 -2.1406555 0.9003601c-0.86395264 0 -1.580719 -0.29815674 -2.1502686 -0.8944702c-0.5695801 -0.59828186 -0.8543396 -1.4976501 -0.8543396 -2.69812c0 -1.20047 0.28475952 -2.0978851 0.8543396 -2.6922302c0.56954956 -0.59436035 1.2863159 -0.89152527 2.1502686 -0.89152527zm0 -1.3152313c-1.2607422 0 -2.3294678 0.3471985 -3.2062073 1.0415955c-1.04953 0.83561707 -1.5743103 2.1214142 -1.5743103 3.8573914c0 1.5829773 0.43945312 2.7952118 1.3183289 3.6367188c0.88101196 0.84150696 2.0350647 1.2622681 3.4621887 1.2622681c0.88952637 0 1.7097473 -0.19125366 2.4606323 -0.573761c0.75302124 -0.38250732 1.3258057 -0.9189911 1.7182922 -1.6094513c0.39465332 -0.6924286 0.59198 -1.6418304 0.59198 -2.848175c0 -1.4888306 -0.4447937 -2.6549683 -1.3343201 -3.4984436c-0.8895569 -0.84542847 -2.0350647 -1.2681427 -3.4365845 -1.2681427z" fill-rule="evenodd"/><path fill="#999999" d="m112.23335 105.558136l-8.974243 7.5305786l1.1231079 1.2452316l3.5566406 -2.9844894c0.51013184 -0.42807007 0.97247314 -0.69449615 1.3870163 -0.79927826c0.41454315 -0.104782104 0.8524399 -0.06576538 1.3136826 0.11706543c0.4639969 0.18321991 0.862381 0.45931244 1.1951523 0.82826996c0.44508362 0.4934845 0.66311646 0.9803314 0.6540985 1.4605408c-0.0062713623 0.48060608 -0.2848816 0.95207214 -0.83582306 1.4143829l-4.1198273 3.457077l1.1231079 1.2452393l4.1198273 -3.4570847c0.6366501 -0.53422546 1.043953 -1.0286102 1.2219162 -1.483139c0.1793518 -0.4529953 0.18263245 -0.95944977 0.00982666 -1.5193558c-0.17144012 -0.56105804 -0.50257874 -1.1136932 -0.99341583 -1.6579056c-0.7986603 -0.88549805 -1.7579651 -1.3688049 -2.8779144 -1.4499359l3.2199554 -2.7019653z" fill-rule="evenodd"/><path fill="#999999" d="m118.840836 119.18c0.56987 0.63183594 0.8214569 1.3241501 0.75476074 2.0769348c-0.040489197 0.48771667 -0.30921173 0.9886856 -0.80615234 1.502922l-3.7000198 -4.1023483c0.6046982 -0.43450928 1.2518158 -0.5994034 1.9413452 -0.4947052c0.69091034 0.10624695 1.2942657 0.4453125 1.8100662 1.0171967zm0.8935089 -0.774086c-0.915123 -1.0146332 -1.9617004 -1.5867615 -3.1397324 -1.7163773c-1.1780243 -0.12962341 -2.3139038 0.2644577 -3.4076233 1.1822357c-1.0569992 0.88695526 -1.5951004 1.8908157 -1.6143112 3.0115738c-0.016464233 1.1211548 0.45990753 2.2190247 1.4291077 3.2936172c0.76953125 0.8532181 1.5854492 1.4001312 2.4477463 1.6407471c0.86229706 0.24061584 1.7175598 0.18328857 2.565796 -0.17198944l-1.0197449 -1.4048843c-0.63578796 0.20130157 -1.2053757 0.22957611 -1.7087708 0.08481598c-0.50338745 -0.14476013 -0.9609909 -0.44543457 -1.3727951 -0.9020233c-0.5532379 -0.61338806 -0.8251877 -1.2845612 -0.81585693 -2.0135117c0.00932312 -0.7289429 0.35028076 -1.4161301 1.0228729 -2.0615387l4.9416733 5.479019c0.134758 -0.10497284 0.23477936 -0.1848526 0.30007935 -0.23964691c1.0733185 -0.90065765 1.6250763 -1.9105759 1.6552734 -3.029747c0.030204773 -1.1191788 -0.39770508 -2.1699448 -1.2837143 -3.1522903z" fill-rule="evenodd"/><path fill="#999999" d="m126.42195 121.28957l-8.974243 7.5305862l1.1231079 1.245224l8.974251 -7.5305786z" fill-rule="evenodd"/><path fill="#999999" d="m128.9355 130.28888c0.4825287 0.5349884 0.6910095 1.1675873 0.62545776 1.8977966c-0.06416321 0.7317505 -0.5104675 1.4452057 -1.3389282 2.140396c-0.86925507 0.72943115 -1.6895142 1.0706787 -2.4607697 1.0237427c-0.7685013 -0.046539307 -1.4023361 -0.34651184 -1.9014969 -0.8999481c-0.4908371 -0.54422 -0.7089157 -1.1755219 -0.6542206 -1.8939209c0.05469513 -0.71839905 0.5003433 -1.4286194 1.3369598 -2.1306458c0.8366165 -0.7020416 1.6576614 -1.0331421 2.4631348 -0.99331665c0.8082123 0.04020691 1.4514999 0.32551575 1.929863 0.855896zm0.969223 -0.60668945c-0.4326172 -0.47964478 -0.883728 -0.81817627 -1.3533325 -1.0155792c-0.46826172 -0.19856262 -0.98830414 -0.29289246 -1.5601349 -0.2829895l0.84477997 -0.7088852l-1.0232773 -1.1345444l-8.992607 7.54599l1.1231079 1.2452393l3.164856 -2.6557465c-0.04535675 0.41078186 0.0027923584 0.84573364 0.14443207 1.3048401c0.14302826 0.46066284 0.40172577 0.89852905 0.77610016 1.3136139c0.5116348 0.567276 1.1404877 0.9889221 1.8865509 1.2649536c0.7488098 0.27642822 1.5104828 0.32598877 2.2850266 0.14868164c0.77729034 -0.17689514 1.4985504 -0.54444885 2.1637573 -1.1026611c0.62031555 -0.5205231 1.0800781 -1.1210327 1.3792725 -1.8015289c0.30055237 -0.6816406 0.3773651 -1.3821411 0.23042297 -2.1015015c-0.14692688 -0.71936035 -0.5032501 -1.3926544 -1.0689545 -2.0198822z" fill-rule="evenodd"/><path fill="#000000" fill-opacity="0.0" d="m127.25882 151.22958l-58.20472 -59.244095" fill-rule="evenodd"/><path stroke="#000000" stroke-width="2.0" stroke-linejoin="round" stroke-linecap="butt" stroke-dasharray="8.0,6.0" d="m127.25882 151.22958l-49.79486 -50.68405" fill-rule="evenodd"/><path fill="#000000" stroke="#000000" stroke-width="2.0" stroke-linecap="butt" d="m79.82044 98.23039l-8.717278 -4.1592407l4.0043106 8.78952z" fill-rule="evenodd"/><path fill="#666666" d="m216.06635 211.06949c-0.39848328 -0.17832947 -0.7973175 -0.29379272 -1.1964874 -0.34640503c-0.3968048 -0.053497314 -0.7320099 -0.051315308 -1.0056152 0.0065460205c-0.36172485 0.07077026 -0.6914215 0.2159729 -0.9891052 0.4356079c-0.2952881 0.21875 -0.5253601 0.49771118 -0.69018555 0.83688354c-0.18107605 0.37261963 -0.2522583 0.75564575 -0.21354675 1.1490631c0.04109192 0.3925476 0.20231628 0.7584076 0.4836731 1.0975647c0.28372192 0.33828735 0.842865 0.83955383 1.6773834 1.5037994c0.6198578 0.49256897 0.9907532 0.83592224 1.1126709 1.0300751c0.17320251 0.2810669 0.18899536 0.56729126 0.04737854 0.8587036c-0.15785217 0.32484436 -0.43963623 0.5438385 -0.84532166 0.65696716c-0.40490723 0.11154175 -0.9050293 0.034118652 -1.5003662 -0.2322998c-0.5905304 -0.2642517 -0.98446655 -0.6062927 -1.1818085 -1.0261078c-0.19573975 -0.41911316 -0.20542908 -0.9003601 -0.029037476 -1.4437408l-1.3793793 -0.37298584c-0.24830627 0.8717804 -0.2122345 1.6294708 0.10823059 2.273056c0.322052 0.6442871 0.9799957 1.188797 1.9738159 1.6335297c0.6001282 0.2685547 1.1881561 0.40567017 1.7640533 0.4113617c0.5766754 0.0040893555 1.0827332 -0.12713623 1.518158 -0.39369202c0.43780518 -0.26742554 0.7611847 -0.6161041 0.9701233 -1.046051c0.21357727 -0.43948364 0.28910828 -0.8535156 0.22659302 -1.2420807c-0.0625 -0.38856506 -0.23786926 -0.7413635 -0.5260773 -1.0583954c-0.2858429 -0.3179016 -0.82806396 -0.803833 -1.6266785 -1.4578247c-0.55015564 -0.4555664 -0.8784485 -0.7362366 -0.9848633 -0.84202576c-0.18153381 -0.19174194 -0.29145813 -0.38050842 -0.3297577 -0.5663147c-0.040618896 -0.18103027 -0.02029419 -0.35513306 0.060958862 -0.52233887c0.12768555 -0.2627411 0.36634827 -0.43510437 0.71598816 -0.5171051c0.3496399 -0.08198547 0.82211304 0.01020813 1.41745 0.2766266c0.5041046 0.22558594 0.84039307 0.5098419 1.0088654 0.8527527c0.17007446 0.3436432 0.18873596 0.7242279 0.05596924 1.1417236l1.351059 0.3952179c0.15750122 -0.52856445 0.19941711 -0.98768616 0.12576294 -1.3773651c-0.072891235 -0.39126587 -0.2947998 -0.7745819 -0.66571045 -1.1499481c-0.36932373 -0.37464905 -0.8540497 -0.6962433 -1.4541931 -0.964798z" fill-rule="evenodd"/><path fill="#666666" d="m223.56631 215.71683c0.65774536 0.29432678 1.0723419 0.7822876 1.2437897 1.4638824c0.11332703 0.44036865 0.04324341 0.9935303 -0.2102356 1.6594391l-4.270523 -1.9110413c0.36590576 -0.64468384 0.847641 -1.0746765 1.445221 -1.2899933c0.59916687 -0.21459961 1.1964264 -0.18870544 1.791748 0.07771301zm0.50097656 -1.0669708c-1.0562286 -0.47265625 -2.0874023 -0.50372314 -3.0935364 -0.093185425c-1.006134 0.41052246 -1.820282 1.2559204 -2.442459 2.5361938c-0.6012726 1.2372742 -0.7414093 2.34552 -0.4203949 3.3247375c0.32339478 0.9783478 1.0444031 1.717804 2.1630554 2.218399c0.88819885 0.39746094 1.7224274 0.50904846 2.5026855 0.33476257c0.7802582 -0.17427063 1.4652252 -0.6034851 2.0548706 -1.2876129l-1.2593994 -0.76423645c-0.46148682 0.45651245 -0.92063904 0.7337799 -1.3774261 0.8317871c-0.45680237 0.09802246 -0.92285156 0.04069519 -1.3981476 -0.17201233c-0.63853455 -0.28573608 -1.0635071 -0.74635315 -1.2749023 -1.3818359c-0.21138 -0.6354828 -0.13795471 -1.381958 0.2203064 -2.239441l5.703644 2.5523376c0.0790863 -0.15071106 0.13720703 -0.2642975 0.17436218 -0.34072876c0.6105499 -1.2563782 0.76008606 -2.3759308 0.44856262 -3.3586578c-0.31152344 -0.98272705 -0.9785919 -1.7028961 -2.0012207 -2.1605072z" fill-rule="evenodd"/><path fill="#666666" d="m230.42447 214.17953l-5.105057 10.504898l1.2962799 0.5800781l5.105057 -10.504898z" fill-rule="evenodd"/><path fill="#666666" d="m235.04562 220.85373c0.65774536 0.29434204 1.0723419 0.78230286 1.2437897 1.4638977c0.11331177 0.44036865 0.04324341 0.993515 -0.2102356 1.6594391l-4.2705383 -1.9110413c0.36590576 -0.64468384 0.84765625 -1.0746765 1.445221 -1.2899933c0.5991821 -0.21459961 1.1964417 -0.18870544 1.7917633 0.077697754zm0.50097656 -1.0669556c-1.0562286 -0.47265625 -2.0874023 -0.50372314 -3.0935364 -0.09320068c-1.006134 0.41053772 -1.820282 1.2559357 -2.442459 2.536209c-0.6012726 1.2372742 -0.7414093 2.34552 -0.4203949 3.3247375c0.32339478 0.9783325 1.0444031 1.717804 2.1630554 2.2183838c0.8881836 0.39746094 1.7224121 0.5090637 2.5026855 0.33477783c0.7802582 -0.17427063 1.46521 -0.6034851 2.0548706 -1.2876282l-1.2593994 -0.7642212c-0.46150208 0.45651245 -0.92063904 0.73376465 -1.3774261 0.8317871c-0.45680237 0.09802246 -0.92285156 0.04067993 -1.3981476 -0.17201233c-0.6385498 -0.28573608 -1.0635071 -0.74635315 -1.2749023 -1.3818359c-0.21139526 -0.6354828 -0.13795471 -1.3819733 0.2203064 -2.239441l5.703644 2.5523376c0.0790863 -0.15072632 0.13720703 -0.2642975 0.17434692 -0.34072876c0.6105652 -1.2563782 0.76008606 -2.375946 0.44857788 -3.3586578c-0.31152344 -0.98272705 -0.9785919 -1.7028961 -2.0012207 -2.1605072z" fill-rule="evenodd"/><path fill="#666666" d="m243.69878 223.43481c-0.65774536 -0.29434204 -1.3417358 -0.41236877 -2.0519867 -0.35409546c-0.7078705 0.057388306 -1.3483734 0.3329773 -1.9215088 0.82676697c-0.5731354 0.49378967 -1.0593567 1.1515198 -1.458664 1.9731903c-0.61753845 1.2707062 -0.77423096 2.3889923 -0.47009277 3.3548431c0.3065033 0.9649658 0.98306274 1.6816254 2.0296936 2.149994c0.8353882 0.37382507 1.6594849 0.44210815 2.4723053 0.20484924c0.81518555 -0.23812866 1.5048218 -0.7631531 2.0688934 -1.575058l-1.1945801 -0.7352295c-0.40463257 0.60409546 -0.852829 0.98513794 -1.3446045 1.1431122c-0.4917755 0.15795898 -0.99212646 0.12309265 -1.5010376 -0.104644775c-0.633728 -0.28359985 -1.0348511 -0.74516296 -1.2033539 -1.3847198c-0.16848755 -0.6395569 -0.004333496 -1.4704895 0.49247742 -2.4927826c0.48983765 -1.0079803 1.0517883 -1.6531525 1.6858368 -1.9355011c0.63482666 -0.2839508 1.278717 -0.27983093 1.9316559 0.012359619c0.4320984 0.19335938 0.7374878 0.4870453 0.91619873 0.88108826c0.18029785 0.39474487 0.20626831 0.8745575 0.07788086 1.4394073l1.3543091 0.37049866c0.22492981 -0.8357239 0.17471313 -1.5803375 -0.15065002 -2.2338715c-0.32460022 -0.65512085 -0.90219116 -1.1685333 -1.7327728 -1.5402069z" fill-rule="evenodd"/><path fill="#666666" d="m250.71881 223.54901l-1.6651764 0.19703674l-0.9158478 1.8845673l-0.9506073 -0.42538452l-0.4875183 1.0031891l0.9506073 0.42539978l-2.1276855 4.378235c-0.37608337 0.77389526 -0.5701294 1.3054962 -0.58213806 1.5948029c-0.011230469 0.28770447 0.076812744 0.5636139 0.26409912 0.8277283c0.18728638 0.26409912 0.5161743 0.5014343 0.9866791 0.7119751c0.28807068 0.12890625 0.6331177 0.23678589 1.035141 0.32363892l0.36643982 -1.2231445c-0.25149536 -0.07182312 -0.44926453 -0.13996887 -0.5933075 -0.204422c-0.19203186 -0.0859375 -0.3249817 -0.18322754 -0.39881897 -0.29188538c-0.072250366 -0.107940674 -0.106033325 -0.22483826 -0.101364136 -0.350708c0.0062561035 -0.12513733 0.09877014 -0.37164307 0.27752686 -0.73947144l2.162506 -4.44989l1.3034973 0.5832977l0.4875183 -1.0032043l-1.303482 -0.5832977l1.2919312 -2.6584625z" fill-rule="evenodd"/><path fill="#666666" d="m254.72032 229.65804c0.65774536 0.29432678 1.0723419 0.7822876 1.2437897 1.4638824c0.11331177 0.4403839 0.04324341 0.9935303 -0.2102356 1.6594391l-4.2705383 -1.911026c0.36590576 -0.64468384 0.847641 -1.0746918 1.445221 -1.2900085c0.5991821 -0.21459961 1.1964264 -0.18869019 1.7917633 0.07771301zm0.50097656 -1.0669708c-1.0562286 -0.47265625 -2.0874176 -0.50372314 -3.0935516 -0.093185425c-1.0061188 0.41052246 -1.820282 1.2559204 -2.4424438 2.5361938c-0.60128784 1.2372742 -0.7414093 2.34552 -0.4203949 3.3247375c0.32337952 0.9783478 1.0444031 1.717804 2.1630402 2.218399c0.88819885 0.39746094 1.7224274 0.50904846 2.5026855 0.33477783c0.78027344 -0.17428589 1.4652252 -0.6034851 2.0548859 -1.2876282l-1.2593994 -0.7642212c-0.46150208 0.4564972 -0.92063904 0.73376465 -1.3774414 0.8317871c-0.4567871 0.0980072 -0.9228363 0.04067993 -1.3981476 -0.17201233c-0.63853455 -0.28575134 -1.0634918 -0.7463684 -1.2748871 -1.3818512c-0.21139526 -0.6354828 -0.13795471 -1.381958 0.2203064 -2.239441l5.7036285 2.5523376c0.07910156 -0.15071106 0.13720703 -0.2642975 0.17437744 -0.34072876c0.61053467 -1.2563782 0.7600708 -2.3759308 0.44854736 -3.3586578c-0.31152344 -0.9827118 -0.97857666 -1.7028961 -2.0012054 -2.1605072z" fill-rule="evenodd"/><path fill="#666666" d="m262.65295 233.21657c0.59054565 0.2642517 0.9690552 0.7302551 1.1355591 1.397995c0.16647339 0.6677246 -0.003326416 1.5223083 -0.50942993 2.5637207c-0.45965576 0.9458618 -1.0001221 1.5608978 -1.6214294 1.8450775c-0.618927 0.28330994 -1.2116699 0.2982025 -1.7781982 0.044692993c-0.56170654 -0.2513733 -0.9317932 -0.7106781 -1.110199 -1.3779297c-0.17840576 -0.66726685 -0.030822754 -1.4881592 0.44277954 -2.4626923c0.48983765 -1.0079651 1.0413513 -1.6597443 1.654541 -1.955307c0.6148071 -0.29484558 1.2102661 -0.31336975 1.786377 -0.05555725zm3.829773 -2.9011993l-1.831665 3.7691498c-0.07476807 -0.41148376 -0.24536133 -0.7941284 -0.5118103 -1.1479492c-0.26565552 -0.35539246 -0.62893677 -0.63623047 -1.0898438 -0.8424835c-0.62893677 -0.2814331 -1.2779541 -0.37121582 -1.947052 -0.2693329c-0.6690979 0.10189819 -1.2814026 0.4056244 -1.8368835 0.9111786c-0.5546875 0.50398254 -1.0166016 1.1357422 -1.3857422 1.8953094c-0.37838745 0.77867126 -0.5734558 1.530838 -0.5851135 2.256485c-0.009307861 0.7247772 0.16003418 1.3685913 0.5080261 1.9314423c0.34960938 0.56355286 0.82928467 0.98176575 1.4390259 1.2546234c0.9410095 0.4210968 1.8373413 0.3627472 2.6890564 -0.17504883l-0.46661377 0.9602051l1.2026672 0.5381775l5.1050415 -10.504898z" fill-rule="evenodd"/><path fill="#f1c232" d="m366.48294 180.98163l53.165344 -33.590546l53.165375 33.590546l-53.165375 33.590546z" fill-rule="evenodd"/><path stroke="#000000" stroke-width="2.0" stroke-linejoin="round" stroke-linecap="butt" d="m366.48294 180.98163l53.165344 -33.590546l53.165375 33.590546l-53.165375 33.590546z" fill-rule="evenodd"/><path fill="#434343" d="m404.16507 170.87538l1.6875 0l0 0.9375q0.90625 -1.09375 2.15625 -1.09375q0.671875 0 1.15625 0.28125q0.484375 0.265625 0.796875 0.8125q0.453125 -0.546875 0.984375 -0.8125q0.53125 -0.28125 1.125 -0.28125q0.765625 0 1.28125 0.3125q0.53125 0.296875 0.796875 0.90625q0.1875 0.4375 0.1875 1.421875l0 4.421875l-1.828125 0l0 -3.953125q0 -1.03125 -0.1875 -1.328125q-0.25 -0.390625 -0.78125 -0.390625q-0.390625 0 -0.734375 0.234375q-0.328125 0.234375 -0.484375 0.6875q-0.140625 0.453125 -0.140625 1.4375l0 3.3125l-1.828125 0l0 -3.78125q0 -1.015625 -0.109375 -1.296875q-0.09375 -0.296875 -0.296875 -0.4375q-0.203125 -0.15625 -0.546875 -0.15625q-0.421875 0 -0.765625 0.234375q-0.34375 0.21875 -0.484375 0.65625q-0.140625 0.421875 -0.140625 1.421875l0 3.359375l-1.84375 0l0 -6.90625zm11.56958 3.359375q0 -0.921875 0.453125 -1.765625q0.453125 -0.859375 1.265625 -1.296875q0.828125 -0.453125 1.84375 -0.453125q1.5625 0 2.5625 1.015625q1.015625 1.015625 1.015625 2.578125q0 1.5625 -1.015625 2.59375q-1.015625 1.03125 -2.546875 1.03125q-0.953125 0 -1.8125 -0.421875q-0.859375 -0.4375 -1.3125 -1.265625q-0.453125 -0.828125 -0.453125 -2.015625zm1.875 0.09375q0 1.03125 0.484375 1.578125q0.5 0.546875 1.203125 0.546875q0.71875 0 1.203125 -0.546875q0.484375 -0.546875 0.484375 -1.59375q0 -1.015625 -0.484375 -1.5625q-0.484375 -0.546875 -1.203125 -0.546875q-0.703125 0 -1.203125 0.546875q-0.484375 0.546875 -0.484375 1.578125zm8.438232 3.453125l-1.828125 0l0 -6.90625l1.703125 0l0 0.984375q0.4375 -0.703125 0.78125 -0.921875q0.34375 -0.21875 0.796875 -0.21875q0.625 0 1.203125 0.34375l-0.5625 1.59375q-0.46875 -0.296875 -0.859375 -0.296875q-0.390625 0 -0.65625 0.21875q-0.265625 0.203125 -0.421875 0.765625q-0.15625 0.546875 -0.15625 2.296875l0 2.140625zm7.436798 -2.203125l1.828125 0.3125q-0.34375 1.0 -1.109375 1.53125q-0.765625 0.515625 -1.890625 0.515625q-1.8125 0 -2.671875 -1.171875q-0.6875 -0.953125 -0.6875 -2.390625q0 -1.71875 0.890625 -2.6875q0.90625 -0.96875 2.28125 -0.96875q1.546875 0 2.4375 1.015625q0.890625 1.015625 0.84375 3.125l-4.578125 0q0.015625 0.8125 0.4375 1.265625q0.421875 0.453125 1.0625 0.453125q0.421875 0 0.71875 -0.234375q0.296875 -0.234375 0.4375 -0.765625zm0.109375 -1.84375q-0.015625 -0.796875 -0.40625 -1.203125q-0.390625 -0.421875 -0.953125 -0.421875q-0.59375 0 -0.984375 0.4375q-0.390625 0.4375 -0.390625 1.1875l2.734375 0z" fill-rule="nonzero"/><path fill="#434343" d="m420.46823 191.3285l-1.65625 0q-0.015625 -0.359375 -0.015625 -0.4375q0 -0.8125 0.265625 -1.328125q0.265625 -0.53125 1.0625 -1.171875q0.8125 -0.65625 0.96875 -0.859375q0.234375 -0.3125 0.234375 -0.703125q0 -0.53125 -0.421875 -0.90625q-0.421875 -0.390625 -1.15625 -0.390625q-0.6875 0 -1.15625 0.40625q-0.46875 0.390625 -0.640625 1.203125l-1.6875 -0.203125q0.078125 -1.171875 1.0 -1.984375q0.921875 -0.8125 2.40625 -0.8125q1.578125 0 2.5 0.828125q0.9375 0.828125 0.9375 1.921875q0 0.59375 -0.34375 1.140625q-0.328125 0.53125 -1.453125 1.46875q-0.578125 0.484375 -0.71875 0.78125q-0.140625 0.28125 -0.125 1.046875zm-1.65625 2.453125l0 -1.828125l1.828125 0l0 1.828125l-1.828125 0z" fill-rule="nonzero"/><path fill="#000000" fill-opacity="0.0" d="m419.6483 147.39108l0 -72.12599l-156.78738 0" fill-rule="evenodd"/><path stroke="#cc0000" stroke-width="2.0" stroke-linejoin="round" stroke-linecap="butt" d="m419.6483 147.39108l0 -72.12599l-144.78738 0" fill-rule="evenodd"/><path fill="#cc0000" stroke="#cc0000" stroke-width="2.0" stroke-linecap="butt" d="m274.8609 71.961624l-9.076202 3.3034668l9.076202 3.3034668z" fill-rule="evenodd"/><path fill="#000000" fill-opacity="0.0" d="m366.48294 180.98163l-20.926636 0l0 -1.1338654l-20.93164 0" fill-rule="evenodd"/><path stroke="#cc0000" stroke-width="2.0" stroke-linejoin="round" stroke-linecap="butt" stroke-dasharray="8.0,6.0" d="m366.48294 180.98163l-20.926636 0l0 -1.1338654l-8.931641 0" fill-rule="evenodd"/><path fill="#cc0000" stroke="#cc0000" stroke-width="2.0" stroke-linecap="butt" d="m336.62466 176.54431l-9.076202 3.3034515l9.076202 3.3034668z" fill-rule="evenodd"/><path fill="#ff0000" d="m297.05167 57.558914c-0.33374023 0 -0.6401062 0.09487915 -0.9190979 0.28463364c-0.2772522 0.1897583 -0.5800781 0.58245087 -0.9085083 1.1780815l0 -1.2729607l-1.2872925 0l0 8.396778l1.4302979 0l0 -4.3960533c0 -0.60089874 0.07946777 -1.1543579 0.23840332 -1.6603775c0.10595703 -0.33207703 0.28341675 -0.5912361 0.53237915 -0.7774811c0.24899292 -0.18799973 0.52975464 -0.2820015 0.8423157 -0.2820015c0.34960938 0 0.69924927 0.10278702 1.0488892 0.30835724l0.49264526 -1.3203964c-0.49795532 -0.30572128 -0.9879761 -0.45858002 -1.4700317 -0.45858002z" fill-rule="evenodd"/><path fill="#ff0000" d="m302.85236 58.729084c0.72576904 0 1.3164368 0.27409363 1.7720032 0.8222847c0.29666138 0.35316086 0.47677612 0.88290024 0.54034424 1.5892181l-4.7120667 0c0.047668457 -0.73267365 0.29489136 -1.3177605 0.7416382 -1.7552567c0.44851685 -0.4374962 1.0012207 -0.6562462 1.658081 -0.6562462zm-0.01586914 -1.1701698c-1.1654358 0 -2.113678 0.3900566 -2.8447266 1.1701698c-0.7310486 0.78011703 -1.0965881 1.8764915 -1.0965881 3.289135c0 1.3652 0.3611145 2.4264374 1.0833435 3.1837082c0.7239685 0.75551605 1.703125 1.1332779 2.9374084 1.1332779c0.9800415 0 1.7852478 -0.23719788 2.4156494 -0.7115936c0.6304016 -0.47439575 1.0621338 -1.141182 1.295227 -2.0003624l-1.4779968 -0.18185043c-0.2171936 0.60089874 -0.51119995 1.0383987 -0.88201904 1.3124924c-0.3708191 0.27409363 -0.8184509 0.41114044 -1.3428955 0.41114044c-0.7045593 0 -1.292572 -0.24510193 -1.7640686 -0.7353134c-0.47146606 -0.49020386 -0.7336731 -1.1965256 -0.7866516 -2.1189575l6.2933655 0c0.005279541 -0.16867447 0.00793457 -0.29517746 0.00793457 -0.3795166c0 -1.3862839 -0.35757446 -2.4615784 -1.0727234 -3.2258797c-0.7151489 -0.7643013 -1.6369019 -1.14645 -2.7652588 -1.14645z" fill-rule="evenodd"/><path fill="#ff0000" d="m312.03815 58.67374c0.61450195 0 1.1424866 0.26618576 1.5839233 0.7985611c0.4432373 0.53237534 0.66482544 1.3335762 0.66482544 2.4035988c0 1.1227303 -0.2268982 1.9520416 -0.6807251 2.4879303c-0.45202637 0.5341339 -0.99591064 0.80120087 -1.6315918 0.80120087c-0.6251221 0 -1.1575012 -0.2582779 -1.5971985 -0.7748413c-0.43966675 -0.5165634 -0.6595154 -1.3151283 -0.6595154 -2.395691c0 -1.0805664 0.23397827 -1.9037285 0.7019043 -2.4694862c0.46969604 -0.5675163 1.0091553 -0.8512726 1.6183777 -0.8512726zm0.1350708 -1.1148262c-0.55093384 0 -1.0197449 0.107177734 -1.4064636 0.3215332c-0.38671875 0.2125969 -0.7337036 0.53237534 -1.0409546 0.9593277l0 -1.0911064l-1.3031616 0l0 11.61475l1.4302979 0l0 -4.0876923c0.24368286 0.30571747 0.5544739 0.5587311 0.93237305 0.7590256c0.37963867 0.20030212 0.8078308 0.3004532 1.2846069 0.3004532c0.6515808 0 1.2722778 -0.18273163 1.8620605 -0.54818726c0.59155273 -0.36721802 1.0418396 -0.89432526 1.3508606 -1.5813141c0.3107605 -0.6887512 0.466156 -1.462719 0.466156 -2.3218994c0 -0.80119705 -0.14038086 -1.5373878 -0.42114258 -2.2085686c-0.28076172 -0.6729355 -0.69662476 -1.1938896 -1.2475586 -1.5628624c-0.55093384 -0.36897278 -1.186615 -0.55345917 -1.907074 -0.55345917z" fill-rule="evenodd"/><path fill="#ff0000" d="m320.95374 58.729084c0.72576904 0 1.3164062 0.27409363 1.7720032 0.8222847c0.29666138 0.35316086 0.47677612 0.88290024 0.54034424 1.5892181l-4.712097 0c0.047698975 -0.73267365 0.29489136 -1.3177605 0.7416687 -1.7552567c0.44851685 -0.4374962 1.0011902 -0.6562462 1.658081 -0.6562462zm-0.015899658 -1.1701698c-1.1654358 0 -2.113678 0.3900566 -2.8447266 1.1701698c-0.7310486 0.78011703 -1.0965576 1.8764915 -1.0965576 3.289135c0 1.3652 0.3611145 2.4264374 1.083313 3.1837082c0.723999 0.75551605 1.7031555 1.1332779 2.937439 1.1332779c0.9800415 0 1.7852478 -0.23719788 2.4156494 -0.7115936c0.6304016 -0.47439575 1.0621338 -1.141182 1.295227 -2.0003624l-1.4779968 -0.18185043c-0.2171936 0.60089874 -0.51119995 1.0383987 -0.88201904 1.3124924c-0.3708191 0.27409363 -0.8184509 0.41114044 -1.3428955 0.41114044c-0.7045593 0 -1.2926025 -0.24510193 -1.7640686 -0.7353134c-0.47146606 -0.49020386 -0.7337036 -1.1965256 -0.7866516 -2.1189575l6.2933655 0c0.005279541 -0.16867447 0.00793457 -0.29517746 0.00793457 -0.3795166c0 -1.3862839 -0.35757446 -2.4615784 -1.0727234 -3.2258797c-0.71517944 -0.7643013 -1.6369324 -1.14645 -2.7652893 -1.14645z" fill-rule="evenodd"/><path fill="#ff0000" d="m331.9115 61.931244l0 0.5218353c0 0.6272545 -0.076812744 1.1016464 -0.23043823 1.4231834c-0.20129395 0.41640854 -0.5164795 0.7449684 -0.94558716 0.98568344c-0.42907715 0.23895264 -0.9190979 0.35842896 -1.4700317 0.35842896c-0.5562439 0 -0.9791565 -0.12650299 -1.2687378 -0.3795166c-0.2878418 -0.25300598 -0.4317627 -0.5692673 -0.4317627 -0.9487839c0 -0.24773788 0.066223145 -0.47263718 0.19866943 -0.67469406c0.13244629 -0.20381546 0.3204956 -0.35843277 0.56417847 -0.46385193c0.24368286 -0.10542297 0.6595154 -0.20029831 1.2475586 -0.28463745c1.0382996 -0.14758682 1.8170166 -0.3268051 2.3361511 -0.53764725zm-1.8196716 -4.3723297c-0.7257385 0 -1.3640747 0.09926987 -1.9150085 0.29781342c-0.55093384 0.19678497 -0.9720764 0.47878647 -1.2634583 0.8460007c-0.29135132 0.36545944 -0.50061035 0.8460045 -0.6277466 1.4416313l1.398529 0.1897583c0.15362549 -0.59562683 0.3902588 -1.0102844 0.7098694 -1.2439651c0.32138062 -0.2354393 0.8184509 -0.35316086 1.4912109 -0.35316086c0.720459 0 1.2634583 0.1607666 1.6289673 0.4822998c0.27017212 0.23719788 0.40527344 0.64570236 0.40527344 1.2255173c0 0.052711487 -0.0026550293 0.17658234 -0.007965088 0.37160873c-0.5456238 0.1897583 -1.395874 0.35316086 -2.5507202 0.49020767c-0.566803 0.06852341 -0.9906006 0.13968277 -1.2713928 0.21347809c-0.3814087 0.10541916 -0.7248535 0.26091766 -1.0303345 0.46648788c-0.30371094 0.20557022 -0.5500488 0.47878647 -0.73898315 0.81964874c-0.18719482 0.3391037 -0.28079224 0.71422577 -0.28079224 1.1253662c0 0.701046 0.24899292 1.2773476 0.74694824 1.7289009c0.49795532 0.44979858 1.2104797 0.6746979 2.1375122 0.6746979c0.56155396 0 1.0868835 -0.09224701 1.5759888 -0.2767334c0.49090576 -0.18448639 1.0012207 -0.5007477 1.5309753 -0.9487839c0.042388916 0.3953247 0.13772583 0.7405777 0.28607178 1.035759l1.493866 0c-0.18011475 -0.3215332 -0.3010559 -0.6571274 -0.36288452 -1.0067673c-0.060028076 -0.3514099 -0.09005737 -1.1886253 -0.09005737 -2.5116577l0 -1.8975754c0 -0.6325264 -0.023834229 -1.0700226 -0.071502686 -1.3124886c-0.084747314 -0.39006042 -0.23309326 -0.712471 -0.4449768 -0.9672394c-0.21191406 -0.25652313 -0.54299927 -0.46912003 -0.99328613 -0.6377945c-0.45028687 -0.16867447 -1.0356445 -0.2530098 -1.7561035 -0.2530098z" fill-rule="evenodd"/><path fill="#ff0000" d="m337.25928 54.815334l-1.4223633 0.85390854l0 2.0794258l-1.0488892 0l0 1.1069221l1.0488892 0l0 4.8309135c0 0.85390854 0.058288574 1.4143944 0.17480469 1.6814613c0.11654663 0.2653122 0.3178711 0.47966766 0.60391235 0.6430664c0.28607178 0.16340637 0.6886902 0.24510193 1.2078247 0.24510193c0.31784058 0 0.67807007 -0.042167664 1.0806885 -0.12650299l-0.206604 -1.2571411c-0.25958252 0.036895752 -0.46884155 0.055343628 -0.6277466 0.055343628c-0.21191406 0 -0.37524414 -0.03426361 -0.49002075 -0.1027832c-0.11300659 -0.06852722 -0.1951294 -0.1607666 -0.24633789 -0.2767334c-0.049438477 -0.11595917 -0.074157715 -0.37687683 -0.074157715 -0.7827492l0 -4.909977l1.4382629 0l0 -1.1069221l-1.4382629 0l0 -2.9333344z" fill-rule="evenodd"/><path fill="#999999" d="m403.35614 128.28871l8.568024 -3.9295044c0.15570068 0.071510315 0.2738037 0.12351227 0.35430908 0.15601349c0.5744324 0.2470169 0.93411255 0.42577362 1.079071 0.5362854c0.19326782 0.14950562 0.3435669 0.34127045 0.45095825 0.57528687c0.10736084 0.23401642 0.16104126 0.54603577 0.16104126 0.93605804c0 0.28601837 -0.042938232 0.6207886 -0.12884521 1.0043182l0 0l1.3609009 -0.19501495c0.11810303 -0.41602325 0.17715454 -0.7930527 0.17715454 -1.131073c0 -0.55903625 -0.111816406 -1.0400696 -0.33551025 -1.4430923c-0.22189331 -0.40302277 -0.5717468 -0.76055145 -1.04953 -1.0725708c-0.3543396 -0.23401642 -1.0012207 -0.5622864 -1.9407043 -0.9848099l-8.696869 -3.9392548l0 1.7551117l4.9845886 2.2133942c0.6334839 0.27951813 1.2830505 0.5200348 1.948761 0.72154236c-0.6925354 0.22101593 -1.3528442 0.47128296 -1.980957 0.7508011l-4.9523926 2.154892z" fill-rule="evenodd"/><path fill="#999999" d="m404.35468 113.03873c0 -0.89055634 0.2791443 -1.6153564 0.8374634 -2.1743927c0.35968018 -0.3640213 0.89923096 -0.58503723 1.6185913 -0.66304016l0 5.7821274c-0.7462158 -0.058509827 -1.342102 -0.36186218 -1.7876892 -0.9100647c-0.44558716 -0.55036926 -0.6683655 -1.2285767 -0.6683655 -2.0346298zm-1.191803 0.019500732c0 1.4300919 0.3972473 2.593666 1.191803 3.4907303c0.79452515 0.8970566 1.9111633 1.345581 3.349884 1.345581c1.3904419 0 2.471283 -0.4431076 3.2425537 -1.3293304c0.7694702 -0.8883972 1.1542053 -2.0898895 1.1542053 -3.6044846c0 -1.2025757 -0.24157715 -2.1906433 -0.72473145 -2.9641953c-0.4831543 -0.7735443 -1.162262 -1.3033295 -2.037323 -1.5893478l-0.18521118 1.8136139c0.6119995 0.26651764 1.0575867 0.6272888 1.336731 1.0823212c0.2791748 0.45503235 0.4187622 1.0043182 0.4187622 1.6478577c0 0.86455536 -0.24963379 1.5860977 -0.74890137 2.1646423c-0.49926758 0.578537 -1.2186584 0.9003067 -2.1581116 0.96530914l0 -7.7225037c-0.17181396 -0.006500244 -0.30065918 -0.009750366 -0.38653564 -0.009750366c-1.4118958 0 -2.50708 0.43878174 -3.285492 1.3163376c-0.77841187 0.87755585 -1.167633 2.0086288 -1.167633 3.393219z" fill-rule="evenodd"/><path fill="#999999" d="m403.16287 102.80057c0 0.5395355 0.058166504 1.0454788 0.174469 1.5178452c0.11453247 0.47019958 0.25500488 0.8418045 0.42141724 1.1148224c0.2147522 0.3640213 0.48495483 0.6522064 0.8106384 0.86455536c0.32391357 0.21018219 0.6764221 0.31526947 1.0575867 0.31526947c0.4187317 0 0.8016968 -0.12783813 1.1488342 -0.38352203c0.34539795 -0.25785065 0.6164856 -0.63487244 0.813324 -1.131073c0.19506836 -0.4983673 0.42678833 -1.3910904 0.69522095 -2.6781769c0.19863892 -0.9555588 0.36236572 -1.5535965 0.49121094 -1.7941132c0.18789673 -0.34452057 0.44558716 -0.51678467 0.7730713 -0.51678467c0.36505127 0 0.68356323 0.19501495 0.9555664 0.58503723c0.27020264 0.3900299 0.40533447 0.9880676 0.40533447 1.7941208c0 0.7995453 -0.15301514 1.4225082 -0.4590149 1.868866c-0.30599976 0.4441986 -0.7462158 0.71504974 -1.3206482 0.8125534l0.22549438 1.735611c0.9072571 -0.19500732 1.5917358 -0.6446228 2.0534363 -1.3488312c0.46166992 -0.70638275 0.6925049 -1.7323685 0.6925049 -3.0779495c0 -0.8125534 -0.11630249 -1.5406036 -0.348938 -2.184143c-0.23443604 -0.6435394 -0.5645752 -1.1354065 -0.9904785 -1.4755936c-0.42767334 -0.34236145 -0.8831177 -0.51353455 -1.366272 -0.51353455c-0.49389648 0 -0.9072571 0.13975525 -1.2401123 0.41927338c-0.3328247 0.27951813 -0.5860596 0.66521454 -0.75964355 1.157074c-0.175354 0.48970032 -0.39993286 1.355339 -0.6737366 2.5969238c-0.19326782 0.8580551 -0.31674194 1.3748322 -0.37042236 1.5503464c-0.101989746 0.3055191 -0.23083496 0.52978516 -0.38650513 0.6727905c-0.15032959 0.143013 -0.3194275 0.21451569 -0.5073242 0.21451569c-0.29525757 0 -0.552948 -0.17225647 -0.7730713 -0.51678467c-0.22009277 -0.34452057 -0.33013916 -0.91980743 -0.33013916 -1.7258606c0 -0.6825409 0.12347412 -1.2101593 0.37042236 -1.5828476c0.24694824 -0.37486267 0.59051514 -0.6012955 1.0307312 -0.6792984l-0.19326782 -1.7161102c-0.552948 0.11050415 -0.9940491 0.31201935 -1.3233337 0.60453796c-0.3310547 0.29251862 -0.5932007 0.7464676 -0.7864685 1.3618393c-0.19326782 0.61320496 -0.28988647 1.326088 -0.28988647 2.1386414z" fill-rule="evenodd"/><path fill="#666666" d="m353.12848 317.47214c0.7045593 0 1.293457 0.26794434 1.7666931 0.803833c0.4750061 0.53414917 0.7124939 1.320404 0.7124939 2.3587952c0 1.101654 -0.23571777 1.9212952 -0.70721436 2.4589539c-0.47146606 0.5376282 -1.0621338 0.8064575 -1.7719727 0.8064575c-0.71517944 0 -1.3084717 -0.26705933 -1.7799683 -0.8012085c-0.47146606 -0.5358887 -0.70718384 -1.3414612 -0.70718384 -2.416748c0 -1.0753174 0.23571777 -1.8791504 0.70718384 -2.4115295c0.47149658 -0.53234863 1.0647888 -0.79855347 1.7799683 -0.79855347zm0 -1.1780701c-1.0436096 0 -1.9282837 0.31097412 -2.6540222 0.9329834c-0.86880493 0.7484741 -1.3031921 1.9002075 -1.3031921 3.4551697c0 1.4179077 0.36376953 2.5037231 1.0912781 3.2575073c0.72927856 0.75375366 1.6846008 1.1306152 2.8659363 1.1306152c0.7363281 0 1.4152832 -0.17129517 2.0368652 -0.513916c0.62332153 -0.34262085 1.0974426 -0.82315063 1.4223633 -1.4416199c0.32666016 -0.62023926 0.49002075 -1.4706421 0.49002075 -2.5512085c0 -1.3335571 -0.36819458 -2.3781128 -1.1045227 -3.1336365c-0.73635864 -0.7572632 -1.6846008 -1.1358948 -2.8447266 -1.1358948z" fill-rule="evenodd"/><path fill="#666666" d="m362.36987 317.4089c0.61450195 0 1.142456 0.26617432 1.5839233 0.79855347c0.4432068 0.53237915 0.66482544 1.3335571 0.66482544 2.403595c0 1.1227417 -0.2268982 1.9520264 -0.6807251 2.487915c-0.45202637 0.53414917 -0.99591064 0.8012085 -1.6315918 0.8012085c-0.6251221 0 -1.1575012 -0.25827026 -1.5971985 -0.7748413c-0.43969727 -0.51657104 -0.6595154 -1.3151245 -0.6595154 -2.395691c0 -1.0805664 0.23394775 -1.903717 0.7019043 -2.4694824c0.46969604 -0.5675049 1.0091553 -0.8512573 1.6183777 -0.8512573zm0.1350708 -1.1148376c-0.55093384 0 -1.0197449 0.107177734 -1.4064636 0.3215332c-0.38671875 0.21258545 -0.7337036 0.53237915 -1.0409546 0.95932007l0 -1.091095l-1.3031616 0l0 11.614746l1.4302979 0l0 -4.0877075c0.24368286 0.3057251 0.5544739 0.55874634 0.9323425 0.7590332c0.3796692 0.20031738 0.8078613 0.30044556 1.2846375 0.30044556c0.6515808 0 1.2722778 -0.18270874 1.8620605 -0.54818726c0.59155273 -0.36721802 1.0418396 -0.8943176 1.3508301 -1.5812988c0.31079102 -0.6887512 0.46618652 -1.4627075 0.46618652 -2.3218994c0 -0.8012085 -0.14038086 -1.537384 -0.42114258 -2.2085571c-0.28076172 -0.6729431 -0.69662476 -1.1939087 -1.2475586 -1.5628662c-0.55093384 -0.36898804 -1.186615 -0.5534668 -1.907074 -0.5534668z" fill-rule="evenodd"/><path fill="#666666" d="m369.48962 313.55048l-1.4223633 0.85391235l0 2.0794373l-1.0488892 0l0 1.1069031l1.0488892 0l0 4.8309326c0 0.85391235 0.058288574 1.4143982 0.17480469 1.6814575c0.11654663 0.26531982 0.3178711 0.4796753 0.60391235 0.6430664c0.28607178 0.16339111 0.6886902 0.24511719 1.2078247 0.24511719c0.31784058 0 0.67807007 -0.042175293 1.0806885 -0.12652588l-0.206604 -1.2571411c-0.25958252 0.036895752 -0.46881104 0.055358887 -0.6277466 0.055358887c-0.21191406 0 -0.37524414 -0.03427124 -0.49002075 -0.1027832c-0.11300659 -0.06854248 -0.1951294 -0.1607666 -0.24633789 -0.2767334c-0.049438477 -0.1159668 -0.074157715 -0.3768921 -0.074157715 -0.78274536l0 -4.9100037l1.4382629 0l0 -1.1069031l-1.4382629 0l0 -2.9333496z" fill-rule="evenodd"/><path fill="#666666" d="m372.33435 313.28958l0 1.6366577l1.4303284 0l0 -1.6366577zm0 3.1942444l0 8.396759l1.4303284 0l0 -8.396759z" fill-rule="evenodd"/><path fill="#666666" d="m379.36673 317.47214c0.7045593 0 1.293457 0.26794434 1.7666931 0.803833c0.4750061 0.53414917 0.7124939 1.320404 0.7124939 2.3587952c0 1.101654 -0.23571777 1.9212952 -0.70721436 2.4589539c-0.47146606 0.5376282 -1.0621338 0.8064575 -1.7719727 0.8064575c-0.71517944 0 -1.3084717 -0.26705933 -1.7799683 -0.8012085c-0.47146606 -0.5358887 -0.70718384 -1.3414612 -0.70718384 -2.416748c0 -1.0753174 0.23571777 -1.8791504 0.70718384 -2.4115295c0.47149658 -0.53234863 1.0647888 -0.79855347 1.7799683 -0.79855347zm0 -1.1780701c-1.0436096 0 -1.9282837 0.31097412 -2.6540222 0.9329834c-0.86880493 0.7484741 -1.3031921 1.9002075 -1.3031921 3.4551697c0 1.4179077 0.36376953 2.5037231 1.0912781 3.2575073c0.72927856 0.75375366 1.6846008 1.1306152 2.8659363 1.1306152c0.7363281 0 1.4152832 -0.17129517 2.0368652 -0.513916c0.62332153 -0.34262085 1.0974426 -0.82315063 1.4223633 -1.4416199c0.32666016 -0.62023926 0.48999023 -1.4706421 0.48999023 -2.5512085c0 -1.3335571 -0.36816406 -2.3781128 -1.1044922 -3.1336365c-0.73635864 -0.7572632 -1.6846008 -1.1358948 -2.8447266 -1.1358948z" fill-rule="evenodd"/><path fill="#666666" d="m388.9657 316.29407c-1.1707458 0 -2.0660095 0.46121216 -2.6858215 1.3836365l0 -1.1938782l-1.287262 0l0 8.396759l1.4302979 0l0 -4.585785c0 -1.0753174 0.22073364 -1.8053589 0.6621704 -2.1901245c0.4432373 -0.38479614 0.9694519 -0.57717896 1.5786438 -0.57717896c0.3814087 0 0.7134094 0.08609009 0.99594116 0.25827026c0.28427124 0.17044067 0.48205566 0.39971924 0.59329224 0.6878662c0.11126709 0.28640747 0.16687012 0.71951294 0.16687012 1.2993164l0 5.1076355l1.4303284 0l0 -5.162964c0 -0.658905 -0.026489258 -1.1201172 -0.07946777 -1.383667c-0.08477783 -0.40585327 -0.23309326 -0.7563782 -0.4449768 -1.0515747c-0.21191406 -0.29516602 -0.53152466 -0.53323364 -0.9588623 -0.7142334c-0.4255371 -0.18270874 -0.89260864 -0.27407837 -1.4011536 -0.27407837z" fill-rule="evenodd"/><path fill="#666666" d="m183.10536 134.56686c0.37010193 -0.5912628 0.91397095 -0.9500427 1.6316223 -1.0763702c0.717041 -0.12867737 1.5299988 0.069366455 2.4389038 0.59413147c0.96424866 0.5567322 1.5578461 1.1687775 1.780777 1.8361511c0.22293091 0.6673584 0.14796448 1.2988892 -0.22492981 1.8945923c-0.3756714 0.60014343 -0.9210968 0.96307373 -1.6362762 1.0888062c-0.7167206 0.12483215 -1.5456696 -0.084472656 -2.4868622 -0.6278839c-0.9411926 -0.54341125 -1.5209503 -1.1474762 -1.7392731 -1.8121643c-0.2183075 -0.66470337 -0.13963318 -1.2971191 0.23603821 -1.8972626zm-1.0311584 -0.59536743c-0.5482025 0.8757782 -0.7407074 1.7753448 -0.5775299 2.6987152c0.19877625 1.1073151 0.9786682 2.053894 2.3397064 2.8397217c1.2410889 0.71655273 2.3825836 0.96003723 3.4244995 0.7304535c1.0428467 -0.2310791 1.8745422 -0.8423004 2.495102 -1.833664c0.38679504 -0.6179199 0.59350586 -1.2742615 0.6201172 -1.9690247c0.027557373 -0.6962433 -0.14401245 -1.3369598 -0.51467896 -1.9221802c-0.3712616 -0.58758545 -1.0298157 -1.1544037 -1.9756165 -1.7004852c-1.1672516 -0.6739502 -2.2749329 -0.8928528 -3.3230286 -0.6567383c-1.0496368 0.23522949 -1.8791656 0.8396301 -2.4885712 1.8132019z" fill-rule="evenodd"/><path fill="#666666" d="m187.90446 126.77965c0.32279968 -0.5156784 0.83314514 -0.8242264 1.5310211 -0.9256439c0.6987915 -0.10290527 1.5164948 0.11602783 2.453064 0.6567764c0.9827118 0.56739044 1.5894012 1.1769104 1.8200836 1.8285599c0.23005676 0.649292 0.17811584 1.2406616 -0.1558075 1.7741241c-0.32836914 0.5245819 -0.83410645 0.8408356 -1.5172119 0.948761c-0.68310547 0.107925415 -1.4975586 -0.11116028 -2.4433594 -0.65722656c-0.9458008 -0.54608154 -1.5434113 -1.158432 -1.7928009 -1.8370361c-0.25 -0.68096924 -0.21499634 -1.2770767 0.10501099 -1.7883148zm-0.90483093 -0.6767502c-0.2893982 0.46233368 -0.441864 0.90992737 -0.4573822 1.3427811c-0.017059326 0.43196106 0.080581665 0.88475037 0.29289246 1.3583527l-0.95503235 -0.55140686l-0.68455505 1.0936127l10.1662445 5.86969l0.7513428 -1.2003021l-3.5779114 -2.0657806c0.39559937 -0.049987793 0.78030396 -0.18293762 1.154129 -0.39881897c0.3747406 -0.21737671 0.6873474 -0.5261078 0.9377899 -0.9262085c0.3422699 -0.5467987 0.5083771 -1.1600189 0.49830627 -1.8396454c-0.010681152 -0.6819916 -0.23551941 -1.3262482 -0.6744995 -1.9327545c-0.4396057 -0.60887146 -1.0354156 -1.1304092 -1.7874603 -1.5646133c-0.7012787 -0.40489197 -1.4193878 -0.6591339 -2.154358 -0.7627106c-0.736496 -0.10446167 -1.4109192 -0.018760681 -2.023285 0.2571106c-0.6123657 0.27586365 -1.1077728 0.716095 -1.4862213 1.320694z" fill-rule="evenodd"/><path fill="#666666" d="m188.26724 118.85494l2.593994E-4 1.6251678l1.8200989 1.0508652l-0.5509796 0.8802185l0.9688721 0.55939484l0.5509796 -0.8802109l4.2284393 2.4413757c0.74742126 0.4315338 1.2686157 0.6658859 1.5635986 0.7030487c0.29344177 0.03627777 0.58680725 -0.02433014 0.88009644 -0.18180847c0.29328918 -0.15747833 0.57629395 -0.4540558 0.848999 -0.8897171c0.16696167 -0.26673126 0.3192749 -0.59033966 0.4569397 -0.97081757l-1.2088776 -0.46194458c-0.10406494 0.23648071 -0.1978302 0.42140198 -0.28131104 0.5547714c-0.111312866 0.1778183 -0.22709656 0.2975769 -0.34736633 0.35926056c-0.11935425 0.06021118 -0.2432251 0.08250427 -0.3716278 0.06687164c-0.12747192 -0.017112732 -0.36883545 -0.12822723 -0.7240906 -0.33333588l-4.297638 -2.4813309l0.7555084 -1.2069626l-0.9688721 -0.55940247l-0.7555084 1.2069626l-2.5675201 -1.4824066z" fill-rule="evenodd"/><path fill="#666666" d="m189.5332 116.33583l1.4325409 0.8271103l0.7513428 -1.2002945l-1.4325562 -0.8271103zm2.7958832 1.6142654l7.349594 4.2434387l0.7513428 -1.2002945l-7.349594 -4.2434387z" fill-rule="evenodd"/><path fill="#666666" d="m196.88823 112.5481c0.37010193 -0.5912552 0.9139862 -0.9500351 1.6316376 -1.076355c0.71702576 -0.128685 1.5299988 0.069358826 2.4388885 0.59413147c0.9642639 0.5567322 1.5578613 1.1687775 1.7807922 1.8361435c0.22293091 0.6673584 0.14794922 1.2988892 -0.22492981 1.8945923c-0.3756714 0.60014343 -0.9210968 0.96308136 -1.6362762 1.0887985c-0.7167206 0.12483978 -1.5456848 -0.0844574 -2.4868774 -0.62786865c-0.94117737 -0.5434189 -1.520935 -1.1474762 -1.7392578 -1.8121719c-0.21832275 -0.66469574 -0.13964844 -1.2971191 0.23602295 -1.8972702zm-1.0311584 -0.5953598c-0.54818726 0.8757782 -0.7407074 1.7753448 -0.5775299 2.6987076c0.19877625 1.1073303 0.9786835 2.0539093 2.3397217 2.8397293c1.2410736 0.71656036 2.3825836 0.96004486 3.4244995 0.73044586c1.0428467 -0.2310791 1.8745422 -0.8422928 2.4950867 -1.8336487c0.3868103 -0.61792755 0.5935211 -1.2742691 0.62013245 -1.9690323c0.027542114 -0.69623566 -0.14401245 -1.3369598 -0.51467896 -1.9221725c-0.37127686 -0.58758545 -1.0298157 -1.1544113 -1.9756165 -1.7004929c-1.1672668 -0.67394257 -2.2749329 -0.8928528 -3.3230286 -0.6567383c-1.0496368 0.23522949 -1.8791656 0.8396301 -2.4885864 1.8132019z" fill-rule="evenodd"/><path fill="#666666" d="m200.89938 103.89743c-0.614975 0.98246765 -0.68156433 1.9668427 -0.19975281 2.9531403l-1.0449982 -0.6033554l-0.6762085 1.0802689l7.349594 4.2434387l0.7513428 -1.2002945l-4.0139008 -2.3175125c-0.9411926 -0.54341125 -1.4642334 -1.09758 -1.5691376 -1.6624985c-0.10398865 -0.56640625 0.004043579 -1.1052246 0.3240509 -1.6164627c0.20036316 -0.320076 0.45010376 -0.5551529 0.7492218 -0.7052307c0.29852295 -0.15245056 0.60310364 -0.20253754 0.9137573 -0.15027618c0.30911255 0.051376343 0.7174225 0.22357178 1.2249298 0.51659393l4.4706573 2.5812225l0.7513275 -1.2002945l-4.5190887 -2.609192c-0.5767212 -0.3329773 -0.99432373 -0.5438309 -1.2528381 -0.63256836c-0.39978027 -0.1339798 -0.7845001 -0.18665314 -1.1541748 -0.15800476c-0.36967468 0.028648376 -0.7459564 0.17655182 -1.12883 0.4437027c-0.3834839 0.26477814 -0.70880127 0.6105499 -0.97595215 1.037323z" fill-rule="evenodd"/></g></svg>