<svg height="200" width="200" viewBox="0 0 200 200">
  <g>
    <path d="M50,50 L50,150 A50,50 0 0 1 100,150 L100,50 A50,50 0 0 1 150,50 L150,150 A50,50 0 0 1 100,200 L100,100 A50,50 0 0 1 50,100 L50,50 Z" style="fill:red"/>
    <path d="M100,100 L100,200 A50,50 0 0 1 150,200 L150,100 A50,50 0 0 1 100,100 Z" style="fill:blue"/>
    <text x="100" y="150" font-size="24" text-anchor="middle" style="fill:black">If</text>
    <text x="100" y="100" font-size="24" text-anchor="middle" style="fill:black">else</text>
  </g>
</svg>