<svg version="1.1" viewBox="0.0 0.0 480.0 480.0" fill="none" stroke="none" stroke-linecap="square" stroke-miterlimit="10" xmlns:xlink="http://www.w3.org/1999/xlink" xmlns="http://www.w3.org/2000/svg"><clipPath id="p.0"><path d="m0 0l480.0 0l0 480.0l-480.0 0l0 -480.0z" clip-rule="nonzero"/></clipPath><g clip-path="url(#p.0)"><path fill="#000000" fill-opacity="0.0" d="m0 0l480.0 0l0 480.0l-480.0 0z" fill-rule="evenodd"/><path fill="#fff2cc" d="m92.09593 228.63744l0 0c0 -71.71434 60.767654 -129.85031 135.72835 -129.85031l0 0c35.997406 0 70.52045 13.680618 95.97446 38.03228c25.45398 24.351654 39.753906 57.379578 39.753906 91.81802l0 0c0 71.71434 -60.76767 129.8503 -135.72836 129.8503l0 0c-74.96069 0 -135.72835 -58.135956 -135.72835 -129.8503zm64.925156 0c0 35.857162 31.699677 64.925156 70.80319 64.925156c39.103546 0 70.80319 -29.067993 70.80319 -64.925156c0 -35.857162 -31.699646 -64.925156 -70.80319 -64.925156l0 0c-39.103516 0 -70.80319 29.067993 -70.80319 64.925156z" fill-rule="evenodd"/><path stroke="#000000" stroke-width="2.0" stroke-linejoin="round" stroke-linecap="butt" d="m92.09593 228.63744l0 0c0 -71.71434 60.767654 -129.85031 135.72835 -129.85031l0 0c35.997406 0 70.52045 13.680618 95.97446 38.03228c25.45398 24.351654 39.753906 57.379578 39.753906 91.81802l0 0c0 71.71434 -60.76767 129.8503 -135.72836 129.8503l0 0c-74.96069 0 -135.72835 -58.135956 -135.72835 -129.8503zm64.925156 0c0 35.857162 31.699677 64.925156 70.80319 64.925156c39.103546 0 70.80319 -29.067993 70.80319 -64.925156c0 -35.857162 -31.699646 -64.925156 -70.80319 -64.925156l0 0c-39.103516 0 -70.80319 29.067993 -70.80319 64.925156z" fill-rule="evenodd"/><path fill="#c9daf8" d="m99.92323 232.73389l0 0c0 -13.085815 10.792648 -23.693985 24.106049 -23.693985l0 0c6.393326 0 12.524796 2.4963226 17.045563 6.9398193c4.520752 4.4434814 7.060486 10.470139 7.060486 16.754166l0 0c0 13.085831 -10.792648 23.694 -24.106049 23.694l0 0c-13.3134 0 -24.106049 -10.60817 -24.106049 -23.694z" fill-rule="evenodd"/><path stroke="#000000" stroke-width="2.0" stroke-linejoin="round" stroke-linecap="butt" d="m99.92323 232.73389l0 0c0 -13.085815 10.792648 -23.693985 24.106049 -23.693985l0 0c6.393326 0 12.524796 2.4963226 17.045563 6.9398193c4.520752 4.4434814 7.060486 10.470139 7.060486 16.754166l0 0c0 13.085831 -10.792648 23.694 -24.106049 23.694l0 0c-13.3134 0 -24.106049 -10.60817 -24.106049 -23.694z" fill-rule="evenodd"/><path fill="#000000" d="m126.48906 240.2139l-2.921875 0l0 -11.03125q-1.609375 1.5 -3.78125 2.21875l0 -2.65625q1.140625 -0.375 2.484375 -1.421875q1.34375 -1.046875 1.84375 -2.4375l2.375 0l0 15.328125z" fill-rule="nonzero"/><path fill="#ea9999" d="m304.8741 228.09206l0 0c0 -13.085831 10.792633 -23.693985 24.106049 -23.693985l0 0c6.3933105 0 12.52478 2.4963226 17.045532 6.939804c4.5207825 4.4434814 7.0605164 10.470139 7.0605164 16.75418l0 0c0 13.085815 -10.792664 23.693985 -24.106049 23.693985l0 0c-13.313416 0 -24.106049 -10.60817 -24.106049 -23.693985z" fill-rule="evenodd"/><path stroke="#000000" stroke-width="2.0" stroke-linejoin="round" stroke-linecap="butt" d="m304.8741 228.09206l0 0c0 -13.085831 10.792633 -23.693985 24.106049 -23.693985l0 0c6.3933105 0 12.52478 2.4963226 17.045532 6.939804c4.5207825 4.4434814 7.0605164 10.470139 7.0605164 16.75418l0 0c0 13.085815 -10.792664 23.693985 -24.106049 23.693985l0 0c-13.313416 0 -24.106049 -10.60817 -24.106049 -23.693985z" fill-rule="evenodd"/><path fill="#000000" d="m334.05988 235.57205l-2.921875 0l0 -5.640625q0 -1.796875 -0.1875 -2.3125q-0.1875 -0.53125 -0.609375 -0.828125q-0.421875 -0.296875 -1.015625 -0.296875q-0.765625 0 -1.375 0.421875q-0.59375 0.421875 -0.828125 1.109375q-0.21875 0.6875 -0.21875 2.53125l0 5.015625l-2.921875 0l0 -11.0625l2.71875 0l0 1.625q1.4375 -1.875 3.640625 -1.875q0.96875 0 1.765625 0.359375q0.8125 0.34375 1.21875 0.890625q0.40625 0.53125 0.5625 1.21875q0.171875 0.6875 0.171875 1.96875l0 6.875z" fill-rule="nonzero"/><path fill="#c9daf8" d="m133.38379 299.7339l0 0c0 -13.085815 10.792648 -23.694 24.106064 -23.694l0 0c6.3933105 0 12.52478 2.496338 17.045547 6.9398193c4.520767 4.4434814 7.060501 10.470154 7.060501 16.75418l0 0c0 13.085815 -10.792648 23.69397 -24.106049 23.69397l0 0c-13.313416 0 -24.106064 -10.608154 -24.106064 -23.69397z" fill-rule="evenodd"/><path stroke="#000000" stroke-width="2.0" stroke-linejoin="round" stroke-linecap="butt" d="m133.38379 299.7339l0 0c0 -13.085815 10.792648 -23.694 24.106064 -23.694l0 0c6.3933105 0 12.52478 2.496338 17.045547 6.9398193c4.520767 4.4434814 7.060501 10.470154 7.060501 16.75418l0 0c0 13.085815 -10.792648 23.69397 -24.106049 23.69397l0 0c-13.313416 0 -24.106064 -10.608154 -24.106064 -23.69397z" fill-rule="evenodd"/><path fill="#000000" d="m162.34026 304.49512l0 2.71875l-10.25 0q0.171875 -1.546875 1.0 -2.921875q0.828125 -1.375 3.296875 -3.65625q1.96875 -1.84375 2.421875 -2.5q0.609375 -0.90625 0.609375 -1.796875q0 -0.96875 -0.53125 -1.5q-0.53125 -0.53125 -1.453125 -0.53125q-0.921875 0 -1.46875 0.5625q-0.53125 0.546875 -0.609375 1.828125l-2.921875 -0.296875q0.265625 -2.40625 1.640625 -3.453125q1.375 -1.0625 3.4375 -1.0625q2.25 0 3.53125 1.21875q1.296875 1.21875 1.296875 3.03125q0 1.03125 -0.375 1.96875q-0.359375 0.921875 -1.15625 1.9375q-0.53125 0.6875 -1.921875 1.953125q-1.375 1.265625 -1.75 1.6875q-0.375 0.421875 -0.59375 0.8125l5.796875 0z" fill-rule="nonzero"/><path fill="#ff0000" d="m177.82986 125.636154c-1.748703 0 -3.36763 0.42839813 -4.8567963 1.285202c-1.484909 0.8523941 -2.5911407 2.1331787 -3.3187103 3.8423767c-0.7275696 1.7091827 -1.0913391 3.703247 -1.0913391 5.9821625c0 3.5243835 0.8445587 6.2317047 2.5337067 8.121979c1.6933899 1.885849 3.9313812 2.8287811 6.7139893 2.8287811c2.220993 0 4.0930786 -0.68455505 5.616287 -2.0536804c1.5274506 -1.3735352 2.4762573 -3.272644 2.8464203 -5.6973114l-3.3889008 -0.45710754c-0.2425232 1.7886963 -0.81692505 3.1136475 -1.723175 3.9748688c-0.90626526 0.8612213 -2.035904 1.2918243 -3.388916 1.2918243c-1.6848907 0 -3.0506592 -0.6425934 -4.097336 -1.9277954c-1.0466614 -1.2852173 -1.5699921 -3.34552 -1.5699921 -6.1809235c0 -2.7956543 0.54248047 -4.8382874 1.6274414 -6.1279144c1.0849609 -1.2940369 2.495407 -1.9410706 4.2313538 -1.9410706c1.1487732 0 2.1273804 0.3577423 2.9357758 1.0732269c0.8126526 0.71546936 1.37854 1.7820587 1.6976471 3.199768l3.3506165 -0.5366211c-0.39569092 -2.1331635 -1.295578 -3.7783203 -2.699646 -4.9354477c-1.404068 -1.1615448 -3.210205 -1.7423172 -5.4184265 -1.7423172z" fill-rule="evenodd"/><path fill="#ff0000" d="m202.20323 136.62666l0 1.3116913c0 1.5767059 -0.18508911 2.769165 -0.5552521 3.5773926c-0.4850464 1.0467072 -1.2445221 1.8725891 -2.2784271 2.4776611c-1.033905 0.600647 -2.2145996 0.90097046 -3.5420685 0.90097046c-1.3402557 0 -2.3592682 -0.31799316 -3.0570526 -0.95396423c-0.69351196 -0.6359863 -1.0402832 -1.430954 -1.0402832 -2.3849182c0 -0.6227417 0.15956116 -1.1880493 0.47865295 -1.6959534c0.31910706 -0.51231384 0.7722473 -0.90097046 1.3594055 -1.1659546c0.5871582 -0.2649994 1.5891418 -0.503479 3.0059814 -0.7154846c2.5018005 -0.37098694 4.3781433 -0.82147217 5.6290436 -1.3514404zm-4.3845367 -10.990509c-1.748703 0 -3.286789 0.2495346 -4.614273 0.7485962c-1.3274841 0.4946518 -2.3422394 1.2035065 -3.044281 2.1265564c-0.70202637 0.91864014 -1.2062225 2.1265564 -1.512558 3.6237488l3.3697662 0.47698975c0.37016296 -1.4972076 0.94029236 -2.539505 1.7104034 -3.126892c0.7743683 -0.59181213 1.9720764 -0.88772583 3.5931396 -0.88772583c1.7359467 0 3.044281 0.40411377 3.9250183 1.2123413c0.65097046 0.5962219 0.9764557 1.6230621 0.9764557 3.0805206c0 0.13249207 -0.006378174 0.44384766 -0.019134521 0.93408203c-1.3147278 0.47698975 -3.363388 0.88772583 -6.145996 1.2322083c-1.3657837 0.17224121 -2.386917 0.35112 -3.0634308 0.53660583c-0.9190216 0.2649994 -1.7465668 0.6558533 -2.4826355 1.1725922c-0.7318268 0.5167389 -1.3253632 1.2034912 -1.7806244 2.0603027c-0.45100403 0.8523865 -0.6764984 1.7953186 -0.6764984 2.8287811c0 1.7621918 0.59991455 3.2108002 1.7997589 4.3458557c1.1998444 1.1306305 2.916626 1.6959381 5.1503754 1.6959381c1.3530121 0 2.618805 -0.23187256 3.7973633 -0.6956024c1.1828308 -0.46372986 2.412445 -1.2586975 3.6888733 -2.3849182c0.10211182 0.9937134 0.33187866 1.861557 0.68927 2.6035461l3.599533 0c-0.43399048 -0.80822754 -0.7254486 -1.6517792 -0.87435913 -2.5306702c-0.14466858 -0.8833008 -0.21699524 -2.9877777 -0.21699524 -6.3134155l0 -4.7698364c0 -1.5899506 -0.057434082 -2.6896667 -0.1723175 -3.2991333c-0.20422363 -0.98046875 -0.56163025 -1.7909088 -1.0721893 -2.4312973c-0.51057434 -0.64481354 -1.3083496 -1.1792145 -2.3933105 -1.6031952c-1.0849609 -0.42398834 -2.495407 -0.6359787 -4.2313538 -0.6359787z" fill-rule="evenodd"/><path fill="#ff0000" d="m217.7118 125.636154c-1.059433 0 -2.0529175 0.1435318 -2.9804535 0.43061066c-0.92329407 0.2826538 -1.6529694 0.62934875 -2.1890717 1.0400848c-0.714798 0.5299835 -1.2806854 1.1968765 -1.6976471 2.000679c-0.41271973 0.7993927 -0.61906433 1.6694489 -0.61906433 2.6101685c0 1.0334625 0.25102234 1.9786072 0.7530823 2.8354034c0.50631714 0.8523865 1.2466431 1.5214844 2.2209778 2.007309c0.9785919 0.48139954 2.7315521 1.0533447 5.2588806 1.7158203c1.8763428 0.49023438 3.0506592 0.8943329 3.522934 1.212326c0.6765137 0.46374512 1.0147705 1.0997162 1.0147705 1.9079437c0 0.90097046 -0.38293457 1.6871033 -1.1487885 2.3584137c-0.7658539 0.66690063 -1.9401703 1.0003357 -3.522934 1.0003357c-1.5700073 0 -2.7932587 -0.37760925 -3.6697235 -1.1328278c-0.87223816 -0.7552185 -1.404068 -1.8416901 -1.5955353 -3.2593842l-3.4080658 0.5564728c0.38293457 2.2391815 1.2657928 3.9284973 2.64859 5.0679626c1.3870544 1.1394501 3.4016724 1.7091827 6.043869 1.7091827c1.5955353 0 3.0251312 -0.28707886 4.288803 -0.8612213c1.2636566 -0.5785675 2.2294922 -1.3934174 2.8974762 -2.4445343c0.67225647 -1.0555573 1.0083771 -2.1795502 1.0083771 -3.3720093c0 -1.2189636 -0.27442932 -2.2391815 -0.82328796 -3.0606537c-0.54885864 -0.82147217 -1.3062134 -1.4464111 -2.2720337 -1.8748169c-0.96157837 -0.43281555 -2.6613464 -0.98709106 -5.0993347 -1.6628113c-1.6848755 -0.47698975 -2.6996307 -0.781723 -3.0442657 -0.9142151c-0.5999298 -0.25175476 -1.0402985 -0.56973267 -1.321106 -0.9539795c-0.2808075 -0.37098694 -0.42121887 -0.78834534 -0.42121887 -1.2520752c0 -0.72872925 0.33825684 -1.3647003 1.0147552 -1.9079437c0.6765137 -0.54322815 1.8061523 -0.81484985 3.388916 -0.81484985c1.3402405 0 2.3762817 0.30474854 3.1080933 0.91423035c0.7360687 0.6094818 1.1806946 1.4574432 1.3338623 2.5439148l3.3697662 -0.47698975c-0.21699524 -1.3647003 -0.61268616 -2.4533691 -1.1870728 -3.2660065c-0.5743866 -0.8170624 -1.4657593 -1.4640808 -2.674118 -1.9410629c-1.2040863 -0.47698975 -2.603897 -0.715477 -4.1994324 -0.715477z" fill-rule="evenodd"/><path fill="#ff0000" d="m239.02174 128.57755c1.748703 0 3.1719208 0.6889801 4.269638 2.0669403c0.714798 0.8877106 1.1487885 2.2192993 1.3019562 3.9947357l-11.353806 0c0.114868164 -1.8416901 0.7105408 -3.3123932 1.7869873 -4.412094c1.080719 -1.0997162 2.412445 -1.6495819 3.995224 -1.6495819zm-0.03829956 -2.941391c-2.808136 0 -5.0929413 0.9804611 -6.8544006 2.941391c-1.7614746 1.9609375 -2.642212 4.7168427 -2.642212 8.267731c0 3.4316254 0.8701019 6.0992126 2.6102905 8.002731c1.744461 1.8990936 4.103714 2.848648 7.0777893 2.848648c2.3613892 0 4.3015594 -0.5962219 5.8204956 -1.788681c1.5189514 -1.1924591 2.5592346 -2.8685303 3.1208649 -5.0282135l-3.5612183 -0.45710754c-0.52334595 1.5104523 -1.2317657 2.6101685 -2.1252594 3.2991333c-0.89349365 0.6889801 -1.9720764 1.0334625 -3.235733 1.0334625c-1.6976471 0 -3.1144867 -0.6161041 -4.2505035 -1.8483124c-1.1360168 -1.2322083 -1.7678528 -3.0076447 -1.8954926 -5.326309l15.16394 0c0.012771606 -0.42399597 0.01914978 -0.7419739 0.01914978 -0.95396423c0 -3.4846344 -0.8615875 -6.187546 -2.5847626 -8.108734c-1.723175 -1.9211807 -3.9441528 -2.881775 -6.6629486 -2.881775z" fill-rule="evenodd"/><path fill="#ff0000" d="m261.2507 126.11314l7.735138 21.106544l3.2165833 0l7.696869 -21.106544l-3.5420837 0l-4.5185547 12.878563c-0.54885864 1.563446 -0.97647095 2.901657 -1.2828064 4.014618c-0.39569092 -1.4707031 -0.8296814 -2.8883972 -1.3019409 -4.253113l-4.365387 -12.640068z" fill-rule="evenodd"/><path fill="#ff0000" d="m283.90088 126.11314l0 4.0742416l3.9250183 0l0 -4.0742416zm0 17.032295l0 4.0742493l3.9250183 0l0 -4.0742493z" fill-rule="evenodd"/><path fill="#c9daf8" d="m203.71823 327.82355l0 0c0 -13.085815 10.792648 -23.69397 24.106049 -23.69397l0 0c6.393326 0 12.524796 2.4963074 17.045563 6.939789c4.520752 4.443512 7.060501 10.470154 7.060501 16.75418l0 0c0 13.085846 -10.792648 23.694 -24.106064 23.694l0 0c-13.3134 0 -24.106049 -10.608154 -24.106049 -23.694z" fill-rule="evenodd"/><path stroke="#000000" stroke-width="2.0" stroke-linejoin="round" stroke-linecap="butt" d="m203.71823 327.82355l0 0c0 -13.085815 10.792648 -23.69397 24.106049 -23.69397l0 0c6.393326 0 12.524796 2.4963074 17.045563 6.939789c4.520752 4.443512 7.060501 10.470154 7.060501 16.75418l0 0c0 13.085846 -10.792648 23.694 -24.106064 23.694l0 0c-13.3134 0 -24.106049 -10.608154 -24.106049 -23.694z" fill-rule="evenodd"/><path fill="#000000" d="m222.6903 331.25668l2.84375 -0.34375q0.125 1.078125 0.71875 1.65625q0.59375 0.5625 1.4375 0.5625q0.90625 0 1.53125 -0.6875q0.625 -0.6875 0.625 -1.84375q0 -1.109375 -0.59375 -1.75q-0.59375 -0.65625 -1.453125 -0.65625q-0.5625 0 -1.34375 0.21875l0.328125 -2.375q1.1875 0.03125 1.8125 -0.515625q0.625 -0.546875 0.625 -1.453125q0 -0.765625 -0.46875 -1.21875q-0.453125 -0.46875 -1.21875 -0.46875q-0.75 0 -1.28125 0.53125q-0.53125 0.515625 -0.640625 1.515625l-2.703125 -0.46875q0.28125 -1.375 0.84375 -2.203125q0.578125 -0.828125 1.59375 -1.296875q1.015625 -0.484375 2.28125 -0.484375q2.15625 0 3.453125 1.375q1.078125 1.125 1.078125 2.546875q0 2.0 -2.203125 3.203125q1.3125 0.28125 2.09375 1.265625q0.78125 0.96875 0.78125 2.359375q0 2.0 -1.46875 3.421875q-1.453125 1.421875 -3.640625 1.421875q-2.078125 0 -3.453125 -1.1875q-1.359375 -1.203125 -1.578125 -3.125z" fill-rule="nonzero"/><path fill="#c9daf8" d="m277.15588 295.28415l0 0c0 -13.085815 10.792664 -23.69397 24.10608 -23.69397l0 0c6.3933105 0 12.52478 2.4963074 17.045532 6.939789c4.5207825 4.4434814 7.0605164 10.470154 7.0605164 16.75418l0 0c0 13.085815 -10.792664 23.694 -24.106049 23.694l0 0c-13.313416 0 -24.10608 -10.608185 -24.10608 -23.694z" fill-rule="evenodd"/><path stroke="#000000" stroke-width="2.0" stroke-linejoin="round" stroke-linecap="butt" d="m277.15588 295.28415l0 0c0 -13.085815 10.792664 -23.69397 24.10608 -23.69397l0 0c6.3933105 0 12.52478 2.4963074 17.045532 6.939789c4.5207825 4.4434814 7.0605164 10.470154 7.0605164 16.75418l0 0c0 13.085815 -10.792664 23.694 -24.106049 23.694l0 0c-13.313416 0 -24.10608 -10.608185 -24.10608 -23.694z" fill-rule="evenodd"/><path fill="#000000" d="m301.97174 302.76416l0 -3.078125l-6.25 0l0 -2.5625l6.625 -9.6875l2.46875 0l0 9.6875l1.890625 0l0 2.5625l-1.890625 0l0 3.078125l-2.84375 0zm0 -5.640625l0 -5.21875l-3.5 5.21875l3.5 0z" fill-rule="nonzero"/><path fill="#cfe2f3" d="m141.88979 16.76903l171.84251 0l0 39.590553l-171.84251 0z" fill-rule="evenodd"/><path stroke="#000000" stroke-width="2.0" stroke-linejoin="round" stroke-linecap="butt" d="m141.88979 16.76903l171.84251 0l0 39.590553l-171.84251 0z" fill-rule="evenodd"/><path fill="#000000" d="m185.72119 42.424305l-2.1875 0l0 -8.296875l2.03125 0l0 1.171875q0.53125 -0.828125 0.9375 -1.09375q0.421875 -0.265625 0.953125 -0.265625q0.75 0 1.453125 0.40625l-0.6875 1.921875q-0.546875 -0.359375 -1.03125 -0.359375q-0.453125 0 -0.78125 0.25q-0.3125 0.25 -0.5 0.921875q-0.1875 0.65625 -0.1875 2.78125l0 2.5625zm8.9296875 -2.640625l2.1875 0.359375q-0.421875 1.203125 -1.328125 1.84375q-0.90625 0.625 -2.28125 0.625q-2.15625 0 -3.203125 -1.421875q-0.8125 -1.125 -0.8125 -2.859375q0 -2.0625 1.078125 -3.21875q1.078125 -1.171875 2.71875 -1.171875q1.859375 0 2.921875 1.21875q1.078125 1.21875 1.03125 3.75l-5.5 0q0.015625 0.96875 0.515625 1.515625q0.515625 0.546875 1.28125 0.546875q0.515625 0 0.859375 -0.28125q0.359375 -0.28125 0.53125 -0.90625zm0.125 -2.21875q-0.015625 -0.953125 -0.484375 -1.453125q-0.46875 -0.5 -1.140625 -0.5q-0.71875 0 -1.1875 0.53125q-0.46875 0.515625 -0.46875 1.421875l3.28125 0zm5.6171875 -0.90625l-2.0 -0.359375q0.34375 -1.203125 1.15625 -1.78125q0.828125 -0.578125 2.4375 -0.578125q1.46875 0 2.1875 0.34375q0.71875 0.34375 1.015625 0.890625q0.296875 0.53125 0.296875 1.953125l-0.03125 2.5625q0 1.09375 0.109375 1.625q0.109375 0.515625 0.390625 1.109375l-2.171875 0q-0.078125 -0.21875 -0.203125 -0.65625q-0.0625 -0.1875 -0.078125 -0.25q-0.5625 0.546875 -1.203125 0.828125q-0.640625 0.265625 -1.375 0.265625q-1.28125 0 -2.015625 -0.6875q-0.734375 -0.703125 -0.734375 -1.765625q0 -0.703125 0.328125 -1.25q0.34375 -0.5625 0.9375 -0.84375q0.609375 -0.296875 1.75 -0.515625q1.546875 -0.296875 2.140625 -0.546875l0 -0.21875q0 -0.625 -0.3125 -0.890625q-0.3125 -0.28125 -1.1875 -0.28125q-0.578125 0 -0.90625 0.234375q-0.328125 0.234375 -0.53125 0.8125zm2.9375 1.78125q-0.421875 0.140625 -1.34375 0.34375q-0.90625 0.1875 -1.1875 0.375q-0.4375 0.296875 -0.4375 0.765625q0 0.46875 0.34375 0.8125q0.34375 0.328125 0.875 0.328125q0.59375 0 1.140625 -0.390625q0.390625 -0.296875 0.515625 -0.734375q0.09375 -0.28125 0.09375 -1.0625l0 -0.4375zm11.9296875 3.984375l-2.046875 0l0 -1.21875q-0.5 0.703125 -1.203125 1.0625q-0.6875 0.34375 -1.390625 0.34375q-1.421875 0 -2.453125 -1.15625q-1.015625 -1.15625 -1.015625 -3.21875q0 -2.109375 0.984375 -3.203125q1.0 -1.09375 2.515625 -1.09375q1.390625 0 2.40625 1.15625l0 -4.125l2.203125 0l0 11.453125zm-5.859375 -4.328125q0 1.328125 0.359375 1.921875q0.53125 0.859375 1.484375 0.859375q0.765625 0 1.296875 -0.640625q0.53125 -0.65625 0.53125 -1.9375q0 -1.421875 -0.515625 -2.046875q-0.515625 -0.640625 -1.328125 -0.640625q-0.78125 0 -1.3125 0.625q-0.515625 0.625 -0.515625 1.859375zm14.75 4.328125l-3.34375 -8.296875l2.296875 0l1.5625 4.234375l0.453125 1.40625q0.1875 -0.53125 0.234375 -0.703125q0.109375 -0.359375 0.234375 -0.703125l1.578125 -4.234375l2.25 0l-3.296875 8.296875l-1.96875 0zm11.0625 -9.421875l0 -2.03125l2.1875 0l0 2.03125l-2.1875 0zm0 9.421875l0 -8.296875l2.1875 0l0 8.296875l-2.1875 0zm11.9921875 0l-2.203125 0l0 -4.234375q0 -1.34375 -0.140625 -1.734375q-0.140625 -0.40625 -0.453125 -0.625q-0.3125 -0.21875 -0.765625 -0.21875q-0.5625 0 -1.015625 0.3125q-0.453125 0.3125 -0.625 0.828125q-0.171875 0.515625 -0.171875 1.90625l0 3.765625l-2.1875 0l0 -8.296875l2.03125 0l0 1.21875q1.09375 -1.40625 2.734375 -1.40625q0.734375 0 1.328125 0.265625q0.609375 0.25 0.90625 0.65625q0.3125 0.40625 0.4375 0.921875q0.125 0.515625 0.125 1.484375l0 5.15625zm2.1640625 -8.296875l2.046875 0l0 1.21875q0.390625 -0.625 1.0625 -1.015625q0.6875 -0.390625 1.515625 -0.390625q1.453125 0 2.453125 1.140625q1.015625 1.125 1.015625 3.140625q0 2.078125 -1.015625 3.234375q-1.015625 1.15625 -2.46875 1.15625q-0.6875 0 -1.25 -0.265625q-0.546875 -0.28125 -1.171875 -0.953125l0 4.1875l-2.1875 0l0 -11.453125zm2.171875 4.0q0 1.40625 0.546875 2.078125q0.5625 0.65625 1.359375 0.65625q0.765625 0 1.265625 -0.609375q0.515625 -0.609375 0.515625 -2.015625q0 -1.296875 -0.53125 -1.921875q-0.515625 -0.640625 -1.296875 -0.640625q-0.796875 0 -1.328125 0.625q-0.53125 0.609375 -0.53125 1.828125zm13.1171875 4.296875l0 -1.25q-0.453125 0.671875 -1.1875 1.0625q-0.734375 0.375 -1.5625 0.375q-0.828125 0 -1.5 -0.359375q-0.65625 -0.375 -0.953125 -1.03125q-0.296875 -0.671875 -0.296875 -1.84375l0 -5.25l2.1875 0l0 3.8125q0 1.75 0.125 2.140625q0.125 0.390625 0.4375 0.625q0.328125 0.234375 0.8125 0.234375q0.5625 0 1.0 -0.3125q0.453125 -0.3125 0.609375 -0.765625q0.171875 -0.453125 0.171875 -2.234375l0 -3.5l2.203125 0l0 8.296875l-2.046875 0zm8.1171875 -8.296875l0 1.75l-1.5 0l0 3.34375q0 1.015625 0.046875 1.1875q0.046875 0.15625 0.1875 0.265625q0.15625 0.109375 0.375 0.109375q0.3125 0 0.890625 -0.203125l0.1875 1.703125q-0.765625 0.328125 -1.734375 0.328125q-0.59375 0 -1.078125 -0.203125q-0.46875 -0.203125 -0.703125 -0.515625q-0.21875 -0.3125 -0.296875 -0.859375q-0.078125 -0.375 -0.078125 -1.546875l0 -3.609375l-1.0 0l0 -1.75l1.0 0l0 -1.65625l2.203125 -1.28125l0 2.9375l1.5 0z" fill-rule="nonzero"/><path fill="#000000" fill-opacity="0.0" d="m227.81104 56.35958l0 42.425194" fill-rule="evenodd"/><path stroke="#38761d" stroke-width="2.0" stroke-linejoin="round" stroke-linecap="butt" d="m227.81105 56.35958l0 30.425194" fill-rule="evenodd"/><path fill="#38761d" stroke="#38761d" stroke-width="2.0" stroke-linecap="butt" d="m224.50758 86.784775l3.3034668 9.076195l3.3034515 -9.076195z" fill-rule="evenodd"/><path fill="#cfe2f3" d="m163.93701 423.6404l128.53543 0l0 42.4252l-128.53543 0z" fill-rule="evenodd"/><path stroke="#000000" stroke-width="2.0" stroke-linejoin="round" stroke-linecap="butt" d="m163.93701 423.6404l128.53543 0l0 42.4252l-128.53543 0z" fill-rule="evenodd"/><path fill="#000000" d="m220.45863 441.213l-2.203125 0l0 -4.234375q0 -1.34375 -0.140625 -1.734375q-0.140625 -0.40625 -0.453125 -0.625q-0.3125 -0.21875 -0.765625 -0.21875q-0.5625 0 -1.015625 0.3125q-0.453125 0.3125 -0.625 0.828125q-0.171875 0.515625 -0.171875 1.90625l0 3.765625l-2.1875 0l0 -8.296875l2.03125 0l0 1.21875q1.09375 -1.40625 2.734375 -1.40625q0.734375 0 1.328125 0.265625q0.609375 0.25 0.90625 0.65625q0.3125 0.40625 0.4375 0.921875q0.125 0.515625 0.125 1.484375l0 5.15625zm7.0234375 -2.640625l2.1875 0.359375q-0.421875 1.203125 -1.328125 1.84375q-0.90625 0.625 -2.28125 0.625q-2.15625 0 -3.203125 -1.421875q-0.8125 -1.125 -0.8125 -2.859375q0 -2.0625 1.078125 -3.21875q1.078125 -1.171875 2.71875 -1.171875q1.859375 0 2.921875 1.21875q1.078125 1.21875 1.03125 3.75l-5.5 0q0.015625 0.96875 0.515625 1.515625q0.515625 0.546875 1.28125 0.546875q0.515625 0 0.859375 -0.28125q0.359375 -0.28125 0.53125 -0.90625zm0.125 -2.21875q-0.015625 -0.953125 -0.484375 -1.453125q-0.46875 -0.5 -1.140625 -0.5q-0.71875 0 -1.1875 0.53125q-0.46875 0.515625 -0.46875 1.421875l3.28125 0zm2.9140625 4.859375l3.0 -4.28125l-2.875 -4.015625l2.6875 0l1.46875 2.28125l1.546875 -2.28125l2.578125 0l-2.8125 3.921875l3.0625 4.375l-2.6875 0l-1.6875 -2.578125l-1.703125 2.578125l-2.578125 0zm13.7578125 -8.296875l0 1.75l-1.5 0l0 3.34375q0 1.015625 0.046875 1.1875q0.046875 0.15625 0.1875 0.265625q0.15625 0.109375 0.375 0.109375q0.3125 0 0.890625 -0.203125l0.1875 1.703125q-0.765625 0.328125 -1.734375 0.328125q-0.59375 0 -1.078125 -0.203125q-0.46875 -0.203125 -0.703125 -0.515625q-0.21875 -0.3125 -0.296875 -0.859375q-0.078125 -0.375 -0.078125 -1.546875l0 -3.609375l-1.0 0l0 -1.75l1.0 0l0 -1.65625l2.203125 -1.28125l0 2.9375l1.5 0z" fill-rule="nonzero"/><path fill="#000000" d="m190.79066 457.838l2.203125 -0.328125q0.140625 0.640625 0.5625 0.96875q0.4375 0.328125 1.21875 0.328125q0.84375 0 1.28125 -0.3125q0.28125 -0.21875 0.28125 -0.578125q0 -0.25 -0.15625 -0.421875q-0.15625 -0.15625 -0.734375 -0.28125q-2.65625 -0.59375 -3.359375 -1.078125q-0.984375 -0.671875 -0.984375 -1.859375q0 -1.078125 0.84375 -1.8125q0.859375 -0.734375 2.640625 -0.734375q1.703125 0 2.53125 0.5625q0.828125 0.546875 1.140625 1.625l-2.0625 0.390625q-0.140625 -0.484375 -0.515625 -0.734375q-0.359375 -0.265625 -1.046875 -0.265625q-0.875 0 -1.25 0.234375q-0.25 0.171875 -0.25 0.453125q0 0.234375 0.21875 0.390625q0.296875 0.21875 2.046875 0.625q1.765625 0.390625 2.453125 0.96875q0.6875 0.59375 0.6875 1.640625q0 1.140625 -0.953125 1.96875q-0.953125 0.8125 -2.8125 0.8125q-1.703125 0 -2.6875 -0.6875q-0.984375 -0.6875 -1.296875 -1.875zm13.4765625 -5.921875l0 1.75l-1.5 0l0 3.34375q0 1.015625 0.046875 1.1875q0.046875 0.15625 0.1875 0.265625q0.15625 0.109375 0.375 0.109375q0.3125 0 0.890625 -0.203125l0.1875 1.703125q-0.765625 0.328125 -1.734375 0.328125q-0.59375 0 -1.078125 -0.203125q-0.46875 -0.203125 -0.703125 -0.515625q-0.21875 -0.3125 -0.296875 -0.859375q-0.078125 -0.375 -0.078125 -1.546875l0 -3.609375l-1.0 0l0 -1.75l1.0 0l0 -1.65625l2.203125 -1.28125l0 2.9375l1.5 0zm3.171875 2.53125l-2.0 -0.359375q0.34375 -1.203125 1.15625 -1.78125q0.828125 -0.578125 2.4375 -0.578125q1.46875 0 2.1875 0.34375q0.71875 0.34375 1.015625 0.890625q0.296875 0.53125 0.296875 1.953125l-0.03125 2.5625q0 1.09375 0.109375 1.625q0.109375 0.515625 0.390625 1.109375l-2.171875 0q-0.078125 -0.21875 -0.203125 -0.65625q-0.0625 -0.1875 -0.078125 -0.25q-0.5625 0.546875 -1.203125 0.828125q-0.640625 0.265625 -1.375 0.265625q-1.28125 0 -2.015625 -0.6875q-0.734375 -0.703125 -0.734375 -1.765625q0 -0.703125 0.328125 -1.25q0.34375 -0.5625 0.9375 -0.84375q0.609375 -0.296875 1.75 -0.515625q1.546875 -0.296875 2.140625 -0.546875l0 -0.21875q0 -0.625 -0.3125 -0.890625q-0.3125 -0.28125 -1.1875 -0.28125q-0.578125 0 -0.90625 0.234375q-0.328125 0.234375 -0.53125 0.8125zm2.9375 1.78125q-0.421875 0.140625 -1.34375 0.34375q-0.90625 0.1875 -1.1875 0.375q-0.4375 0.296875 -0.4375 0.765625q0 0.46875 0.34375 0.8125q0.34375 0.328125 0.875 0.328125q0.59375 0 1.140625 -0.390625q0.390625 -0.296875 0.515625 -0.734375q0.09375 -0.28125 0.09375 -1.0625l0 -0.4375zm8.1171875 -4.3125l0 1.75l-1.5 0l0 3.34375q0 1.015625 0.046875 1.1875q0.046875 0.15625 0.1875 0.265625q0.15625 0.109375 0.375 0.109375q0.3125 0 0.890625 -0.203125l0.1875 1.703125q-0.765625 0.328125 -1.734375 0.328125q-0.59375 0 -1.078125 -0.203125q-0.46875 -0.203125 -0.703125 -0.515625q-0.21875 -0.3125 -0.296875 -0.859375q-0.078125 -0.375 -0.078125 -1.546875l0 -3.609375l-1.0 0l0 -1.75l1.0 0l0 -1.65625l2.203125 -1.28125l0 2.9375l1.5 0zm6.328125 5.65625l2.1875 0.359375q-0.421875 1.203125 -1.328125 1.84375q-0.90625 0.625 -2.28125 0.625q-2.15625 0 -3.203125 -1.421875q-0.8125 -1.125 -0.8125 -2.859375q0 -2.0625 1.078125 -3.21875q1.078125 -1.171875 2.71875 -1.171875q1.859375 0 2.921875 1.21875q1.078125 1.21875 1.03125 3.75l-5.5 0q0.015625 0.96875 0.515625 1.515625q0.515625 0.546875 1.28125 0.546875q0.515625 0 0.859375 -0.28125q0.359375 -0.28125 0.53125 -0.90625zm0.125 -2.21875q-0.015625 -0.953125 -0.484375 -1.453125q-0.46875 -0.5 -1.140625 -0.5q-0.71875 0 -1.1875 0.53125q-0.46875 0.515625 -0.46875 1.421875l3.28125 0zm3.8046875 -3.4375l2.03125 0l0 1.125q1.078125 -1.3125 2.578125 -1.3125q0.796875 0 1.375 0.328125q0.59375 0.328125 0.96875 0.984375q0.546875 -0.65625 1.171875 -0.984375q0.640625 -0.328125 1.359375 -0.328125q0.921875 0 1.546875 0.375q0.640625 0.359375 0.953125 1.078125q0.21875 0.53125 0.21875 1.71875l0 5.3125l-2.1875 0l0 -4.75q0 -1.234375 -0.234375 -1.59375q-0.296875 -0.46875 -0.9375 -0.46875q-0.453125 0 -0.859375 0.28125q-0.40625 0.28125 -0.59375 0.828125q-0.171875 0.546875 -0.171875 1.71875l0 3.984375l-2.203125 0l0 -4.546875q0 -1.21875 -0.125 -1.5625q-0.109375 -0.359375 -0.359375 -0.53125q-0.234375 -0.171875 -0.65625 -0.171875q-0.515625 0 -0.921875 0.28125q-0.40625 0.265625 -0.578125 0.78125q-0.171875 0.515625 -0.171875 1.71875l0 4.03125l-2.203125 0l0 -8.296875zm19.195312 5.65625l2.1875 0.359375q-0.421875 1.203125 -1.328125 1.84375q-0.90625 0.625 -2.28125 0.625q-2.15625 0 -3.203125 -1.421875q-0.8125 -1.125 -0.8125 -2.859375q0 -2.0625 1.078125 -3.21875q1.078125 -1.171875 2.71875 -1.171875q1.859375 0 2.921875 1.21875q1.078125 1.21875 1.03125 3.75l-5.5 0q0.015625 0.96875 0.515625 1.515625q0.515625 0.546875 1.28125 0.546875q0.515625 0 0.859375 -0.28125q0.359375 -0.28125 0.53125 -0.90625zm0.125 -2.21875q-0.015625 -0.953125 -0.484375 -1.453125q-0.46875 -0.5 -1.140625 -0.5q-0.71875 0 -1.1875 0.53125q-0.46875 0.515625 -0.46875 1.421875l3.28125 0zm11.523422 4.859375l-2.203125 0l0 -4.234375q0 -1.34375 -0.140625 -1.734375q-0.140625 -0.40625 -0.453125 -0.625q-0.3125 -0.21875 -0.765625 -0.21875q-0.56248474 0 -1.0156097 0.3125q-0.453125 0.3125 -0.625 0.828125q-0.171875 0.515625 -0.171875 1.90625l0 3.765625l-2.1875 0l0 -8.296875l2.03125 0l0 1.21875q1.09375 -1.40625 2.7343597 -1.40625q0.734375 0 1.328125 0.265625q0.609375 0.25 0.90625 0.65625q0.3125 0.40625 0.4375 0.921875q0.125 0.515625 0.125 1.484375l0 5.15625zm6.0234375 -8.296875l0 1.75l-1.5 0l0 3.34375q0 1.015625 0.046875 1.1875q0.046875 0.15625 0.1875 0.265625q0.15625 0.109375 0.375 0.109375q0.3125 0 0.890625 -0.203125l0.1875 1.703125q-0.765625 0.328125 -1.734375 0.328125q-0.59375 0 -1.078125 -0.203125q-0.46875 -0.203125 -0.703125 -0.515625q-0.21875 -0.3125 -0.296875 -0.859375q-0.078125 -0.375 -0.078125 -1.546875l0 -3.609375l-1.0 0l0 -1.75l1.0 0l0 -1.65625l2.203125 -1.28125l0 2.9375l1.5 0z" fill-rule="nonzero"/><path fill="#000000" fill-opacity="0.0" d="m353.0862 228.09206l24.999878 0l0 216.7559l-85.5983 0" fill-rule="evenodd"/><path stroke="#cc0000" stroke-width="2.0" stroke-linejoin="round" stroke-linecap="butt" stroke-dasharray="16.0,6.0" d="m353.0862 228.09204l24.999878 0l0 216.75592l-73.5983 0" fill-rule="evenodd"/><path fill="#cc0000" stroke="#cc0000" stroke-width="2.0" stroke-linecap="butt" d="m304.4878 441.5445l-9.076202 3.3034668l9.076202 3.3034668z" fill-rule="evenodd"/><g filter="url(#shadowFilter-p.1)"><use xlink:href="#p.1" transform="matrix(1.0 0.0 0.0 1.0 0.0 2.0)"/></g><defs><filter id="shadowFilter-p.1" filterUnits="userSpaceOnUse"><feGaussianBlur in="SourceAlpha" stdDeviation="2.0" result="blur"/><feComponentTransfer in="blur" color-interpolation-filters="sRGB"><feFuncR type="linear" slope="0" intercept="0.0"/><feFuncG type="linear" slope="0" intercept="0.0"/><feFuncB type="linear" slope="0" intercept="0.0"/><feFuncA type="linear" slope="0.5" intercept="0"/></feComponentTransfer></filter></defs><g id="p.1"><path fill="#e69138" d="m170.03049 228.63606l26.740158 -26.740158l0 13.370071l83.49608 0l0 26.740158l-83.49608 0l0 13.370087z" fill-rule="evenodd"/><path stroke="#000000" stroke-width="2.0" stroke-linejoin="round" stroke-linecap="butt" d="m170.03049 228.63606l26.740158 -26.740158l0 13.370071l83.49608 0l0 26.740158l-83.49608 0l0 13.370087z" fill-rule="evenodd"/><path fill="#ffffff" d="m216.00436 230.58731q0 -1.28125 0.625 -2.46875q0.625 -1.203125 1.78125 -1.828125q1.15625 -0.625 2.578125 -0.625q2.1875 0 3.59375 1.421875q1.40625 1.421875 1.40625 3.609375q0 2.1875 -1.421875 3.640625q-1.421875 1.4375 -3.5625 1.4375q-1.328125 0 -2.546875 -0.59375q-1.203125 -0.609375 -1.828125 -1.765625q-0.625 -1.171875 -0.625 -2.828125zm2.625 0.125q0 1.453125 0.671875 2.21875q0.6875 0.75 1.6875 0.75q1.0 0 1.671875 -0.75q0.6875 -0.765625 0.6875 -2.234375q0 -1.421875 -0.6875 -2.1875q-0.671875 -0.765625 -1.671875 -0.765625q-1.0 0 -1.6875 0.765625q-0.671875 0.765625 -0.671875 2.203125zm8.239731 -4.828125l1.421875 0l0 -0.734375q0 -1.21875 0.25 -1.8125q0.265625 -0.609375 0.953125 -0.984375q0.703125 -0.375 1.78125 -0.375q1.09375 0 2.140625 0.328125l-0.359375 1.78125q-0.609375 -0.140625 -1.171875 -0.140625q-0.546875 0 -0.796875 0.265625q-0.234375 0.25 -0.234375 0.984375l0 0.6875l1.90625 0l0 2.015625l-1.90625 0l0 7.65625l-2.5625 0l0 -7.65625l-1.421875 0l0 -2.015625zm12.520981 9.671875l0 -2.5625l2.5625 0l0 2.5625l-2.5625 0zm5.183304 0l0 -2.5625l2.5625 0l0 2.5625l-2.5625 0zm5.183304 0l0 -2.5625l2.5625 0l0 2.5625l-2.5625 0z" fill-rule="nonzero"/></g><path fill="#000000" fill-opacity="0.0" d="m99.92323 232.73389l-25.00032 0l0 212.12598l89.00032 0" fill-rule="evenodd"/><path stroke="#6aa84f" stroke-width="2.0" stroke-linejoin="round" stroke-linecap="butt" d="m99.923225 232.73389l-25.000313 0l0 212.12598l77.00032 0" fill-rule="evenodd"/><path fill="#6aa84f" stroke="#6aa84f" stroke-width="2.0" stroke-linecap="butt" d="m151.92323 448.16333l9.076187 -3.3034668l-9.076187 -3.3034668z" fill-rule="evenodd"/><path fill="#000000" fill-opacity="0.0" d="m157.48985 323.42786l0 50.10623l70.70865 0l0 50.114258" fill-rule="evenodd"/><path stroke="#6aa84f" stroke-width="2.0" stroke-linejoin="round" stroke-linecap="butt" stroke-dasharray="8.0,6.0" d="m157.48985 323.42786l0 50.10623l70.70865 0l0 50.114258" fill-rule="evenodd"/><path fill="#000000" fill-opacity="0.0" d="m227.82428 351.51755l0 36.061554l0.3779602 0l0 36.064423" fill-rule="evenodd"/><path stroke="#6aa84f" stroke-width="2.0" stroke-linejoin="round" stroke-linecap="butt" stroke-dasharray="8.0,6.0" d="m227.8243 351.51755l0 36.061554l0.37794495 0l0 24.064423" fill-rule="evenodd"/><path fill="#6aa84f" stroke="#6aa84f" stroke-width="2.0" stroke-linecap="butt" d="m224.89877 411.64352l3.3034668 9.076202l3.3034668 -9.076202z" fill-rule="evenodd"/><path fill="#000000" fill-opacity="0.0" d="m301.26196 318.97815l0 52.33069l-73.07088 0l0 52.33072" fill-rule="evenodd"/><path stroke="#6aa84f" stroke-width="2.0" stroke-linejoin="round" stroke-linecap="butt" stroke-dasharray="8.0,6.0" d="m301.26196 318.97815l0 52.33069l-73.07088 0l0 52.33072" fill-rule="evenodd"/><path fill="#000000" fill-opacity="0.0" d="m354.3386 116.51407l-25.35434 87.87402" fill-rule="evenodd"/><path stroke="#000000" stroke-width="2.0" stroke-linejoin="round" stroke-linecap="butt" d="m354.3386 116.51408l-22.02768 76.34434" fill-rule="evenodd"/><path fill="#000000" stroke="#000000" stroke-width="2.0" stroke-linecap="butt" d="m329.13693 191.94261l0.65786743 9.636261l5.690094 -7.8046722z" fill-rule="evenodd"/><path fill="#000000" fill-opacity="0.0" d="m309.37796 69.112495l89.921265 0l0 47.401573l-89.921265 0z" fill-rule="evenodd"/><path fill="#9900ff" d="m335.92453 97.18375l3.28125 0.5625q-0.640625 1.796875 -2.015625 2.75q-1.359375 0.9375 -3.40625 0.9375q-3.25 0 -4.796875 -2.125q-1.234375 -1.703125 -1.234375 -4.28125q0 -3.09375 1.609375 -4.84375q1.625 -1.765625 4.09375 -1.765625q2.78125 0 4.375 1.84375q1.609375 1.828125 1.546875 5.609375l-8.25 0q0.03125 1.46875 0.796875 2.28125q0.765625 0.8125 1.890625 0.8125q0.78125 0 1.296875 -0.421875q0.53125 -0.421875 0.8125 -1.359375zm0.1875 -3.328125q-0.046875 -1.421875 -0.75 -2.15625q-0.703125 -0.75 -1.703125 -0.75q-1.078125 0 -1.78125 0.78125q-0.703125 0.78125 -0.6875 2.125l4.921875 0zm5.9414062 7.296875l0 -17.1875l3.296875 0l0 17.1875l-3.296875 0zm5.5117188 -3.546875l3.3125 -0.515625q0.203125 0.96875 0.84375 1.46875q0.65625 0.5 1.8125 0.5q1.28125 0 1.921875 -0.46875q0.4375 -0.328125 0.4375 -0.890625q0 -0.375 -0.234375 -0.609375q-0.25 -0.234375 -1.109375 -0.4375q-3.984375 -0.875 -5.046875 -1.609375q-1.484375 -1.0 -1.484375 -2.796875q0 -1.625 1.28125 -2.71875q1.28125 -1.109375 3.96875 -1.109375q2.546875 0 3.78125 0.84375q1.25 0.828125 1.71875 2.453125l-3.109375 0.578125q-0.1875 -0.734375 -0.75 -1.109375q-0.5625 -0.390625 -1.59375 -0.390625q-1.296875 0 -1.859375 0.359375q-0.375 0.265625 -0.375 0.671875q0 0.34375 0.328125 0.59375q0.453125 0.328125 3.078125 0.9375q2.625 0.59375 3.671875 1.453125q1.03125 0.875 1.03125 2.453125q0 1.703125 -1.4375 2.9375q-1.421875 1.234375 -4.21875 1.234375q-2.546875 0 -4.03125 -1.03125q-1.484375 -1.03125 -1.9375 -2.796875zm21.722656 -0.421875l3.28125 0.5625q-0.640625 1.796875 -2.015625 2.75q-1.359375 0.9375 -3.40625 0.9375q-3.25 0 -4.796875 -2.125q-1.234375 -1.703125 -1.234375 -4.28125q0 -3.09375 1.609375 -4.84375q1.625 -1.765625 4.09375 -1.765625q2.78125 0 4.375 1.84375q1.609375 1.828125 1.546875 5.609375l-8.25 0q0.03125 1.46875 0.796875 2.28125q0.765625 0.8125 1.890625 0.8125q0.78125 0 1.296875 -0.421875q0.53125 -0.421875 0.8125 -1.359375zm0.1875 -3.328125q-0.046875 -1.421875 -0.75 -2.15625q-0.703125 -0.75 -1.703125 -0.75q-1.078125 0 -1.78125 0.78125q-0.703125 0.78125 -0.6875 2.125l4.921875 0zm6.5820312 -1.859375l0 -3.296875l3.296875 0l0 3.296875l-3.296875 0zm0 9.15625l0 -3.296875l3.296875 0l0 3.296875l-3.296875 0z" fill-rule="nonzero"/></g></svg>