<?xml version="1.0" encoding="UTF-8"?>
<!DOCTYPE svg PUBLIC "-//W3C//DTD SVG 1.1//EN" "http://www.w3.org/Graphics/SVG/1.1/DTD/svg11.dtd">
<svg xmlns="http://www.w3.org/2000/svg" xmlns:xlink="http://www.w3.org/1999/xlink" version="1.1" width="850px" height="600px" viewBox="-0.5 -0.5 850 600" style="background-color: rgb(48, 44, 44);"><defs><clipPath id="mx-clip-595-140-30-30-0"><rect x="595" y="140" width="30" height="30"/></clipPath><clipPath id="mx-clip-631-140-112-30-0"><rect x="631" y="140" width="112" height="30"/></clipPath><clipPath id="mx-clip-595-170-30-30-0"><rect x="595" y="170" width="30" height="30"/></clipPath><clipPath id="mx-clip-631-170-112-30-0"><rect x="631" y="170" width="112" height="30"/></clipPath><clipPath id="mx-clip-631-200-112-30-0"><rect x="631" y="200" width="112" height="30"/></clipPath><clipPath id="mx-clip-631-230-112-25-0"><rect x="631" y="230" width="112" height="25"/></clipPath><clipPath id="mx-clip-598-383-30-30-0"><rect x="598" y="383" width="30" height="30"/></clipPath><clipPath id="mx-clip-634-383-116-30-0"><rect x="634" y="383" width="116" height="30"/></clipPath><clipPath id="mx-clip-598-413-30-31-0"><rect x="598" y="413" width="30" height="31"/></clipPath><clipPath id="mx-clip-634-413-116-31-0"><rect x="634" y="413" width="116" height="31"/></clipPath><clipPath id="mx-clip-634-444-116-32-0"><rect x="634" y="444" width="116" height="32"/></clipPath><clipPath id="mx-clip-598-476-30-34-0"><rect x="598" y="476" width="30" height="34"/></clipPath><clipPath id="mx-clip-634-476-116-34-0"><rect x="634" y="476" width="116" height="34"/></clipPath><clipPath id="mx-clip-634-510-116-30-0"><rect x="634" y="510" width="116" height="30"/></clipPath><clipPath id="mx-clip-634-540-116-29-0"><rect x="634" y="540" width="116" height="29"/></clipPath><clipPath id="mx-clip-345-200-30-30-0"><rect x="345" y="200" width="30" height="30"/></clipPath><clipPath id="mx-clip-381-200-142-30-0"><rect x="381" y="200" width="142" height="30"/></clipPath><clipPath id="mx-clip-345-230-30-30-0"><rect x="345" y="230" width="30" height="30"/></clipPath><clipPath id="mx-clip-381-230-142-30-0"><rect x="381" y="230" width="142" height="30"/></clipPath><clipPath id="mx-clip-345-260-30-30-0"><rect x="345" y="260" width="30" height="30"/></clipPath><clipPath id="mx-clip-381-260-142-30-0"><rect x="381" y="260" width="142" height="30"/></clipPath><clipPath id="mx-clip-381-290-142-30-0"><rect x="381" y="290" width="142" height="30"/></clipPath><clipPath id="mx-clip-90-74-30-30-0"><rect x="90" y="74" width="30" height="30"/></clipPath><clipPath id="mx-clip-126-74-144-30-0"><rect x="126" y="74" width="144" height="30"/></clipPath><clipPath id="mx-clip-90-104-30-30-0"><rect x="90" y="104" width="30" height="30"/></clipPath><clipPath id="mx-clip-126-104-144-30-0"><rect x="126" y="104" width="144" height="30"/></clipPath><clipPath id="mx-clip-90-134-30-30-0"><rect x="90" y="134" width="30" height="30"/></clipPath><clipPath id="mx-clip-126-134-144-30-0"><rect x="126" y="134" width="144" height="30"/></clipPath><clipPath id="mx-clip-126-164-144-30-0"><rect x="126" y="164" width="144" height="30"/></clipPath><clipPath id="mx-clip-126-194-144-30-0"><rect x="126" y="194" width="144" height="30"/></clipPath><clipPath id="mx-clip-126-224-144-30-0"><rect x="126" y="224" width="144" height="30"/></clipPath><clipPath id="mx-clip-90-380-30-30-0"><rect x="90" y="380" width="30" height="30"/></clipPath><clipPath id="mx-clip-126-380-144-30-0"><rect x="126" y="380" width="144" height="30"/></clipPath><clipPath id="mx-clip-90-410-30-30-0"><rect x="90" y="410" width="30" height="30"/></clipPath><clipPath id="mx-clip-126-410-144-30-0"><rect x="126" y="410" width="144" height="30"/></clipPath><clipPath id="mx-clip-126-440-144-30-0"><rect x="126" y="440" width="144" height="30"/></clipPath><clipPath id="mx-clip-126-470-144-30-0"><rect x="126" y="470" width="144" height="30"/></clipPath><clipPath id="mx-clip-126-500-144-30-0"><rect x="126" y="500" width="144" height="30"/></clipPath><clipPath id="mx-clip-126-530-144-30-0"><rect x="126" y="530" width="144" height="30"/></clipPath><clipPath id="mx-clip-346-383-30-30-0"><rect x="346" y="383" width="30" height="30"/></clipPath><clipPath id="mx-clip-382-383-141-30-0"><rect x="382" y="383" width="141" height="30"/></clipPath><clipPath id="mx-clip-346-413-30-30-0"><rect x="346" y="413" width="30" height="30"/></clipPath><clipPath id="mx-clip-382-413-141-30-0"><rect x="382" y="413" width="141" height="30"/></clipPath><clipPath id="mx-clip-382-443-141-30-0"><rect x="382" y="443" width="141" height="30"/></clipPath><clipPath id="mx-clip-346-473-30-30-0"><rect x="346" y="473" width="30" height="30"/></clipPath><clipPath id="mx-clip-382-473-141-30-0"><rect x="382" y="473" width="141" height="30"/></clipPath><clipPath id="mx-clip-382-503-141-30-0"><rect x="382" y="503" width="141" height="30"/></clipPath><clipPath id="mx-clip-382-533-141-29-0"><rect x="382" y="533" width="141" height="29"/></clipPath><style type="text/css">@import url(https://fonts.googleapis.com/css?family=Permanent+Marker);&#xa;</style></defs><g><path d="M 595 148.5 L 331 148.5 L 270 149" fill="none" stroke="#457b9d" stroke-width="2" stroke-miterlimit="10" pointer-events="stroke"/><path d="M 590.5 153 L 590.5 144 M 586 153 L 586 144" fill="none" stroke="#457b9d" stroke-width="2" stroke-miterlimit="10" pointer-events="all"/><ellipse cx="283.5" cy="148.89" rx="3" ry="3" fill="#ffffff" stroke="#457b9d" stroke-width="2" pointer-events="all"/><path d="M 274.46 144.46 L 274.54 153.46" fill="none" stroke="#457b9d" stroke-width="2" stroke-miterlimit="10" pointer-events="all"/><path d="M 522.55 398 L 552.55 398 L 568 428.5 L 598 428.5" fill="none" stroke="#457b9d" stroke-width="2" stroke-miterlimit="10" pointer-events="stroke"/><path d="M 527.05 393.5 L 527.05 402.5 M 531.55 393.5 L 531.55 402.5" fill="none" stroke="#457b9d" stroke-width="2" stroke-miterlimit="10" pointer-events="all"/><ellipse cx="584.5" cy="428.5" rx="3" ry="3" fill="#ffffff" stroke="#457b9d" stroke-width="2" pointer-events="all"/><path d="M 598 424 L 589 428.5 L 598 433" fill="none" stroke="#457b9d" stroke-width="2" stroke-miterlimit="10" pointer-events="all"/><path d="M 739 125 L 796 125 L 796 296 L 556 296 L 556 400.81 C 561.2 400.81 561.2 408.81 556 408.81 L 556 408.81 L 556 478 L 525.5 478" fill="none" stroke="#457b9d" stroke-width="2" stroke-miterlimit="10" pointer-events="stroke"/><ellipse cx="752.5" cy="125" rx="3" ry="3" fill="#ffffff" stroke="#457b9d" stroke-width="2" pointer-events="all"/><path d="M 743.5 120.5 L 743.5 129.5" fill="none" stroke="#457b9d" stroke-width="2" stroke-miterlimit="10" pointer-events="all"/><ellipse cx="539" cy="478" rx="3" ry="3" fill="#ffffff" stroke="#457b9d" stroke-width="2" pointer-events="all"/><path d="M 525.5 482.5 L 534.5 478 L 525.5 473.5" fill="none" stroke="#457b9d" stroke-width="2" stroke-miterlimit="10" pointer-events="all"/><path d="M 522.55 215 L 552.55 215 L 565 185 L 595 185" fill="none" stroke="#457b9d" stroke-width="2" stroke-miterlimit="10" pointer-events="stroke"/><path d="M 527.05 210.5 L 527.05 219.5 M 531.55 210.5 L 531.55 219.5" fill="none" stroke="#457b9d" stroke-width="2" stroke-miterlimit="10" pointer-events="all"/><ellipse cx="581.5" cy="185" rx="3" ry="3" fill="#ffffff" stroke="#457b9d" stroke-width="2" pointer-events="all"/><path d="M 595 180.5 L 586 185 L 595 189.5" fill="none" stroke="#457b9d" stroke-width="2" stroke-miterlimit="10" pointer-events="all"/><path d="M 743 155 L 780.15 155 L 780.15 292 C 785.35 292 785.35 300 780.15 300 L 780.15 300 L 780.15 493 L 750.15 493" fill="none" stroke="#457b9d" stroke-width="2" stroke-miterlimit="10" pointer-events="stroke"/><ellipse cx="756.5" cy="155" rx="3" ry="3" fill="#ffffff" stroke="#457b9d" stroke-width="2" pointer-events="all"/><path d="M 747.5 150.5 L 747.5 159.5" fill="none" stroke="#457b9d" stroke-width="2" stroke-miterlimit="10" pointer-events="all"/><ellipse cx="763.65" cy="493" rx="3" ry="3" fill="#ffffff" stroke="#457b9d" stroke-width="2" pointer-events="all"/><path d="M 750.15 497.5 L 759.15 493 L 750.15 488.5" fill="none" stroke="#457b9d" stroke-width="2" stroke-miterlimit="10" pointer-events="all"/><path d="M 595 140 L 595 110 L 743 110 L 743 140" fill="#a8dadc" stroke="#a9cee5" stroke-width="2" stroke-miterlimit="10" pointer-events="all"/><path d="M 595 140 L 595 264 L 743 264 L 743 140" fill="#ffff99" stroke="#a9cee5" stroke-width="2" stroke-miterlimit="10" pointer-events="all"/><path d="M 595 140 L 743 140" fill="none" stroke="#a9cee5" stroke-width="2" stroke-miterlimit="10" pointer-events="all"/><path d="M 625 140 L 625 170 L 625 200 L 625 230 L 625 255" fill="none" stroke="#a9cee5" stroke-width="2" stroke-miterlimit="10" pointer-events="all"/><g fill="#1D3557" font-family="Helvetica" font-weight="bold" text-anchor="middle" font-size="12px"><text x="668.5" y="129.5">DEVRLOPER</text></g><path d="M 595 140 M 743 140 M 743 170 L 595 170" fill="none" stroke="#457b9d" stroke-linecap="square" stroke-miterlimit="10" pointer-events="none"/><path d="M 595 140 M 625 140 M 625 170 M 595 170" fill="none" stroke="#457b9d" stroke-linecap="square" stroke-miterlimit="10" pointer-events="none"/><g fill="#1D3557" font-family="Helvetica" font-weight="bold" pointer-events="none" clip-path="url(#mx-clip-595-140-30-30-0)" text-anchor="middle" font-size="12px"><text x="609.5" y="159.5">PK</text></g><path d="M 625 140 M 743 140 M 743 170 M 625 170" fill="none" stroke="#457b9d" stroke-linecap="square" stroke-miterlimit="10" pointer-events="none"/><g fill="#1D3557" font-family="Helvetica" font-weight="bold" text-decoration="underline" pointer-events="none" clip-path="url(#mx-clip-631-140-112-30-0)" font-size="12px"><text x="632.5" y="159.5">ID</text></g><path d="M 595 170 M 743 170 M 743 200 M 595 200" fill="none" stroke="#457b9d" stroke-linecap="square" stroke-miterlimit="10" pointer-events="none"/><path d="M 595 170 M 625 170 M 625 200 M 595 200" fill="none" stroke="#457b9d" stroke-linecap="square" stroke-miterlimit="10" pointer-events="none"/><g fill="#1D3557" font-family="Helvetica" pointer-events="none" clip-path="url(#mx-clip-595-170-30-30-0)" text-anchor="middle" font-size="12px"><text x="609.5" y="189.5">FK</text></g><path d="M 625 170 M 743 170 M 743 200 M 625 200" fill="none" stroke="#457b9d" stroke-linecap="square" stroke-miterlimit="10" pointer-events="none"/><g fill="#1D3557" font-family="Helvetica" pointer-events="none" clip-path="url(#mx-clip-631-170-112-30-0)" font-size="12px"><text x="632.5" y="189.5">TEAM_ID</text></g><path d="M 595 200 M 743 200 M 743 230 M 595 230" fill="none" stroke="#457b9d" stroke-linecap="square" stroke-miterlimit="10" pointer-events="none"/><path d="M 595 200 M 625 200 M 625 230 M 595 230" fill="none" stroke="#457b9d" stroke-linecap="square" stroke-miterlimit="10" pointer-events="none"/><path d="M 625 200 M 743 200 M 743 230 M 625 230" fill="none" stroke="#457b9d" stroke-linecap="square" stroke-miterlimit="10" pointer-events="none"/><g fill="#1D3557" font-family="Helvetica" pointer-events="none" clip-path="url(#mx-clip-631-200-112-30-0)" font-size="12px"><text x="632.5" y="219.5">NAME</text></g><path d="M 595 230 M 743 230 M 743 255 M 595 255" fill="none" stroke="#457b9d" stroke-linecap="square" stroke-miterlimit="10" pointer-events="none"/><path d="M 595 230 M 625 230 M 625 255 M 595 255" fill="none" stroke="#457b9d" stroke-linecap="square" stroke-miterlimit="10" pointer-events="none"/><path d="M 625 230 M 743 230 M 743 255 M 625 255" fill="none" stroke="#457b9d" stroke-linecap="square" stroke-miterlimit="10" pointer-events="none"/><g fill="#1D3557" font-family="Helvetica" pointer-events="none" clip-path="url(#mx-clip-631-230-112-25-0)" font-size="12px"><text x="632.5" y="247">SKILLS</text></g><path d="M 598 383 L 598 353 L 750.15 353 L 750.15 383" fill="#a8dadc" stroke="#a9cee5" stroke-width="2" stroke-miterlimit="10" pointer-events="none"/><path d="M 598 383 L 598 570.3 L 750.15 570.3 L 750.15 383" fill="#ffff99" stroke="#a9cee5" stroke-width="2" stroke-miterlimit="10" pointer-events="none"/><path d="M 598 383 L 750.15 383" fill="none" stroke="#a9cee5" stroke-width="2" stroke-miterlimit="10" pointer-events="none"/><path d="M 628 383 L 628 413 L 628 444 L 628 476 L 628 510 L 628 540 L 628 569" fill="none" stroke="#a9cee5" stroke-width="2" stroke-miterlimit="10" pointer-events="none"/><g fill="#1D3557" font-family="Helvetica" font-weight="bold" pointer-events="none" text-anchor="middle" font-size="12px"><text x="673.58" y="372.5">TASK</text></g><path d="M 598 383 M 750.15 383 M 750.15 413 L 598 413" fill="none" stroke="#457b9d" stroke-linecap="square" stroke-miterlimit="10" pointer-events="none"/><path d="M 598 383 M 628 383 M 628 413 M 598 413" fill="none" stroke="#457b9d" stroke-linecap="square" stroke-miterlimit="10" pointer-events="none"/><g fill="#1D3557" font-family="Helvetica" font-weight="bold" pointer-events="none" clip-path="url(#mx-clip-598-383-30-30-0)" text-anchor="middle" font-size="12px"><text x="612.5" y="402.5">PK</text></g><path d="M 628 383 M 750.15 383 M 750.15 413 M 628 413" fill="none" stroke="#457b9d" stroke-linecap="square" stroke-miterlimit="10" pointer-events="none"/><g fill="#1D3557" font-family="Helvetica" font-weight="bold" text-decoration="underline" pointer-events="none" clip-path="url(#mx-clip-634-383-116-30-0)" font-size="12px"><text x="635.5" y="402.5">ID</text></g><path d="M 598 413 M 750.15 413 M 750.15 444 M 598 444" fill="none" stroke="#457b9d" stroke-linecap="square" stroke-miterlimit="10" pointer-events="none"/><path d="M 598 413 M 628 413 M 628 444 M 598 444" fill="none" stroke="#457b9d" stroke-linecap="square" stroke-miterlimit="10" pointer-events="none"/><g fill="#1D3557" font-family="Helvetica" pointer-events="none" clip-path="url(#mx-clip-598-413-30-31-0)" text-anchor="middle" font-size="12px"><text x="612.5" y="433">FK1</text></g><path d="M 628 413 M 750.15 413 M 750.15 444 M 628 444" fill="none" stroke="#457b9d" stroke-linecap="square" stroke-miterlimit="10" pointer-events="none"/><g fill="#1D3557" font-family="Helvetica" pointer-events="none" clip-path="url(#mx-clip-634-413-116-31-0)" font-size="12px"><text x="635.5" y="433">STORY_ID</text></g><path d="M 598 444 M 750.15 444 M 750.15 476 M 598 476" fill="none" stroke="#457b9d" stroke-linecap="square" stroke-miterlimit="10" pointer-events="none"/><path d="M 598 444 M 628 444 M 628 476 M 598 476" fill="none" stroke="#457b9d" stroke-linecap="square" stroke-miterlimit="10" pointer-events="none"/><path d="M 628 444 M 750.15 444 M 750.15 476 M 628 476" fill="none" stroke="#457b9d" stroke-linecap="square" stroke-miterlimit="10" pointer-events="none"/><g fill="#1D3557" font-family="Helvetica" pointer-events="none" clip-path="url(#mx-clip-634-444-116-32-0)" font-size="12px"><text x="635.5" y="464.5">DESCRIPTION</text></g><path d="M 598 476 M 750.15 476 M 750.15 510 M 598 510" fill="none" stroke="#457b9d" stroke-linecap="square" stroke-miterlimit="10" pointer-events="none"/><path d="M 598 476 M 628 476 M 628 510 M 598 510" fill="none" stroke="#457b9d" stroke-linecap="square" stroke-miterlimit="10" pointer-events="none"/><g fill="#1D3557" font-family="Helvetica" pointer-events="none" clip-path="url(#mx-clip-598-476-30-34-0)" text-anchor="middle" font-size="12px"><text x="612.5" y="497.5">FK2</text></g><path d="M 628 476 M 750.15 476 M 750.15 510 M 628 510" fill="none" stroke="#457b9d" stroke-linecap="square" stroke-miterlimit="10" pointer-events="none"/><g fill="#1D3557" font-family="Helvetica" pointer-events="none" clip-path="url(#mx-clip-634-476-116-34-0)" font-size="12px"><text x="635.5" y="497.5">REVIEWER_ID</text></g><path d="M 598 510 M 750.15 510 M 750.15 540 M 598 540" fill="none" stroke="#457b9d" stroke-linecap="square" stroke-miterlimit="10" pointer-events="none"/><path d="M 598 510 M 628 510 M 628 540 M 598 540" fill="none" stroke="#457b9d" stroke-linecap="square" stroke-miterlimit="10" pointer-events="none"/><path d="M 628 510 M 750.15 510 M 750.15 540 M 628 540" fill="none" stroke="#457b9d" stroke-linecap="square" stroke-miterlimit="10" pointer-events="none"/><g fill="#1D3557" font-family="Helvetica" pointer-events="none" clip-path="url(#mx-clip-634-510-116-30-0)" font-size="12px"><text x="635.5" y="529.5">DURATION</text></g><path d="M 598 540 M 750.15 540 M 750.15 569 M 598 569" fill="none" stroke="#457b9d" stroke-linecap="square" stroke-miterlimit="10" pointer-events="none"/><path d="M 598 540 M 628 540 M 628 569 M 598 569" fill="none" stroke="#457b9d" stroke-linecap="square" stroke-miterlimit="10" pointer-events="none"/><path d="M 628 540 M 750.15 540 M 750.15 569 M 628 569" fill="none" stroke="#457b9d" stroke-linecap="square" stroke-miterlimit="10" pointer-events="none"/><g fill="#1D3557" font-family="Helvetica" pointer-events="none" clip-path="url(#mx-clip-634-540-116-29-0)" font-size="12px"><text x="635.5" y="559">STATUS</text></g><path d="M 345.05 200 L 345.05 170 L 522.55 170 L 522.55 200" fill="#a8dadc" stroke="#a9cee5" stroke-width="2" stroke-miterlimit="10" pointer-events="none"/><path d="M 345.05 200 L 345.05 330 L 522.55 330 L 522.55 200" fill="#ffff99" stroke="#a9cee5" stroke-width="2" stroke-miterlimit="10" pointer-events="none"/><path d="M 345.05 200 L 522.55 200" fill="none" stroke="#a9cee5" stroke-width="2" stroke-miterlimit="10" pointer-events="none"/><path d="M 375.05 200 L 375.05 230 L 375.05 260 L 375.05 290 L 375.05 320" fill="none" stroke="#a9cee5" stroke-width="2" stroke-miterlimit="10" pointer-events="none"/><g fill="#1D3557" font-family="Helvetica" font-weight="bold" pointer-events="none" text-anchor="middle" font-size="12px"><text x="433.3" y="189.5">TEAM</text></g><path d="M 345.05 200 M 522.55 200 M 522.55 230 L 345.05 230" fill="none" stroke="#457b9d" stroke-linecap="square" stroke-miterlimit="10" pointer-events="none"/><path d="M 345.05 200 M 375.05 200 M 375.05 230 M 345.05 230" fill="none" stroke="#457b9d" stroke-linecap="square" stroke-miterlimit="10" pointer-events="none"/><g fill="#1D3557" font-family="Helvetica" font-weight="bold" pointer-events="none" clip-path="url(#mx-clip-345-200-30-30-0)" text-anchor="middle" font-size="12px"><text x="359.55" y="219.5">PK</text></g><path d="M 375.05 200 M 522.55 200 M 522.55 230 M 375.05 230" fill="none" stroke="#457b9d" stroke-linecap="square" stroke-miterlimit="10" pointer-events="none"/><g fill="#1D3557" font-family="Helvetica" font-weight="bold" text-decoration="underline" pointer-events="none" clip-path="url(#mx-clip-381-200-142-30-0)" font-size="12px"><text x="382.55" y="219.5">ID</text></g><path d="M 345.05 230 M 522.55 230 M 522.55 260 M 345.05 260" fill="none" stroke="#457b9d" stroke-linecap="square" stroke-miterlimit="10" pointer-events="none"/><path d="M 345.05 230 M 375.05 230 M 375.05 260 M 345.05 260" fill="none" stroke="#457b9d" stroke-linecap="square" stroke-miterlimit="10" pointer-events="none"/><g fill="#1D3557" font-family="Helvetica" pointer-events="none" clip-path="url(#mx-clip-345-230-30-30-0)" text-anchor="middle" font-size="12px"><text x="359.55" y="249.5">FK1</text></g><path d="M 375.05 230 M 522.55 230 M 522.55 260 M 375.05 260" fill="none" stroke="#457b9d" stroke-linecap="square" stroke-miterlimit="10" pointer-events="none"/><g fill="#1D3557" font-family="Helvetica" pointer-events="none" clip-path="url(#mx-clip-381-230-142-30-0)" font-size="12px"><text x="382.55" y="249.5">MASTER_ID</text></g><path d="M 345.05 260 M 522.55 260 M 522.55 290 M 345.05 290" fill="none" stroke="#457b9d" stroke-linecap="square" stroke-miterlimit="10" pointer-events="none"/><path d="M 345.05 260 M 375.05 260 M 375.05 290 M 345.05 290" fill="none" stroke="#457b9d" stroke-linecap="square" stroke-miterlimit="10" pointer-events="none"/><g fill="#1D3557" font-family="Helvetica" pointer-events="none" clip-path="url(#mx-clip-345-260-30-30-0)" text-anchor="middle" font-size="12px"><text x="359.55" y="279.5">FK2</text></g><path d="M 375.05 260 M 522.55 260 M 522.55 290 M 375.05 290" fill="none" stroke="#457b9d" stroke-linecap="square" stroke-miterlimit="10" pointer-events="none"/><g fill="#1D3557" font-family="Helvetica" pointer-events="none" clip-path="url(#mx-clip-381-260-142-30-0)" font-size="12px"><text x="382.55" y="279.5">PROJECT_ID</text></g><path d="M 345.05 290 M 522.55 290 M 522.55 320 M 345.05 320" fill="none" stroke="#457b9d" stroke-linecap="square" stroke-miterlimit="10" pointer-events="none"/><path d="M 345.05 290 M 375.05 290 M 375.05 320 M 345.05 320" fill="none" stroke="#457b9d" stroke-linecap="square" stroke-miterlimit="10" pointer-events="none"/><path d="M 375.05 290 M 522.55 290 M 522.55 320 M 375.05 320" fill="none" stroke="#457b9d" stroke-linecap="square" stroke-miterlimit="10" pointer-events="none"/><g fill="#1D3557" font-family="Helvetica" pointer-events="none" clip-path="url(#mx-clip-381-290-142-30-0)" font-size="12px"><text x="382.55" y="309.5">NAME</text></g><path d="M 90 74 L 90 44 L 270 44 L 270 74" fill="#a8dadc" stroke="#a9cee5" stroke-width="2" stroke-miterlimit="10" pointer-events="none"/><path d="M 90 74 L 90 264 L 270 264 L 270 74" fill="#ffff99" stroke="#a9cee5" stroke-width="2" stroke-miterlimit="10" pointer-events="none"/><path d="M 90 74 L 270 74" fill="none" stroke="#a9cee5" stroke-width="2" stroke-miterlimit="10" pointer-events="none"/><path d="M 120 74 L 120 104 L 120 134 L 120 164 L 120 194 L 120 224 L 120 254" fill="none" stroke="#a9cee5" stroke-width="2" stroke-miterlimit="10" pointer-events="none"/><g fill="#1D3557" font-family="Helvetica" font-weight="bold" pointer-events="none" text-anchor="middle" font-size="12px"><text x="179.5" y="63.5">PROJECT</text></g><path d="M 90 74 M 270 74 M 270 104 L 90 104" fill="none" stroke="#457b9d" stroke-linecap="square" stroke-miterlimit="10" pointer-events="none"/><path d="M 90 74 M 120 74 M 120 104 M 90 104" fill="none" stroke="#457b9d" stroke-linecap="square" stroke-miterlimit="10" pointer-events="none"/><g fill="#1D3557" font-family="Helvetica" font-weight="bold" pointer-events="none" clip-path="url(#mx-clip-90-74-30-30-0)" text-anchor="middle" font-size="12px"><text x="104.5" y="93.5">PK</text></g><path d="M 120 74 M 270 74 M 270 104 M 120 104" fill="none" stroke="#457b9d" stroke-linecap="square" stroke-miterlimit="10" pointer-events="none"/><g fill="#1D3557" font-family="Helvetica" font-weight="bold" text-decoration="underline" pointer-events="none" clip-path="url(#mx-clip-126-74-144-30-0)" font-size="12px"><text x="127.5" y="93.5">ID</text></g><path d="M 90 104 M 270 104 M 270 134 M 90 134" fill="none" stroke="#457b9d" stroke-linecap="square" stroke-miterlimit="10" pointer-events="none"/><path d="M 90 104 M 120 104 M 120 134 M 90 134" fill="none" stroke="#457b9d" stroke-linecap="square" stroke-miterlimit="10" pointer-events="none"/><g fill="#1D3557" font-family="Helvetica" pointer-events="none" clip-path="url(#mx-clip-90-104-30-30-0)" text-anchor="middle" font-size="12px"><text x="104.5" y="123.5">FK</text></g><path d="M 120 104 M 270 104 M 270 134 M 120 134" fill="none" stroke="#457b9d" stroke-linecap="square" stroke-miterlimit="10" pointer-events="none"/><g fill="#1D3557" font-family="Helvetica" pointer-events="none" clip-path="url(#mx-clip-126-104-144-30-0)" font-size="12px"><text x="127.5" y="123.5">OWNER_ID</text></g><path d="M 90 134 M 270 134 M 270 164 M 90 164" fill="none" stroke="#457b9d" stroke-linecap="square" stroke-miterlimit="10" pointer-events="none"/><path d="M 90 134 M 120 134 M 120 164 M 90 164" fill="none" stroke="#457b9d" stroke-linecap="square" stroke-miterlimit="10" pointer-events="none"/><g fill="#1D3557" font-family="Helvetica" pointer-events="none" clip-path="url(#mx-clip-90-134-30-30-0)" text-anchor="middle" font-size="12px"><text x="104.5" y="153.5">FK</text></g><path d="M 120 134 M 270 134 M 270 164 M 120 164" fill="none" stroke="#457b9d" stroke-linecap="square" stroke-miterlimit="10" pointer-events="none"/><g fill="#1D3557" font-family="Helvetica" pointer-events="none" clip-path="url(#mx-clip-126-134-144-30-0)" font-size="12px"><text x="127.5" y="153.5">OWNER_ID</text></g><path d="M 90 164 M 270 164 M 270 194 M 90 194" fill="none" stroke="#457b9d" stroke-linecap="square" stroke-miterlimit="10" pointer-events="none"/><path d="M 90 164 M 120 164 M 120 194 M 90 194" fill="none" stroke="#457b9d" stroke-linecap="square" stroke-miterlimit="10" pointer-events="none"/><path d="M 120 164 M 270 164 M 270 194 M 120 194" fill="none" stroke="#457b9d" stroke-linecap="square" stroke-miterlimit="10" pointer-events="none"/><g fill="#1D3557" font-family="Helvetica" pointer-events="none" clip-path="url(#mx-clip-126-164-144-30-0)" font-size="12px"><text x="127.5" y="183.5">NAME</text></g><path d="M 90 194 M 270 194 M 270 224 M 90 224" fill="none" stroke="#457b9d" stroke-linecap="square" stroke-miterlimit="10" pointer-events="none"/><path d="M 90 194 M 120 194 M 120 224 M 90 224" fill="none" stroke="#457b9d" stroke-linecap="square" stroke-miterlimit="10" pointer-events="none"/><path d="M 120 194 M 270 194 M 270 224 M 120 224" fill="none" stroke="#457b9d" stroke-linecap="square" stroke-miterlimit="10" pointer-events="none"/><g fill="#1D3557" font-family="Helvetica" pointer-events="none" clip-path="url(#mx-clip-126-194-144-30-0)" font-size="12px"><text x="127.5" y="213.5">DESCRIPTION</text></g><path d="M 90 224 M 270 224 M 270 254 M 90 254" fill="none" stroke="#457b9d" stroke-linecap="square" stroke-miterlimit="10" pointer-events="none"/><path d="M 90 224 M 120 224 M 120 254 M 90 254" fill="none" stroke="#457b9d" stroke-linecap="square" stroke-miterlimit="10" pointer-events="none"/><path d="M 120 224 M 270 224 M 270 254 M 120 254" fill="none" stroke="#457b9d" stroke-linecap="square" stroke-miterlimit="10" pointer-events="none"/><g fill="#1D3557" font-family="Helvetica" pointer-events="none" clip-path="url(#mx-clip-126-224-144-30-0)" font-size="12px"><text x="127.5" y="243.5">LANGUAGE</text></g><path d="M 595 209 L 565 209 L 552.55 245 L 522.55 245" fill="none" stroke="#457b9d" stroke-width="2" stroke-miterlimit="10" pointer-events="none"/><path d="M 590.5 213.5 L 590.5 204.5 M 586 213.5 L 586 204.5" fill="none" stroke="#457b9d" stroke-width="2" stroke-miterlimit="10" pointer-events="none"/><ellipse cx="536.05" cy="245" rx="3" ry="3" fill="#ffffff" stroke="#457b9d" stroke-width="2" pointer-events="none"/><path d="M 522.55 249.5 L 531.55 245 L 522.55 240.5" fill="none" stroke="#457b9d" stroke-width="2" stroke-miterlimit="10" pointer-events="none"/><path d="M 90 380 L 90 350 L 270 350 L 270 380" fill="#a8dadc" stroke="#a9cee5" stroke-width="2" stroke-miterlimit="10" pointer-events="none"/><path d="M 90 380 L 90 570 L 270 570 L 270 380" fill="#ffff99" stroke="#a9cee5" stroke-width="2" stroke-miterlimit="10" pointer-events="none"/><path d="M 90 380 L 270 380" fill="none" stroke="#a9cee5" stroke-width="2" stroke-miterlimit="10" pointer-events="none"/><path d="M 120 380 L 120 410 L 120 440 L 120 470 L 120 500 L 120 530 L 120 560" fill="none" stroke="#a9cee5" stroke-width="2" stroke-miterlimit="10" pointer-events="none"/><g fill="#1D3557" font-family="Helvetica" font-weight="bold" pointer-events="none" text-anchor="middle" font-size="12px"><text x="179.5" y="369.5">EPIC</text></g><path d="M 90 380 M 270 380 M 270 410 L 90 410" fill="none" stroke="#457b9d" stroke-linecap="square" stroke-miterlimit="10" pointer-events="none"/><path d="M 90 380 M 120 380 M 120 410 M 90 410" fill="none" stroke="#457b9d" stroke-linecap="square" stroke-miterlimit="10" pointer-events="none"/><g fill="#1D3557" font-family="Helvetica" font-weight="bold" pointer-events="none" clip-path="url(#mx-clip-90-380-30-30-0)" text-anchor="middle" font-size="12px"><text x="104.5" y="399.5">PK</text></g><path d="M 120 380 M 270 380 M 270 410 M 120 410" fill="none" stroke="#457b9d" stroke-linecap="square" stroke-miterlimit="10" pointer-events="none"/><g fill="#1D3557" font-family="Helvetica" font-weight="bold" text-decoration="underline" pointer-events="none" clip-path="url(#mx-clip-126-380-144-30-0)" font-size="12px"><text x="127.5" y="399.5">ID</text></g><path d="M 90 410 M 270 410 M 270 440 M 90 440" fill="none" stroke="#457b9d" stroke-linecap="square" stroke-miterlimit="10" pointer-events="none"/><path d="M 90 410 M 120 410 M 120 440 M 90 440" fill="none" stroke="#457b9d" stroke-linecap="square" stroke-miterlimit="10" pointer-events="none"/><g fill="#1D3557" font-family="Helvetica" pointer-events="none" clip-path="url(#mx-clip-90-410-30-30-0)" text-anchor="middle" font-size="12px"><text x="104.5" y="429.5">FK</text></g><path d="M 120 410 M 270 410 M 270 440 M 120 440" fill="none" stroke="#457b9d" stroke-linecap="square" stroke-miterlimit="10" pointer-events="none"/><g fill="#1D3557" font-family="Helvetica" pointer-events="none" clip-path="url(#mx-clip-126-410-144-30-0)" font-size="12px"><text x="127.5" y="429.5">PROJECT_ID</text></g><path d="M 90 440 M 270 440 M 270 470 M 90 470" fill="none" stroke="#457b9d" stroke-linecap="square" stroke-miterlimit="10" pointer-events="none"/><path d="M 90 440 M 120 440 M 120 470 M 90 470" fill="none" stroke="#457b9d" stroke-linecap="square" stroke-miterlimit="10" pointer-events="none"/><path d="M 120 440 M 270 440 M 270 470 M 120 470" fill="none" stroke="#457b9d" stroke-linecap="square" stroke-miterlimit="10" pointer-events="none"/><g fill="#1D3557" font-family="Helvetica" pointer-events="none" clip-path="url(#mx-clip-126-440-144-30-0)" font-size="12px"><text x="127.5" y="459.5">DESCRIPTION</text></g><path d="M 90 470 M 270 470 M 270 500 M 90 500" fill="none" stroke="#457b9d" stroke-linecap="square" stroke-miterlimit="10" pointer-events="none"/><path d="M 90 470 M 120 470 M 120 500 M 90 500" fill="none" stroke="#457b9d" stroke-linecap="square" stroke-miterlimit="10" pointer-events="none"/><path d="M 120 470 M 270 470 M 270 500 M 120 500" fill="none" stroke="#457b9d" stroke-linecap="square" stroke-miterlimit="10" pointer-events="none"/><g fill="#1D3557" font-family="Helvetica" pointer-events="none" clip-path="url(#mx-clip-126-470-144-30-0)" font-size="12px"><text x="127.5" y="489.5">VALUE</text></g><path d="M 90 500 M 270 500 M 270 530 M 90 530" fill="none" stroke="#457b9d" stroke-linecap="square" stroke-miterlimit="10" pointer-events="none"/><path d="M 90 500 M 120 500 M 120 530 M 90 530" fill="none" stroke="#457b9d" stroke-linecap="square" stroke-miterlimit="10" pointer-events="none"/><path d="M 120 500 M 270 500 M 270 530 M 120 530" fill="none" stroke="#457b9d" stroke-linecap="square" stroke-miterlimit="10" pointer-events="none"/><g fill="#1D3557" font-family="Helvetica" pointer-events="none" clip-path="url(#mx-clip-126-500-144-30-0)" font-size="12px"><text x="127.5" y="519.5">DUE_DATE</text></g><path d="M 90 530 M 270 530 M 270 560 M 90 560" fill="none" stroke="#457b9d" stroke-linecap="square" stroke-miterlimit="10" pointer-events="none"/><path d="M 90 530 M 120 530 M 120 560 M 90 560" fill="none" stroke="#457b9d" stroke-linecap="square" stroke-miterlimit="10" pointer-events="none"/><path d="M 120 530 M 270 530 M 270 560 M 120 560" fill="none" stroke="#457b9d" stroke-linecap="square" stroke-miterlimit="10" pointer-events="none"/><g fill="#1D3557" font-family="Helvetica" pointer-events="none" clip-path="url(#mx-clip-126-530-144-30-0)" font-size="12px"><text x="127.5" y="549.5">STATUS</text></g><path d="M 345.5 383 L 345.5 353 L 522.55 353 L 522.55 383" fill="#a8dadc" stroke="#a9cee5" stroke-width="2" stroke-miterlimit="10" pointer-events="none"/><path d="M 345.5 383 L 345.5 571.95 L 522.55 571.95 L 522.55 383" fill="#ffff99" stroke="#a9cee5" stroke-width="2" stroke-miterlimit="10" pointer-events="none"/><path d="M 345.5 383 L 522.55 383" fill="none" stroke="#a9cee5" stroke-width="2" stroke-miterlimit="10" pointer-events="none"/><path d="M 375.5 383 L 375.5 413 L 375.5 443 L 375.5 473 L 375.5 503 L 375.5 533 L 375.5 562" fill="none" stroke="#a9cee5" stroke-width="2" stroke-miterlimit="10" pointer-events="none"/><g fill="#1D3557" font-family="Helvetica" font-weight="bold" pointer-events="none" text-anchor="middle" font-size="12px"><text x="433.53" y="372.5">STORY</text></g><path d="M 345.5 383 M 522.55 383 M 522.55 413 L 345.5 413" fill="none" stroke="#457b9d" stroke-linecap="square" stroke-miterlimit="10" pointer-events="none"/><path d="M 345.5 383 M 375.5 383 M 375.5 413 M 345.5 413" fill="none" stroke="#457b9d" stroke-linecap="square" stroke-miterlimit="10" pointer-events="none"/><g fill="#1D3557" font-family="Helvetica" font-weight="bold" pointer-events="none" clip-path="url(#mx-clip-346-383-30-30-0)" text-anchor="middle" font-size="12px"><text x="360" y="402.5">PK</text></g><path d="M 375.5 383 M 522.55 383 M 522.55 413 M 375.5 413" fill="none" stroke="#457b9d" stroke-linecap="square" stroke-miterlimit="10" pointer-events="none"/><g fill="#1D3557" font-family="Helvetica" font-weight="bold" text-decoration="underline" pointer-events="none" clip-path="url(#mx-clip-382-383-141-30-0)" font-size="12px"><text x="383" y="402.5">ID</text></g><path d="M 345.5 413 M 522.55 413 M 522.55 443 M 345.5 443" fill="none" stroke="#457b9d" stroke-linecap="square" stroke-miterlimit="10" pointer-events="none"/><path d="M 345.5 413 M 375.5 413 M 375.5 443 M 345.5 443" fill="none" stroke="#457b9d" stroke-linecap="square" stroke-miterlimit="10" pointer-events="none"/><g fill="#1D3557" font-family="Helvetica" pointer-events="none" clip-path="url(#mx-clip-346-413-30-30-0)" text-anchor="middle" font-size="12px"><text x="360" y="432.5">FK1</text></g><path d="M 375.5 413 M 522.55 413 M 522.55 443 M 375.5 443" fill="none" stroke="#457b9d" stroke-linecap="square" stroke-miterlimit="10" pointer-events="none"/><g fill="#1D3557" font-family="Helvetica" pointer-events="none" clip-path="url(#mx-clip-382-413-141-30-0)" font-size="12px"><text x="383" y="432.5">EPIC_ID</text></g><path d="M 345.5 443 M 522.55 443 M 522.55 473 M 345.5 473" fill="none" stroke="#457b9d" stroke-linecap="square" stroke-miterlimit="10" pointer-events="none"/><path d="M 345.5 443 M 375.5 443 M 375.5 473 M 345.5 473" fill="none" stroke="#457b9d" stroke-linecap="square" stroke-miterlimit="10" pointer-events="none"/><path d="M 375.5 443 M 522.55 443 M 522.55 473 M 375.5 473" fill="none" stroke="#457b9d" stroke-linecap="square" stroke-miterlimit="10" pointer-events="none"/><g fill="#1D3557" font-family="Helvetica" pointer-events="none" clip-path="url(#mx-clip-382-443-141-30-0)" font-size="12px"><text x="383" y="462.5">DESCRIPTION</text></g><path d="M 345.5 473 M 522.55 473 M 522.55 503 M 345.5 503" fill="none" stroke="#457b9d" stroke-linecap="square" stroke-miterlimit="10" pointer-events="none"/><path d="M 345.5 473 M 375.5 473 M 375.5 503 M 345.5 503" fill="none" stroke="#457b9d" stroke-linecap="square" stroke-miterlimit="10" pointer-events="none"/><g fill="#1D3557" font-family="Helvetica" pointer-events="none" clip-path="url(#mx-clip-346-473-30-30-0)" text-anchor="middle" font-size="12px"><text x="360" y="492.5">FK2</text></g><path d="M 375.5 473 M 522.55 473 M 522.55 503 M 375.5 503" fill="none" stroke="#457b9d" stroke-linecap="square" stroke-miterlimit="10" pointer-events="none"/><g fill="#1D3557" font-family="Helvetica" pointer-events="none" clip-path="url(#mx-clip-382-473-141-30-0)" font-size="12px"><text x="383" y="492.5">RESOLVER_ID</text></g><path d="M 345.5 503 M 522.55 503 M 522.55 533 M 345.5 533" fill="none" stroke="#457b9d" stroke-linecap="square" stroke-miterlimit="10" pointer-events="none"/><path d="M 345.5 503 M 375.5 503 M 375.5 533 M 345.5 533" fill="none" stroke="#457b9d" stroke-linecap="square" stroke-miterlimit="10" pointer-events="none"/><path d="M 375.5 503 M 522.55 503 M 522.55 533 M 375.5 533" fill="none" stroke="#457b9d" stroke-linecap="square" stroke-miterlimit="10" pointer-events="none"/><g fill="#1D3557" font-family="Helvetica" pointer-events="none" clip-path="url(#mx-clip-382-503-141-30-0)" font-size="12px"><text x="383" y="522.5">DIFICULTY</text></g><path d="M 345.5 533 M 522.55 533 M 522.55 562 M 345.5 562" fill="none" stroke="#457b9d" stroke-linecap="square" stroke-miterlimit="10" pointer-events="none"/><path d="M 345.5 533 M 375.5 533 M 375.5 562 M 345.5 562" fill="none" stroke="#457b9d" stroke-linecap="square" stroke-miterlimit="10" pointer-events="none"/><path d="M 375.5 533 M 522.55 533 M 522.55 562 M 375.5 562" fill="none" stroke="#457b9d" stroke-linecap="square" stroke-miterlimit="10" pointer-events="none"/><g fill="#1D3557" font-family="Helvetica" pointer-events="none" clip-path="url(#mx-clip-382-533-141-29-0)" font-size="12px"><text x="383" y="552">STATUS</text></g><path d="M 90 89 L 47 89 L 47 395 L 90 395" fill="none" stroke="#457b9d" stroke-width="2" stroke-miterlimit="10" pointer-events="none"/><path d="M 85.5 93.5 L 85.5 84.5 M 81 93.5 L 81 84.5" fill="none" stroke="#457b9d" stroke-width="2" stroke-miterlimit="10" pointer-events="none"/><path d="M 81 399.5 L 81 390.5 M 90 390.5 L 81 395 L 90 399.5" fill="none" stroke="#457b9d" stroke-width="2" stroke-miterlimit="10" pointer-events="none"/><path d="M 270 395 L 300 395 L 315.5 428 L 345.5 428" fill="none" stroke="#457b9d" stroke-width="2" stroke-miterlimit="10" pointer-events="none"/><path d="M 274.5 390.5 L 274.5 399.5 M 279 390.5 L 279 399.5" fill="none" stroke="#457b9d" stroke-width="2" stroke-miterlimit="10" pointer-events="none"/><path d="M 336.5 432.5 L 336.5 423.5 M 345.5 423.5 L 336.5 428 L 345.5 432.5" fill="none" stroke="#457b9d" stroke-width="2" stroke-miterlimit="10" pointer-events="none"/><path d="M 270 89 L 300 89 L 315.05 275 L 345.05 275" fill="none" stroke="#457b9d" stroke-width="2" stroke-miterlimit="10" pointer-events="none"/><path d="M 274.5 84.5 L 274.5 93.5 M 279 84.5 L 279 93.5" fill="none" stroke="#457b9d" stroke-width="2" stroke-miterlimit="10" pointer-events="none"/><path d="M 340.55 279.5 L 340.55 270.5 M 336.05 279.5 L 336.05 270.5" fill="none" stroke="#457b9d" stroke-width="2" stroke-miterlimit="10" pointer-events="none"/></g></svg>