<svg version="1.1" viewBox="0.0 0.0 673.8136482939633 712.2992125984252" fill="none" stroke="none" stroke-linecap="square" stroke-miterlimit="10" xmlns:xlink="http://www.w3.org/1999/xlink" xmlns="http://www.w3.org/2000/svg"><clipPath id="p.0"><path d="m0 0l673.81366 0l0 712.2992l-673.81366 0l0 -712.2992z" clip-rule="nonzero"/></clipPath><g clip-path="url(#p.0)"><path fill="#000000" fill-opacity="0.0" d="m0 0l673.81366 0l0 712.2992l-673.81366 0z" fill-rule="evenodd"/><path fill="#434343" d="m-1.4383202 -2.5905511l673.8267 0l0 712.315l-673.8267 0z" fill-rule="evenodd"/><path stroke="#434343" stroke-width="3.0" stroke-linejoin="round" stroke-linecap="butt" d="m-1.4383202 -2.5905511l673.8267 0l0 712.315l-673.8267 0z" fill-rule="evenodd"/><path fill="#cfe2f3" d="m204.61154 332.85294l257.04434 0c3.6991882 0 7.2468567 1.4694824 9.862579 4.085205c2.6157227 2.6157227 4.085205 6.163391 4.085205 9.862579l0 69.73724l-270.99213 0z" fill-rule="evenodd"/><path fill="#000000" d="m281.34467 377.2067l3.0 -0.296875q0.28125 1.515625 1.109375 2.234375q0.828125 0.703125 2.234375 0.703125q1.484375 0 2.234375 -0.625q0.765625 -0.640625 0.765625 -1.484375q0 -0.546875 -0.328125 -0.921875q-0.3125 -0.375 -1.109375 -0.65625q-0.53125 -0.1875 -2.46875 -0.671875q-2.46875 -0.609375 -3.46875 -1.515625q-1.40625 -1.25 -1.40625 -3.0625q0 -1.171875 0.65625 -2.1875q0.65625 -1.015625 1.90625 -1.546875q1.25 -0.53125 3.0 -0.53125q2.875 0 4.328125 1.265625q1.453125 1.265625 1.53125 3.359375l-3.078125 0.140625q-0.203125 -1.171875 -0.859375 -1.6875q-0.640625 -0.515625 -1.953125 -0.515625q-1.34375 0 -2.09375 0.546875q-0.5 0.359375 -0.5 0.953125q0 0.53125 0.46875 0.921875q0.578125 0.484375 2.828125 1.015625q2.25 0.53125 3.328125 1.109375q1.078125 0.5625 1.6875 1.546875q0.609375 0.984375 0.609375 2.421875q0 1.3125 -0.734375 2.46875q-0.734375 1.140625 -2.0625 1.703125q-1.328125 0.546875 -3.3125 0.546875q-2.90625 0 -4.453125 -1.328125q-1.546875 -1.34375 -1.859375 -3.90625zm20.069427 -6.09375l0 2.328125l-2.0 0l0 4.46875q0 1.34375 0.046875 1.578125q0.0625 0.21875 0.265625 0.375q0.203125 0.140625 0.5 0.140625q0.40625 0 1.171875 -0.28125l0.25 2.265625q-1.015625 0.4375 -2.3125 0.4375q-0.796875 0 -1.4375 -0.265625q-0.625 -0.265625 -0.921875 -0.6875q-0.296875 -0.421875 -0.40625 -1.140625q-0.09375 -0.515625 -0.09375 -2.0625l0 -4.828125l-1.34375 0l0 -2.328125l1.34375 0l0 -2.1875l2.9375 -1.71875l0 3.90625l2.0 0zm4.2118225 3.375l-2.65625 -0.484375q0.453125 -1.59375 1.546875 -2.359375q1.09375 -0.78125 3.25 -0.78125q1.953125 0 2.90625 0.46875q0.96875 0.453125 1.359375 1.171875q0.390625 0.71875 0.390625 2.625l-0.03125 3.40625q0 1.46875 0.125 2.15625q0.140625 0.6875 0.53125 1.484375l-2.890625 0q-0.109375 -0.296875 -0.28125 -0.859375q-0.078125 -0.265625 -0.109375 -0.34375q-0.75 0.71875 -1.609375 1.09375q-0.84375 0.359375 -1.8125 0.359375q-1.703125 0 -2.6875 -0.921875q-0.984375 -0.9375 -0.984375 -2.34375q0 -0.9375 0.4375 -1.671875q0.453125 -0.734375 1.25 -1.125q0.8125 -0.390625 2.34375 -0.6875q2.046875 -0.390625 2.84375 -0.71875l0 -0.296875q0 -0.84375 -0.421875 -1.203125q-0.421875 -0.359375 -1.578125 -0.359375q-0.78125 0 -1.21875 0.3125q-0.4375 0.3125 -0.703125 1.078125zm3.921875 2.375q-0.5625 0.1875 -1.78125 0.453125q-1.21875 0.25 -1.59375 0.5q-0.578125 0.40625 -0.578125 1.03125q0 0.625 0.453125 1.078125q0.46875 0.4375 1.171875 0.4375q0.796875 0 1.515625 -0.515625q0.53125 -0.40625 0.6875 -0.96875q0.125 -0.375 0.125 -1.4375l0 -0.578125zm10.830444 -5.75l0 2.328125l-2.0 0l0 4.46875q0 1.34375 0.046875 1.578125q0.0625 0.21875 0.265625 0.375q0.203125 0.140625 0.5 0.140625q0.40625 0 1.171875 -0.28125l0.25 2.265625q-1.015625 0.4375 -2.3125 0.4375q-0.796875 0 -1.4375 -0.265625q-0.625 -0.265625 -0.921875 -0.6875q-0.296875 -0.421875 -0.40625 -1.140625q-0.09375 -0.515625 -0.09375 -2.0625l0 -4.828125l-1.34375 0l0 -2.328125l1.34375 0l0 -2.1875l2.9375 -1.71875l0 3.90625l2.0 0zm8.430542 7.546875l2.90625 0.484375q-0.546875 1.609375 -1.765625 2.453125q-1.21875 0.828125 -3.03125 0.828125q-2.890625 0 -4.28125 -1.890625q-1.09375 -1.5 -1.09375 -3.8125q0 -2.75 1.4375 -4.296875q1.4375 -1.5625 3.640625 -1.5625q2.46875 0 3.890625 1.640625q1.421875 1.625 1.359375 4.984375l-7.328125 0q0.03125 1.296875 0.703125 2.03125q0.6875 0.71875 1.703125 0.71875q0.6875 0 1.15625 -0.375q0.46875 -0.375 0.703125 -1.203125zm0.171875 -2.96875q-0.03125 -1.265625 -0.65625 -1.921875q-0.625 -0.671875 -1.53125 -0.671875q-0.953125 0 -1.578125 0.703125q-0.625 0.703125 -0.609375 1.890625l4.375 0zm5.0648193 -4.578125l2.703125 0l0 1.515625q1.4375 -1.765625 3.4375 -1.765625q1.0625 0 1.84375 0.4375q0.78125 0.4375 1.28125 1.328125q0.734375 -0.890625 1.578125 -1.328125q0.84375 -0.4375 1.796875 -0.4375q1.21875 0 2.0625 0.5q0.84375 0.484375 1.265625 1.453125q0.296875 0.703125 0.296875 2.28125l0 7.078125l-2.921875 0l0 -6.328125q0 -1.640625 -0.3125 -2.125q-0.40625 -0.625 -1.25 -0.625q-0.609375 0 -1.15625 0.375q-0.53125 0.375 -0.78125 1.109375q-0.234375 0.71875 -0.234375 2.28125l0 5.3125l-2.921875 0l0 -6.0625q0 -1.609375 -0.15625 -2.078125q-0.15625 -0.46875 -0.484375 -0.703125q-0.328125 -0.234375 -0.890625 -0.234375q-0.671875 0 -1.21875 0.375q-0.546875 0.359375 -0.78125 1.046875q-0.234375 0.6875 -0.234375 2.28125l0 5.375l-2.921875 0l0 -11.0625zm25.589142 7.546875l2.90625 0.484375q-0.546875 1.609375 -1.765625 2.453125q-1.21875 0.828125 -3.03125 0.828125q-2.890625 0 -4.28125 -1.890625q-1.09375 -1.5 -1.09375 -3.8125q0 -2.75 1.4375 -4.296875q1.4375 -1.5625 3.640625 -1.5625q2.46875 0 3.890625 1.640625q1.421875 1.625 1.359375 4.984375l-7.328125 0q0.03125 1.296875 0.703125 2.03125q0.6875 0.71875 1.703125 0.71875q0.6875 0 1.15625 -0.375q0.46875 -0.375 0.703125 -1.203125zm0.171875 -2.96875q-0.03125 -1.265625 -0.65625 -1.921875q-0.625 -0.671875 -1.53125 -0.671875q-0.953125 0 -1.578125 0.703125q-0.625 0.703125 -0.609375 1.890625l4.375 0zm15.346069 6.484375l-2.921875 0l0 -5.640625q0 -1.796875 -0.1875 -2.3125q-0.1875 -0.53125 -0.609375 -0.828125q-0.421875 -0.296875 -1.015625 -0.296875q-0.765625 0 -1.375 0.421875q-0.59375 0.421875 -0.828125 1.109375q-0.21875 0.6875 -0.21875 2.53125l0 5.015625l-2.921875 0l0 -11.0625l2.71875 0l0 1.625q1.4375 -1.875 3.640625 -1.875q0.96875 0 1.765625 0.359375q0.8125 0.34375 1.21875 0.890625q0.40625 0.53125 0.5625 1.21875q0.171875 0.6875 0.171875 1.96875l0 6.875zm8.043701 -11.0625l0 2.328125l-2.0 0l0 4.46875q0 1.34375 0.046875 1.578125q0.0625 0.21875 0.265625 0.375q0.203125 0.140625 0.5 0.140625q0.40625 0 1.171875 -0.28125l0.25 2.265625q-1.015625 0.4375 -2.3125 0.4375q-0.796875 0 -1.4375 -0.265625q-0.625 -0.265625 -0.921875 -0.6875q-0.296875 -0.421875 -0.40625 -1.140625q-0.09375 -0.515625 -0.09375 -2.0625l0 -4.828125l-1.34375 0l0 -2.328125l1.34375 0l0 -2.1875l2.9375 -1.71875l0 3.90625l2.0 0zm0.993042 7.90625l2.9375 -0.453125q0.1875 0.859375 0.75 1.3125q0.578125 0.4375 1.609375 0.4375q1.140625 0 1.71875 -0.421875q0.375 -0.296875 0.375 -0.78125q0 -0.328125 -0.203125 -0.546875q-0.21875 -0.21875 -0.984375 -0.390625q-3.53125 -0.78125 -4.484375 -1.421875q-1.3125 -0.90625 -1.3125 -2.5q0 -1.4375 1.125 -2.40625q1.140625 -0.984375 3.53125 -0.984375q2.265625 0 3.375 0.75q1.109375 0.734375 1.515625 2.171875l-2.75 0.515625q-0.1875 -0.640625 -0.6875 -0.984375q-0.484375 -0.34375 -1.40625 -0.34375q-1.15625 0 -1.65625 0.3125q-0.328125 0.234375 -0.328125 0.59375q0 0.3125 0.296875 0.53125q0.390625 0.296875 2.71875 0.828125q2.34375 0.53125 3.28125 1.296875q0.90625 0.78125 0.90625 2.1875q0 1.515625 -1.265625 2.609375q-1.265625 1.09375 -3.765625 1.09375q-2.25 0 -3.578125 -0.90625q-1.3125 -0.921875 -1.71875 -2.5z" fill-rule="nonzero"/><path fill="#cfe2f3" d="m217.88715 113.884514l17.031494 -68.125984l227.40945 0l-17.031494 68.125984z" fill-rule="evenodd"/><path fill="#000000" d="m314.4292 74.30152l-2.71875 0l0 -1.625q-0.671875 0.953125 -1.59375 1.421875q-0.921875 0.453125 -1.859375 0.453125q-1.90625 0 -3.265625 -1.53125q-1.359375 -1.546875 -1.359375 -4.296875q0 -2.8125 1.3125 -4.265625q1.328125 -1.46875 3.359375 -1.46875q1.84375 0 3.203125 1.546875l0 -5.5l2.921875 0l0 15.265625zm-7.8125 -5.765625q0 1.765625 0.5 2.5625q0.703125 1.140625 1.96875 1.140625q1.015625 0 1.71875 -0.859375q0.71875 -0.859375 0.71875 -2.5625q0 -1.90625 -0.6875 -2.75q-0.6875 -0.84375 -1.765625 -0.84375q-1.046875 0 -1.75 0.828125q-0.703125 0.828125 -0.703125 2.484375zm17.106201 2.25l2.90625 0.484375q-0.546875 1.609375 -1.765625 2.453125q-1.21875 0.828125 -3.03125 0.828125q-2.890625 0 -4.28125 -1.890625q-1.09375 -1.5 -1.09375 -3.8125q0 -2.75 1.4375 -4.296875q1.4375 -1.5625 3.640625 -1.5625q2.46875 0 3.890625 1.640625q1.421875 1.625 1.359375 4.984375l-7.328125 0q0.03125 1.296875 0.703125 2.03125q0.6875 0.71875 1.703125 0.71875q0.6875 0 1.15625 -0.375q0.46875 -0.375 0.703125 -1.203125zm0.171875 -2.96875q-0.03125 -1.265625 -0.65625 -1.921875q-0.625 -0.671875 -1.53125 -0.671875q-0.953125 0 -1.578125 0.703125q-0.625 0.703125 -0.609375 1.890625l4.375 0zm14.924194 -1.3125l-2.875 0.53125q-0.15625 -0.875 -0.671875 -1.3125q-0.515625 -0.4375 -1.328125 -0.4375q-1.09375 0 -1.75 0.765625q-0.65625 0.75 -0.65625 2.515625q0 1.96875 0.65625 2.78125q0.671875 0.8125 1.78125 0.8125q0.84375 0 1.375 -0.46875q0.53125 -0.46875 0.75 -1.625l2.859375 0.484375q-0.4375 1.984375 -1.71875 3.0q-1.265625 1.0 -3.390625 1.0q-2.4375 0 -3.875 -1.53125q-1.4375 -1.53125 -1.4375 -4.234375q0 -2.75 1.4375 -4.265625q1.453125 -1.53125 3.921875 -1.53125q2.015625 0 3.203125 0.875q1.203125 0.859375 1.71875 2.640625zm2.2210693 7.796875l0 -15.265625l2.921875 0l0 15.265625l-2.921875 0zm8.113159 -7.6875l-2.65625 -0.484375q0.453125 -1.59375 1.546875 -2.359375q1.09375 -0.78125 3.25 -0.78125q1.953125 0 2.90625 0.46875q0.96875 0.453125 1.359375 1.171875q0.390625 0.71875 0.390625 2.625l-0.03125 3.40625q0 1.46875 0.125 2.15625q0.140625 0.6875 0.53125 1.484375l-2.890625 0q-0.109375 -0.296875 -0.28125 -0.859375q-0.078125 -0.265625 -0.109375 -0.34375q-0.75 0.71875 -1.609375 1.09375q-0.84375 0.359375 -1.8125 0.359375q-1.703125 0 -2.6875 -0.921875q-0.984375 -0.9375 -0.984375 -2.34375q0 -0.9375 0.4375 -1.671875q0.453125 -0.734375 1.25 -1.125q0.8125 -0.390625 2.34375 -0.6875q2.046875 -0.390625 2.84375 -0.71875l0 -0.296875q0 -0.84375 -0.421875 -1.203125q-0.421875 -0.359375 -1.578125 -0.359375q-0.78125 0 -1.21875 0.3125q-0.4375 0.3125 -0.703125 1.078125zm3.921875 2.375q-0.5625 0.1875 -1.78125 0.453125q-1.21875 0.25 -1.59375 0.5q-0.578125 0.40625 -0.578125 1.03125q0 0.625 0.453125 1.078125q0.46875 0.4375 1.171875 0.4375q0.796875 0 1.515625 -0.515625q0.53125 -0.40625 0.6875 -0.96875q0.125 -0.375 0.125 -1.4375l0 -0.578125zm8.549194 5.3125l-2.921875 0l0 -11.0625l2.71875 0l0 1.578125q0.703125 -1.125 1.25 -1.46875q0.5625 -0.359375 1.265625 -0.359375q1.0 0 1.9375 0.5625l-0.90625 2.546875q-0.75 -0.484375 -1.375 -0.484375q-0.625 0 -1.046875 0.34375q-0.421875 0.328125 -0.671875 1.21875q-0.25 0.890625 -0.25 3.703125l0 3.421875zm11.909424 -3.515625l2.90625 0.484375q-0.546875 1.609375 -1.765625 2.453125q-1.21875 0.828125 -3.03125 0.828125q-2.890625 0 -4.28125 -1.890625q-1.09375 -1.5 -1.09375 -3.8125q0 -2.75 1.4375 -4.296875q1.4375 -1.5625 3.640625 -1.5625q2.46875 0 3.890625 1.640625q1.421875 1.625 1.359375 4.984375l-7.328125 0q0.03125 1.296875 0.703125 2.03125q0.6875 0.71875 1.703125 0.71875q0.6875 0 1.15625 -0.375q0.46875 -0.375 0.703125 -1.203125zm0.171875 -2.96875q-0.03125 -1.265625 -0.65625 -1.921875q-0.625 -0.671875 -1.53125 -0.671875q-0.953125 0 -1.578125 0.703125q-0.625 0.703125 -0.609375 1.890625l4.375 0z" fill-rule="nonzero"/><path fill="#000000" d="m271.86652 92.50465l-2.875 0.53125q-0.15625 -0.875 -0.671875 -1.3125q-0.515625 -0.4375 -1.328125 -0.4375q-1.09375 0 -1.75 0.765625q-0.65625 0.75 -0.65625 2.515625q0 1.96875 0.65625 2.78125q0.671875 0.8125 1.78125 0.8125q0.84375 0 1.375 -0.46875q0.53125 -0.46875 0.75 -1.625l2.859375 0.484375q-0.4375 1.984375 -1.71875 3.0q-1.265625 1.0 -3.390625 1.0q-2.4375 0 -3.875 -1.53125q-1.4375 -1.53125 -1.4375 -4.234375q0 -2.75 1.4375 -4.265625q1.453125 -1.53125 3.921875 -1.53125q2.015625 0 3.203125 0.875q1.203125 0.859375 1.71875 2.640625zm1.5491943 2.109375q0 -1.453125 0.71875 -2.8125q0.71875 -1.375 2.03125 -2.09375q1.3125 -0.71875 2.9375 -0.71875q2.515625 0 4.109375 1.640625q1.609375 1.625 1.609375 4.109375q0 2.515625 -1.625 4.171875q-1.609375 1.640625 -4.0625 1.640625q-1.53125 0 -2.90625 -0.6875q-1.375 -0.6875 -2.09375 -2.015625q-0.71875 -1.328125 -0.71875 -3.234375zm3.0 0.15625q0 1.640625 0.78125 2.515625q0.78125 0.875 1.921875 0.875q1.140625 0 1.921875 -0.875q0.78125 -0.875 0.78125 -2.53125q0 -1.625 -0.78125 -2.5q-0.78125 -0.875 -1.921875 -0.875q-1.140625 0 -1.921875 0.875q-0.78125 0.875 -0.78125 2.515625zm20.762451 5.53125l-2.921875 0l0 -5.640625q0 -1.796875 -0.1875 -2.3125q-0.1875 -0.53125 -0.609375 -0.828125q-0.421875 -0.296875 -1.015625 -0.296875q-0.765625 0 -1.375 0.421875q-0.59375 0.421875 -0.828125 1.109375q-0.21875 0.6875 -0.21875 2.53125l0 5.015625l-2.921875 0l0 -11.0625l2.71875 0l0 1.625q1.4375 -1.875 3.640625 -1.875q0.96875 0 1.765625 0.359375q0.8125 0.34375 1.21875 0.890625q0.40625 0.53125 0.5625 1.21875q0.171875 0.6875 0.171875 1.96875l0 6.875zm8.043701 -11.0625l0 2.328125l-2.0 0l0 4.46875q0 1.34375 0.046875 1.578125q0.0625 0.21875 0.265625 0.375q0.203125 0.140625 0.5 0.140625q0.40625 0 1.171875 -0.28125l0.25 2.265625q-1.015625 0.4375 -2.3125 0.4375q-0.796875 0 -1.4375 -0.265625q-0.625 -0.265625 -0.921875 -0.6875q-0.296875 -0.421875 -0.40625 -1.140625q-0.09375 -0.515625 -0.09375 -2.0625l0 -4.828125l-1.34375 0l0 -2.328125l1.34375 0l0 -2.1875l2.9375 -1.71875l0 3.90625l2.0 0zm4.8211975 11.0625l-2.921875 0l0 -11.0625l2.71875 0l0 1.578125q0.703125 -1.125 1.25 -1.46875q0.5625 -0.359375 1.265625 -0.359375q1.0 0 1.9375 0.5625l-0.90625 2.546875q-0.75 -0.484375 -1.375 -0.484375q-0.625 0 -1.046875 0.34375q-0.421875 0.328125 -0.671875 1.21875q-0.25 0.890625 -0.25 3.703125l0 3.421875zm4.831299 -5.6875q0 -1.453125 0.71875 -2.8125q0.71875 -1.375 2.03125 -2.09375q1.3125 -0.71875 2.9375 -0.71875q2.515625 0 4.109375 1.640625q1.609375 1.625 1.609375 4.109375q0 2.515625 -1.625 4.171875q-1.609375 1.640625 -4.0625 1.640625q-1.53125 0 -2.90625 -0.6875q-1.375 -0.6875 -2.09375 -2.015625q-0.71875 -1.328125 -0.71875 -3.234375zm3.0 0.15625q0 1.640625 0.78125 2.515625q0.78125 0.875 1.921875 0.875q1.140625 0 1.921875 -0.875q0.78125 -0.875 0.78125 -2.53125q0 -1.625 -0.78125 -2.5q-0.78125 -0.875 -1.921875 -0.875q-1.140625 0 -1.921875 0.875q-0.78125 0.875 -0.78125 2.515625zm10.699951 5.53125l0 -15.265625l2.921875 0l0 15.265625l-2.921875 0zm14.898163 0l-4.46875 -11.0625l3.078125 0l2.078125 5.640625l0.609375 1.890625q0.234375 -0.71875 0.296875 -0.953125q0.15625 -0.46875 0.3125 -0.9375l2.109375 -5.640625l3.0 0l-4.390625 11.0625l-2.625 0zm11.002319 -7.6875l-2.65625 -0.484375q0.453125 -1.59375 1.546875 -2.359375q1.09375 -0.78125 3.25 -0.78125q1.953125 0 2.90625 0.46875q0.96875 0.453125 1.359375 1.171875q0.390625 0.71875 0.390625 2.625l-0.03125 3.40625q0 1.46875 0.125 2.15625q0.140625 0.6875 0.53125 1.484375l-2.890625 0q-0.109375 -0.296875 -0.28125 -0.859375q-0.078125 -0.265625 -0.109375 -0.34375q-0.75 0.71875 -1.609375 1.09375q-0.84375 0.359375 -1.8125 0.359375q-1.703125 0 -2.6875 -0.921875q-0.984375 -0.9375 -0.984375 -2.34375q0 -0.9375 0.4375 -1.671875q0.453125 -0.734375 1.25 -1.125q0.8125 -0.390625 2.34375 -0.6875q2.046875 -0.390625 2.84375 -0.71875l0 -0.296875q0 -0.84375 -0.421875 -1.203125q-0.421875 -0.359375 -1.578125 -0.359375q-0.78125 0 -1.21875 0.3125q-0.4375 0.3125 -0.703125 1.078125zm3.921875 2.375q-0.5625 0.1875 -1.78125 0.453125q-1.21875 0.25 -1.59375 0.5q-0.578125 0.40625 -0.578125 1.03125q0 0.625 0.453125 1.078125q0.46875 0.4375 1.171875 0.4375q0.796875 0 1.515625 -0.515625q0.53125 -0.40625 0.6875 -0.96875q0.125 -0.375 0.125 -1.4375l0 -0.578125zm8.549194 5.3125l-2.921875 0l0 -11.0625l2.71875 0l0 1.578125q0.703125 -1.125 1.25 -1.46875q0.5625 -0.359375 1.265625 -0.359375q1.0 0 1.9375 0.5625l-0.90625 2.546875q-0.75 -0.484375 -1.375 -0.484375q-0.625 0 -1.046875 0.34375q-0.421875 0.328125 -0.671875 1.21875q-0.25 0.890625 -0.25 3.703125l0 3.421875zm5.5032043 -12.5625l0 -2.703125l2.921875 0l0 2.703125l-2.921875 0zm0 12.5625l0 -11.0625l2.921875 0l0 11.0625l-2.921875 0zm8.113129 -7.6875l-2.65625 -0.484375q0.453125 -1.59375 1.546875 -2.359375q1.09375 -0.78125 3.25 -0.78125q1.953125 0 2.90625 0.46875q0.96875 0.453125 1.359375 1.171875q0.390625 0.71875 0.390625 2.625l-0.03125 3.40625q0 1.46875 0.125 2.15625q0.140625 0.6875 0.53125 1.484375l-2.890625 0q-0.109375 -0.296875 -0.28125 -0.859375q-0.078125 -0.265625 -0.109375 -0.34375q-0.75 0.71875 -1.609375 1.09375q-0.84375 0.359375 -1.8125 0.359375q-1.703125 0 -2.6875 -0.921875q-0.984375 -0.9375 -0.984375 -2.34375q0 -0.9375 0.4375 -1.671875q0.453125 -0.734375 1.25 -1.125q0.8125 -0.390625 2.34375 -0.6875q2.046875 -0.390625 2.84375 -0.71875l0 -0.296875q0 -0.84375 -0.421875 -1.203125q-0.421875 -0.359375 -1.578125 -0.359375q-0.78125 0 -1.21875 0.3125q-0.4375 0.3125 -0.703125 1.078125zm3.921875 2.375q-0.5625 0.1875 -1.78125 0.453125q-1.21875 0.25 -1.59375 0.5q-0.578125 0.40625 -0.578125 1.03125q0 0.625 0.453125 1.078125q0.46875 0.4375 1.171875 0.4375q0.796875 0 1.515625 -0.515625q0.53125 -0.40625 0.6875 -0.96875q0.125 -0.375 0.125 -1.4375l0 -0.578125zm5.6273193 5.3125l0 -15.265625l2.921875 0l0 5.5q1.359375 -1.546875 3.21875 -1.546875q2.015625 0 3.328125 1.46875q1.328125 1.453125 1.328125 4.203125q0 2.828125 -1.34375 4.359375q-1.34375 1.53125 -3.28125 1.53125q-0.9375 0 -1.859375 -0.46875q-0.921875 -0.484375 -1.59375 -1.40625l0 1.625l-2.71875 0zm2.90625 -5.765625q0 1.71875 0.546875 2.53125q0.75 1.171875 2.015625 1.171875q0.96875 0 1.640625 -0.828125q0.6875 -0.828125 0.6875 -2.609375q0 -1.890625 -0.6875 -2.734375q-0.6875 -0.84375 -1.75 -0.84375q-1.0625 0 -1.765625 0.828125q-0.6875 0.8125 -0.6875 2.484375zm10.246826 5.765625l0 -15.265625l2.921875 0l0 15.265625l-2.921875 0zm12.331909 -3.515625l2.90625 0.484375q-0.546875 1.609375 -1.765625 2.453125q-1.21875 0.828125 -3.03125 0.828125q-2.890625 0 -4.28125 -1.890625q-1.09375 -1.5 -1.09375 -3.8125q0 -2.75 1.4375 -4.296875q1.4375 -1.5625 3.640625 -1.5625q2.46875 0 3.890625 1.640625q1.421875 1.625 1.359375 4.984375l-7.328125 0q0.03125 1.296875 0.703125 2.03125q0.6875 0.71875 1.703125 0.71875q0.6875 0 1.15625 -0.375q0.46875 -0.375 0.703125 -1.203125zm0.171875 -2.96875q-0.03125 -1.265625 -0.65625 -1.921875q-0.625 -0.671875 -1.53125 -0.671875q-0.953125 0 -1.578125 0.703125q-0.625 0.703125 -0.609375 1.890625l4.375 0z" fill-rule="nonzero"/><path fill="#f1c232" d="m194.75328 226.82152l145.35432 -44.818893l145.35434 44.818893l-145.35434 44.818893z" fill-rule="evenodd"/><path fill="#000000" d="m326.41516 221.30153l0 -1.65625q-0.609375 0.890625 -1.59375 1.40625q-0.984375 0.5 -2.078125 0.5q-1.109375 0 -2.0 -0.484375q-0.875 -0.5 -1.28125 -1.375q-0.390625 -0.890625 -0.390625 -2.453125l0 -7.0l2.921875 0l0 5.078125q0 2.34375 0.15625 2.875q0.171875 0.515625 0.59375 0.828125q0.4375 0.296875 1.09375 0.296875q0.75 0 1.34375 -0.40625q0.59375 -0.40625 0.8125 -1.015625q0.21875 -0.609375 0.21875 -2.984375l0 -4.671875l2.921875 0l0 11.0625l-2.71875 0zm15.809326 0l-2.921875 0l0 -5.640625q0 -1.796875 -0.1875 -2.3125q-0.1875 -0.53125 -0.609375 -0.828125q-0.421875 -0.296875 -1.015625 -0.296875q-0.765625 0 -1.375 0.421875q-0.59375 0.421875 -0.828125 1.109375q-0.21875 0.6875 -0.21875 2.53125l0 5.015625l-2.921875 0l0 -11.0625l2.71875 0l0 1.625q1.4375 -1.875 3.640625 -1.875q0.96875 0 1.765625 0.359375q0.8125 0.34375 1.21875 0.890625q0.40625 0.53125 0.5625 1.21875q0.171875 0.6875 0.171875 1.96875l0 6.875zm8.043701 -11.0625l0 2.328125l-2.0 0l0 4.46875q0 1.34375 0.046875 1.578125q0.0625 0.21875 0.265625 0.375q0.203125 0.140625 0.5 0.140625q0.40625 0 1.171875 -0.28125l0.25 2.265625q-1.015625 0.4375 -2.3125 0.4375q-0.796875 0 -1.4375 -0.265625q-0.625 -0.265625 -0.921875 -0.6875q-0.296875 -0.421875 -0.40625 -1.140625q-0.09375 -0.515625 -0.09375 -2.0625l0 -4.828125l-1.34375 0l0 -2.328125l1.34375 0l0 -2.1875l2.9375 -1.71875l0 3.90625l2.0 0zm2.0243225 -1.5l0 -2.703125l2.921875 0l0 2.703125l-2.921875 0zm0 12.5625l0 -11.0625l2.921875 0l0 11.0625l-2.921875 0zm5.9256287 0l0 -15.265625l2.921875 0l0 15.265625l-2.921875 0z" fill-rule="nonzero"/><path fill="#000000" d="m303.30157 239.50465l-2.875 0.53125q-0.15625 -0.875 -0.671875 -1.3125q-0.515625 -0.4375 -1.328125 -0.4375q-1.09375 0 -1.75 0.765625q-0.65625 0.75 -0.65625 2.515625q0 1.96875 0.65625 2.78125q0.671875 0.8125 1.78125 0.8125q0.84375 0 1.375 -0.46875q0.53125 -0.46875 0.75 -1.625l2.859375 0.484375q-0.4375 1.984375 -1.71875 3.0q-1.265625 1.0 -3.390625 1.0q-2.4375 0 -3.875 -1.53125q-1.4375 -1.53125 -1.4375 -4.234375q0 -2.75 1.4375 -4.265625q1.453125 -1.53125 3.921875 -1.53125q2.015625 0 3.203125 0.875q1.203125 0.859375 1.71875 2.640625zm1.5491943 2.109375q0 -1.453125 0.71875 -2.8125q0.71875 -1.375 2.03125 -2.09375q1.3125 -0.71875 2.9375 -0.71875q2.515625 0 4.109375 1.640625q1.609375 1.625 1.609375 4.109375q0 2.515625 -1.625 4.171875q-1.609375 1.640625 -4.0625 1.640625q-1.53125 0 -2.90625 -0.6875q-1.375 -0.6875 -2.09375 -2.015625q-0.71875 -1.328125 -0.71875 -3.234375zm3.0 0.15625q0 1.640625 0.78125 2.515625q0.78125 0.875 1.921875 0.875q1.140625 0 1.921875 -0.875q0.78125 -0.875 0.78125 -2.53125q0 -1.625 -0.78125 -2.5q-0.78125 -0.875 -1.921875 -0.875q-1.140625 0 -1.921875 0.875q-0.78125 0.875 -0.78125 2.515625zm20.762451 5.53125l-2.921875 0l0 -5.640625q0 -1.796875 -0.1875 -2.3125q-0.1875 -0.53125 -0.609375 -0.828125q-0.421875 -0.296875 -1.015625 -0.296875q-0.765625 0 -1.375 0.421875q-0.59375 0.421875 -0.828125 1.109375q-0.21875 0.6875 -0.21875 2.53125l0 5.015625l-2.921875 0l0 -11.0625l2.71875 0l0 1.625q1.4375 -1.875 3.640625 -1.875q0.96875 0 1.765625 0.359375q0.8125 0.34375 1.21875 0.890625q0.40625 0.53125 0.5625 1.21875q0.171875 0.6875 0.171875 1.96875l0 6.875zm13.106201 0l-2.71875 0l0 -1.625q-0.671875 0.953125 -1.59375 1.421875q-0.921875 0.453125 -1.859375 0.453125q-1.90625 0 -3.265625 -1.53125q-1.359375 -1.546875 -1.359375 -4.296875q0 -2.8125 1.3125 -4.265625q1.328125 -1.46875 3.359375 -1.46875q1.84375 0 3.203125 1.546875l0 -5.5l2.921875 0l0 15.265625zm-7.8125 -5.765625q0 1.765625 0.5 2.5625q0.703125 1.140625 1.96875 1.140625q1.015625 0 1.71875 -0.859375q0.71875 -0.859375 0.71875 -2.5625q0 -1.90625 -0.6875 -2.75q-0.6875 -0.84375 -1.765625 -0.84375q-1.046875 0 -1.75 0.828125q-0.703125 0.828125 -0.703125 2.484375zm10.699951 -6.796875l0 -2.703125l2.921875 0l0 2.703125l-2.921875 0zm0 12.5625l0 -11.0625l2.921875 0l0 11.0625l-2.921875 0zm11.003784 -11.0625l0 2.328125l-2.0 0l0 4.46875q0 1.34375 0.046875 1.578125q0.0625 0.21875 0.265625 0.375q0.203125 0.140625 0.5 0.140625q0.40625 0 1.171875 -0.28125l0.25 2.265625q-1.015625 0.4375 -2.3125 0.4375q-0.796875 0 -1.4375 -0.265625q-0.625 -0.265625 -0.921875 -0.6875q-0.296875 -0.421875 -0.40625 -1.140625q-0.09375 -0.515625 -0.09375 -2.0625l0 -4.828125l-1.34375 0l0 -2.328125l1.34375 0l0 -2.1875l2.9375 -1.71875l0 3.90625l2.0 0zm2.024292 -1.5l0 -2.703125l2.921875 0l0 2.703125l-2.921875 0zm0 12.5625l0 -11.0625l2.921875 0l0 11.0625l-2.921875 0zm5.253784 -5.6875q0 -1.453125 0.71875 -2.8125q0.71875 -1.375 2.03125 -2.09375q1.3125 -0.71875 2.9375 -0.71875q2.515625 0 4.109375 1.640625q1.609375 1.625 1.609375 4.109375q0 2.515625 -1.625 4.171875q-1.609375 1.640625 -4.0625 1.640625q-1.53125 0 -2.90625 -0.6875q-1.375 -0.6875 -2.09375 -2.015625q-0.71875 -1.328125 -0.71875 -3.234375zm3.0 0.15625q0 1.640625 0.78125 2.515625q0.78125 0.875 1.921875 0.875q1.140625 0 1.921875 -0.875q0.78125 -0.875 0.78125 -2.53125q0 -1.625 -0.78125 -2.5q-0.78125 -0.875 -1.921875 -0.875q-1.140625 0 -1.921875 0.875q-0.78125 0.875 -0.78125 2.515625zm20.762451 5.53125l-2.921875 0l0 -5.640625q0 -1.796875 -0.1875 -2.3125q-0.1875 -0.53125 -0.609375 -0.828125q-0.421875 -0.296875 -1.015625 -0.296875q-0.765625 0 -1.375 0.421875q-0.59375 0.421875 -0.828125 1.109375q-0.21875 0.6875 -0.21875 2.53125l0 5.015625l-2.921875 0l0 -11.0625l2.71875 0l0 1.625q1.4375 -1.875 3.640625 -1.875q0.96875 0 1.765625 0.359375q0.8125 0.34375 1.21875 0.890625q0.40625 0.53125 0.5625 1.21875q0.171875 0.6875 0.171875 1.96875l0 6.875z" fill-rule="nonzero"/><path fill="#000000" fill-opacity="0.0" d="m340.1076 271.6404l0 61.19687" fill-rule="evenodd"/><path stroke="#d9d9d9" stroke-width="4.0" stroke-linejoin="round" stroke-linecap="butt" d="m340.1076 271.6404l0 37.19687" fill-rule="evenodd"/><path fill="#d9d9d9" stroke="#d9d9d9" stroke-width="4.0" stroke-linecap="butt" d="m333.50067 308.83728l6.6069336 18.152374l6.6069336 -18.152374z" fill-rule="evenodd"/><path fill="#000000" fill-opacity="0.0" d="m340.1076 113.884514l0 68.125984" fill-rule="evenodd"/><path stroke="#d9d9d9" stroke-width="4.0" stroke-linejoin="round" stroke-linecap="butt" d="m340.1076 113.884514l0 44.125984" fill-rule="evenodd"/><path fill="#d9d9d9" stroke="#d9d9d9" stroke-width="4.0" stroke-linecap="butt" d="m333.50067 158.0105l6.6069336 18.15239l6.6069336 -18.15239z" fill-rule="evenodd"/><path fill="#cfe2f3" d="m210.36751 680.5452l20.92125 -83.685l250.07086 0l-20.921265 83.685z" fill-rule="evenodd"/><path fill="#000000" d="m335.53036 646.18274l-2.921875 0l0 -5.640625q0 -1.796875 -0.1875 -2.3125q-0.1875 -0.53125 -0.609375 -0.828125q-0.421875 -0.296875 -1.015625 -0.296875q-0.765625 0 -1.375 0.421875q-0.59375 0.421875 -0.828125 1.109375q-0.21875 0.6875 -0.21875 2.53125l0 5.015625l-2.921875 0l0 -11.0625l2.71875 0l0 1.625q1.4375 -1.875 3.640625 -1.875q0.96875 0 1.765625 0.359375q0.8125 0.34375 1.21875 0.890625q0.40625 0.53125 0.5625 1.21875q0.171875 0.6875 0.171875 1.96875l0 6.875zm9.371826 -3.515625l2.90625 0.484375q-0.546875 1.609375 -1.765625 2.453125q-1.21875 0.828125 -3.03125 0.828125q-2.890625 0 -4.28125 -1.890625q-1.09375 -1.5 -1.09375 -3.8125q0 -2.75 1.4375 -4.296875q1.4375 -1.5625 3.640625 -1.5625q2.46875 0 3.890625 1.640625q1.421875 1.625 1.359375 4.984375l-7.328125 0q0.03125 1.296875 0.703125 2.03125q0.6875 0.71875 1.703125 0.71875q0.6875 0 1.15625 -0.375q0.46875 -0.375 0.703125 -1.203125zm0.171875 -2.96875q-0.03125 -1.265625 -0.65625 -1.921875q-0.625 -0.671875 -1.53125 -0.671875q-0.953125 0 -1.578125 0.703125q-0.625 0.703125 -0.609375 1.890625l4.375 0zm3.8773193 6.484375l3.984375 -5.703125l-3.8125 -5.359375l3.5625 0l1.96875 3.046875l2.0625 -3.046875l3.421875 0l-3.734375 5.234375l4.078125 5.828125l-3.578125 0l-2.25 -3.421875l-2.28125 3.421875l-3.421875 0zm18.34607 -11.0625l0 2.328125l-2.0 0l0 4.46875q0 1.34375 0.046875 1.578125q0.0625 0.21875 0.265625 0.375q0.203125 0.140625 0.5 0.140625q0.40625 0 1.171875 -0.28125l0.25 2.265625q-1.015625 0.4375 -2.3125 0.4375q-0.796875 0 -1.4375 -0.265625q-0.625 -0.265625 -0.921875 -0.6875q-0.296875 -0.421875 -0.40625 -1.140625q-0.09375 -0.515625 -0.09375 -2.0625l0 -4.828125l-1.34375 0l0 -2.328125l1.34375 0l0 -2.1875l2.9375 -1.71875l0 3.90625l2.0 0z" fill-rule="nonzero"/><path fill="#000000" fill-opacity="0.0" d="m340.1076 416.53796l3.3700867 86.33072" fill-rule="evenodd"/><path stroke="#d9d9d9" stroke-width="4.0" stroke-linejoin="round" stroke-linecap="butt" d="m340.1076 416.53796l2.4339294 62.34897" fill-rule="evenodd"/><path fill="#d9d9d9" stroke="#d9d9d9" stroke-width="4.0" stroke-linecap="butt" d="m335.9396 479.14465l7.3099976 17.88086l5.8938293 -18.39627z" fill-rule="evenodd"/><path fill="#000000" fill-opacity="0.0" d="m485.46194 171.71654l168.126 0l0 45.354324l-168.126 0z" fill-rule="evenodd"/><path fill="#ea9999" d="m504.3682 194.84279l0 3.5l-3.0 0l0 6.6875q0 2.03125 0.078125 2.375q0.09375 0.328125 0.390625 0.546875q0.3125 0.21875 0.75 0.21875q0.609375 0 1.765625 -0.421875l0.375 3.40625q-1.53125 0.65625 -3.46875 0.65625q-1.1875 0 -2.140625 -0.390625q-0.953125 -0.40625 -1.40625 -1.03125q-0.4375 -0.640625 -0.609375 -1.71875q-0.140625 -0.765625 -0.140625 -3.09375l0 -7.234375l-2.015625 0l0 -3.5l2.015625 0l0 -3.296875l4.40625 -2.5625l0 5.859375l3.0 0zm7.25 16.59375l-4.390625 0l0 -16.59375l4.078125 0l0 2.359375q1.0468445 -1.671875 1.8749695 -2.203125q0.84375 -0.53125 1.90625 -0.53125q1.5 0 2.890625 0.828125l-1.359375 3.828125q-1.109375 -0.71875 -2.0625 -0.71875q-0.921875 0 -1.5625 0.515625q-0.640625 0.5 -1.0155945 1.828125q-0.359375 1.328125 -0.359375 5.5625l0 5.125zm19.171844 0l0 -2.484375q-0.90625 1.328125 -2.390625 2.09375q-1.46875 0.765625 -3.109375 0.765625q-1.671875 0 -3.0 -0.734375q-1.328125 -0.734375 -1.921875 -2.0625q-0.59375 -1.328125 -0.59375 -3.671875l0 -10.5l4.390625 0l0 7.625q0 3.5 0.234375 4.296875q0.25 0.78125 0.890625 1.25q0.640625 0.453125 1.625 0.453125q1.125 0 2.015625 -0.609375q0.890625 -0.625 1.21875 -1.53125q0.328125 -0.921875 0.328125 -4.484375l0 -7.0l4.390625 0l0 16.59375l-4.078125 0zm18.234375 -5.28125l4.375 0.734375q-0.84375 2.40625 -2.671875 3.671875q-1.8125 1.25 -4.546875 1.25q-4.328125 0 -6.40625 -2.828125q-1.640625 -2.265625 -1.640625 -5.71875q0 -4.125 2.15625 -6.453125q2.15625 -2.34375 5.453125 -2.34375q3.703125 0 5.84375 2.453125q2.140625 2.4375 2.046875 7.484375l-11.0 0q0.046875 1.953125 1.0625 3.046875q1.015625 1.078125 2.53125 1.078125q1.03125 0 1.734375 -0.5625q0.703125 -0.5625 1.0625 -1.8125zm0.25 -4.4375q-0.046875 -1.90625 -0.984375 -2.890625q-0.9375 -1.0 -2.28125 -1.0q-1.4375 0 -2.375 1.046875q-0.9375 1.046875 -0.921875 2.84375l6.5625 0z" fill-rule="nonzero"/><path fill="#000000" fill-opacity="0.0" d="m345.73227 276.1168l155.40158 0l0 45.35434l-155.40158 0z" fill-rule="evenodd"/><path fill="#d9d9d9" d="m355.10727 299.24304l2.4375 0l0 -1.25q0 -2.09375 0.4375 -3.125q0.453125 -1.03125 1.640625 -1.671875q1.203125 -0.65625 3.03125 -0.65625q1.875 0 3.671875 0.5625l-0.59375 3.0625q-1.046875 -0.25 -2.015625 -0.25q-0.953125 0 -1.375 0.453125q-0.40625 0.4375 -0.40625 1.703125l0 1.171875l3.28125 0l0 3.453125l-3.28125 0l0 13.140625l-4.390625 0l0 -13.140625l-2.4375 0l0 -3.453125zm15.859375 5.0625l-3.984375 -0.71875q0.671875 -2.40625 2.3125 -3.5625q1.640625 -1.15625 4.875 -1.15625q2.9375 0 4.375 0.703125q1.4375 0.6875 2.015625 1.765625q0.59375 1.0625 0.59375 3.921875l-0.046875 5.125q0 2.1875 0.203125 3.234375q0.21875 1.03125 0.796875 2.21875l-4.34375 0q-0.171875 -0.4375 -0.421875 -1.296875q-0.109375 -0.390625 -0.15625 -0.515625q-1.125 1.09375 -2.40625 1.640625q-1.28125 0.546875 -2.734375 0.546875q-2.5625 0 -4.046875 -1.390625q-1.46875 -1.390625 -1.46875 -3.515625q0 -1.40625 0.671875 -2.5q0.671875 -1.109375 1.875 -1.6875q1.21875 -0.59375 3.5 -1.03125q3.078125 -0.578125 4.265625 -1.078125l0 -0.4375q0 -1.265625 -0.625 -1.796875q-0.625 -0.546875 -2.359375 -0.546875q-1.171875 0 -1.828125 0.46875q-0.65625 0.453125 -1.0625 1.609375zm5.875 3.5625q-0.84375 0.28125 -2.671875 0.671875q-1.828125 0.390625 -2.390625 0.765625q-0.859375 0.609375 -0.859375 1.546875q0 0.921875 0.6875 1.59375q0.6875 0.671875 1.75 0.671875q1.1875 0 2.265625 -0.78125q0.796875 -0.59375 1.046875 -1.453125q0.171875 -0.5625 0.171875 -2.140625l0 -0.875zm8.640625 7.96875l0 -22.90625l4.390625 0l0 22.90625l-4.390625 0zm7.34375 -4.734375l4.40625 -0.671875q0.28125 1.28125 1.140625 1.953125q0.859375 0.65625 2.40625 0.65625q1.703125 0 2.5625 -0.625q0.578125 -0.4375 0.578125 -1.171875q0 -0.5 -0.3125 -0.828125q-0.328125 -0.3125 -1.46875 -0.578125q-5.3125 -1.171875 -6.734375 -2.140625q-1.96875 -1.34375 -1.96875 -3.734375q0 -2.15625 1.703125 -3.625q1.703125 -1.46875 5.28125 -1.46875q3.40625 0 5.0625 1.109375q1.65625 1.109375 2.28125 3.28125l-4.140625 0.765625q-0.265625 -0.96875 -1.015625 -1.484375q-0.734375 -0.515625 -2.109375 -0.515625q-1.734375 0 -2.484375 0.484375q-0.5 0.34375 -0.5 0.890625q0 0.46875 0.4375 0.796875q0.59375 0.4375 4.09375 1.234375q3.515625 0.796875 4.90625 1.953125q1.375 1.171875 1.375 3.265625q0 2.28125 -1.90625 3.921875q-1.90625 1.640625 -5.640625 1.640625q-3.390625 0 -5.375 -1.375q-1.96875 -1.375 -2.578125 -3.734375zm28.953125 -0.546875l4.375 0.734375q-0.84375 2.40625 -2.671875 3.671875q-1.8125 1.25 -4.546875 1.25q-4.328125 0 -6.40625 -2.828125q-1.640625 -2.265625 -1.640625 -5.71875q0 -4.125 2.15625 -6.453125q2.15625 -2.34375 5.453125 -2.34375q3.703125 0 5.84375 2.453125q2.140625 2.4375 2.046875 7.484375l-11.0 0q0.046875 1.953125 1.0625 3.046875q1.015625 1.078125 2.53125 1.078125q1.03125 0 1.734375 -0.5625q0.703125 -0.5625 1.0625 -1.8125zm0.25 -4.4375q-0.046875 -1.90625 -0.984375 -2.890625q-0.9375 -1.0 -2.28125 -1.0q-1.4375 0 -2.375 1.046875q-0.9375 1.046875 -0.921875 2.84375l6.5625 0z" fill-rule="nonzero"/><path fill="#6aa84f" d="m63.020664 427.2456c0 1.0698547 0.2588539 2.0519714 0.77656555 2.94635c0.51771164 0.8887329 1.5890846 1.8595276 3.2141151 2.9124146l-3.4729729 0l0 4.1266174l22.908688 0l0 -4.585144l-11.993629 0c-1.6394119 0 -3.1493988 -0.25473022 -4.5299606 -0.7641907c-0.90599823 -0.33963013 -1.6130524 -0.9085083 -2.1211777 -1.706665c-0.51291656 -0.79815674 -0.76937103 -1.6982117 -0.76937103 -2.7001343c0 -1.1208191 0.28042603 -2.2416077 0.8412781 -3.3624268l-3.6024017 -1.5793152c-0.8340912 1.596283 -1.251133 3.1671143 -1.251133 4.712494z" fill-rule="evenodd"/><path fill="#6aa84f" d="m66.21321 408.65036c0 -2.3265076 0.74780273 -4.220001 2.2434082 -5.6804504c0.96351624 -0.95098877 2.4087906 -1.5283508 4.3358307 -1.7321472l0 15.105438c-1.9989395 -0.15283203 -3.5952148 -0.945343 -4.788826 -2.377472c-1.1936111 -1.4378052 -1.7904129 -3.2095947 -1.7904129 -5.3153687zm-3.1925468 0.050964355c0 3.736023 1.0641823 6.7757874 3.1925468 9.119293c2.1283646 2.3435059 5.119583 3.5152588 8.973648 3.5152588c3.72464 0 6.61998 -1.1575928 8.686028 -3.4728088c2.0612564 -2.3208618 3.0918808 -5.4596863 3.0918808 -9.416473c0 -3.1416626 -0.6471405 -5.7229004 -1.9414139 -7.7437744c-1.2942734 -2.0208435 -3.113449 -3.4048767 -5.457527 -4.152069l-0.49613953 4.7379456c1.6394119 0.69625854 2.833023 1.6387634 3.5808258 2.8275146c0.74780273 1.1887207 1.1217117 2.6236877 1.1217117 4.304901c0 2.258606 -0.66871643 4.143585 -2.006134 5.654999c-1.3374176 1.511383 -3.26445 2.3519897 -5.7810974 2.52182l0 -20.17456c-0.46018982 -0.016967773 -0.80532837 -0.02545166 -1.0354233 -0.02545166c-3.782158 0 -6.715851 1.1462708 -8.801071 3.4388428c-2.085228 2.2925415 -3.1278343 5.247406 -3.1278343 8.864563z" fill-rule="evenodd"/><path fill="#6aa84f" d="m66.06221 379.2037c0 -1.9699097 0.72623444 -3.662445 2.1786957 -5.077606c1.4524689 -1.4208069 3.638359 -2.1312256 6.5576706 -2.1312256c3.063118 0 5.325699 0.7273865 6.787758 2.1821594c1.4572525 1.4491272 2.1858902 3.192627 2.1858902 5.230438c0 2.0038757 -0.70466614 3.7105713 -2.1139908 5.120056c-1.409317 1.4095154 -3.5880203 2.1142578 -6.536087 2.1142578c-2.9480743 0 -5.193886 -0.7500305 -6.7374268 -2.2500916c-1.5483398 -1.5057373 -2.3225098 -3.235077 -2.3225098 -5.1879883zm-3.0415459 -0.43304443c0 1.7661133 0.292408 3.2690125 0.8772316 4.5086975c0.5800247 1.239685 1.4524612 2.3519897 2.6173096 3.3369446l-2.9768333 0l0 4.177582l31.68819 0l0 -4.585144l-11.152344 0c0.8340912 -0.78115845 1.5243683 -1.7774353 2.070839 -2.9888c0.5464783 -1.217041 0.8197098 -2.5897522 0.8197098 -4.1181335c0 -2.0887756 -0.49853516 -4.078491 -1.4956055 -5.9691467c-1.0018692 -1.8963318 -2.439949 -3.3397827 -4.3142548 -4.3303833c-1.879097 -0.99627686 -3.9906845 -1.4944153 -6.3347626 -1.4944153c-2.1858902 0 -4.194412 0.4500122 -6.0255737 1.3500671c-1.8359528 0.9000244 -3.2572632 2.2331238 -4.263916 3.999237c-1.0066643 1.7661133 -1.5099907 3.803955 -1.5099907 6.113495z" fill-rule="evenodd"/><path fill="#6aa84f" d="m66.21321 350.6231c0 -2.326538 0.74780273 -4.2200317 2.2434082 -5.6804504c0.96351624 -0.95098877 2.4087906 -1.5283813 4.3358307 -1.7321777l0 15.105438c-1.9989395 -0.15283203 -3.5952148 -0.9453125 -4.788826 -2.377472c-1.1936111 -1.4378052 -1.7904129 -3.2095947 -1.7904129 -5.315338zm-3.1925468 0.050933838c0 3.736023 1.0641823 6.7757874 3.1925468 9.119293c2.1283646 2.3435059 5.119583 3.5152588 8.973648 3.5152588c3.72464 0 6.61998 -1.1575928 8.686028 -3.4727783c2.0612564 -2.3208923 3.0918808 -5.459717 3.0918808 -9.416504c0 -3.1416626 -0.6471405 -5.7229004 -1.9414139 -7.743744c-1.2942734 -2.020874 -3.113449 -3.4048767 -5.457527 -4.1520996l-0.49613953 4.737976c1.6394119 0.69625854 2.833023 1.6387329 3.5808258 2.8274841c0.74780273 1.1887207 1.1217117 2.6237183 1.1217117 4.3049316c0 2.2585754 -0.66871643 4.143585 -2.006134 5.6549683c-1.3374176 1.511383 -3.26445 2.3519897 -5.7810974 2.52182l0 -20.17453c-0.46018982 -0.016998291 -0.80532837 -0.025482178 -1.0354233 -0.025482178c-3.782158 0 -6.715851 1.1462708 -8.801071 3.4388428c-2.085228 2.292572 -3.1278343 5.247406 -3.1278343 8.864563z" fill-rule="evenodd"/><path fill="#6aa84f" d="m74.94957 315.49597l1.423706 0c1.711319 0 3.0056 0.24624634 3.8828278 0.7387085c1.1360855 0.6453247 2.0324936 1.6557312 2.6892166 3.0312805c0.65193176 1.3755493 0.97789764 2.94635 0.97789764 4.712494c0 1.783081 -0.34513855 3.1388245 -1.0354156 4.067169c-0.6902847 0.92266846 -1.5531311 1.3840332 -2.5885544 1.3840332c-0.6759033 0 -1.2894821 -0.21228027 -1.8407516 -0.6368408c-0.5560608 -0.42453003 -0.97789764 -1.0274048 -1.2655106 -1.8085632c-0.28762054 -0.78118896 -0.54647064 -2.1142578 -0.77656555 -3.999237c-0.40266418 -3.3284607 -0.8916168 -5.824829 -1.4668503 -7.489044zm-11.9289055 5.8332825c0 2.326538 0.2708397 4.372864 0.81251526 6.138977c0.5368843 1.7661133 1.306263 3.1161804 2.3081245 4.0502014c0.99707794 0.9339905 2.3081284 1.6047974 3.9331589 2.0123596l0.51771545 -4.483246c-1.6250381 -0.49246216 -2.7563324 -1.2510071 -3.3938828 -2.2755737c-0.6423416 -1.0302429 -0.96351624 -2.6237183 -0.96351624 -4.780426c0 -2.3095398 0.4386139 -4.050171 1.3158493 -5.221924c0.6471405 -0.86608887 1.7616501 -1.2991333 3.343544 -1.2991333c0.14381409 0 0.48175812 0.008483887 1.013855 0.025482178c0.5177078 1.7491455 0.96351624 4.4747314 1.3374176 8.176788c0.18695068 1.8170776 0.38108826 3.1756287 0.58242035 4.0756836c0.28762054 1.2226868 0.711853 2.3237 1.2727051 3.3029785c0.56085205 0.9736328 1.3062592 1.7633057 2.2362213 2.368988c0.9251709 0.6000061 1.9486084 0.9000244 3.0703125 0.9000244c1.9126511 0 3.4849548 -0.79815674 4.716919 -2.3944397c1.2271576 -1.5963135 1.840744 -3.880371 1.840744 -6.8522034c0 -1.8001099 -0.2516632 -3.4841309 -0.7549896 -5.052124c-0.50333405 -1.5736694 -1.3661804 -3.2095947 -2.5885544 -4.9078064c1.0785599 -0.13583374 2.0205078 -0.44152832 2.8258362 -0.9170227l0 -4.7888794c-0.8772354 0.57736206 -1.7928162 0.9651184 -2.7467422 1.1632385c-0.958725 0.19247437 -3.2428818 0.2886963 -6.8524704 0.2886963l-5.177109 0c-1.7257004 0 -2.9193115 0.076416016 -3.5808258 0.22924805c-1.0641861 0.27172852 -1.9438095 0.7472229 -2.6388855 1.4264832c-0.69986725 0.6792908 -1.2798996 1.7406616 -1.7400856 3.1841125c-0.460186 1.4434814 -0.6902771 3.3199768 -0.6902771 5.6295166z" fill-rule="evenodd"/><path fill="#6aa84f" d="m55.535435 298.3527l2.3296967 4.559662l5.6732407 0l0 3.3624268l3.0199776 0l0 -3.3624268l13.180046 0c2.3296967 0 3.8588562 -0.1867981 4.5874863 -0.5603943c0.7238388 -0.3735962 1.3086548 -1.0189209 1.7544632 -1.9359436c0.4458084 -0.9170227 0.6687088 -2.207672 0.6687088 -3.8718872c0 -1.0189209 -0.11504364 -2.1736755 -0.34513855 -3.464325l-3.4298325 0.6622925c0.10066986 0.8321228 0.15100098 1.5029297 0.15100098 2.0123596c0 0.6792908 -0.09347534 1.2029114 -0.28042603 1.5708313c-0.18695068 0.3623047 -0.4386139 0.6255188 -0.75499725 0.78967285c-0.31637573 0.1585083 -1.0282288 0.23773193 -2.1355515 0.23773193l-13.39576 0l0 -4.6105957l-3.0199776 0l0 4.6105957l-8.002937 0z" fill-rule="evenodd"/><path fill="#e69138" d="m388.25113 501.76425c0 1.7390137 -0.5626831 3.1543274 -1.6880493 4.2459717c-0.7250061 0.71084595 -1.8125305 1.1424255 -3.2625122 1.2947388l0 -11.290863c1.5040894 0.114227295 2.7052307 0.706604 3.603363 1.7770691c0.8981323 1.0747375 1.3471985 2.3990784 1.3471985 3.9730835zm2.4022827 -0.038085938c0 -2.792572 -0.80075073 -5.0646973 -2.4022827 -6.8164062c-1.6015015 -1.751709 -3.852234 -2.6275635 -6.7522583 -2.6275635c-2.8026428 0 -4.981262 0.8652649 -6.535858 2.5958252c-1.5510254 1.7347717 -2.3265076 4.080963 -2.3265076 7.0385437c0 2.348297 0.48693848 4.27771 1.4608154 5.7882385c0.97387695 1.5105286 2.342743 2.5450745 4.1065674 3.1035767l0.37332153 -3.541504c-1.2335815 -0.52041626 -2.1317444 -1.2249146 -2.6944275 -2.1134644c-0.5626831 -0.8885498 -0.84402466 -1.9611511 -0.84402466 -3.217804c0 -1.6882324 0.5031738 -3.097229 1.5095215 -4.2269287c1.0063477 -1.1297302 2.4563599 -1.7580566 4.350006 -1.8850098l0 15.079926c0.34628296 0.0126953125 0.60598755 0.019012451 0.77911377 0.019012451c2.8459167 0 5.053406 -0.8568115 6.6224365 -2.5704346c1.5690308 -1.713623 2.3535767 -3.9222717 2.3535767 -6.626007z" fill-rule="evenodd"/><path fill="#e69138" d="m390.6534 524.63165c0 -2.8052979 -0.9468384 -4.9505005 -2.8405151 -6.435669l2.4509583 0l0 -3.0844727l-17.237793 0l0 3.427246l9.414215 0c2.207489 0 3.7061768 0.5288696 4.4961243 1.5866699c0.789917 1.0620117 1.184906 2.322937 1.184906 3.7826538c0 0.9139404 -0.17675781 1.7094116 -0.5302429 2.3864136c-0.34988403 0.6812134 -0.82058716 1.1550903 -1.4121399 1.4216309c-0.58792114 0.26660156 -1.4770508 0.3998413 -2.6673584 0.3998413l-10.485504 0l0 3.4273071l10.599121 0c1.3526306 0 2.299469 -0.06347656 2.8405151 -0.19042969c0.8331909 -0.203125 1.5527954 -0.5585327 2.158783 -1.0662842c0.60595703 -0.5076904 1.094696 -1.2735596 1.466217 -2.2974854c0.37512207 -1.0197144 0.5627136 -2.138855 0.5627136 -3.3574219z" fill-rule="evenodd"/><path fill="#e69138" d="m388.23492 544.43353c0 1.5612793 -0.5518799 2.875061 -1.6556091 3.9413452c-1.1037598 1.0662231 -2.8351135 1.5993652 -5.1940613 1.5993652c-2.1425476 0 -3.736847 -0.5246582 -4.7828674 -1.5740356c-1.0424194 -1.045044 -1.5636292 -2.3165283 -1.5636292 -3.814392c0 -1.4851074 0.54644775 -2.7734985 1.6393738 -3.8651733c1.092926 -1.0916138 2.743103 -1.6374512 4.950592 -1.6374512c2.2832031 0 3.9550476 0.5098877 5.015503 1.529602c1.0604553 1.0239258 1.5906982 2.2974854 1.5906982 3.8207397zm8.586426 5.255066l-8.53775 0c0.70336914 -0.5965576 1.2732849 -1.3708496 1.7097168 -2.322876c0.44006348 -0.95202637 0.6600952 -2.0372925 0.6600952 -3.2559204c0 -1.6628418 -0.37335205 -3.1669922 -1.1199951 -4.512512c-0.74664307 -1.34552 -1.8215332 -2.3546753 -3.22464 -3.0274048c-1.3995056 -0.6727905 -2.9595337 -1.0091553 -4.6800537 -1.0091553c-1.7638245 0 -3.325653 0.37023926 -4.685486 1.1107178c-1.3562317 0.74468994 -2.413086 1.7918701 -3.1705322 3.1416016c-0.7574768 1.3540039 -1.1362 2.8370361 -1.1362 4.4490967c0 2.487915 0.8548584 4.372925 2.5645447 5.6549683l-2.1749878 0l0 3.1797485l23.795288 0z" fill-rule="evenodd"/><path fill="#f6b26b" d="m323.63254 522.6982l0 0c0 -10.95874 8.88382 -19.84253 19.84253 -19.84253l0 0c5.2625732 0 10.30957 2.0905457 14.030792 5.811737c3.7211914 3.721161 5.811737 8.768219 5.811737 14.030792l0 0c0 10.958679 -8.88382 19.84253 -19.84253 19.84253l0 0c-10.95871 0 -19.84253 -8.88385 -19.84253 -19.84253z" fill-rule="evenodd"/><path fill="#000000" fill-opacity="0.0" d="m194.75328 226.82152l-73.87897 0l0 295.87402l202.76085 0" fill-rule="evenodd"/><path stroke="#a4c2f4" stroke-width="3.0" stroke-linejoin="round" stroke-linecap="butt" d="m176.75328 226.82152l-55.878967 0l0 295.87402l202.76085 0" fill-rule="evenodd"/><path fill="#a4c2f4" stroke="#a4c2f4" stroke-width="3.0" stroke-linecap="butt" d="m176.75328 231.77672l13.614288 -4.9552l-13.614288 -4.9552z" fill-rule="evenodd"/><path fill="#000000" fill-opacity="0.0" d="m485.46194 226.82152l118.91342 0l0 411.87402l-133.4646 0" fill-rule="evenodd"/><path stroke="#e06666" stroke-width="3.0" stroke-linejoin="round" stroke-linecap="butt" d="m485.46194 226.82152l118.91342 0l0 411.87402l-115.4646 0" fill-rule="evenodd"/><path fill="#e06666" stroke="#e06666" stroke-width="3.0" stroke-linecap="butt" d="m488.91077 633.74036l-13.614288 4.9552l13.614288 4.9552z" fill-rule="evenodd"/><path fill="#000000" fill-opacity="0.0" d="m343.47507 542.5407l2.3937073 54.33069" fill-rule="evenodd"/><path stroke="#d9d9d9" stroke-width="4.0" stroke-linejoin="round" stroke-linecap="butt" d="m343.47507 542.5407l1.3373413 30.353943" fill-rule="evenodd"/><path fill="#d9d9d9" stroke="#d9d9d9" stroke-width="4.0" stroke-linecap="butt" d="m338.21188 573.1855l7.3995056 17.843933l5.801544 -18.425598z" fill-rule="evenodd"/></g></svg>