<svg version="1.1" viewBox="0.0 0.0 988.5669291338583 585.7742782152231" fill="none" stroke="none" stroke-linecap="square" stroke-miterlimit="10" xmlns:xlink="http://www.w3.org/1999/xlink" xmlns="http://www.w3.org/2000/svg"><clipPath id="p.0"><path d="m0 0l988.56696 0l0 585.7743l-988.56696 0l0 -585.7743z" clip-rule="nonzero"/></clipPath><g clip-path="url(#p.0)"><path fill="#000000" fill-opacity="0.0" d="m0 0l988.56696 0l0 585.7743l-988.56696 0z" fill-rule="evenodd"/><path fill="#434343" d="m-1.0254514 -2.1391077l990.92914 0l0 590.2992l-990.92914 0z" fill-rule="evenodd"/><path stroke="#000000" stroke-width="1.0" stroke-linejoin="round" stroke-linecap="butt" d="m-1.0254514 -2.1391077l990.92914 0l0 590.2992l-990.92914 0z" fill-rule="evenodd"/><path fill="#1155cc" d="m246.41718 176.04655c3.3974915 0 6.256363 1.3420258 8.576599 4.0260468c2.3202515 2.6840363 3.4803772 6.894287 3.4803772 12.630753c0 5.2101746 -1.1417236 9.087112 -3.4251251 11.630798c-2.2742157 2.5349274 -5.0410004 3.8023834 -8.3004 3.8023834c-3.2317657 0 -6.035385 -1.3288574 -8.410873 -3.9865723c-2.3754883 -2.65773 -3.5632324 -6.6706085 -3.5632324 -12.038681c0 -5.5522614 1.1094818 -9.617783 3.3284454 -12.196564c2.2281647 -2.5787659 4.9995728 -3.868164 8.314209 -3.868164zm11.435486 -20.880188l0 20.76178c-1.2982483 -1.7104187 -2.9831848 -3.096283 -5.054825 -4.1576233c-2.07164 -1.0700989 -4.433319 -1.6051483 -7.085022 -1.6051483c-3.6184845 0 -6.891678 0.90782166 -9.819611 2.7234955c-2.9279175 1.8156738 -5.123871 4.429535 -6.5878296 7.8415833c-1.4639587 3.4032898 -2.195938 7.1968994 -2.195938 11.380829c0 4.2891846 0.80563354 8.087189 2.416916 11.393982c1.6204834 3.2980194 3.899292 5.8680267 6.836426 7.710022c2.94635 1.84198 6.1735077 2.76297 9.681488 2.76297c5.41391 0 9.515762 -2.0788116 12.305588 -6.236435l0 5.2891235l6.919281 0l0 -57.86458z" fill-rule="evenodd"/><path fill="#1155cc" d="m277.03607 155.16637l0 8.170502l7.457947 0l0 -8.170502zm0 15.946304l0 41.918274l7.457947 0l0 -41.918274z" fill-rule="evenodd"/><path fill="#1155cc" d="m291.33044 171.11267l16.738892 41.918274l6.960724 0l16.656036 -41.918274l-7.6651 0l-9.778168 25.577255c-1.1877441 3.1050568 -2.1130676 5.7627716 -2.776001 7.97316c-0.8562622 -2.920868 -1.7954102 -5.7364655 -2.8174438 -8.446808l-9.446686 -25.103607z" fill-rule="evenodd"/><path fill="#e69138" d="m213.91951 164.37758l-58.18213 22.010925l0 9.019104l58.18213 22.279358l0 -9.60965l-46.138245 -17.125565l46.138245 -16.964523l0 -9.60965z" fill-rule="evenodd"/><path fill="#e69138" d="m821.43823 164.56393l0 9.60965l46.07831 16.964508l-46.07831 17.12558l0 9.60965l58.18213 -22.279358l0 -9.019104l-58.18213 -22.010925z" fill-rule="evenodd"/><path fill="#000000" fill-opacity="0.0" d="m440.7911 31.438604l153.76376 0l0 39.90551l-153.76376 0z" fill-rule="evenodd"/><path fill="#efefef" d="m454.22012 53.371727q0 -2.328125 0.703125 -3.90625q0.515625 -1.171875 1.421875 -2.09375q0.90625 -0.921875 1.96875 -1.375q1.4375 -0.609375 3.296875 -0.609375q3.375 0 5.390625 2.09375q2.03125 2.09375 2.03125 5.828125q0 3.6875 -2.015625 5.78125q-2.0 2.09375 -5.359375 2.09375q-3.40625 0 -5.421875 -2.078125q-2.015625 -2.078125 -2.015625 -5.734375zm3.1875 -0.09375q0 2.59375 1.1875 3.9375q1.203125 1.328125 3.046875 1.328125q1.84375 0 3.015625 -1.328125q1.1875 -1.328125 1.1875 -3.984375q0 -2.625 -1.15625 -3.90625q-1.140625 -1.296875 -3.046875 -1.296875q-1.90625 0 -3.078125 1.3125q-1.15625 1.296875 -1.15625 3.9375zm13.933441 -3.421875l2.71875 0l0 1.625q0.53125 -0.828125 1.4375 -1.34375q0.90625 -0.53125 2.015625 -0.53125q1.921875 0 3.265625 1.515625q1.34375 1.5 1.34375 4.203125q0 2.765625 -1.359375 4.3125q-1.34375 1.53125 -3.265625 1.53125q-0.921875 0 -1.671875 -0.359375q-0.734375 -0.375 -1.5625 -1.25l0 5.5625l-2.921875 0l0 -15.265625zm2.890625 5.34375q0 1.859375 0.734375 2.75q0.75 0.890625 1.8125 0.890625q1.015625 0 1.6875 -0.8125q0.6875 -0.8125 0.6875 -2.6875q0 -1.734375 -0.703125 -2.578125q-0.703125 -0.84375 -1.734375 -0.84375q-1.0625 0 -1.78125 0.828125q-0.703125 0.828125 -0.703125 2.453125zm16.621826 2.203125l2.90625 0.484375q-0.546875 1.609375 -1.765625 2.453125q-1.21875 0.828125 -3.03125 0.828125q-2.890625 0 -4.28125 -1.890625q-1.09375 -1.5 -1.09375 -3.8125q0 -2.75 1.4375 -4.296875q1.4375 -1.5625 3.640625 -1.5625q2.46875 0 3.890625 1.640625q1.421875 1.625 1.359375 4.984375l-7.328125 0q0.03125 1.296875 0.703125 2.03125q0.6875 0.71875 1.703125 0.71875q0.6875 0 1.15625 -0.375q0.46875 -0.375 0.703125 -1.203125zm0.171875 -2.96875q-0.03125 -1.265625 -0.65625 -1.921875q-0.625 -0.671875 -1.53125 -0.671875q-0.953125 0 -1.578125 0.703125q-0.625 0.703125 -0.609375 1.890625l4.375 0zm15.346069 6.484375l-2.921875 0l0 -5.640625q0 -1.796875 -0.1875 -2.3125q-0.1875 -0.53125 -0.609375 -0.828125q-0.421875 -0.296875 -1.015625 -0.296875q-0.765625 0 -1.375 0.421875q-0.59375 0.421875 -0.828125 1.109375q-0.21875 0.6875 -0.21875 2.53125l0 5.015625l-2.921875 0l0 -11.0625l2.71875 0l0 1.625q1.4375 -1.875 3.640625 -1.875q0.96875 0 1.765625 0.359375q0.8125 0.34375 1.21875 0.890625q0.40625 0.53125 0.5625 1.21875q0.171875 0.6875 0.171875 1.96875l0 6.875zm2.9655762 -12.5625l0 -2.703125l2.921875 0l0 2.703125l-2.921875 0zm0 12.5625l0 -11.0625l2.921875 0l0 11.0625l-2.921875 0zm15.988159 0l-2.921875 0l0 -5.640625q0 -1.796875 -0.1875 -2.3125q-0.1875 -0.53125 -0.609375 -0.828125q-0.421875 -0.296875 -1.015625 -0.296875q-0.765625 0 -1.375 0.421875q-0.59375 0.421875 -0.828125 1.109375q-0.21875 0.6875 -0.21875 2.53125l0 5.015625l-2.921875 0l0 -11.0625l2.71875 0l0 1.625q1.4375 -1.875 3.640625 -1.875q0.96875 0 1.765625 0.359375q0.8125 0.34375 1.21875 0.890625q0.40625 0.53125 0.5625 1.21875q0.171875 0.6875 0.171875 1.96875l0 6.875zm2.6999512 0.734375l3.34375 0.40625q0.078125 0.578125 0.375 0.796875q0.421875 0.3125 1.3125 0.3125q1.15625 0 1.71875 -0.34375q0.390625 -0.234375 0.59375 -0.734375q0.125 -0.375 0.125 -1.34375l0 -1.625q-1.3125 1.796875 -3.3125 1.796875q-2.21875 0 -3.53125 -1.890625q-1.015625 -1.484375 -1.015625 -3.703125q0 -2.78125 1.328125 -4.25q1.34375 -1.46875 3.34375 -1.46875q2.046875 0 3.375 1.796875l0 -1.546875l2.734375 0l0 9.921875q0 1.96875 -0.328125 2.9375q-0.3125 0.96875 -0.890625 1.515625q-0.578125 0.546875 -1.5625 0.859375q-0.96875 0.3125 -2.453125 0.3125q-2.8125 0 -4.0 -0.96875q-1.171875 -0.953125 -1.171875 -2.4375q0 -0.140625 0.015625 -0.34375zm2.609375 -6.5q0 1.765625 0.671875 2.59375q0.6875 0.8125 1.6875 0.8125q1.078125 0 1.8125 -0.84375q0.75 -0.84375 0.75 -2.484375q0 -1.71875 -0.71875 -2.546875q-0.703125 -0.84375 -1.78125 -0.84375q-1.0625 0 -1.75 0.828125q-0.671875 0.8125 -0.671875 2.484375zm20.06311 5.765625l0 -12.6875l-4.53125 0l0 -2.578125l12.140625 0l0 2.578125l-4.515625 0l0 12.6875l-3.09375 0zm10.179077 -7.6875l-2.65625 -0.484375q0.453125 -1.59375 1.546875 -2.359375q1.09375 -0.78125 3.25 -0.78125q1.953125 0 2.90625 0.46875q0.96875 0.453125 1.359375 1.171875q0.390625 0.71875 0.390625 2.625l-0.03125 3.40625q0 1.46875 0.125 2.15625q0.140625 0.6875 0.53125 1.484375l-2.890625 0q-0.109375 -0.296875 -0.28125 -0.859375q-0.078125 -0.265625 -0.109375 -0.34375q-0.75 0.71875 -1.609375 1.09375q-0.84375 0.359375 -1.8125 0.359375q-1.703125 0 -2.6875 -0.921875q-0.984375 -0.9375 -0.984375 -2.34375q0 -0.9375 0.4375 -1.671875q0.453125 -0.734375 1.25 -1.125q0.8125 -0.390625 2.34375 -0.6875q2.046875 -0.390625 2.84375 -0.71875l0 -0.296875q0 -0.84375 -0.421875 -1.203125q-0.421875 -0.359375 -1.578125 -0.359375q-0.78125 0 -1.21875 0.3125q-0.4375 0.3125 -0.703125 1.078125zm3.921875 2.375q-0.5625 0.1875 -1.78125 0.453125q-1.21875 0.25 -1.59375 0.5q-0.578125 0.40625 -0.578125 1.03125q0 0.625 0.453125 1.078125q0.46875 0.4375 1.171875 0.4375q0.796875 0 1.515625 -0.515625q0.53125 -0.40625 0.6875 -0.96875q0.125 -0.375 0.125 -1.4375l0 -0.578125zm5.4866943 6.046875l3.34375 0.40625q0.078125 0.578125 0.375 0.796875q0.421875 0.3125 1.3125 0.3125q1.15625 0 1.71875 -0.34375q0.390625 -0.234375 0.59375 -0.734375q0.125 -0.375 0.125 -1.34375l0 -1.625q-1.3125 1.796875 -3.3125 1.796875q-2.21875 0 -3.53125 -1.890625q-1.015625 -1.484375 -1.015625 -3.703125q0 -2.78125 1.328125 -4.25q1.34375 -1.46875 3.34375 -1.46875q2.046875 0 3.375 1.796875l0 -1.546875l2.734375 0l0 9.921875q0 1.96875 -0.328125 2.9375q-0.3125 0.96875 -0.890625 1.515625q-0.578125 0.546875 -1.5625 0.859375q-0.96875 0.3125 -2.453125 0.3125q-2.8125 0 -4.0 -0.96875q-1.171875 -0.953125 -1.171875 -2.4375q0 -0.140625 0.015625 -0.34375zm2.609375 -6.5q0 1.765625 0.671875 2.59375q0.6875 0.8125 1.6875 0.8125q1.078125 0 1.8125 -0.84375q0.75 -0.84375 0.75 -2.484375q0 -1.71875 -0.71875 -2.546875q-0.703125 -0.84375 -1.78125 -0.84375q-1.0625 0 -1.75 0.828125q-0.671875 0.8125 -0.671875 2.484375z" fill-rule="nonzero"/><path fill="#38761d" d="m378.1768 168.61148c-3.7842102 0 -7.2875977 0.8508301 -10.510162 2.5524597c-3.2133484 1.6928711 -5.607239 4.2365723 -7.1817017 7.631073c-1.5744629 3.394516 -2.3616638 7.354782 -2.3616638 11.880798c0 6.999527 1.8276367 12.376373 5.4829407 16.130508c3.6645203 3.7453613 8.507568 5.618042 14.529144 5.618042c4.8062134 0 8.857422 -1.3595581 12.153656 -4.0786743c3.30542 -2.72789 5.3586426 -6.4995728 6.1596985 -11.315033l-7.3336487 -0.9078369c-0.5248108 3.5523987 -1.7677917 6.183792 -3.7289429 7.894211c-1.9611816 1.7104187 -4.4057007 2.565628 -7.3336487 2.565628c-3.6460876 0 -6.6016235 -1.2762451 -8.866638 -3.8287048c-2.2649841 -2.5524597 -3.3974915 -6.644287 -3.3974915 -12.275497c0 -5.5522614 1.1739502 -9.609009 3.5217896 -12.170242c2.3478699 -2.5700073 5.4000854 -3.855011 9.156677 -3.855011c2.4859924 0 4.603668 0.71047974 6.353058 2.1314392c1.758606 1.4209595 2.9831543 3.5392303 3.673706 6.354843l7.250763 -1.0657196c-0.8562622 -4.236557 -2.8036194 -7.503891 -5.842041 -9.801987c-3.0384216 -2.3068695 -6.9468994 -3.4602966 -11.725494 -3.4602966z" fill-rule="evenodd"/><path fill="#38761d" d="m402.66364 153.61247l0 57.864594l7.4579163 0l0 -57.864594z" fill-rule="evenodd"/><path fill="#38761d" d="m449.77283 190.43898l0 2.6050873c0 3.1313782 -0.4005127 5.499649 -1.2015381 7.1047974c-1.0496521 2.0788116 -2.6931458 3.7190552 -4.9305115 4.9207306c-2.2373962 1.1929016 -4.7924194 1.7893524 -7.6651 1.7893524c-2.900299 0 -5.105438 -0.63153076 -6.615448 -1.8946075c-1.5007935 -1.2630768 -2.2511902 -2.841919 -2.2511902 -4.7365265c0 -1.2367706 0.34527588 -2.359497 1.0358276 -3.3682098c0.69055176 -1.0174713 1.6711121 -1.7893524 2.941742 -2.315628c1.2705994 -0.52627563 3.4389343 -0.99993896 6.504944 -1.4209595c5.41391 -0.73680115 9.474335 -1.6314697 12.181274 -2.6840363zm-9.488129 -21.8275c-3.7842102 0 -7.1126404 0.4955902 -9.985321 1.4867401c-2.8726807 0.98239136 -5.068634 2.3901978 -6.5878296 4.223404c-1.5192261 1.8244476 -2.6102905 4.223404 -3.2731934 7.1968994l7.2921753 0.94729614c0.8010254 -2.9734802 2.0348206 -5.043518 3.701355 -6.2101135c1.6757202 -1.175354 4.267578 -1.763031 7.7755737 -1.763031c3.7565613 0 6.5878296 0.8025665 8.493744 2.40773c1.4087219 1.1841278 2.1130676 3.223465 2.1130676 6.1180115c0 0.26313782 -0.013824463 0.88153076 -0.04144287 1.8551483c-2.8450623 0.94729614 -7.2783813 1.763031 -13.299957 2.4472046c-2.955536 0.3420868 -5.165283 0.69732666 -6.6292725 1.0657196c-1.9887695 0.52627563 -3.779602 1.302536 -5.372467 2.3287964c-1.5836487 1.0262451 -2.8680725 2.3901825 -3.853241 4.0918274c-0.97598267 1.6928711 -1.4639587 3.5655518 -1.4639587 5.618042c0 3.499771 1.2982178 6.37677 3.8946838 8.631012c2.596466 2.2454681 6.311615 3.3681946 11.145447 3.3681946c2.9279175 0 5.6671143 -0.460495 8.217529 -1.381485c2.5596313 -0.92099 5.2205505 -2.4998322 7.982727 -4.7365265c0.22097778 1.9735565 0.71817017 3.6971283 1.4916077 5.1707153l7.7893677 0c-0.93914795 -1.6051636 -1.5698242 -3.280487 -1.8920898 -5.0259857c-0.31304932 -1.7542725 -0.46957397 -5.9338226 -0.46957397 -12.5386505l0 -9.473053c0 -3.1576843 -0.124298096 -5.341751 -0.3728943 -6.5522003c-0.44195557 -1.9472351 -1.2153625 -3.556778 -2.3202515 -4.8286133c-1.1048584 -1.2806244 -2.8312378 -2.3419647 -5.1791077 -3.1840057c-2.3478699 -0.8420563 -5.4000854 -1.2630768 -9.156677 -1.2630768z" fill-rule="evenodd"/><path fill="#38761d" d="m483.3335 168.61148c-2.292633 0 -4.4425354 0.2850647 -6.4497375 0.85520935c-1.9979858 0.56137085 -3.5770264 1.2499084 -4.737152 2.0656586c-1.546814 1.0525513 -2.7713928 2.3770294 -3.673706 3.9734192c-0.89312744 1.587616 -1.3396606 3.315567 -1.3396606 5.1838684c0 2.0524902 0.5432129 3.9295654 1.6296692 5.631195c1.0956726 1.6928711 2.697754 3.0217285 4.806244 3.9865875c2.1176758 0.95606995 5.911072 2.0919647 11.3802185 3.407669c4.060425 0.97361755 6.601654 1.7761841 7.623657 2.40773c1.4639587 0.92099 2.1959534 2.1840668 2.1959534 3.789215c0 1.7893677 -0.8286743 3.3506622 -2.4859924 4.683899c-1.6573181 1.3244781 -4.198517 1.9867249 -7.623657 1.9867249c-3.3974915 0 -6.044586 -0.7499542 -7.941284 -2.2498627c-1.8875122 -1.4998932 -3.0384216 -3.6576538 -3.4527588 -6.4732513l-7.375061 1.1051941c0.8286743 4.4470673 2.7391968 7.802109 5.7315674 10.0651245c3.001587 2.2630005 7.3612366 3.3945007 13.0789795 3.3945007c3.4527588 0 6.546417 -0.5701294 9.280975 -1.7104034c2.734558 -1.1490479 4.824646 -2.7673645 6.270172 -4.85495c1.454773 -2.096344 2.182129 -4.328659 2.182129 -6.6969147c0 -2.4208984 -0.5938721 -4.4470825 -1.7816162 -6.0785522c-1.1877136 -1.6314697 -2.8266296 -2.8726196 -4.916687 -3.7234344c-2.0808716 -0.8595886 -5.759186 -1.9604034 -11.034973 -3.302414c-3.6460876 -0.9473114 -5.842041 -1.5525208 -6.5878296 -1.8156738c-1.2982178 -0.49995422 -2.2511902 -1.1315002 -2.8588562 -1.8946075c-0.60769653 -0.7367859 -0.91152954 -1.5656891 -0.91152954 -2.486679c0 -1.4472656 0.7319641 -2.7103424 2.1959229 -3.789215c1.4639893 -1.0788727 3.9085083 -1.6183167 7.3336487 -1.6183167c2.900299 0 5.142273 0.6052246 6.7259216 1.8156738c1.592865 1.210434 2.5550537 2.8945465 2.8865051 5.052292l7.2921753 -0.9473114c-0.46954346 -2.7103424 -1.3258362 -4.8724823 -2.5688171 -6.4864044c-1.242981 -1.6226959 -3.171936 -2.9076996 -5.786804 -3.855011c-2.6056824 -0.9473114 -5.6348877 -1.4209595 -9.087616 -1.4209595z" fill-rule="evenodd"/><path fill="#38761d" d="m525.7608 168.61148c-2.2926025 0 -4.442566 0.2850647 -6.449707 0.85520935c-1.9979858 0.56137085 -3.5770874 1.2499084 -4.7371826 2.0656586c-1.546814 1.0525513 -2.7713928 2.3770294 -3.6737366 3.9734192c-0.8930969 1.587616 -1.3396606 3.315567 -1.3396606 5.1838684c0 2.0524902 0.5432434 3.9295654 1.6296997 5.631195c1.0956726 1.6928711 2.6977234 3.0217285 4.806244 3.9865875c2.1176758 0.95606995 5.911072 2.0919647 11.380188 3.407669c4.060425 0.97361755 6.6016846 1.7761841 7.623657 2.40773c1.4639893 0.92099 2.195984 2.1840668 2.195984 3.789215c0 1.7893677 -0.8286743 3.3506622 -2.485962 4.683899c-1.6573486 1.3244781 -4.1985474 1.9867249 -7.623657 1.9867249c-3.397522 0 -6.0446167 -0.7499542 -7.941345 -2.2498627c-1.8875122 -1.4998932 -3.038391 -3.6576538 -3.4527588 -6.4732513l-7.3750305 1.1051941c0.8286743 4.4470673 2.7391663 7.802109 5.731537 10.0651245c3.001587 2.2630005 7.361267 3.3945007 13.0789795 3.3945007c3.4527588 0 6.5464478 -0.5701294 9.281006 -1.7104034c2.734558 -1.1490479 4.824646 -2.7673645 6.2701416 -4.85495c1.454773 -2.096344 2.18219 -4.328659 2.18219 -6.6969147c0 -2.4208984 -0.5938721 -4.4470825 -1.7816162 -6.0785522c-1.1877441 -1.6314697 -2.8266602 -2.8726196 -4.916748 -3.7234344c-2.0808105 -0.8595886 -5.7591553 -1.9604034 -11.034973 -3.302414c-3.6460571 -0.9473114 -5.842041 -1.5525208 -6.5878296 -1.8156738c-1.2982178 -0.49995422 -2.2511597 -1.1315002 -2.8588257 -1.8946075c-0.60772705 -0.7367859 -0.91156006 -1.5656891 -0.91156006 -2.486679c0 -1.4472656 0.7319946 -2.7103424 2.195984 -3.789215c1.4639282 -1.0788727 3.9085083 -1.6183167 7.333618 -1.6183167c2.9002686 0 5.142273 0.6052246 6.725952 1.8156738c1.5928345 1.210434 2.5549927 2.8945465 2.8864746 5.052292l7.2921753 -0.9473114c-0.46954346 -2.7103424 -1.3258667 -4.8724823 -2.5688477 -6.4864044c-1.242981 -1.6226959 -3.171875 -2.9076996 -5.786804 -3.855011c-2.6056519 -0.9473114 -5.6348267 -1.4209595 -9.087585 -1.4209595z" fill-rule="evenodd"/><path fill="#000000" fill-opacity="0.0" d="m155.73836 138.35599l0 -63.93342l723.8675 0l0 76.10993" fill-rule="evenodd"/><path stroke="#ff0000" stroke-width="2.0" stroke-linejoin="round" stroke-linecap="butt" d="m155.73836 138.35599l0 -63.93342l723.8675 0l0 76.10993" fill-rule="evenodd"/><path fill="#000000" fill-opacity="0.0" d="m356.7148 151.47826l0 -24.701355l186.75693 0l0 27.55127" fill-rule="evenodd"/><path stroke="#ff0000" stroke-width="2.0" stroke-linejoin="round" stroke-linecap="butt" d="m356.7148 151.47826l0 -24.701355l186.75693 0l0 27.55127" fill-rule="evenodd"/><path fill="#999999" d="m654.1893 192.67998l0 2.6050873c0 3.1313782 -0.4005127 5.499649 -1.2015991 7.1047974c-1.0496216 2.0788116 -2.6931152 3.7190552 -4.930481 4.9207306c-2.2373657 1.1929016 -4.7924194 1.7893524 -7.6651 1.7893524c-2.9003296 0 -5.1054688 -0.63153076 -6.6154785 -1.8946075c-1.5007324 -1.2630768 -2.2511597 -2.841919 -2.2511597 -4.7365265c0 -1.2367706 0.34527588 -2.359497 1.0358276 -3.3682098c0.69055176 -1.0174713 1.6711426 -1.7893524 2.9417114 -2.315628c1.2706299 -0.52627563 3.4389648 -0.99993896 6.505005 -1.4209595c5.4138794 -0.7367859 9.474304 -1.6314697 12.181274 -2.6840363zm-9.488159 -21.8275c-3.7841797 0 -7.112671 0.4955902 -9.985352 1.4867401c-2.8726807 0.98239136 -5.0686035 2.3901978 -6.5878296 4.223404c-1.519165 1.8244476 -2.6102295 4.223404 -3.2731934 7.1968994l7.2922363 0.94729614c0.8010254 -2.9734802 2.03479 -5.043518 3.701294 -6.2101135c1.6757202 -1.175354 4.267578 -1.763031 7.7755737 -1.763031c3.7565918 0 6.5878296 0.8025818 8.493774 2.40773c1.4086914 1.1841278 2.1130981 3.223465 2.1130981 6.1180115c0 0.26315308 -0.0138549805 0.88153076 -0.04144287 1.8551483c-2.8450928 0.94729614 -7.2783813 1.763031 -13.299988 2.4472046c-2.9555664 0.3420868 -5.165283 0.69732666 -6.6292725 1.0657196c-1.9887695 0.52627563 -3.779602 1.302536 -5.3724365 2.3287964c-1.5836792 1.0262451 -2.868103 2.3901825 -3.8532715 4.0918274c-0.97595215 1.6928711 -1.4639893 3.5655518 -1.4639893 5.6180573c0 3.4997559 1.2982788 6.3767548 3.8947144 8.630997c2.5964355 2.2454681 6.3115845 3.3681946 11.145447 3.3681946c2.9279175 0 5.6671143 -0.460495 8.217529 -1.381485c2.5596313 -0.92099 5.22052 -2.4998322 7.982727 -4.7365265c0.2210083 1.9735565 0.7182007 3.6971283 1.4915771 5.1707153l7.7894287 0c-0.93914795 -1.6051636 -1.5698853 -3.280487 -1.8921509 -5.0259857c-0.31304932 -1.7542725 -0.46954346 -5.9338226 -0.46954346 -12.538635l0 -9.473068c0 -3.1576843 -0.12432861 -5.341751 -0.3729248 -6.5522003c-0.44189453 -1.9472351 -1.215332 -3.556778 -2.3201904 -4.8286133c-1.1049194 -1.2806244 -2.8312988 -2.3419495 -5.179138 -3.1840057c-2.3478394 -0.8420563 -5.4000854 -1.2630768 -9.156677 -1.2630768z" fill-rule="evenodd"/><path fill="#999999" d="m673.1241 155.85347l0 57.864594l7.457947 0l0 -57.864594z" fill-rule="evenodd"/><path fill="#999999" d="m710.2894 176.6942c3.7841797 0 6.8640137 1.3683319 9.239502 4.1049957c1.546875 1.763031 2.485962 4.407593 2.8174438 7.9336853l-24.569702 0c0.24859619 -3.6576538 1.5375977 -6.5785217 3.8670654 -8.7625885c2.338684 -2.1840668 5.22052 -3.2760925 8.645691 -3.2760925zm-0.08288574 -5.8417206c-6.0768433 0 -11.021179 1.9472351 -14.833008 5.8417206c-3.8118286 3.8944855 -5.7177124 9.367798 -5.7177124 16.419968c0 6.815338 1.8828735 12.11322 5.6486816 15.893677c3.7750244 3.7716827 8.880432 5.6575165 15.316345 5.6575165c5.1101074 0 9.308594 -1.1841278 12.595642 -3.5523834c3.2869873 -2.3682709 5.538208 -5.696991 6.75354 -9.986191l-7.706543 -0.9078369c-1.1324463 2.9998016 -2.6654663 5.1838684 -4.598999 6.5522003c-1.9335327 1.3683319 -4.267639 2.0525055 -7.0021973 2.0525055c-3.673706 0 -6.739746 -1.2236023 -9.19812 -3.6708221c-2.458313 -2.4472046 -3.8256226 -5.973282 -4.1018066 -10.578247l32.81482 0c0.027648926 -0.842041 0.04144287 -1.4735718 0.04144287 -1.8946075c0 -6.9205933 -1.8644409 -12.2886505 -5.593445 -16.104187c-3.7289429 -3.8155365 -8.535156 -5.7233124 -14.41864 -5.7233124z" fill-rule="evenodd"/><path fill="#999999" d="m755.49274 170.85248c-1.7402344 0 -3.3377075 0.47364807 -4.7924194 1.4209595c-1.4455566 0.9473114 -3.0245972 2.9076996 -4.7371826 5.881195l0 -6.354843l-6.712097 0l0 41.918274l7.4578857 0l0 -21.945923c0 -2.9998016 0.41436768 -5.7627716 1.242981 -8.288925c0.5524292 -1.6577759 1.4777832 -2.9515533 2.776001 -3.8813171c1.2982788 -0.9385376 2.762207 -1.4078064 4.3919067 -1.4078064c1.8230591 0 3.6461182 0.5131378 5.4691772 1.5393829l2.5687866 -6.591675c-2.5964355 -1.5262146 -5.1514893 -2.289322 -7.665039 -2.289322zm20.882141 -13.696457l-7.416443 4.2628784l0 10.38089l-5.4691772 0l0 5.52594l5.4691772 0l0 24.116821c0 4.2628784 0.303833 7.0609436 0.911499 8.394196c0.607666 1.3244629 1.6572876 2.394577 3.1489258 3.210312c1.4915771 0.81573486 3.5908203 1.2236023 6.2977905 1.2236023c1.6572876 0 3.5355835 -0.21051025 5.6348877 -0.631546l-1.0772705 -6.275894c-1.3535156 0.1842041 -2.44458 0.2762909 -3.2731934 0.2762909c-1.1049194 0 -1.956543 -0.17103577 -2.5550537 -0.51312256c-0.5892334 -0.34207153 -1.017395 -0.8025818 -1.2844238 -1.381485c-0.2578125 -0.5789032 -0.38671875 -1.8814545 -0.38671875 -3.9076385l0 -24.511536l7.4993896 0l0 -5.52594l-7.4993896 0l0 -14.643768z" fill-rule="evenodd"/><path fill="#e69138" d="m552.7562 181.71974l0 5.1139374l34.31372 0l0 -5.1139374zm0 13.545868l0 5.1139526l34.31372 0l0 -5.1139526z" fill-rule="evenodd"/><path fill="#e69138" d="m598.212 147.67569l0 11.001663l1.644043 12.789429l3.6168213 0l1.4796143 -12.789429l0 -11.001663zm10.91626 0l0 11.001663l1.611145 12.789429l3.5510864 0l1.5782471 -12.789429l0 -11.001663z" fill-rule="evenodd"/><path fill="#e69138" d="m792.68085 147.67569l0 11.001663l1.644043 12.789429l3.6168213 0l1.4796143 -12.789429l0 -11.001663zm10.91626 0l0 11.001663l1.611145 12.789429l3.5510864 0l1.5782471 -12.789429l0 -11.001663z" fill-rule="evenodd"/><path fill="#000000" fill-opacity="0.0" d="m625.01373 153.3782l0 -26.601303l161.3902 0l0 25.651337" fill-rule="evenodd"/><path stroke="#ff0000" stroke-width="2.0" stroke-linejoin="round" stroke-linecap="butt" d="m625.01373 153.3782l0 -26.601303l161.3902 0l0 25.651337" fill-rule="evenodd"/><path fill="#000000" fill-opacity="0.0" d="m384.28162 88.771935l153.7638 0l0 39.90551l-153.7638 0z" fill-rule="evenodd"/><path fill="#efefef" d="m408.59412 118.25194l-3.34375 0l-1.328125 -3.46875l-6.109375 0l-1.265625 3.46875l-3.265625 0l5.953125 -15.265625l3.25 0l6.109375 15.265625zm-5.671875 -6.046875l-2.09375 -5.65625l-2.0625 5.65625l4.15625 0zm12.371246 -5.015625l0 2.328125l-2.0 0l0 4.46875q0 1.34375 0.046875 1.578125q0.0625 0.21875 0.265625 0.375q0.203125 0.140625 0.5 0.140625q0.40625 0 1.171875 -0.28125l0.25 2.265625q-1.015625 0.4375 -2.3125 0.4375q-0.796875 0 -1.4375 -0.265625q-0.625 -0.265625 -0.921875 -0.6875q-0.296875 -0.421875 -0.40625 -1.140625q-0.09375 -0.515625 -0.09375 -2.0625l0 -4.828125l-1.34375 0l0 -2.328125l1.34375 0l0 -2.1875l2.9375 -1.71875l0 3.90625l2.0 0zm7.1024475 0l0 2.328125l-2.0 0l0 4.46875q0 1.34375 0.046875 1.578125q0.0625 0.21875 0.265625 0.375q0.203125 0.140625 0.5 0.140625q0.40625 0 1.171875 -0.28125l0.25 2.265625q-1.015625 0.4375 -2.3125 0.4375q-0.796875 0 -1.4375 -0.265625q-0.625 -0.265625 -0.921875 -0.6875q-0.296875 -0.421875 -0.40625 -1.140625q-0.09375 -0.515625 -0.09375 -2.0625l0 -4.828125l-1.34375 0l0 -2.328125l1.34375 0l0 -2.1875l2.9375 -1.71875l0 3.90625l2.0 0zm4.821167 11.0625l-2.921875 0l0 -11.0625l2.71875 0l0 1.578125q0.703125 -1.125 1.25 -1.46875q0.5625 -0.359375 1.265625 -0.359375q1.0 0 1.9375 0.5625l-0.90625 2.546875q-0.75 -0.484375 -1.375 -0.484375q-0.625 0 -1.046875 0.34375q-0.421875 0.328125 -0.671875 1.21875q-0.25 0.890625 -0.25 3.703125l0 3.421875zm5.5032043 -12.5625l0 -2.703125l2.921875 0l0 2.703125l-2.921875 0zm0 12.5625l0 -11.0625l2.921875 0l0 11.0625l-2.921875 0zm5.8006287 0l0 -15.265625l2.921875 0l0 5.5q1.359375 -1.546875 3.21875 -1.546875q2.015625 0 3.328125 1.46875q1.328125 1.453125 1.328125 4.203125q0 2.828125 -1.34375 4.359375q-1.34375 1.53125 -3.28125 1.53125q-0.9375 0 -1.859375 -0.46875q-0.921875 -0.484375 -1.59375 -1.40625l0 1.625l-2.71875 0zm2.90625 -5.765625q0 1.71875 0.546875 2.53125q0.75 1.171875 2.015625 1.171875q0.96875 0 1.640625 -0.828125q0.6875 -0.828125 0.6875 -2.609375q0 -1.890625 -0.6875 -2.734375q-0.6875 -0.84375 -1.75 -0.84375q-1.0625 0 -1.765625 0.828125q-0.6875 0.8125 -0.6875 2.484375zm17.528076 5.765625l0 -1.65625q-0.609375 0.890625 -1.59375 1.40625q-0.984375 0.5 -2.078125 0.5q-1.109375 0 -2.0 -0.484375q-0.875 -0.5 -1.28125 -1.375q-0.390625 -0.890625 -0.390625 -2.453125l0 -7.0l2.921875 0l0 5.078125q0 2.34375 0.15625 2.875q0.171875 0.515625 0.59375 0.828125q0.4375 0.296875 1.09375 0.296875q0.75 0 1.34375 -0.40625q0.59375 -0.40625 0.8125 -1.015625q0.21875 -0.609375 0.21875 -2.984375l0 -4.671875l2.921875 0l0 11.0625l-2.71875 0zm10.824951 -11.0625l0 2.328125l-2.0 0l0 4.46875q0 1.34375 0.046875 1.578125q0.0625 0.21875 0.265625 0.375q0.203125 0.140625 0.5 0.140625q0.40625 0 1.171875 -0.28125l0.25 2.265625q-1.015625 0.4375 -2.3125 0.4375q-0.796875 0 -1.4375 -0.265625q-0.625 -0.265625 -0.921875 -0.6875q-0.296875 -0.421875 -0.40625 -1.140625q-0.09375 -0.515625 -0.09375 -2.0625l0 -4.828125l-1.34375 0l0 -2.328125l1.34375 0l0 -2.1875l2.9375 -1.71875l0 3.90625l2.0 0zm8.4305725 7.546875l2.90625 0.484375q-0.546875 1.609375 -1.765625 2.453125q-1.21875 0.828125 -3.03125 0.828125q-2.890625 0 -4.28125 -1.890625q-1.09375 -1.5 -1.09375 -3.8125q0 -2.75 1.4375 -4.296875q1.4375 -1.5625 3.640625 -1.5625q2.46875 0 3.890625 1.640625q1.421875 1.625 1.359375 4.984375l-7.328125 0q0.03125 1.296875 0.703125 2.03125q0.6875 0.71875 1.703125 0.71875q0.6875 0 1.15625 -0.375q0.46875 -0.375 0.703125 -1.203125zm0.171875 -2.96875q-0.03125 -1.265625 -0.65625 -1.921875q-0.625 -0.671875 -1.53125 -0.671875q-0.953125 0 -1.578125 0.703125q-0.625 0.703125 -0.609375 1.890625l4.375 0z" fill-rule="nonzero"/><path fill="#000000" fill-opacity="0.0" d="m681.49567 88.771935l153.76373 0l0 39.90551l-153.76373 0z" fill-rule="evenodd"/><path fill="#efefef" d="m695.9488 118.25194l-5.46875 -15.265625l3.34375 0l3.875 11.296875l3.734375 -11.296875l3.265625 0l-5.46875 15.265625l-3.28125 0zm11.314209 -7.6875l-2.65625 -0.484375q0.453125 -1.59375 1.546875 -2.359375q1.09375 -0.78125 3.25 -0.78125q1.953125 0 2.90625 0.46875q0.96875 0.453125 1.359375 1.171875q0.390625 0.71875 0.390625 2.625l-0.03125 3.40625q0 1.46875 0.125 2.15625q0.140625 0.6875 0.53125 1.484375l-2.890625 0q-0.109375 -0.296875 -0.28125 -0.859375q-0.078125 -0.265625 -0.109375 -0.34375q-0.75 0.71875 -1.609375 1.09375q-0.84375 0.359375 -1.8125 0.359375q-1.703125 0 -2.6875 -0.921875q-0.984375 -0.9375 -0.984375 -2.34375q0 -0.9375 0.4375 -1.671875q0.453125 -0.734375 1.25 -1.125q0.8125 -0.390625 2.34375 -0.6875q2.046875 -0.390625 2.84375 -0.71875l0 -0.296875q0 -0.84375 -0.421875 -1.203125q-0.421875 -0.359375 -1.578125 -0.359375q-0.78125 0 -1.21875 0.3125q-0.4375 0.3125 -0.703125 1.078125zm3.921875 2.375q-0.5625 0.1875 -1.78125 0.453125q-1.21875 0.25 -1.59375 0.5q-0.578125 0.40625 -0.578125 1.03125q0 0.625 0.453125 1.078125q0.46875 0.4375 1.171875 0.4375q0.796875 0 1.515625 -0.515625q0.53125 -0.40625 0.6875 -0.96875q0.125 -0.375 0.125 -1.4375l0 -0.578125zm5.7523193 5.3125l0 -15.265625l2.921875 0l0 15.265625l-2.921875 0zm13.206909 0l0 -1.65625q-0.609375 0.890625 -1.59375 1.40625q-0.984375 0.5 -2.078125 0.5q-1.109375 0 -2.0 -0.484375q-0.875 -0.5 -1.28125 -1.375q-0.390625 -0.890625 -0.390625 -2.453125l0 -7.0l2.921875 0l0 5.078125q0 2.34375 0.15625 2.875q0.171875 0.515625 0.59375 0.828125q0.4375 0.296875 1.09375 0.296875q0.75 0 1.34375 -0.40625q0.59375 -0.40625 0.8125 -1.015625q0.21875 -0.609375 0.21875 -2.984375l0 -4.671875l2.921875 0l0 11.0625l-2.71875 0zm12.153076 -3.515625l2.90625 0.484375q-0.546875 1.609375 -1.765625 2.453125q-1.21875 0.828125 -3.03125 0.828125q-2.890625 0 -4.28125 -1.890625q-1.09375 -1.5 -1.09375 -3.8125q0 -2.75 1.4375 -4.296875q1.4375 -1.5625 3.640625 -1.5625q2.46875 0 3.890625 1.640625q1.421875 1.625 1.359375 4.984375l-7.328125 0q0.03125 1.296875 0.703125 2.03125q0.6875 0.71875 1.703125 0.71875q0.6875 0 1.15625 -0.375q0.46875 -0.375 0.703125 -1.203125zm0.171875 -2.96875q-0.03125 -1.265625 -0.65625 -1.921875q-0.625 -0.671875 -1.53125 -0.671875q-0.953125 0 -1.578125 0.703125q-0.625 0.703125 -0.609375 1.890625l4.375 0z" fill-rule="nonzero"/><path fill="#000000" fill-opacity="0.0" d="m155.73833 253.77437l768.126 0l0 143.43306l-768.126 0z" fill-rule="evenodd"/><path fill="#d9d9d9" d="m167.08208 300.74124l4.640625 -0.40625q0.328125 2.78125 1.53125 4.578125q1.203125 1.78125 3.734375 2.890625q2.546875 1.109375 5.734375 1.109375q2.8125 0 4.96875 -0.828125q2.15625 -0.84375 3.203125 -2.296875q1.0625 -1.46875 1.0625 -3.203125q0 -1.75 -1.015625 -3.046875q-1.015625 -1.3125 -3.34375 -2.203125q-1.5 -0.59375 -6.640625 -1.8125q-5.125 -1.234375 -7.171875 -2.328125q-2.671875 -1.390625 -3.984375 -3.453125q-1.296875 -2.078125 -1.296875 -4.640625q0 -2.828125 1.59375 -5.265625q1.59375 -2.453125 4.671875 -3.71875q3.078125 -1.28125 6.828125 -1.28125q4.140625 0 7.296875 1.34375q3.171875 1.328125 4.859375 3.921875q1.703125 2.578125 1.828125 5.859375l-4.71875 0.359375q-0.375 -3.53125 -2.578125 -5.328125q-2.1875 -1.8125 -6.484375 -1.8125q-4.46875 0 -6.515625 1.640625q-2.046875 1.640625 -2.046875 3.9375q0 2.015625 1.453125 3.3125q1.421875 1.296875 7.421875 2.65625q6.015625 1.34375 8.25 2.359375q3.25 1.5 4.796875 3.796875q1.546875 2.296875 1.546875 5.296875q0 2.96875 -1.703125 5.609375q-1.703125 2.625 -4.890625 4.09375q-3.1875 1.453125 -7.171875 1.453125q-5.046875 0 -8.46875 -1.46875q-3.40625 -1.484375 -5.359375 -4.4375q-1.9375 -2.96875 -2.03125 -6.6875zm46.996094 11.953125l-14.421875 -37.21875l5.328125 0l9.671875 27.03125q1.171875 3.25 1.953125 6.09375q0.859375 -3.046875 2.015625 -6.09375l10.046875 -27.03125l5.03125 0l-14.578125 37.21875l-5.046875 0zm41.464844 -14.59375l0 -4.375l15.76564 -0.03125l0 13.8125q-3.640625 2.90625 -7.5 4.375q-3.859375 1.453125 -7.9218903 1.453125q-5.484375 0 -9.96875 -2.34375q-4.46875 -2.359375 -6.765625 -6.796875q-2.28125 -4.453125 -2.28125 -9.9375q0 -5.4375 2.265625 -10.140625q2.28125 -4.703125 6.546875 -6.984375q4.265625 -2.296875 9.828125 -2.296875q4.0312653 0 7.2968903 1.3125q3.265625 1.296875 5.109375 3.640625q1.859375 2.328125 2.828125 6.09375l-4.4375 1.21875q-0.84375 -2.84375 -2.09375 -4.46875q-1.234375 -1.625 -3.546875 -2.59375q-2.3125 -0.984375 -5.1250153 -0.984375q-3.390625 0 -5.859375 1.03125q-2.453125 1.015625 -3.96875 2.703125q-1.5 1.671875 -2.34375 3.671875q-1.421875 3.453125 -1.421875 7.5q0 4.96875 1.71875 8.328125q1.71875 3.34375 4.984375 4.96875q3.28125 1.625 6.953125 1.625q3.2031403 0 6.2500153 -1.21875q3.046875 -1.234375 4.625 -2.640625l0 -6.921875l-10.937515 0zm38.300797 14.59375l0 -37.21875l4.9375 0l0 37.21875l-4.9375 0zm13.025391 0l0 -26.96875l4.09375 0l0 3.78125q1.265625 -1.96875 3.375 -3.171875q2.109375 -1.21875 4.796875 -1.21875q3.0 0 4.90625 1.25q1.921875 1.234375 2.71875 3.46875q3.203125 -4.71875 8.328125 -4.71875q4.015625 0 6.171875 2.234375q2.15625 2.21875 2.15625 6.828125l0 18.515625l-4.546875 0l0 -16.984375q0 -2.75 -0.453125 -3.953125q-0.4375 -1.203125 -1.609375 -1.9375q-1.15625 -0.734375 -2.734375 -0.734375q-2.84375 0 -4.734375 1.890625q-1.875 1.890625 -1.875 6.046875l0 15.671875l-4.5625 0l0 -17.515625q0 -3.046875 -1.125 -4.5625q-1.109375 -1.53125 -3.65625 -1.53125q-1.921875 0 -3.5625 1.015625q-1.640625 1.015625 -2.375 2.96875q-0.734375 1.953125 -0.734375 5.640625l0 13.984375l-4.578125 0zm60.92578 -3.328125q-2.546875 2.15625 -4.90625 3.046875q-2.34375 0.890625 -5.03125 0.890625q-4.4375 0 -6.828125 -2.171875q-2.390625 -2.171875 -2.390625 -5.546875q0 -1.984375 0.90625 -3.609375q0.90625 -1.640625 2.359375 -2.625q1.46875 -1.0 3.296875 -1.515625q1.34375 -0.34375 4.0625 -0.6875q5.53125 -0.65625 8.140625 -1.5625q0.03125 -0.9375 0.03125 -1.203125q0 -2.78125 -1.296875 -3.9375q-1.75 -1.546875 -5.203125 -1.546875q-3.234375 0 -4.765625 1.140625q-1.53125 1.125 -2.265625 4.0l-4.46875 -0.609375q0.609375 -2.875 2.0 -4.640625q1.390625 -1.765625 4.03125 -2.71875q2.640625 -0.953125 6.125 -0.953125q3.453125 0 5.609375 0.8125q2.15625 0.8125 3.171875 2.046875q1.015625 1.234375 1.421875 3.109375q0.234375 1.171875 0.234375 4.21875l0 6.09375q0 6.375 0.28125 8.0625q0.296875 1.6875 1.171875 3.234375l-4.78125 0q-0.703125 -1.421875 -0.90625 -3.328125zm-0.390625 -10.203125q-2.484375 1.015625 -7.46875 1.71875q-2.8125 0.40625 -3.984375 0.921875q-1.15625 0.5 -1.796875 1.484375q-0.640625 0.96875 -0.640625 2.171875q0 1.828125 1.375 3.046875q1.390625 1.21875 4.0625 1.21875q2.640625 0 4.6875 -1.15625q2.0625 -1.15625 3.03125 -3.15625q0.734375 -1.5625 0.734375 -4.578125l0 -1.671875zm10.873047 15.765625l4.4375 0.65625q0.28125 2.0625 1.546875 3.0q1.703125 1.265625 4.65625 1.265625q3.171875 0 4.890625 -1.265625q1.734375 -1.265625 2.34375 -3.546875q0.359375 -1.40625 0.328125 -5.875q-3.0 3.53125 -7.46875 3.53125q-5.5625 0 -8.609375 -4.015625q-3.046875 -4.015625 -3.046875 -9.625q0 -3.859375 1.390625 -7.109375q1.40625 -3.265625 4.0625 -5.046875q2.65625 -1.78125 6.234375 -1.78125q4.765625 0 7.875 3.859375l0 -3.25l4.203125 0l0 23.3125q0 6.296875 -1.28125 8.921875q-1.28125 2.625 -4.0625 4.140625q-2.78125 1.53125 -6.84375 1.53125q-4.8125 0 -7.796875 -2.171875q-2.96875 -2.15625 -2.859375 -6.53125zm3.78125 -16.203125q0 5.3125 2.109375 7.75q2.109375 2.4375 5.28125 2.4375q3.140625 0 5.265625 -2.421875q2.140625 -2.4375 2.140625 -7.609375q0 -4.953125 -2.203125 -7.46875q-2.1875 -2.515625 -5.28125 -2.515625q-3.046875 0 -5.1875 2.484375q-2.125 2.46875 -2.125 7.34375zm44.435547 5.28125l4.71875 0.59375q-1.109375 4.125 -4.140625 6.421875q-3.015625 2.28125 -7.71875 2.28125q-5.90625 0 -9.375 -3.640625q-3.46875 -3.640625 -3.46875 -10.21875q0 -6.8125 3.5 -10.5625q3.5 -3.765625 9.09375 -3.765625q5.40625 0 8.828125 3.6875q3.4375 3.671875 3.4375 10.359375q0 0.40625 -0.03125 1.21875l-20.109375 0q0.25 4.4375 2.515625 6.796875q2.265625 2.359375 5.640625 2.359375q2.515625 0 4.28125 -1.3125q1.78125 -1.328125 2.828125 -4.21875zm-15.015625 -7.390625l15.0625 0q-0.296875 -3.390625 -1.71875 -5.09375q-2.1875 -2.640625 -5.671875 -2.640625q-3.140625 0 -5.296875 2.109375q-2.140625 2.09375 -2.375 5.625zm23.638672 8.03125l4.53125 -0.71875q0.375 2.71875 2.109375 4.171875q1.75 1.4375 4.875 1.4375q3.140625 0 4.65625 -1.28125q1.53125 -1.28125 1.53125 -3.0q0 -1.546875 -1.34375 -2.4375q-0.9375 -0.609375 -4.671875 -1.546875q-5.03125 -1.28125 -6.96875 -2.203125q-1.9375 -0.921875 -2.953125 -2.5625q-1.0 -1.640625 -1.0 -3.625q0 -1.796875 0.828125 -3.328125q0.828125 -1.546875 2.25 -2.5625q1.0625 -0.78125 2.90625 -1.328125q1.84375 -0.546875 3.953125 -0.546875q3.171875 0 5.5625 0.921875q2.40625 0.90625 3.546875 2.46875q1.140625 1.5625 1.578125 4.171875l-4.46875 0.609375q-0.3125 -2.078125 -1.78125 -3.234375q-1.453125 -1.171875 -4.109375 -1.171875q-3.15625 0 -4.5 1.046875q-1.34375 1.03125 -1.34375 2.421875q0 0.890625 0.5625 1.609375q0.546875 0.734375 1.75 1.21875q0.6875 0.25 4.03125 1.15625q4.859375 1.296875 6.765625 2.125q1.921875 0.828125 3.015625 2.40625q1.09375 1.5625 1.09375 3.90625q0 2.28125 -1.34375 4.3125q-1.328125 2.015625 -3.84375 3.125q-2.515625 1.09375 -5.6875 1.09375q-5.25 0 -8.015625 -2.1875q-2.75 -2.1875 -3.515625 -6.46875zm42.18164 8.046875l0 -37.21875l4.5625 0l0 37.21875l-4.5625 0zm9.958984 -13.484375q0 -7.484375 4.15625 -11.09375q3.484375 -3.0 8.484375 -3.0q5.5625 0 9.078125 3.65625q3.53125 3.640625 3.53125 10.0625q0 5.203125 -1.5625 8.1875q-1.546875 2.984375 -4.53125 4.640625q-2.984375 1.640625 -6.515625 1.640625q-5.671875 0 -9.15625 -3.625q-3.484375 -3.640625 -3.484375 -10.46875zm4.6875 0q0 5.1875 2.25 7.765625q2.265625 2.5625 5.703125 2.5625q3.40625 0 5.65625 -2.578125q2.265625 -2.59375 2.265625 -7.90625q0 -5.0 -2.28125 -7.578125q-2.265625 -2.578125 -5.640625 -2.578125q-3.4375 0 -5.703125 2.578125q-2.25 2.5625 -2.25 7.734375zm43.529297 10.15625q-2.546875 2.15625 -4.90625 3.046875q-2.34375 0.890625 -5.03125 0.890625q-4.4375 0 -6.828125 -2.171875q-2.390625 -2.171875 -2.390625 -5.546875q0 -1.984375 0.90625 -3.609375q0.90625 -1.640625 2.359375 -2.625q1.46875 -1.0 3.296875 -1.515625q1.34375 -0.34375 4.0625 -0.6875q5.53125 -0.65625 8.140625 -1.5625q0.03125 -0.9375 0.03125 -1.203125q0 -2.78125 -1.296875 -3.9375q-1.75 -1.546875 -5.203125 -1.546875q-3.234375 0 -4.765625 1.140625q-1.53125 1.125 -2.265625 4.0l-4.46875 -0.609375q0.609375 -2.875 2.0 -4.640625q1.390625 -1.765625 4.03125 -2.71875q2.640625 -0.953125 6.125 -0.953125q3.453125 0 5.609375 0.8125q2.15625 0.8125 3.171875 2.046875q1.015625 1.234375 1.421875 3.109375q0.234375 1.171875 0.234375 4.21875l0 6.09375q0 6.375 0.28125 8.0625q0.296875 1.6875 1.171875 3.234375l-4.78125 0q-0.703125 -1.421875 -0.90625 -3.328125zm-0.390625 -10.203125q-2.484375 1.015625 -7.46875 1.71875q-2.8125 0.40625 -3.984375 0.921875q-1.15625 0.5 -1.796875 1.484375q-0.640625 0.96875 -0.640625 2.171875q0 1.828125 1.375 3.046875q1.390625 1.21875 4.0625 1.21875q2.640625 0 4.6875 -1.15625q2.0625 -1.15625 3.03125 -3.15625q0.734375 -1.5625 0.734375 -4.578125l0 -1.671875zm29.201172 13.53125l0 -3.40625q-2.5625 4.015625 -7.546875 4.015625q-3.21875 0 -5.921875 -1.78125q-2.703125 -1.78125 -4.1875 -4.953125q-1.484375 -3.1875 -1.484375 -7.328125q0 -4.046875 1.34375 -7.328125q1.34375 -3.296875 4.03125 -5.046875q2.703125 -1.75 6.015625 -1.75q2.4375 0 4.34375 1.03125q1.90625 1.03125 3.109375 2.671875l0 -13.34375l4.53125 0l0 37.21875l-4.234375 0zm-14.453125 -13.453125q0 5.171875 2.1875 7.734375q2.1875 2.5625 5.15625 2.5625q3.0 0 5.09375 -2.4375q2.09375 -2.453125 2.09375 -7.484375q0 -5.53125 -2.140625 -8.125q-2.125 -2.59375 -5.25 -2.59375q-3.046875 0 -5.09375 2.5q-2.046875 2.484375 -2.046875 7.84375zm41.414062 13.453125l0 -23.40625l-4.03125 0l0 -3.5625l4.03125 0l0 -2.859375q0 -2.71875 0.484375 -4.046875q0.65625 -1.78125 2.3125 -2.875q1.671875 -1.109375 4.671875 -1.109375q1.9375 0 4.265625 0.453125l-0.6875 3.984375q-1.421875 -0.25 -2.6875 -0.25q-2.078125 0 -2.953125 0.890625q-0.859375 0.890625 -0.859375 3.328125l0 2.484375l5.265625 0l0 3.5625l-5.265625 0l0 23.40625l-4.546875 0zm30.96289 -3.328125q-2.546875 2.15625 -4.90625 3.046875q-2.34375 0.890625 -5.03125 0.890625q-4.4375 0 -6.828125 -2.171875q-2.390625 -2.171875 -2.390625 -5.546875q0 -1.984375 0.90625 -3.609375q0.90625 -1.640625 2.359375 -2.625q1.46875 -1.0 3.296875 -1.515625q1.34375 -0.34375 4.0625 -0.6875q5.53125 -0.65625 8.140625 -1.5625q0.03125 -0.9375 0.03125 -1.203125q0 -2.78125 -1.296875 -3.9375q-1.75 -1.546875 -5.203125 -1.546875q-3.234375 0 -4.765625 1.140625q-1.53125 1.125 -2.265625 4.0l-4.46875 -0.609375q0.609375 -2.875 2.0 -4.640625q1.390625 -1.765625 4.03125 -2.71875q2.640625 -0.953125 6.125 -0.953125q3.453125 0 5.609375 0.8125q2.15625 0.8125 3.171875 2.046875q1.015625 1.234375 1.421875 3.109375q0.234375 1.171875 0.234375 4.21875l0 6.09375q0 6.375 0.28125 8.0625q0.296875 1.6875 1.171875 3.234375l-4.78125 0q-0.703125 -1.421875 -0.90625 -3.328125zm-0.390625 -10.203125q-2.484375 1.015625 -7.46875 1.71875q-2.8125 0.40625 -3.984375 0.921875q-1.15625 0.5 -1.796875 1.484375q-0.640625 0.96875 -0.640625 2.171875q0 1.828125 1.375 3.046875q1.390625 1.21875 4.0625 1.21875q2.640625 0 4.6875 -1.15625q2.0625 -1.15625 3.03125 -3.15625q0.734375 -1.5625 0.734375 -4.578125l0 -1.671875zm9.873047 5.484375l4.53125 -0.71875q0.375 2.71875 2.109375 4.171875q1.75 1.4375 4.875 1.4375q3.140625 0 4.65625 -1.28125q1.53125 -1.28125 1.53125 -3.0q0 -1.546875 -1.34375 -2.4375q-0.9375 -0.609375 -4.671875 -1.546875q-5.03125 -1.28125 -6.96875 -2.203125q-1.9375 -0.921875 -2.953125 -2.5625q-1.0 -1.640625 -1.0 -3.625q0 -1.796875 0.828125 -3.328125q0.828125 -1.546875 2.25 -2.5625q1.0625 -0.78125 2.90625 -1.328125q1.84375 -0.546875 3.953125 -0.546875q3.171875 0 5.5625 0.921875q2.40625 0.90625 3.546875 2.46875q1.140625 1.5625 1.578125 4.171875l-4.46875 0.609375q-0.3125 -2.078125 -1.78125 -3.234375q-1.453125 -1.171875 -4.109375 -1.171875q-3.15625 0 -4.5 1.046875q-1.34375 1.03125 -1.34375 2.421875q0 0.890625 0.5625 1.609375q0.546875 0.734375 1.75 1.21875q0.6875 0.25 4.03125 1.15625q4.859375 1.296875 6.765625 2.125q1.921875 0.828125 3.015625 2.40625q1.09375 1.5625 1.09375 3.90625q0 2.28125 -1.34375 4.3125q-1.328125 2.015625 -3.84375 3.125q-2.515625 1.09375 -5.6875 1.09375q-5.25 0 -8.015625 -2.1875q-2.75 -2.1875 -3.515625 -6.46875zm37.8125 3.953125l0.65625 4.046875q-1.921875 0.40625 -3.453125 0.40625q-2.484375 0 -3.859375 -0.78125q-1.359375 -0.796875 -1.921875 -2.078125q-0.5625 -1.28125 -0.5625 -5.390625l0 -15.515625l-3.34375 0l0 -3.5625l3.34375 0l0 -6.671875l4.546875 -2.75l0 9.421875l4.59375 0l0 3.5625l-4.59375 0l0 15.765625q0 1.953125 0.234375 2.515625q0.25 0.546875 0.796875 0.890625q0.546875 0.328125 1.5625 0.328125q0.75 0 2.0 -0.1875zm22.93164 -4.59375l4.71875 0.59375q-1.109375 4.125 -4.140625 6.421875q-3.015625 2.28125 -7.71875 2.28125q-5.90625 0 -9.375 -3.640625q-3.46875 -3.640625 -3.46875 -10.21875q0 -6.8125 3.5 -10.5625q3.5 -3.765625 9.09375 -3.765625q5.40625 0 8.828125 3.6875q3.4375 3.671875 3.4375 10.359375q0 0.40625 -0.03125 1.21875l-20.109375 0q0.25 4.4375 2.515625 6.796875q2.265625 2.359375 5.640625 2.359375q2.515625 0 4.28125 -1.3125q1.78125 -1.328125 2.828125 -4.21875zm-15.015625 -7.390625l15.0625 0q-0.296875 -3.390625 -1.71875 -5.09375q-2.1875 -2.640625 -5.671875 -2.640625q-3.140625 0 -5.296875 2.109375q-2.140625 2.09375 -2.375 5.625zm25.419922 16.078125l0 -26.96875l4.109375 0l0 4.09375q1.578125 -2.875 2.90625 -3.78125q1.34375 -0.921875 2.9375 -0.921875q2.3125 0 4.703125 1.46875l-1.578125 4.25q-1.671875 -1.0 -3.34375 -1.0q-1.5 0 -2.703125 0.90625q-1.1875 0.90625 -1.703125 2.5q-0.75 2.4375 -0.75 5.328125l0 14.125l-4.578125 0zm49.41992 -3.328125q-2.546875 2.15625 -4.90625 3.046875q-2.34375 0.890625 -5.03125 0.890625q-4.4375 0 -6.828125 -2.171875q-2.390625 -2.171875 -2.390625 -5.546875q0 -1.984375 0.90625 -3.609375q0.90625 -1.640625 2.359375 -2.625q1.46875 -1.0 3.296875 -1.515625q1.34375 -0.34375 4.0625 -0.6875q5.53125 -0.65625 8.140625 -1.5625q0.03125 -0.9375 0.03125 -1.203125q0 -2.78125 -1.296875 -3.9375q-1.75 -1.546875 -5.203125 -1.546875q-3.234375 0 -4.765625 1.140625q-1.53125 1.125 -2.265625 4.0l-4.46875 -0.609375q0.609375 -2.875 2.0 -4.640625q1.390625 -1.765625 4.03125 -2.71875q2.640625 -0.953125 6.125 -0.953125q3.453125 0 5.609375 0.8125q2.15625 0.8125 3.171875 2.046875q1.015625 1.234375 1.421875 3.109375q0.234375 1.171875 0.234375 4.21875l0 6.09375q0 6.375 0.28125 8.0625q0.296875 1.6875 1.171875 3.234375l-4.78125 0q-0.703125 -1.421875 -0.90625 -3.328125zm-0.390625 -10.203125q-2.484375 1.015625 -7.46875 1.71875q-2.8125 0.40625 -3.984375 0.921875q-1.15625 0.5 -1.796875 1.484375q-0.640625 0.96875 -0.640625 2.171875q0 1.828125 1.375 3.046875q1.390625 1.21875 4.0625 1.21875q2.640625 0 4.6875 -1.15625q2.0625 -1.15625 3.03125 -3.15625q0.734375 -1.5625 0.734375 -4.578125l0 -1.671875zm11.701172 13.53125l0 -26.96875l4.125 0l0 3.84375q2.96875 -4.453125 8.578125 -4.453125q2.4375 0 4.484375 0.875q2.046875 0.875 3.0625 2.296875q1.015625 1.421875 1.421875 3.375q0.25 1.28125 0.25 4.453125l0 16.578125l-4.578125 0l0 -16.40625q0 -2.796875 -0.53125 -4.171875q-0.53125 -1.390625 -1.890625 -2.203125q-1.359375 -0.828125 -3.1875 -0.828125q-2.921875 0 -5.046875 1.859375q-2.109375 1.84375 -2.109375 7.015625l0 14.734375l-4.578125 0zm46.41992 0l0 -3.40625q-2.5625 4.015625 -7.546875 4.015625q-3.21875 0 -5.921875 -1.78125q-2.703125 -1.78125 -4.1875 -4.953125q-1.484375 -3.1875 -1.484375 -7.328125q0 -4.046875 1.34375 -7.328125q1.34375 -3.296875 4.03125 -5.046875q2.703125 -1.75 6.015625 -1.75q2.4375 0 4.34375 1.03125q1.90625 1.03125 3.109375 2.671875l0 -13.34375l4.53125 0l0 37.21875l-4.234375 0zm-14.453125 -13.453125q0 5.171875 2.1875 7.734375q2.1875 2.5625 5.15625 2.5625q3.0 0 5.09375 -2.4375q2.09375 -2.453125 2.09375 -7.484375q0 -5.53125 -2.140625 -8.125q-2.125 -2.59375 -5.25 -2.59375q-3.046875 0 -5.09375 2.5q-2.046875 2.484375 -2.046875 7.84375z" fill-rule="nonzero"/><path fill="#d9d9d9" d="m168.1602 374.69437l0 -37.21875l4.578125 0l0 13.34375q3.203125 -3.703125 8.078125 -3.703125q2.984375 0 5.1875 1.1875q2.21875 1.171875 3.171875 3.265625q0.953125 2.078125 0.953125 6.03125l0 17.09375l-4.5625 0l0 -17.09375q0 -3.421875 -1.5 -4.984375q-1.484375 -1.5625 -4.1875 -1.5625q-2.03125 0 -3.828125 1.0625q-1.796875 1.046875 -2.5625 2.859375q-0.75 1.796875 -0.75 4.96875l0 14.75l-4.578125 0zm46.529297 -3.328125q-2.546875 2.15625 -4.90625 3.046875q-2.34375 0.890625 -5.03125 0.890625q-4.4375 0 -6.828125 -2.171875q-2.390625 -2.171875 -2.390625 -5.546875q0 -1.984375 0.90625 -3.609375q0.90625 -1.640625 2.359375 -2.625q1.46875 -1.0 3.296875 -1.515625q1.34375 -0.34375 4.0625 -0.6875q5.53125 -0.65625 8.140625 -1.5625q0.03125 -0.9375 0.03125 -1.203125q0 -2.78125 -1.296875 -3.9375q-1.75 -1.546875 -5.203125 -1.546875q-3.234375 0 -4.765625 1.140625q-1.53125 1.125 -2.265625 4.0l-4.46875 -0.609375q0.609375 -2.875 2.0 -4.640625q1.390625 -1.765625 4.03125 -2.71875q2.640625 -0.953125 6.125 -0.953125q3.453125 0 5.609375 0.8125q2.15625 0.8125 3.171875 2.046875q1.015625 1.234375 1.421875 3.109375q0.234375 1.171875 0.234375 4.21875l0 6.09375q0 6.375 0.28125 8.0625q0.296875 1.6875 1.171875 3.234375l-4.78125 0q-0.703125 -1.421875 -0.90625 -3.328125zm-0.390625 -10.203125q-2.484375 1.015625 -7.46875 1.71875q-2.8125 0.40625 -3.984375 0.921875q-1.15625 0.5 -1.796875 1.484375q-0.640625 0.96875 -0.640625 2.171875q0 1.828125 1.375 3.046875q1.390625 1.21875 4.0625 1.21875q2.640625 0 4.6875 -1.15625q2.0625 -1.15625 3.03125 -3.15625q0.734375 -1.5625 0.734375 -4.578125l0 -1.671875zm19.201172 13.53125l-10.265625 -26.96875l4.828125 0l5.796875 16.15625q0.9375 2.609375 1.71875 5.421875q0.609375 -2.125 1.703125 -5.125l5.984375 -16.453125l4.703125 0l-10.203125 26.96875l-4.265625 0zm36.968765 -8.6875l4.71875 0.59375q-1.109375 4.125 -4.140625 6.421875q-3.015625 2.28125 -7.71875 2.28125q-5.90625 0 -9.375015 -3.640625q-3.46875 -3.640625 -3.46875 -10.21875q0 -6.8125 3.5 -10.5625q3.5000153 -3.765625 9.093765 -3.765625q5.40625 0 8.828125 3.6875q3.4375 3.671875 3.4375 10.359375q0 0.40625 -0.03125 1.21875l-20.10939 0q0.25 4.4375 2.5156403 6.796875q2.265625 2.359375 5.640625 2.359375q2.515625 0 4.28125 -1.3125q1.78125 -1.328125 2.828125 -4.21875zm-15.01564 -7.390625l15.062515 0q-0.296875 -3.390625 -1.71875 -5.09375q-2.1875 -2.640625 -5.671875 -2.640625q-3.140625 0 -5.296875 2.109375q-2.1406403 2.09375 -2.3750153 5.625zm39.914078 16.078125l0 -37.21875l4.578125 0l0 13.34375q3.203125 -3.703125 8.078125 -3.703125q2.984375 0 5.1875 1.1875q2.21875 1.171875 3.171875 3.265625q0.953125 2.078125 0.953125 6.03125l0 17.09375l-4.5625 0l0 -17.09375q0 -3.421875 -1.5 -4.984375q-1.484375 -1.5625 -4.1875 -1.5625q-2.03125 0 -3.828125 1.0625q-1.796875 1.046875 -2.5625 2.859375q-0.75 1.796875 -0.75 4.96875l0 14.75l-4.578125 0zm28.951172 -31.96875l0 -5.25l4.578125 0l0 5.25l-4.578125 0zm0 31.96875l0 -26.96875l4.578125 0l0 26.96875l-4.578125 0zm10.693359 2.234375l4.4375 0.65625q0.28125 2.0625 1.546875 3.0q1.703125 1.265625 4.65625 1.265625q3.171875 0 4.890625 -1.265625q1.734375 -1.265625 2.34375 -3.546875q0.359375 -1.40625 0.328125 -5.875q-3.0 3.53125 -7.46875 3.53125q-5.5625 0 -8.609375 -4.015625q-3.046875 -4.015625 -3.046875 -9.625q0 -3.859375 1.390625 -7.109375q1.40625 -3.265625 4.0625 -5.046875q2.65625 -1.78125 6.234375 -1.78125q4.765625 0 7.875 3.859375l0 -3.25l4.203125 0l0 23.3125q0 6.296875 -1.28125 8.921875q-1.28125 2.625 -4.0625 4.140625q-2.78125 1.53125 -6.84375 1.53125q-4.8125 0 -7.796875 -2.171875q-2.96875 -2.15625 -2.859375 -6.53125zm3.78125 -16.203125q0 5.3125 2.109375 7.75q2.109375 2.4375 5.28125 2.4375q3.140625 0 5.265625 -2.421875q2.140625 -2.4375 2.140625 -7.609375q0 -4.953125 -2.203125 -7.46875q-2.1875 -2.515625 -5.28125 -2.515625q-3.046875 0 -5.1875 2.484375q-2.125 2.46875 -2.125 7.34375zm25.966797 13.96875l0 -37.21875l4.578125 0l0 13.34375q3.203125 -3.703125 8.078125 -3.703125q2.984375 0 5.1875 1.1875q2.21875 1.171875 3.171875 3.265625q0.953125 2.078125 0.953125 6.03125l0 17.09375l-4.5625 0l0 -17.09375q0 -3.421875 -1.5 -4.984375q-1.484375 -1.5625 -4.1875 -1.5625q-2.03125 0 -3.828125 1.0625q-1.796875 1.046875 -2.5625 2.859375q-0.75 1.796875 -0.75 4.96875l0 14.75l-4.578125 0zm47.38867 -8.6875l4.71875 0.59375q-1.109375 4.125 -4.140625 6.421875q-3.015625 2.28125 -7.71875 2.28125q-5.90625 0 -9.375 -3.640625q-3.46875 -3.640625 -3.46875 -10.21875q0 -6.8125 3.5 -10.5625q3.5 -3.765625 9.09375 -3.765625q5.40625 0 8.828125 3.6875q3.4375 3.671875 3.4375 10.359375q0 0.40625 -0.03125 1.21875l-20.109375 0q0.25 4.4375 2.515625 6.796875q2.265625 2.359375 5.640625 2.359375q2.515625 0 4.28125 -1.3125q1.78125 -1.328125 2.828125 -4.21875zm-15.015625 -7.390625l15.0625 0q-0.296875 -3.390625 -1.71875 -5.09375q-2.1875 -2.640625 -5.671875 -2.640625q-3.140625 0 -5.296875 2.109375q-2.140625 2.09375 -2.375 5.625zm25.419922 16.078125l0 -26.96875l4.109375 0l0 4.09375q1.578125 -2.875 2.90625 -3.78125q1.34375 -0.921875 2.9375 -0.921875q2.3125 0 4.703125 1.46875l-1.578125 4.25q-1.671875 -1.0 -3.34375 -1.0q-1.5 0 -2.703125 0.90625q-1.1875 0.90625 -1.703125 2.5q-0.75 2.4375 -0.75 5.328125l0 14.125l-4.578125 0zm49.01367 10.328125l0 -13.203125q-1.078125 1.5 -3.0 2.5q-1.90625 0.984375 -4.0625 0.984375q-4.796875 0 -8.265625 -3.828125q-3.46875 -3.84375 -3.46875 -10.515625q0 -4.0625 1.40625 -7.28125q1.40625 -3.234375 4.078125 -4.890625q2.6875 -1.671875 5.890625 -1.671875q5.0 0 7.875 4.21875l0 -3.609375l4.109375 0l0 37.296875l-4.5625 0zm-14.09375 -23.890625q0 5.203125 2.171875 7.8125q2.1875 2.59375 5.234375 2.59375q2.921875 0 5.03125 -2.46875q2.109375 -2.46875 2.109375 -7.53125q0 -5.375 -2.234375 -8.09375q-2.21875 -2.71875 -5.203125 -2.71875q-2.96875 0 -5.046875 2.53125q-2.0625 2.515625 -2.0625 7.875zm43.48242 13.5625l0 -3.96875q-3.140625 4.578125 -8.546875 4.578125q-2.390625 0 -4.46875 -0.90625q-2.0625 -0.921875 -3.0625 -2.296875q-1.0 -1.390625 -1.40625 -3.40625q-0.28125 -1.34375 -0.28125 -4.265625l0 -16.703125l4.5625 0l0 14.953125q0 3.578125 0.28125 4.828125q0.4375 1.796875 1.828125 2.828125q1.40625 1.03125 3.453125 1.03125q2.0625 0 3.859375 -1.046875q1.8125 -1.0625 2.5625 -2.875q0.75 -1.8125 0.75 -5.265625l0 -14.453125l4.5625 0l0 26.96875l-4.09375 0zm28.857422 -3.328125q-2.546875 2.15625 -4.90625 3.046875q-2.34375 0.890625 -5.03125 0.890625q-4.4375 0 -6.828125 -2.171875q-2.390625 -2.171875 -2.390625 -5.546875q0 -1.984375 0.90625 -3.609375q0.90625 -1.640625 2.359375 -2.625q1.46875 -1.0 3.296875 -1.515625q1.34375 -0.34375 4.0625 -0.6875q5.53125 -0.65625 8.140625 -1.5625q0.03125 -0.9375 0.03125 -1.203125q0 -2.78125 -1.296875 -3.9375q-1.75 -1.546875 -5.203125 -1.546875q-3.234375 0 -4.765625 1.140625q-1.53125 1.125 -2.265625 4.0l-4.46875 -0.609375q0.609375 -2.875 2.0 -4.640625q1.390625 -1.765625 4.03125 -2.71875q2.640625 -0.953125 6.125 -0.953125q3.453125 0 5.609375 0.8125q2.15625 0.8125 3.171875 2.046875q1.015625 1.234375 1.421875 3.109375q0.234375 1.171875 0.234375 4.21875l0 6.09375q0 6.375 0.28125 8.0625q0.296875 1.6875 1.171875 3.234375l-4.78125 0q-0.703125 -1.421875 -0.90625 -3.328125zm-0.390625 -10.203125q-2.484375 1.015625 -7.46875 1.71875q-2.8125 0.40625 -3.984375 0.921875q-1.15625 0.5 -1.796875 1.484375q-0.640625 0.96875 -0.640625 2.171875q0 1.828125 1.375 3.046875q1.390625 1.21875 4.0625 1.21875q2.640625 0 4.6875 -1.15625q2.0625 -1.15625 3.03125 -3.15625q0.734375 -1.5625 0.734375 -4.578125l0 -1.671875zm11.607422 13.53125l0 -37.21875l4.5625 0l0 37.21875l-4.5625 0zm11.677734 -31.96875l0 -5.25l4.578125 0l0 5.25l-4.578125 0zm0 31.96875l0 -26.96875l4.578125 0l0 26.96875l-4.578125 0zm21.50586 -4.09375l0.65625 4.046875q-1.921875 0.40625 -3.453125 0.40625q-2.484375 0 -3.859375 -0.78125q-1.359375 -0.796875 -1.921875 -2.078125q-0.5625 -1.28125 -0.5625 -5.390625l0 -15.515625l-3.34375 0l0 -3.5625l3.34375 0l0 -6.671875l4.546875 -2.75l0 9.421875l4.59375 0l0 3.5625l-4.59375 0l0 15.765625q0 1.953125 0.234375 2.515625q0.25 0.546875 0.796875 0.890625q0.546875 0.328125 1.5625 0.328125q0.75 0 2.0 -0.1875zm4.2597656 14.484375l-0.5 -4.296875q1.5 0.40625 2.609375 0.40625q1.53125 0 2.4375 -0.515625q0.921875 -0.5 1.5 -1.40625q0.4375 -0.6875 1.40625 -3.40625q0.125 -0.390625 0.40625 -1.125l-10.234375 -27.015625l4.921875 0l5.609375 15.625q1.09375 2.96875 1.953125 6.234375q0.796875 -3.140625 1.875 -6.140625l5.765625 -15.71875l4.578125 0l-10.265625 27.421875q-1.640625 4.453125 -2.5625 6.125q-1.21875 2.265625 -2.796875 3.3125q-1.5625 1.046875 -3.75 1.046875q-1.328125 0 -2.953125 -0.546875zm50.634766 -14.484375l0.65625 4.046875q-1.921875 0.40625 -3.453125 0.40625q-2.484375 0 -3.859375 -0.78125q-1.359375 -0.796875 -1.921875 -2.078125q-0.5625 -1.28125 -0.5625 -5.390625l0 -15.515625l-3.34375 0l0 -3.5625l3.34375 0l0 -6.671875l4.546875 -2.75l0 9.421875l4.59375 0l0 3.5625l-4.59375 0l0 15.765625q0 1.953125 0.234375 2.515625q0.25 0.546875 0.796875 0.890625q0.546875 0.328125 1.5625 0.328125q0.75 0 2.0 -0.1875zm4.4628906 4.09375l0 -37.21875l4.578125 0l0 13.34375q3.203125 -3.703125 8.078125 -3.703125q2.984375 0 5.1875 1.1875q2.21875 1.171875 3.171875 3.265625q0.953125 2.078125 0.953125 6.03125l0 17.09375l-4.5625 0l0 -17.09375q0 -3.421875 -1.5 -4.984375q-1.484375 -1.5625 -4.1875 -1.5625q-2.03125 0 -3.828125 1.0625q-1.796875 1.046875 -2.5625 2.859375q-0.75 1.796875 -0.75 4.96875l0 14.75l-4.578125 0zm46.529297 -3.328125q-2.546875 2.15625 -4.90625 3.046875q-2.34375 0.890625 -5.03125 0.890625q-4.4375 0 -6.828125 -2.171875q-2.390625 -2.171875 -2.390625 -5.546875q0 -1.984375 0.90625 -3.609375q0.90625 -1.640625 2.359375 -2.625q1.46875 -1.0 3.296875 -1.515625q1.34375 -0.34375 4.0625 -0.6875q5.53125 -0.65625 8.140625 -1.5625q0.03125 -0.9375 0.03125 -1.203125q0 -2.78125 -1.296875 -3.9375q-1.75 -1.546875 -5.203125 -1.546875q-3.234375 0 -4.765625 1.140625q-1.53125 1.125 -2.265625 4.0l-4.46875 -0.609375q0.609375 -2.875 2.0 -4.640625q1.390625 -1.765625 4.03125 -2.71875q2.640625 -0.953125 6.125 -0.953125q3.453125 0 5.609375 0.8125q2.15625 0.8125 3.171875 2.046875q1.015625 1.234375 1.421875 3.109375q0.234375 1.171875 0.234375 4.21875l0 6.09375q0 6.375 0.28125 8.0625q0.296875 1.6875 1.171875 3.234375l-4.78125 0q-0.703125 -1.421875 -0.90625 -3.328125zm-0.390625 -10.203125q-2.484375 1.015625 -7.46875 1.71875q-2.8125 0.40625 -3.984375 0.921875q-1.15625 0.5 -1.796875 1.484375q-0.640625 0.96875 -0.640625 2.171875q0 1.828125 1.375 3.046875q1.390625 1.21875 4.0625 1.21875q2.640625 0 4.6875 -1.15625q2.0625 -1.15625 3.03125 -3.15625q0.734375 -1.5625 0.734375 -4.578125l0 -1.671875zm11.701172 13.53125l0 -26.96875l4.125 0l0 3.84375q2.96875 -4.453125 8.578125 -4.453125q2.4375 0 4.484375 0.875q2.046875 0.875 3.0625 2.296875q1.015625 1.421875 1.421875 3.375q0.25 1.28125 0.25 4.453125l0 16.578125l-4.578125 0l0 -16.40625q0 -2.796875 -0.53125 -4.171875q-0.53125 -1.390625 -1.890625 -2.203125q-1.359375 -0.828125 -3.1875 -0.828125q-2.921875 0 -5.046875 1.859375q-2.109375 1.84375 -2.109375 7.015625l0 14.734375l-4.578125 0zm43.960938 0l0 -37.21875l14.03125 0q3.71875 0 5.671875 0.34375q2.734375 0.46875 4.59375 1.75q1.859375 1.28125 2.984375 3.59375q1.125 2.3125 1.125 5.078125q0 4.75 -3.03125 8.03125q-3.015625 3.28125 -10.90625 3.28125l-9.546875 0l0 15.140625l-4.921875 0zm4.921875 -19.53125l9.625 0q4.765625 0 6.765625 -1.765625q2.015625 -1.78125 2.015625 -5.015625q0 -2.328125 -1.1875 -3.984375q-1.171875 -1.671875 -3.09375 -2.203125q-1.25 -0.328125 -4.609375 -0.328125l-9.515625 0l0 13.296875zm29.714844 19.53125l0 -37.21875l5.046875 0l19.546875 29.21875l0 -29.21875l4.71875 0l0 37.21875l-5.046875 0l-19.546875 -29.25l0 29.25l-4.71875 0zm55.021484 -14.59375l0 -4.375l15.765625 -0.03125l0 13.8125q-3.640625 2.90625 -7.5 4.375q-3.859375 1.453125 -7.921875 1.453125q-5.484375 0 -9.96875 -2.34375q-4.46875 -2.359375 -6.765625 -6.796875q-2.28125 -4.453125 -2.28125 -9.9375q0 -5.4375 2.265625 -10.140625q2.28125 -4.703125 6.546875 -6.984375q4.265625 -2.296875 9.828125 -2.296875q4.03125 0 7.296875 1.3125q3.265625 1.296875 5.109375 3.640625q1.859375 2.328125 2.828125 6.09375l-4.4375 1.21875q-0.84375 -2.84375 -2.09375 -4.46875q-1.234375 -1.625 -3.546875 -2.59375q-2.3125 -0.984375 -5.125 -0.984375q-3.390625 0 -5.859375 1.03125q-2.453125 1.015625 -3.96875 2.703125q-1.5 1.671875 -2.34375 3.671875q-1.421875 3.453125 -1.421875 7.5q0 4.96875 1.71875 8.328125q1.71875 3.34375 4.984375 4.96875q3.28125 1.625 6.953125 1.625q3.203125 0 6.25 -1.21875q3.046875 -1.234375 4.625 -2.640625l0 -6.921875l-10.9375 0zm23.728516 14.59375l0 -5.203125l5.203125 0l0 5.203125l-5.203125 0z" fill-rule="nonzero"/><path fill="#1155cc" d="m249.14886 422.51544l-17.608994 59.838135l6.007782 0l17.56755 -59.838135z" fill-rule="evenodd"/><path fill="#1155cc" d="m277.32324 444.38242c3.3974915 0 6.256378 1.3420105 8.576599 4.026062c2.3202515 2.684021 3.4803772 6.8942566 3.4803772 12.630737c0 5.2101746 -1.1416931 9.087097 -3.4251099 11.630798c-2.274231 2.534912 -5.0410156 3.8023682 -8.300415 3.8023682c-3.2317505 0 -6.03537 -1.3288574 -8.410858 -3.9865723c-2.3754883 -2.6577148 -3.5632324 -6.6705933 -3.5632324 -12.038666c0 -5.5522766 1.1094666 -9.617798 3.3284302 -12.196564c2.22818 -2.5787659 4.9995728 -3.868164 8.314209 -3.868164zm11.435486 -20.880188l0 20.76178c-1.2982483 -1.7104187 -2.9831848 -3.096283 -5.0548096 -4.1576233c-2.0716553 -1.0700989 -4.433319 -1.6051636 -7.085022 -1.6051636c-3.6184998 0 -6.891693 0.9078369 -9.819611 2.7235107c-2.9279175 1.8156738 -5.123871 4.429535 -6.5878296 7.8415833c-1.4639587 3.4032898 -2.1959534 7.1968994 -2.1959534 11.380829c0 4.2891846 0.80563354 8.087189 2.4169312 11.393982c1.6204834 3.2980347 3.899292 5.868042 6.836426 7.710022c2.94635 1.84198 6.1734924 2.76297 9.681488 2.76297c5.41391 0 9.515747 -2.078827 12.3055725 -6.2364197l0 5.2891235l6.919281 0l0 -57.864594z" fill-rule="evenodd"/><path fill="#1155cc" d="m307.94217 423.50223l0 8.170502l7.4579163 0l0 -8.170502zm0 15.94632l0 41.918274l7.4579163 0l0 -41.918274z" fill-rule="evenodd"/><path fill="#1155cc" d="m322.2365 439.44855l16.738892 41.918274l6.960724 0l16.656036 -41.918274l-7.6650696 0l-9.778168 25.57724c-1.1877441 3.1050415 -2.1130981 5.762787 -2.7760315 7.9731445c-0.8562622 -2.9208374 -1.7954102 -5.73645 -2.8174133 -8.446808l-9.446716 -25.103577z" fill-rule="evenodd"/><path fill="#e69138" d="m213.91951 429.01013l-58.18213 22.010925l0 9.019104l58.18213 22.279358l0 -9.60965l-46.138245 -17.12558l46.138245 -16.964508l0 -9.60965z" fill-rule="evenodd"/><path fill="#e69138" d="m371.0524 429.01013l0 9.60965l46.07834 16.964508l-46.07834 17.12558l0 9.60965l58.18213 -22.279358l0 -9.019104l-58.18213 -22.010925z" fill-rule="evenodd"/><path fill="#000000" fill-opacity="0.0" d="m155.73833 488.5223l0 26.600677l270.06824 0l0 -23.799469" fill-rule="evenodd"/><path stroke="#ff0000" stroke-width="2.0" stroke-linejoin="round" stroke-linecap="butt" d="m155.73833 488.5223l0 26.600677l270.06824 0l0 -23.799469" fill-rule="evenodd"/><path fill="#000000" fill-opacity="0.0" d="m213.89084 515.12366l153.7638 0l0 39.905518l-153.7638 0z" fill-rule="evenodd"/><path fill="#efefef" d="m241.8553 538.99426l3.0 0.9375q-0.6875 2.5 -2.296875 3.71875q-1.59375 1.21875 -4.046875 1.21875q-3.046875 0 -5.0 -2.078125q-1.953125 -2.078125 -1.953125 -5.6875q0 -3.8125 1.96875 -5.921875q1.96875 -2.109375 5.171875 -2.109375q2.796875 0 4.546875 1.65625q1.046875 0.984375 1.5625 2.8125l-3.046875 0.734375q-0.28125 -1.1875 -1.140625 -1.875q-0.84375 -0.6875 -2.078125 -0.6875q-1.703125 0 -2.765625 1.21875q-1.046875 1.21875 -1.046875 3.9375q0 2.90625 1.03125 4.140625q1.046875 1.21875 2.71875 1.21875q1.234375 0 2.109375 -0.78125q0.890625 -0.78125 1.265625 -2.453125zm5.6212463 5.609375l0 -15.265625l2.921875 0l0 15.265625l-2.921875 0zm5.253769 -5.6875q0 -1.453125 0.71875 -2.8125q0.71875 -1.375 2.03125 -2.09375q1.3125 -0.71875 2.9375 -0.71875q2.515625 0 4.109375 1.640625q1.609375 1.625 1.609375 4.109375q0 2.515625 -1.625 4.171875q-1.609375 1.640625 -4.0625 1.640625q-1.53125 0 -2.90625 -0.6875q-1.375 -0.6875 -2.09375 -2.015625q-0.71875 -1.328125 -0.71875 -3.234375zm3.0 0.15625q0 1.640625 0.78125 2.515625q0.78125 0.875 1.921875 0.875q1.140625 0 1.921875 -0.875q0.78125 -0.875 0.78125 -2.53125q0 -1.625 -0.78125 -2.5q-0.78125 -0.875 -1.921875 -0.875q-1.140625 0 -1.921875 0.875q-0.78125 0.875 -0.78125 2.515625zm9.668701 2.375l2.9375 -0.453125q0.1875 0.859375 0.75 1.3125q0.578125 0.4375 1.609375 0.4375q1.140625 0 1.71875 -0.421875q0.375 -0.296875 0.375 -0.78125q0 -0.328125 -0.203125 -0.546875q-0.21875 -0.21875 -0.984375 -0.390625q-3.53125 -0.78125 -4.484375 -1.421875q-1.3125 -0.90625 -1.3125 -2.5q0 -1.4375 1.125 -2.40625q1.140625 -0.984375 3.53125 -0.984375q2.265625 0 3.375 0.75q1.109375 0.734375 1.515625 2.171875l-2.75 0.515625q-0.1875 -0.640625 -0.6875 -0.984375q-0.484375 -0.34375 -1.40625 -0.34375q-1.15625 0 -1.65625 0.3125q-0.328125 0.234375 -0.328125 0.59375q0 0.3125 0.296875 0.53125q0.390625 0.296875 2.71875 0.828125q2.34375 0.53125 3.28125 1.296875q0.90625 0.78125 0.90625 2.1875q0 1.515625 -1.265625 2.609375q-1.265625 1.09375 -3.765625 1.09375q-2.25 0 -3.578125 -0.90625q-1.3125 -0.921875 -1.71875 -2.5zm12.892944 -9.40625l0 -2.703125l2.921875 0l0 2.703125l-2.921875 0zm0 12.5625l0 -11.0625l2.921875 0l0 11.0625l-2.921875 0zm15.988129 0l-2.921875 0l0 -5.640625q0 -1.796875 -0.1875 -2.3125q-0.1875 -0.53125 -0.609375 -0.828125q-0.421875 -0.296875 -1.015625 -0.296875q-0.765625 0 -1.375 0.421875q-0.59375 0.421875 -0.828125 1.109375q-0.21875 0.6875 -0.21875 2.53125l0 5.015625l-2.921875 0l0 -11.0625l2.71875 0l0 1.625q1.4375 -1.875 3.640625 -1.875q0.96875 0 1.765625 0.359375q0.8125 0.34375 1.21875 0.890625q0.40625 0.53125 0.5625 1.21875q0.171875 0.6875 0.171875 1.96875l0 6.875zm2.6999512 0.734375l3.34375 0.40625q0.078125 0.578125 0.375 0.796875q0.421875 0.3125 1.3125 0.3125q1.15625 0 1.71875 -0.34375q0.390625 -0.234375 0.59375 -0.734375q0.125 -0.375 0.125 -1.34375l0 -1.625q-1.3125 1.796875 -3.3125 1.796875q-2.21875 0 -3.53125 -1.890625q-1.015625 -1.484375 -1.015625 -3.703125q0 -2.78125 1.328125 -4.25q1.34375 -1.46875 3.34375 -1.46875q2.046875 0 3.375 1.796875l0 -1.546875l2.734375 0l0 9.921875q0 1.96875 -0.328125 2.9375q-0.3125 0.96875 -0.890625 1.515625q-0.578125 0.546875 -1.5625 0.859375q-0.96875 0.3125 -2.453125 0.3125q-2.8125 0 -4.0 -0.96875q-1.171875 -0.953125 -1.171875 -2.4375q0 -0.140625 0.015625 -0.34375zm2.609375 -6.5q0 1.765625 0.671875 2.59375q0.6875 0.8125 1.6875 0.8125q1.078125 0 1.8125 -0.84375q0.75 -0.84375 0.75 -2.484375q0 -1.71875 -0.71875 -2.546875q-0.703125 -0.84375 -1.78125 -0.84375q-1.0625 0 -1.75 0.828125q-0.671875 0.8125 -0.671875 2.484375zm20.06311 5.765625l0 -12.6875l-4.53125 0l0 -2.578125l12.140625 0l0 2.578125l-4.515625 0l0 12.6875l-3.09375 0zm10.179108 -7.6875l-2.65625 -0.484375q0.453125 -1.59375 1.546875 -2.359375q1.09375 -0.78125 3.25 -0.78125q1.953125 0 2.90625 0.46875q0.96875 0.453125 1.359375 1.171875q0.390625 0.71875 0.390625 2.625l-0.03125 3.40625q0 1.46875 0.125 2.15625q0.140625 0.6875 0.53125 1.484375l-2.890625 0q-0.109375 -0.296875 -0.28125 -0.859375q-0.078125 -0.265625 -0.109375 -0.34375q-0.75 0.71875 -1.609375 1.09375q-0.84375 0.359375 -1.8125 0.359375q-1.703125 0 -2.6875 -0.921875q-0.984375 -0.9375 -0.984375 -2.34375q0 -0.9375 0.4375 -1.671875q0.453125 -0.734375 1.25 -1.125q0.8125 -0.390625 2.34375 -0.6875q2.046875 -0.390625 2.84375 -0.71875l0 -0.296875q0 -0.84375 -0.421875 -1.203125q-0.421875 -0.359375 -1.578125 -0.359375q-0.78125 0 -1.21875 0.3125q-0.4375 0.3125 -0.703125 1.078125zm3.921875 2.375q-0.5625 0.1875 -1.78125 0.453125q-1.21875 0.25 -1.59375 0.5q-0.578125 0.40625 -0.578125 1.03125q0 0.625 0.453125 1.078125q0.46875 0.4375 1.171875 0.4375q0.796875 0 1.515625 -0.515625q0.53125 -0.40625 0.6875 -0.96875q0.125 -0.375 0.125 -1.4375l0 -0.578125zm5.4866943 6.046875l3.34375 0.40625q0.078125 0.578125 0.375 0.796875q0.421875 0.3125 1.3125 0.3125q1.15625 0 1.71875 -0.34375q0.390625 -0.234375 0.59375 -0.734375q0.125 -0.375 0.125 -1.34375l0 -1.625q-1.3125 1.796875 -3.3125 1.796875q-2.21875 0 -3.53125 -1.890625q-1.015625 -1.484375 -1.015625 -3.703125q0 -2.78125 1.328125 -4.25q1.34375 -1.46875 3.34375 -1.46875q2.046875 0 3.375 1.796875l0 -1.546875l2.734375 0l0 9.921875q0 1.96875 -0.328125 2.9375q-0.3125 0.96875 -0.890625 1.515625q-0.578125 0.546875 -1.5625 0.859375q-0.96875 0.3125 -2.453125 0.3125q-2.8125 0 -4.0 -0.96875q-1.171875 -0.953125 -1.171875 -2.4375q0 -0.140625 0.015625 -0.34375zm2.609375 -6.5q0 1.765625 0.671875 2.59375q0.6875 0.8125 1.6875 0.8125q1.078125 0 1.8125 -0.84375q0.75 -0.84375 0.75 -2.484375q0 -1.71875 -0.71875 -2.546875q-0.703125 -0.84375 -1.78125 -0.84375q-1.0625 0 -1.75 0.828125q-0.671875 0.8125 -0.671875 2.484375z" fill-rule="nonzero"/><path fill="#d9d9d9" d="m65.90382 387.0392c0 -2.1021423 0.64743805 -3.8130188 1.9423218 -5.1326294c0.834198 -0.8592529 2.0855026 -1.3809509 3.7539139 -1.565094l0 13.648621c-1.7306595 -0.13809204 -3.1127014 -0.8541565 -4.146118 -2.1481628c-1.0334091 -1.2991333 -1.5501175 -2.900055 -1.5501175 -4.8027344zm-2.7640762 0.046051025c0 3.375702 0.9213562 6.1223145 2.7640762 8.239807c1.8427124 2.1174927 4.43248 3.176239 7.769287 3.176239c3.2247543 0 5.731514 -1.0459595 7.520279 -3.1378784c1.7846146 -2.097046 2.676918 -4.9331665 2.676918 -8.508331c0 -2.838684 -0.5602875 -5.17099 -1.6808548 -6.9969482c-1.120575 -1.8259583 -2.6955948 -3.0765076 -4.725075 -3.751648l-0.42955017 4.281006c1.4193878 0.6291199 2.4528046 1.4807129 3.1002426 2.5548096c0.6474457 1.0740967 0.9711609 2.3706665 0.9711609 3.88974c0 2.0407715 -0.5789566 3.743988 -1.7368851 5.109619c-1.1579208 1.3656311 -2.8263245 2.1251526 -5.0052185 2.278595l0 -18.228851c-0.39842224 -0.015350342 -0.69724274 -0.023010254 -0.89645386 -0.023010254c-3.274559 0 -5.814514 1.0357361 -7.6198807 3.1071777c-1.8053665 2.0714722 -2.708046 4.7413635 -2.708046 8.009674z" fill-rule="evenodd"/><path fill="#d9d9d9" d="m56.04279 370.9969l27.379284 0l0 -4.142914l-27.379284 0z" fill-rule="evenodd"/><path fill="#d9d9d9" d="m65.90382 350.35132c0 -2.1021423 0.64743805 -3.8130188 1.9423218 -5.1326294c0.834198 -0.8592529 2.0855026 -1.3809509 3.7539139 -1.565094l0 13.648621c-1.7306595 -0.13809204 -3.1127014 -0.8541565 -4.146118 -2.1481628c-1.0334091 -1.2991333 -1.5501175 -2.900055 -1.5501175 -4.8027344zm-2.7640762 0.046051025c0 3.375702 0.9213562 6.1223145 2.7640762 8.239807c1.8427124 2.1174927 4.43248 3.176239 7.769287 3.176239c3.2247543 0 5.731514 -1.0459595 7.520279 -3.1378784c1.7846146 -2.097046 2.676918 -4.9331665 2.676918 -8.508331c0 -2.838684 -0.5602875 -5.17099 -1.6808548 -6.9969482c-1.120575 -1.8259583 -2.6955948 -3.0765076 -4.725075 -3.751648l-0.42955017 4.281006c1.4193878 0.6291199 2.4528046 1.4807129 3.1002426 2.5548096c0.6474457 1.0740967 0.9711609 2.3706665 0.9711609 3.88974c0 2.0407715 -0.5789566 3.743988 -1.7368851 5.109619c-1.1579208 1.3656311 -2.8263245 2.1251526 -5.0052185 2.278595l0 -18.228851c-0.39842224 -0.015350342 -0.69724274 -0.023010254 -0.89645386 -0.023010254c-3.274559 0 -5.814514 1.0357361 -7.6198807 3.1071777c-1.8053665 2.0714722 -2.708046 4.7413635 -2.708046 8.009674z" fill-rule="evenodd"/><path fill="#d9d9d9" d="m63.13974 323.1001c0 1.6264648 0.2967415 3.0765076 0.8902283 4.350067c0.5893402 1.2735596 1.3695908 2.2939453 2.3407516 3.0611572l-2.782753 0l0 3.7056274l19.834106 0l0 -4.1429443l-10.290581 0c-1.8053589 0 -3.1874008 -0.22247314 -4.1461105 -0.66748047c-0.9587097 -0.4449768 -1.6870804 -1.1610413 -2.185112 -2.1481628c-0.49803162 -0.99224854 -0.7470474 -2.0714722 -0.7470474 -3.2376099c0 -1.5344238 0.37352753 -2.6392212 1.120575 -3.3143616c0.7470474 -0.6751404 1.8676147 -1.0126953 3.3617096 -1.0126953l12.886566 0l0 -4.1429443l-11.523209 0c-2.0419235 0 -3.5256424 -0.5677185 -4.4511566 -1.703186c-0.929657 -1.1354675 -1.3944855 -2.5624695 -1.3944855 -4.2810364c0 -0.95132446 0.18053436 -1.7799072 0.5416107 -2.4857483c0.36106873 -0.70584106 0.838356 -1.191742 1.431839 -1.4577026c0.5893402 -0.27108765 1.5563507 -0.4066162 2.9010315 -0.4066162l12.4943695 0l0 -4.1199036l-13.614937 0c-2.2660446 0 -3.942749 0.6521301 -5.030121 1.9563904c-1.0915184 1.3042297 -1.6372757 3.1685486 -1.6372757 5.592926c0 3.0995178 1.1579208 5.615967 3.4737701 7.549347c-1.0956726 0.47564697 -1.9485474 1.2940063 -2.5586395 2.4550476c-0.61008835 1.1559448 -0.9151306 2.6392212 -0.9151306 4.449829z" fill-rule="evenodd"/><path fill="#d9d9d9" d="m65.90382 284.87012c0 -2.1021729 0.64743805 -3.8130493 1.9423218 -5.1326294c0.834198 -0.85928345 2.0855026 -1.3809814 3.7539139 -1.5651245l0 13.648651c-1.7306595 -0.13809204 -3.1127014 -0.8541565 -4.146118 -2.1481934c-1.0334091 -1.2991333 -1.5501175 -2.900055 -1.5501175 -4.802704zm-2.7640762 0.046020508c0 3.375702 0.9213562 6.1223145 2.7640762 8.239807c1.8427124 2.1174927 4.43248 3.176239 7.769287 3.176239c3.2247543 0 5.731514 -1.0459595 7.520279 -3.1378784c1.7846146 -2.0970154 2.676918 -4.933136 2.676918 -8.508331c0 -2.838684 -0.5602875 -5.17099 -1.6808548 -6.9969482c-1.120575 -1.8259583 -2.6955948 -3.0765076 -4.725075 -3.751648l-0.42955017 4.2810364c1.4193878 0.62908936 2.4528046 1.4807129 3.1002426 2.5548096c0.6474457 1.0740662 0.9711609 2.3706665 0.9711609 3.88974c0 2.0407715 -0.5789566 3.7439575 -1.7368851 5.1095886c-1.1579208 1.3656311 -2.8263245 2.125183 -5.0052185 2.2786255l0 -18.228882c-0.39842224 -0.015350342 -0.69724274 -0.023010254 -0.89645386 -0.023010254c-3.274559 0 -5.814514 1.0357361 -7.6198807 3.1072083c-1.8053665 2.0714417 -2.708046 4.741333 -2.708046 8.009644z" fill-rule="evenodd"/><path fill="#d9d9d9" d="m63.13974 257.2276c0 3.3910522 1.0894394 5.9842224 3.2683334 7.77948l-2.8201065 0l0 3.7286377l19.834106 0l0 -4.142914l-10.832184 0c-2.5399628 0 -4.2643967 -0.63934326 -5.1733017 -1.9180298c-0.90891266 -1.2838135 -1.3633652 -2.8079834 -1.3633652 -4.572571c0 -1.1047668 0.20336151 -2.0663452 0.61009216 -2.8847046c0.40257263 -0.82347107 0.94418335 -1.3963165 1.6248245 -1.7185364c0.6764908 -0.3222351 1.6995316 -0.4833374 3.0691223 -0.4833374l12.064812 0l0 -4.142929l-12.195549 0c-1.5563507 0 -2.64579 0.07672119 -3.2683334 0.23016357c-0.9587097 0.24549866 -1.7866821 0.6751404 -2.4839325 1.2889099c-0.69724274 0.61376953 -1.2595978 1.5395355 -1.6870804 2.777298c-0.43162537 1.2326355 -0.64743805 2.5854797 -0.64743805 4.0585327z" fill-rule="evenodd"/><path fill="#d9d9d9" d="m56.659103 237.64076l2.0170288 4.119919l4.9118347 0l0 3.0381317l2.6146622 0l0 -3.0381317l11.411148 0c2.0170288 0 3.3409653 -0.16879272 3.9718018 -0.5063629c0.6266937 -0.3375702 1.1330261 -0.9206543 1.5189972 -1.7492371c0.3859787 -0.82858276 0.57896423 -1.9947357 0.57896423 -3.4984741c0 -0.92063904 -0.099609375 -1.9640503 -0.2988205 -3.1302032l-2.969513 0.5984192c0.0871582 0.7518616 0.13072968 1.3579559 0.13072968 1.8182831c0 0.61376953 -0.08092499 1.0868835 -0.24279022 1.419342c-0.1618576 0.3273468 -0.37974548 0.5651703 -0.65366364 0.713501c-0.27391815 0.143219 -0.8902283 0.21481323 -1.848938 0.21481323l-11.597916 0l0 -4.1659393l-2.6146622 0l0 4.1659393l-6.9288635 0z" fill-rule="evenodd"/><path fill="#d9d9d9" d="m910.1816 260.41025c0 -2.1021423 -0.4025879 -4.0483093 -1.2077026 -5.838455c-0.8010254 -1.7850342 -2.0045776 -3.1148682 -3.6107788 -3.9894867c-1.6061401 -0.87461853 -3.4799805 -1.3119202 -5.621521 -1.3119202c-3.3118896 0 -5.856018 1.015274 -7.632324 3.0458221c-1.7721558 2.0356445 -2.6582642 4.725998 -2.6582642 8.07103c0 2.6698914 0.64331055 4.920349 1.9298706 6.7514343c1.2907715 1.8361816 3.0753784 2.9767456 5.353882 3.421753l0.4295044 -4.073883c-1.6808472 -0.29153442 -2.9259033 -0.98202515 -3.7352295 -2.0714722c-0.80926514 -1.0894165 -1.2139282 -2.4473877 -1.2139282 -4.073883c0 -2.0254211 0.60388184 -3.6672363 1.8115845 -4.925461c1.2077026 -1.2582245 3.1437988 -1.8873291 5.8082886 -1.8873291c2.6271362 0 4.546631 0.65211487 5.758484 1.9563751c1.2160645 1.3042603 1.8240356 2.9997864 1.8240356 5.0865784c0 1.3809814 -0.33618164 2.557373 -1.0084839 3.5291748c-0.6723633 0.9768982 -1.6746216 1.6571655 -3.006897 2.0407715l0.50427246 4.027832c2.0045776 -0.47564697 3.550537 -1.5574341 4.6379395 -3.2452698c1.0914917 -1.6878662 1.6372681 -3.8590698 1.6372681 -6.513611z" fill-rule="evenodd"/><path fill="#d9d9d9" d="m907.3988 284.0249c0 2.040802 -0.63287354 3.7465515 -1.8987427 5.117279c-1.2616577 1.375885 -3.1188965 2.0638123 -5.5717163 2.0638123c-2.602234 0 -4.53833 -0.6828308 -5.8082886 -2.048462c-1.2699585 -1.3656311 -1.9049683 -3.0765076 -1.9049683 -5.1326294c0 -2.0714417 0.6308594 -3.7900085 1.8925171 -5.1556396c1.2658081 -1.3656006 3.1687012 -2.0484314 5.708679 -2.0484314c2.539978 0 4.4387207 0.6828308 5.696228 2.0484314c1.2575684 1.3656311 1.8862915 3.084198 1.8862915 5.1556396zm2.7827759 0c0 -3.0227966 -0.73461914 -5.585266 -2.2037964 -7.6874084c-1.7680054 -2.516449 -4.4885254 -3.7746582 -8.161499 -3.7746582c-3.3492432 0 -5.9141235 1.0536194 -7.69458 3.1608887c-1.7804565 2.1123657 -2.6707153 4.8794556 -2.6707153 8.301178c0 2.132843 0.4046631 4.099457 1.2139893 5.8998413c0.80926514 1.8055115 1.944397 3.1788025 3.4052734 4.1199036c1.4650269 0.946228 3.473755 1.419342 6.026184 1.419342c3.1500244 0 5.6173706 -1.0664062 7.4019775 -3.1992493c1.7887573 -2.132843 2.6831665 -4.8794556 2.6831665 -8.239838z" fill-rule="evenodd"/><path fill="#d9d9d9" d="m910.1816 311.82855c0 -3.3910828 -1.0894775 -5.9842224 -3.2683105 -7.7795105l2.8200684 0l0 -3.7286377l-19.834106 0l0 4.1429443l10.832214 0c2.539917 0 4.2644043 0.63934326 5.173279 1.9180298c0.90893555 1.283783 1.3633423 2.807953 1.3633423 4.5725403c0 1.1047974 -0.20336914 2.0663452 -0.6100464 2.8847046c-0.4025879 0.8234863 -0.94421387 1.3963318 -1.6248169 1.7185364c-0.6765137 0.3222351 -1.699585 0.48336792 -3.0691528 0.48336792l-12.064819 0l0 4.142914l12.195557 0c1.5563354 0 2.645813 -0.07672119 3.2683105 -0.23016357c0.95874023 -0.24551392 1.7866821 -0.6751404 2.4839478 -1.2889099c0.6972656 -0.61376953 1.2595825 -1.5395203 1.6870728 -2.7772827c0.43164062 -1.232666 0.64746094 -2.5855103 0.64746094 -4.0585327z" fill-rule="evenodd"/><path fill="#d9d9d9" d="m916.66223 331.41537l-2.0170288 -4.1199036l-4.911865 0l0 -3.038147l-2.614685 0l0 3.038147l-11.411133 0c-2.0170288 0 -3.3409424 0.1687622 -3.9718018 0.50634766c-0.62664795 0.33755493 -1.1329956 0.9206543 -1.5189819 1.7492371c-0.38598633 0.82858276 -0.5789795 1.994751 -0.5789795 3.4984741c0 0.9206543 0.099609375 1.9640503 0.29882812 3.130188l2.9695435 -0.5984192c-0.0871582 -0.7518616 -0.1307373 -1.3579407 -0.1307373 -1.8182678c0 -0.61376953 0.08093262 -1.0868835 0.24279785 -1.419342c0.1618042 -0.32733154 0.3796997 -0.56518555 0.6536255 -0.713501c0.27392578 -0.143219 0.8902588 -0.21481323 1.848938 -0.21481323l11.5979 0l0 4.165924l2.614685 0l0 -4.165924l6.928894 0z" fill-rule="evenodd"/><path fill="#d9d9d9" d="m907.4175 349.7133c0 2.1021423 -0.6473999 3.8130188 -1.9423218 5.1326294c-0.8341675 0.8592529 -2.0855103 1.3809509 -3.7539062 1.565094l0 -13.648621c1.7306519 0.13809204 3.112732 0.8541565 4.146118 2.1481628c1.0334473 1.2991333 1.5501099 2.900055 1.5501099 4.8027344zm2.7640991 -0.046051025c0 -3.375702 -0.9213867 -6.1223145 -2.7640991 -8.239807c-1.8427124 -2.1174927 -4.432434 -3.176239 -7.769287 -3.176239c-3.2247314 0 -5.7315063 1.0459595 -7.5202637 3.1378784c-1.7846069 2.097046 -2.676941 4.9331665 -2.676941 8.508331c0 2.838684 0.56030273 5.17099 1.6809082 6.9969482c1.1205444 1.8259583 2.6955566 3.0765076 4.7250366 3.751648l0.42956543 -4.281006c-1.4193726 -0.6291199 -2.4528198 -1.4807129 -3.1002808 -2.5548096c-0.6473999 -1.0740967 -0.9711304 -2.3706665 -0.9711304 -3.88974c0 -2.0407715 0.5789795 -3.743988 1.7368774 -5.109619c1.157959 -1.3656311 2.826355 -2.1251526 5.005249 -2.278595l0 18.228851c0.39837646 0.015350342 0.6972046 0.023010254 0.89642334 0.023010254c3.2745361 0 5.814514 -1.0357361 7.619873 -3.1071777c1.8053589 -2.0714722 2.7080688 -4.7413635 2.7080688 -8.009674z" fill-rule="evenodd"/><path fill="#d9d9d9" d="m910.1816 377.3558c0 -3.3910828 -1.0894775 -5.9842224 -3.2683105 -7.7795105l2.8200684 0l0 -3.7286377l-19.834106 0l0 4.1429443l10.832214 0c2.539917 0 4.2644043 0.63934326 5.173279 1.9180298c0.90893555 1.283783 1.3633423 2.807953 1.3633423 4.5725403c0 1.1047974 -0.20336914 2.0663452 -0.6100464 2.8847046c-0.4025879 0.8234863 -0.94421387 1.3963318 -1.6248169 1.7185364c-0.6765137 0.3222351 -1.699585 0.48336792 -3.0691528 0.48336792l-12.064819 0l0 4.142914l12.195557 0c1.5563354 0 2.645813 -0.07672119 3.2683105 -0.23016357c0.95874023 -0.24551392 1.7866821 -0.6751404 2.4839478 -1.2889099c0.6972656 -0.61376953 1.2595825 -1.5395203 1.6870728 -2.7772827c0.43164062 -1.232666 0.64746094 -2.5855103 0.64746094 -4.0585327z" fill-rule="evenodd"/><path fill="#d9d9d9" d="m916.66223 396.94263l-2.0170288 -4.1199036l-4.911865 0l0 -3.038147l-2.614685 0l0 3.038147l-11.411133 0c-2.0170288 0 -3.3409424 0.1687622 -3.9718018 0.50634766c-0.62664795 0.33755493 -1.1329956 0.9206543 -1.5189819 1.7492371c-0.38598633 0.82858276 -0.5789795 1.994751 -0.5789795 3.4984741c0 0.9206543 0.099609375 1.9640503 0.29882812 3.130188l2.9695435 -0.5984192c-0.0871582 -0.7518616 -0.1307373 -1.3579407 -0.1307373 -1.8182678c0 -0.61376953 0.08093262 -1.0868835 0.24279785 -1.419342c0.1618042 -0.32733154 0.3796997 -0.56518555 0.6536255 -0.713501c0.27392578 -0.143219 0.8902588 -0.21481323 1.848938 -0.21481323l11.5979 0l0 4.165924l2.614685 0l0 -4.165924l6.928894 0z" fill-rule="evenodd"/><path fill="#000000" fill-opacity="0.0" d="m125.32522 151.23885l-26.802116 0l0 328.88452l34.34056 0" fill-rule="evenodd"/><path stroke="#ff0000" stroke-width="3.0" stroke-linejoin="round" stroke-linecap="butt" d="m125.32522 151.23885l-26.802116 0l0 328.88452l34.34056 0" fill-rule="evenodd"/><path fill="#000000" fill-opacity="0.0" d="m839.8433 249.66405l39.608887 0l0 159.64043l-37.20996 0" fill-rule="evenodd"/><path stroke="#ff0000" stroke-width="2.0" stroke-linejoin="round" stroke-linecap="butt" d="m839.8433 249.66405l39.608887 0l0 159.64043l-37.20996 0" fill-rule="evenodd"/></g></svg>