<svg version="1.1" viewBox="0.0 0.0 463.01574803149606 339.79265091863516" fill="none" stroke="none" stroke-linecap="square" stroke-miterlimit="10" xmlns:xlink="http://www.w3.org/1999/xlink" xmlns="http://www.w3.org/2000/svg"><clipPath id="p.0"><path d="m0 0l463.01575 0l0 339.79266l-463.01575 0l0 -339.79266z" clip-rule="nonzero"/></clipPath><g clip-path="url(#p.0)"><path fill="#000000" fill-opacity="0.0" d="m0 0l463.01575 0l0 339.79266l-463.01575 0z" fill-rule="evenodd"/><path fill="#434343" d="m0 0.22309712l463.02362 0l0 339.77954l-463.02362 0z" fill-rule="evenodd"/><path stroke="#000000" stroke-width="1.0" stroke-linejoin="round" stroke-linecap="butt" d="m0 0.22309712l463.02362 0l0 339.77954l-463.02362 0z" fill-rule="evenodd"/><path fill="#3d85c6" d="m95.4042 81.31628l48.000008 0l0 47.999992l-48.000008 0z" fill-rule="evenodd"/><path stroke="#ffffff" stroke-width="2.0" stroke-linejoin="round" stroke-linecap="butt" d="m95.4042 81.31628l48.000008 0l0 47.999992l-48.000008 0z" fill-rule="evenodd"/><path fill="#ffffff" d="m121.863976 112.79627l-2.921875 0l0 -11.03125q-1.609375 1.5 -3.78125 2.21875l0 -2.65625q1.140625 -0.375 2.484375 -1.421875q1.34375 -1.046875 1.84375 -2.4375l2.375 0l0 15.328125z" fill-rule="nonzero"/><path fill="#3d85c6" d="m146.63911 81.31628l48.0 0l0 47.999992l-48.0 0z" fill-rule="evenodd"/><path stroke="#ffffff" stroke-width="2.0" stroke-linejoin="round" stroke-linecap="butt" d="m146.63911 81.31628l48.0 0l0 47.999992l-48.0 0z" fill-rule="evenodd"/><path fill="#ffffff" d="m175.48952 110.07752l0 2.71875l-10.25 0q0.171875 -1.546875 1.0 -2.921875q0.828125 -1.375 3.296875 -3.65625q1.96875 -1.84375 2.421875 -2.5q0.609375 -0.90625 0.609375 -1.796875q0 -0.96875 -0.53125 -1.5q-0.53125 -0.53125 -1.453125 -0.53125q-0.921875 0 -1.46875 0.5625q-0.53125 0.546875 -0.609375 1.828125l-2.921875 -0.296875q0.265625 -2.40625 1.640625 -3.453125q1.375 -1.0625 3.4375 -1.0625q2.25 0 3.53125 1.21875q1.296875 1.21875 1.296875 3.03125q0 1.03125 -0.375 1.96875q-0.359375 0.921875 -1.15625 1.9375q-0.53125 0.6875 -1.921875 1.953125q-1.375 1.265625 -1.75 1.6875q-0.375 0.421875 -0.59375 0.8125l5.796875 0z" fill-rule="nonzero"/><path fill="#3d85c6" d="m249.1063 81.31628l48.0 0l0 47.999992l-48.0 0z" fill-rule="evenodd"/><path stroke="#ffffff" stroke-width="2.0" stroke-linejoin="round" stroke-linecap="butt" d="m249.1063 81.31628l48.0 0l0 47.999992l-48.0 0z" fill-rule="evenodd"/><path fill="#ffffff" d="m273.81607 112.79627l0 -3.078125l-6.25 0l0 -2.5625l6.625 -9.6875l2.46875 0l0 9.6875l1.890625 0l0 2.5625l-1.890625 0l0 3.078125l-2.84375 0zm0 -5.640625l0 -5.21875l-3.5 5.21875l3.5 0z" fill-rule="nonzero"/><path fill="#3d85c6" d="m197.87138 81.31628l48.0 0l0 47.999992l-48.0 0z" fill-rule="evenodd"/><path stroke="#ffffff" stroke-width="2.0" stroke-linejoin="round" stroke-linecap="butt" d="m197.87138 81.31628l48.0 0l0 47.999992l-48.0 0z" fill-rule="evenodd"/><path fill="#ffffff" d="m216.73741 108.7494l2.84375 -0.34375q0.125 1.078125 0.71875 1.65625q0.59375 0.5625 1.4375 0.5625q0.90625 0 1.53125 -0.6875q0.625 -0.6875 0.625 -1.84375q0 -1.109375 -0.59375 -1.75q-0.59375 -0.65625 -1.453125 -0.65625q-0.5625 0 -1.34375 0.21875l0.328125 -2.375q1.1875 0.03125 1.8125 -0.515625q0.625 -0.546875 0.625 -1.453125q0 -0.765625 -0.46875 -1.21875q-0.453125 -0.46875 -1.21875 -0.46875q-0.75 0 -1.28125 0.53125q-0.53125 0.515625 -0.640625 1.515625l-2.703125 -0.46875q0.28125 -1.375 0.84375 -2.203125q0.578125 -0.828125 1.59375 -1.296875q1.015625 -0.484375 2.28125 -0.484375q2.15625 0 3.453125 1.375q1.078125 1.125 1.078125 2.546875q0 2.0 -2.203125 3.203125q1.3125 0.28125 2.09375 1.265625q0.78125 0.96875 0.78125 2.359375q0 2.0 -1.46875 3.421875q-1.453125 1.421875 -3.640625 1.421875q-2.078125 0 -3.453125 -1.1875q-1.359375 -1.203125 -1.578125 -3.125z" fill-rule="nonzero"/><path fill="#f1c232" d="m111.40551 70.931274l4.0 0l0 -23.937008l8.0 0l0 23.937008l4.0 0l-8.0 8.0z" fill-rule="evenodd"/><path stroke="#783f04" stroke-width="2.0" stroke-linejoin="round" stroke-linecap="butt" d="m111.40551 70.931274l4.0 0l0 -23.937008l8.0 0l0 23.937008l4.0 0l-8.0 8.0z" fill-rule="evenodd"/><path fill="#f1c232" d="m275.93307 68.09183l-8.0 8.0l-8.0 -8.0l4.0 0l0 -22.866142l8.0 0l0 22.866142z" fill-rule="evenodd"/><path stroke="#783f04" stroke-width="2.0" stroke-linejoin="round" stroke-linecap="butt" d="m275.93307 68.09183l-8.0 8.0l-8.0 -8.0l4.0 0l0 -22.866142l8.0 0l0 22.866142z" fill-rule="evenodd"/><path fill="#000000" fill-opacity="0.0" d="m90.637794 -0.001312336l160.0 0l0 40.0l-160.0 0z" fill-rule="evenodd"/><path fill="#efefef" d="m100.950294 18.416187l2.703125 0l0 1.515625q1.4375 -1.765625 3.4375 -1.765625q1.0625 0 1.84375 0.4375q0.78125 0.4375 1.28125 1.328125q0.734375 -0.890625 1.578125 -1.328125q0.84375 -0.4375 1.796875 -0.4375q1.21875 0 2.0625 0.5q0.84375 0.484375 1.265625 1.453125q0.296875 0.703125 0.296875 2.28125l0 7.078125l-2.921875 0l0 -6.328125q0 -1.640625 -0.3125 -2.125q-0.40625 -0.625 -1.25 -0.625q-0.609375 0 -1.15625 0.375q-0.53125 0.375 -0.78125 1.109375q-0.234375 0.71875 -0.234375 2.28125l0 5.3125l-2.921875 0l0 -6.0625q0 -1.609375 -0.15625 -2.078125q-0.15625 -0.46875 -0.484375 -0.703125q-0.328125 -0.234375 -0.890625 -0.234375q-0.671875 0 -1.21875 0.375q-0.546875 0.359375 -0.78125 1.046875q-0.234375 0.6875 -0.234375 2.28125l0 5.375l-2.921875 0l0 -11.0625zm21.370377 3.375l-2.65625 -0.484375q0.453125 -1.59375 1.546875 -2.359375q1.09375 -0.78125 3.25 -0.78125q1.953125 0 2.90625 0.46875q0.9687576 0.453125 1.3593826 1.171875q0.390625 0.71875 0.390625 2.625l-0.03125 3.40625q0 1.46875 0.125 2.15625q0.140625 0.6875 0.53125 1.484375l-2.8906326 0q-0.109375 -0.296875 -0.28125 -0.859375q-0.078125 -0.265625 -0.109375 -0.34375q-0.75 0.71875 -1.609375 1.09375q-0.84375 0.359375 -1.8125 0.359375q-1.703125 0 -2.6875 -0.921875q-0.984375 -0.9375 -0.984375 -2.34375q0 -0.9375 0.4375 -1.671875q0.453125 -0.734375 1.25 -1.125q0.8125 -0.390625 2.34375 -0.6875q2.046875 -0.390625 2.84375 -0.71875l0 -0.296875q0 -0.84375 -0.421875 -1.203125q-0.421875 -0.359375 -1.578125 -0.359375q-0.78125 0 -1.21875 0.3125q-0.4375 0.3125 -0.703125 1.078125zm3.921875 2.375q-0.5625 0.1875 -1.78125 0.453125q-1.21875 0.25 -1.59375 0.5q-0.578125 0.40625 -0.578125 1.03125q0 0.625 0.453125 1.078125q0.46875 0.4375 1.171875 0.4375q0.796875 0 1.515625 -0.515625q0.53125 -0.40625 0.6875 -0.96875q0.125 -0.375 0.125 -1.4375l0 -0.578125zm10.830452 -5.75l0 2.328125l-2.0 0l0 4.46875q0 1.34375 0.046875 1.578125q0.0625 0.21875 0.265625 0.375q0.203125 0.140625 0.5 0.140625q0.40625 0 1.171875 -0.28125l0.25 2.265625q-1.015625 0.4375 -2.3125 0.4375q-0.796875 0 -1.4375 -0.265625q-0.625 -0.265625 -0.921875 -0.6875q-0.296875 -0.421875 -0.40625 -1.140625q-0.09375 -0.515625 -0.09375 -2.0625l0 -4.828125l-1.34375 0l0 -2.328125l1.34375 0l0 -2.1875l2.9375 -1.71875l0 3.90625l2.0 0zm2.0086823 15.359375l0 -19.5625l5.1875 0l0 2.296875l-2.40625 0l0 14.96875l2.40625 0l0 2.296875l-5.1875 0zm13.977432 -4.296875l-2.921875 0l0 -11.03125q-1.609375 1.5 -3.78125 2.21875l0 -2.65625q1.140625 -0.375 2.484375 -1.421875q1.34375 -1.046875 1.84375 -2.4375l2.375 0l0 15.328125zm4.9241943 -2.921875l2.9375 0l0 2.09375q0 1.265625 -0.21875 2.0q-0.21875 0.734375 -0.828125 1.3125q-0.609375 0.59375 -1.546875 0.921875l-0.578125 -1.203125q0.890625 -0.296875 1.265625 -0.8125q0.375 -0.5 0.390625 -1.390625l-1.421875 0l0 -2.921875zm12.863144 2.921875l-2.921875 0l0 -11.03125q-1.609375 1.5 -3.78125 2.21875l0 -2.65625q1.140625 -0.375 2.484375 -1.421875q1.34375 -1.046875 1.84375 -2.4375l2.375 0l0 15.328125zm9.049194 -15.265625l0 19.5625l-5.1875 0l0 -2.296875l2.40625 0l0 -14.984375l-2.40625 0l0 -2.28125l5.1875 0z" fill-rule="nonzero"/><path fill="#000000" fill-opacity="0.0" d="m239.61942 -0.001312336l136.0 0l0 40.0l-136.0 0z" fill-rule="evenodd"/><path fill="#efefef" d="m249.93192 18.416187l2.703125 0l0 1.515625q1.4375 -1.765625 3.4375 -1.765625q1.0625 0 1.84375 0.4375q0.78125 0.4375 1.28125 1.328125q0.734375 -0.890625 1.578125 -1.328125q0.84375 -0.4375 1.796875 -0.4375q1.21875 0 2.0625 0.5q0.84375 0.484375 1.265625 1.453125q0.296875 0.703125 0.296875 2.28125l0 7.078125l-2.921875 0l0 -6.328125q0 -1.640625 -0.3125 -2.125q-0.40625 -0.625 -1.25 -0.625q-0.609375 0 -1.15625 0.375q-0.53125 0.375 -0.78125 1.109375q-0.234375 0.71875 -0.234375 2.28125l0 5.3125l-2.921875 0l0 -6.0625q0 -1.609375 -0.15625 -2.078125q-0.15625 -0.46875 -0.484375 -0.703125q-0.328125 -0.234375 -0.890625 -0.234375q-0.671875 0 -1.21875 0.375q-0.546875 0.359375 -0.78125 1.046875q-0.234375 0.6875 -0.234375 2.28125l0 5.375l-2.921875 0l0 -11.0625zm21.370392 3.375l-2.65625 -0.484375q0.453125 -1.59375 1.546875 -2.359375q1.09375 -0.78125 3.25 -0.78125q1.953125 0 2.90625 0.46875q0.96875 0.453125 1.359375 1.171875q0.390625 0.71875 0.390625 2.625l-0.03125 3.40625q0 1.46875 0.125 2.15625q0.140625 0.6875 0.53125 1.484375l-2.890625 0q-0.109375 -0.296875 -0.28125 -0.859375q-0.078125 -0.265625 -0.109375 -0.34375q-0.75 0.71875 -1.609375 1.09375q-0.84375 0.359375 -1.8125 0.359375q-1.703125 0 -2.6875 -0.921875q-0.984375 -0.9375 -0.984375 -2.34375q0 -0.9375 0.4375 -1.671875q0.453125 -0.734375 1.25 -1.125q0.8125 -0.390625 2.34375 -0.6875q2.046875 -0.390625 2.84375 -0.71875l0 -0.296875q0 -0.84375 -0.421875 -1.203125q-0.421875 -0.359375 -1.578125 -0.359375q-0.78125 0 -1.21875 0.3125q-0.4375 0.3125 -0.703125 1.078125zm3.921875 2.375q-0.5625 0.1875 -1.78125 0.453125q-1.21875 0.25 -1.59375 0.5q-0.578125 0.40625 -0.578125 1.03125q0 0.625 0.453125 1.078125q0.46875 0.4375 1.171875 0.4375q0.796875 0 1.515625 -0.515625q0.53125 -0.40625 0.6875 -0.96875q0.125 -0.375 0.125 -1.4375l0 -0.578125zm10.830444 -5.75l0 2.328125l-2.0 0l0 4.46875q0 1.34375 0.046875 1.578125q0.0625 0.21875 0.265625 0.375q0.203125 0.140625 0.5 0.140625q0.40625 0 1.171875 -0.28125l0.25 2.265625q-1.015625 0.4375 -2.3125 0.4375q-0.796875 0 -1.4375 -0.265625q-0.625 -0.265625 -0.921875 -0.6875q-0.296875 -0.421875 -0.40625 -1.140625q-0.09375 -0.515625 -0.09375 -2.0625l0 -4.828125l-1.34375 0l0 -2.328125l1.34375 0l0 -2.1875l2.9375 -1.71875l0 3.90625l2.0 0zm2.008667 15.359375l0 -19.5625l5.1875 0l0 2.296875l-2.40625 0l0 14.96875l2.40625 0l0 2.296875l-5.1875 0zm13.9774475 -4.296875l-2.921875 0l0 -11.03125q-1.609375 1.5 -3.78125 2.21875l0 -2.65625q1.140625 -0.375 2.484375 -1.421875q1.34375 -1.046875 1.84375 -2.4375l2.375 0l0 15.328125zm4.9241943 -2.921875l2.9375 0l0 2.09375q0 1.265625 -0.21875 2.0q-0.21875 0.734375 -0.828125 1.3125q-0.609375 0.59375 -1.546875 0.921875l-0.578125 -1.203125q0.890625 -0.296875 1.265625 -0.8125q0.375 -0.5 0.390625 -1.390625l-1.421875 0l0 -2.921875zm11.113129 2.921875l0 -3.078125l-6.25 0l0 -2.5625l6.625 -9.6875l2.46875 0l0 9.6875l1.890625 0l0 2.5625l-1.890625 0l0 3.078125l-2.84375 0zm0 -5.640625l0 -5.21875l-3.5 5.21875l3.5 0zm10.799194 -9.625l0 19.5625l-5.1875 0l0 -2.296875l2.40625 0l0 -14.984375l-2.40625 0l0 -2.28125l5.1875 0z" fill-rule="nonzero"/><path fill="#000000" fill-opacity="0.0" d="m300.34384 81.31759l16.0 13.721596l0 82.329605l16.0 13.721588l-16.0 13.721603l0 61.747192l-16.0 13.721619" fill-rule="evenodd"/><path stroke="#ff9900" stroke-width="3.0" stroke-linejoin="round" stroke-linecap="butt" d="m300.34384 81.31759l16.0 13.721596l0 82.329605l16.0 13.721588l-16.0 13.721603l0 61.747192l-16.0 13.721619" fill-rule="evenodd"/><path fill="#000000" fill-opacity="0.0" d="m332.34384 165.75066l134.4252 0l0 48.0l-134.4252 0z" fill-rule="evenodd"/><path fill="#efefef" d="m342.65634 184.16815l2.703125 0l0 1.515625q1.4375 -1.765625 3.4375 -1.765625q1.0625 0 1.84375 0.4375q0.78125 0.4375 1.28125 1.328125q0.734375 -0.890625 1.578125 -1.328125q0.84375 -0.4375 1.796875 -0.4375q1.21875 0 2.0625 0.5q0.84375 0.484375 1.265625 1.453125q0.296875 0.703125 0.296875 2.28125l0 7.078125l-2.921875 0l0 -6.328125q0 -1.640625 -0.3125 -2.125q-0.40625 -0.625 -1.25 -0.625q-0.609375 0 -1.15625 0.375q-0.53125 0.375 -0.78125 1.109375q-0.234375 0.71875 -0.234375 2.28125l0 5.3125l-2.921875 0l0 -6.0625q0 -1.609375 -0.15625 -2.078125q-0.15625 -0.46875 -0.484375 -0.703125q-0.328125 -0.234375 -0.890625 -0.234375q-0.671875 0 -1.21875 0.375q-0.546875 0.359375 -0.78125 1.046875q-0.234375 0.6875 -0.234375 2.28125l0 5.375l-2.921875 0l0 -11.0625zm21.370392 3.375l-2.65625 -0.484375q0.453125 -1.59375 1.546875 -2.359375q1.09375 -0.78125 3.25 -0.78125q1.953125 0 2.90625 0.46875q0.96875 0.453125 1.359375 1.171875q0.390625 0.71875 0.390625 2.625l-0.03125 3.40625q0 1.46875 0.125 2.15625q0.140625 0.6875 0.53125 1.484375l-2.890625 0q-0.109375 -0.296875 -0.28125 -0.859375q-0.078125 -0.265625 -0.109375 -0.34375q-0.75 0.71875 -1.609375 1.09375q-0.84375 0.359375 -1.8125 0.359375q-1.703125 0 -2.6875 -0.921875q-0.984375 -0.9375 -0.984375 -2.34375q0 -0.9375 0.4375 -1.671875q0.453125 -0.734375 1.25 -1.125q0.8125 -0.390625 2.34375 -0.6875q2.046875 -0.390625 2.84375 -0.71875l0 -0.296875q0 -0.84375 -0.421875 -1.203125q-0.421875 -0.359375 -1.578125 -0.359375q-0.78125 0 -1.21875 0.3125q-0.4375 0.3125 -0.703125 1.078125zm3.921875 2.375q-0.5625 0.1875 -1.78125 0.453125q-1.21875 0.25 -1.59375 0.5q-0.578125 0.40625 -0.578125 1.03125q0 0.625 0.453125 1.078125q0.46875 0.4375 1.171875 0.4375q0.796875 0 1.515625 -0.515625q0.53125 -0.40625 0.6875 -0.96875q0.125 -0.375 0.125 -1.4375l0 -0.578125zm10.830444 -5.75l0 2.328125l-2.0 0l0 4.46875q0 1.34375 0.046875 1.578125q0.0625 0.21875 0.265625 0.375q0.203125 0.140625 0.5 0.140625q0.40625 0 1.171875 -0.28125l0.25 2.265625q-1.015625 0.4375 -2.3125 0.4375q-0.796875 0 -1.4375 -0.265625q-0.625 -0.265625 -0.921875 -0.6875q-0.296875 -0.421875 -0.40625 -1.140625q-0.09375 -0.515625 -0.09375 -2.0625l0 -4.828125l-1.34375 0l0 -2.328125l1.34375 0l0 -2.1875l2.9375 -1.71875l0 3.90625l2.0 0zm2.008667 15.359375l0 -19.5625l5.1875 0l0 2.296875l-2.40625 0l0 14.96875l2.40625 0l0 2.296875l-5.1875 0zm5.8211975 -4.296875l0 -2.78125l8.015625 -9.90625l-7.109375 0l0 -2.578125l11.171875 0l0 2.390625l-8.359375 10.296875l8.671875 0l0 2.578125l-12.390625 0zm18.371826 -15.265625l0 19.5625l-5.1875 0l0 -2.296875l2.40625 0l0 -14.984375l-2.40625 0l0 -2.28125l5.1875 0zm7.914917 19.75l-2.015625 0q-1.59375 -2.40625 -2.4375 -5.0q-0.828125 -2.59375 -0.828125 -5.015625q0 -3.015625 1.03125 -5.6875q0.90625 -2.34375 2.28125 -4.3125l2.0 0q-1.4375 3.15625 -1.96875 5.375q-0.53125 2.203125 -0.53125 4.6875q0 1.703125 0.3125 3.5q0.3125 1.796875 0.875 3.40625q0.359375 1.0625 1.28125 3.046875zm7.3524475 -4.484375l0 -3.078125l-6.25 0l0 -2.5625l6.625 -9.6875l2.46875 0l0 9.6875l1.890625 0l0 2.5625l-1.890625 0l0 3.078125l-2.84375 0zm0 -5.640625l0 -5.21875l-3.5 5.21875l3.5 0zm6.6741943 2.71875l2.9375 0l0 2.09375q0 1.265625 -0.21875 2.0q-0.21875 0.734375 -0.828125 1.3125q-0.609375 0.59375 -1.546875 0.921875l-0.578125 -1.203125q0.890625 -0.296875 1.265625 -0.8125q0.375 -0.5 0.390625 -1.390625l-1.421875 0l0 -2.921875zm11.113129 2.921875l0 -3.078125l-6.25 0l0 -2.5625l6.625 -9.6875l2.46875 0l0 9.6875l1.890625 0l0 2.5625l-1.890625 0l0 3.078125l-2.84375 0zm0 -5.640625l0 -5.21875l-3.5 5.21875l3.5 0zm5.9398193 10.125q0.859375 -1.84375 1.21875 -2.84375q0.359375 -0.984375 0.65625 -2.265625q0.296875 -1.296875 0.4375 -2.453125q0.15625 -1.171875 0.15625 -2.390625q0 -2.484375 -0.53125 -4.6875q-0.53125 -2.21875 -1.953125 -5.375l1.984375 0q1.578125 2.25 2.4375 4.765625q0.875 2.5 0.875 5.078125q0 2.171875 -0.6875 4.671875q-0.78125 2.78125 -2.578125 5.5l-2.015625 0z" fill-rule="nonzero"/><path fill="#3d85c6" d="m95.4042 131.7021l48.000008 0l0 48.0l-48.000008 0z" fill-rule="evenodd"/><path stroke="#ffffff" stroke-width="2.0" stroke-linejoin="round" stroke-linecap="butt" d="m95.4042 131.7021l48.000008 0l0 48.0l-48.000008 0z" fill-rule="evenodd"/><path fill="#ffffff" d="m114.426476 159.26022l2.90625 -0.3125q0.125 1.0 0.734375 1.578125q0.625 0.578125 1.421875 0.578125q0.921875 0 1.546875 -0.75q0.640625 -0.75 0.640625 -2.25q0 -1.40625 -0.625 -2.109375q-0.625 -0.703125 -1.640625 -0.703125q-1.265625 0 -2.265625 1.125l-2.375 -0.34375l1.5 -7.953125l7.75 0l0 2.75l-5.53125 0l-0.453125 2.578125q0.984375 -0.484375 2.0 -0.484375q1.953125 0 3.296875 1.421875q1.359375 1.40625 1.359375 3.671875q0 1.890625 -1.09375 3.359375q-1.484375 2.03125 -4.140625 2.03125q-2.109375 0 -3.453125 -1.140625q-1.328125 -1.140625 -1.578125 -3.046875z" fill-rule="nonzero"/><path fill="#3d85c6" d="m146.63911 131.7021l48.0 0l0 48.0l-48.0 0z" fill-rule="evenodd"/><path stroke="#ffffff" stroke-width="2.0" stroke-linejoin="round" stroke-linecap="butt" d="m146.63911 131.7021l48.0 0l0 48.0l-48.0 0z" fill-rule="evenodd"/><path fill="#ffffff" d="m175.52077 151.65085l-2.828125 0.3125q-0.09375 -0.875 -0.53125 -1.28125q-0.4375 -0.421875 -1.140625 -0.421875q-0.921875 0 -1.5625 0.84375q-0.640625 0.828125 -0.8125 3.453125q1.09375 -1.296875 2.71875 -1.296875q1.828125 0 3.125 1.40625q1.3125 1.390625 1.3125 3.59375q0 2.34375 -1.375 3.765625q-1.359375 1.421875 -3.515625 1.421875q-2.3125 0 -3.8125 -1.796875q-1.484375 -1.796875 -1.484375 -5.890625q0 -4.203125 1.546875 -6.046875q1.5625 -1.859375 4.03125 -1.859375q1.75 0 2.890625 0.984375q1.140625 0.96875 1.4375 2.8125zm-6.625 6.390625q0 1.421875 0.65625 2.203125q0.65625 0.765625 1.5 0.765625q0.8125 0 1.34375 -0.625q0.546875 -0.640625 0.546875 -2.09375q0 -1.484375 -0.578125 -2.171875q-0.578125 -0.703125 -1.453125 -0.703125q-0.84375 0 -1.4375 0.671875q-0.578125 0.65625 -0.578125 1.953125z" fill-rule="nonzero"/><path fill="#3d85c6" d="m249.1063 131.7021l48.0 0l0 48.0l-48.0 0z" fill-rule="evenodd"/><path stroke="#ffffff" stroke-width="2.0" stroke-linejoin="round" stroke-linecap="butt" d="m249.1063 131.7021l48.0 0l0 48.0l-48.0 0z" fill-rule="evenodd"/><path fill="#ffffff" d="m270.59732 154.94772q-1.140625 -0.484375 -1.65625 -1.3125q-0.515625 -0.84375 -0.515625 -1.84375q0 -1.703125 1.1875 -2.8125q1.203125 -1.125 3.390625 -1.125q2.1875 0 3.390625 1.125q1.203125 1.109375 1.203125 2.8125q0 1.0625 -0.5625 1.890625q-0.546875 0.828125 -1.546875 1.265625q1.265625 0.5 1.921875 1.484375q0.671875 0.984375 0.671875 2.265625q0 2.109375 -1.359375 3.4375q-1.34375 1.3125 -3.578125 1.3125q-2.078125 0 -3.46875 -1.09375q-1.640625 -1.28125 -1.640625 -3.53125q0 -1.25 0.609375 -2.28125q0.625 -1.03125 1.953125 -1.59375zm0.59375 -2.953125q0 0.875 0.5 1.375q0.5 0.484375 1.3125 0.484375q0.84375 0 1.34375 -0.5q0.5 -0.5 0.5 -1.359375q0 -0.828125 -0.5 -1.3125q-0.5 -0.5 -1.3125 -0.5q-0.84375 0 -1.34375 0.5q-0.5 0.5 -0.5 1.3125zm-0.265625 6.546875q0 1.203125 0.609375 1.890625q0.625 0.671875 1.5625 0.671875q0.90625 0 1.5 -0.65625q0.59375 -0.65625 0.59375 -1.875q0 -1.078125 -0.609375 -1.71875q-0.609375 -0.65625 -1.53125 -0.65625q-1.078125 0 -1.609375 0.734375q-0.515625 0.734375 -0.515625 1.609375z" fill-rule="nonzero"/><path fill="#3d85c6" d="m197.87138 131.7021l48.0 0l0 48.0l-48.0 0z" fill-rule="evenodd"/><path stroke="#ffffff" stroke-width="2.0" stroke-linejoin="round" stroke-linecap="butt" d="m197.87138 131.7021l48.0 0l0 48.0l-48.0 0z" fill-rule="evenodd"/><path fill="#ffffff" d="m216.84679 150.83835l0 -2.71875l10.0 0l0 2.125q-1.234375 1.21875 -2.515625 3.5q-1.28125 2.28125 -1.953125 4.859375q-0.671875 2.5625 -0.65625 4.578125l-2.828125 0q0.078125 -3.171875 1.3125 -6.453125q1.234375 -3.296875 3.296875 -5.890625l-6.65625 0z" fill-rule="nonzero"/><path fill="#3d85c6" d="m95.4042 182.08792l48.000008 0l0 48.0l-48.000008 0z" fill-rule="evenodd"/><path stroke="#ffffff" stroke-width="2.0" stroke-linejoin="round" stroke-linecap="butt" d="m95.4042 182.08792l48.000008 0l0 48.0l-48.000008 0z" fill-rule="evenodd"/><path fill="#ffffff" d="m114.4421 210.03668l2.828125 -0.3125q0.109375 0.859375 0.546875 1.28125q0.4375 0.421875 1.15625 0.421875q0.90625 0 1.53125 -0.828125q0.640625 -0.84375 0.828125 -3.46875q-1.109375 1.28125 -2.765625 1.28125q-1.796875 0 -3.109375 -1.390625q-1.3125 -1.390625 -1.3125 -3.625q0 -2.3125 1.375 -3.734375q1.390625 -1.421875 3.53125 -1.421875q2.3125 0 3.796875 1.796875q1.5 1.796875 1.5 5.90625q0 4.1875 -1.5625 6.046875q-1.546875 1.84375 -4.03125 1.84375q-1.796875 0 -2.90625 -0.953125q-1.09375 -0.953125 -1.40625 -2.84375zm6.625 -6.390625q0 -1.421875 -0.65625 -2.203125q-0.640625 -0.78125 -1.5 -0.78125q-0.8125 0 -1.359375 0.640625q-0.53125 0.640625 -0.53125 2.09375q0 1.484375 0.578125 2.1875q0.59375 0.6875 1.46875 0.6875q0.84375 0 1.421875 -0.671875q0.578125 -0.671875 0.578125 -1.953125z" fill-rule="nonzero"/><path fill="#3d85c6" d="m146.63911 182.08792l48.0 0l0 48.0l-48.0 0z" fill-rule="evenodd"/><path stroke="#ffffff" stroke-width="2.0" stroke-linejoin="round" stroke-linecap="butt" d="m146.63911 182.08792l48.0 0l0 48.0l-48.0 0z" fill-rule="evenodd"/><path fill="#ffffff" d="m167.16805 213.56793l-2.921875 0l0 -11.03125q-1.609375 1.5 -3.78125 2.21875l0 -2.65625q1.140625 -0.375 2.484375 -1.421875q1.34375 -1.046875 1.84375 -2.4375l2.375 0l0 15.328125zm9.330444 -15.328125q2.21875 0 3.46875 1.578125q1.484375 1.875 1.484375 6.21875q0 4.328125 -1.5 6.234375q-1.234375 1.5625 -3.453125 1.5625q-2.234375 0 -3.609375 -1.71875q-1.359375 -1.71875 -1.359375 -6.109375q0 -4.3125 1.5 -6.203125q1.25 -1.5625 3.46875 -1.5625zm0 2.421875q-0.53125 0 -0.953125 0.34375q-0.421875 0.34375 -0.640625 1.21875q-0.3125 1.125 -0.3125 3.8125q0 2.6875 0.265625 3.703125q0.28125 1.0 0.6875 1.328125q0.421875 0.328125 0.953125 0.328125q0.53125 0 0.9375 -0.328125q0.421875 -0.34375 0.65625 -1.21875q0.296875 -1.125 0.296875 -3.8125q0 -2.6875 -0.28125 -3.6875q-0.265625 -1.0 -0.671875 -1.34375q-0.40625 -0.34375 -0.9375 -0.34375z" fill-rule="nonzero"/><path fill="#3d85c6" d="m249.1063 182.08792l48.0 0l0 48.0l-48.0 0z" fill-rule="evenodd"/><path stroke="#ffffff" stroke-width="2.0" stroke-linejoin="round" stroke-linecap="butt" d="m249.1063 182.08792l48.0 0l0 48.0l-48.0 0z" fill-rule="evenodd"/><path fill="#ffffff" d="m269.63522 213.56793l-2.921875 0l0 -11.03125q-1.609375 1.5 -3.78125 2.21875l0 -2.65625q1.140625 -0.375 2.484375 -1.421875q1.34375 -1.046875 1.84375 -2.4375l2.375 0l0 15.328125zm14.252319 -2.71875l0 2.71875l-10.25 0q0.171875 -1.546875 1.0 -2.921875q0.828125 -1.375 3.296875 -3.65625q1.96875 -1.84375 2.421875 -2.5q0.609375 -0.90625 0.609375 -1.796875q0 -0.96875 -0.53125 -1.5q-0.53125 -0.53125 -1.453125 -0.53125q-0.921875 0 -1.46875 0.5625q-0.53125 0.546875 -0.609375 1.828125l-2.921875 -0.296875q0.265625 -2.40625 1.640625 -3.453125q1.375 -1.0625 3.4375 -1.0625q2.25 0 3.53125 1.21875q1.296875 1.21875 1.296875 3.03125q0 1.03125 -0.375 1.96875q-0.359375 0.921875 -1.15625 1.9375q-0.53125 0.6875 -1.921875 1.953125q-1.375 1.265625 -1.75 1.6875q-0.375 0.421875 -0.59375 0.8125l5.796875 0z" fill-rule="nonzero"/><path fill="#3d85c6" d="m197.87138 182.08792l48.0 0l0 48.0l-48.0 0z" fill-rule="evenodd"/><path stroke="#ffffff" stroke-width="2.0" stroke-linejoin="round" stroke-linecap="butt" d="m197.87138 182.08792l48.0 0l0 48.0l-48.0 0z" fill-rule="evenodd"/><path fill="#ffffff" d="m218.98886 213.56793l-2.921875 0l0 -11.03125q-1.609375 1.5 -3.78125 2.21875l0 -2.65625q1.140625 -0.375 2.484375 -1.421875q1.34375 -1.046875 1.84375 -2.4375l2.375 0l0 15.328125zm10.684616 0l-2.921875 0l0 -11.03125q-1.609375 1.5 -3.78125 2.21875l0 -2.65625q1.140625 -0.375 2.484375 -1.421875q1.34375 -1.046875 1.84375 -2.4375l2.375 0l0 15.328125z" fill-rule="nonzero"/><path fill="#3d85c6" d="m95.4042 232.47375l48.000008 0l0 48.0l-48.000008 0z" fill-rule="evenodd"/><path stroke="#ffffff" stroke-width="2.0" stroke-linejoin="round" stroke-linecap="butt" d="m95.4042 232.47375l48.000008 0l0 48.0l-48.000008 0z" fill-rule="evenodd"/><path fill="#ffffff" d="m115.93313 263.95377l-2.921875 0l0 -11.031265q-1.609375 1.5 -3.78125 2.21875l0 -2.65625q1.140625 -0.375 2.484375 -1.421875q1.34375 -1.046875 1.84375 -2.4375l2.375 0l0 15.32814zm4.2679443 -4.046875l2.84375 -0.34375q0.125 1.078125 0.71875 1.65625q0.59375 0.5625 1.4375 0.5625q0.90625 0 1.53125 -0.6875q0.625 -0.6875 0.625 -1.84375q0 -1.109375 -0.59375 -1.75q-0.59375 -0.65625 -1.453125 -0.65625q-0.5625 0 -1.34375 0.21875l0.328125 -2.3750153q1.1875 0.03125 1.8125 -0.515625q0.625 -0.546875 0.625 -1.453125q0 -0.765625 -0.46875 -1.21875q-0.453125 -0.46875 -1.21875 -0.46875q-0.75 0 -1.28125 0.53125q-0.53125 0.515625 -0.640625 1.515625l-2.703125 -0.46875q0.28125 -1.375 0.84375 -2.203125q0.578125 -0.828125 1.59375 -1.296875q1.015625 -0.484375 2.28125 -0.484375q2.15625 0 3.4531326 1.375q1.078125 1.125 1.078125 2.546875q0 2.0 -2.2031326 3.203125q1.3125076 0.28126526 2.0937576 1.2656403q0.78125 0.96875 0.78125 2.359375q0 2.0 -1.46875 3.421875q-1.4531326 1.421875 -3.6406326 1.421875q-2.078125 0 -3.453125 -1.1875q-1.359375 -1.203125 -1.578125 -3.125z" fill-rule="nonzero"/><path fill="#3d85c6" d="m146.63911 232.47375l48.0 0l0 48.0l-48.0 0z" fill-rule="evenodd"/><path stroke="#ffffff" stroke-width="2.0" stroke-linejoin="round" stroke-linecap="butt" d="m146.63911 232.47375l48.0 0l0 48.0l-48.0 0z" fill-rule="evenodd"/><path fill="#ffffff" d="m167.16805 263.95377l-2.921875 0l0 -11.031265q-1.609375 1.5 -3.78125 2.21875l0 -2.65625q1.140625 -0.375 2.484375 -1.421875q1.34375 -1.046875 1.84375 -2.4375l2.375 0l0 15.32814zm10.111694 0l0 -3.078125l-6.25 0l0 -2.5625l6.625 -9.687515l2.46875 0l0 9.687515l1.890625 0l0 2.5625l-1.890625 0l0 3.078125l-2.84375 0zm0 -5.640625l0 -5.2187653l-3.5 5.2187653l3.5 0z" fill-rule="nonzero"/><path fill="#3d85c6" d="m249.1063 232.47375l48.0 0l0 48.0l-48.0 0z" fill-rule="evenodd"/><path stroke="#ffffff" stroke-width="2.0" stroke-linejoin="round" stroke-linecap="butt" d="m249.1063 232.47375l48.0 0l0 48.0l-48.0 0z" fill-rule="evenodd"/><path fill="#ffffff" d="m269.63522 263.95377l-2.921875 0l0 -11.031265q-1.609375 1.5 -3.78125 2.21875l0 -2.65625q1.140625 -0.375 2.484375 -1.421875q1.34375 -1.046875 1.84375 -2.4375l2.375 0l0 15.32814zm14.283569 -11.531265l-2.828125 0.3125q-0.09375 -0.875 -0.53125 -1.28125q-0.4375 -0.421875 -1.140625 -0.421875q-0.921875 0 -1.5625 0.84375q-0.640625 0.828125 -0.8125 3.453125q1.09375 -1.296875 2.71875 -1.296875q1.828125 0 3.125 1.40625q1.3125 1.3906403 1.3125 3.5937653q0 2.34375 -1.375 3.765625q-1.359375 1.421875 -3.515625 1.421875q-2.3125 0 -3.8125 -1.796875q-1.484375 -1.796875 -1.484375 -5.890625q0 -4.2031403 1.546875 -6.0468903q1.5625 -1.859375 4.03125 -1.859375q1.75 0 2.890625 0.984375q1.140625 0.96875 1.4375 2.8125zm-6.625 6.3906403q0 1.421875 0.65625 2.203125q0.65625 0.765625 1.5 0.765625q0.8125 0 1.34375 -0.625q0.546875 -0.640625 0.546875 -2.09375q0 -1.484375 -0.578125 -2.171875q-0.578125 -0.703125 -1.453125 -0.703125q-0.84375 0 -1.4375 0.671875q-0.578125 0.65625 -0.578125 1.953125z" fill-rule="nonzero"/><path fill="#3d85c6" d="m197.87138 232.47375l48.0 0l0 48.0l-48.0 0z" fill-rule="evenodd"/><path stroke="#ffffff" stroke-width="2.0" stroke-linejoin="round" stroke-linecap="butt" d="m197.87138 232.47375l48.0 0l0 48.0l-48.0 0z" fill-rule="evenodd"/><path fill="#ffffff" d="m218.40031 263.95377l-2.921875 0l0 -11.031265q-1.609375 1.5 -3.78125 2.21875l0 -2.65625q1.140625 -0.375 2.484375 -1.421875q1.34375 -1.046875 1.84375 -2.4375l2.375 0l0 15.32814zm4.4241943 -3.921875l2.90625 -0.3125q0.125 1.0 0.734375 1.578125q0.625 0.578125 1.421875 0.578125q0.921875 0 1.546875 -0.75q0.640625 -0.75 0.640625 -2.25q0 -1.40625 -0.625 -2.109375q-0.625 -0.703125 -1.640625 -0.703125q-1.265625 0 -2.265625 1.125l-2.375 -0.34375l1.5 -7.9531403l7.75 0l0 2.75l-5.53125 0l-0.453125 2.578125q0.984375 -0.484375 2.0 -0.484375q1.953125 0 3.296875 1.421875q1.359375 1.4062653 1.359375 3.6718903q0 1.890625 -1.09375 3.359375q-1.484375 2.03125 -4.140625 2.03125q-2.109375 0 -3.453125 -1.140625q-1.328125 -1.140625 -1.578125 -3.046875z" fill-rule="nonzero"/><path fill="#f1c232" d="m278.1719 296.54025l-8.0 -8.0l-8.0 8.0l4.0 0l0 28.094513l8.0 0l0 -28.094513z" fill-rule="evenodd"/><path stroke="#783f04" stroke-width="2.0" stroke-linejoin="round" stroke-linecap="butt" d="m278.1719 296.54025l-8.0 -8.0l-8.0 8.0l4.0 0l0 28.094513l8.0 0l0 -28.094513z" fill-rule="evenodd"/><path fill="#000000" fill-opacity="0.0" d="m131.00919 290.61917l136.0 0l0 31.937012l-136.0 0z" fill-rule="evenodd"/><path fill="#efefef" d="m177.53954 309.03665l2.703125 0l0 1.515625q1.4375 -1.765625 3.4375 -1.765625q1.0625 0 1.84375 0.4375q0.78125 0.4375 1.28125 1.328125q0.734375 -0.890625 1.578125 -1.328125q0.84375 -0.4375 1.796875 -0.4375q1.21875 0 2.0625 0.5q0.84375 0.484375 1.265625 1.453125q0.296875 0.703125 0.296875 2.28125l0 7.078125l-2.921875 0l0 -6.328125q0 -1.640625 -0.3125 -2.125q-0.40625 -0.625 -1.25 -0.625q-0.609375 0 -1.15625 0.375q-0.53125 0.375 -0.78125 1.109375q-0.234375 0.71875 -0.234375 2.28125l0 5.3125l-2.921875 0l0 -6.0625q0 -1.609375 -0.15625 -2.078125q-0.15625 -0.46875 -0.484375 -0.703125q-0.328125 -0.234375 -0.890625 -0.234375q-0.671875 0 -1.21875 0.375q-0.546875 0.359375 -0.78125 1.046875q-0.234375 0.6875 -0.234375 2.28125l0 5.375l-2.921875 0l0 -11.0625zm21.370377 3.375l-2.65625 -0.484375q0.453125 -1.59375 1.546875 -2.359375q1.09375 -0.78125 3.25 -0.78125q1.953125 0 2.90625 0.46875q0.96875 0.453125 1.359375 1.171875q0.390625 0.71875 0.390625 2.625l-0.03125 3.40625q0 1.46875 0.125 2.15625q0.140625 0.6875 0.53125 1.484375l-2.890625 0q-0.109375 -0.296875 -0.28125 -0.859375q-0.078125 -0.265625 -0.109375 -0.34375q-0.75 0.71875 -1.609375 1.09375q-0.84375 0.359375 -1.8125 0.359375q-1.703125 0 -2.6875 -0.921875q-0.984375 -0.9375 -0.984375 -2.34375q0 -0.9375 0.4375 -1.671875q0.453125 -0.734375 1.25 -1.125q0.8125 -0.390625 2.34375 -0.6875q2.046875 -0.390625 2.84375 -0.71875l0 -0.296875q0 -0.84375 -0.421875 -1.203125q-0.421875 -0.359375 -1.578125 -0.359375q-0.78125 0 -1.21875 0.3125q-0.4375 0.3125 -0.703125 1.078125zm3.921875 2.375q-0.5625 0.1875 -1.78125 0.453125q-1.21875 0.25 -1.59375 0.5q-0.578125 0.40625 -0.578125 1.03125q0 0.625 0.453125 1.078125q0.46875 0.4375 1.171875 0.4375q0.796875 0 1.515625 -0.515625q0.53125 -0.40625 0.6875 -0.96875q0.125 -0.375 0.125 -1.4375l0 -0.578125zm10.830444 -5.75l0 2.328125l-2.0 0l0 4.46875q0 1.34375 0.046875 1.578125q0.0625 0.21875 0.265625 0.375q0.203125 0.140625 0.5 0.140625q0.40625 0 1.171875 -0.28125l0.25 2.265625q-1.015625 0.4375 -2.3125 0.4375q-0.796875 0 -1.4375 -0.265625q-0.625 -0.265625 -0.921875 -0.6875q-0.296875 -0.421875 -0.40625 -1.140625q-0.09375 -0.515625 -0.09375 -2.0625l0 -4.828125l-1.34375 0l0 -2.328125l1.34375 0l0 -2.1875l2.9375 -1.71875l0 3.90625l2.0 0zm2.0086823 15.359375l0 -19.5625l5.1875 0l0 2.296875l-2.40625 0l0 14.96875l2.40625 0l0 2.296875l-5.1875 0zm12.227432 -4.296875l0 -3.078125l-6.25 0l0 -2.5625l6.625 -9.6875l2.46875 0l0 9.6875l1.890625 0l0 2.5625l-1.890625 0l0 3.078125l-2.84375 0zm0 -5.640625l0 -5.21875l-3.5 5.21875l3.5 0zm6.6741943 2.71875l2.9375 0l0 2.09375q0 1.265625 -0.21875 2.0q-0.21875 0.734375 -0.828125 1.3125q-0.609375 0.59375 -1.546875 0.921875l-0.578125 -1.203125q0.890625 -0.296875 1.265625 -0.8125q0.375 -0.5 0.390625 -1.390625l-1.421875 0l0 -2.921875zm11.113144 2.921875l0 -3.078125l-6.25 0l0 -2.5625l6.625 -9.6875l2.46875 0l0 9.6875l1.890625 0l0 2.5625l-1.890625 0l0 3.078125l-2.84375 0zm0 -5.640625l0 -5.21875l-3.5 5.21875l3.5 0zm10.79921 -9.625l0 19.5625l-5.1875153 0l0 -2.296875l2.40625 0l0 -14.984375l-2.40625 0l0 -2.28125l5.1875153 0z" fill-rule="nonzero"/><path fill="#f1c232" d="m77.04593 176.75542l0 -4.0l-23.937004 0l0 -8.0l23.937004 0l0 -4.0l8.0 8.0z" fill-rule="evenodd"/><path stroke="#783f04" stroke-width="2.0" stroke-linejoin="round" stroke-linecap="butt" d="m77.04593 176.75542l0 -4.0l-23.937004 0l0 -8.0l23.937004 0l0 -4.0l8.0 8.0z" fill-rule="evenodd"/><path fill="#000000" fill-opacity="0.0" d="m-1.9737533 124.90026l103.338585 0l0 40.000008l-103.338585 0z" fill-rule="evenodd"/><path fill="#efefef" d="m8.338747 143.31776l2.703125 0l0 1.515625q1.4375 -1.765625 3.4375 -1.765625q1.0625 0 1.84375 0.4375q0.78125 0.4375 1.28125 1.328125q0.734375 -0.890625 1.578125 -1.328125q0.84375 -0.4375 1.796875 -0.4375q1.21875 0 2.0625 0.5q0.84375 0.484375 1.265625 1.453125q0.296875 0.703125 0.296875 2.28125l0 7.078125l-2.921875 0l0 -6.328125q0 -1.640625 -0.3125 -2.125q-0.40625 -0.625 -1.25 -0.625q-0.609375 0 -1.15625 0.375q-0.53125 0.375 -0.78125 1.109375q-0.234375 0.71875 -0.234375 2.28125l0 5.3125l-2.921875 0l0 -6.0625q0 -1.609375 -0.15625 -2.078125q-0.15625 -0.46875 -0.484375 -0.703125q-0.328125 -0.234375 -0.890625 -0.234375q-0.671875 0 -1.21875 0.375q-0.546875 0.359375 -0.78125 1.046875q-0.234375 0.6875 -0.234375 2.28125l0 5.375l-2.921875 0l0 -11.0625zm21.370377 3.375l-2.65625 -0.484375q0.453125 -1.59375 1.546875 -2.359375q1.09375 -0.78125 3.25 -0.78125q1.9531231 0 2.906248 0.46875q0.96875 0.453125 1.359375 1.171875q0.390625 0.71875 0.390625 2.625l-0.03125 3.40625q0 1.46875 0.125 2.15625q0.140625 0.6875 0.53125 1.484375l-2.890625 0q-0.109375 -0.296875 -0.28125 -0.859375q-0.078125 -0.265625 -0.109375 -0.34375q-0.75 0.71875 -1.609375 1.09375q-0.8437481 0.359375 -1.8124981 0.359375q-1.703125 0 -2.6875 -0.921875q-0.984375 -0.9375 -0.984375 -2.34375q0 -0.9375 0.4375 -1.671875q0.453125 -0.734375 1.25 -1.125q0.8125 -0.390625 2.34375 -0.6875q2.046873 -0.390625 2.843748 -0.71875l0 -0.296875q0 -0.84375 -0.421875 -1.203125q-0.421875 -0.359375 -1.5781231 -0.359375q-0.78125 0 -1.21875 0.3125q-0.4375 0.3125 -0.703125 1.078125zm3.921873 2.375q-0.5625 0.1875 -1.7812481 0.453125q-1.21875 0.25 -1.59375 0.5q-0.578125 0.40625 -0.578125 1.03125q0 0.625 0.453125 1.078125q0.46875 0.4375 1.171875 0.4375q0.7968731 0 1.5156231 -0.515625q0.53125 -0.40625 0.6875 -0.96875q0.125 -0.375 0.125 -1.4375l0 -0.578125zm10.830444 -5.75l0 2.328125l-2.0 0l0 4.46875q0 1.34375 0.046875 1.578125q0.0625 0.21875 0.265625 0.375q0.203125 0.140625 0.5 0.140625q0.40625 0 1.171875 -0.28125l0.25 2.265625q-1.015625 0.4375 -2.3125 0.4375q-0.796875 0 -1.4375 -0.265625q-0.625 -0.265625 -0.921875 -0.6875q-0.296875 -0.421875 -0.40625 -1.140625q-0.09375 -0.515625 -0.09375 -2.0625l0 -4.828125l-1.34375 0l0 -2.328125l1.34375 0l0 -2.1875l2.9375 -1.71875l0 3.90625l2.0 0zm2.0086823 15.359375l0 -19.5625l5.1875 0l0 2.296875l-2.40625 0l0 14.96875l2.40625 0l0 2.296875l-5.1875 0zm16.368057 -7.015625l0 2.71875l-10.25 0q0.171875 -1.546875 1.0 -2.921875q0.828125 -1.375 3.296875 -3.65625q1.96875 -1.84375 2.421875 -2.5q0.609375 -0.90625 0.609375 -1.796875q0 -0.96875 -0.53125 -1.5q-0.53125 -0.53125 -1.453125 -0.53125q-0.921875 0 -1.46875 0.5625q-0.53125 0.546875 -0.609375 1.828125l-2.921875 -0.296875q0.265625 -2.40625 1.640625 -3.453125q1.375 -1.0625 3.4375 -1.0625q2.25 0 3.53125 1.21875q1.296875 1.21875 1.296875 3.03125q0 1.03125 -0.375 1.96875q-0.359375 0.921875 -1.15625 1.9375q-0.53125 0.6875 -1.921875 1.953125q-1.375 1.265625 -1.75 1.6875q-0.375 0.421875 -0.59375 0.8125l5.796875 0zm2.5335693 -0.203125l2.9375 0l0 2.09375q0 1.265625 -0.21875 2.0q-0.21875 0.734375 -0.828125 1.3125q-0.609375 0.59375 -1.546875 0.921875l-0.578125 -1.203125q0.890625 -0.296875 1.265625 -0.8125q0.375 -0.5 0.390625 -1.390625l-1.421875 0l0 -2.921875zm12.863144 2.921875l-2.921875 0l0 -11.03125q-1.609375 1.5 -3.78125 2.21875l0 -2.65625q1.140625 -0.375 2.484375 -1.421875q1.34375 -1.046875 1.84375 -2.4375l2.375 0l0 15.328125zm9.049194 -15.265625l0 19.5625l-5.1875 0l0 -2.296875l2.40625 0l0 -14.984375l-2.40625 0l0 -2.28125l5.1875 0z" fill-rule="nonzero"/><path fill="#000000" fill-opacity="0.0" d="m-18.76903 218.0853l114.173225 0l0 31.937012l-114.173225 0z" fill-rule="evenodd"/><path fill="#efefef" d="m5.9345465 236.5028l2.703125 0l0 1.515625q1.4375 -1.765625 3.4375 -1.765625q1.0625 0 1.84375 0.4375q0.78125 0.4375 1.28125 1.328125q0.734375 -0.890625 1.578124 -1.328125q0.84375 -0.4375 1.796875 -0.4375q1.21875 0 2.0625 0.5q0.84375 0.484375 1.265625 1.453125q0.296875 0.703125 0.296875 2.28125l0 7.078125l-2.921875 0l0 -6.328125q0 -1.640625 -0.3125 -2.125q-0.40625 -0.625 -1.25 -0.625q-0.609375 0 -1.15625 0.375q-0.53125 0.375 -0.78124905 1.109375q-0.234375 0.71875 -0.234375 2.28125l0 5.3125l-2.921875 0l0 -6.0625q0 -1.609375 -0.15625 -2.078125q-0.15625 -0.46875 -0.484375 -0.703125q-0.328125 -0.234375 -0.890625 -0.234375q-0.671875 0 -1.21875 0.375q-0.546875 0.359375 -0.78125 1.046875q-0.234375 0.6875 -0.234375 2.28125l0 5.375l-2.921875 0l0 -11.0625zm21.370377 3.375l-2.65625 -0.484375q0.453125 -1.59375 1.546875 -2.359375q1.09375 -0.78125 3.25 -0.78125q1.953125 0 2.906252 0.46875q0.96875 0.453125 1.359375 1.171875q0.390625 0.71875 0.390625 2.625l-0.03125 3.40625q0 1.46875 0.125 2.15625q0.140625 0.6875 0.53125 1.484375l-2.890627 0q-0.109375 -0.296875 -0.28125 -0.859375q-0.078125 -0.265625 -0.109375 -0.34375q-0.75 0.71875 -1.609375 1.09375q-0.84375 0.359375 -1.8125 0.359375q-1.703125 0 -2.6875 -0.921875q-0.984375 -0.9375 -0.984375 -2.34375q0 -0.9375 0.4375 -1.671875q0.453125 -0.734375 1.25 -1.125q0.8125 -0.390625 2.34375 -0.6875q2.046875 -0.390625 2.84375 -0.71875l0 -0.296875q0 -0.84375 -0.421875 -1.203125q-0.421875 -0.359375 -1.578125 -0.359375q-0.78125 0 -1.21875 0.3125q-0.4375 0.3125 -0.703125 1.078125zm3.921875 2.375q-0.5625 0.1875 -1.78125 0.453125q-1.21875 0.25 -1.59375 0.5q-0.578125 0.40625 -0.578125 1.03125q0 0.625 0.453125 1.078125q0.46875 0.4375 1.171875 0.4375q0.796875 0 1.515625 -0.515625q0.53125 -0.40625 0.6875 -0.96875q0.125 -0.375 0.125 -1.4375l0 -0.578125zm10.830446 -5.75l0 2.328125l-2.0 0l0 4.46875q0 1.34375 0.046875 1.578125q0.0625 0.21875 0.265625 0.375q0.203125 0.140625 0.5 0.140625q0.40625 0 1.171875 -0.28125l0.25 2.265625q-1.015625 0.4375 -2.3125 0.4375q-0.796875 0 -1.4375 -0.265625q-0.625 -0.265625 -0.921875 -0.6875q-0.296875 -0.421875 -0.40625 -1.140625q-0.09375 -0.515625 -0.09375 -2.0625l0 -4.828125l-1.34375 0l0 -2.328125l1.34375 0l0 -2.1875l2.9375 -1.71875l0 3.90625l2.0 0zm2.0086823 15.359375l0 -19.5625l5.1875 0l0 2.296875l-2.40625 0l0 14.96875l2.40625 0l0 2.296875l-5.1875 0zm12.227432 -4.296875l0 -3.078125l-6.25 0l0 -2.5625l6.625 -9.6875l2.46875 0l0 9.6875l1.890625 0l0 2.5625l-1.890625 0l0 3.078125l-2.84375 0zm0 -5.640625l0 -5.21875l-3.5 5.21875l3.5 0zm6.6741943 2.71875l2.9375 0l0 2.09375q0 1.265625 -0.21875 2.0q-0.21875 0.734375 -0.828125 1.3125q-0.609375 0.59375 -1.546875 0.921875l-0.578125 -1.203125q0.890625 -0.296875 1.265625 -0.8125q0.375 -0.5 0.390625 -1.390625l-1.421875 0l0 -2.921875zm12.863144 2.921875l-2.921875 0l0 -11.03125q-1.609375 1.5 -3.78125 2.21875l0 -2.65625q1.140625 -0.375 2.484375 -1.421875q1.34375 -1.046875 1.84375 -2.4375l2.375 0l0 15.328125zm9.049194 -15.265625l0 19.5625l-5.1875 0l0 -2.296875l2.40625 0l0 -14.984375l-2.40625 0l0 -2.28125l5.1875 0z" fill-rule="nonzero"/><path fill="#f1c232" d="m77.04593 224.68456l0 -4.0l-23.937004 0l0 -8.0l23.937004 0l0 -4.0l8.0 8.0z" fill-rule="evenodd"/><path stroke="#783f04" stroke-width="2.0" stroke-linejoin="round" stroke-linecap="butt" d="m77.04593 224.68456l0 -4.0l-23.937004 0l0 -8.0l23.937004 0l0 -4.0l8.0 8.0z" fill-rule="evenodd"/><path fill="#000000" fill-opacity="0.0" d="m-4.32021 171.49344l108.0315 0l0 40.0l-108.0315 0z" fill-rule="evenodd"/><path fill="#efefef" d="m5.99229 189.91093l2.7031255 0l0 1.515625q1.4375 -1.765625 3.4375 -1.765625q1.0625 0 1.84375 0.4375q0.78125 0.4375 1.28125 1.328125q0.734375 -0.890625 1.578125 -1.328125q0.84375 -0.4375 1.796875 -0.4375q1.21875 0 2.0625 0.5q0.84375 0.484375 1.265625 1.453125q0.296875 0.703125 0.296875 2.28125l0 7.078125l-2.921875 0l0 -6.328125q0 -1.640625 -0.3125 -2.125q-0.40625 -0.625 -1.25 -0.625q-0.609375 0 -1.15625 0.375q-0.53125 0.375 -0.78125 1.109375q-0.234375 0.71875 -0.234375 2.28125l0 5.3125l-2.921875 0l0 -6.0625q0 -1.609375 -0.15625 -2.078125q-0.15625 -0.46875 -0.484375 -0.703125q-0.328125 -0.234375 -0.890625 -0.234375q-0.671875 0 -1.21875 0.375q-0.546875 0.359375 -0.78125 1.046875q-0.234375 0.6875 -0.234375 2.28125l0 5.375l-2.9218755 0l0 -11.0625zm21.370377 3.375l-2.65625 -0.484375q0.453125 -1.59375 1.546875 -2.359375q1.09375 -0.78125 3.25 -0.78125q1.953125 0 2.90625 0.46875q0.96875 0.453125 1.359375 1.171875q0.390625 0.71875 0.390625 2.625l-0.03125 3.40625q0 1.46875 0.125 2.15625q0.140625 0.6875 0.53125 1.484375l-2.890625 0q-0.109375 -0.296875 -0.28125 -0.859375q-0.078125 -0.265625 -0.109375 -0.34375q-0.75 0.71875 -1.609375 1.09375q-0.84375 0.359375 -1.8125 0.359375q-1.703125 0 -2.6875 -0.921875q-0.984375 -0.9375 -0.984375 -2.34375q0 -0.9375 0.4375 -1.671875q0.453125 -0.734375 1.25 -1.125q0.8125 -0.390625 2.34375 -0.6875q2.046875 -0.390625 2.84375 -0.71875l0 -0.296875q0 -0.84375 -0.421875 -1.203125q-0.421875 -0.359375 -1.578125 -0.359375q-0.78125 0 -1.21875 0.3125q-0.4375 0.3125 -0.703125 1.078125zm3.921875 2.375q-0.5625 0.1875 -1.78125 0.453125q-1.21875 0.25 -1.59375 0.5q-0.578125 0.40625 -0.578125 1.03125q0 0.625 0.453125 1.078125q0.46875 0.4375 1.171875 0.4375q0.796875 0 1.515625 -0.515625q0.53125 -0.40625 0.6875 -0.96875q0.125 -0.375 0.125 -1.4375l0 -0.578125zm10.830444 -5.75l0 2.328125l-2.0 0l0 4.46875q0 1.34375 0.046875 1.578125q0.0625 0.21875 0.265625 0.375q0.203125 0.140625 0.5 0.140625q0.40625 0 1.171875 -0.28125l0.25 2.265625q-1.015625 0.4375 -2.3125 0.4375q-0.796875 0 -1.4375 -0.265625q-0.625 -0.265625 -0.921875 -0.6875q-0.296875 -0.421875 -0.40625 -1.140625q-0.09375 -0.515625 -0.09375 -2.0625l0 -4.828125l-1.34375 0l0 -2.328125l1.34375 0l0 -2.1875l2.9375 -1.71875l0 3.90625l2.0 0zm2.0086823 15.359375l0 -19.5625l5.1875 0l0 2.296875l-2.40625 0l0 14.96875l2.40625 0l0 2.296875l-5.1875 0zm6.3836823 -8.34375l2.84375 -0.34375q0.125 1.078125 0.71875 1.65625q0.59375 0.5625 1.4375 0.5625q0.90625 0 1.53125 -0.6875q0.625 -0.6875 0.625 -1.84375q0 -1.109375 -0.59375 -1.75q-0.59375 -0.65625 -1.453125 -0.65625q-0.5625 0 -1.34375 0.21875l0.328125 -2.375q1.1875 0.03125 1.8125 -0.515625q0.625 -0.546875 0.625 -1.453125q0 -0.765625 -0.46875 -1.21875q-0.453125 -0.46875 -1.21875 -0.46875q-0.75 0 -1.28125 0.53125q-0.53125 0.515625 -0.640625 1.515625l-2.703125 -0.46875q0.28125 -1.375 0.84375 -2.203125q0.578125 -0.828125 1.59375 -1.296875q1.015625 -0.484375 2.28125 -0.484375q2.15625 0 3.453125 1.375q1.078125 1.125 1.078125 2.546875q0 2.0 -2.203125 3.203125q1.3125 0.28125 2.09375 1.265625q0.78125 0.96875 0.78125 2.359375q0 2.0 -1.46875 3.421875q-1.453125 1.421875 -3.640625 1.421875q-2.078125 0 -3.453125 -1.1875q-1.359375 -1.203125 -1.578125 -3.125zm12.517944 1.125l2.9374962 0l0 2.09375q0 1.265625 -0.21875 2.0q-0.21875 0.734375 -0.828125 1.3125q-0.609375 0.59375 -1.5468712 0.921875l-0.578125 -1.203125q0.890625 -0.296875 1.2656212 -0.8125q0.375 -0.5 0.390625 -1.390625l-1.4218712 0l0 -2.921875zm12.86314 2.921875l-2.921875 0l0 -11.03125q-1.609375 1.5 -3.78125 2.21875l0 -2.65625q1.140625 -0.375 2.484375 -1.421875q1.34375 -1.046875 1.84375 -2.4375l2.375 0l0 15.328125zm9.049194 -15.265625l0 19.5625l-5.1875 0l0 -2.296875l2.40625 0l0 -14.984375l-2.40625 0l0 -2.28125l5.1875 0z" fill-rule="nonzero"/><path fill="#f1c232" d="m77.04593 272.615l0 -4.0l-23.937004 0l0 -8.0l23.937004 0l0 -4.0l8.0 8.0z" fill-rule="evenodd"/><path stroke="#783f04" stroke-width="2.0" stroke-linejoin="round" stroke-linecap="butt" d="m77.04593 272.615l0 -4.0l-23.937004 0l0 -8.0l23.937004 0l0 -4.0l8.0 8.0z" fill-rule="evenodd"/></g></svg>