<svg version="1.1" viewBox="0.0 0.0 194.07611548556432 176.21784776902888" fill="none" stroke="none" stroke-linecap="square" stroke-miterlimit="10" xmlns:xlink="http://www.w3.org/1999/xlink" xmlns="http://www.w3.org/2000/svg"><clipPath id="p.0"><path d="m0 0l194.07611 0l0 176.21785l-194.07611 0l0 -176.21785z" clip-rule="nonzero"/></clipPath><g clip-path="url(#p.0)"><path fill="#000000" fill-opacity="0.0" d="m0 0l194.07611 0l0 176.21785l-194.07611 0z" fill-rule="evenodd"/><path fill="#000000" d="m5.658217 126.50915l14.97917 -13.6601715l4.86335 17.156242z" fill-rule="evenodd"/><path stroke="#000000" stroke-width="1.0" stroke-linejoin="round" stroke-linecap="butt" d="m5.658217 126.50915l14.97917 -13.6601715l4.86335 17.156242z" fill-rule="evenodd"/><path fill="#000000" fill-opacity="0.0" d="m80.509186 155.45145l-5.291336 9.259842" fill-rule="evenodd"/><path stroke="#000000" stroke-width="4.0" stroke-linejoin="round" stroke-linecap="round" d="m80.509186 155.45145l-5.291336 9.259842" fill-rule="evenodd"/><path fill="#cfe2f3" d="m77.89684 32.417385l0 0c9.123573 15.803173 8.693481 33.16183 -0.9606323 38.771656l0 0c-4.6360626 2.6939316 -10.822716 2.262825 -17.198948 -1.1984787c-6.37624 -3.461296 -12.419754 -9.669266 -16.801048 -17.258217l0 0c-9.1235695 -15.803173 -8.693481 -33.161835 0.9606285 -38.771652l0 0c9.654114 -5.6098213 24.876434 2.6535215 34.0 18.456692z" fill-rule="evenodd"/><path stroke="#000000" stroke-width="1.0" stroke-linejoin="round" stroke-linecap="butt" d="m77.89684 32.417385l0 0c9.123573 15.803173 8.693481 33.16183 -0.9606323 38.771656l0 0c-4.6360626 2.6939316 -10.822716 2.262825 -17.198948 -1.1984787c-6.37624 -3.461296 -12.419754 -9.669266 -16.801048 -17.258217l0 0c-9.1235695 -15.803173 -8.693481 -33.161835 0.9606285 -38.771652l0 0c9.654114 -5.6098213 24.876434 2.6535215 34.0 18.456692z" fill-rule="evenodd"/><path fill="#000000" fill-opacity="0.0" d="m73.671875 71.420715l-12.881889 -17.00787" fill-rule="evenodd"/><path stroke="#999999" stroke-width="1.0" stroke-linejoin="round" stroke-linecap="butt" d="m73.671875 71.420715l-12.881889 -17.00787" fill-rule="evenodd"/><path fill="#000000" fill-opacity="0.0" d="m98.29265 155.29396l3.9370117 9.417328" fill-rule="evenodd"/><path stroke="#000000" stroke-width="4.0" stroke-linejoin="round" stroke-linecap="round" d="m98.29265 155.29396l3.9370117 9.417328" fill-rule="evenodd"/><path fill="#000000" fill-opacity="0.0" d="m68.64304 155.20845l-11.181103 8.503937" fill-rule="evenodd"/><path stroke="#000000" stroke-width="4.0" stroke-linejoin="round" stroke-linecap="round" d="m68.64304 155.20845l-11.181103 8.503937" fill-rule="evenodd"/><path fill="#ffd966" d="m20.435696 111.54593l0 0c0 -24.34401 27.631435 -44.078735 61.716534 -44.078735l0 0c34.085106 0 61.71653 19.734726 61.71653 44.078735l0 0c0 24.344025 -27.631424 44.078735 -61.71653 44.078735l0 0c-34.0851 0 -61.716534 -19.73471 -61.716534 -44.078735z" fill-rule="evenodd"/><path stroke="#000000" stroke-width="2.0" stroke-linejoin="round" stroke-linecap="butt" d="m20.435696 111.54593l0 0c0 -24.34401 27.631435 -44.078735 61.716534 -44.078735l0 0c34.085106 0 61.71653 19.734726 61.71653 44.078735l0 0c0 24.344025 -27.631424 44.078735 -61.71653 44.078735l0 0c-34.0851 0 -61.716534 -19.73471 -61.716534 -44.078735z" fill-rule="evenodd"/><path fill="#000000" d="m28.467192 90.00787l1.4489574 44.732285l15.633041 10.842514l-2.317772 -68.31758z" fill-rule="evenodd"/><path stroke="#000000" stroke-width="1.0" stroke-linejoin="round" stroke-linecap="butt" d="m28.467192 90.00787l1.4489574 44.732285l15.633041 10.842514l-2.317772 -68.31758z" fill-rule="evenodd"/><path fill="#000000" d="m120.91601 77.119995l1.083992 67.51854l-20.87664 8.542877l0.54330444 -83.777214z" fill-rule="evenodd"/><path stroke="#000000" stroke-width="1.0" stroke-linejoin="round" stroke-linecap="butt" d="m120.91601 77.119995l1.083992 67.51854l-20.87664 8.542877l0.54330444 -83.777214z" fill-rule="evenodd"/><path fill="#000000" d="m59.645668 70.75853l18.162727 -3.2519684l2.7112885 87.837265l-18.706036 -2.4409332z" fill-rule="evenodd"/><path stroke="#000000" stroke-width="1.0" stroke-linejoin="round" stroke-linecap="butt" d="m59.645668 70.75853l18.162727 -3.2519684l2.7112885 87.837265l-18.706036 -2.4409332z" fill-rule="evenodd"/><path fill="#000000" fill-opacity="0.0" d="m91.64042 154.79002l-1.6692886 10.582672" fill-rule="evenodd"/><path stroke="#000000" stroke-width="4.0" stroke-linejoin="round" stroke-linecap="round" d="m91.64042 154.79002l-1.6692886 10.582672" fill-rule="evenodd"/><path fill="#cfe2f3" d="m82.720436 35.801296l0 0c9.123566 -15.803173 24.374084 -24.11587 34.06299 -18.56693l0 0c4.6527786 2.6646957 7.3745193 8.234951 7.56649 15.485373c0.1919632 7.2504234 -2.1615753 15.587093 -6.5428696 23.176044l0 0c-9.123566 15.803169 -24.374092 24.115868 -34.06299 18.566933l0 0c-9.688904 -5.5489426 -10.147194 -22.85825 -1.0236206 -38.66142z" fill-rule="evenodd"/><path stroke="#000000" stroke-width="1.0" stroke-linejoin="round" stroke-linecap="butt" d="m82.720436 35.801296l0 0c9.123566 -15.803173 24.374084 -24.11587 34.06299 -18.56693l0 0c4.6527786 2.6646957 7.3745193 8.234951 7.56649 15.485373c0.1919632 7.2504234 -2.1615753 15.587093 -6.5428696 23.176044l0 0c-9.123566 15.803169 -24.374092 24.115868 -34.06299 18.566933l0 0c-9.688904 -5.5489426 -10.147194 -22.85825 -1.0236206 -38.66142z" fill-rule="evenodd"/><path fill="#000000" fill-opacity="0.0" d="m83.74406 74.462715l11.90551 -19.149609" fill-rule="evenodd"/><path stroke="#999999" stroke-width="1.0" stroke-linejoin="round" stroke-linecap="butt" d="m83.74406 74.462715l11.90551 -19.149609" fill-rule="evenodd"/><path fill="#999999" d="m93.9895 109.67716l0 0c0 -18.81247 15.250519 -34.06299 34.06299 -34.06299l0 0c9.034073 0 17.69812 3.588768 24.086182 9.976822c6.3880463 6.3880463 9.976807 15.052101 9.976807 24.086166l0 0c0 18.812477 -15.250519 34.062996 -34.06299 34.062996l0 0c-18.81247 0 -34.06299 -15.250519 -34.06299 -34.062996z" fill-rule="evenodd"/><path stroke="#000000" stroke-width="1.0" stroke-linejoin="round" stroke-linecap="butt" d="m93.9895 109.67716l0 0c0 -18.81247 15.250519 -34.06299 34.06299 -34.06299l0 0c9.034073 0 17.69812 3.588768 24.086182 9.976822c6.3880463 6.3880463 9.976807 15.052101 9.976807 24.086166l0 0c0 18.812477 -15.250519 34.062996 -34.06299 34.062996l0 0c-18.81247 0 -34.06299 -15.250519 -34.06299 -34.062996z" fill-rule="evenodd"/><path fill="#000000" fill-opacity="0.0" d="m135.96588 81.7635c2.9990845 -5.1544647 12.424866 -25.7723 17.994476 -30.926762c5.5696106 -5.154461 12.852661 0 15.423187 0" fill-rule="evenodd"/><path stroke="#000000" stroke-width="3.0" stroke-linejoin="round" stroke-linecap="butt" d="m135.96588 81.76349c2.9990692 -5.1544495 12.424866 -25.772297 17.994476 -30.926758c0.69621277 -0.6443062 1.4191895 -1.1275368 2.156372 -1.4798927c0.3685913 -0.17617798 0.7407532 -0.3196373 1.1148987 -0.4341545c0.18707275 -0.05725479 0.3746338 -0.10727692 0.5625 -0.15053177c0.093933105 -0.021629333 0.1879425 -0.041568756 0.28201294 -0.05987549l0.14248657 -0.025279999" fill-rule="evenodd"/><path fill="#000000" stroke="#000000" stroke-width="3.0" stroke-linecap="butt" d="m167.9106 50.553127c-0.51530457 2.676365 -3.1026764 4.4282417 -5.7790527 3.9129257c-2.676361 -0.5153198 -4.428238 -3.1026878 -3.912918 -5.7790527c0.5153198 -2.6763687 3.1026917 -4.4282455 5.7790527 -3.9129257c2.676361 0.515316 4.428238 3.102684 3.912918 5.7790527z" fill-rule="nonzero"/><path fill="#000000" fill-opacity="0.0" d="m126.38058 81.763435c-2.7306137 -5.154457 -11.312645 -25.772297 -16.383682 -30.926758c-5.0710373 -5.154461 -11.702133 0 -14.042557 0" fill-rule="evenodd"/><path stroke="#000000" stroke-width="3.0" stroke-linejoin="round" stroke-linecap="butt" d="m126.38058 81.763435c-2.7306137 -5.154457 -11.312645 -25.772297 -16.383682 -30.926758c-0.6338806 -0.6443062 -1.2921371 -1.1275406 -1.9633408 -1.4798965c-0.1678009 -0.088085175 -0.33641815 -0.16799545 -0.5056534 -0.24020004c-0.084617615 -0.03609848 -0.16939545 -0.07027054 -0.2543106 -0.10257721l-0.10231018 -0.036640167" fill-rule="evenodd"/><path fill="#000000" stroke="#000000" stroke-width="3.0" stroke-linecap="butt" d="m97.43414 50.591385c-0.4457016 -2.688839 1.3727188 -5.2298813 4.061554 -5.675579c2.6888428 -0.4457016 5.2298813 1.3727188 5.675583 4.061558c0.4457016 2.6888351 -1.3727188 5.2298775 -4.0615616 5.675579c-2.6888351 0.44569778 -5.2298737 -1.3727226 -5.6755753 -4.061558z" fill-rule="nonzero"/><defs><radialGradient id="p.1" gradientUnits="userSpaceOnUse" gradientTransform="matrix(-4.622922920593476 0.8151911863083882 -0.8151911863083882 -4.622922920593476 0.0 0.0)" spreadMethod="pad" cx="-18.51531625296711" cy="-25.86538743769014" fx="-18.51531625296711" fy="-25.86538743769014" r="4.622922897338867"><stop offset="0.0" stop-color="#696969"/><stop offset="1.0" stop-color="#1d1d1d"/></radialGradient></defs><path fill="url(#p.1)" d="m120.52264 102.03922l0 0c1.5829239 8.993111 -3.3313675 17.376312 -10.976379 18.724411l0 0c-3.6712646 0.647377 -7.494133 -0.4473343 -10.627609 -3.0433044c-3.133484 -2.5959778 -5.3209 -6.480568 -6.0810547 -10.799217l0 0c-1.5829239 -8.993103 3.3313675 -17.376312 10.976379 -18.724403l0 0c7.645012 -1.3480988 15.12574 4.8494034 16.708664 13.842514z" fill-rule="evenodd"/><path stroke="#000000" stroke-width="1.0" stroke-linejoin="round" stroke-linecap="butt" d="m120.52264 102.03922l0 0c1.5829239 8.993111 -3.3313675 17.376312 -10.976379 18.724411l0 0c-3.6712646 0.647377 -7.494133 -0.4473343 -10.627609 -3.0433044c-3.133484 -2.5959778 -5.3209 -6.480568 -6.0810547 -10.799217l0 0c-1.5829239 -8.993103 3.3313675 -17.376312 10.976379 -18.724403l0 0c7.645012 -1.3480988 15.12574 4.8494034 16.708664 13.842514z" fill-rule="evenodd"/><defs><radialGradient id="p.2" gradientUnits="userSpaceOnUse" gradientTransform="matrix(-4.623183172249601 -0.8099774839361411 0.8099774839361411 -4.623183172249601 0.0 0.0)" spreadMethod="pad" cx="-35.099742032772895" cy="-16.188931480572883" fx="-35.099742032772895" fy="-16.188931480572883" r="4.623183250427246"><stop offset="0.0" stop-color="#696969"/><stop offset="1.0" stop-color="#1d1d1d"/></radialGradient></defs><path fill="url(#p.2)" d="m163.00238 105.69959l0 0c-1.5829163 8.993111 -9.063644 15.19767 -16.708649 13.858269l0 0c-3.6712646 -0.64320374 -6.8901978 -2.9756317 -8.948669 -6.484192c-2.0584717 -3.5085526 -2.787857 -7.9058304 -2.02771 -12.224472l0 0c1.5829163 -8.993111 9.063644 -15.197662 16.708649 -13.858269l0 0c7.6450195 1.3394012 12.559311 9.715553 10.976379 18.708664z" fill-rule="evenodd"/><path stroke="#000000" stroke-width="1.0" stroke-linejoin="round" stroke-linecap="butt" d="m163.00238 105.69959l0 0c-1.5829163 8.993111 -9.063644 15.19767 -16.708649 13.858269l0 0c-3.6712646 -0.64320374 -6.8901978 -2.9756317 -8.948669 -6.484192c-2.0584717 -3.5085526 -2.787857 -7.9058304 -2.02771 -12.224472l0 0c1.5829163 -8.993111 9.063644 -15.197662 16.708649 -13.858269l0 0c7.6450195 1.3394012 12.559311 9.715553 10.976379 18.708664z" fill-rule="evenodd"/><path fill="#000000" fill-opacity="0.0" d="m119.92126 134.07611c1.2121658 0.330719 4.848648 1.9291382 7.272972 1.9842529c2.4243164 0.055114746 6.0608063 -1.377945 7.2729645 -1.6535339" fill-rule="evenodd"/><path stroke="#000000" stroke-width="3.0" stroke-linejoin="round" stroke-linecap="round" d="m119.92126 134.07611c1.2121658 0.330719 4.848648 1.9291382 7.272972 1.9842529c2.4243164 0.055114746 6.0608063 -1.377945 7.2729645 -1.6535339" fill-rule="evenodd"/></g></svg>