<svg version="1.1" viewBox="0.0 0.0 559.1286089238845 630.9790026246719" fill="none" stroke="none" stroke-linecap="square" stroke-miterlimit="10" xmlns:xlink="http://www.w3.org/1999/xlink" xmlns="http://www.w3.org/2000/svg"><clipPath id="p.0"><path d="m0 0l559.1286 0l0 630.979l-559.1286 0l0 -630.979z" clip-rule="nonzero"/></clipPath><g clip-path="url(#p.0)"><path fill="#000000" fill-opacity="0.0" d="m0 0l559.1286 0l0 630.979l-559.1286 0z" fill-rule="evenodd"/><path fill="#434343" d="m0.007874016 0.010498688l559.1181 0l0 630.9921l-559.1181 0z" fill-rule="evenodd"/><path stroke="#434343" stroke-width="4.0" stroke-linejoin="round" stroke-linecap="butt" d="m0.007874016 0.010498688l559.1181 0l0 630.9921l-559.1181 0z" fill-rule="evenodd"/><path fill="#cfe2f3" d="m327.37747 32.719162l95.401886 0l0 0c12.497894 0 22.629456 10.661827 22.629456 23.813858c0 13.152031 -10.131561 23.813858 -22.629456 23.813858l-95.401886 0l0 0c-12.497894 0 -22.629456 -10.661827 -22.629456 -23.813858c0 -13.152031 10.131561 -23.813858 22.629456 -23.813858z" fill-rule="evenodd"/><path stroke="#1155cc" stroke-width="2.0" stroke-linejoin="round" stroke-linecap="butt" d="m327.37747 32.719162l95.401886 0l0 0c12.497894 0 22.629456 10.661827 22.629456 23.813858c0 13.152031 -10.131561 23.813858 -22.629456 23.813858l-95.401886 0l0 0c-12.497894 0 -22.629456 -10.661827 -22.629456 -23.813858c0 -13.152031 10.131561 -23.813858 22.629456 -23.813858z" fill-rule="evenodd"/><path fill="#000000" d="m363.75204 53.781143l0 2.03125l-1.75 0l0 3.90625q0 1.1875 0.046875 1.390625q0.046875 0.1875 0.21875 0.3125q0.1875 0.125 0.4375 0.125q0.359375 0 1.03125 -0.25l0.21875 2.0q-0.890625 0.375 -2.015625 0.375q-0.703125 0 -1.265625 -0.234375q-0.546875 -0.234375 -0.8125 -0.59375q-0.25 -0.375 -0.34375 -1.0q-0.09375 -0.453125 -0.09375 -1.8125l0 -4.21875l-1.171875 0l0 -2.03125l1.171875 0l0 -1.921875l2.578125 -1.5l0 3.421875l1.75 0zm4.228302 9.671875l-2.5625 0l0 -9.671875l2.375 0l0 1.375q0.609375 -0.984375 1.09375 -1.28125q0.484375 -0.3125 1.109375 -0.3125q0.875 0 1.6875 0.484375l-0.796875 2.234375q-0.640625 -0.421875 -1.203125 -0.421875q-0.53125 0 -0.90625 0.296875q-0.375 0.296875 -0.59375 1.078125q-0.203125 0.765625 -0.203125 3.234375l0 2.984375zm4.807129 -10.984375l0 -2.375l2.5625 0l0 2.375l-2.5625 0zm0 10.984375l0 -9.671875l2.5625 0l0 9.671875l-2.5625 0zm7.089569 -6.71875l-2.328125 -0.421875q0.40625 -1.40625 1.359375 -2.078125q0.953125 -0.671875 2.84375 -0.671875q1.703125 0 2.546875 0.40625q0.84375 0.40625 1.171875 1.03125q0.34375 0.625 0.34375 2.28125l-0.015625 3.0q0 1.265625 0.109375 1.875q0.125 0.609375 0.46875 1.296875l-2.53125 0q-0.109375 -0.25 -0.25 -0.75q-0.0625 -0.234375 -0.09375 -0.3125q-0.65625 0.640625 -1.40625 0.96875q-0.734375 0.3125 -1.59375 0.3125q-1.484375 0 -2.34375 -0.8125q-0.859375 -0.8125 -0.859375 -2.046875q0 -0.828125 0.390625 -1.46875q0.390625 -0.640625 1.09375 -0.96875q0.703125 -0.34375 2.03125 -0.609375q1.796875 -0.328125 2.484375 -0.625l0 -0.25q0 -0.75 -0.359375 -1.0625q-0.359375 -0.3125 -1.375 -0.3125q-0.6875 0 -1.078125 0.28125q-0.375 0.265625 -0.609375 0.9375zm3.421875 2.078125q-0.484375 0.15625 -1.5625 0.390625q-1.0625 0.21875 -1.390625 0.4375q-0.5 0.359375 -0.5 0.90625q0 0.53125 0.40625 0.9375q0.40625 0.390625 1.015625 0.390625q0.703125 0 1.328125 -0.46875q0.46875 -0.34375 0.609375 -0.84375q0.09375 -0.328125 0.09375 -1.25l0 -0.5zm5.047577 4.640625l0 -13.359375l2.5625 0l0 13.359375l-2.5625 0z" fill-rule="nonzero"/><path fill="#cfe2f3" d="m303.2362 119.03412l140.66144 0l0 54.267715l-140.66144 0z" fill-rule="evenodd"/><path stroke="#1155cc" stroke-width="2.0" stroke-linejoin="round" stroke-linecap="butt" d="m303.2362 119.03412l140.66144 0l0 54.267715l-140.66144 0z" fill-rule="evenodd"/><path fill="#000000" d="m361.21118 143.4161l0 2.03125l-1.75 0l0 3.90625q0 1.1875 0.046875 1.390625q0.046875 0.1875 0.21875 0.3125q0.1875 0.125 0.4375 0.125q0.359375 0 1.03125 -0.25l0.21875 2.0q-0.890625 0.375 -2.015625 0.375q-0.703125 0 -1.265625 -0.234375q-0.546875 -0.234375 -0.8125 -0.59375q-0.25 -0.375 -0.34375 -1.0q-0.09375 -0.453125 -0.09375 -1.8125l0 -4.21875l-1.171875 0l0 -2.03125l1.171875 0l0 -1.921875l2.578125 -1.5l0 3.421875l1.75 0zm4.228302 9.671875l-2.5625 0l0 -9.671875l2.375 0l0 1.375q0.609375 -0.984375 1.09375 -1.28125q0.484375 -0.3125 1.1093445 -0.3125q0.875 0 1.6875 0.484375l-0.796875 2.234375q-0.640625 -0.421875 -1.2030945 -0.421875q-0.53125 0 -0.90625 0.296875q-0.375 0.296875 -0.59375 1.078125q-0.203125 0.765625 -0.203125 3.234375l0 2.984375zm3.588379 -9.671875l2.71875 0l2.328125 6.859375l2.25 -6.859375l2.65625 0l-3.421875 9.3125l-0.609375 1.6875q-0.328125 0.84375 -0.640625 1.28125q-0.3125 0.453125 -0.703125 0.71875q-0.390625 0.28125 -0.96875 0.4375q-0.578125 0.15625 -1.3125 0.15625q-0.734375 0 -1.453125 -0.15625l-0.21875 -2.0q0.59375 0.125 1.078125 0.125q0.890625 0 1.3125 -0.53125q0.4375 -0.515625 0.671875 -1.328125l-3.6875 -9.703125zm15.828827 13.59375l-1.75 0q-1.390625 -2.09375 -2.125 -4.359375q-0.734375 -2.28125 -0.734375 -4.40625q0 -2.625 0.90625 -4.96875q0.78125 -2.046875 1.984375 -3.765625l1.75 0q-1.25 2.75 -1.71875 4.6875q-0.46875 1.9375 -0.46875 4.109375q0 1.5 0.28125 3.0625q0.28125 1.5625 0.765625 2.96875q0.3125 0.9375 1.109375 2.671875zm1.259552 0q0.765625 -1.609375 1.0625 -2.484375q0.3125 -0.859375 0.578125 -1.984375q0.265625 -1.140625 0.390625 -2.15625q0.125 -1.015625 0.125 -2.078125q0 -2.171875 -0.46875 -4.109375q-0.453125 -1.9375 -1.703125 -4.6875l1.734375 0q1.375 1.953125 2.140625 4.15625q0.765625 2.1875 0.765625 4.453125q0 1.90625 -0.609375 4.078125q-0.671875 2.4375 -2.25 4.8125l-1.765625 0z" fill-rule="nonzero"/><path fill="#cfe2f3" d="m134.08353 558.32153l95.40187 0l0 0c12.49791 0 22.629456 10.661804 22.629456 23.813843c0 13.152039 -10.131546 23.813843 -22.629456 23.813843l-95.40187 0l0 0c-12.497902 0 -22.629456 -10.661804 -22.629456 -23.813843c0 -13.152039 10.131554 -23.813843 22.629456 -23.813843z" fill-rule="evenodd"/><path stroke="#1155cc" stroke-width="2.0" stroke-linejoin="round" stroke-linecap="butt" d="m134.08353 558.32153l95.40187 0l0 0c12.49791 0 22.629456 10.661804 22.629456 23.813843c0 13.152039 -10.131546 23.813843 -22.629456 23.813843l-95.40187 0l0 0c-12.497902 0 -22.629456 -10.661804 -22.629456 -23.813843c0 -13.152039 10.131554 -23.813843 22.629456 -23.813843z" fill-rule="evenodd"/><path fill="#000000" d="m169.72139 589.05536l-2.390625 0l0 -1.421875q-0.59375 0.828125 -1.40625 1.234375q-0.796875 0.40625 -1.609375 0.40625q-1.671875 0 -2.859375 -1.34375q-1.1875 -1.34375 -1.1875 -3.75q0 -2.453125 1.15625 -3.734375q1.15625 -1.28125 2.921875 -1.28125q1.625 0 2.8125 1.34375l0 -4.8125l2.5625 0l0 13.359375zm-6.84375 -5.046875q0 1.546875 0.4375 2.234375q0.609375 1.015625 1.71875 1.015625q0.890625 0 1.5 -0.75q0.625 -0.765625 0.625 -2.25q0 -1.671875 -0.609375 -2.40625q-0.59375 -0.734375 -1.53125 -0.734375q-0.90625 0 -1.53125 0.734375q-0.609375 0.71875 -0.609375 2.15625zm8.770981 0.078125q0 -1.28125 0.625 -2.46875q0.625 -1.203125 1.78125 -1.828125q1.15625 -0.625 2.578125 -0.625q2.1875 0 3.59375 1.421875q1.40625 1.421875 1.40625 3.609375q0 2.1875 -1.421875 3.640625q-1.421875 1.4375 -3.5625 1.4375q-1.328125 0 -2.546875 -0.59375q-1.203125 -0.609375 -1.828125 -1.765625q-0.625 -1.171875 -0.625 -2.828125zm2.625 0.125q0 1.453125 0.671875 2.21875q0.6875 0.75 1.6875 0.75q1.0 0 1.671875 -0.75q0.6875 -0.765625 0.6875 -2.234375q0 -1.421875 -0.6875 -2.1875q-0.671875 -0.765625 -1.671875 -0.765625q-1.0 0 -1.6875 0.765625q-0.671875 0.765625 -0.671875 2.203125zm18.161606 4.84375l-2.5625 0l0 -4.9375q0 -1.5625 -0.171875 -2.015625q-0.15625 -0.46875 -0.53125 -0.71875q-0.359375 -0.265625 -0.875 -0.265625q-0.671875 0 -1.203125 0.375q-0.53125 0.359375 -0.734375 0.96875q-0.1875 0.59375 -0.1875 2.21875l0 4.375l-2.546875 0l0 -9.671875l2.375 0l0 1.421875q1.265625 -1.640625 3.1875 -1.640625q0.84375 0 1.546875 0.3125q0.703125 0.296875 1.0625 0.78125q0.359375 0.46875 0.5 1.078125q0.140625 0.59375 0.140625 1.703125l0 6.015625zm8.192856 -3.078125l2.546875 0.421875q-0.484375 1.40625 -1.546875 2.140625q-1.0625 0.734375 -2.65625 0.734375q-2.515625 0 -3.734375 -1.65625q-0.953125 -1.3125 -0.953125 -3.328125q0 -2.40625 1.25 -3.765625q1.265625 -1.359375 3.1875 -1.359375q2.15625 0 3.40625 1.421875q1.25 1.421875 1.1875 4.375l-6.40625 0q0.03125 1.140625 0.609375 1.78125q0.59375 0.625 1.484375 0.625q0.59375 0 1.0 -0.328125q0.421875 -0.328125 0.625 -1.0625zm0.15625 -2.59375q-0.03125 -1.109375 -0.578125 -1.6875q-0.546875 -0.578125 -1.328125 -0.578125q-0.84375 0 -1.390625 0.609375q-0.546875 0.609375 -0.53125 1.65625l3.828125 0z" fill-rule="nonzero"/><path fill="#f4cccc" d="m108.69685 201.97244l140.6614 0l0 54.2677l-140.6614 0z" fill-rule="evenodd"/><path stroke="#ea9999" stroke-width="2.0" stroke-linejoin="round" stroke-linecap="butt" d="m108.69685 201.97244l140.6614 0l0 54.2677l-140.6614 0z" fill-rule="evenodd"/><path fill="#000000" d="m135.90996 229.21379l-2.53125 0.453125q-0.125 -0.75 -0.578125 -1.125q-0.453125 -0.390625 -1.171875 -0.390625q-0.953125 0 -1.53125 0.65625q-0.5625 0.65625 -0.5625 2.203125q0 1.734375 0.578125 2.4375q0.578125 0.703125 1.546875 0.703125q0.734375 0 1.203125 -0.40625q0.46875 -0.421875 0.65625 -1.421875l2.515625 0.421875q-0.390625 1.734375 -1.515625 2.625q-1.109375 0.875 -2.96875 0.875q-2.125 0 -3.390625 -1.328125q-1.25 -1.34375 -1.25 -3.71875q0 -2.390625 1.265625 -3.71875q1.265625 -1.34375 3.421875 -1.34375q1.765625 0 2.796875 0.765625q1.046875 0.75 1.515625 2.3125zm3.8444672 0.09375l-2.328125 -0.421875q0.40625 -1.40625 1.359375 -2.078125q0.953125 -0.671875 2.84375 -0.671875q1.703125 0 2.546875 0.40625q0.84375 0.40625 1.171875 1.03125q0.34375 0.625 0.34375 2.28125l-0.015625 3.0q0 1.265625 0.109375 1.875q0.125 0.609375 0.46875 1.296875l-2.53125 0q-0.109375 -0.25 -0.25 -0.75q-0.0625 -0.234375 -0.09375 -0.3125q-0.65625 0.640625 -1.40625 0.96875q-0.734375 0.3125 -1.59375 0.3125q-1.484375 0 -2.34375 -0.8125q-0.859375 -0.8125 -0.859375 -2.046875q0 -0.828125 0.390625 -1.46875q0.390625 -0.640625 1.09375 -0.96875q0.703125 -0.34375 2.03125 -0.609375q1.796875 -0.328125 2.484375 -0.625l0 -0.25q0 -0.75 -0.359375 -1.0625q-0.359375 -0.3125 -1.375 -0.3125q-0.6875 0 -1.078125 0.28125q-0.375 0.265625 -0.609375 0.9375zm3.421875 2.078125q-0.484375 0.15625 -1.5625 0.390625q-1.0625 0.21875 -1.390625 0.4375q-0.5 0.359375 -0.5 0.90625q0 0.53125 0.40625 0.9375q0.40625 0.390625 1.015625 0.390625q0.703125 0 1.328125 -0.46875q0.46875 -0.34375 0.609375 -0.84375q0.09375 -0.328125 0.09375 -1.25l0 -0.5zm4.141342 1.875l2.5625 -0.390625q0.171875 0.75 0.671875 1.140625q0.5 0.390625 1.40625 0.390625q0.984375 0 1.484375 -0.375q0.34375 -0.25 0.34375 -0.671875q0 -0.296875 -0.1875 -0.484375q-0.1875 -0.1875 -0.859375 -0.34375q-3.09375 -0.6875 -3.921875 -1.25q-1.140625 -0.78125 -1.140625 -2.171875q0 -1.265625 0.984375 -2.109375q1.0 -0.859375 3.078125 -0.859375q1.984375 0 2.953125 0.65625q0.96875 0.640625 1.328125 1.90625l-2.40625 0.4375q-0.15625 -0.5625 -0.59375 -0.859375q-0.421875 -0.296875 -1.234375 -0.296875q-1.0 0 -1.4375 0.28125q-0.296875 0.203125 -0.296875 0.515625q0 0.265625 0.25 0.46875q0.34375 0.25 2.390625 0.71875q2.046875 0.453125 2.859375 1.140625q0.796875 0.671875 0.796875 1.890625q0 1.34375 -1.109375 2.296875q-1.109375 0.953125 -3.28125 0.953125q-1.984375 0 -3.140625 -0.796875q-1.140625 -0.8125 -1.5 -2.1875zm16.875717 -0.3125l2.546875 0.421875q-0.484375 1.40625 -1.546875 2.140625q-1.0625 0.734375 -2.65625 0.734375q-2.515625 0 -3.734375 -1.65625q-0.953125 -1.3125 -0.953125 -3.328125q0 -2.40625 1.25 -3.765625q1.265625 -1.359375 3.1875 -1.359375q2.15625 0 3.40625 1.421875q1.25 1.421875 1.1875 4.375l-6.40625 0q0.03125 1.140625 0.609375 1.78125q0.59375 0.625 1.484375 0.625q0.59375 0 1.0 -0.328125q0.421875 -0.328125 0.625 -1.0625zm0.15625 -2.59375q-0.03125 -1.109375 -0.578125 -1.6875q-0.546875 -0.578125 -1.328125 -0.578125q-0.84375 0 -1.390625 0.609375q-0.546875 0.609375 -0.53125 1.65625l3.828125 0zm15.402771 2.59375l2.546875 0.421875q-0.484375 1.40625 -1.546875 2.140625q-1.0625 0.734375 -2.65625 0.734375q-2.515625 0 -3.734375 -1.65625q-0.953125 -1.3125 -0.953125 -3.328125q0 -2.40625 1.25 -3.765625q1.265625 -1.359375 3.1875 -1.359375q2.15625 0 3.40625 1.421875q1.25 1.421875 1.1875 4.375l-6.40625 0q0.03125 1.140625 0.609375 1.78125q0.59375 0.625 1.484375 0.625q0.59375 0 1.0 -0.328125q0.421875 -0.328125 0.625 -1.0625zm0.15625 -2.59375q-0.03125 -1.109375 -0.578125 -1.6875q-0.546875 -0.578125 -1.328125 -0.578125q-0.84375 0 -1.390625 0.609375q-0.546875 0.609375 -0.53125 1.65625l3.828125 0zm7.078842 5.671875l-2.5625 0l0 -9.671875l2.375 0l0 1.375q0.609375 -0.984375 1.09375 -1.28125q0.484375 -0.3125 1.109375 -0.3125q0.875 0 1.6875 0.484375l-0.796875 2.234375q-0.640625 -0.421875 -1.203125 -0.421875q-0.53125 0 -0.90625 0.296875q-0.375 0.296875 -0.59375 1.078125q-0.203125 0.765625 -0.203125 3.234375l0 2.984375zm7.260269 0l-2.5625 0l0 -9.671875l2.375 0l0 1.375q0.609375 -0.984375 1.09375 -1.28125q0.484375 -0.3125 1.109375 -0.3125q0.875 0 1.6875 0.484375l-0.796875 2.234375q-0.640625 -0.421875 -1.203125 -0.421875q-0.53125 0 -0.90625 0.296875q-0.375 0.296875 -0.59375 1.078125q-0.203125 0.765625 -0.203125 3.234375l0 2.984375zm4.213394 -4.96875q0 -1.28125 0.625 -2.46875q0.625 -1.203125 1.78125 -1.828125q1.15625 -0.625 2.578125 -0.625q2.1875 0 3.59375 1.421875q1.40625 1.421875 1.40625 3.609375q0 2.1875 -1.421875 3.640625q-1.421875 1.4375 -3.5625 1.4375q-1.328125 0 -2.546875 -0.59375q-1.203125 -0.609375 -1.828125 -1.765625q-0.625 -1.171875 -0.625 -2.828125zm2.625 0.125q0 1.453125 0.671875 2.21875q0.6875 0.75 1.6875 0.75q1.0 0 1.671875 -0.75q0.6875 -0.765625 0.6875 -2.234375q0 -1.421875 -0.6875 -2.1875q-0.671875 -0.765625 -1.671875 -0.765625q-1.0 0 -1.6875 0.765625q-0.671875 0.765625 -0.671875 2.203125zm11.817856 4.84375l-2.5625 0l0 -9.671875l2.375 0l0 1.375q0.609375 -0.984375 1.09375 -1.28125q0.484375 -0.3125 1.109375 -0.3125q0.875 0 1.6875 0.484375l-0.796875 2.234375q-0.640625 -0.421875 -1.203125 -0.421875q-0.53125 0 -0.90625 0.296875q-0.375 0.296875 -0.59375 1.078125q-0.203125 0.765625 -0.203125 3.234375l0 2.984375zm15.990448 0l-2.5625 0l0 -9.640625q-1.40625 1.3125 -3.3125 1.9375l0 -2.328125q1.015625 -0.328125 2.1875 -1.234375q1.171875 -0.921875 1.609375 -2.140625l2.078125 0l0 13.40625z" fill-rule="nonzero"/><path fill="#cfe2f3" d="m111.45407 464.4685l140.6614 0l0 54.2677l-140.6614 0z" fill-rule="evenodd"/><path stroke="#1155cc" stroke-width="2.0" stroke-linejoin="round" stroke-linecap="butt" d="m111.45407 464.4685l140.6614 0l0 54.2677l-140.6614 0z" fill-rule="evenodd"/><path fill="#000000" d="m135.87303 488.8505l1.421875 0l0 -0.734375q0 -1.21875 0.25 -1.8125q0.265625 -0.609375 0.953125 -0.984375q0.703125 -0.375 1.78125 -0.375q1.09375 0 2.140625 0.328125l-0.359375 1.78125q-0.609375 -0.140625 -1.171875 -0.140625q-0.546875 0 -0.796875 0.265625q-0.234375 0.25 -0.234375 0.984375l0 0.6875l1.90625 0l0 2.015625l-1.90625 0l0 7.65625l-2.5625 0l0 -7.65625l-1.421875 0l0 -2.015625zm7.337677 -1.3125l0 -2.375l2.5625 0l0 2.375l-2.5625 0zm0 10.984375l0 -9.671875l2.5625 0l0 9.671875l-2.5625 0zm13.980179 0l-2.5625 0l0 -4.9375q0 -1.5625 -0.171875 -2.015625q-0.15625 -0.46875 -0.53125 -0.71875q-0.359375 -0.265625 -0.875 -0.265625q-0.671875 0 -1.203125 0.375q-0.53125 0.359375 -0.734375 0.96875q-0.1875 0.59375 -0.1875 2.21875l0 4.375l-2.546875 0l0 -9.671875l2.375 0l0 1.421875q1.265625 -1.640625 3.1875 -1.640625q0.84375 0 1.546875 0.3125q0.703125 0.296875 1.0625 0.78125q0.359375 0.46875 0.5 1.078125q0.140625 0.59375 0.140625 1.703125l0 6.015625zm4.505356 -6.71875l-2.328125 -0.421875q0.40625 -1.40625 1.359375 -2.078125q0.953125 -0.671875 2.84375 -0.671875q1.703125 0 2.546875 0.40625q0.84375 0.40625 1.171875 1.03125q0.34375 0.625 0.34375 2.28125l-0.015625 3.0q0 1.265625 0.109375 1.875q0.125 0.609375 0.46875 1.296875l-2.53125 0q-0.109375 -0.25 -0.25 -0.75q-0.0625 -0.234375 -0.09375 -0.3125q-0.65625 0.640625 -1.40625 0.96875q-0.734375 0.3125 -1.59375 0.3125q-1.484375 0 -2.34375 -0.8125q-0.859375 -0.8125 -0.859375 -2.046875q0 -0.828125 0.390625 -1.46875q0.390625 -0.640625 1.09375 -0.96875q0.703125 -0.34375 2.03125 -0.609375q1.796875 -0.328125 2.484375 -0.625l0 -0.25q0 -0.75 -0.359375 -1.0625q-0.359375 -0.3125 -1.375 -0.3125q-0.6875 0 -1.078125 0.28125q-0.375 0.265625 -0.609375 0.9375zm3.421875 2.078125q-0.484375 0.15625 -1.5625 0.390625q-1.0625 0.21875 -1.390625 0.4375q-0.5 0.359375 -0.5 0.90625q0 0.53125 0.40625 0.9375q0.40625 0.390625 1.015625 0.390625q0.703125 0 1.328125 -0.46875q0.46875 -0.34375 0.609375 -0.84375q0.09375 -0.328125 0.09375 -1.25l0 -0.5zm5.047592 4.640625l0 -13.359375l2.5625 0l0 13.359375l-2.5625 0zm10.257233 0l0 -13.359375l2.5625 0l0 4.8125q1.171875 -1.34375 2.796875 -1.34375q1.765625 0 2.921875 1.28125q1.15625 1.28125 1.15625 3.671875q0 2.484375 -1.1875 3.828125q-1.171875 1.328125 -2.859375 1.328125q-0.828125 0 -1.640625 -0.40625q-0.796875 -0.421875 -1.375 -1.234375l0 1.421875l-2.375 0zm2.53125 -5.046875q0 1.5 0.484375 2.21875q0.65625 1.03125 1.765625 1.03125q0.84375 0 1.4375 -0.71875q0.59375 -0.734375 0.59375 -2.296875q0 -1.65625 -0.609375 -2.390625q-0.59375 -0.734375 -1.53125 -0.734375q-0.921875 0 -1.53125 0.71875q-0.609375 0.71875 -0.609375 2.171875zm8.974106 5.046875l0 -13.359375l2.5625 0l0 13.359375l-2.5625 0zm4.589554 -4.96875q0 -1.28125 0.625 -2.46875q0.625 -1.203125 1.78125 -1.828125q1.15625 -0.625 2.578125 -0.625q2.1875 0 3.59375 1.421875q1.40625 1.421875 1.40625 3.609375q0 2.1875 -1.421875 3.640625q-1.421875 1.4375 -3.5625 1.4375q-1.328125 0 -2.546875 -0.59375q-1.203125 -0.609375 -1.828125 -1.765625q-0.625 -1.171875 -0.625 -2.828125zm2.625 0.125q0 1.453125 0.671875 2.21875q0.6875 0.75 1.6875 0.75q1.0 0 1.671875 -0.75q0.6875 -0.765625 0.6875 -2.234375q0 -1.421875 -0.6875 -2.1875q-0.671875 -0.765625 -1.671875 -0.765625q-1.0 0 -1.6875 0.765625q-0.671875 0.765625 -0.671875 2.203125zm17.80223 -1.96875l-2.53125 0.453125q-0.125 -0.75 -0.578125 -1.125q-0.453125 -0.390625 -1.171875 -0.390625q-0.953125 0 -1.53125 0.65625q-0.5625 0.65625 -0.5625 2.203125q0 1.734375 0.578125 2.4375q0.578125 0.703125 1.546875 0.703125q0.734375 0 1.203125 -0.40625q0.46875 -0.421875 0.65625 -1.421875l2.515625 0.421875q-0.390625 1.734375 -1.515625 2.625q-1.109375 0.875 -2.96875 0.875q-2.125 0 -3.390625 -1.328125q-1.25 -1.34375 -1.25 -3.71875q0 -2.390625 1.265625 -3.71875q1.265625 -1.34375 3.421875 -1.34375q1.765625 0 2.796875 0.765625q1.046875 0.75 1.515625 2.3125zm1.8444672 6.8125l0 -13.359375l2.5625 0l0 7.09375l3.0 -3.40625l3.140625 0l-3.296875 3.53125l3.53125 6.140625l-2.75 0l-2.4375 -4.34375l-1.1875 1.25l0 3.09375l-2.5625 0z" fill-rule="nonzero"/><path fill="#000000" fill-opacity="0.0" d="m340.11316 283.373l-90.74017 -54.267715" fill-rule="evenodd"/><path stroke="#ea9999" stroke-width="3.0" stroke-linejoin="round" stroke-linecap="butt" stroke-dasharray="12.0,9.0" d="m340.11316 283.373l-75.29205 -45.028885" fill-rule="evenodd"/><path fill="#ea9999" stroke="#ea9999" stroke-width="3.0" stroke-linecap="butt" d="m267.36444 234.09142l-14.227509 -2.7350922l9.140808 11.2404785z" fill-rule="evenodd"/><path fill="#000000" fill-opacity="0.0" d="m340.11316 353.30417l-90.74017 51.496063" fill-rule="evenodd"/><path stroke="#ea9999" stroke-width="3.0" stroke-linejoin="round" stroke-linecap="butt" stroke-dasharray="12.0,9.0" d="m340.11316 353.30417l-75.08545 42.611847" fill-rule="evenodd"/><path fill="#ea9999" stroke="#ea9999" stroke-width="3.0" stroke-linecap="butt" d="m262.58197 391.60645l-9.394699 11.029144l14.286179 -2.4100037z" fill-rule="evenodd"/><path fill="#000000" fill-opacity="0.0" d="m108.698166 318.01443l-24.999832 0l0 -171.84251l219.551 0" fill-rule="evenodd"/><path stroke="#ea9999" stroke-width="3.0" stroke-linejoin="round" stroke-linecap="butt" stroke-dasharray="12.0,9.0" d="m108.698166 318.01443l-24.999832 0l0 -171.84251l201.551 0" fill-rule="evenodd"/><path fill="#ea9999" stroke="#ea9999" stroke-width="3.0" stroke-linecap="butt" d="m285.24936 151.1271l13.614288 -4.955185l-13.614288 -4.9552z" fill-rule="evenodd"/><path fill="#000000" fill-opacity="0.0" d="m375.07843 80.34688l-1.5118103 38.677162" fill-rule="evenodd"/><path stroke="#ea9999" stroke-width="3.0" stroke-linejoin="round" stroke-linecap="butt" d="m375.0784 80.34688l-0.80874634 20.690903" fill-rule="evenodd"/><path fill="#ea9999" stroke="#ea9999" stroke-width="3.0" stroke-linecap="butt" d="m369.31824 100.84424l4.419647 13.797447l5.483185 -13.41037z" fill-rule="evenodd"/><path fill="#000000" fill-opacity="0.0" d="m181.78477 518.7362l0 39.590576" fill-rule="evenodd"/><path stroke="#ea9999" stroke-width="3.0" stroke-linejoin="round" stroke-linecap="butt" d="m181.78477 518.7362l0 21.590576" fill-rule="evenodd"/><path fill="#ea9999" stroke="#ea9999" stroke-width="3.0" stroke-linecap="butt" d="m176.82957 540.3268l4.9552 13.614258l4.9552 -13.614258z" fill-rule="evenodd"/><path fill="#f4cccc" d="m108.698166 290.88058l140.6614 0l0 54.2677l-140.6614 0z" fill-rule="evenodd"/><path stroke="#ea9999" stroke-width="2.0" stroke-linejoin="round" stroke-linecap="butt" d="m108.698166 290.88058l140.6614 0l0 54.2677l-140.6614 0z" fill-rule="evenodd"/><path fill="#000000" d="m135.91127 318.12195l-2.53125 0.453125q-0.125 -0.75 -0.578125 -1.125q-0.453125 -0.390625 -1.171875 -0.390625q-0.953125 0 -1.53125 0.65625q-0.5625 0.65625 -0.5625 2.203125q0 1.734375 0.578125 2.4375q0.578125 0.703125 1.546875 0.703125q0.734375 0 1.203125 -0.40625q0.46875 -0.421875 0.65625 -1.421875l2.515625 0.421875q-0.390625 1.734375 -1.515625 2.625q-1.109375 0.875 -2.96875 0.875q-2.125 0 -3.390625 -1.328125q-1.25 -1.34375 -1.25 -3.71875q0 -2.390625 1.265625 -3.71875q1.265625 -1.34375 3.421875 -1.34375q1.765625 0 2.796875 0.765625q1.046875 0.75 1.515625 2.3125zm3.8444672 0.09375l-2.328125 -0.421875q0.40625 -1.40625 1.359375 -2.078125q0.953125 -0.671875 2.84375 -0.671875q1.703125 0 2.546875 0.40625q0.84375 0.40625 1.171875 1.03125q0.34375 0.625 0.34375 2.28125l-0.015625 3.0q0 1.265625 0.109375 1.875q0.125 0.609375 0.46875 1.296875l-2.53125 0q-0.109375 -0.25 -0.25 -0.75q-0.0625 -0.234375 -0.09375 -0.3125q-0.65625 0.640625 -1.40625 0.96875q-0.734375 0.3125 -1.59375 0.3125q-1.484375 0 -2.34375 -0.8125q-0.859375 -0.8125 -0.859375 -2.046875q0 -0.828125 0.390625 -1.46875q0.390625 -0.640625 1.09375 -0.96875q0.703125 -0.34375 2.03125 -0.609375q1.796875 -0.328125 2.484375 -0.625l0 -0.25q0 -0.75 -0.359375 -1.0625q-0.359375 -0.3125 -1.375 -0.3125q-0.6875 0 -1.078125 0.28125q-0.375 0.265625 -0.609375 0.9375zm3.421875 2.078125q-0.484375 0.15625 -1.5625 0.390625q-1.0625 0.21875 -1.390625 0.4375q-0.5 0.359375 -0.5 0.90625q0 0.53125 0.40625 0.9375q0.40625 0.390625 1.015625 0.390625q0.703125 0 1.328125 -0.46875q0.46875 -0.34375 0.609375 -0.84375q0.09375 -0.328125 0.09375 -1.25l0 -0.5zm4.141342 1.875l2.5625 -0.390625q0.171875 0.75 0.671875 1.140625q0.5 0.390625 1.40625 0.390625q0.984375 0 1.484375 -0.375q0.34375 -0.25 0.34375 -0.671875q0 -0.296875 -0.1875 -0.484375q-0.1875 -0.1875 -0.859375 -0.34375q-3.09375 -0.6875 -3.921875 -1.25q-1.140625 -0.78125 -1.140625 -2.171875q0 -1.265625 0.984375 -2.109375q1.0 -0.859375 3.078125 -0.859375q1.984375 0 2.953125 0.65625q0.96875 0.640625 1.328125 1.90625l-2.40625 0.4375q-0.15625 -0.5625 -0.59375 -0.859375q-0.421875 -0.296875 -1.234375 -0.296875q-1.0 0 -1.4375 0.28125q-0.296875 0.203125 -0.296875 0.515625q0 0.265625 0.25 0.46875q0.34375 0.25 2.390625 0.71875q2.046875 0.453125 2.859375 1.140625q0.796875 0.671875 0.796875 1.890625q0 1.34375 -1.109375 2.296875q-1.109375 0.953125 -3.28125 0.953125q-1.984375 0 -3.140625 -0.796875q-1.140625 -0.8125 -1.5 -2.1875zm16.875717 -0.3125l2.546875 0.421875q-0.484375 1.40625 -1.546875 2.140625q-1.0625 0.734375 -2.65625 0.734375q-2.515625 0 -3.734375 -1.65625q-0.953125 -1.3125 -0.953125 -3.328125q0 -2.40625 1.25 -3.765625q1.265625 -1.359375 3.1875 -1.359375q2.15625 0 3.40625 1.421875q1.25 1.421875 1.1875 4.375l-6.40625 0q0.03125 1.140625 0.609375 1.78125q0.59375 0.625 1.484375 0.625q0.59375 0 1.0 -0.328125q0.421875 -0.328125 0.625 -1.0625zm0.15625 -2.59375q-0.03125 -1.109375 -0.578125 -1.6875q-0.546875 -0.578125 -1.328125 -0.578125q-0.84375 0 -1.390625 0.609375q-0.546875 0.609375 -0.53125 1.65625l3.828125 0zm15.402771 2.59375l2.546875 0.421875q-0.484375 1.40625 -1.546875 2.140625q-1.0625 0.734375 -2.65625 0.734375q-2.515625 0 -3.734375 -1.65625q-0.953125 -1.3125 -0.953125 -3.328125q0 -2.40625 1.25 -3.765625q1.265625 -1.359375 3.1875 -1.359375q2.15625 0 3.40625 1.421875q1.25 1.421875 1.1875 4.375l-6.40625 0q0.03125 1.140625 0.609375 1.78125q0.59375 0.625 1.484375 0.625q0.59375 0 1.0 -0.328125q0.421875 -0.328125 0.625 -1.0625zm0.15625 -2.59375q-0.03125 -1.109375 -0.578125 -1.6875q-0.546875 -0.578125 -1.328125 -0.578125q-0.84375 0 -1.390625 0.609375q-0.546875 0.609375 -0.53125 1.65625l3.828125 0zm7.078842 5.671875l-2.5625 0l0 -9.671875l2.375 0l0 1.375q0.609375 -0.984375 1.09375 -1.28125q0.484375 -0.3125 1.109375 -0.3125q0.875 0 1.6875 0.484375l-0.796875 2.234375q-0.640625 -0.421875 -1.203125 -0.421875q-0.53125 0 -0.90625 0.296875q-0.375 0.296875 -0.59375 1.078125q-0.203125 0.765625 -0.203125 3.234375l0 2.984375zm7.260269 0l-2.5625 0l0 -9.671875l2.375 0l0 1.375q0.609375 -0.984375 1.09375 -1.28125q0.484375 -0.3125 1.109375 -0.3125q0.875 0 1.6875 0.484375l-0.796875 2.234375q-0.640625 -0.421875 -1.203125 -0.421875q-0.53125 0 -0.90625 0.296875q-0.375 0.296875 -0.59375 1.078125q-0.203125 0.765625 -0.203125 3.234375l0 2.984375zm4.213394 -4.96875q0 -1.28125 0.625 -2.46875q0.625 -1.203125 1.78125 -1.828125q1.15625 -0.625 2.578125 -0.625q2.1875 0 3.59375 1.421875q1.40625 1.421875 1.40625 3.609375q0 2.1875 -1.421875 3.640625q-1.421875 1.4375 -3.5625 1.4375q-1.328125 0 -2.546875 -0.59375q-1.203125 -0.609375 -1.828125 -1.765625q-0.625 -1.171875 -0.625 -2.828125zm2.625 0.125q0 1.453125 0.671875 2.21875q0.6875 0.75 1.6875 0.75q1.0 0 1.671875 -0.75q0.6875 -0.765625 0.6875 -2.234375q0 -1.421875 -0.6875 -2.1875q-0.671875 -0.765625 -1.671875 -0.765625q-1.0 0 -1.6875 0.765625q-0.671875 0.765625 -0.671875 2.203125zm11.817856 4.84375l-2.5625 0l0 -9.671875l2.375 0l0 1.375q0.609375 -0.984375 1.09375 -1.28125q0.484375 -0.3125 1.109375 -0.3125q0.875 0 1.6875 0.484375l-0.796875 2.234375q-0.640625 -0.421875 -1.203125 -0.421875q-0.53125 0 -0.90625 0.296875q-0.375 0.296875 -0.59375 1.078125q-0.203125 0.765625 -0.203125 3.234375l0 2.984375zm18.084198 -2.375l0 2.375l-8.96875 0q0.140625 -1.34375 0.859375 -2.546875q0.734375 -1.21875 2.890625 -3.203125q1.734375 -1.625 2.125 -2.1875q0.53125 -0.796875 0.53125 -1.578125q0 -0.84375 -0.46875 -1.296875q-0.453125 -0.46875 -1.265625 -0.46875q-0.796875 0 -1.28125 0.484375q-0.46875 0.46875 -0.546875 1.59375l-2.546875 -0.25q0.234375 -2.109375 1.421875 -3.03125q1.203125 -0.921875 3.015625 -0.921875q1.96875 0 3.09375 1.0625q1.140625 1.0625 1.140625 2.65625q0 0.890625 -0.328125 1.71875q-0.3125 0.8125 -1.015625 1.703125q-0.46875 0.59375 -1.6875 1.703125q-1.203125 1.109375 -1.53125 1.484375q-0.3125 0.359375 -0.515625 0.703125l5.078125 0z" fill-rule="nonzero"/><path fill="#000000" fill-opacity="0.0" d="m325.6299 318.3386l-76.28346 -0.31497192" fill-rule="evenodd"/><path stroke="#ea9999" stroke-width="3.0" stroke-linejoin="round" stroke-linecap="butt" stroke-dasharray="12.0,9.0" d="m325.6299 318.3386l-58.28363 -0.24066162" fill-rule="evenodd"/><path fill="#ea9999" stroke="#ea9999" stroke-width="3.0" stroke-linecap="butt" d="m267.36676 313.1428l-13.634628 4.898926l13.593704 5.011383z" fill-rule="evenodd"/><path fill="#000000" fill-opacity="0.0" d="m373.56693 173.30183l1.5118103 95.59056" fill-rule="evenodd"/><path stroke="#ea9999" stroke-width="3.0" stroke-linejoin="round" stroke-linecap="butt" d="m373.56693 173.30183l1.2271729 77.592804" fill-rule="evenodd"/><path fill="#ea9999" stroke="#ea9999" stroke-width="3.0" stroke-linecap="butt" d="m369.8395 250.97299l5.1698914 13.534241l4.7392883 -13.6909485z" fill-rule="evenodd"/><path fill="#000000" fill-opacity="0.0" d="m284.95276 387.36615l59.874023 0l0 49.88977l-59.874023 0z" fill-rule="evenodd"/><path fill="#d9d9d9" d="m296.06213 424.52615l0 -4.03125l4.015625 0l0 4.03125l-4.015625 0zm8.148285 0l0 -4.03125l4.015625 0l0 4.03125l-4.015625 0zm8.148315 0l0 -4.03125l4.015625 0l0 4.03125l-4.015625 0z" fill-rule="nonzero"/><path fill="#000000" fill-opacity="0.0" d="m108.69685 229.1063l-25.000015 0l0 262.4882l27.771667 0" fill-rule="evenodd"/><path stroke="#ea9999" stroke-width="3.0" stroke-linejoin="round" stroke-linecap="butt" d="m108.69685 229.1063l-25.000015 0l0 262.4882l9.7716675 0" fill-rule="evenodd"/><path fill="#ea9999" stroke="#ea9999" stroke-width="3.0" stroke-linecap="butt" d="m93.468506 496.54968l13.614288 -4.9552l-13.614288 -4.9552z" fill-rule="evenodd"/><path fill="#000000" fill-opacity="0.0" d="m142.54855 98.5538l98.897644 0l0 35.433075l-98.897644 0z" fill-rule="evenodd"/><path fill="#d9d9d9" d="m155.87668 128.0338l-2.921875 0l0 -11.062492l2.71875 0l0 1.578125q0.703125 -1.125 1.25 -1.46875q0.5625 -0.359375 1.265625 -0.359375q1.0 0 1.9375 0.5625l-0.90625 2.546875q-0.75 -0.484375 -1.375 -0.484375q-0.625 0 -1.046875 0.34375q-0.421875 0.328125 -0.671875 1.21875q-0.25 0.890625 -0.25 3.703125l0 3.4218674zm11.909439 -3.5156174l2.90625 0.484375q-0.546875 1.609375 -1.765625 2.453125q-1.21875 0.8281174 -3.03125 0.8281174q-2.890625 0 -4.28125 -1.8906174q-1.09375 -1.5 -1.09375 -3.8125q0 -2.75 1.4375 -4.296875q1.4375 -1.5625 3.640625 -1.5625q2.46875 0 3.890625 1.640625q1.421875 1.625 1.359375 4.984375l-7.328125 0q0.03125 1.296875 0.703125 2.03125q0.6875 0.71875 1.703125 0.71875q0.6875 0 1.15625 -0.375q0.46875 -0.375 0.703125 -1.203125zm0.171875 -2.96875q-0.03125 -1.265625 -0.65625 -1.921875q-0.625 -0.671875 -1.53125 -0.671875q-0.953125 0 -1.578125 0.703125q-0.625 0.703125 -0.609375 1.890625l4.375 0zm4.2523193 3.328125l2.9375 -0.453125q0.1875 0.859375 0.75 1.3125q0.578125 0.4375 1.609375 0.4375q1.140625 0 1.71875 -0.421875q0.375 -0.296875 0.375 -0.78125q0 -0.328125 -0.203125 -0.546875q-0.21875 -0.21875 -0.984375 -0.390625q-3.53125 -0.78125 -4.484375 -1.421875q-1.3125 -0.90625 -1.3125 -2.5q0 -1.4375 1.125 -2.40625q1.140625 -0.984375 3.53125 -0.984375q2.265625 0 3.375 0.75q1.109375 0.734375 1.515625 2.171875l-2.75 0.515625q-0.1875 -0.640625 -0.6875 -0.984375q-0.484375 -0.34375 -1.40625 -0.34375q-1.15625 0 -1.65625 0.3125q-0.328125 0.234375 -0.328125 0.59375q0 0.3125 0.296875 0.53125q0.390625 0.296875 2.71875 0.828125q2.34375 0.53125 3.28125 1.296875q0.90625 0.78125 0.90625 2.1875q0 1.515625 -1.265625 2.609375q-1.265625 1.0937424 -3.765625 1.0937424q-2.25 0 -3.578125 -0.9062424q-1.3125 -0.921875 -1.71875 -2.5zm20.174194 3.1562424l0 -1.6562424q-0.609375 0.890625 -1.59375 1.40625q-0.984375 0.49999237 -2.078125 0.49999237q-1.109375 0 -2.0 -0.48436737q-0.875 -0.5 -1.28125 -1.375q-0.390625 -0.890625 -0.390625 -2.453125l0 -7.0l2.921875 0l0 5.078125q0 2.34375 0.15625 2.875q0.171875 0.515625 0.59375 0.828125q0.4375 0.296875 1.09375 0.296875q0.75 0 1.34375 -0.40625q0.59375 -0.40625 0.8125 -1.015625q0.21875 -0.609375 0.21875 -2.984375l0 -4.671875l2.921875 0l0 11.062492l-2.71875 0zm5.528076 -11.062492l2.703125 0l0 1.515625q1.4375 -1.765625 3.4375 -1.765625q1.0625 0 1.84375 0.4375q0.78125 0.4375 1.28125 1.328125q0.734375 -0.890625 1.578125 -1.328125q0.84375 -0.4375 1.796875 -0.4375q1.21875 0 2.0625 0.5q0.84375 0.484375 1.265625 1.453125q0.296875 0.703125 0.296875 2.28125l0 7.0781174l-2.921875 0l0 -6.3281174q0 -1.640625 -0.3125 -2.125q-0.40625 -0.625 -1.25 -0.625q-0.609375 0 -1.15625 0.375q-0.53125 0.375 -0.78125 1.109375q-0.234375 0.71875 -0.234375 2.28125l0 5.3124924l-2.921875 0l0 -6.0624924q0 -1.609375 -0.15625 -2.078125q-0.15625 -0.46875 -0.484375 -0.703125q-0.328125 -0.234375 -0.890625 -0.234375q-0.671875 0 -1.21875 0.375q-0.546875 0.359375 -0.78125 1.046875q-0.234375 0.6875 -0.234375 2.28125l0 5.3749924l-2.921875 0l0 -11.062492zm25.589127 7.546875l2.90625 0.484375q-0.546875 1.609375 -1.765625 2.453125q-1.21875 0.8281174 -3.03125 0.8281174q-2.890625 0 -4.28125 -1.8906174q-1.09375 -1.5 -1.09375 -3.8125q0 -2.75 1.4375 -4.296875q1.4375 -1.5625 3.640625 -1.5625q2.46875 0 3.890625 1.640625q1.421875 1.625 1.359375 4.984375l-7.328125 0q0.03125 1.296875 0.703125 2.03125q0.6875 0.71875 1.703125 0.71875q0.6875 0 1.15625 -0.375q0.46875 -0.375 0.703125 -1.203125zm0.171875 -2.96875q-0.03125 -1.265625 -0.65625 -1.921875q-0.625 -0.671875 -1.53125 -0.671875q-0.953125 0 -1.578125 0.703125q-0.625 0.703125 -0.609375 1.890625l4.375 0z" fill-rule="nonzero"/><path fill="#000000" fill-opacity="0.0" d="m40.427822 475.56693l0 -248.94489l35.43307 0l0 248.94489z" fill-rule="evenodd"/><path fill="#d9d9d9" d="m62.22032 456.92255l-0.484375 2.65625q-1.59375 -0.453125 -2.359375 -1.546875q-0.78125 -1.09375 -0.78125 -3.25q0 -1.953125 0.46875 -2.90625q0.453125 -0.96875 1.171875 -1.359375q0.71875 -0.390625 2.625 -0.390625l3.40625 0.03125q1.46875 0 2.15625 -0.125q0.6875 -0.140625 1.484375 -0.53125l0 2.890625q-0.296875 0.109375 -0.859375 0.28125q-0.265625 0.078125 -0.34375 0.109375q0.71875 0.75 1.09375 1.609375q0.359375 0.84375 0.359375 1.8125q0 1.703125 -0.921875 2.6875q-0.9375 0.984375 -2.34375 0.984375q-0.9375 0 -1.671875 -0.4375q-0.734375 -0.453125 -1.125 -1.25q-0.390625 -0.8125 -0.6875 -2.34375q-0.390625 -2.046875 -0.71875 -2.84375l-0.296875 0q-0.84375 0 -1.203125 0.421875q-0.359375 0.421875 -0.359375 1.578125q0 0.78125 0.3125 1.21875q0.3125 0.4375 1.078125 0.703125zm2.375 -3.921875q0.1875 0.5625 0.453125 1.78125q0.25 1.21875 0.5 1.59375q0.40625 0.578125 1.03125 0.578125q0.625 0 1.078125 -0.453125q0.4375 -0.46875 0.4375 -1.171875q0 -0.796875 -0.515625 -1.515625q-0.40625 -0.53125 -0.96875 -0.6875q-0.375 -0.125 -1.4375 -0.125l-0.578125 0zm5.3125 -5.6273193l-15.265625 0l0 -2.921875l5.5 0q-1.546875 -1.359375 -1.546875 -3.21875q0 -2.015625 1.46875 -3.328125q1.453125 -1.328125 4.203125 -1.328125q2.828125 0 4.359375 1.34375q1.53125 1.34375 1.53125 3.28125q0 0.9375 -0.46875 1.859375q-0.484375 0.921875 -1.40625 1.59375l1.625 0l0 2.71875zm-5.765625 -2.90625q1.71875 0 2.53125 -0.546875q1.171875 -0.75 1.171875 -2.015625q0 -0.96875 -0.828125 -1.640625q-0.828125 -0.6875 -2.609375 -0.6875q-1.890625 0 -2.734375 0.6875q-0.84375 0.6875 -0.84375 1.75q0 1.0625 0.828125 1.765625q0.8125 0.6875 2.484375 0.6875zm0.078125 -9.574951q-1.453125 0 -2.8125 -0.71875q-1.375 -0.71875 -2.09375 -2.03125q-0.71875 -1.3125 -0.71875 -2.9375q0 -2.515625 1.640625 -4.109375q1.625 -1.609375 4.109375 -1.609375q2.515625 0 4.171875 1.625q1.640625 1.609375 1.640625 4.0625q0 1.53125 -0.6875 2.90625q-0.6875 1.375 -2.015625 2.09375q-1.328125 0.71875 -3.234375 0.71875zm0.15625 -3.0q1.640625 0 2.515625 -0.78125q0.875 -0.78125 0.875 -1.921875q0 -1.140625 -0.875 -1.921875q-0.875 -0.78125 -2.53125 -0.78125q-1.625 0 -2.5 0.78125q-0.875 0.78125 -0.875 1.921875q0 1.140625 0.875 1.921875q0.875 0.78125 2.515625 0.78125zm5.53125 -13.496826l0 2.921875l-11.0625 0l0 -2.71875l1.578125 0q-1.125 -0.703125 -1.46875 -1.25q-0.359375 -0.5625 -0.359375 -1.265625q0 -1.0 0.5625 -1.9375l2.546875 0.90625q-0.484375 0.75 -0.484375 1.375q0 0.625 0.34375 1.046875q0.328125 0.421875 1.21875 0.671875q0.890625 0.25 3.703125 0.25l3.421875 0zm-11.0625 -10.581329l2.328125 0l0 2.0l4.46875 0q1.34375 0 1.578125 -0.046875q0.21875 -0.0625 0.375 -0.265625q0.140625 -0.203125 0.140625 -0.5q0 -0.40625 -0.28125 -1.171875l2.265625 -0.25q0.4375 1.015625 0.4375 2.3125q0 0.796875 -0.265625 1.4375q-0.265625 0.625 -0.6875 0.921875q-0.421875 0.296875 -1.140625 0.40625q-0.515625 0.09375 -2.0625 0.09375l-4.828125 0l0 1.34375l-2.328125 0l0 -1.34375l-2.1875 0l-1.71875 -2.9375l3.90625 0l0 -2.0zm5.375 -7.278076q-1.453125 0 -2.8125 -0.71875q-1.375 -0.71875 -2.09375 -2.03125q-0.71875 -1.3125 -0.71875 -2.9375q0 -2.515625 1.640625 -4.109375q1.625 -1.609375 4.109375 -1.609375q2.515625 0 4.171875 1.625q1.640625 1.609375 1.640625 4.0625q0 1.53125 -0.6875 2.90625q-0.6875 1.375 -2.015625 2.09375q-1.328125 0.71875 -3.234375 0.71875zm0.15625 -3.0q1.640625 0 2.515625 -0.78125q0.875 -0.78125 0.875 -1.921875q0 -1.140625 -0.875 -1.921875q-0.875 -0.78125 -2.53125 -0.78125q-1.625 0 -2.5 0.78125q-0.875 0.78125 -0.875 1.921875q0 1.140625 0.875 1.921875q0.875 0.78125 2.515625 0.78125zm5.53125 -13.496826l0 2.921875l-11.0625 0l0 -2.71875l1.578125 0q-1.125 -0.703125 -1.46875 -1.25q-0.359375 -0.5625 -0.359375 -1.265625q0 -1.0 0.5625 -1.9375l2.546875 0.90625q-0.484375 0.75 -0.484375 1.375q0 0.625 0.34375 1.046875q0.328125 0.421875 1.21875 0.671875q0.890625 0.25 3.703125 0.25l3.421875 0zm0 -14.225708l0 2.921875l-11.0625 0l0 -2.71875l1.578125 0q-1.125 -0.703125 -1.46875 -1.25q-0.359375 -0.5625 -0.359375 -1.265625q0 -1.0 0.5625 -1.9375l2.546875 0.90625q-0.484375 0.75 -0.484375 1.375q0 0.625 0.34375 1.046875q0.328125 0.421875 1.21875 0.671875q0.890625 0.25 3.703125 0.25l3.421875 0zm-7.6875 -7.690674l-0.484375 2.65625q-1.59375 -0.453125 -2.359375 -1.546875q-0.78125 -1.09375 -0.78125 -3.25q0 -1.953125 0.46875 -2.90625q0.453125 -0.96875 1.171875 -1.359375q0.71875 -0.390625 2.625 -0.390625l3.40625 0.03125q1.46875 0 2.15625 -0.125q0.6875 -0.140625 1.484375 -0.53125l0 2.890625q-0.296875 0.109375 -0.859375 0.28125q-0.265625 0.078125 -0.34375 0.109375q0.71875 0.75 1.09375 1.609375q0.359375 0.84375 0.359375 1.8125q0 1.703125 -0.921875 2.6875q-0.9375 0.984375 -2.34375 0.984375q-0.9375 0 -1.671875 -0.4375q-0.734375 -0.453125 -1.125 -1.25q-0.390625 -0.8125 -0.6875 -2.34375q-0.390625 -2.046875 -0.71875 -2.84375l-0.296875 0q-0.84375 0 -1.203125 0.421875q-0.359375 0.421875 -0.359375 1.578125q0 0.78125 0.3125 1.21875q0.3125 0.4375 1.078125 0.703125zm2.375 -3.921875q0.1875 0.5625 0.453125 1.78125q0.25 1.21875 0.5 1.59375q0.40625 0.578125 1.03125 0.578125q0.625 0 1.078125 -0.453125q0.4375 -0.46875 0.4375 -1.171875q0 -0.796875 -0.515625 -1.515625q-0.40625 -0.53125 -0.96875 -0.6875q-0.375 -0.125 -1.4375 -0.125l-0.578125 0zm-7.25 -5.7523193l-2.703125 0l0 -2.921875l2.703125 0l0 2.921875zm12.5625 0l-11.0625 0l0 -2.921875l11.0625 0l0 2.921875zm-3.15625 -4.894409l-0.453125 -2.9375q0.859375 -0.1875 1.3125 -0.75q0.4375 -0.578125 0.4375 -1.609375q0 -1.140625 -0.421875 -1.71875q-0.296875 -0.375 -0.78125 -0.375q-0.328125 0 -0.546875 0.203125q-0.21875 0.21875 -0.390625 0.984375q-0.78125 3.53125 -1.421875 4.484375q-0.90625 1.3125 -2.5 1.3125q-1.4375 0 -2.40625 -1.125q-0.984375 -1.140625 -0.984375 -3.53125q0 -2.265625 0.75 -3.375q0.734375 -1.109375 2.171875 -1.515625l0.515625 2.75q-0.640625 0.1875 -0.984375 0.6875q-0.34375 0.484375 -0.34375 1.40625q0 1.15625 0.3125 1.65625q0.234375 0.328125 0.59375 0.328125q0.3125 0 0.53125 -0.296875q0.296875 -0.390625 0.828125 -2.71875q0.53125 -2.34375 1.296875 -3.28125q0.78125 -0.90625 2.1875 -0.90625q1.515625 0 2.609375 1.265625q1.09375 1.265625 1.09375 3.765625q0 2.25 -0.90625 3.578125q-0.921875 1.3125 -2.5 1.71875zm-0.359375 -19.299194l0.484375 -2.90625q1.609375 0.546875 2.453125 1.765625q0.828125 1.21875 0.828125 3.03125q0 2.890625 -1.890625 4.28125q-1.5 1.09375 -3.8125 1.09375q-2.75 0 -4.296875 -1.4375q-1.5625 -1.4375 -1.5625 -3.640625q0 -2.46875 1.640625 -3.890625q1.625 -1.421875 4.984375 -1.359375l0 7.328125q1.296875 -0.03125 2.03125 -0.703125q0.71875 -0.6875 0.71875 -1.703125q0 -0.6875 -0.375 -1.15625q-0.375 -0.46875 -1.203125 -0.703125zm-2.96875 -0.171875q-1.265625 0.03125 -1.921875 0.65625q-0.671875 0.625 -0.671875 1.53125q0 0.953125 0.703125 1.578125q0.703125 0.625 1.890625 0.609375l0 -4.375z" fill-rule="nonzero"/><path fill="#f4cccc" d="m108.698166 377.67322l140.6614 0l0 54.26773l-140.6614 0z" fill-rule="evenodd"/><path stroke="#ea9999" stroke-width="2.0" stroke-linejoin="round" stroke-linecap="butt" d="m108.698166 377.67322l140.6614 0l0 54.26773l-140.6614 0z" fill-rule="evenodd"/><path fill="#000000" d="m129.50356 406.75833q0 -1.28125 0.625 -2.46875q0.625 -1.203125 1.78125 -1.828125q1.15625 -0.625 2.578125 -0.625q2.1875 0 3.59375 1.421875q1.40625 1.421875 1.40625 3.609375q0 2.1875 -1.421875 3.640625q-1.421875 1.4375 -3.5625 1.4375q-1.328125 0 -2.546875 -0.59375q-1.203125 -0.609375 -1.828125 -1.765625q-0.625 -1.171875 -0.625 -2.828125zm2.625 0.125q0 1.453125 0.671875 2.21875q0.6875 0.75 1.6875 0.75q1.0 0 1.671875 -0.75q0.6875 -0.765625 0.6875 -2.234375q0 -1.421875 -0.6875 -2.1875q-0.671875 -0.765625 -1.671875 -0.765625q-1.0 0 -1.6875 0.765625q-0.671875 0.765625 -0.671875 2.203125zm13.802231 -4.828125l0 2.03125l-1.75 0l0 3.90625q0 1.1875 0.046875 1.390625q0.046875 0.1875 0.21875 0.3125q0.1875 0.125 0.4375 0.125q0.359375 0 1.03125 -0.25l0.21875 2.0q-0.890625 0.375 -2.015625 0.375q-0.703125 0 -1.265625 -0.234375q-0.546875 -0.234375 -0.8125 -0.59375q-0.25 -0.375 -0.34375 -1.0q-0.09375 -0.453125 -0.09375 -1.8125l0 -4.21875l-1.171875 0l0 -2.03125l1.171875 0l0 -1.921875l2.578125 -1.5l0 3.421875l1.75 0zm4.322052 -3.6875l0 4.921875q1.234375 -1.453125 2.953125 -1.453125q0.890625 0 1.59375 0.328125q0.71875 0.328125 1.078125 0.84375q0.359375 0.5 0.484375 1.125q0.140625 0.609375 0.140625 1.921875l0 5.671875l-2.5625 0l0 -5.109375q0 -1.515625 -0.15625 -1.921875q-0.140625 -0.421875 -0.515625 -0.65625q-0.359375 -0.25 -0.90625 -0.25q-0.640625 0 -1.140625 0.3125q-0.5 0.3125 -0.734375 0.9375q-0.234375 0.625 -0.234375 1.84375l0 4.84375l-2.5625 0l0 -13.359375l2.5625 0zm14.442856 10.28125l2.546875 0.421875q-0.484375 1.40625 -1.546875 2.140625q-1.0625 0.734375 -2.65625 0.734375q-2.515625 0 -3.734375 -1.65625q-0.953125 -1.3125 -0.953125 -3.328125q0 -2.40625 1.25 -3.765625q1.265625 -1.359375 3.1875 -1.359375q2.15625 0 3.40625 1.421875q1.25 1.421875 1.1875 4.375l-6.40625 0q0.03125 1.140625 0.609375 1.78125q0.59375 0.625 1.484375 0.625q0.59375 0 1.0 -0.328125q0.421875 -0.328125 0.625 -1.0625zm0.15625 -2.59375q-0.03125 -1.109375 -0.578125 -1.6875q-0.546875 -0.578125 -1.328125 -0.578125q-0.84375 0 -1.390625 0.609375q-0.546875 0.609375 -0.53125 1.65625l3.828125 0zm7.078842 5.671875l-2.5625 0l0 -9.671875l2.375 0l0 1.375q0.609375 -0.984375 1.09375 -1.28125q0.484375 -0.3125 1.109375 -0.3125q0.875 0 1.6875 0.484375l-0.796875 2.234375q-0.640625 -0.421875 -1.203125 -0.421875q-0.53125 0 -0.90625 0.296875q-0.375 0.296875 -0.59375 1.078125q-0.203125 0.765625 -0.203125 3.234375l0 2.984375zm9.881073 0l0 -13.359375l2.5625 0l0 4.8125q1.171875 -1.34375 2.796875 -1.34375q1.765625 0 2.921875 1.28125q1.15625 1.28125 1.15625 3.671875q0 2.484375 -1.1875 3.828125q-1.171875 1.328125 -2.859375 1.328125q-0.828125 0 -1.640625 -0.40625q-0.796875 -0.421875 -1.375 -1.234375l0 1.421875l-2.375 0zm2.53125 -5.046875q0 1.5 0.484375 2.21875q0.65625 1.03125 1.765625 1.03125q0.84375 0 1.4375 -0.71875q0.59375 -0.734375 0.59375 -2.296875q0 -1.65625 -0.609375 -2.390625q-0.59375 -0.734375 -1.53125 -0.734375q-0.921875 0 -1.53125 0.71875q-0.609375 0.71875 -0.609375 2.171875zm8.974106 5.046875l0 -13.359375l2.5625 0l0 13.359375l-2.5625 0zm4.589554 -4.96875q0 -1.28125 0.625 -2.46875q0.625 -1.203125 1.78125 -1.828125q1.15625 -0.625 2.578125 -0.625q2.1875 0 3.59375 1.421875q1.40625 1.421875 1.40625 3.609375q0 2.1875 -1.421875 3.640625q-1.421875 1.4375 -3.5625 1.4375q-1.328125 0 -2.546875 -0.59375q-1.203125 -0.609375 -1.828125 -1.765625q-0.625 -1.171875 -0.625 -2.828125zm2.625 0.125q0 1.453125 0.671875 2.21875q0.6875 0.75 1.6875 0.75q1.0 0 1.671875 -0.75q0.6875 -0.765625 0.6875 -2.234375q0 -1.421875 -0.6875 -2.1875q-0.671875 -0.765625 -1.671875 -0.765625q-1.0 0 -1.6875 0.765625q-0.671875 0.765625 -0.671875 2.203125zm17.80223 -1.96875l-2.53125 0.453125q-0.125 -0.75 -0.578125 -1.125q-0.453125 -0.390625 -1.171875 -0.390625q-0.953125 0 -1.53125 0.65625q-0.5625 0.65625 -0.5625 2.203125q0 1.734375 0.578125 2.4375q0.578125 0.703125 1.546875 0.703125q0.734375 0 1.203125 -0.40625q0.46875 -0.421875 0.65625 -1.421875l2.515625 0.421875q-0.390625 1.734375 -1.515625 2.625q-1.109375 0.875 -2.96875 0.875q-2.125 0 -3.390625 -1.328125q-1.25 -1.34375 -1.25 -3.71875q0 -2.390625 1.265625 -3.71875q1.265625 -1.34375 3.421875 -1.34375q1.765625 0 2.796875 0.765625q1.046875 0.75 1.515625 2.3125zm1.8444672 6.8125l0 -13.359375l2.5625 0l0 7.09375l3.0 -3.40625l3.140625 0l-3.296875 3.53125l3.53125 6.140625l-2.75 0l-2.4375 -4.34375l-1.1875 1.25l0 3.09375l-2.5625 0z" fill-rule="nonzero"/><path fill="#000000" fill-opacity="0.0" d="m108.698166 318.01443l-25.000015 0l0 173.5748l27.771667 0" fill-rule="evenodd"/><path stroke="#ea9999" stroke-width="3.0" stroke-linejoin="round" stroke-linecap="butt" d="m108.698166 318.01443l-25.000015 0l0 173.5748l9.7716675 0" fill-rule="evenodd"/><path fill="#ea9999" stroke="#ea9999" stroke-width="3.0" stroke-linecap="butt" d="m93.46982 496.54443l13.614288 -4.9552l-13.614288 -4.9552z" fill-rule="evenodd"/><path fill="#000000" fill-opacity="0.0" d="m108.698166 404.8071l-25.000015 0l0 86.80313l27.771667 0" fill-rule="evenodd"/><path stroke="#ea9999" stroke-width="3.0" stroke-linejoin="round" stroke-linecap="butt" d="m108.698166 404.8071l-25.000015 0l0 86.80313l9.7716675 0" fill-rule="evenodd"/><path fill="#ea9999" stroke="#ea9999" stroke-width="3.0" stroke-linecap="butt" d="m93.46982 496.56543l13.614288 -4.9552l-13.614288 -4.9552z" fill-rule="evenodd"/><path fill="#000000" fill-opacity="0.0" d="m443.89764 146.16798l25.000366 0l0 345.4488l-216.7799 0" fill-rule="evenodd"/><path stroke="#ea9999" stroke-width="3.0" stroke-linejoin="round" stroke-linecap="butt" d="m443.89764 146.16798l25.000366 0l0 345.4488l-198.7799 0" fill-rule="evenodd"/><path fill="#ea9999" stroke="#ea9999" stroke-width="3.0" stroke-linecap="butt" d="m270.1181 486.6616l-13.614288 4.9552l13.614288 4.9552z" fill-rule="evenodd"/><path fill="#000000" fill-opacity="0.0" d="m513.4252 213.50519l0 203.9685l-35.433044 0l0 -203.9685z" fill-rule="evenodd"/><path fill="#d9d9d9" d="m491.6327 247.52252l0.484375 -2.65625q1.59375 0.453125 2.359375 1.546875q0.78125 1.09375 0.78125 3.25q0 1.953125 -0.46875 2.90625q-0.453125 0.96875 -1.171875 1.359375q-0.71875 0.390625 -2.625 0.390625l-3.40625 -0.03125q-1.46875 0 -2.15625 0.125q-0.6875 0.140625 -1.484375 0.53125l0 -2.890625q0.296875 -0.109375 0.859375 -0.28125q0.265625 -0.078125 0.34375 -0.109375q-0.71875 -0.75 -1.09375 -1.609375q-0.359375 -0.84375 -0.359375 -1.8125q0 -1.703125 0.921875 -2.6875q0.9375 -0.984375 2.34375 -0.984375q0.9375 0 1.671875 0.4375q0.734375 0.453125 1.125 1.25q0.390625 0.8125 0.6875 2.34375q0.390625 2.046875 0.71875 2.84375l0.296875 0q0.84375 0 1.203125 -0.421875q0.359375 -0.421875 0.359375 -1.578125q0 -0.78125 -0.3125 -1.21875q-0.3125 -0.4375 -1.078125 -0.703125zm-2.375 3.921875q-0.1875 -0.5625 -0.453125 -1.78125q-0.25 -1.21875 -0.5 -1.59375q-0.40625 -0.578125 -1.03125 -0.578125q-0.625 0 -1.078125 0.453125q-0.4375 0.46875 -0.4375 1.171875q0 0.796875 0.515625 1.515625q0.40625 0.53125 0.96875 0.6875q0.375 0.125 1.4375 0.125l0.578125 0zm-5.3125 5.6273193l15.265625 0l0 2.921875l-5.5 0q1.546875 1.359375 1.546875 3.21875q0 2.015625 -1.46875 3.328125q-1.453125 1.328125 -4.203125 1.328125q-2.828125 0 -4.359375 -1.34375q-1.53125 -1.34375 -1.53125 -3.28125q0 -0.9375 0.46875 -1.859375q0.484375 -0.921875 1.40625 -1.59375l-1.625 0l0 -2.71875zm5.765625 2.90625q-1.71875 0 -2.53125 0.546875q-1.171875 0.75 -1.171875 2.015625q0 0.96875 0.828125 1.640625q0.828125 0.6875 2.609375 0.6875q1.890625 0 2.734375 -0.6875q0.84375 -0.6875 0.84375 -1.75q0 -1.0625 -0.828125 -1.765625q-0.8125 -0.6875 -2.484375 -0.6875zm-0.078125 9.574951q1.453125 0 2.8125 0.71875q1.375 0.71875 2.09375 2.03125q0.71875 1.3125 0.71875 2.9375q0 2.515625 -1.640625 4.109375q-1.625 1.609375 -4.109375 1.609375q-2.515625 0 -4.171875 -1.625q-1.640625 -1.609375 -1.640625 -4.0625q0 -1.53125 0.6875 -2.90625q0.6875 -1.375 2.015625 -2.09375q1.328125 -0.71875 3.234375 -0.71875zm-0.15625 3.0q-1.640625 0 -2.515625 0.78125q-0.875 0.78125 -0.875 1.921875q0 1.140625 0.875 1.921875q0.875 0.78125 2.53125 0.78125q1.625 0 2.5 -0.78125q0.875 -0.78125 0.875 -1.921875q0 -1.140625 -0.875 -1.921875q-0.875 -0.78125 -2.515625 -0.78125zm-5.53125 13.496826l0 -2.921875l11.0625 0l0 2.71875l-1.578125 0q1.125 0.703125 1.46875 1.25q0.359375 0.5625 0.359375 1.265625q0 1.0 -0.5625 1.9375l-2.546875 -0.90625q0.484375 -0.75 0.484375 -1.375q0 -0.625 -0.34375 -1.046875q-0.328125 -0.421875 -1.21875 -0.671875q-0.890625 -0.25 -3.703125 -0.25l-3.421875 0zm11.0625 10.581329l-2.328125 0l0 -2.0l-4.46875 0q-1.34375 0 -1.578125 0.046875q-0.21875 0.0625 -0.375 0.265625q-0.140625 0.203125 -0.140625 0.5q0 0.40625 0.28125 1.171875l-2.265625 0.25q-0.4375 -1.015625 -0.4375 -2.3125q0 -0.796875 0.265625 -1.4375q0.265625 -0.625 0.6875 -0.921875q0.421875 -0.296875 1.140625 -0.40625q0.515625 -0.09375 2.0625 -0.09375l4.828125 0l0 -1.34375l2.328125 0l0 1.34375l2.1875 0l1.71875 2.9375l-3.90625 0l0 2.0zm-5.375 7.278076q1.453125 0 2.8125 0.71875q1.375 0.71875 2.09375 2.03125q0.71875 1.3125 0.71875 2.9375q0 2.515625 -1.640625 4.109375q-1.625 1.609375 -4.109375 1.609375q-2.515625 0 -4.171875 -1.625q-1.640625 -1.609375 -1.640625 -4.0625q0 -1.53125 0.6875 -2.90625q0.6875 -1.375 2.015625 -2.09375q1.328125 -0.71875 3.234375 -0.71875zm-0.15625 3.0q-1.640625 0 -2.515625 0.78125q-0.875 0.78125 -0.875 1.921875q0 1.140625 0.875 1.921875q0.875 0.78125 2.53125 0.78125q1.625 0 2.5 -0.78125q0.875 -0.78125 0.875 -1.921875q0 -1.140625 -0.875 -1.921875q-0.875 -0.78125 -2.515625 -0.78125zm-5.53125 13.496826l0 -2.921875l11.0625 0l0 2.71875l-1.578125 0q1.125 0.703125 1.46875 1.25q0.359375 0.5625 0.359375 1.265625q0 1.0 -0.5625 1.9375l-2.546875 -0.90625q0.484375 -0.75 0.484375 -1.375q0 -0.625 -0.34375 -1.046875q-0.328125 -0.421875 -1.21875 -0.671875q-0.890625 -0.25 -3.703125 -0.25l-3.421875 0zm11.0625 10.147583l0 1.625l0.828125 0q1.390625 0 2.078125 0.296875q0.6875 0.296875 1.125 1.09375q0.4375 0.796875 0.4375 2.015625q0 1.25 -0.375 2.453125l-2.046875 -0.40625q0.171875 -0.6875 0.171875 -1.34375q0 -0.625 -0.296875 -0.90625q-0.296875 -0.28125 -1.140625 -0.28125l-0.78125 0l0 2.1875l-2.296875 0l0 -2.1875l-8.765625 0l0 -2.921875l8.765625 0l0 -1.625l2.296875 0zm1.5 8.383667l2.703125 0l0 2.921875l-2.703125 0l0 -2.921875zm-12.5625 0l11.0625 0l0 2.921875l-11.0625 0l0 -2.921875zm0 15.988159l0 -2.921875l5.640625 0q1.796875 0 2.3125 -0.1875q0.53125 -0.1875 0.828125 -0.609375q0.296875 -0.421875 0.296875 -1.015625q0 -0.765625 -0.421875 -1.375q-0.421875 -0.59375 -1.109375 -0.828125q-0.6875 -0.21875 -2.53125 -0.21875l-5.015625 0l0 -2.921875l11.0625 0l0 2.71875l-1.625 0q1.875 1.4375 1.875 3.640625q0 0.96875 -0.359375 1.765625q-0.34375 0.8125 -0.890625 1.21875q-0.53125 0.40625 -1.21875 0.5625q-0.6875 0.171875 -1.96875 0.171875l-6.875 0zm12.5625 2.9655762l2.703125 0l0 2.921875l-2.703125 0l0 -2.921875zm-12.5625 0l11.0625 0l0 2.921875l-11.0625 0l0 -2.921875zm3.15625 4.8943787l0.453125 2.9375q-0.859375 0.1875 -1.3125 0.75q-0.4375 0.578125 -0.4375 1.609375q0 1.140625 0.421875 1.71875q0.296875 0.375 0.78125 0.375q0.328125 0 0.546875 -0.203125q0.21875 -0.21875 0.390625 -0.984375q0.78125 -3.53125 1.421875 -4.484375q0.90625 -1.3125 2.5 -1.3125q1.4375 0 2.40625 1.125q0.984375 1.140625 0.984375 3.53125q0 2.265625 -0.75 3.375q-0.734375 1.109375 -2.171875 1.515625l-0.515625 -2.75q0.640625 -0.1875 0.984375 -0.6875q0.34375 -0.484375 0.34375 -1.40625q0 -1.15625 -0.3125 -1.65625q-0.234375 -0.328125 -0.59375 -0.328125q-0.3125 0 -0.53125 0.296875q-0.296875 0.390625 -0.828125 2.71875q-0.53125 2.34375 -1.296875 3.28125q-0.78125 0.90625 -2.1875 0.90625q-1.515625 0 -2.609375 -1.265625q-1.09375 -1.265625 -1.09375 -3.765625q0 -2.25 0.90625 -3.578125q0.921875 -1.3125 2.5 -1.71875zm12.109375 15.814819l-5.609375 0q1.65625 1.40625 1.65625 3.375q0 1.015625 -0.375 1.828125q-0.375 0.8125 -0.96875 1.21875q-0.578125 0.40625 -1.28125 0.5625q-0.703125 0.15625 -2.203125 0.15625l-6.484375 0l0 -2.921875l5.84375 0q1.734375 0 2.203125 -0.171875q0.46875 -0.171875 0.75 -0.59375q0.28125 -0.421875 0.28125 -1.046875q0 -0.734375 -0.359375 -1.3125q-0.359375 -0.5625 -1.078125 -0.828125q-0.703125 -0.265625 -2.09375 -0.265625l-5.546875 0l0 -2.9375l15.265625 0l0 2.9375z" fill-rule="nonzero"/><path fill="#990000" d="m325.6299 318.3386l0 0c0 -27.309845 22.139008 -49.448822 49.448822 -49.448822l0 0c13.114655 0 25.692139 5.209778 34.965607 14.483215c9.2734375 9.273468 14.483215 21.850952 14.483215 34.965607l0 0c0 27.309814 -22.138977 49.448822 -49.448822 49.448822l0 0c-27.309814 0 -49.448822 -22.139008 -49.448822 -49.448822z" fill-rule="evenodd"/><path stroke="#ea9999" stroke-width="1.0" stroke-linejoin="round" stroke-linecap="butt" d="m325.6299 318.3386l0 0c0 -27.309845 22.139008 -49.448822 49.448822 -49.448822l0 0c13.114655 0 25.692139 5.209778 34.965607 14.483215c9.2734375 9.273468 14.483215 21.850952 14.483215 34.965607l0 0c0 27.309814 -22.138977 49.448822 -49.448822 49.448822l0 0c-27.309814 0 -49.448822 -22.139008 -49.448822 -49.448822z" fill-rule="evenodd"/><path fill="#ffff00" d="m358.12125 322.30295l2.90625 0.484375q-0.546875 1.609375 -1.765625 2.453125q-1.21875 0.828125 -3.03125 0.828125q-2.890625 0 -4.28125 -1.890625q-1.09375 -1.5 -1.09375 -3.8125q0 -2.75 1.4375 -4.296875q1.4375 -1.5625 3.640625 -1.5625q2.46875 0 3.890625 1.640625q1.421875 1.625 1.359375 4.984375l-7.328125 0q0.03125 1.296875 0.703125 2.03125q0.6875 0.71875 1.703125 0.71875q0.6875 0 1.15625 -0.375q0.46875 -0.375 0.703125 -1.203125zm0.171875 -2.96875q-0.03125 -1.265625 -0.65625 -1.921875q-0.625 -0.671875 -1.53125 -0.671875q-0.953125 0 -1.578125 0.703125q-0.625 0.703125 -0.609375 1.890625l4.375 0zm8.080444 6.484375l-2.921875 0l0 -11.0625l2.71875 0l0 1.578125q0.703125 -1.125 1.25 -1.46875q0.5625 -0.359375 1.265625 -0.359375q1.0 0 1.9375 0.5625l-0.90625 2.546875q-0.75 -0.484375 -1.375 -0.484375q-0.625 0 -1.046875 0.34375q-0.421875 0.328125 -0.671875 1.21875q-0.25 0.890625 -0.25 3.703125l0 3.421875zm8.300079 0l-2.921875 0l0 -11.0625l2.71875 0l0 1.578125q0.703125 -1.125 1.25 -1.46875q0.5625 -0.359375 1.265625 -0.359375q1.0 0 1.9375 0.5625l-0.90625 2.546875q-0.75 -0.484375 -1.375 -0.484375q-0.625 0 -1.046875 0.34375q-0.421875 0.328125 -0.671875 1.21875q-0.25 0.890625 -0.25 3.703125l0 3.421875zm4.831299 -5.6875q0 -1.453125 0.71875 -2.8125q0.71875 -1.375 2.03125 -2.09375q1.3125 -0.71875 2.9375 -0.71875q2.515625 0 4.109375 1.640625q1.609375 1.625 1.609375 4.109375q0 2.515625 -1.625 4.171875q-1.609375 1.640625 -4.0625 1.640625q-1.53125 0 -2.90625 -0.6875q-1.375 -0.6875 -2.09375 -2.015625q-0.71875 -1.328125 -0.71875 -3.234375zm3.0 0.15625q0 1.640625 0.78125 2.515625q0.78125 0.875 1.921875 0.875q1.140625 0 1.921875 -0.875q0.78125 -0.875 0.78125 -2.53125q0 -1.625 -0.78125 -2.5q-0.78125 -0.875 -1.921875 -0.875q-1.140625 0 -1.921875 0.875q-0.78125 0.875 -0.78125 2.515625zm13.496826 5.53125l-2.921875 0l0 -11.0625l2.71875 0l0 1.578125q0.703125 -1.125 1.25 -1.46875q0.5625 -0.359375 1.265625 -0.359375q1.0 0 1.9375 0.5625l-0.90625 2.546875q-0.75 -0.484375 -1.375 -0.484375q-0.625 0 -1.046875 0.34375q-0.421875 0.328125 -0.671875 1.21875q-0.25 0.890625 -0.25 3.703125l0 3.421875z" fill-rule="nonzero"/><path fill="#000000" fill-opacity="0.0" d="m426.76904 185.01837l0 72.15747l-35.433075 0l0 -72.15747z" fill-rule="evenodd"/><path fill="#d9d9d9" d="m397.28903 198.3465l0 -2.921875l11.0625 0l0 2.71875l-1.578125 0q1.125 0.703125 1.46875 1.25q0.359375 0.5625 0.359375 1.265625q0 1.0 -0.5625 1.9375l-2.546875 -0.90625q0.484375 -0.75 0.484375 -1.375q0 -0.625 -0.34375 -1.046875q-0.328125 -0.421875 -1.21875 -0.671875q-0.890625 -0.25 -3.703125 -0.25l-3.421875 0zm7.6875 7.690689l0.484375 -2.65625q1.59375 0.453125 2.359375 1.546875q0.78125 1.09375 0.78125 3.25q0 1.953125 -0.46875 2.90625q-0.453125 0.96875 -1.171875 1.359375q-0.71875 0.390625 -2.625 0.390625l-3.40625 -0.03125q-1.46875 0 -2.15625 0.125q-0.6875 0.140625 -1.484375 0.53125l0 -2.890625q0.296875 -0.109375 0.859375 -0.28125q0.265625 -0.078125 0.34375 -0.109375q-0.71875 -0.75 -1.09375 -1.609375q-0.359375 -0.84375 -0.359375 -1.8125q0 -1.703125 0.921875 -2.6875q0.9375 -0.984375 2.34375 -0.984375q0.9375 0 1.671875 0.4375q0.734375 0.453125 1.125 1.25q0.390625 0.8125 0.6875 2.34375q0.390625 2.046875 0.71875 2.84375l0.296875 0q0.84375 0 1.203125 -0.421875q0.359375 -0.421875 0.359375 -1.578125q0 -0.78125 -0.3125 -1.21875q-0.3125 -0.4375 -1.078125 -0.703125zm-2.375 3.921875q-0.1875 -0.5625 -0.453125 -1.78125q-0.25 -1.21875 -0.5 -1.59375q-0.40625 -0.578125 -1.03125 -0.578125q-0.625 0 -1.078125 0.453125q-0.4375 0.46875 -0.4375 1.171875q0 0.796875 0.515625 1.515625q0.40625 0.53125 0.96875 0.6875q0.375 0.125 1.4375 0.125l0.578125 0zm7.25 5.7523193l2.703125 0l0 2.921875l-2.703125 0l0 -2.921875zm-12.5625 0l11.0625 0l0 2.921875l-11.0625 0l0 -2.921875zm3.15625 4.894394l0.453125 2.9375q-0.859375 0.1875 -1.3125 0.75q-0.4375 0.578125 -0.4375 1.609375q0 1.140625 0.421875 1.71875q0.296875 0.375 0.78125 0.375q0.328125 0 0.546875 -0.203125q0.21875 -0.21875 0.390625 -0.984375q0.78125 -3.53125 1.421875 -4.484375q0.90625 -1.3125 2.5 -1.3125q1.4375 0 2.40625 1.125q0.984375 1.140625 0.984375 3.53125q0 2.265625 -0.75 3.375q-0.734375 1.109375 -2.171875 1.515625l-0.515625 -2.75q0.640625 -0.1875 0.984375 -0.6875q0.34375 -0.484375 0.34375 -1.40625q0 -1.15625 -0.3125 -1.65625q-0.234375 -0.328125 -0.59375 -0.328125q-0.3125 0 -0.53125 0.296875q-0.296875 0.390625 -0.828125 2.71875q-0.53125 2.34375 -1.296875 3.28125q-0.78125 0.90625 -2.1875 0.90625q-1.515625 0 -2.609375 -1.265625q-1.09375 -1.265625 -1.09375 -3.765625q0 -2.25 0.90625 -3.578125q0.921875 -1.3125 2.5 -1.71875zm0.359375 19.299194l-0.484375 2.90625q-1.609375 -0.546875 -2.453125 -1.765625q-0.828125 -1.21875 -0.828125 -3.03125q0 -2.890625 1.890625 -4.28125q1.5 -1.09375 3.8125 -1.09375q2.75 0 4.296875 1.4375q1.5625 1.4375 1.5625 3.640625q0 2.46875 -1.640625 3.890625q-1.625 1.421875 -4.984375 1.359375l0 -7.328125q-1.296875 0.03125 -2.03125 0.703125q-0.71875 0.6875 -0.71875 1.703125q0 0.6875 0.375 1.15625q0.375 0.46875 1.203125 0.703125zm2.96875 0.171875q1.265625 -0.03125 1.921875 -0.65625q0.671875 -0.625 0.671875 -1.53125q0 -0.953125 -0.703125 -1.578125q-0.703125 -0.625 -1.890625 -0.609375l0 4.375z" fill-rule="nonzero"/><path fill="#000000" fill-opacity="0.0" d="m108.69685 229.1063l-24.999992 0l0 -172.56693l221.06299 0" fill-rule="evenodd"/><path stroke="#ea9999" stroke-width="3.0" stroke-linejoin="round" stroke-linecap="butt" stroke-dasharray="12.0,9.0" d="m108.69685 229.1063l-24.999992 0l0 -172.56693l203.06299 0" fill-rule="evenodd"/><path fill="#ea9999" stroke="#ea9999" stroke-width="3.0" stroke-linecap="butt" d="m286.75986 61.494568l13.614288 -4.9551964l-13.614288 -4.9552z" fill-rule="evenodd"/><path fill="#000000" fill-opacity="0.0" d="m154.13911 6.469816l75.71652 0l0 35.433067l-75.71652 0z" fill-rule="evenodd"/><path fill="#d9d9d9" d="m167.46724 35.949818l-2.921875 0l0 -11.062502l2.71875 0l0 1.578125q0.703125 -1.125 1.25 -1.46875q0.5625 -0.359375 1.265625 -0.359375q1.0 0 1.9375 0.5625l-0.90625 2.546875q-0.75 -0.484375 -1.375 -0.484375q-0.625 0 -1.046875 0.34375q-0.421875 0.328125 -0.671875 1.21875q-0.25 0.890625 -0.25 3.703127l0 3.421875zm11.909439 -3.515625l2.90625 0.484375q-0.546875 1.609375 -1.765625 2.453125q-1.21875 0.828125 -3.03125 0.828125q-2.890625 0 -4.28125 -1.890625q-1.09375 -1.5 -1.09375 -3.812502q0 -2.75 1.4375 -4.296875q1.4375 -1.5625 3.640625 -1.5625q2.46875 0 3.890625 1.640625q1.421875 1.625 1.359375 4.984375l-7.328125 0q0.03125 1.2968769 0.703125 2.031252q0.6875 0.71875 1.703125 0.71875q0.6875 0 1.15625 -0.375q0.46875 -0.375 0.703125 -1.203125zm0.171875 -2.968752q-0.03125 -1.265625 -0.65625 -1.921875q-0.625 -0.671875 -1.53125 -0.671875q-0.953125 0 -1.578125 0.703125q-0.625 0.703125 -0.609375 1.890625l4.375 0zm10.361694 -4.578125l0 2.328125l-2.0 0l0 4.46875q0 1.3437519 0.046875 1.5781269q0.0625 0.21875 0.265625 0.375q0.203125 0.140625 0.5 0.140625q0.40625 0 1.171875 -0.28125l0.25 2.265625q-1.015625 0.4375 -2.3125 0.4375q-0.796875 0 -1.4375 -0.265625q-0.625 -0.265625 -0.921875 -0.6875q-0.296875 -0.421875 -0.40625 -1.140625q-0.09375 -0.515625 -0.09375 -2.0625l0 -4.828127l-1.34375 0l0 -2.328125l1.34375 0l0 -2.1875l2.9375 -1.71875l0 3.90625l2.0 0zm4.8211823 11.062502l-2.921875 0l0 -11.062502l2.71875 0l0 1.578125q0.703125 -1.125 1.25 -1.46875q0.5625 -0.359375 1.265625 -0.359375q1.0 0 1.9375 0.5625l-0.90625 2.546875q-0.75 -0.484375 -1.375 -0.484375q-0.625 0 -1.046875 0.34375q-0.421875 0.328125 -0.671875 1.21875q-0.25 0.890625 -0.25 3.703127l0 3.421875zm4.112564 -11.062502l3.125 0l2.640625 7.859377l2.578125 -7.859377l3.03125 0l-3.90625 10.640627l-0.6875 1.9375q-0.390625 0.96875 -0.75 1.46875q-0.34375 0.515625 -0.796875 0.828125q-0.453125 0.328125 -1.109375 0.5q-0.65625 0.171875 -1.5 0.171875q-0.84375 0 -1.65625 -0.171875l-0.25 -2.296875q0.6875 0.140625 1.234375 0.140625q1.015625 0 1.5 -0.609375q0.5 -0.59375 0.765625 -1.515625l-4.21875 -11.093752z" fill-rule="nonzero"/></g></svg>