<svg version="1.1" viewBox="0.0 0.0 524.7532808398951 274.005249343832" fill="none" stroke="none" stroke-linecap="square" stroke-miterlimit="10" xmlns:xlink="http://www.w3.org/1999/xlink" xmlns="http://www.w3.org/2000/svg"><clipPath id="p.0"><path d="m0 0l524.7533 0l0 274.00525l-524.7533 0l0 -274.00525z" clip-rule="nonzero"/></clipPath><g clip-path="url(#p.0)"><path fill="#000000" fill-opacity="0.0" d="m0 0l524.7533 0l0 274.00525l-524.7533 0z" fill-rule="evenodd"/><path fill="#666666" d="m-0.62204725 -0.43307087l524.7559 0l0 274.01575l-524.7559 0z" fill-rule="evenodd"/><path stroke="#434343" stroke-width="1.0" stroke-linejoin="round" stroke-linecap="butt" d="m-0.62204725 -0.43307087l524.7559 0l0 274.01575l-524.7559 0z" fill-rule="evenodd"/><path fill="#3d85c6" d="m22.37664 108.90157l48.0 0l0 48.000008l-48.0 0z" fill-rule="evenodd"/><path stroke="#ffffff" stroke-width="2.0" stroke-linejoin="round" stroke-linecap="butt" d="m22.37664 108.90157l48.0 0l0 48.000008l-48.0 0z" fill-rule="evenodd"/><path fill="#ffffff" d="m46.30517 125.05345q2.21875 0 3.46875 1.578125q1.484375 1.875 1.484375 6.21875q0 4.328125 -1.5 6.234375q-1.234375 1.5625 -3.453125 1.5625q-2.234375 0 -3.609375 -1.71875q-1.359375 -1.71875 -1.359375 -6.109375q0 -4.3125 1.5 -6.203125q1.25 -1.5625 3.46875 -1.5625zm0 2.421875q-0.53125 0 -0.953125 0.34375q-0.421875 0.34375 -0.640625 1.21875q-0.3125 1.125 -0.3125 3.8125q0 2.6875 0.265625 3.703125q0.28125 1.0 0.6875 1.328125q0.421875 0.328125 0.953125 0.328125q0.53125 0 0.9375 -0.328125q0.421875 -0.34375 0.65625 -1.21875q0.296875 -1.125 0.296875 -3.8125q0 -2.6875 -0.28125 -3.6875q-0.265625 -1.0 -0.671875 -1.34375q-0.40625 -0.34375 -0.9375 -0.34375z" fill-rule="nonzero"/><path fill="#3d85c6" d="m70.37664 108.90157l48.0 0l0 48.000008l-48.0 0z" fill-rule="evenodd"/><path stroke="#ffffff" stroke-width="2.0" stroke-linejoin="round" stroke-linecap="butt" d="m70.37664 108.90157l48.0 0l0 48.000008l-48.0 0z" fill-rule="evenodd"/><path fill="#ffffff" d="m96.83642 140.38158l-2.921875 0l0 -11.03125q-1.609375 1.5 -3.78125 2.21875l0 -2.65625q1.140625 -0.375 2.484375 -1.421875q1.34375 -1.046875 1.84375 -2.4375l2.375 0l0 15.328125z" fill-rule="nonzero"/><path fill="#3d85c6" d="m166.37665 108.90157l48.0 0l0 48.000008l-48.0 0z" fill-rule="evenodd"/><path stroke="#ffffff" stroke-width="2.0" stroke-linejoin="round" stroke-linecap="butt" d="m166.37665 108.90157l48.0 0l0 48.000008l-48.0 0z" fill-rule="evenodd"/><path fill="#ffffff" d="m185.24268 136.3347l2.84375 -0.34375q0.125 1.078125 0.71875 1.65625q0.59375 0.5625 1.4375 0.5625q0.90625 0 1.53125 -0.6875q0.625 -0.6875 0.625 -1.84375q0 -1.109375 -0.59375 -1.75q-0.59375 -0.65625 -1.453125 -0.65625q-0.5625 0 -1.34375 0.21875l0.328125 -2.375q1.1875 0.03125 1.8125 -0.515625q0.625 -0.546875 0.625 -1.453125q0 -0.765625 -0.46875 -1.21875q-0.453125 -0.46875 -1.21875 -0.46875q-0.75 0 -1.28125 0.53125q-0.53125 0.515625 -0.640625 1.515625l-2.703125 -0.46875q0.28125 -1.375 0.84375 -2.203125q0.578125 -0.828125 1.59375 -1.296875q1.015625 -0.484375 2.28125 -0.484375q2.15625 0 3.453125 1.375q1.078125 1.125 1.078125 2.546875q0 2.0 -2.203125 3.203125q1.3125 0.28125 2.09375 1.265625q0.78125 0.96875 0.78125 2.359375q0 2.0 -1.46875 3.421875q-1.453125 1.421875 -3.640625 1.421875q-2.078125 0 -3.453125 -1.1875q-1.359375 -1.203125 -1.578125 -3.125z" fill-rule="nonzero"/><path fill="#3d85c6" d="m118.37664 108.90157l48.000008 0l0 48.000008l-48.000008 0z" fill-rule="evenodd"/><path stroke="#ffffff" stroke-width="2.0" stroke-linejoin="round" stroke-linecap="butt" d="m118.37664 108.90157l48.000008 0l0 48.000008l-48.000008 0z" fill-rule="evenodd"/><path fill="#ffffff" d="m147.22705 137.66283l0 2.71875l-10.25 0q0.171875 -1.546875 1.0 -2.921875q0.828125 -1.375 3.296875 -3.65625q1.96875 -1.84375 2.421875 -2.5q0.609375 -0.90625 0.609375 -1.796875q0 -0.96875 -0.53125 -1.5q-0.53125 -0.53125 -1.453125 -0.53125q-0.921875 0 -1.46875 0.5625q-0.53125 0.546875 -0.609375 1.828125l-2.921875 -0.296875q0.265625 -2.40625 1.640625 -3.453125q1.375 -1.0625 3.4375 -1.0625q2.25 0 3.53125 1.21875q1.296875 1.21875 1.296875 3.03125q0 1.03125 -0.375 1.96875q-0.359375 0.921875 -1.15625 1.9375q-0.53125 0.6875 -1.921875 1.953125q-1.375 1.265625 -1.75 1.6875q-0.375 0.421875 -0.59375 0.8125l5.796875 0z" fill-rule="nonzero"/><path fill="#3d85c6" d="m214.37665 108.90157l48.0 0l0 48.000008l-48.0 0z" fill-rule="evenodd"/><path stroke="#ffffff" stroke-width="2.0" stroke-linejoin="round" stroke-linecap="butt" d="m214.37665 108.90157l48.0 0l0 48.000008l-48.0 0z" fill-rule="evenodd"/><path fill="#ffffff" d="m239.08643 140.38158l0 -3.078125l-6.25 0l0 -2.5625l6.625 -9.6875l2.46875 0l0 9.6875l1.890625 0l0 2.5625l-1.890625 0l0 3.078125l-2.84375 0zm0 -5.640625l0 -5.21875l-3.5 5.21875l3.5 0z" fill-rule="nonzero"/><path fill="#f1c232" d="m38.37664 98.51575l4.0 0l0 -40.0l8.0 0l0 40.0l4.0 0l-8.0 8.0z" fill-rule="evenodd"/><path stroke="#000000" stroke-width="2.0" stroke-linejoin="round" stroke-linecap="butt" d="m38.37664 98.51575l4.0 0l0 -40.0l8.0 0l0 40.0l4.0 0l-8.0 8.0z" fill-rule="evenodd"/><path fill="#f1c232" d="m246.37665 98.51575l-8.0 8.0l-8.0 -8.0l4.0 0l0 -40.0l8.0 0l0 40.0z" fill-rule="evenodd"/><path stroke="#000000" stroke-width="2.0" stroke-linejoin="round" stroke-linecap="butt" d="m246.37665 98.51575l-8.0 8.0l-8.0 -8.0l4.0 0l0 -40.0l8.0 0l0 40.0z" fill-rule="evenodd"/><path fill="#000000" fill-opacity="0.0" d="m3.9225721 18.515749l160.0 0l0 40.0l-160.0 0z" fill-rule="evenodd"/><path fill="#efefef" d="m16.641323 40.308247l-2.656251 -0.484375q0.453125 -1.59375 1.546875 -2.359375q1.093751 -0.78125 3.250001 -0.78125q1.953125 0 2.90625 0.46875q0.96875 0.453125 1.359375 1.171875q0.390625 0.71875 0.390625 2.625l-0.03125 3.40625q0 1.46875 0.125 2.15625q0.140625 0.6875 0.53125 1.484375l-2.890625 0q-0.109375 -0.296875 -0.28125 -0.859375q-0.078125 -0.265625 -0.109375 -0.34375q-0.75 0.71875 -1.609375 1.09375q-0.84375 0.359375 -1.8125 0.359375q-1.703126 0 -2.687501 -0.921875q-0.984375 -0.9375 -0.984375 -2.34375q0 -0.9375 0.4375 -1.671875q0.453125 -0.734375 1.25 -1.125q0.81250095 -0.390625 2.343751 -0.6875q2.046875 -0.390625 2.84375 -0.71875l0 -0.296875q0 -0.84375 -0.421875 -1.203125q-0.421875 -0.359375 -1.578125 -0.359375q-0.78125 0 -1.21875 0.3125q-0.4375 0.3125 -0.703125 1.078125zm3.921875 2.375q-0.5625 0.1875 -1.78125 0.453125q-1.21875 0.25 -1.59375 0.5q-0.578125 0.40625 -0.578125 1.03125q0 0.625 0.453125 1.078125q0.46875 0.4375 1.171875 0.4375q0.796875 0 1.515625 -0.515625q0.53125 -0.40625 0.6875 -0.96875q0.125 -0.375 0.125 -1.4375l0 -0.578125zm8.549194 5.3125l-2.921875 0l0 -11.0625l2.71875 0l0 1.578125q0.703125 -1.125 1.25 -1.46875q0.5625 -0.359375 1.265625 -0.359375q1.0 0 1.9375 0.5625l-0.90625 2.546875q-0.75 -0.484375 -1.375 -0.484375q-0.625 0 -1.046875 0.34375q-0.421875 0.328125 -0.671875 1.21875q-0.25 0.890625 -0.25 3.703125l0 3.421875zm8.300064 0l-2.921875 0l0 -11.0625l2.71875 0l0 1.578125q0.703125 -1.125 1.25 -1.46875q0.5625 -0.359375 1.265625 -0.359375q1.0 0 1.9375 0.5625l-0.90625 2.546875q-0.75 -0.484375 -1.375 -0.484375q-0.625 0 -1.046875 0.34375q-0.421875 0.328125 -0.671875 1.21875q-0.25 0.890625 -0.25 3.703125l0 3.421875zm7.690689 -7.6875l-2.65625 -0.484375q0.453125 -1.59375 1.546875 -2.359375q1.09375 -0.78125 3.25 -0.78125q1.953125 0 2.90625 0.46875q0.96875 0.453125 1.359375 1.171875q0.390625 0.71875 0.390625 2.625l-0.03125 3.40625q0 1.46875 0.125 2.15625q0.140625 0.6875 0.53125 1.484375l-2.890625 0q-0.109375 -0.296875 -0.28125 -0.859375q-0.078125 -0.265625 -0.109375 -0.34375q-0.75 0.71875 -1.609375 1.09375q-0.84375 0.359375 -1.8125 0.359375q-1.703125 0 -2.6875 -0.921875q-0.984375 -0.9375 -0.984375 -2.34375q0 -0.9375 0.4375 -1.671875q0.453125 -0.734375 1.25 -1.125q0.8125 -0.390625 2.34375 -0.6875q2.046875 -0.390625 2.84375 -0.71875l0 -0.296875q0 -0.84375 -0.421875 -1.203125q-0.421875 -0.359375 -1.578125 -0.359375q-0.78125 0 -1.21875 0.3125q-0.4375 0.3125 -0.703125 1.078125zm3.921875 2.375q-0.5625 0.1875 -1.78125 0.453125q-1.21875 0.25 -1.59375 0.5q-0.578125 0.40625 -0.578125 1.03125q0 0.625 0.453125 1.078125q0.46875 0.4375 1.171875 0.4375q0.796875 0 1.515625 -0.515625q0.53125 -0.40625 0.6875 -0.96875q0.125 -0.375 0.125 -1.4375l0 -0.578125zm4.3616943 -5.75l3.125 0l2.640625 7.859375l2.578125 -7.859375l3.0312462 0l-3.9062462 10.640625l-0.6875 1.9375q-0.390625 0.96875 -0.75 1.46875q-0.34375 0.515625 -0.796875 0.828125q-0.453125 0.328125 -1.109375 0.5q-0.65625 0.171875 -1.5 0.171875q-0.84375 0 -1.65625 -0.171875l-0.25 -2.296875q0.6875 0.140625 1.234375 0.140625q1.015625 0 1.5 -0.609375q0.5 -0.59375 0.765625 -1.515625l-4.21875 -11.09375zm13.2366905 15.359375l0 -19.5625l5.1875 0l0 2.296875l-2.40625 0l0 14.96875l2.40625 0l0 2.296875l-5.1875 0zm13.977432 -4.296875l-2.921875 0l0 -11.03125q-1.609375 1.5 -3.78125 2.21875l0 -2.65625q1.140625 -0.375 2.484375 -1.421875q1.34375 -1.046875 1.84375 -2.4375l2.375 0l0 15.328125zm9.049194 -15.265625l0 19.5625l-5.1875 0l0 -2.296875l2.40625 0l0 -14.984375l-2.40625 0l0 -2.28125l5.1875 0z" fill-rule="nonzero"/><path fill="#000000" fill-opacity="0.0" d="m197.70473 16.129921l135.99998 0l0 40.0l-135.99998 0z" fill-rule="evenodd"/><path fill="#efefef" d="m210.42348 37.92242l-2.65625 -0.484375q0.453125 -1.59375 1.546875 -2.359375q1.09375 -0.78125 3.25 -0.78125q1.953125 0 2.90625 0.46875q0.96875 0.453125 1.359375 1.171875q0.390625 0.71875 0.390625 2.625l-0.03125 3.40625q0 1.46875 0.125 2.15625q0.140625 0.6875 0.53125 1.484375l-2.890625 0q-0.109375 -0.296875 -0.28125 -0.859375q-0.078125 -0.265625 -0.109375 -0.34375q-0.75 0.71875 -1.609375 1.09375q-0.84375 0.359375 -1.8125 0.359375q-1.703125 0 -2.6875 -0.921875q-0.984375 -0.9375 -0.984375 -2.34375q0 -0.9375 0.4375 -1.671875q0.453125 -0.734375 1.25 -1.125q0.8125 -0.390625 2.34375 -0.6875q2.046875 -0.390625 2.84375 -0.71875l0 -0.296875q0 -0.84375 -0.421875 -1.203125q-0.421875 -0.359375 -1.578125 -0.359375q-0.78125 0 -1.21875 0.3125q-0.4375 0.3125 -0.703125 1.078125zm3.921875 2.375q-0.5625 0.1875 -1.78125 0.453125q-1.21875 0.25 -1.59375 0.5q-0.578125 0.40625 -0.578125 1.03125q0 0.625 0.453125 1.078125q0.46875 0.4375 1.171875 0.4375q0.796875 0 1.515625 -0.515625q0.53125 -0.40625 0.6875 -0.96875q0.125 -0.375 0.125 -1.4375l0 -0.578125zm8.549194 5.3125l-2.921875 0l0 -11.0625l2.71875 0l0 1.578125q0.703125 -1.125 1.25 -1.46875q0.5625 -0.359375 1.265625 -0.359375q1.0 0 1.9375 0.5625l-0.90625 2.546875q-0.75 -0.484375 -1.375 -0.484375q-0.625 0 -1.046875 0.34375q-0.421875 0.328125 -0.671875 1.21875q-0.25 0.890625 -0.25 3.703125l0 3.421875zm8.300064 0l-2.921875 0l0 -11.0625l2.71875 0l0 1.578125q0.703125 -1.125 1.25 -1.46875q0.5625 -0.359375 1.265625 -0.359375q1.0 0 1.9375 0.5625l-0.90625 2.546875q-0.75 -0.484375 -1.375 -0.484375q-0.625 0 -1.046875 0.34375q-0.421875 0.328125 -0.671875 1.21875q-0.25 0.890625 -0.25 3.703125l0 3.421875zm7.690689 -7.6875l-2.65625 -0.484375q0.453125 -1.59375 1.546875 -2.359375q1.09375 -0.78125 3.25 -0.78125q1.953125 0 2.90625 0.46875q0.96875 0.453125 1.359375 1.171875q0.390625 0.71875 0.390625 2.625l-0.03125 3.40625q0 1.46875 0.125 2.15625q0.140625 0.6875 0.53125 1.484375l-2.890625 0q-0.109375 -0.296875 -0.28125 -0.859375q-0.078125 -0.265625 -0.109375 -0.34375q-0.75 0.71875 -1.609375 1.09375q-0.84375 0.359375 -1.8125 0.359375q-1.703125 0 -2.6875 -0.921875q-0.984375 -0.9375 -0.984375 -2.34375q0 -0.9375 0.4375 -1.671875q0.453125 -0.734375 1.25 -1.125q0.8125 -0.390625 2.34375 -0.6875q2.046875 -0.390625 2.84375 -0.71875l0 -0.296875q0 -0.84375 -0.421875 -1.203125q-0.421875 -0.359375 -1.578125 -0.359375q-0.78125 0 -1.21875 0.3125q-0.4375 0.3125 -0.703125 1.078125zm3.921875 2.375q-0.5625 0.1875 -1.78125 0.453125q-1.21875 0.25 -1.59375 0.5q-0.578125 0.40625 -0.578125 1.03125q0 0.625 0.453125 1.078125q0.46875 0.4375 1.171875 0.4375q0.796875 0 1.515625 -0.515625q0.53125 -0.40625 0.6875 -0.96875q0.125 -0.375 0.125 -1.4375l0 -0.578125zm4.3616943 -5.75l3.125 0l2.640625 7.859375l2.578125 -7.859375l3.0312347 0l-3.9062347 10.640625l-0.6875 1.9375q-0.390625 0.96875 -0.75 1.46875q-0.34375 0.515625 -0.796875 0.828125q-0.453125 0.328125 -1.109375 0.5q-0.65625 0.171875 -1.5 0.171875q-0.84375 0 -1.65625 -0.171875l-0.25 -2.296875q0.6875 0.140625 1.234375 0.140625q1.015625 0 1.5 -0.609375q0.5 -0.59375 0.765625 -1.515625l-4.21875 -11.09375zm13.236679 15.359375l0 -19.5625l5.1875 0l0 2.296875l-2.40625 0l0 14.96875l2.40625 0l0 2.296875l-5.1875 0zm6.5399475 -8.21875l2.90625 -0.3125q0.125 1.0 0.734375 1.578125q0.625 0.578125 1.421875 0.578125q0.921875 0 1.546875 -0.75q0.640625 -0.75 0.640625 -2.25q0 -1.40625 -0.625 -2.109375q-0.625 -0.703125 -1.640625 -0.703125q-1.265625 0 -2.265625 1.125l-2.375 -0.34375l1.5 -7.953125l7.75 0l0 2.75l-5.53125 0l-0.453125 2.578125q0.984375 -0.484375 2.0 -0.484375q1.953125 0 3.296875 1.421875q1.359375 1.40625 1.359375 3.671875q0 1.890625 -1.09375 3.359375q-1.484375 2.03125 -4.140625 2.03125q-2.109375 0 -3.453125 -1.140625q-1.328125 -1.140625 -1.578125 -3.046875zm16.486694 -11.34375l0 19.5625l-5.1875 0l0 -2.296875l2.40625 0l0 -14.984375l-2.40625 0l0 -2.28125l5.1875 0z" fill-rule="nonzero"/><path fill="#000000" fill-opacity="0.0" d="m169.70473 209.67323l191.99998 0l0 47.999985l-191.99998 0z" fill-rule="evenodd"/><path fill="#efefef" d="m182.42348 231.46573l-2.65625 -0.484375q0.453125 -1.59375 1.546875 -2.359375q1.09375 -0.78125 3.25 -0.78125q1.953125 0 2.90625 0.46875q0.96875 0.453125 1.359375 1.171875q0.390625 0.71875 0.390625 2.625l-0.03125 3.40625q0 1.46875 0.125 2.15625q0.140625 0.6875 0.53125 1.484375l-2.890625 0q-0.109375 -0.296875 -0.28125 -0.859375q-0.078125 -0.265625 -0.109375 -0.34375q-0.75 0.71875 -1.609375 1.09375q-0.84375 0.359375 -1.8125 0.359375q-1.703125 0 -2.6875 -0.921875q-0.984375 -0.9375 -0.984375 -2.34375q0 -0.9375 0.4375 -1.671875q0.453125 -0.734375 1.25 -1.125q0.8125 -0.390625 2.34375 -0.6875q2.046875 -0.390625 2.84375 -0.71875l0 -0.296875q0 -0.84375 -0.421875 -1.203125q-0.421875 -0.359375 -1.578125 -0.359375q-0.78125 0 -1.21875 0.3125q-0.4375 0.3125 -0.703125 1.078125zm3.921875 2.375q-0.5625 0.1875 -1.78125 0.453125q-1.21875 0.25 -1.59375 0.5q-0.578125 0.40625 -0.578125 1.03125q0 0.625 0.453125 1.078125q0.46875 0.4375 1.171875 0.4375q0.796875 0 1.515625 -0.515625q0.53125 -0.40625 0.6875 -0.96875q0.125 -0.375 0.125 -1.4375l0 -0.578125zm8.549194 5.3125l-2.921875 0l0 -11.0625l2.71875 0l0 1.578125q0.703125 -1.125 1.25 -1.46875q0.5625 -0.359375 1.265625 -0.359375q1.0 0 1.9375 0.5625l-0.90625 2.546875q-0.75 -0.484375 -1.375 -0.484375q-0.625 0 -1.046875 0.34375q-0.421875 0.328125 -0.671875 1.21875q-0.25 0.890625 -0.25 3.703125l0 3.421875zm8.300064 0l-2.921875 0l0 -11.0625l2.71875 0l0 1.578125q0.703125 -1.125 1.25 -1.46875q0.5625 -0.359375 1.265625 -0.359375q1.0 0 1.9375 0.5625l-0.90625 2.546875q-0.75 -0.484375 -1.375 -0.484375q-0.625 0 -1.046875 0.34375q-0.421875 0.328125 -0.671875 1.21875q-0.25 0.890625 -0.25 3.703125l0 3.421875zm7.690689 -7.6875l-2.65625 -0.484375q0.453125 -1.59375 1.546875 -2.359375q1.09375 -0.78125 3.25 -0.78125q1.953125 0 2.90625 0.46875q0.96875 0.453125 1.359375 1.171875q0.390625 0.71875 0.390625 2.625l-0.03125 3.40625q0 1.46875 0.125 2.15625q0.140625 0.6875 0.53125 1.484375l-2.890625 0q-0.109375 -0.296875 -0.28125 -0.859375q-0.078125 -0.265625 -0.109375 -0.34375q-0.75 0.71875 -1.609375 1.09375q-0.84375 0.359375 -1.8125 0.359375q-1.703125 0 -2.6875 -0.921875q-0.984375 -0.9375 -0.984375 -2.34375q0 -0.9375 0.4375 -1.671875q0.453125 -0.734375 1.25 -1.125q0.8125 -0.390625 2.34375 -0.6875q2.046875 -0.390625 2.84375 -0.71875l0 -0.296875q0 -0.84375 -0.421875 -1.203125q-0.421875 -0.359375 -1.578125 -0.359375q-0.78125 0 -1.21875 0.3125q-0.4375 0.3125 -0.703125 1.078125zm3.921875 2.375q-0.5625 0.1875 -1.78125 0.453125q-1.21875 0.25 -1.59375 0.5q-0.578125 0.40625 -0.578125 1.03125q0 0.625 0.453125 1.078125q0.46875 0.4375 1.171875 0.4375q0.796875 0 1.515625 -0.515625q0.53125 -0.40625 0.6875 -0.96875q0.125 -0.375 0.125 -1.4375l0 -0.578125zm4.3616943 -5.75l3.125 0l2.640625 7.859375l2.578125 -7.859375l3.03125 0l-3.90625 10.640625l-0.6875 1.9375q-0.390625 0.96875 -0.75 1.46875q-0.34375 0.515625 -0.796875 0.828125q-0.453125 0.328125 -1.109375 0.5q-0.65625 0.171875 -1.5 0.171875q-0.84375 0 -1.65625 -0.171875l-0.25 -2.296875q0.6875 0.140625 1.234375 0.140625q1.015625 0 1.5 -0.609375q0.5 -0.59375 0.765625 -1.515625l-4.21875 -11.09375zm13.236694 15.359375l0 -19.5625l5.1875 0l0 2.296875l-2.40625 0l0 14.96875l2.40625 0l0 2.296875l-5.1875 0zm5.8211823 -4.296875l0 -2.78125l8.015625 -9.90625l-7.109375 0l0 -2.578125l11.171875 0l0 2.390625l-8.359375 10.296875l8.671875 0l0 2.578125l-12.390625 0zm18.371826 -15.265625l0 19.5625l-5.1875 0l0 -2.296875l2.40625 0l0 -14.984375l-2.40625 0l0 -2.28125l5.1875 0zm7.914917 19.75l-2.015625 0q-1.59375 -2.40625 -2.4375 -5.0q-0.828125 -2.59375 -0.828125 -5.015625q0 -3.015625 1.03125 -5.6875q0.90625 -2.34375 2.28125 -4.3125l2.0 0q-1.4375 3.15625 -1.96875 5.375q-0.53125 2.203125 -0.53125 4.6875q0 1.703125 0.3125 3.5q0.3125 1.796875 0.875 3.40625q0.359375 1.0625 1.28125 3.046875zm9.1024475 -4.484375l-2.921875 0l0 -11.03125q-1.609375 1.5 -3.78125 2.21875l0 -2.65625q1.140625 -0.375 2.484375 -1.421875q1.34375 -1.046875 1.84375 -2.4375l2.375 0l0 15.328125zm9.330444 -15.328125q2.21875 0 3.46875 1.578125q1.484375 1.875 1.484375 6.21875q0 4.328125 -1.5 6.234375q-1.234375 1.5625 -3.453125 1.5625q-2.234375 0 -3.609375 -1.71875q-1.359375 -1.71875 -1.359375 -6.109375q0 -4.3125 1.5 -6.203125q1.25 -1.5625 3.46875 -1.5625zm0 2.421875q-0.53125 0 -0.953125 0.34375q-0.421875 0.34375 -0.640625 1.21875q-0.3125 1.125 -0.3125 3.8125q0 2.6875 0.265625 3.703125q0.28125 1.0 0.6875 1.328125q0.421875 0.328125 0.953125 0.328125q0.53125 0 0.9375 -0.328125q0.421875 -0.34375 0.65625 -1.21875q0.296875 -1.125 0.296875 -3.8125q0 -2.6875 -0.28125 -3.6875q-0.265625 -1.0 -0.671875 -1.34375q-0.40625 -0.34375 -0.9375 -0.34375zm6.7210693 17.390625q0.859375 -1.84375 1.21875 -2.84375q0.359375 -0.984375 0.65625 -2.265625q0.296875 -1.296875 0.4375 -2.453125q0.15625 -1.171875 0.15625 -2.390625q0 -2.484375 -0.53125 -4.6875q-0.53125 -2.21875 -1.953125 -5.375l1.984375 0q1.578125 2.25 2.4375 4.765625q0.875 2.5 0.875 5.078125q0 2.171875 -0.6875 4.671875q-0.78125 2.78125 -2.578125 5.5l-2.015625 0z" fill-rule="nonzero"/><path fill="#3d85c6" d="m262.37665 108.90157l48.0 0l0 48.000008l-48.0 0z" fill-rule="evenodd"/><path stroke="#ffffff" stroke-width="2.0" stroke-linejoin="round" stroke-linecap="butt" d="m262.37665 108.90157l48.0 0l0 48.000008l-48.0 0z" fill-rule="evenodd"/><path fill="#ffffff" d="m281.39893 136.4597l2.90625 -0.3125q0.125 1.0 0.734375 1.578125q0.625 0.578125 1.421875 0.578125q0.921875 0 1.546875 -0.75q0.640625 -0.75 0.640625 -2.25q0 -1.40625 -0.625 -2.109375q-0.625 -0.703125 -1.640625 -0.703125q-1.265625 0 -2.265625 1.125l-2.375 -0.34375l1.5 -7.953125l7.75 0l0 2.75l-5.53125 0l-0.453125 2.578125q0.984375 -0.484375 2.0 -0.484375q1.953125 0 3.296875 1.421875q1.359375 1.40625 1.359375 3.671875q0 1.890625 -1.09375 3.359375q-1.484375 2.03125 -4.140625 2.03125q-2.109375 0 -3.453125 -1.140625q-1.328125 -1.140625 -1.578125 -3.046875z" fill-rule="nonzero"/><path fill="#3d85c6" d="m310.37665 108.90157l48.0 0l0 48.000008l-48.0 0z" fill-rule="evenodd"/><path stroke="#ffffff" stroke-width="2.0" stroke-linejoin="round" stroke-linecap="butt" d="m310.37665 108.90157l48.0 0l0 48.000008l-48.0 0z" fill-rule="evenodd"/><path fill="#ffffff" d="m339.2583 128.85033l-2.828125 0.3125q-0.09375 -0.875 -0.53125 -1.28125q-0.4375 -0.421875 -1.140625 -0.421875q-0.921875 0 -1.5625 0.84375q-0.640625 0.828125 -0.8125 3.453125q1.09375 -1.296875 2.71875 -1.296875q1.828125 0 3.125 1.40625q1.3125 1.390625 1.3125 3.59375q0 2.34375 -1.375 3.765625q-1.359375 1.421875 -3.515625 1.421875q-2.3125 0 -3.8125 -1.796875q-1.484375 -1.796875 -1.484375 -5.890625q0 -4.203125 1.546875 -6.046875q1.5625 -1.859375 4.03125 -1.859375q1.75 0 2.890625 0.984375q1.140625 0.96875 1.4375 2.8125zm-6.625 6.390625q0 1.421875 0.65625 2.203125q0.65625 0.765625 1.5 0.765625q0.8125 0 1.34375 -0.625q0.546875 -0.640625 0.546875 -2.09375q0 -1.484375 -0.578125 -2.171875q-0.578125 -0.703125 -1.453125 -0.703125q-0.84375 0 -1.4375 0.671875q-0.578125 0.65625 -0.578125 1.953125z" fill-rule="nonzero"/><path fill="#3d85c6" d="m406.37665 108.90157l48.0 0l0 48.000008l-48.0 0z" fill-rule="evenodd"/><path stroke="#ffffff" stroke-width="2.0" stroke-linejoin="round" stroke-linecap="butt" d="m406.37665 108.90157l48.0 0l0 48.000008l-48.0 0z" fill-rule="evenodd"/><path fill="#ffffff" d="m427.86768 132.1472q-1.140625 -0.484375 -1.65625 -1.3125q-0.515625 -0.84375 -0.515625 -1.84375q0 -1.703125 1.1875 -2.8125q1.203125 -1.125 3.390625 -1.125q2.1875 0 3.390625 1.125q1.203125 1.109375 1.203125 2.8125q0 1.0625 -0.5625 1.890625q-0.546875 0.828125 -1.546875 1.265625q1.265625 0.5 1.921875 1.484375q0.671875 0.984375 0.671875 2.265625q0 2.109375 -1.359375 3.4375q-1.34375 1.3125 -3.578125 1.3125q-2.078125 0 -3.46875 -1.09375q-1.640625 -1.28125 -1.640625 -3.53125q0 -1.25 0.609375 -2.28125q0.625 -1.03125 1.953125 -1.59375zm0.59375 -2.953125q0 0.875 0.5 1.375q0.5 0.484375 1.3125 0.484375q0.84375 0 1.34375 -0.5q0.5 -0.5 0.5 -1.359375q0 -0.828125 -0.5 -1.3125q-0.5 -0.5 -1.3125 -0.5q-0.84375 0 -1.34375 0.5q-0.5 0.5 -0.5 1.3125zm-0.265625 6.546875q0 1.203125 0.609375 1.890625q0.625 0.671875 1.5625 0.671875q0.90625 0 1.5 -0.65625q0.59375 -0.65625 0.59375 -1.875q0 -1.078125 -0.609375 -1.71875q-0.609375 -0.65625 -1.53125 -0.65625q-1.078125 0 -1.609375 0.734375q-0.515625 0.734375 -0.515625 1.609375z" fill-rule="nonzero"/><path fill="#3d85c6" d="m358.37665 108.90157l48.0 0l0 48.000008l-48.0 0z" fill-rule="evenodd"/><path stroke="#ffffff" stroke-width="2.0" stroke-linejoin="round" stroke-linecap="butt" d="m358.37665 108.90157l48.0 0l0 48.000008l-48.0 0z" fill-rule="evenodd"/><path fill="#ffffff" d="m377.35205 128.03783l0 -2.71875l10.0 0l0 2.125q-1.234375 1.21875 -2.515625 3.5q-1.28125 2.28125 -1.953125 4.859375q-0.671875 2.5625 -0.65625 4.578125l-2.828125 0q0.078125 -3.171875 1.3125 -6.453125q1.234375 -3.296875 3.296875 -5.890625l-6.65625 0z" fill-rule="nonzero"/><path fill="#3d85c6" d="m454.37665 108.90157l48.0 0l0 48.000008l-48.0 0z" fill-rule="evenodd"/><path stroke="#ffffff" stroke-width="2.0" stroke-linejoin="round" stroke-linecap="butt" d="m454.37665 108.90157l48.0 0l0 48.000008l-48.0 0z" fill-rule="evenodd"/><path fill="#ffffff" d="m473.41455 136.85033l2.828125 -0.3125q0.109375 0.859375 0.546875 1.28125q0.4375 0.421875 1.15625 0.421875q0.90625 0 1.53125 -0.828125q0.640625 -0.84375 0.828125 -3.46875q-1.109375 1.28125 -2.765625 1.28125q-1.796875 0 -3.109375 -1.390625q-1.3125 -1.390625 -1.3125 -3.625q0 -2.3125 1.375 -3.734375q1.390625 -1.421875 3.53125 -1.421875q2.3125 0 3.796875 1.796875q1.5 1.796875 1.5 5.90625q0 4.1875 -1.5625 6.046875q-1.546875 1.84375 -4.03125 1.84375q-1.796875 0 -2.90625 -0.953125q-1.09375 -0.953125 -1.40625 -2.84375zm6.625 -6.390625q0 -1.421875 -0.65625 -2.203125q-0.640625 -0.78125 -1.5 -0.78125q-0.8125 0 -1.359375 0.640625q-0.53125 0.640625 -0.53125 2.09375q0 1.484375 0.578125 2.1875q0.59375 0.6875 1.46875 0.6875q0.84375 0 1.421875 -0.671875q0.578125 -0.671875 0.578125 -1.953125z" fill-rule="nonzero"/><path fill="#f1c232" d="m470.37665 98.51575l8.0 8.0l8.0 -8.0l-4.0 0l0 -40.0l-8.0 0l0 40.0z" fill-rule="evenodd"/><path stroke="#000000" stroke-width="2.0" stroke-linejoin="round" stroke-linecap="butt" d="m470.37665 98.51575l8.0 8.0l8.0 -8.0l-4.0 0l0 -40.0l-8.0 0l0 40.0z" fill-rule="evenodd"/><path fill="#000000" fill-opacity="0.0" d="m367.48837 16.131233l153.98422 0l0 40.0l-153.98422 0z" fill-rule="evenodd"/><path fill="#efefef" d="m380.20712 37.923733l-2.65625 -0.484375q0.453125 -1.59375 1.546875 -2.359375q1.09375 -0.78125 3.25 -0.78125q1.953125 0 2.90625 0.46875q0.96875 0.453125 1.359375 1.171875q0.390625 0.71875 0.390625 2.625l-0.03125 3.40625q0 1.46875 0.125 2.15625q0.140625 0.6875 0.53125 1.484375l-2.890625 0q-0.109375 -0.296875 -0.28125 -0.859375q-0.078125 -0.265625 -0.109375 -0.34375q-0.75 0.71875 -1.609375 1.09375q-0.84375 0.359375 -1.8125 0.359375q-1.703125 0 -2.6875 -0.921875q-0.984375 -0.9375 -0.984375 -2.34375q0 -0.9375 0.4375 -1.671875q0.453125 -0.734375 1.25 -1.125q0.8125 -0.390625 2.34375 -0.6875q2.046875 -0.390625 2.84375 -0.71875l0 -0.296875q0 -0.84375 -0.421875 -1.203125q-0.421875 -0.359375 -1.578125 -0.359375q-0.78125 0 -1.21875 0.3125q-0.4375 0.3125 -0.703125 1.078125zm3.921875 2.375q-0.5625 0.1875 -1.78125 0.453125q-1.21875 0.25 -1.59375 0.5q-0.578125 0.40625 -0.578125 1.03125q0 0.625 0.453125 1.078125q0.46875 0.4375 1.171875 0.4375q0.796875 0 1.515625 -0.515625q0.53125 -0.40625 0.6875 -0.96875q0.125 -0.375 0.125 -1.4375l0 -0.578125zm8.549194 5.3125l-2.921875 0l0 -11.0625l2.71875 0l0 1.578125q0.703125 -1.125 1.25 -1.46875q0.5625 -0.359375 1.265625 -0.359375q1.0 0 1.9375 0.5625l-0.90625 2.546875q-0.75 -0.484375 -1.375 -0.484375q-0.625 0 -1.046875 0.34375q-0.421875 0.328125 -0.671875 1.21875q-0.25 0.890625 -0.25 3.703125l0 3.421875zm8.300049 0l-2.921875 0l0 -11.0625l2.71875 0l0 1.578125q0.703125 -1.125 1.25 -1.46875q0.5625 -0.359375 1.265625 -0.359375q1.0 0 1.9375 0.5625l-0.90625 2.546875q-0.75 -0.484375 -1.375 -0.484375q-0.625 0 -1.046875 0.34375q-0.421875 0.328125 -0.671875 1.21875q-0.25 0.890625 -0.25 3.703125l0 3.421875zm7.6907043 -7.6875l-2.65625 -0.484375q0.453125 -1.59375 1.546875 -2.359375q1.09375 -0.78125 3.25 -0.78125q1.953125 0 2.90625 0.46875q0.96875 0.453125 1.359375 1.171875q0.390625 0.71875 0.390625 2.625l-0.03125 3.40625q0 1.46875 0.125 2.15625q0.140625 0.6875 0.53125 1.484375l-2.890625 0q-0.109375 -0.296875 -0.28125 -0.859375q-0.078125 -0.265625 -0.109375 -0.34375q-0.75 0.71875 -1.609375 1.09375q-0.84375 0.359375 -1.8125 0.359375q-1.703125 0 -2.6875 -0.921875q-0.984375 -0.9375 -0.984375 -2.34375q0 -0.9375 0.4375 -1.671875q0.453125 -0.734375 1.25 -1.125q0.8125 -0.390625 2.34375 -0.6875q2.046875 -0.390625 2.84375 -0.71875l0 -0.296875q0 -0.84375 -0.421875 -1.203125q-0.421875 -0.359375 -1.578125 -0.359375q-0.78125 0 -1.21875 0.3125q-0.4375 0.3125 -0.703125 1.078125zm3.921875 2.375q-0.5625 0.1875 -1.78125 0.453125q-1.21875 0.25 -1.59375 0.5q-0.578125 0.40625 -0.578125 1.03125q0 0.625 0.453125 1.078125q0.46875 0.4375 1.171875 0.4375q0.796875 0 1.515625 -0.515625q0.53125 -0.40625 0.6875 -0.96875q0.125 -0.375 0.125 -1.4375l0 -0.578125zm4.3616943 -5.75l3.125 0l2.640625 7.859375l2.578125 -7.859375l3.03125 0l-3.90625 10.640625l-0.6875 1.9375q-0.390625 0.96875 -0.75 1.46875q-0.34375 0.515625 -0.796875 0.828125q-0.453125 0.328125 -1.109375 0.5q-0.65625 0.171875 -1.5 0.171875q-0.84375 0 -1.65625 -0.171875l-0.25 -2.296875q0.6875 0.140625 1.234375 0.140625q1.015625 0 1.5 -0.609375q0.5 -0.59375 0.765625 -1.515625l-4.21875 -11.09375zm13.236694 15.359375l0 -19.5625l5.1875 0l0 2.296875l-2.40625 0l0 14.96875l2.40625 0l0 2.296875l-5.1875 0zm13.977417 -4.296875l-2.921875 0l0 -11.03125q-1.609375 1.5 -3.78125 2.21875l0 -2.65625q1.140625 -0.375 2.484375 -1.421875q1.34375 -1.046875 1.84375 -2.4375l2.375 0l0 15.328125zm9.330444 -15.328125q2.21875 0 3.46875 1.578125q1.484375 1.875 1.484375 6.21875q0 4.328125 -1.5 6.234375q-1.234375 1.5625 -3.453125 1.5625q-2.234375 0 -3.609375 -1.71875q-1.359375 -1.71875 -1.359375 -6.109375q0 -4.3125 1.5 -6.203125q1.25 -1.5625 3.46875 -1.5625zm0 2.421875q-0.53125 0 -0.953125 0.34375q-0.421875 0.34375 -0.640625 1.21875q-0.3125 1.125 -0.3125 3.8125q0 2.6875 0.265625 3.703125q0.28125 1.0 0.6875 1.328125q0.421875 0.328125 0.953125 0.328125q0.53125 0 0.9375 -0.328125q0.421875 -0.34375 0.65625 -1.21875q0.296875 -1.125 0.296875 -3.8125q0 -2.6875 -0.28125 -3.6875q-0.265625 -1.0 -0.671875 -1.34375q-0.40625 -0.34375 -0.9375 -0.34375zm11.580444 -2.359375l0 19.5625l-5.1875 0l0 -2.296875l2.40625 0l0 -14.984375l-2.40625 0l0 -2.28125l5.1875 0z" fill-rule="nonzero"/><path fill="#000000" fill-opacity="0.0" d="m22.378355 171.4567c1.3180828 1.9811859 0.9135971 8.342087 7.908495 11.887131c6.994896 3.5450592 3.5472107 9.174545 34.060883 9.383209c30.51368 0.20866394 115.97255 -9.799652 149.02116 -8.131241c33.048615 1.6684265 41.05876 15.118118 49.270508 18.141739" fill-rule="evenodd"/><path stroke="#fce5cd" stroke-width="2.0" stroke-linejoin="round" stroke-linecap="butt" d="m22.378355 171.4567c1.3180828 1.9811859 0.9135971 8.342087 7.908495 11.887131c6.994896 3.5450592 3.5472107 9.174545 34.060883 9.383209c30.51368 0.20866394 115.97255 -9.799652 149.02116 -8.131241c33.048615 1.6684265 41.05876 15.118118 49.270508 18.141739" fill-rule="evenodd"/><path fill="#000000" fill-opacity="0.0" d="m502.38943 171.4567c-1.3180847 1.9811859 -0.91360474 8.342087 -7.908478 11.887131c-6.9949036 3.5450592 -3.5472107 9.174545 -34.060883 9.383209c-30.513702 0.20866394 -115.972565 -9.799652 -149.02118 -8.131241c-33.048615 1.6684265 -41.058746 15.118118 -49.270508 18.141739" fill-rule="evenodd"/><path stroke="#fce5cd" stroke-width="2.0" stroke-linejoin="round" stroke-linecap="butt" d="m502.38943 171.4567c-1.3180847 1.9811859 -0.91360474 8.342087 -7.908478 11.887131c-6.9949036 3.5450592 -3.5472107 9.174545 -34.060883 9.383209c-30.513702 0.20866394 -115.972565 -9.799652 -149.02118 -8.131241c-33.048615 1.6684265 -41.058746 15.118118 -49.270508 18.141739" fill-rule="evenodd"/></g></svg>