<svg version="1.1" viewBox="0.0 0.0 384.0 384.0" fill="none" stroke="none" stroke-linecap="square" stroke-miterlimit="10" xmlns:xlink="http://www.w3.org/1999/xlink" xmlns="http://www.w3.org/2000/svg"><clipPath id="p.0"><path d="m0 0l384.0 0l0 384.0l-384.0 0l0 -384.0z" clip-rule="nonzero"/></clipPath><g clip-path="url(#p.0)"><path fill="#000000" fill-opacity="0.0" d="m0 0l384.0 0l0 384.0l-384.0 0z" fill-rule="evenodd"/><path fill="#434343" d="m-0.87664044 -1.5013124l384.0 0l0 384.0l-384.0 0z" fill-rule="evenodd"/><path fill="#f1c232" d="m112.16798 248.09973l160.19403 0c2.6383057 0 5.1685486 1.0480652 7.034088 2.91362c1.8655701 1.8655548 2.9136353 4.3957977 2.9136353 7.0341034l0 49.737335l-170.14175 0z" fill-rule="evenodd"/><path stroke="#b45f06" stroke-width="2.0" stroke-linejoin="round" stroke-linecap="butt" d="m112.16798 248.09973l160.19403 0c2.6383057 0 5.1685486 1.0480652 7.034088 2.91362c1.8655701 1.8655548 2.9136353 4.3957977 2.9136353 7.0341034l0 49.737335l-170.14175 0z" fill-rule="evenodd"/><path fill="#000000" d="m163.46175 274.30225l-2.1875 0l0 -8.296875l2.03125 0l0 1.171875q0.53125 -0.828125 0.9375 -1.09375q0.421875 -0.265625 0.953125 -0.265625q0.75 0 1.453125 0.40625l-0.6875 1.921875q-0.546875 -0.359375 -1.03125 -0.359375q-0.453125 0 -0.78125 0.25q-0.3125 0.25 -0.5 0.921875q-0.1875 0.65625 -0.1875 2.78125l0 2.5625zm8.9296875 -2.640625l2.1875 0.359375q-0.421875 1.203125 -1.328125 1.84375q-0.90625 0.625 -2.28125 0.625q-2.15625 0 -3.203125 -1.421875q-0.8125 -1.125 -0.8125 -2.859375q0 -2.0625 1.078125 -3.21875q1.078125 -1.171875 2.71875 -1.171875q1.859375 0 2.921875 1.21875q1.078125 1.21875 1.03125 3.75l-5.5 0q0.015625 0.96875 0.515625 1.515625q0.515625 0.546875 1.28125 0.546875q0.515625 0 0.859375 -0.28125q0.359375 -0.28125 0.53125 -0.90625zm0.125 -2.21875q-0.015625 -0.953125 -0.484375 -1.453125q-0.46875 -0.5 -1.140625 -0.5q-0.71875 0 -1.1875 0.53125q-0.46875 0.515625 -0.46875 1.421875l3.28125 0zm3.9140625 -3.4375l2.046875 0l0 1.21875q0.390625 -0.625 1.0625 -1.015625q0.6875 -0.390625 1.515625 -0.390625q1.453125 0 2.453125 1.140625q1.015625 1.125 1.015625 3.140625q0 2.078125 -1.015625 3.234375q-1.015625 1.15625 -2.46875 1.15625q-0.6875 0 -1.25 -0.265625q-0.546875 -0.28125 -1.171875 -0.953125l0 4.1875l-2.1875 0l0 -11.453125zm2.171875 4.0q0 1.40625 0.546875 2.078125q0.5625 0.65625 1.359375 0.65625q0.765625 0 1.265625 -0.609375q0.515625 -0.609375 0.515625 -2.015625q0 -1.296875 -0.53125 -1.921875q-0.515625 -0.640625 -1.296875 -0.640625q-0.796875 0 -1.328125 0.625q-0.53125 0.609375 -0.53125 1.828125zm12.4609375 1.65625l2.1875 0.359375q-0.421875 1.203125 -1.328125 1.84375q-0.90625 0.625 -2.28125 0.625q-2.15625 0 -3.203125 -1.421875q-0.8125 -1.125 -0.8125 -2.859375q0 -2.0625 1.078125 -3.21875q1.078125 -1.171875 2.71875 -1.171875q1.859375 0 2.921875 1.21875q1.078125 1.21875 1.03125 3.75l-5.5 0q0.015625 0.96875 0.515625 1.515625q0.515625 0.546875 1.28125 0.546875q0.515625 0 0.859375 -0.28125q0.359375 -0.28125 0.53125 -0.90625zm0.125 -2.21875q-0.015625 -0.953125 -0.484375 -1.453125q-0.46875 -0.5 -1.140625 -0.5q-0.71875 0 -1.1875 0.53125q-0.46875 0.515625 -0.46875 1.421875l3.28125 0zm7.7734375 -3.4375l0 1.75l-1.5 0l0 3.34375q0 1.015625 0.046875 1.1875q0.046875 0.15625 0.1875 0.265625q0.15625 0.109375 0.375 0.109375q0.3125 0 0.890625 -0.203125l0.1875 1.703125q-0.765625 0.328125 -1.734375 0.328125q-0.59375 0 -1.078125 -0.203125q-0.46875 -0.203125 -0.703125 -0.515625q-0.21875 -0.3125 -0.296875 -0.859375q-0.078125 -0.375 -0.078125 -1.546875l0 -3.609375l-1.0 0l0 -1.75l1.0 0l0 -1.65625l2.203125 -1.28125l0 2.9375l1.5 0zm1.53125 -1.125l0 -2.03125l2.1875 0l0 2.03125l-2.1875 0zm0 9.421875l0 -8.296875l2.1875 0l0 8.296875l-2.1875 0zm8.2421875 -8.296875l0 1.75l-1.5 0l0 3.34375q0 1.015625 0.046875 1.1875q0.046875 0.15625 0.1875 0.265625q0.15625 0.109375 0.375 0.109375q0.3125 0 0.890625 -0.203125l0.1875 1.703125q-0.765625 0.328125 -1.734375 0.328125q-0.59375 0 -1.078125 -0.203125q-0.46875 -0.203125 -0.703125 -0.515625q-0.21875 -0.3125 -0.296875 -0.859375q-0.078125 -0.375 -0.078125 -1.546875l0 -3.609375l-1.0 0l0 -1.75l1.0 0l0 -1.65625l2.203125 -1.28125l0 2.9375l1.5 0zm1.53125 -1.125l0 -2.03125l2.1875 0l0 2.03125l-2.1875 0zm0 9.421875l0 -8.296875l2.1875 0l0 8.296875l-2.1875 0zm6.7265625 0l-3.34375 -8.296875l2.296875 0l1.5625 4.234375l0.453125 1.40625q0.1875 -0.53125 0.234375 -0.703125q0.109375 -0.359375 0.234375 -0.703125l1.578125 -4.234375l2.25 0l-3.296875 8.296875l-1.96875 0zm11.4140625 -2.640625l2.1875 0.359375q-0.421875 1.203125 -1.328125 1.84375q-0.90625 0.625 -2.28125 0.625q-2.15625 0 -3.203125 -1.421875q-0.8125 -1.125 -0.8125 -2.859375q0 -2.0625 1.078125 -3.21875q1.078125 -1.171875 2.71875 -1.171875q1.859375 0 2.921875 1.21875q1.078125 1.21875 1.03125 3.75l-5.5 0q0.015625 0.96875 0.515625 1.515625q0.515625 0.546875 1.28125 0.546875q0.515625 0 0.859375 -0.28125q0.359375 -0.28125 0.53125 -0.90625zm0.125 -2.21875q-0.015625 -0.953125 -0.484375 -1.453125q-0.46875 -0.5 -1.140625 -0.5q-0.71875 0 -1.1875 0.53125q-0.46875 0.515625 -0.46875 1.421875l3.28125 0z" fill-rule="nonzero"/><path fill="#000000" d="m175.95003 293.30225l0 -11.453125l2.1875 0l0 4.125q1.015625 -1.15625 2.40625 -1.15625q1.515625 0 2.5 1.09375q1.0 1.09375 1.0 3.15625q0 2.125 -1.015625 3.28125q-1.0 1.140625 -2.453125 1.140625q-0.703125 0 -1.40625 -0.359375q-0.6875 -0.359375 -1.1875 -1.046875l0 1.21875l-2.03125 0zm2.171875 -4.328125q0 1.28125 0.40625 1.90625q0.578125 0.875 1.515625 0.875q0.734375 0 1.234375 -0.625q0.515625 -0.625 0.515625 -1.953125q0 -1.421875 -0.515625 -2.046875q-0.515625 -0.640625 -1.3125 -0.640625q-0.796875 0 -1.328125 0.625q-0.515625 0.609375 -0.515625 1.859375zm7.6953125 4.328125l0 -11.453125l2.1875 0l0 11.453125l-2.1875 0zm3.9296875 -4.265625q0 -1.09375 0.53125 -2.109375q0.546875 -1.03125 1.53125 -1.5625q1.0 -0.546875 2.21875 -0.546875q1.875 0 3.078125 1.21875q1.203125 1.21875 1.203125 3.09375q0 1.875 -1.21875 3.125q-1.203125 1.234375 -3.046875 1.234375q-1.140625 0 -2.1875 -0.515625q-1.03125 -0.515625 -1.578125 -1.515625q-0.53125 -1.0 -0.53125 -2.421875zm2.25 0.109375q0 1.234375 0.578125 1.890625q0.59375 0.65625 1.453125 0.65625q0.859375 0 1.4375 -0.65625q0.59375 -0.65625 0.59375 -1.90625q0 -1.21875 -0.59375 -1.875q-0.578125 -0.65625 -1.4375 -0.65625q-0.859375 0 -1.453125 0.65625q-0.578125 0.65625 -0.578125 1.890625zm15.2734375 -1.6875l-2.171875 0.390625q-0.109375 -0.65625 -0.5 -0.984375q-0.375 -0.328125 -1.0 -0.328125q-0.8125 0 -1.3125 0.578125q-0.484375 0.5625 -0.484375 1.890625q0 1.46875 0.5 2.078125q0.5 0.609375 1.328125 0.609375q0.625 0 1.015625 -0.34375q0.40625 -0.359375 0.578125 -1.234375l2.15625 0.375q-0.34375 1.484375 -1.296875 2.25q-0.953125 0.75 -2.546875 0.75q-1.828125 0 -2.90625 -1.140625q-1.078125 -1.15625 -1.078125 -3.1875q0 -2.0625 1.078125 -3.203125q1.09375 -1.140625 2.9375 -1.140625q1.515625 0 2.40625 0.65625q0.90625 0.640625 1.296875 1.984375zm1.5859375 5.84375l0 -11.453125l2.1875 0l0 6.078125l2.578125 -2.921875l2.703125 0l-2.84375 3.03125l3.046875 5.265625l-2.375 0l-2.078125 -3.734375l-1.03125 1.078125l0 2.65625l-2.1875 0z" fill-rule="nonzero"/><path fill="#d9d9d9" d="m88.26814 180.43202c-0.3711853 0 -0.7032547 0.08564758 -0.9962082 0.2569275c-0.29113007 0.17129517 -0.61956024 0.526474 -0.9852905 1.0655365l0 -1.141098l-2.1370697 0l0 8.025482l2.3008347 0l0 -2.4786835c0 -1.3652802 0.063682556 -2.2620392 0.19104767 -2.690277c0.12919617 -0.42822266 0.30568695 -0.7237854 0.52949524 -0.886673c0.22380829 -0.1645813 0.49673462 -0.24687195 0.8188019 -0.24687195c0.3329773 0 0.69324493 0.115875244 1.0808105 0.34762573l0.71235657 -1.8514557c-0.48581696 -0.26701355 -0.99074554 -0.4005127 -1.5147781 -0.4005127z" fill-rule="evenodd"/><path fill="#d9d9d9" d="m94.22901 182.05676c0.46944427 0 0.86792755 0.16036987 1.1954498 0.48112488c0.32751465 0.31907654 0.49946594 0.7859192 0.5158386 1.4005585l-3.4389572 0c-0.0054626465 -0.57936096 0.15557098 -1.0378265 0.48309326 -1.3753662c0.32751465 -0.33753967 0.74237823 -0.50631714 1.2445755 -0.50631714zm-0.1391983 -1.6247406c-1.1517792 0 -2.1043167 0.3769989 -2.8576126 1.1310272c-0.7532959 0.7523346 -1.1299438 1.7935028 -1.1299438 3.1235352c0 1.1133881 0.28658295 2.0353394 0.8597412 2.7658386c0.7259979 0.9118805 1.8450317 1.3678131 3.3570786 1.3678131c0.95526886 0 1.750412 -0.20236206 2.385437 -0.6070709c0.63684845 -0.4064026 1.1026535 -0.9975281 1.3974228 -1.7733765l-2.2926407 -0.35516357c-0.12554932 0.4030304 -0.3111496 0.6952362 -0.5567856 0.8766022c-0.24564362 0.18136597 -0.54859924 0.27204895 -0.9088669 0.27204895c-0.52949524 0 -0.97164154 -0.1746521 -1.3264618 -0.5239563c-0.35481262 -0.3509674 -0.5404053 -0.8413391 -0.55677795 -1.4710846l5.764351 0c0.03275299 -1.6272583 -0.32479095 -2.8346863 -1.0726318 -3.6222992c-0.74783325 -0.7892761 -1.7686081 -1.1839142 -3.0623093 -1.1839142z" fill-rule="evenodd"/><path fill="#d9d9d9" d="m104.2675 182.10966c0.5404053 0 0.99347687 0.20404053 1.3592072 0.6121063c0.3657303 0.40808105 0.54859924 1.0327911 0.54859924 1.8741302c0 0.90179443 -0.17740631 1.5508575 -0.53222656 1.9471741c-0.35481262 0.39463806 -0.79969025 0.5919647 -1.3346405 0.5919647c-0.5567856 0 -1.0289612 -0.21495056 -1.4165268 -0.64486694c-0.3875656 -0.4315796 -0.5813446 -1.0982819 -0.5813446 -2.0000763c0 -0.7859192 0.18559265 -1.3787231 0.5567856 -1.7783966c0.3711853 -0.40135193 0.8379059 -0.6020355 1.4001465 -0.6020355zm0.62228394 -1.6776428c-0.5786133 0 -1.1053772 0.12594604 -1.5802841 0.37783813c-0.4748993 0.25190735 -0.85154724 0.5793762 -1.1299438 0.9824066l0 -1.1788788l-2.145256 0l0 11.078491l2.300827 0l0 -4.0429688c0.43123627 0.42822266 0.8415451 0.73049927 1.2309341 0.90682983c0.39120483 0.17633057 0.8269882 0.26449585 1.3073502 0.26449585c1.0098495 0 1.8695908 -0.37112427 2.5792236 -1.1133881c0.70962524 -0.74394226 1.0644379 -1.785965 1.0644379 -3.126068c0 -1.3048248 -0.3520813 -2.3224945 -1.0562515 -3.053009c-0.7041702 -0.73049927 -1.5611801 -1.0957489 -2.5710373 -1.0957489z" fill-rule="evenodd"/><path fill="#d9d9d9" d="m113.79833 182.05676c0.4694519 0 0.8679352 0.16036987 1.1954498 0.48112488c0.32752228 0.31907654 0.49947357 0.7859192 0.51584625 1.4005585l-3.4389648 0c-0.005455017 -0.57936096 0.15557861 -1.0378265 0.48309326 -1.3753662c0.32752228 -0.33753967 0.74237823 -0.50631714 1.2445755 -0.50631714zm-0.13919067 -1.6247406c-1.1517792 0 -2.1043167 0.3769989 -2.8576126 1.1310272c-0.7532959 0.7523346 -1.1299438 1.7935028 -1.1299438 3.1235352c0 1.1133881 0.28657532 2.0353394 0.8597336 2.7658386c0.72600555 0.9118805 1.8450317 1.3678131 3.3570862 1.3678131c0.95526886 0 1.750412 -0.20236206 2.385437 -0.6070709c0.6368408 -0.4064026 1.1026535 -0.9975281 1.3974152 -1.7733765l-2.2926407 -0.35516357c-0.12554932 0.4030304 -0.31114197 0.6952362 -0.55677795 0.8766022c-0.24564362 0.18136597 -0.54859924 0.27204895 -0.9088745 0.27204895c-0.5294876 0 -0.97164154 -0.1746521 -1.3264542 -0.5239563c-0.35481262 -0.3509674 -0.5404053 -0.8413391 -0.5567856 -1.4710846l5.7643585 0c0.03275299 -1.6272583 -0.32479095 -2.8346863 -1.0726318 -3.6222992c-0.74783325 -0.7892761 -1.7686081 -1.1839142 -3.0623093 -1.1839142z" fill-rule="evenodd"/><path fill="#d9d9d9" d="m124.4673 184.78482l0 0.42318726c0 0.50883484 -0.030021667 0.8539429 -0.090065 1.0353088c-0.08734131 0.27708435 -0.27020264 0.51135254 -0.54859924 0.7027893c-0.37664795 0.25190735 -0.7723999 0.3778534 -1.1872559 0.3778534c-0.37119293 0 -0.6768799 -0.10832214 -0.91706085 -0.32495117c-0.24018097 -0.21662903 -0.36026764 -0.47357178 -0.36026764 -0.770813c0 -0.3022766 0.15010834 -0.551651 0.45034027 -0.7481384c0.19651031 -0.120910645 0.6140976 -0.24433899 1.2527618 -0.37028503c0.63866425 -0.12594604 1.1053772 -0.23426819 1.4001465 -0.32495117zm-1.4001465 -4.3527985c-1.1299438 0 -1.9814987 0.18640137 -2.554657 0.5592041c-0.57315826 0.372818 -0.9771042 0.94714355 -1.2118225 1.722992l2.0879364 0.34762573c0.14192963 -0.372818 0.32752228 -0.6331177 0.5567856 -0.7808838c0.2292633 -0.14945984 0.54859924 -0.22419739 0.9580002 -0.22419739c0.60591125 0 1.0180359 0.08732605 1.2363892 0.26197815c0.21834564 0.17297363 0.32751465 0.46348572 0.32751465 0.8715668l0 0.21159363c-0.41485596 0.1612091 -1.1599655 0.33502197 -2.235321 0.52142334c-0.79696655 0.1410675 -1.4074249 0.30648804 -1.8313828 0.49624634c-0.42214203 0.18807983 -0.7505722 0.46012878 -0.9852905 0.81614685c-0.23472595 0.3543396 -0.3520813 0.7582245 -0.3520813 1.2116394c0 0.6851654 0.25746155 1.2519379 0.7723999 1.7003174c0.51675415 0.44837952 1.2227402 0.67256165 2.117958 0.67256165c0.5076599 0 0.9852905 -0.08816528 1.4329071 -0.26449585c0.44760895 -0.17633057 0.86792755 -0.44082642 1.2609482 -0.7934723c0.01638031 0.040298462 0.043670654 0.123428345 0.08187866 0.24937439c0.08734131 0.27708435 0.16103363 0.48616028 0.22107697 0.6272278l2.276268 0c-0.20197296 -0.3828888 -0.34025574 -0.74142456 -0.4148636 -1.0756073c-0.072776794 -0.3358612 -0.10916901 -0.8564606 -0.10916901 -1.5617676l0.024559021 -2.4786835c0 -0.9219513 -0.10279846 -1.5550537 -0.30841064 -1.8993073c-0.20378876 -0.34594727 -0.5567856 -0.6305847 -1.0589828 -0.8539429c-0.50219727 -0.22502136 -1.2664108 -0.33753967 -2.2926407 -0.33753967z" fill-rule="evenodd"/><path fill="#d9d9d9" d="m131.41074 177.77953l-2.309021 1.2393494l0 1.5945129l-1.0562592 0l0 1.692749l1.0562592 0l0 3.4988708c0 0.7506561 0.02456665 1.2494202 0.07368469 1.4962769c0.060043335 0.34762573 0.16740417 0.62387085 0.32206726 0.8287506c0.15647888 0.2032013 0.4012146 0.3694458 0.7341919 0.49876404c0.3329773 0.12762451 0.7068939 0.19143677 1.1217499 0.19143677c0.6768799 0 1.2827911 -0.10580444 1.8177338 -0.31739807l-0.19650269 -1.6474152c-0.40394592 0.1360321 -0.71235657 0.20404053 -0.9252472 0.20404053c-0.15284729 0 -0.28294373 -0.03526306 -0.3902893 -0.105789185c-0.105545044 -0.07054138 -0.17376709 -0.1595459 -0.20471191 -0.26701355c-0.02911377 -0.10916138 -0.043655396 -0.49121094 -0.043655396 -1.1461487l0 -3.234375l1.5720825 0l0 -1.692749l-1.5720825 0l0 -2.8338623z" fill-rule="evenodd"/><path fill="#000000" fill-opacity="0.0" d="m112.16798 277.94226l-25.000038 0l0 -79.74803l78.63783 0" fill-rule="evenodd"/><path stroke="#e06666" stroke-width="2.0" stroke-linejoin="round" stroke-linecap="butt" d="m112.16798 277.94226l-25.000038 0l0 -79.74803l66.63783 0" fill-rule="evenodd"/><path fill="#e06666" stroke="#e06666" stroke-width="2.0" stroke-linecap="butt" d="m153.80577 201.4977l9.076202 -3.3034668l-9.076202 -3.3034668z" fill-rule="evenodd"/><path fill="#f6b26b" d="m165.79002 198.19423l0 0c0 -16.481567 14.080124 -29.84253 31.448822 -29.84253l0 0c8.340744 0 16.339874 3.1441193 22.23767 8.740677c5.8977966 5.5965576 9.211151 13.187119 9.211151 21.101852l0 0c0 16.481567 -14.080124 29.842514 -31.448822 29.842514l0 0c-17.368698 0 -31.448822 -13.360947 -31.448822 -29.842514z" fill-rule="evenodd"/><path stroke="#b45f06" stroke-width="2.0" stroke-linejoin="round" stroke-linecap="butt" d="m165.79002 198.19423l0 0c0 -16.481567 14.080124 -29.84253 31.448822 -29.84253l0 0c8.340744 0 16.339874 3.1441193 22.23767 8.740677c5.8977966 5.5965576 9.211151 13.187119 9.211151 21.101852l0 0c0 16.481567 -14.080124 29.842514 -31.448822 29.842514l0 0c-17.368698 0 -31.448822 -13.360947 -31.448822 -29.842514z" fill-rule="evenodd"/><path fill="#0000ff" d="m196.23103 204.05423l-2.046875 0l0 -1.21875q-0.5 0.703125 -1.203125 1.0625q-0.6875 0.34375 -1.390625 0.34375q-1.421875 0 -2.453125 -1.15625q-1.015625 -1.15625 -1.015625 -3.21875q0 -2.109375 0.984375 -3.203125q1.0 -1.09375 2.515625 -1.09375q1.390625 0 2.40625 1.15625l0 -4.125l2.203125 0l0 11.453125zm-5.859375 -4.328125q0 1.328125 0.359375 1.921875q0.53125 0.859375 1.484375 0.859375q0.765625 0 1.296875 -0.640625q0.53125 -0.65625 0.53125 -1.9375q0 -1.421875 -0.515625 -2.046875q-0.515625 -0.640625 -1.328125 -0.640625q-0.78125 0 -1.3125 0.625q-0.515625 0.625 -0.515625 1.859375zm7.5078125 0.0625q0 -1.09375 0.53125 -2.109375q0.546875 -1.03125 1.53125 -1.5625q1.0 -0.546875 2.21875 -0.546875q1.875 0 3.078125 1.21875q1.203125 1.21875 1.203125 3.09375q0 1.875 -1.21875 3.125q-1.203125 1.234375 -3.046875 1.234375q-1.140625 0 -2.1875 -0.515625q-1.03125 -0.515625 -1.578125 -1.515625q-0.53125 -1.0 -0.53125 -2.421875zm2.25 0.109375q0 1.234375 0.578125 1.890625q0.59375 0.65625 1.453125 0.65625q0.859375 0 1.4375 -0.65625q0.59375 -0.65625 0.59375 -1.90625q0 -1.21875 -0.59375 -1.875q-0.578125 -0.65625 -1.4375 -0.65625q-0.859375 0 -1.453125 0.65625q-0.578125 0.65625 -0.578125 1.890625z" fill-rule="nonzero"/><path fill="#000000" fill-opacity="0.0" d="m197.23885 228.03674l0 20.062988" fill-rule="evenodd"/><path stroke="#6aa84f" stroke-width="2.0" stroke-linejoin="round" stroke-linecap="butt" d="m197.23885 228.03674l0 8.062988" fill-rule="evenodd"/><path fill="#6aa84f" stroke="#6aa84f" stroke-width="2.0" stroke-linecap="butt" d="m193.93538 236.09973l3.3034668 9.076202l3.3034668 -9.076202z" fill-rule="evenodd"/><path fill="#cfe2f3" d="m159.7717 341.51706l74.93417 0l0 0c9.816574 0 17.77449 7.020752 17.77449 15.681274c0 8.660492 -7.9579163 15.681244 -17.77449 15.681244l-74.93417 0l0 0c-9.816574 0 -17.77449 -7.020752 -17.77449 -15.681244c0 -8.660522 7.9579163 -15.681274 17.77449 -15.681274z" fill-rule="evenodd"/><path stroke="#3d85c6" stroke-width="2.0" stroke-linejoin="round" stroke-linecap="butt" d="m159.7717 341.51706l74.93417 0l0 0c9.816574 0 17.77449 7.020752 17.77449 15.681274c0 8.660492 -7.9579163 15.681244 -17.77449 15.681244l-74.93417 0l0 0c-9.816574 0 -17.77449 -7.020752 -17.77449 -15.681244c0 -8.660522 7.9579163 -15.681274 17.77449 -15.681274z" fill-rule="evenodd"/><path fill="#000000" d="m172.29738 357.21457l-2.171875 0.390625q-0.109375 -0.65625 -0.5 -0.984375q-0.375 -0.328125 -1.0 -0.328125q-0.8125 0 -1.3125 0.578125q-0.484375 0.5625 -0.484375 1.890625q0 1.46875 0.5 2.078125q0.5 0.609375 1.328125 0.609375q0.625 0 1.015625 -0.34375q0.40625 -0.359375 0.578125 -1.234375l2.15625 0.375q-0.34375 1.484375 -1.296875 2.25q-0.953125 0.75 -2.546875 0.75q-1.828125 0 -2.90625 -1.140625q-1.078125 -1.15625 -1.078125 -3.1875q0 -2.0625 1.078125 -3.203125q1.09375 -1.140625 2.9375 -1.140625q1.515625 0 2.40625 0.65625q0.90625 0.640625 1.296875 1.984375zm1.1484375 1.578125q0 -1.09375 0.53125 -2.109375q0.546875 -1.03125 1.53125 -1.5625q1.0 -0.546875 2.21875 -0.546875q1.875 0 3.078125 1.21875q1.203125 1.21875 1.203125 3.09375q0 1.875 -1.21875 3.125q-1.203125 1.234375 -3.046875 1.234375q-1.140625 0 -2.1875 -0.515625q-1.03125 -0.515625 -1.578125 -1.515625q-0.53125 -1.0 -0.53125 -2.421875zm2.25 0.109375q0 1.234375 0.578125 1.890625q0.59375 0.65625 1.453125 0.65625q0.859375 0 1.4375 -0.65625q0.59375 -0.65625 0.59375 -1.90625q0 -1.21875 -0.59375 -1.875q-0.578125 -0.65625 -1.4375 -0.65625q-0.859375 0 -1.453125 0.65625q-0.578125 0.65625 -0.578125 1.890625zm15.5859375 4.15625l-2.203125 0l0 -4.234375q0 -1.34375 -0.140625 -1.734375q-0.140625 -0.40625 -0.453125 -0.625q-0.3125 -0.21875 -0.765625 -0.21875q-0.5625 0 -1.015625 0.3125q-0.453125 0.3125 -0.625 0.828125q-0.171875 0.515625 -0.171875 1.90625l0 3.765625l-2.1875 0l0 -8.296875l2.03125 0l0 1.21875q1.09375 -1.40625 2.734375 -1.40625q0.734375 0 1.328125 0.265625q0.609375 0.25 0.90625 0.65625q0.3125 0.40625 0.4375 0.921875q0.125 0.515625 0.125 1.484375l0 5.15625zm6.0234375 -8.296875l0 1.75l-1.5 0l0 3.34375q0 1.015625 0.046875 1.1875q0.046875 0.15625 0.1875 0.265625q0.15625 0.109375 0.375 0.109375q0.3125 0 0.890625 -0.203125l0.1875 1.703125q-0.765625 0.328125 -1.734375 0.328125q-0.59375 0 -1.078125 -0.203125q-0.46875 -0.203125 -0.703125 -0.515625q-0.21875 -0.3125 -0.296875 -0.859375q-0.078125 -0.375 -0.078125 -1.546875l0 -3.609375l-1.0 0l0 -1.75l1.0 0l0 -1.65625l2.203125 -1.28125l0 2.9375l1.5 0zm1.53125 -1.125l0 -2.03125l2.1875 0l0 2.03125l-2.1875 0zm0 9.421875l0 -8.296875l2.1875 0l0 8.296875l-2.1875 0zm11.9921875 0l-2.203125 0l0 -4.234375q0 -1.34375 -0.140625 -1.734375q-0.140625 -0.40625 -0.453125 -0.625q-0.3125 -0.21875 -0.765625 -0.21875q-0.5625 0 -1.015625 0.3125q-0.453125 0.3125 -0.625 0.828125q-0.171875 0.515625 -0.171875 1.90625l0 3.765625l-2.1875 0l0 -8.296875l2.03125 0l0 1.21875q1.09375 -1.40625 2.734375 -1.40625q0.734375 0 1.328125 0.265625q0.609375 0.25 0.90625 0.65625q0.3125 0.40625 0.4375 0.921875q0.125 0.515625 0.125 1.484375l0 5.15625zm7.6796875 0l0 -1.25q-0.453125 0.671875 -1.1875 1.0625q-0.734375 0.375 -1.5625 0.375q-0.828125 0 -1.5 -0.359375q-0.65625 -0.375 -0.953125 -1.03125q-0.296875 -0.671875 -0.296875 -1.84375l0 -5.25l2.1875 0l0 3.8125q0 1.75 0.125 2.140625q0.125 0.390625 0.4375 0.625q0.328125 0.234375 0.8125 0.234375q0.5625 0 1.0 -0.3125q0.453125 -0.3125 0.609375 -0.765625q0.171875 -0.453125 0.171875 -2.234375l0 -3.5l2.203125 0l0 8.296875l-2.046875 0zm9.1171875 -2.640625l2.1875 0.359375q-0.421875 1.203125 -1.328125 1.84375q-0.90625 0.625 -2.28125 0.625q-2.15625 0 -3.203125 -1.421875q-0.8125 -1.125 -0.8125 -2.859375q0 -2.0625 1.078125 -3.21875q1.078125 -1.171875 2.71875 -1.171875q1.859375 0 2.921875 1.21875q1.078125 1.21875 1.03125 3.75l-5.5 0q0.015625 0.96875 0.515625 1.515625q0.515625 0.546875 1.28125 0.546875q0.515625 0 0.859375 -0.28125q0.359375 -0.28125 0.53125 -0.90625zm0.125 -2.21875q-0.015625 -0.953125 -0.484375 -1.453125q-0.46875 -0.5 -1.140625 -0.5q-0.71875 0 -1.1875 0.53125q-0.46875 0.515625 -0.46875 1.421875l3.28125 0z" fill-rule="nonzero"/><path fill="#f6b26b" d="m144.36351 29.119423l21.149612 -15.681103l63.448822 0l21.149597 15.681103l-21.149597 15.681103l-63.448822 0z" fill-rule="evenodd"/><path stroke="#b45f06" stroke-width="2.0" stroke-linejoin="round" stroke-linecap="butt" d="m144.36351 29.119423l21.149612 -15.681103l63.448822 0l21.149597 15.681103l-21.149597 15.681103l-63.448822 0z" fill-rule="evenodd"/><path fill="#0000ff" d="m185.60863 29.135672l-2.171875 0.390625q-0.109375 -0.65625 -0.5 -0.984375q-0.375 -0.328125 -1.0 -0.328125q-0.8125 0 -1.3125 0.578125q-0.484375 0.5625 -0.484375 1.890625q0 1.4687519 0.5 2.078127q0.5 0.609375 1.328125 0.609375q0.625 0 1.015625 -0.34375q0.40625 -0.359375 0.578125 -1.2343769l2.15625 0.3750019q-0.34375 1.484375 -1.296875 2.25q-0.953125 0.75 -2.546875 0.75q-1.828125 0 -2.90625 -1.140625q-1.078125 -1.15625 -1.078125 -3.187502q0 -2.0625 1.078125 -3.203125q1.09375 -1.140625 2.9375 -1.140625q1.515625 0 2.40625 0.65625q0.90625 0.640625 1.296875 1.984375zm0.6171875 -2.453125l2.34375 0l1.984375 5.890627l1.9375 -5.890627l2.265625 0l-2.921875 7.984377l-0.53125 1.453125q-0.28125 0.71875 -0.546875 1.09375q-0.265625 0.390625 -0.609375 0.625q-0.328125 0.25 -0.828125 0.375q-0.5 0.140625 -1.125 0.140625q-0.625 0 -1.234375 -0.140625l-0.203125 -1.71875q0.515625 0.109375 0.9375 0.109375q0.765625 0 1.125 -0.453125q0.375 -0.453125 0.5625 -1.140625l-3.15625 -8.328127zm17.179688 2.453125l-2.171875 0.390625q-0.109375 -0.65625 -0.5 -0.984375q-0.375 -0.328125 -1.0 -0.328125q-0.8125 0 -1.3125 0.578125q-0.484375 0.5625 -0.484375 1.890625q0 1.4687519 0.5 2.078127q0.5 0.609375 1.328125 0.609375q0.625 0 1.015625 -0.34375q0.40625 -0.359375 0.578125 -1.2343769l2.15625 0.3750019q-0.34375 1.484375 -1.296875 2.25q-0.953125 0.75 -2.546875 0.75q-1.828125 0 -2.90625 -1.140625q-1.078125 -1.15625 -1.078125 -3.187502q0 -2.0625 1.078125 -3.203125q1.09375 -1.140625 2.9375 -1.140625q1.515625 0 2.40625 0.65625q0.90625 0.640625 1.296875 1.984375zm1.6640625 5.843752l0 -11.453127l2.1875 0l0 11.453127l-2.1875 0zm9.2421875 -2.640625l2.1875 0.359375q-0.421875 1.203125 -1.328125 1.84375q-0.90625 0.625 -2.28125 0.625q-2.15625 0 -3.203125 -1.421875q-0.8125 -1.125 -0.8125 -2.859377q0 -2.0625 1.078125 -3.21875q1.078125 -1.171875 2.71875 -1.171875q1.859375 0 2.921875 1.21875q1.078125 1.21875 1.03125 3.75l-5.5 0q0.015625 0.9687519 0.515625 1.5156269q0.515625 0.546875 1.28125 0.546875q0.515625 0 0.859375 -0.28125q0.359375 -0.28125 0.53125 -0.90625zm0.125 -2.218752q-0.015625 -0.953125 -0.484375 -1.453125q-0.46875 -0.5 -1.140625 -0.5q-0.71875 0 -1.1875 0.53125q-0.46875 0.515625 -0.46875 1.421875l3.28125 0z" fill-rule="nonzero"/><path fill="#f1c232" d="m131.96326 139.62534l15.574799 -62.29921l99.40158 0l15.574799 62.29921z" fill-rule="evenodd"/><path stroke="#b45f06" stroke-width="2.0" stroke-linejoin="round" stroke-linecap="butt" d="m131.96326 139.62534l15.574799 -62.29921l99.40158 0l15.574799 62.29921z" fill-rule="evenodd"/><path fill="#000000" d="m177.98494 107.31317l-2.046875 0l0 -1.21875q-0.5 0.703125 -1.203125 1.0625q-0.6875 0.34375 -1.390625 0.34375q-1.421875 0 -2.453125 -1.15625q-1.015625 -1.15625 -1.015625 -3.21875q0 -2.109375 0.984375 -3.203125q1.0 -1.09375 2.515625 -1.09375q1.390625 0 2.40625 1.15625l0 -4.125l2.203125 0l0 11.453125zm-5.859375 -4.328125q0 1.328125 0.359375 1.921875q0.53125 0.859375 1.484375 0.859375q0.765625 0 1.296875 -0.640625q0.53125 -0.65625 0.53125 -1.9375q0 -1.421875 -0.515625 -2.046875q-0.515625 -0.640625 -1.328125 -0.640625q-0.78125 0 -1.3125 0.625q-0.515625 0.625 -0.515625 1.859375zm12.8203125 1.6875l2.1875 0.359375q-0.421875 1.203125 -1.328125 1.84375q-0.90625 0.625 -2.28125 0.625q-2.15625 0 -3.203125 -1.421875q-0.8125 -1.125 -0.8125 -2.859375q0 -2.0625 1.078125 -3.21875q1.078125 -1.171875 2.71875 -1.171875q1.859375 0 2.921875 1.21875q1.078125 1.21875 1.03125 3.75l-5.5 0q0.015625 0.96875 0.515625 1.515625q0.515625 0.546875 1.28125 0.546875q0.515625 0 0.859375 -0.28125q0.359375 -0.28125 0.53125 -0.90625zm0.125 -2.21875q-0.015625 -0.953125 -0.484375 -1.453125q-0.46875 -0.5 -1.140625 -0.5q-0.71875 0 -1.1875 0.53125q-0.46875 0.515625 -0.46875 1.421875l3.28125 0zm11.2109375 -0.984375l-2.171875 0.390625q-0.109375 -0.65625 -0.5 -0.984375q-0.375 -0.328125 -1.0 -0.328125q-0.8125 0 -1.3125 0.578125q-0.484375 0.5625 -0.484375 1.890625q0 1.46875 0.5 2.078125q0.5 0.609375 1.328125 0.609375q0.625 0 1.015625 -0.34375q0.40625 -0.359375 0.578125 -1.234375l2.15625 0.375q-0.34375 1.484375 -1.296875 2.25q-0.953125 0.75 -2.546875 0.75q-1.828125 0 -2.90625 -1.140625q-1.078125 -1.15625 -1.078125 -3.1875q0 -2.0625 1.078125 -3.203125q1.09375 -1.140625 2.9375 -1.140625q1.515625 0 2.40625 0.65625q0.90625 0.640625 1.296875 1.984375zm1.6640625 5.84375l0 -11.453125l2.1875 0l0 11.453125l-2.1875 0zm6.0859375 -5.765625l-2.0 -0.359375q0.34375 -1.203125 1.15625 -1.78125q0.828125 -0.578125 2.4375 -0.578125q1.46875 0 2.1875 0.34375q0.71875 0.34375 1.015625 0.890625q0.296875 0.53125 0.296875 1.953125l-0.03125 2.5625q0 1.09375 0.109375 1.625q0.109375 0.515625 0.390625 1.109375l-2.171875 0q-0.078125 -0.21875 -0.203125 -0.65625q-0.0625 -0.1875 -0.078125 -0.25q-0.5625 0.546875 -1.203125 0.828125q-0.640625 0.265625 -1.375 0.265625q-1.28125 0 -2.015625 -0.6875q-0.734375 -0.703125 -0.734375 -1.765625q0 -0.703125 0.328125 -1.25q0.34375 -0.5625 0.9375 -0.84375q0.609375 -0.296875 1.75 -0.515625q1.546875 -0.296875 2.140625 -0.546875l0 -0.21875q0 -0.625 -0.3125 -0.890625q-0.3125 -0.28125 -1.1875 -0.28125q-0.578125 0 -0.90625 0.234375q-0.328125 0.234375 -0.53125 0.8125zm2.9375 1.78125q-0.421875 0.140625 -1.34375 0.34375q-0.90625 0.1875 -1.1875 0.375q-0.4375 0.296875 -0.4375 0.765625q0 0.46875 0.34375 0.8125q0.34375 0.328125 0.875 0.328125q0.59375 0 1.140625 -0.390625q0.390625 -0.296875 0.515625 -0.734375q0.09375 -0.28125 0.09375 -1.0625l0 -0.4375zm6.4140625 3.984375l-2.1875 0l0 -8.296875l2.03125 0l0 1.171875q0.53125 -0.828125 0.9375 -1.09375q0.421875 -0.265625 0.953125 -0.265625q0.75 0 1.453125 0.40625l-0.6875 1.921875q-0.546875 -0.359375 -1.03125 -0.359375q-0.453125 0 -0.78125 0.25q-0.3125 0.25 -0.5 0.921875q-0.1875 0.65625 -0.1875 2.78125l0 2.5625zm8.9296875 -2.640625l2.1875 0.359375q-0.421875 1.203125 -1.328125 1.84375q-0.90625 0.625 -2.28125 0.625q-2.15625 0 -3.203125 -1.421875q-0.8125 -1.125 -0.8125 -2.859375q0 -2.0625 1.078125 -3.21875q1.078125 -1.171875 2.71875 -1.171875q1.859375 0 2.921875 1.21875q1.078125 1.21875 1.03125 3.75l-5.5 0q0.015625 0.96875 0.515625 1.515625q0.515625 0.546875 1.28125 0.546875q0.515625 0 0.859375 -0.28125q0.359375 -0.28125 0.53125 -0.90625zm0.125 -2.21875q-0.015625 -0.953125 -0.484375 -1.453125q-0.46875 -0.5 -1.140625 -0.5q-0.71875 0 -1.1875 0.53125q-0.46875 0.515625 -0.46875 1.421875l3.28125 0z" fill-rule="nonzero"/><path fill="#000000" d="m165.98494 126.31317l-3.34375 -8.296875l2.296875 0l1.5625 4.234375l0.453125 1.40625q0.1875 -0.53125 0.234375 -0.703125q0.109375 -0.359375 0.234375 -0.703125l1.578125 -4.234375l2.25 0l-3.296875 8.296875l-1.96875 0zm8.2578125 -5.765625l-2.0 -0.359375q0.34375 -1.203125 1.15625 -1.78125q0.828125 -0.578125 2.4375 -0.578125q1.46875 0 2.1875 0.34375q0.71875 0.34375 1.015625 0.890625q0.296875 0.53125 0.296875 1.953125l-0.03125 2.5625q0 1.09375 0.109375 1.625q0.109375 0.515625 0.390625 1.109375l-2.171875 0q-0.078125 -0.21875 -0.203125 -0.65625q-0.0625 -0.1875 -0.078125 -0.25q-0.5625 0.546875 -1.203125 0.828125q-0.640625 0.265625 -1.375 0.265625q-1.28125 0 -2.015625 -0.6875q-0.734375 -0.703125 -0.734375 -1.765625q0 -0.703125 0.328125 -1.25q0.34375 -0.5625 0.9375 -0.84375q0.609375 -0.296875 1.75 -0.515625q1.546875 -0.296875 2.140625 -0.546875l0 -0.21875q0 -0.625 -0.3125 -0.890625q-0.3125 -0.28125 -1.1875 -0.28125q-0.578125 0 -0.90625 0.234375q-0.328125 0.234375 -0.53125 0.8125zm2.9375 1.78125q-0.421875 0.140625 -1.34375 0.34375q-0.90625 0.1875 -1.1875 0.375q-0.4375 0.296875 -0.4375 0.765625q0 0.46875 0.34375 0.8125q0.34375 0.328125 0.875 0.328125q0.59375 0 1.140625 -0.390625q0.390625 -0.296875 0.515625 -0.734375q0.09375 -0.28125 0.09375 -1.0625l0 -0.4375zm6.4140625 3.984375l-2.1875 0l0 -8.296875l2.03125 0l0 1.171875q0.53125 -0.828125 0.9375 -1.09375q0.421875 -0.265625 0.953125 -0.265625q0.75 0 1.453125 0.40625l-0.6875 1.921875q-0.546875 -0.359375 -1.03125 -0.359375q-0.453125 0 -0.78125 0.25q-0.3125 0.25 -0.5 0.921875q-0.1875 0.65625 -0.1875 2.78125l0 2.5625zm4.1328125 -9.421875l0 -2.03125l2.1875 0l0 2.03125l-2.1875 0zm0 9.421875l0 -8.296875l2.1875 0l0 8.296875l-2.1875 0zm6.0859375 -5.765625l-2.0 -0.359375q0.34375 -1.203125 1.15625 -1.78125q0.828125 -0.578125 2.4375 -0.578125q1.46875 0 2.1875 0.34375q0.71875 0.34375 1.015625 0.890625q0.296875 0.53125 0.296875 1.953125l-0.03125 2.5625q0 1.09375 0.109375 1.625q0.109375 0.515625 0.390625 1.109375l-2.171875 0q-0.078125 -0.21875 -0.203125 -0.65625q-0.0625 -0.1875 -0.078125 -0.25q-0.5625 0.546875 -1.203125 0.828125q-0.640625 0.265625 -1.375 0.265625q-1.28125 0 -2.015625 -0.6875q-0.734375 -0.703125 -0.734375 -1.765625q0 -0.703125 0.328125 -1.25q0.34375 -0.5625 0.9375 -0.84375q0.609375 -0.296875 1.75 -0.515625q1.546875 -0.296875 2.140625 -0.546875l0 -0.21875q0 -0.625 -0.3125 -0.890625q-0.3125 -0.28125 -1.1875 -0.28125q-0.578125 0 -0.90625 0.234375q-0.328125 0.234375 -0.53125 0.8125zm2.9375 1.78125q-0.421875 0.140625 -1.34375 0.34375q-0.90625 0.1875 -1.1875 0.375q-0.4375 0.296875 -0.4375 0.765625q0 0.46875 0.34375 0.8125q0.34375 0.328125 0.875 0.328125q0.59375 0 1.140625 -0.390625q0.390625 -0.296875 0.515625 -0.734375q0.09375 -0.28125 0.09375 -1.0625l0 -0.4375zm4.2265625 3.984375l0 -11.453125l2.1875 0l0 4.125q1.015625 -1.15625 2.40625 -1.15625q1.515625 0 2.5 1.09375q1.0 1.09375 1.0 3.15625q0 2.125 -1.015625 3.28125q-1.0 1.140625 -2.453125 1.140625q-0.703125 0 -1.40625 -0.359375q-0.6875 -0.359375 -1.1875 -1.046875l0 1.21875l-2.03125 0zm2.171875 -4.328125q0 1.28125 0.40625 1.90625q0.578125 0.875 1.515625 0.875q0.734375 0 1.234375 -0.625q0.515625 -0.625 0.515625 -1.953125q0 -1.421875 -0.515625 -2.046875q-0.515625 -0.640625 -1.3125 -0.640625q-0.796875 0 -1.328125 0.625q-0.515625 0.609375 -0.515625 1.859375zm7.6953125 4.328125l0 -11.453125l2.1875 0l0 11.453125l-2.1875 0zm9.2421875 -2.640625l2.1875 0.359375q-0.421875 1.203125 -1.328125 1.84375q-0.90625 0.625 -2.28125 0.625q-2.15625 0 -3.203125 -1.421875q-0.8125 -1.125 -0.8125 -2.859375q0 -2.0625 1.078125 -3.21875q1.078125 -1.171875 2.71875 -1.171875q1.859375 0 2.921875 1.21875q1.078125 1.21875 1.03125 3.75l-5.5 0q0.015625 0.96875 0.515625 1.515625q0.515625 0.546875 1.28125 0.546875q0.515625 0 0.859375 -0.28125q0.359375 -0.28125 0.53125 -0.90625zm0.125 -2.21875q-0.015625 -0.953125 -0.484375 -1.453125q-0.46875 -0.5 -1.140625 -0.5q-0.71875 0 -1.1875 0.53125q-0.46875 0.515625 -0.46875 1.421875l3.28125 0zm3.1953125 2.484375l2.203125 -0.328125q0.140625 0.640625 0.5625 0.96875q0.4375 0.328125 1.21875 0.328125q0.84375 0 1.28125 -0.3125q0.28125 -0.21875 0.28125 -0.578125q0 -0.25 -0.15625 -0.421875q-0.15625 -0.15625 -0.734375 -0.28125q-2.65625 -0.59375 -3.359375 -1.078125q-0.984375 -0.671875 -0.984375 -1.859375q0 -1.078125 0.84375 -1.8125q0.859375 -0.734375 2.640625 -0.734375q1.703125 0 2.53125 0.5625q0.828125 0.546875 1.140625 1.625l-2.0625 0.390625q-0.140625 -0.484375 -0.515625 -0.734375q-0.359375 -0.265625 -1.046875 -0.265625q-0.875 0 -1.25 0.234375q-0.25 0.171875 -0.25 0.453125q0 0.234375 0.21875 0.390625q0.296875 0.21875 2.046875 0.625q1.765625 0.390625 2.453125 0.96875q0.6875 0.59375 0.6875 1.640625q0 1.140625 -0.953125 1.96875q-0.953125 0.8125 -2.8125 0.8125q-1.703125 0 -2.6875 -0.6875q-0.984375 -0.6875 -1.296875 -1.875z" fill-rule="nonzero"/><path fill="#000000" fill-opacity="0.0" d="m197.23885 139.62534l0 28.724411" fill-rule="evenodd"/><path stroke="#93c47d" stroke-width="2.0" stroke-linejoin="round" stroke-linecap="butt" d="m197.23885 139.62534l0 16.724411" fill-rule="evenodd"/><path fill="#93c47d" stroke="#93c47d" stroke-width="2.0" stroke-linecap="butt" d="m193.93538 156.34975l3.3034668 9.076202l3.3034668 -9.076202z" fill-rule="evenodd"/><path fill="#000000" fill-opacity="0.0" d="m197.23885 307.7848l0 33.73227" fill-rule="evenodd"/><path stroke="#93c47d" stroke-width="2.0" stroke-linejoin="round" stroke-linecap="butt" d="m197.23885 307.7848l0 21.73227" fill-rule="evenodd"/><path fill="#93c47d" stroke="#93c47d" stroke-width="2.0" stroke-linecap="butt" d="m193.93538 329.51706l3.3034668 9.076202l3.3034668 -9.076202z" fill-rule="evenodd"/><path fill="#000000" fill-opacity="0.0" d="m197.23753 44.800526l0 16.262836l0.06298828 0l0 16.272598" fill-rule="evenodd"/><path stroke="#93c47d" stroke-width="2.0" stroke-linejoin="round" stroke-linecap="butt" d="m197.23753 44.800526l0 16.262836l0.06298828 0l0 4.2725983" fill-rule="evenodd"/><path fill="#93c47d" stroke="#93c47d" stroke-width="2.0" stroke-linecap="butt" d="m193.99706 65.33596l3.3034668 9.076195l3.3034668 -9.076195z" fill-rule="evenodd"/><path fill="#cfe2f3" d="m26.990402 13.43832l58.538475 0l0 0c7.668701 0 13.885414 7.0207386 13.885414 15.681259c0 8.660522 -6.216713 15.681259 -13.885414 15.681259l-58.538475 0l0 0c-7.6686974 0 -13.885406 -7.0207367 -13.885406 -15.681259c0 -8.660521 6.216708 -15.681259 13.885406 -15.681259z" fill-rule="evenodd"/><path stroke="#3d85c6" stroke-width="2.0" stroke-linejoin="round" stroke-linecap="butt" d="m26.990402 13.43832l58.538475 0l0 0c7.668701 0 13.885414 7.0207386 13.885414 15.681259c0 8.660522 -6.216713 15.681259 -13.885414 15.681259l-58.538475 0l0 0c-7.6686974 0 -13.885406 -7.0207367 -13.885406 -15.681259c0 -8.660521 6.216708 -15.681259 13.885406 -15.681259z" fill-rule="evenodd"/><path fill="#000000" d="m39.294796 32.60458l2.203125 -0.328125q0.140625 0.640625 0.5625 0.96875q0.4375 0.328125 1.21875 0.328125q0.84375 0 1.28125 -0.3125q0.28125 -0.21875 0.28125 -0.578125q0 -0.25 -0.15625 -0.421875q-0.15625 -0.15625 -0.734375 -0.28125q-2.65625 -0.59375 -3.359375 -1.078125q-0.984375 -0.671875 -0.984375 -1.859375q0 -1.078125 0.84375 -1.8125q0.859375 -0.734375 2.640625 -0.734375q1.703125 0 2.53125 0.5625q0.828125 0.546875 1.140625 1.625l-2.0625 0.390625q-0.140625 -0.484375 -0.515625 -0.734375q-0.359375 -0.265625 -1.046875 -0.265625q-0.875 0 -1.25 0.234375q-0.25 0.171875 -0.25 0.453125q0 0.234375 0.21875 0.390625q0.296875 0.21875 2.046875 0.625q1.765625 0.390625 2.453125 0.96875q0.6875 0.59375 0.6875 1.640625q0 1.140625 -0.953125 1.96875q-0.953125 0.8125 -2.8125 0.8125q-1.703125 0 -2.6875 -0.6875q-0.984375 -0.6875 -1.296875 -1.875zm13.476566 -5.921875l0 1.75l-1.5 0l0 3.34375q0 1.015625 0.046875 1.1875q0.046875 0.15625 0.1875 0.265625q0.15625 0.109375 0.375 0.109375q0.3125 0 0.890625 -0.203125l0.1875 1.703125q-0.765625 0.328125 -1.734375 0.328125q-0.59375 0 -1.078125 -0.203125q-0.46875 -0.203125 -0.703125 -0.515625q-0.21875 -0.3125 -0.2968788 -0.859375q-0.078125 -0.375 -0.078125 -1.546875l0 -3.609375l-1.0 0l0 -1.75l1.0 0l0 -1.65625l2.2031288 -1.28125l0 2.9375l1.5 0zm3.171875 2.53125l-2.0 -0.359375q0.34375 -1.203125 1.15625 -1.78125q0.828125 -0.578125 2.4375 -0.578125q1.46875 0 2.1875 0.34375q0.71875 0.34375 1.015625 0.890625q0.296875 0.53125 0.296875 1.953125l-0.03125 2.5625q0 1.09375 0.109375 1.625q0.109375 0.515625 0.390625 1.109375l-2.171875 0q-0.078125 -0.21875 -0.203125 -0.65625q-0.0625 -0.1875 -0.078125 -0.25q-0.5625 0.546875 -1.203125 0.828125q-0.640625 0.265625 -1.375 0.265625q-1.28125 0 -2.015625 -0.6875q-0.734375 -0.703125 -0.734375 -1.765625q0 -0.703125 0.328125 -1.25q0.34375 -0.5625 0.9375 -0.84375q0.609375 -0.296875 1.75 -0.515625q1.546875 -0.296875 2.140625 -0.546875l0 -0.21875q0 -0.625 -0.3125 -0.890625q-0.3125 -0.28125 -1.1875 -0.28125q-0.578125 0 -0.90625 0.234375q-0.328125 0.234375 -0.53125 0.8125zm2.9375 1.78125q-0.421875 0.140625 -1.34375 0.34375q-0.90625 0.1875 -1.1875 0.375q-0.4375 0.296875 -0.4375 0.765625q0 0.46875 0.34375 0.8125q0.34375 0.328125 0.875 0.328125q0.59375 0 1.140625 -0.390625q0.390625 -0.296875 0.515625 -0.734375q0.09375 -0.28125 0.09375 -1.0625l0 -0.4375zm6.4140625 3.984375l-2.1875 0l0 -8.296875l2.03125 0l0 1.171875q0.53125 -0.828125 0.9375 -1.09375q0.421875 -0.265625 0.953125 -0.265625q0.75 0 1.453125 0.40625l-0.6875 1.921875q-0.546875 -0.359375 -1.03125 -0.359375q-0.453125 0 -0.78125 0.25q-0.3125 0.25 -0.5 0.921875q-0.1875 0.65625 -0.1875 2.78125l0 2.5625zm7.9296875 -8.296875l0 1.75l-1.5 0l0 3.34375q0 1.015625 0.046875 1.1875q0.046875 0.15625 0.1875 0.265625q0.15625 0.109375 0.375 0.109375q0.3125 0 0.890625 -0.203125l0.1875 1.703125q-0.765625 0.328125 -1.734375 0.328125q-0.59375 0 -1.078125 -0.203125q-0.46875 -0.203125 -0.703125 -0.515625q-0.21875 -0.3125 -0.296875 -0.859375q-0.078125 -0.375 -0.078125 -1.546875l0 -3.609375l-1.0 0l0 -1.75l1.0 0l0 -1.65625l2.203125 -1.28125l0 2.9375l1.5 0z" fill-rule="nonzero"/><path fill="#000000" fill-opacity="0.0" d="m99.41429 29.11958l22.474686 0l0 0.062992096l22.4702 0" fill-rule="evenodd"/><path stroke="#93c47d" stroke-width="2.0" stroke-linejoin="round" stroke-linecap="butt" d="m99.41429 29.11958l22.474686 0l0 0.062992096l10.4702 0" fill-rule="evenodd"/><path fill="#93c47d" stroke="#93c47d" stroke-width="2.0" stroke-linecap="butt" d="m132.35918 32.486034l9.076187 -3.303463l-9.076187 -3.303465z" fill-rule="evenodd"/></g></svg>