<svg version="1.1" viewBox="0.0 0.0 718.8556430446195 636.1338582677165" fill="none" stroke="none" stroke-linecap="square" stroke-miterlimit="10" xmlns:xlink="http://www.w3.org/1999/xlink" xmlns="http://www.w3.org/2000/svg"><clipPath id="p.0"><path d="m0 0l718.85565 0l0 636.13385l-718.85565 0l0 -636.13385z" clip-rule="nonzero"/></clipPath><g clip-path="url(#p.0)"><path fill="#000000" fill-opacity="0.0" d="m0 0l718.85565 0l0 636.13385l-718.85565 0z" fill-rule="evenodd"/><path fill="#434343" d="m-2.9055119 -3.937008l718.86615 0l0 636.126l-718.86615 0z" fill-rule="evenodd"/><path stroke="#434343" stroke-width="4.0" stroke-linejoin="round" stroke-linecap="butt" d="m-2.9055119 -3.937008l718.86615 0l0 636.126l-718.86615 0z" fill-rule="evenodd"/><path fill="#f1c232" d="m158.07349 515.18243l82.267715 -33.007904l82.267715 33.007904l-82.267715 33.007874z" fill-rule="evenodd"/><path stroke="#e06666" stroke-width="2.0" stroke-linejoin="round" stroke-linecap="butt" stroke-dasharray="8.0,6.0" d="m158.07349 515.18243l82.267715 -33.007904l82.267715 33.007904l-82.267715 33.007874z" fill-rule="evenodd"/><path fill="#000000" d="m211.81703 519.50616l2.9375 -0.453125q0.1875 0.859375 0.75 1.3125q0.578125 0.4375 1.609375 0.4375q1.140625 0 1.71875 -0.421875q0.375 -0.296875 0.375 -0.78125q0 -0.328125 -0.203125 -0.546875q-0.21875 -0.21875 -0.984375 -0.390625q-3.53125 -0.78125 -4.484375 -1.421875q-1.3125 -0.90625 -1.3125 -2.5q0 -1.4375 1.125 -2.40625q1.140625 -0.984375 3.53125 -0.984375q2.265625 0 3.375 0.75q1.109375 0.734375 1.515625 2.171875l-2.75 0.515625q-0.1875 -0.640625 -0.6875 -0.984375q-0.484375 -0.34375 -1.40625 -0.34375q-1.15625 0 -1.65625 0.3125q-0.328125 0.234375 -0.328125 0.59375q0 0.3125 0.296875 0.53125q0.390625 0.296875 2.71875 0.828125q2.34375 0.53125 3.28125 1.296875q0.90625 0.78125 0.90625 2.1875q0 1.515625 -1.265625 2.609375q-1.265625 1.09375 -3.765625 1.09375q-2.25 0 -3.578125 -0.90625q-1.3125 -0.921875 -1.71875 -2.5zm17.97107 -7.90625l0 2.328125l-2.0 0l0 4.46875q0 1.34375 0.046875 1.578125q0.0625 0.21875 0.265625 0.375q0.203125 0.140625 0.5 0.140625q0.40625 0 1.171875 -0.28125l0.25 2.265625q-1.015625 0.4375 -2.3125 0.4375q-0.796875 0 -1.4375 -0.265625q-0.625 -0.265625 -0.921875 -0.6875q-0.296875 -0.421875 -0.40625 -1.140625q-0.09375 -0.515625 -0.09375 -2.0625l0 -4.828125l-1.34375 0l0 -2.328125l1.34375 0l0 -2.1875l2.9375 -1.71875l0 3.90625l2.0 0zm1.3524323 5.375q0 -1.453125 0.71875 -2.8125q0.71875 -1.375 2.03125 -2.09375q1.3125 -0.71875 2.9375 -0.71875q2.515625 0 4.109375 1.640625q1.609375 1.625 1.609375 4.109375q0 2.515625 -1.625 4.171875q-1.609375 1.640625 -4.0625 1.640625q-1.53125 0 -2.90625 -0.6875q-1.375 -0.6875 -2.09375 -2.015625q-0.71875 -1.328125 -0.71875 -3.234375zm3.0 0.15625q0 1.640625 0.78125 2.515625q0.78125 0.875 1.921875 0.875q1.140625 0 1.921875 -0.875q0.78125 -0.875 0.78125 -2.53125q0 -1.625 -0.78125 -2.5q-0.78125 -0.875 -1.921875 -0.875q-1.140625 0 -1.921875 0.875q-0.78125 0.875 -0.78125 2.515625zm10.621826 -5.53125l2.71875 0l0 1.625q0.53125 -0.828125 1.4375 -1.34375q0.90625 -0.53125 2.015625 -0.53125q1.921875 0 3.265625 1.515625q1.34375 1.5 1.34375 4.203125q0 2.765625 -1.359375 4.3125q-1.34375 1.53125 -3.265625 1.53125q-0.921875 0 -1.671875 -0.359375q-0.734375 -0.375 -1.5625 -1.25l0 5.5625l-2.921875 0l0 -15.265625zm2.890625 5.34375q0 1.859375 0.734375 2.75q0.75 0.890625 1.8125 0.890625q1.015625 0 1.6875 -0.8125q0.6875 -0.8125 0.6875 -2.6875q0 -1.734375 -0.703125 -2.578125q-0.703125 -0.84375 -1.734375 -0.84375q-1.0625 0 -1.78125 0.828125q-0.703125 0.828125 -0.703125 2.453125zm16.512451 1.78125l-2.65625 0q-0.015625 -0.578125 -0.015625 -0.703125q0 -1.28125 0.421875 -2.109375q0.4375 -0.84375 1.71875 -1.875q1.28125 -1.046875 1.53125 -1.375q0.375 -0.515625 0.375 -1.125q0 -0.84375 -0.6875 -1.453125q-0.671875 -0.609375 -1.828125 -0.609375q-1.109375 0 -1.859375 0.640625q-0.75 0.625 -1.03125 1.921875l-2.6875 -0.328125q0.109375 -1.859375 1.578125 -3.15625q1.484375 -1.3125 3.875 -1.3125q2.515625 0 4.0 1.328125q1.5 1.3125 1.5 3.0625q0 0.953125 -0.546875 1.828125q-0.546875 0.859375 -2.34375 2.34375q-0.921875 0.78125 -1.15625 1.25q-0.21875 0.46875 -0.1875 1.671875zm-2.65625 3.9375l0 -2.921875l2.921875 0l0 2.921875l-2.921875 0z" fill-rule="nonzero"/><path fill="#f1c232" d="m161.83727 303.20013l78.50394 -33.007874l78.50395 33.007874l-78.50395 33.007874z" fill-rule="evenodd"/><path stroke="#e06666" stroke-width="2.0" stroke-linejoin="round" stroke-linecap="butt" stroke-dasharray="8.0,6.0" d="m161.83727 303.20013l78.50394 -33.007874l78.50395 33.007874l-78.50395 33.007874z" fill-rule="evenodd"/><path fill="#000000" d="m223.49397 310.68015l-2.921875 0l0 -5.640625q0 -1.796875 -0.1875 -2.3125q-0.1875 -0.53125 -0.609375 -0.828125q-0.421875 -0.296875 -1.015625 -0.296875q-0.765625 0 -1.375 0.421875q-0.59375 0.421875 -0.828125 1.109375q-0.21875 0.6875 -0.21875 2.53125l0 5.015625l-2.921875 0l0 -11.0625l2.71875 0l0 1.625q1.4375 -1.875 3.640625 -1.875q0.96875 0 1.765625 0.359375q0.8125 0.34375 1.21875 0.890625q0.40625 0.53125 0.5625 1.21875q0.171875 0.6875 0.171875 1.96875l0 6.875zm9.371826 -3.515625l2.90625 0.484375q-0.546875 1.609375 -1.765625 2.453125q-1.21875 0.828125 -3.03125 0.828125q-2.890625 0 -4.28125 -1.890625q-1.09375 -1.5 -1.09375 -3.8125q0 -2.75 1.4375 -4.296875q1.4375 -1.5625 3.640625 -1.5625q2.46875 0 3.890625 1.640625q1.421875 1.625 1.359375 4.984375l-7.328125 0q0.03125 1.296875 0.703125 2.03125q0.6875 0.71875 1.703125 0.71875q0.6875 0 1.15625 -0.375q0.46875 -0.375 0.703125 -1.203125zm0.171875 -2.96875q-0.03125 -1.265625 -0.65625 -1.921875q-0.625 -0.671875 -1.53125 -0.671875q-0.953125 0 -1.578125 0.703125q-0.625 0.703125 -0.609375 1.890625l4.375 0zm3.8773193 6.484375l3.984375 -5.703125l-3.8125 -5.359375l3.5625 0l1.96875 3.046875l2.0625 -3.046875l3.421875 0l-3.734375 5.234375l4.078125 5.828125l-3.578125 0l-2.25 -3.421875l-2.28125 3.421875l-3.421875 0zm18.34607 -11.0625l0 2.328125l-2.0 0l0 4.46875q0 1.34375 0.046875 1.578125q0.0625 0.21875 0.265625 0.375q0.203125 0.140625 0.5 0.140625q0.40625 0 1.171875 -0.28125l0.25 2.265625q-1.015625 0.4375 -2.3125 0.4375q-0.796875 0 -1.4375 -0.265625q-0.625 -0.265625 -0.921875 -0.6875q-0.296875 -0.421875 -0.40625 -1.140625q-0.09375 -0.515625 -0.09375 -2.0625l0 -4.828125l-1.34375 0l0 -2.328125l1.34375 0l0 -2.1875l2.9375 -1.71875l0 3.90625l2.0 0zm8.321182 7.125l-2.65625 0q-0.015625 -0.578125 -0.015625 -0.703125q0 -1.28125 0.421875 -2.109375q0.4375 -0.84375 1.71875 -1.875q1.28125 -1.046875 1.53125 -1.375q0.375 -0.515625 0.375 -1.125q0 -0.84375 -0.6875 -1.453125q-0.671875 -0.609375 -1.828125 -0.609375q-1.109375 0 -1.859375 0.640625q-0.75 0.625 -1.03125 1.921875l-2.6875 -0.328125q0.109375 -1.859375 1.578125 -3.15625q1.484375 -1.3125 3.875 -1.3125q2.515625 0 4.0 1.328125q1.5 1.3125 1.5 3.0625q0 0.953125 -0.546875 1.828125q-0.546875 0.859375 -2.34375 2.34375q-0.921875 0.78125 -1.15625 1.25q-0.21875 0.46875 -0.1875 1.671875zm-2.65625 3.9375l0 -2.921875l2.921875 0l0 2.921875l-2.921875 0z" fill-rule="nonzero"/><path fill="#f9cb9c" d="m127.46457 51.278214l35.319687 -25.055117l105.95906 0l35.31967 25.055117l-35.31967 25.055122l-105.95906 0z" fill-rule="evenodd"/><path stroke="#b45f06" stroke-width="2.0" stroke-linejoin="round" stroke-linecap="butt" d="m127.46457 51.278214l35.319687 -25.055117l105.95906 0l35.31967 25.055117l-35.31967 25.055122l-105.95906 0z" fill-rule="evenodd"/><path fill="#000000" d="m200.24944 50.96134l-2.875 0.53125q-0.15625 -0.875 -0.671875 -1.3125q-0.515625 -0.4375 -1.328125 -0.4375q-1.09375 0 -1.75 0.765625q-0.65625 0.75 -0.65625 2.515625q0 1.96875 0.65625 2.78125q0.671875 0.8125 1.78125 0.8125q0.84375 0 1.375 -0.46875q0.53125 -0.46875 0.75 -1.625l2.859375 0.484375q-0.4375 1.984375 -1.71875 3.0q-1.265625 1.0 -3.390625 1.0q-2.4375 0 -3.875 -1.53125q-1.4375 -1.53125 -1.4375 -4.234375q0 -2.75 1.4375 -4.265625q1.453125 -1.53125 3.921875 -1.53125q2.015625 0 3.203125 0.875q1.203125 0.859375 1.71875 2.640625zm0.83044434 -3.265625l3.125 0l2.640625 7.859375l2.578125 -7.859375l3.03125 0l-3.90625 10.640625l-0.6875 1.9375q-0.390625 0.96875 -0.75 1.46875q-0.34375 0.515625 -0.796875 0.828125q-0.453125 0.328125 -1.109375 0.5q-0.65625 0.171875 -1.5 0.171875q-0.84375 0 -1.65625 -0.171875l-0.25 -2.296875q0.6875 0.140625 1.234375 0.140625q1.015625 0 1.5 -0.609375q0.5 -0.59375 0.765625 -1.515625l-4.21875 -11.09375zm22.892944 3.265625l-2.875 0.53125q-0.15625 -0.875 -0.671875 -1.3125q-0.515625 -0.4375 -1.328125 -0.4375q-1.09375 0 -1.75 0.765625q-0.65625 0.75 -0.65625 2.515625q0 1.96875 0.65625 2.78125q0.671875 0.8125 1.78125 0.8125q0.84375 0 1.375 -0.46875q0.53125 -0.46875 0.75 -1.625l2.859375 0.484375q-0.4375 1.984375 -1.71875 3.0q-1.265625 1.0 -3.390625 1.0q-2.4375 0 -3.875 -1.53125q-1.4375 -1.53125 -1.4375 -4.234375q0 -2.75 1.4375 -4.265625q1.453125 -1.53125 3.921875 -1.53125q2.015625 0 3.203125 0.875q1.203125 0.859375 1.71875 2.640625zm2.2210693 7.796875l0 -15.265625l2.9218903 0l0 15.265625l-2.9218903 0zm12.331909 -3.515625l2.90625 0.484375q-0.546875 1.609375 -1.765625 2.453125q-1.21875 0.828125 -3.03125 0.828125q-2.890625 0 -4.28125 -1.890625q-1.09375 -1.5 -1.09375 -3.8125q0 -2.75 1.4375 -4.296875q1.4375 -1.5625 3.640625 -1.5625q2.46875 0 3.890625 1.640625q1.421875 1.625 1.359375 4.984375l-7.328125 0q0.03125 1.296875 0.703125 2.03125q0.6875 0.71875 1.703125 0.71875q0.6875 0 1.15625 -0.375q0.46875 -0.375 0.703125 -1.203125zm0.171875 -2.96875q-0.03125 -1.265625 -0.65625 -1.921875q-0.625 -0.671875 -1.53125 -0.671875q-0.953125 0 -1.578125 0.703125q-0.625 0.703125 -0.609375 1.890625l4.375 0z" fill-rule="nonzero"/><path fill="#b6d7a8" d="m332.79266 483.78027l5.358124 14.521118c-0.09750366 0.26385498 -0.168396 0.46401978 -0.21270752 0.6004944c-0.3368225 0.97354126 -0.5805969 1.5831299 -0.7312622 1.8287964c-0.20388794 0.32754517 -0.46536255 0.5823059 -0.78445435 0.7642517c-0.3190918 0.18197632 -0.74453735 0.27294922 -1.2763672 0.27294922c-0.39001465 0 -0.8464966 -0.072784424 -1.3694458 -0.21835327l0 0l0.26589966 2.3064575c0.56729126 0.2001648 1.0813904 0.30026245 1.5422974 0.30026245c0.76226807 0 1.4181824 -0.1895752 1.9677429 -0.56866455c0.54956055 -0.37606812 1.0370483 -0.96899414 1.4625244 -1.7787476c0.3190918 -0.6004944 0.76672363 -1.6968689 1.342865 -3.289093l5.371399 -14.739471l-2.3931885 0l-3.018097 8.4479065c-0.38116455 1.0736084 -0.70910645 2.17453 -0.9838867 3.3027344c-0.30136108 -1.173706 -0.64260864 -2.2928162 -1.0237732 -3.3573303l-2.938324 -8.393311z" fill-rule="evenodd"/><path fill="#b6d7a8" d="m353.587 485.4726c1.214325 0 2.2026367 0.473114 2.9649048 1.4193726c0.4963684 0.6095886 0.7977295 1.5239868 0.90411377 2.743164l-7.884308 0c0.07977295 -1.264679 0.4934082 -2.2745972 1.2409363 -3.0297852c0.75045776 -0.7551575 1.6752319 -1.1327515 2.774353 -1.1327515zm-0.026611328 -2.0198364c-1.9500122 0 -3.536621 0.6732788 -4.7598267 2.0198364c-1.223175 1.3465576 -1.8347778 3.2390442 -1.8347778 5.677429c0 2.3565063 0.6042175 4.188324 1.8126221 5.495453c1.2113953 1.3041077 2.849701 1.9561768 4.9149475 1.9561768c1.639801 0 2.987091 -0.40945435 4.04187 -1.228302c1.054779 -0.81884766 1.7771606 -1.9698181 2.1671753 -3.4528503l-2.472992 -0.3139038c-0.36340332 1.0372314 -0.8553467 1.7923889 -1.4757996 2.265503c-0.6204529 0.473114 -1.3694458 0.7096863 -2.2469482 0.7096863c-1.178894 0 -2.1627502 -0.4230652 -2.9516296 -1.2692261c-0.7888794 -0.8461609 -1.2276306 -2.0653381 -1.3162842 -3.6575623l10.530121 0c0.008880615 -0.2911682 0.013305664 -0.5095215 0.013305664 -0.65509033c0 -2.3929138 -0.5982971 -4.248993 -1.7948914 -5.568268c-1.1966248 -1.3192444 -2.738922 -1.9788818 -4.626892 -1.9788818z" fill-rule="evenodd"/><path fill="#b6d7a8" d="m367.5474 483.45276c-0.7357178 0 -1.4255981 0.09854126 -2.0697021 0.2956848c-0.6411438 0.1940918 -1.1478577 0.43218994 -1.5201111 0.7142334c-0.49639893 0.36392212 -0.88934326 0.8218994 -1.178894 1.3738708c-0.28659058 0.5489197 -0.42990112 1.1463928 -0.42990112 1.7923889c0 0.70965576 0.17434692 1.3587036 0.52297974 1.947052c0.35159302 0.58532715 0.86569214 1.0447998 1.5422974 1.378418c0.6795349 0.3305664 1.8968201 0.72332764 3.6518555 1.1782532c1.302948 0.3366394 2.1184082 0.61413574 2.4463806 0.832489c0.4697876 0.31845093 0.7046814 0.755188 0.7046814 1.3101807c0 0.61868286 -0.26593018 1.1585388 -0.79776 1.6195374c-0.53182983 0.45794678 -1.34729 0.68692017 -2.4463806 0.68692017c-1.0902405 0 -1.9396973 -0.25930786 -2.5483398 -0.7779236c-0.6056824 -0.5186157 -0.9750061 -1.264679 -1.1079407 -2.2382202l-2.3666382 0.3821411c0.26593018 1.5376282 0.8789978 2.6976929 1.8392334 3.4801636c0.9631958 0.7824707 2.3621826 1.173706 4.196991 1.173706c1.1079712 0 2.100708 -0.19714355 2.9782104 -0.59140015c0.87750244 -0.39730835 1.5481873 -0.95687866 2.0120544 -1.6786804c0.4668274 -0.724823 0.70025635 -1.4966736 0.70025635 -2.3155518c0 -0.83703613 -0.19058228 -1.5376282 -0.5717163 -2.1017456c-0.38113403 -0.5640869 -0.907074 -0.9932251 -1.5777588 -1.2874146c-0.6677246 -0.2972107 -1.8480835 -0.6778259 -3.5410461 -1.1418457c-1.1700134 -0.32754517 -1.8746948 -0.5368042 -2.1140137 -0.6278076c-0.41659546 -0.17285156 -0.7223816 -0.39123535 -0.9173889 -0.65509033c-0.19500732 -0.25476074 -0.292511 -0.5413513 -0.292511 -0.85980225c0 -0.5003967 0.2348938 -0.9371338 0.7046814 -1.3101501c0.46975708 -0.37304688 1.2542114 -0.5595703 2.353302 -0.5595703c0.9306946 0 1.6501465 0.20925903 2.1583252 0.6278076c0.5111389 0.41851807 0.81988525 1.000824 0.92626953 1.7468872l2.3400269 -0.32754517c-0.1506958 -0.9371338 -0.42547607 -1.6847229 -0.8243408 -2.2427673c-0.39886475 -0.5610657 -1.0178528 -1.0053711 -1.8569336 -1.3329163c-0.8361511 -0.32754517 -1.8082275 -0.4913025 -2.9161682 -0.4913025z" fill-rule="evenodd"/><path fill="#f1c232" d="m186.24672 373.13647l97.61134 0c2.805359 0 5.495819 1.1144409 7.4795227 3.098114c1.9836731 1.9837036 3.098114 4.674164 3.098114 7.4795227l0 52.886932l-108.18898 0z" fill-rule="evenodd"/><path stroke="#e06666" stroke-width="2.0" stroke-linejoin="round" stroke-linecap="butt" stroke-dasharray="8.0,6.0" d="m186.24672 373.13647l97.61134 0c2.805359 0 5.495819 1.1144409 7.4795227 3.098114c1.9836731 1.9837036 3.098114 4.674164 3.098114 7.4795227l0 52.886932l-108.18898 0z" fill-rule="evenodd"/><path fill="#000000" d="m205.77257 396.445l2.625 -0.25q0.234375 1.3125 0.953125 1.9375q0.734375 0.609375 1.96875 0.609375q1.296875 0 1.953125 -0.546875q0.671875 -0.546875 0.671875 -1.28125q0 -0.484375 -0.28125 -0.8125q-0.28125 -0.328125 -0.96875 -0.578125q-0.484375 -0.15625 -2.171875 -0.578125q-2.15625 -0.546875 -3.03125 -1.328125q-1.234375 -1.09375 -1.234375 -2.6875q0 -1.015625 0.578125 -1.90625q0.578125 -0.890625 1.65625 -1.34375q1.09375 -0.46875 2.640625 -0.46875q2.515625 0 3.78125 1.109375q1.28125 1.09375 1.34375 2.9375l-2.703125 0.109375q-0.171875 -1.03125 -0.75 -1.46875q-0.5625 -0.453125 -1.703125 -0.453125q-1.171875 0 -1.84375 0.46875q-0.421875 0.3125 -0.421875 0.84375q0 0.46875 0.40625 0.796875q0.5 0.4375 2.46875 0.90625q1.96875 0.453125 2.90625 0.953125q0.953125 0.5 1.484375 1.359375q0.53125 0.859375 0.53125 2.125q0 1.15625 -0.640625 2.15625q-0.640625 1.0 -1.8125 1.484375q-1.15625 0.484375 -2.890625 0.484375q-2.53125 0 -3.890625 -1.171875q-1.359375 -1.171875 -1.625 -3.40625zm18.709198 1.265625l2.546875 0.421875q-0.484375 1.40625 -1.546875 2.140625q-1.0625 0.734375 -2.65625 0.734375q-2.515625 0 -3.734375 -1.65625q-0.953125 -1.3125 -0.953125 -3.328125q0 -2.40625 1.25 -3.765625q1.265625 -1.359375 3.1875 -1.359375q2.15625 0 3.40625 1.421875q1.25 1.421875 1.1875 4.375l-6.40625 0q0.03125 1.140625 0.609375 1.78125q0.59375 0.625 1.484375 0.625q0.59375 0 1.0 -0.328125q0.421875 -0.328125 0.625 -1.0625zm0.15625 -2.59375q-0.03125 -1.109375 -0.578125 -1.6875q-0.546875 -0.578125 -1.328125 -0.578125q-0.84375 0 -1.390625 0.609375q-0.546875 0.609375 -0.53125 1.65625l3.828125 0zm13.063217 -1.140625l-2.53125 0.453125q-0.125 -0.75 -0.578125 -1.125q-0.453125 -0.390625 -1.171875 -0.390625q-0.953125 0 -1.53125 0.65625q-0.5625 0.65625 -0.5625 2.203125q0 1.734375 0.578125 2.4375q0.578125 0.703125 1.546875 0.703125q0.734375 0 1.203125 -0.40625q0.46875 -0.421875 0.65625 -1.421875l2.515625 0.421875q-0.390625 1.734375 -1.515625 2.625q-1.109375 0.875 -2.96875 0.875q-2.125 0 -3.390625 -1.328125q-1.25 -1.34375 -1.25 -3.71875q0 -2.390625 1.265625 -3.71875q1.265625 -1.34375 3.421875 -1.34375q1.765625 0 2.796875 0.765625q1.046875 0.75 1.515625 2.3125zm1.3444672 1.84375q0 -1.28125 0.625 -2.46875q0.625 -1.203125 1.78125 -1.828125q1.15625 -0.625 2.578125 -0.625q2.1875 0 3.59375 1.421875q1.40625 1.421875 1.40625 3.609375q0 2.1875 -1.421875 3.640625q-1.421875 1.4375 -3.5625 1.4375q-1.328125 0 -2.546875 -0.59375q-1.203125 -0.609375 -1.828125 -1.765625q-0.625 -1.171875 -0.625 -2.828125zm2.625 0.125q0 1.453125 0.671875 2.21875q0.6875 0.75 1.6875 0.75q1.0 0 1.671875 -0.75q0.6875 -0.765625 0.6875 -2.234375q0 -1.421875 -0.6875 -2.1875q-0.671875 -0.765625 -1.671875 -0.765625q-1.0 0 -1.6875 0.765625q-0.671875 0.765625 -0.671875 2.203125zm18.161606 4.84375l-2.5625 0l0 -4.9375q0 -1.5625 -0.171875 -2.015625q-0.15625 -0.46875 -0.53125 -0.71875q-0.359375 -0.265625 -0.875 -0.265625q-0.671875 0 -1.203125 0.375q-0.53125 0.359375 -0.734375 0.96875q-0.1875 0.59375 -0.1875 2.21875l0 4.375l-2.546875 0l0 -9.671875l2.375 0l0 1.421875q1.265625 -1.640625 3.1875 -1.640625q0.84375 0 1.546875 0.3125q0.703125 0.296875 1.0625 0.78125q0.359375 0.46875 0.5 1.078125q0.140625 0.59375 0.140625 1.703125l0 6.015625zm11.474091 0l-2.390625 0l0 -1.421875q-0.59375 0.828125 -1.40625 1.234375q-0.796875 0.40625 -1.609375 0.40625q-1.671875 0 -2.859375 -1.34375q-1.1875 -1.34375 -1.1875 -3.75q0 -2.453125 1.15625 -3.734375q1.15625 -1.28125 2.921875 -1.28125q1.625 0 2.8125 1.34375l0 -4.8125l2.5625 0l0 13.359375zm-6.84375 -5.046875q0 1.546875 0.4375 2.234375q0.609375 1.015625 1.71875 1.015625q0.890625 0 1.5 -0.75q0.625 -0.765625 0.625 -2.25q0 -1.671875 -0.609375 -2.40625q-0.59375 -0.734375 -1.53125 -0.734375q-0.90625 0 -1.53125 0.734375q-0.609375 0.71875 -0.609375 2.15625z" fill-rule="nonzero"/><path fill="#000000" d="m214.74971 409.42938l5.34375 0q1.59375 0 2.359375 0.140625q0.78125 0.125 1.390625 0.546875q0.625 0.421875 1.03125 1.125q0.40625 0.6875 0.40625 1.546875q0 0.9375 -0.5 1.734375q-0.5 0.78125 -1.375 1.171875q1.21875 0.359375 1.875 1.21875q0.65625 0.84375 0.65625 2.0q0 0.921875 -0.421875 1.78125q-0.421875 0.859375 -1.15625 1.375q-0.734375 0.515625 -1.796875 0.625q-0.6875 0.078125 -3.265625 0.09375l-4.546875 0l0 -13.359375zm2.703125 2.234375l0 3.078125l1.765625 0q1.578125 0 1.953125 -0.046875q0.703125 -0.078125 1.09375 -0.46875q0.40625 -0.40625 0.40625 -1.046875q0 -0.625 -0.34375 -1.0q-0.34375 -0.390625 -1.015625 -0.484375q-0.40625 -0.03125 -2.3125 -0.03125l-1.546875 0zm0 5.296875l0 3.578125l2.5 0q1.453125 0 1.84375 -0.078125q0.609375 -0.109375 0.984375 -0.53125q0.375 -0.421875 0.375 -1.140625q0 -0.59375 -0.296875 -1.015625q-0.28125 -0.421875 -0.84375 -0.609375q-0.546875 -0.203125 -2.390625 -0.203125l-2.171875 0zm10.754196 5.828125l0 -13.359375l2.5625 0l0 13.359375l-2.5625 0zm4.589554 -4.96875q0 -1.28125 0.625 -2.46875q0.625 -1.203125 1.78125 -1.828125q1.15625 -0.625 2.578125 -0.625q2.1875 0 3.59375 1.421875q1.40625 1.421875 1.40625 3.609375q0 2.1875 -1.421875 3.640625q-1.421875 1.4375 -3.5625 1.4375q-1.328125 0 -2.546875 -0.59375q-1.203125 -0.609375 -1.828125 -1.765625q-0.625 -1.171875 -0.625 -2.828125zm2.625 0.125q0 1.453125 0.671875 2.21875q0.6875 0.75 1.6875 0.75q1.0 0 1.671875 -0.75q0.6875 -0.765625 0.6875 -2.234375q0 -1.421875 -0.6875 -2.1875q-0.671875 -0.765625 -1.671875 -0.765625q-1.0 0 -1.6875 0.765625q-0.671875 0.765625 -0.671875 2.203125zm17.80223 -1.96875l-2.53125 0.453125q-0.125 -0.75 -0.578125 -1.125q-0.453125 -0.390625 -1.171875 -0.390625q-0.953125 0 -1.53125 0.65625q-0.5625 0.65625 -0.5625 2.203125q0 1.734375 0.578125 2.4375q0.578125 0.703125 1.546875 0.703125q0.734375 0 1.203125 -0.40625q0.46875 -0.421875 0.65625 -1.421875l2.515625 0.421875q-0.390625 1.734375 -1.515625 2.625q-1.109375 0.875 -2.96875 0.875q-2.125 0 -3.390625 -1.328125q-1.25 -1.34375 -1.25 -3.71875q0 -2.390625 1.265625 -3.71875q1.265625 -1.34375 3.421875 -1.34375q1.765625 0 2.796875 0.765625q1.046875 0.75 1.515625 2.3125zm1.8444672 6.8125l0 -13.359375l2.5624847 0l0 7.09375l3.0 -3.40625l3.140625 0l-3.296875 3.53125l3.53125 6.140625l-2.75 0l-2.4375 -4.34375l-1.1875 1.25l0 3.09375l-2.5624847 0z" fill-rule="nonzero"/><path fill="#f1c232" d="m402.3689 271.46783l166.02075 0c2.805359 0 5.4958496 1.1144409 7.479553 3.0981445c1.9837036 1.9836731 3.0980835 4.6741333 3.0980835 7.4795227l0 52.8869l-176.59839 0z" fill-rule="evenodd"/><path stroke="#b45f06" stroke-width="2.0" stroke-linejoin="round" stroke-linecap="butt" d="m402.3689 271.46783l166.02075 0c2.805359 0 5.4958496 1.1144409 7.479553 3.0981445c1.9837036 1.9836731 3.0980835 4.6741333 3.0980835 7.4795227l0 52.8869l-176.59839 0z" fill-rule="evenodd"/><path fill="#000000" d="m451.4404 299.12012l-2.5625 0l0 -9.671875l2.375 0l0 1.375q0.609375 -0.984375 1.09375 -1.28125q0.484375 -0.3125 1.109375 -0.3125q0.875 0 1.6875 0.484375l-0.796875 2.234375q-0.640625 -0.421875 -1.203125 -0.421875q-0.53125 0 -0.90625 0.296875q-0.375 0.296875 -0.59375 1.078125q-0.203125 0.765625 -0.203125 3.234375l0 2.984375zm10.400879 -3.078125l2.546875 0.421875q-0.484375 1.40625 -1.546875 2.140625q-1.0625 0.734375 -2.65625 0.734375q-2.515625 0 -3.734375 -1.65625q-0.953125 -1.3125 -0.953125 -3.328125q0 -2.40625 1.25 -3.765625q1.265625 -1.359375 3.1875 -1.359375q2.15625 0 3.40625 1.421875q1.25 1.421875 1.1875 4.375l-6.40625 0q0.03125 1.140625 0.609375 1.78125q0.59375 0.625 1.484375 0.625q0.59375 0 1.0 -0.328125q0.421875 -0.328125 0.625 -1.0625zm0.15625 -2.59375q-0.03125 -1.109375 -0.578125 -1.6875q-0.546875 -0.578125 -1.328125 -0.578125q-0.84375 0 -1.390625 0.609375q-0.546875 0.609375 -0.53125 1.65625l3.828125 0zm4.5476074 -4.0l2.390625 0l0 1.421875q0.46875 -0.734375 1.25 -1.1875q0.796875 -0.453125 1.765625 -0.453125q1.6875 0 2.859375 1.328125q1.171875 1.3125 1.171875 3.671875q0 2.421875 -1.1875 3.765625q-1.1875 1.34375 -2.859375 1.34375q-0.8125 0 -1.46875 -0.3125q-0.640625 -0.328125 -1.359375 -1.09375l0 4.875l-2.5625 0l0 -13.359375zm2.53125 4.671875q0 1.625 0.640625 2.40625q0.65625 0.78125 1.578125 0.78125q0.90625 0 1.484375 -0.71875q0.59375 -0.71875 0.59375 -2.34375q0 -1.515625 -0.609375 -2.25q-0.609375 -0.75 -1.515625 -0.75q-0.9375 0 -1.5625 0.734375q-0.609375 0.71875 -0.609375 2.140625zm14.536591 1.921875l2.546875 0.421875q-0.484375 1.40625 -1.546875 2.140625q-1.0625 0.734375 -2.65625 0.734375q-2.515625 0 -3.734375 -1.65625q-0.953125 -1.3125 -0.953125 -3.328125q0 -2.40625 1.25 -3.765625q1.265625 -1.359375 3.1875 -1.359375q2.15625 0 3.40625 1.421875q1.25 1.421875 1.1875 4.375l-6.40625 0q0.03125 1.140625 0.609375 1.78125q0.59375 0.625 1.484375 0.625q0.59375 0 1.0 -0.328125q0.421875 -0.328125 0.625 -1.0625zm0.15625 -2.59375q-0.03125 -1.109375 -0.578125 -1.6875q-0.546875 -0.578125 -1.328125 -0.578125q-0.84375 0 -1.390625 0.609375q-0.546875 0.609375 -0.53125 1.65625l3.828125 0zm9.063232 -4.0l0 2.03125l-1.75 0l0 3.90625q0 1.1875 0.046875 1.390625q0.046875 0.1875 0.21875 0.3125q0.1875 0.125 0.4375 0.125q0.359375 0 1.03125 -0.25l0.21875 2.0q-0.890625 0.375 -2.015625 0.375q-0.703125 0 -1.265625 -0.234375q-0.546875 -0.234375 -0.8125 -0.59375q-0.25 -0.375 -0.34375 -1.0q-0.09375 -0.453125 -0.09375 -1.8125l0 -4.21875l-1.171875 0l0 -2.03125l1.171875 0l0 -1.921875l2.578125 -1.5l0 3.421875l1.75 0zm1.775177 -1.3125l0 -2.375l2.5625 0l0 2.375l-2.5625 0zm0 10.984375l0 -9.671875l2.5625 0l0 9.671875l-2.5625 0zm9.620789 -9.671875l0 2.03125l-1.75 0l0 3.90625q0 1.1875 0.046875 1.390625q0.046875 0.1875 0.21875 0.3125q0.1875 0.125 0.4375 0.125q0.359375 0 1.03125 -0.25l0.21875 2.0q-0.890625 0.375 -2.015625 0.375q-0.703125 0 -1.265625 -0.234375q-0.546875 -0.234375 -0.8125 -0.59375q-0.25 -0.375 -0.34375 -1.0q-0.09375 -0.453125 -0.09375 -1.8125l0 -4.21875l-1.171875 0l0 -2.03125l1.171875 0l0 -1.921875l2.578125 -1.5l0 3.421875l1.75 0zm1.775177 -1.3125l0 -2.375l2.5625 0l0 2.375l-2.5625 0zm0 10.984375l0 -9.671875l2.5625 0l0 9.671875l-2.5625 0zm7.8395386 0l-3.9062195 -9.671875l2.6874695 0l1.828125 4.9375l0.53125 1.640625q0.203125 -0.625 0.265625 -0.828125q0.125 -0.40625 0.265625 -0.8125l1.84375 -4.9375l2.625 0l-3.84375 9.671875l-2.296875 0zm13.313232 -3.078125l2.546875 0.421875q-0.484375 1.40625 -1.546875 2.140625q-1.0625 0.734375 -2.65625 0.734375q-2.515625 0 -3.734375 -1.65625q-0.953125 -1.3125 -0.953125 -3.328125q0 -2.40625 1.25 -3.765625q1.265625 -1.359375 3.1875 -1.359375q2.15625 0 3.40625 1.421875q1.25 1.421875 1.1875 4.375l-6.40625 0q0.03125 1.140625 0.609375 1.78125q0.59375 0.625 1.484375 0.625q0.59375 0 1.0 -0.328125q0.421875 -0.328125 0.625 -1.0625zm0.15625 -2.59375q-0.03125 -1.109375 -0.578125 -1.6875q-0.546875 -0.578125 -1.328125 -0.578125q-0.84375 0 -1.390625 0.609375q-0.546875 0.609375 -0.53125 1.65625l3.828125 0z" fill-rule="nonzero"/><path fill="#000000" d="m465.99008 321.12012l0 -13.359375l2.5625 0l0 4.8125q1.171875 -1.34375 2.796875 -1.34375q1.765625 0 2.921875 1.28125q1.15625 1.28125 1.15625 3.671875q0 2.484375 -1.1875 3.828125q-1.171875 1.328125 -2.859375 1.328125q-0.828125 0 -1.640625 -0.40625q-0.796875 -0.421875 -1.375 -1.234375l0 1.421875l-2.375 0zm2.53125 -5.046875q0 1.5 0.484375 2.21875q0.65625 1.03125 1.765625 1.03125q0.84375 0 1.4375 -0.71875q0.59375 -0.734375 0.59375 -2.296875q0 -1.65625 -0.609375 -2.390625q-0.59375 -0.734375 -1.53125 -0.734375q-0.921875 0 -1.53125 0.71875q-0.609375 0.71875 -0.609375 2.171875zm8.974091 5.046875l0 -13.359375l2.5625 0l0 13.359375l-2.5625 0zm4.589569 -4.96875q0 -1.28125 0.625 -2.46875q0.625 -1.203125 1.78125 -1.828125q1.15625 -0.625 2.578125 -0.625q2.1875 0 3.59375 1.421875q1.40625 1.421875 1.40625 3.609375q0 2.1875 -1.421875 3.640625q-1.421875 1.4375 -3.5625 1.4375q-1.328125 0 -2.546875 -0.59375q-1.203125 -0.609375 -1.828125 -1.765625q-0.625 -1.171875 -0.625 -2.828125zm2.625 0.125q0 1.453125 0.671875 2.21875q0.6875 0.75 1.6875 0.75q1.0 0 1.671875 -0.75q0.6875 -0.765625 0.6875 -2.234375q0 -1.421875 -0.6875 -2.1875q-0.671875 -0.765625 -1.671875 -0.765625q-1.0 0 -1.6875 0.765625q-0.671875 0.765625 -0.671875 2.203125zm17.802216 -1.96875l-2.53125 0.453125q-0.125 -0.75 -0.578125 -1.125q-0.453125 -0.390625 -1.171875 -0.390625q-0.953125 0 -1.53125 0.65625q-0.5625 0.65625 -0.5625 2.203125q0 1.734375 0.578125 2.4375q0.578125 0.703125 1.546875 0.703125q0.734375 0 1.203125 -0.40625q0.46875 -0.421875 0.65625 -1.421875l2.515625 0.421875q-0.390625 1.734375 -1.515625 2.625q-1.109375 0.875 -2.96875 0.875q-2.125 0 -3.390625 -1.328125q-1.25 -1.34375 -1.25 -3.71875q0 -2.390625 1.265625 -3.71875q1.265625 -1.34375 3.421875 -1.34375q1.765625 0 2.796875 0.765625q1.046875 0.75 1.515625 2.3125zm1.8444824 6.8125l0 -13.359375l2.5625 0l0 7.09375l3.0 -3.40625l3.140625 0l-3.296875 3.53125l3.53125 6.140625l-2.75 0l-2.4375 -4.34375l-1.1875 1.25l0 3.09375l-2.5625 0z" fill-rule="nonzero"/><path fill="#000000" fill-opacity="0.0" d="m65.94882 284.25525l0 -123.52756l319.68503 0" fill-rule="evenodd"/><path stroke="#00ff00" stroke-width="2.0" stroke-linejoin="round" stroke-linecap="butt" stroke-dasharray="8.0,6.0" d="m65.94882 284.25525l0 -123.52756l307.68503 0" fill-rule="evenodd"/><path fill="#00ff00" stroke="#00ff00" stroke-width="2.0" stroke-linecap="butt" d="m373.63385 164.03116l9.076202 -3.3034668l-9.076202 -3.3034668z" fill-rule="evenodd"/><path fill="#000000" fill-opacity="0.0" d="m490.66928 186.78871l0 42.33969l0.06298828 0l0 42.353226" fill-rule="evenodd"/><path stroke="#00ff00" stroke-width="2.0" stroke-linejoin="round" stroke-linecap="butt" d="m490.66928 186.78871l0 42.33969l0.06298828 0l0 30.353226" fill-rule="evenodd"/><path fill="#00ff00" stroke="#00ff00" stroke-width="2.0" stroke-linecap="butt" d="m487.42883 259.48163l3.3034363 9.076202l3.3034668 -9.076202z" fill-rule="evenodd"/><path fill="#000000" fill-opacity="0.0" d="m240.3412 336.208l0 18.46408l0.06300354 0l0 18.44931" fill-rule="evenodd"/><path stroke="#00ff00" stroke-width="2.0" stroke-linejoin="round" stroke-linecap="butt" stroke-dasharray="8.0,6.0" d="m240.3412 336.208l0 18.46408l0.06300354 0l0 6.4493103" fill-rule="evenodd"/><path fill="#00ff00" stroke="#00ff00" stroke-width="2.0" stroke-linecap="butt" d="m237.10074 361.1214l3.3034668 9.076202l3.3034515 -9.076202z" fill-rule="evenodd"/><path fill="#000000" fill-opacity="0.0" d="m402.3689 303.20013l-41.762115 0l0 0.06298828l-41.76544 0" fill-rule="evenodd"/><path stroke="#00ff00" stroke-width="2.0" stroke-linejoin="round" stroke-linecap="butt" stroke-dasharray="8.0,6.0" d="m402.3689 303.20013l-41.762115 0l0 0.06298828l-29.765442 0" fill-rule="evenodd"/><path fill="#00ff00" stroke="#00ff00" stroke-width="2.0" stroke-linecap="butt" d="m330.84134 299.95966l-9.076202 3.3034668l9.076202 3.3034668z" fill-rule="evenodd"/><path fill="#f1c232" d="m11.855621 483.45013l97.611336 0c2.8053665 0 5.4958267 1.1144104 7.4795227 3.098114c1.9836884 1.9837036 3.0981216 4.674164 3.0981216 7.4795227l0 52.8869l-108.18898 0z" fill-rule="evenodd"/><path stroke="#e06666" stroke-width="2.0" stroke-linejoin="round" stroke-linecap="butt" stroke-dasharray="8.0,6.0" d="m11.855621 483.45013l97.611336 0c2.8053665 0 5.4958267 1.1144104 7.4795227 3.098114c1.9836884 1.9837036 3.0981216 4.674164 3.0981216 7.4795227l0 52.8869l-108.18898 0z" fill-rule="evenodd"/><path fill="#000000" d="m45.444683 511.10242l0 -11.09375l-3.953125 0l0 -2.265625l10.609375 0l0 2.265625l-3.953125 0l0 11.09375l-2.703125 0zm10.927231 -13.359375l0 4.921875q1.234375 -1.453125 2.953125 -1.453125q0.890625 0 1.59375 0.328125q0.71875 0.328125 1.078125 0.84375q0.359375 0.5 0.484375 1.125q0.140625 0.609375 0.140625 1.921875l0 5.671875l-2.5625 0l0 -5.109375q0 -1.515625 -0.15625 -1.921875q-0.140625 -0.421875 -0.515625 -0.65625q-0.359375 -0.25 -0.90625 -0.25q-0.640625 0 -1.140625 0.3125q-0.5 0.3125 -0.734375 0.9375q-0.234375 0.625 -0.234375 1.84375l0 4.84375l-2.5625 0l0 -13.359375l2.5625 0zm8.84911 2.375l0 -2.375l2.5625 0l0 2.375l-2.5625 0zm0 10.984375l0 -9.671875l2.5625 0l0 9.671875l-2.5625 0zm7.636429 0l-2.5625 0l0 -9.671875l2.375 0l0 1.375q0.609375 -0.984375 1.09375 -1.28125q0.484375 -0.3125 1.109375 -0.3125q0.875 0 1.6875 0.484375l-0.796875 2.234375q-0.640625 -0.421875 -1.203125 -0.421875q-0.53125 0 -0.90625 0.296875q-0.375 0.296875 -0.59375 1.078125q-0.203125 0.765625 -0.203125 3.234375l0 2.984375zm13.682144 0l-2.390625 0l0 -1.421875q-0.59375 0.828125 -1.40625 1.234375q-0.796875 0.40625 -1.609375 0.40625q-1.671875 0 -2.859375 -1.34375q-1.1875 -1.34375 -1.1875 -3.75q0 -2.453125 1.15625 -3.734375q1.15625 -1.28125 2.921875 -1.28125q1.625 0 2.8125 1.34375l0 -4.8125l2.5625 0l0 13.359375zm-6.84375 -5.046875q0 1.546875 0.4375 2.234375q0.609375 1.015625 1.71875 1.015625q0.890625 0 1.5 -0.75q0.625 -0.765625 0.625 -2.25q0 -1.671875 -0.609375 -2.40625q-0.59375 -0.734375 -1.53125 -0.734375q-0.90625 0 -1.53125 0.734375q-0.609375 0.71875 -0.609375 2.15625z" fill-rule="nonzero"/><path fill="#000000" d="m40.35861 519.74304l5.34375 0q1.59375 0 2.359375 0.140625q0.78125 0.125 1.390625 0.546875q0.625 0.421875 1.03125 1.125q0.40625 0.6875 0.40625 1.546875q0 0.9375 -0.5 1.734375q-0.5 0.78125 -1.375 1.171875q1.21875 0.359375 1.875 1.21875q0.65625 0.84375 0.65625 2.0q0 0.921875 -0.421875 1.78125q-0.421875 0.859375 -1.15625 1.375q-0.734375 0.515625 -1.796875 0.625q-0.6875 0.078125 -3.265625 0.09375l-4.546875 0l0 -13.359375zm2.703125 2.234375l0 3.078125l1.765625 0q1.578125 0 1.953125 -0.046875q0.703125 -0.078125 1.09375 -0.46875q0.40625 -0.40625 0.40625 -1.046875q0 -0.625 -0.34375 -1.0q-0.34375 -0.390625 -1.015625 -0.484375q-0.40625 -0.03125 -2.3125 -0.03125l-1.546875 0zm0 5.296875l0 3.578125l2.5 0q1.453125 0 1.84375 -0.078125q0.609375 -0.109375 0.984375 -0.53125q0.375 -0.421875 0.375 -1.140625q0 -0.59375 -0.296875 -1.015625q-0.28125 -0.421875 -0.84375 -0.609375q-0.546875 -0.203125 -2.390625 -0.203125l-2.171875 0zm10.754196 5.828125l0 -13.359375l2.5625 0l0 13.359375l-2.5625 0zm4.589554 -4.96875q0 -1.28125 0.625 -2.46875q0.625 -1.203125 1.78125 -1.828125q1.15625 -0.625 2.578125 -0.625q2.1875038 0 3.5937538 1.421875q1.40625 1.421875 1.40625 3.609375q0 2.1875 -1.421875 3.640625q-1.421875 1.4375 -3.5625038 1.4375q-1.328125 0 -2.546875 -0.59375q-1.203125 -0.609375 -1.828125 -1.765625q-0.625 -1.171875 -0.625 -2.828125zm2.625 0.125q0 1.453125 0.671875 2.21875q0.6875 0.75 1.6875 0.75q1.0000038 0 1.6718788 -0.75q0.6875 -0.765625 0.6875 -2.234375q0 -1.421875 -0.6875 -2.1875q-0.671875 -0.765625 -1.6718788 -0.765625q-1.0 0 -1.6875 0.765625q-0.671875 0.765625 -0.671875 2.203125zm17.802235 -1.96875l-2.53125 0.453125q-0.125 -0.75 -0.578125 -1.125q-0.453125 -0.390625 -1.171875 -0.390625q-0.953125 0 -1.53125 0.65625q-0.5625 0.65625 -0.5625 2.203125q0 1.734375 0.578125 2.4375q0.578125 0.703125 1.546875 0.703125q0.734375 0 1.203125 -0.40625q0.46875 -0.421875 0.65625 -1.421875l2.515625 0.421875q-0.390625 1.734375 -1.515625 2.625q-1.109375 0.875 -2.96875 0.875q-2.125 0 -3.390625 -1.328125q-1.25 -1.34375 -1.25 -3.71875q0 -2.390625 1.265625 -3.71875q1.265625 -1.34375 3.421875 -1.34375q1.765625 0 2.796875 0.765625q1.046875 0.75 1.515625 2.3125zm1.8444672 6.8125l0 -13.359375l2.5625 0l0 7.09375l3.0 -3.40625l3.140625 0l-3.296875 3.53125l3.53125 6.140625l-2.75 0l-2.4375 -4.34375l-1.1875 1.25l0 3.09375l-2.5625 0z" fill-rule="nonzero"/><path fill="#000000" fill-opacity="0.0" d="m65.95011 483.45013l0 -80.65213l0.06298828 0l0 -80.63922" fill-rule="evenodd"/><path stroke="#00ff00" stroke-width="2.0" stroke-linejoin="round" stroke-linecap="butt" stroke-dasharray="8.0,6.0" d="m65.95011 483.45013l0 -80.6521l0.06298828 0l0 -68.63925" fill-rule="evenodd"/><path fill="#00ff00" stroke="#00ff00" stroke-width="2.0" stroke-linecap="butt" d="m69.31657 334.15878l-3.3034668 -9.076172l-3.303463 9.076172z" fill-rule="evenodd"/><path fill="#000000" fill-opacity="0.0" d="m158.07349 515.18243l-19.014328 0l0 0.06298828l-19.00142 0" fill-rule="evenodd"/><path stroke="#00ff00" stroke-width="2.0" stroke-linejoin="round" stroke-linecap="butt" stroke-dasharray="8.0,6.0" d="m158.07349 515.18243l-19.014328 0l0 0.06298828l-7.001419 0" fill-rule="evenodd"/><path fill="#00ff00" stroke="#00ff00" stroke-width="2.0" stroke-linecap="butt" d="m132.05774 511.94196l-9.076195 3.3034668l9.076195 3.3034668z" fill-rule="evenodd"/><path fill="#000000" fill-opacity="0.0" d="m304.063 51.278214l49.16928 0l0 0.062992096l49.161438 0" fill-rule="evenodd"/><path stroke="#00ff00" stroke-width="2.0" stroke-linejoin="round" stroke-linecap="butt" d="m304.063 51.278214l49.16928 0l0 0.062992096l37.161438 0" fill-rule="evenodd"/><path fill="#00ff00" stroke="#00ff00" stroke-width="2.0" stroke-linecap="butt" d="m390.3937 54.644672l9.076202 -3.3034668l-9.076202 -3.303463z" fill-rule="evenodd"/><path fill="#000000" fill-opacity="0.0" d="m240.3412 436.60104l0 22.786957l0.06300354 0l0 22.787842" fill-rule="evenodd"/><path stroke="#00ff00" stroke-width="2.0" stroke-linejoin="round" stroke-linecap="butt" stroke-dasharray="8.0,6.0" d="m240.3412 436.60104l0 22.786957l0.06300354 0l0 10.787842" fill-rule="evenodd"/><path fill="#00ff00" stroke="#00ff00" stroke-width="2.0" stroke-linecap="butt" d="m237.10074 470.17584l3.3034668 9.076202l3.3034515 -9.076202z" fill-rule="evenodd"/><path fill="#f1c232" d="m385.6391 160.74147l42.012085 -26.047241l126.036194 0l42.012085 26.047241l-42.012085 26.047241l-126.036194 0z" fill-rule="evenodd"/><path stroke="#b45f06" stroke-width="2.0" stroke-linejoin="round" stroke-linecap="butt" d="m385.6391 160.74147l42.012085 -26.047241l126.036194 0l42.012085 26.047241l-42.012085 26.047241l-126.036194 0z" fill-rule="evenodd"/><path fill="#000000" d="m448.86182 157.15897l1.625 0l0 -0.828125q0 -1.390625 0.296875 -2.078125q0.296875 -0.6875 1.09375 -1.125q0.796875 -0.4375 2.015625 -0.4375q1.25 0 2.453125 0.375l-0.40625 2.046875q-0.6875 -0.171875 -1.34375 -0.171875q-0.625 0 -0.90625 0.296875q-0.28125 0.296875 -0.28125 1.140625l0 0.78125l2.1875 0l0 2.296875l-2.1875 0l0 8.765625l-2.921875 0l0 -8.765625l-1.625 0l0 -2.296875zm7.7118225 5.375q0 -1.453125 0.71875 -2.8125q0.71875 -1.375 2.03125 -2.09375q1.3125 -0.71875 2.9375 -0.71875q2.515625 0 4.109375 1.640625q1.609375 1.625 1.609375 4.109375q0 2.515625 -1.625 4.171875q-1.609375 1.640625 -4.0625 1.640625q-1.53125 0 -2.90625 -0.6875q-1.375 -0.6875 -2.09375 -2.015625q-0.71875 -1.328125 -0.71875 -3.234375zm3.0 0.15625q0 1.640625 0.78125 2.515625q0.78125 0.875 1.921875 0.875q1.140625 0 1.921875 -0.875q0.78125 -0.875 0.78125 -2.53125q0 -1.625 -0.78125 -2.5q-0.78125 -0.875 -1.921875 -0.875q-1.140625 0 -1.921875 0.875q-0.78125 0.875 -0.78125 2.515625zm13.496826 5.53125l-2.921875 0l0 -11.0625l2.71875 0l0 1.578125q0.703125 -1.125 1.25 -1.46875q0.5625 -0.359375 1.265625 -0.359375q1.0 0 1.9375 0.5625l-0.90625 2.546875q-0.75 -0.484375 -1.375 -0.484375q-0.625 0 -1.046875 0.34375q-0.421875 0.328125 -0.671875 1.21875q-0.25 0.890625 -0.25 3.703125l0 3.421875zm11.428833 0l0 -2.921875l2.921875 0l0 2.921875l-2.921875 0zm5.9256287 0l0 -2.921875l2.921875 0l0 2.921875l-2.921875 0zm5.9256287 0l0 -2.921875l2.921875 0l0 2.921875l-2.921875 0zm21.991913 0l-2.71875 0l0 -1.625q-0.671875 0.953125 -1.59375 1.421875q-0.921875 0.453125 -1.859375 0.453125q-1.90625 0 -3.265625 -1.53125q-1.359375 -1.546875 -1.359375 -4.296875q0 -2.8125 1.3125 -4.265625q1.328125 -1.46875 3.359375 -1.46875q1.84375 0 3.203125 1.546875l0 -5.5l2.921875 0l0 15.265625zm-7.8125 -5.765625q0 1.765625 0.5 2.5625q0.703125 1.140625 1.96875 1.140625q1.015625 0 1.71875 -0.859375q0.71875 -0.859375 0.71875 -2.5625q0 -1.90625 -0.6875 -2.75q-0.6875 -0.84375 -1.765625 -0.84375q-1.046875 0 -1.75 0.828125q-0.703125 0.828125 -0.703125 2.484375zm10.028076 0.078125q0 -1.453125 0.71875 -2.8125q0.71875 -1.375 2.03125 -2.09375q1.3125 -0.71875 2.9375 -0.71875q2.515625 0 4.109375 1.640625q1.609375 1.625 1.609375 4.109375q0 2.515625 -1.625 4.171875q-1.609375 1.640625 -4.0625 1.640625q-1.53125 0 -2.90625 -0.6875q-1.375 -0.6875 -2.09375 -2.015625q-0.71875 -1.328125 -0.71875 -3.234375zm3.0 0.15625q0 1.640625 0.78125 2.515625q0.78125 0.875 1.921875 0.875q1.140625 0 1.921875 -0.875q0.78125 -0.875 0.78125 -2.53125q0 -1.625 -0.78125 -2.5q-0.78125 -0.875 -1.921875 -0.875q-1.140625 0 -1.921875 0.875q-0.78125 0.875 -0.78125 2.515625z" fill-rule="nonzero"/><path fill="#000000" fill-opacity="0.0" d="m595.69946 160.74147l37.102356 0l0 335.5276" fill-rule="evenodd"/><path stroke="#00ff00" stroke-width="2.0" stroke-linejoin="round" stroke-linecap="butt" d="m595.69946 160.74147l37.102356 0l0 323.5276" fill-rule="evenodd"/><path fill="#00ff00" stroke="#00ff00" stroke-width="2.0" stroke-linecap="butt" d="m629.49835 484.26904l3.3034668 9.076172l3.3034668 -9.076172z" fill-rule="evenodd"/><path fill="#d9d9d9" d="m172.98497 128.4607c-0.61073303 0 -1.1713715 0.18563843 -1.6819458 0.55688477c-0.5073242 0.3712616 -1.0615082 1.1395416 -1.6625519 2.3048706l0 -2.4904938l-2.3556824 0l0 16.427979l2.6174316 0l0 -8.600723c0 -1.1756287 0.14541626 -2.2584534 0.43623352 -3.2484589c0.19387817 -0.649704 0.51864624 -1.1567383 0.9742737 -1.5211182c0.45562744 -0.3678131 0.9694214 -0.55171204 1.5413666 -0.55171204c0.6398163 0 1.2796326 0.20109558 1.9194641 0.60328674l0.9015503 -2.583313c-0.9112549 -0.5981293 -1.8079681 -0.89720154 -2.6901398 -0.89720154z" fill-rule="evenodd"/><path fill="#d9d9d9" d="m183.60011 130.75009c1.3281097 0 2.4090118 0.5362549 3.2427216 1.6087646c0.5428772 0.6909485 0.87246704 1.7273712 0.98880005 3.109253l-8.622986 0c0.087249756 -1.4334564 0.53964233 -2.5781555 1.357193 -3.4340973c0.82077026 -0.8559418 1.8321991 -1.2839203 3.0342712 -1.2839203zm-0.029067993 -2.2893982c-2.1327362 0 -3.8679962 0.7631378 -5.2057953 2.2893982c-1.3377991 1.5262756 -2.0066986 3.6712952 -2.0066986 6.435074c0 2.6709595 0.66082764 4.747223 1.9824677 6.2288055c1.3248749 1.4781342 3.116684 2.2172089 5.3754272 2.2172089c1.7934265 0 3.2669525 -0.46406555 4.4205627 -1.3921967c1.1536102 -0.9281311 1.9436798 -2.2326813 2.370224 -3.9136353l-2.7046814 -0.35578918c-0.39746094 1.1756439 -0.93548584 2.0315857 -1.6140747 2.5678406c-0.6786041 0.5362549 -1.497757 0.8043823 -2.457489 0.8043823c-1.2893219 0 -2.365387 -0.47953796 -3.2281647 -1.4385986c-0.8627777 -0.9590759 -1.3426514 -2.340973 -1.4395905 -4.1456757l11.516708 0c0.009689331 -0.33000183 0.014541626 -0.5774994 0.014541626 -0.74250793c0 -2.7122192 -0.6543579 -4.815979 -1.9630737 -6.31131c-1.3087158 -1.4953308 -2.995514 -2.2429962 -5.060364 -2.2429962z" fill-rule="evenodd"/><path fill="#d9d9d9" d="m200.40987 130.64182c1.124527 0 2.0907135 0.5207825 2.8985596 1.5623627c0.81108093 1.041565 1.216629 2.609085 1.216629 4.702545c0 2.196579 -0.41523743 3.8190918 -1.2457123 4.8675385c-0.82724 1.0450134 -1.8225098 1.5675201 -2.9858093 1.5675201c-1.1439209 0 -2.1181793 -0.50531006 -2.9228058 -1.5159454c-0.8046112 -1.0106354 -1.2069244 -2.572998 -1.2069244 -4.687088c0 -2.1140747 0.42816162 -3.7245636 1.2844849 -4.8314514c0.85954285 -1.110321 1.8467407 -1.6654816 2.9615784 -1.6654816zm0.24719238 -2.1811218c-1.008194 0 -1.8661346 0.20970154 -2.5738068 0.6290741c-0.7076721 0.41593933 -1.3426514 1.041565 -1.9049072 1.8768921l0 -2.1347046l-2.384781 0l0 22.723816l2.617447 0l0 -7.9974213c0.44592285 0.5981293 1.0146484 1.0931396 1.7061768 1.4850159c0.6947479 0.39187622 1.478363 0.58781433 2.3508453 0.58781433c1.1923828 0 2.3282166 -0.35749817 3.4075012 -1.0725098c1.0825195 -0.7184448 1.9065247 -1.7497101 2.4720306 -3.0937805c0.5687256 -1.3475189 0.8530884 -2.86174 0.8530884 -4.542694c0 -1.5675201 -0.25689697 -3.007843 -0.7706909 -4.320984c-0.51379395 -1.3165741 -1.2747955 -2.3358154 -2.2829895 -3.0576935c-1.008194 -0.72187805 -2.1714935 -1.0828247 -3.489914 -1.0828247z" fill-rule="evenodd"/><path fill="#d9d9d9" d="m216.7252 130.75009c1.3280945 0 2.4089966 0.5362549 3.2427063 1.6087646c0.5428772 0.6909485 0.87246704 1.7273712 0.98880005 3.109253l-8.622986 0c0.087249756 -1.4334564 0.53964233 -2.5781555 1.357193 -3.4340973c0.82077026 -0.8559418 1.8321991 -1.2839203 3.0342865 -1.2839203zm-0.029083252 -2.2893982c-2.1327362 0 -3.8679962 0.7631378 -5.2057953 2.2893982c-1.3377991 1.5262756 -2.0066986 3.6712952 -2.0066986 6.435074c0 2.6709595 0.66082764 4.747223 1.9824677 6.2288055c1.3248749 1.4781342 3.116684 2.2172089 5.3754272 2.2172089c1.7934265 0 3.2669525 -0.46406555 4.4205627 -1.3921967c1.1536102 -0.9281311 1.9436798 -2.2326813 2.370224 -3.9136353l-2.7046814 -0.35578918c-0.39746094 1.1756439 -0.93548584 2.0315857 -1.6140747 2.5678406c-0.6786041 0.5362549 -1.497757 0.8043823 -2.457489 0.8043823c-1.2893219 0 -2.365387 -0.47953796 -3.2281647 -1.4385986c-0.8627777 -0.9590759 -1.3426514 -2.340973 -1.4395905 -4.1456757l11.516708 0c0.00970459 -0.33000183 0.014541626 -0.5774994 0.014541626 -0.74250793c0 -2.7122192 -0.6543579 -4.815979 -1.9630737 -6.31131c-1.3087158 -1.4953308 -2.9954987 -2.2429962 -5.060364 -2.2429962z" fill-rule="evenodd"/><path fill="#d9d9d9" d="m236.77765 137.015l0 1.0209503c0 1.2272034 -0.14056396 2.1553345 -0.42170715 2.7844086c-0.3683777 0.81469727 -0.9451752 1.4575043 -1.7304077 1.9284515c-0.78523254 0.46749878 -1.6819458 0.7012634 -2.6901398 0.7012634c-1.0178833 0 -1.7918091 -0.24751282 -2.321762 -0.74250793c-0.52671814 -0.49501038 -0.7900696 -1.1137695 -0.7900696 -1.8562775c0 -0.48469543 0.121170044 -0.9246979 0.3635254 -1.3200073c0.24235535 -0.39875793 0.5865021 -0.7012634 1.0324402 -0.9075165c0.44592285 -0.20625305 1.2069244 -0.39187622 2.2829742 -0.5568695c1.9000702 -0.28875732 3.325119 -0.63938904 4.2751465 -1.0518951zm-3.329956 -8.554306c-1.3281097 0 -2.4962616 0.19422913 -3.5044556 0.5826721c-1.008194 0.3849945 -1.7788849 0.9367218 -2.3120728 1.6551666c-0.5331726 0.7150116 -0.9160919 1.6551666 -1.1487579 2.8204956l2.5592651 0.3712616c0.2811432 -1.165329 0.71414185 -1.976593 1.2990265 -2.4337769c0.5881195 -0.46063232 1.497757 -0.6909485 2.7289124 -0.6909485c1.3184204 0 2.3120728 0.31452942 2.9809723 0.9436035c0.49440002 0.46406555 0.74160767 1.2632904 0.74160767 2.3976746c0 0.103134155 -0.004852295 0.34547424 -0.014541626 0.7270508c-0.99850464 0.37124634 -2.554428 0.6909332 -4.667755 0.95906067c-1.0372772 0.13406372 -1.8128204 0.2732849 -2.3266144 0.41766357c-0.6979828 0.20625305 -1.3264923 0.5104828 -1.8855133 0.91267395c-0.5558014 0.40219116 -1.0065918 0.9367218 -1.3523407 1.6036072c-0.3425293 0.6634369 -0.51379395 1.3973541 -0.51379395 2.2017365c0 1.371582 0.45562744 2.4990845 1.3668823 3.3825378c0.9112549 0.8800049 2.2151184 1.3200073 3.9116058 1.3200073c1.0275879 0 1.9889221 -0.1804657 2.884018 -0.54141235c0.8983307 -0.3609314 1.8322144 -0.97969055 2.8016357 -1.8562622c0.077545166 0.7734375 0.25204468 1.4489136 0.5234833 2.0264282l2.7337646 0c-0.3296051 -0.6290741 -0.55096436 -1.2856445 -0.6640625 -1.9697113c-0.10986328 -0.68751526 -0.16479492 -2.3255005 -0.16479492 -4.9139557l0 -3.7125397c0 -1.237503 -0.043624878 -2.09346 -0.13087463 -2.5678406c-0.15510559 -0.76312256 -0.4265442 -1.3939209 -0.8143158 -1.8923645c-0.38775635 -0.50187683 -0.99365234 -0.91781616 -1.8176575 -1.247818c-0.8240051 -0.33000183 -1.8952179 -0.49501038 -3.213623 -0.49501038z" fill-rule="evenodd"/><path fill="#d9d9d9" d="m246.56393 123.09299l-2.60289 1.6706467l0 4.068321l-1.9194489 0l0 2.1656494l1.9194489 0l0 9.451492c0 1.670639 0.10664368 2.767212 0.31991577 3.2897186c0.2132721 0.5190735 0.5816498 0.93844604 1.105133 1.2581482c0.5234833 0.3196869 1.2602539 0.4795227 2.2102814 0.4795227c0.5816498 0 1.24086 -0.08248901 1.9776154 -0.24749756l-0.37806702 -2.459549c-0.47502136 0.07218933 -0.8579407 0.10827637 -1.1487732 0.10827637c-0.3877716 0 -0.686676 -0.06703186 -0.89671326 -0.20109558c-0.20680237 -0.13406372 -0.35707092 -0.31452942 -0.45077515 -0.54141235c-0.09048462 -0.22688293 -0.13572693 -0.73735046 -0.13572693 -1.5314178l0 -9.606186l2.6319885 0l0 -2.1656494l-2.6319885 0l0 -5.738968z" fill-rule="evenodd"/><path fill="#b6d7a8" d="m663.56177 260.36777c0 1.2351685 -0.48254395 2.2675476 -1.4476929 3.0971985c-0.96191406 0.83270264 -2.3779907 1.2490845 -4.248108 1.2490845c-1.9840088 0 -3.460205 -0.41326904 -4.428467 -1.2398071c-0.9682617 -0.8265381 -1.4524536 -1.86203 -1.4524536 -3.1064758c0 -1.2537231 0.48101807 -2.2938538 1.4429321 -3.1203918c0.9651489 -0.8265381 2.4160156 -1.2398071 4.352539 -1.2398071c1.9365845 0 3.3842773 0.41326904 4.3430786 1.2398071c0.95880127 0.8265381 1.4381714 1.8666687 1.4381714 3.1203918zm2.121704 0c0 -1.8295288 -0.5601196 -3.3804321 -1.6802979 -4.6527405c-1.3479614 -1.523056 -3.4221802 -2.2845764 -6.2226562 -2.2845764c-2.5535889 0 -4.5091553 0.6376953 -5.866638 1.9131012c-1.3574829 1.2784882 -2.036255 2.9532318 -2.036255 5.0242157c0 1.2908936 0.3085327 2.4811401 0.92559814 3.5708313c0.6170044 1.0927429 1.4824829 1.9239197 2.5963135 2.4935303c1.1170044 0.5726929 2.6485596 0.8590393 4.5946045 0.8590393c2.4017334 0 4.282898 -0.6454468 5.6435547 -1.9363403c1.3638306 -1.290863 2.0457764 -2.9532166 2.0457764 -4.9870605z" fill-rule="evenodd"/><path fill="#b6d7a8" d="m665.34174 270.17474l-9.369629 0c-1.0916748 0 -1.8890991 0.051086426 -2.392212 0.15322876c-0.74993896 0.14859009 -1.3843994 0.4055481 -1.9033203 0.770813c-0.5158081 0.3683777 -0.9445801 0.9302368 -1.2863159 1.6855774c-0.34173584 0.75842285 -0.5126343 1.5741272 -0.5126343 2.447113c0 1.9781189 0.8543701 3.5429688 2.5631104 4.694519l-2.2213745 0l0 2.2427979l15.1223755 0l0 -2.5074768l-8.102295 0c-1.2910156 0 -2.2767334 -0.13775635 -2.9570923 -0.41323853c-0.677124 -0.27243042 -1.213501 -0.73831177 -1.6090088 -1.3977051c-0.39239502 -0.6593628 -0.588562 -1.3651733 -0.588562 -2.1174011c0 -0.7522583 0.19140625 -1.3837585 0.5742798 -1.8945312c0.38604736 -0.5107727 0.91607666 -0.8451233 1.5900879 -1.0029907c0.46514893 -0.102142334 1.3670044 -0.15322876 2.7055054 -0.15322876l8.387085 0z" fill-rule="evenodd"/><path fill="#b6d7a8" d="m670.6246 289.05038l-1.5379028 -2.4935303l-3.744934 0l0 -1.8388062l-1.9935303 0l0 1.8388062l-8.700378 0c-1.5378418 0 -2.5472412 0.10217285 -3.0282593 0.30648804c-0.4777832 0.20431519 -0.86383057 0.55718994 -1.1581421 1.0586853c-0.2942505 0.50149536 -0.44140625 1.2073059 -0.44140625 2.1174316c0 0.55722046 0.075927734 1.1887207 0.22784424 1.8945312l2.2640991 -0.36218262c-0.066467285 -0.45507812 -0.099731445 -0.8218994 -0.099731445 -1.1005249c0 -0.37145996 0.061706543 -0.6578064 0.18511963 -0.8590393c0.123413086 -0.19812012 0.28955078 -0.34204102 0.4984131 -0.43182373c0.2088623 -0.08666992 0.67871094 -0.1300354 1.409668 -0.1300354l8.842773 0l0 2.5214233l1.9935303 0l0 -2.5214233l5.282837 0z" fill-rule="evenodd"/><path fill="#b6d7a8" d="m663.56177 307.95392c0 1.2351379 -0.48254395 2.2675476 -1.4476929 3.097168c-0.96191406 0.83273315 -2.3779907 1.249115 -4.248108 1.249115c-1.9840088 0 -3.460205 -0.41326904 -4.428467 -1.2398071c-0.9682617 -0.8265381 -1.4524536 -1.86203 -1.4524536 -3.1064758c0 -1.2537537 0.48101807 -2.2938843 1.4429321 -3.1204224c0.9651489 -0.8265381 2.4160156 -1.2397766 4.352539 -1.2397766c1.9365845 0 3.3842773 0.41323853 4.3430786 1.2397766c0.95880127 0.8265381 1.4381714 1.8666687 1.4381714 3.1204224zm2.121704 0c0 -1.8295288 -0.5601196 -3.3804321 -1.6802979 -4.6527405c-1.3479614 -1.5230713 -3.4221802 -2.2845764 -6.2226562 -2.2845764c-2.5535889 0 -4.5091553 0.6376953 -5.866638 1.9130859c-1.3574829 1.2785034 -2.036255 2.953247 -2.036255 5.024231c0 1.290863 0.3085327 2.4811401 0.92559814 3.5708008c0.6170044 1.0927734 1.4824829 1.9239502 2.5963135 2.4935608c1.1170044 0.5726929 2.6485596 0.8590393 4.5946045 0.8590393c2.4017334 0 4.282898 -0.6454468 5.6435547 -1.9363403c1.3638306 -1.290863 2.0457764 -2.953247 2.0457764 -4.9870605z" fill-rule="evenodd"/><path fill="#b6d7a8" d="m671.45044 322.51114c0 -1.0958557 -0.20727539 -1.9487 -0.62176514 -2.5585327c-0.41137695 -0.6067505 -0.9493408 -1.0308533 -1.6138306 -1.2723083c-0.49365234 -0.17645264 -1.248291 -0.26467896 -2.2640991 -0.26467896l-1.6090088 0l0 -2.2149353l-1.9935303 0l0 2.2149353l-13.128845 0l0 2.4935303l13.128845 0l0 2.883606l1.9935303 0l0 -2.883606l1.3954468 0c0.9113159 0 1.5331421 0.15789795 1.8653564 0.4736328c0.3322754 0.31576538 0.4984131 0.85440063 0.4984131 1.6159363c0 0.46432495 -0.04748535 0.95654297 -0.14239502 1.4766235l2.2355957 0.37609863c0.1708374 -0.85440063 0.25628662 -1.634491 0.25628662 -2.3403015z" fill-rule="evenodd"/><path fill="#b6d7a8" d="m665.6835 339.1022c0 -0.5850525 -0.17089844 -1.1221619 -0.5126343 -1.6112671c-0.34173584 -0.48602295 -1.0489502 -1.0169067 -2.121704 -1.5927124l2.2926025 0l0 -2.2567139l-15.1223755 0l0 2.5074768l7.9171753 0c1.0822144 0 2.0789795 0.13928223 2.9902954 0.4179077c0.59802246 0.18572998 1.0648193 0.4968567 1.4002075 0.9333191c0.338562 0.43649292 0.50787354 0.92871094 0.50787354 1.4766235c0 0.61294556 -0.18511963 1.2258911 -0.5553589 1.8388062l2.3779907 0.863678c0.55059814 -0.8729553 0.82592773 -1.7319946 0.82592773 -2.577118z" fill-rule="evenodd"/><path fill="#b6d7a8" d="m657.809 352.6147l-0.93981934 0c-1.1296387 0 -1.9840088 -0.13467407 -2.5631104 -0.4039917c-0.74993896 -0.35290527 -1.3416748 -0.90545654 -1.7751465 -1.6577148c-0.4303589 -0.7522278 -0.64556885 -1.6112671 -0.64556885 -2.577118c0 -0.9751282 0.22784424 -1.7165222 0.6835327 -2.2242126c0.45562744 -0.50457764 1.0252075 -0.756897 1.7087402 -0.756897c0.446167 0 0.8511963 0.11608887 1.2150879 0.3482666c0.36706543 0.23217773 0.6455078 0.56185913 0.8353882 0.9890747c0.18988037 0.42718506 0.36071777 1.1562195 0.5126343 2.1870422c0.2658081 1.8202515 0.588562 3.1854248 0.9682617 4.0955505zm7.8744507 -3.1900635c0 -1.2723083 -0.17877197 -2.391388 -0.53637695 -3.3572083c-0.35437012 -0.96585083 -0.86224365 -1.7041626 -1.5236206 -2.2149353c-0.6582031 -0.5107727 -1.5236206 -0.8776245 -2.5963135 -1.1004944l-0.34173584 2.4517212c1.0726929 0.26934814 1.819458 0.68414307 2.2402954 1.2444763c0.42407227 0.563385 0.63604736 1.4348145 0.63604736 2.6142578c0 1.2630005 -0.28955078 2.2149353 -0.8685913 2.855713c-0.42718506 0.4736328 -1.1629028 0.7104492 -2.2071533 0.7104492c-0.09490967 0 -0.31799316 -0.004638672 -0.6692505 -0.013916016c-0.34173584 -0.9565735 -0.6359863 -2.447113 -0.8828125 -4.471649c-0.123413086 -0.9937134 -0.2515869 -1.7366638 -0.38446045 -2.2288818c-0.18988037 -0.66864014 -0.46990967 -1.270752 -0.8401489 -1.8063049c-0.37023926 -0.5324402 -0.8623047 -0.9642639 -1.4761353 -1.2955017c-0.6107178 -0.32815552 -1.2863159 -0.49221802 -2.0267944 -0.49221802c-1.2625732 0 -2.300476 0.43649292 -3.1137085 1.3094482c-0.8100586 0.87298584 -1.2150879 2.1220703 -1.2150879 3.747284c0 0.9844055 0.1661377 1.905365 0.4984131 2.762848c0.33221436 0.8605957 0.90179443 1.7552185 1.7087402 2.6839294c-0.7119751 0.074279785 -1.3338013 0.24145508 -1.8654175 0.50149536l0 2.6188965c0.57910156 -0.31576538 1.1834717 -0.5278015 1.8131714 -0.6361389c0.63287354 -0.10525513 2.140686 -0.15789795 4.5234375 -0.15789795l3.4174805 0c1.1391602 0 1.927063 -0.041778564 2.3637085 -0.12536621c0.70251465 -0.14859009 1.2831421 -0.40863037 1.7420044 -0.78009033c0.4619751 -0.37149048 0.84484863 -0.9519043 1.1486206 -1.7413025c0.30377197 -0.7893982 0.45568848 -1.8155823 0.45568848 -3.0786133z" fill-rule="evenodd"/><path fill="#b6d7a8" d="m665.6835 366.00177c0 -2.0524292 -0.83062744 -3.6219177 -2.4919434 -4.7084656l2.1502075 0l0 -2.2567139l-15.1223755 0l0 2.5074463l8.258911 0c1.9365845 0 3.2513428 0.3869629 3.944336 1.1608582c0.69299316 0.77700806 1.0394897 1.6995239 1.0394897 2.767517c0 0.66864014 -0.1550293 1.2506409 -0.46514893 1.7459412c-0.3069458 0.49838257 -0.71990967 0.8450928 -1.2388306 1.0401306c-0.5158081 0.19503784 -1.2957764 0.2925415 -2.3400269 0.2925415l-9.19873 0l0 2.5074463l9.298401 0c1.1866455 0 2.017273 -0.046417236 2.4918823 -0.13928223c0.73101807 -0.14859009 1.3622437 -0.40863037 1.8938599 -0.78012085c0.5316162 -0.37145996 0.9603882 -0.9317627 1.2863159 -1.6809082c0.32910156 -0.74606323 0.49365234 -1.5648499 0.49365234 -2.4563904z" fill-rule="evenodd"/><path fill="#b6d7a8" d="m663.56177 380.53113c0 1.1330261 -0.46990967 2.1004028 -1.409729 2.9021606c-0.9397583 0.8048706 -2.335266 1.2073059 -4.1864014 1.2073059c-1.9365234 0 -3.3588867 -0.39004517 -4.26709 -1.1701355c-0.90496826 -0.78012085 -1.3574829 -1.7459412 -1.3574829 -2.897522c0 -1.1608582 0.45568848 -2.126709 1.3670044 -2.897522c0.9113159 -0.770813 2.3590088 -1.1562195 4.3430176 -1.1562195c1.8226318 0 3.195984 0.39004517 4.119995 1.1701355c0.927124 0.78012085 1.390686 1.7273865 1.390686 2.8417969zm2.121704 -0.18109131c0 -1.3094482 -0.3322754 -2.4501953 -0.99676514 -3.4222107c-0.6645508 -0.9689331 -1.6074829 -1.7088013 -2.8289185 -2.219574c-1.2182617 -0.5108032 -2.5488892 -0.7661743 -3.9918213 -0.7661743c-2.0979614 0 -3.8968506 0.55722046 -5.3967285 1.6716309c-1.499939 1.1144409 -2.249878 2.688568 -2.249878 4.722412c0 1.634491 0.65979004 2.9996643 1.9793091 4.09552l0 0c-1.6707764 0.009277344 -2.767212 -0.051086426 -3.2893066 -0.18109131c-0.8543701 -0.22290039 -1.5189209 -0.65008545 -1.9935303 -1.2815857c-0.4746704 -0.63153076 -0.7119751 -1.52771 -0.7119751 -2.688568c0 -1.077301 0.23730469 -1.9270325 0.7119751 -2.5492554c0.3511963 -0.46435547 0.9113159 -0.7475891 1.6802368 -0.84976196l0.37023926 -2.4378052l0 0c-1.6328125 -0.037139893 -2.854248 0.48754883 -3.6643066 1.5741272c-0.8132324 1.0865784 -1.2198486 2.5121155 -1.2198486 4.2766113c0 1.4859009 0.28479004 2.7365417 0.8543701 3.7519226c0.5695801 1.0184631 1.3464355 1.7614136 2.3305054 2.2288513c0.98095703 0.47055054 2.6485596 0.70581055 5.0028076 0.70581055l13.071899 0l0 -2.312439l-1.8226929 0c1.4429321 -1.1329956 2.1644287 -2.5724792 2.1644287 -4.3184204z" fill-rule="evenodd"/><path fill="#b6d7a8" d="m663.576 396.87146c0 1.2723083 -0.4935913 2.3078003 -1.480896 3.1064758c-0.6359863 0.52005005 -1.5900879 0.8358154 -2.8621216 0.9472656l0 -8.260712c1.319519 0.08358765 2.37323 0.5169678 3.1611938 1.3001709c0.78790283 0.7862854 1.1818237 1.7552185 1.1818237 2.9067993zm2.107483 -0.027862549c0 -2.0431213 -0.70251465 -3.7054749 -2.107483 -4.9870605c-1.4049072 -1.2816162 -3.3794556 -1.9223938 -5.923584 -1.9223938c-2.4586792 0 -4.369934 0.63305664 -5.7337646 1.8991699c-1.3606567 1.2691956 -2.0410156 2.9857483 -2.0410156 5.149597c0 1.7180786 0.42718506 3.1296692 1.2815552 4.234833c0.8543701 1.105133 2.0552368 1.86203 3.6026 2.27063l0.32751465 -2.591034c-1.0822144 -0.38076782 -1.8701172 -0.8961792 -2.3637695 -1.5462646c-0.49365234 -0.65008545 -0.7404785 -1.434845 -0.7404785 -2.354248c0 -1.2351379 0.4414673 -2.2659912 1.3242798 -3.0925293c0.88287354 -0.8265381 2.1549072 -1.2862549 3.8162231 -1.3791199l0 11.032867c0.30377197 0.009277344 0.5316162 0.013916016 0.6834717 0.013916016c2.496643 0 4.4332275 -0.6268616 5.8096924 -1.8805847c1.3765259 -1.2537537 2.0647583 -2.8696594 2.0647583 -4.8477783z" fill-rule="evenodd"/><path fill="#cfe2f3" d="m419.02658 490.1286l119.776276 0l0 0c15.690979 0 28.411072 11.217712 28.411072 25.05542c0 13.837769 -12.720093 25.055481 -28.411072 25.055481l-119.776276 0l0 0c-15.6910095 0 -28.411072 -11.217712 -28.411072 -25.055481c0 -13.8377075 12.720062 -25.05542 28.411072 -25.05542z" fill-rule="evenodd"/><path stroke="#0000ff" stroke-width="2.0" stroke-linejoin="round" stroke-linecap="butt" d="m419.02658 490.1286l119.776276 0l0 0c15.690979 0 28.411072 11.217712 28.411072 25.05542c0 13.837769 -12.720093 25.055481 -28.411072 25.055481l-119.776276 0l0 0c-15.6910095 0 -28.411072 -11.217712 -28.411072 -25.055481c0 -13.8377075 12.720062 -25.05542 28.411072 -25.05542z" fill-rule="evenodd"/><path fill="#000000" d="m445.6547 514.8672l-2.875 0.53125q-0.15625 -0.875 -0.671875 -1.3125q-0.515625 -0.4375 -1.328125 -0.4375q-1.09375 0 -1.75 0.765625q-0.65625 0.75 -0.65625 2.515625q0 1.96875 0.65625 2.78125q0.671875 0.8125 1.78125 0.8125q0.84375 0 1.375 -0.46875q0.53125 -0.46875 0.75 -1.625l2.859375 0.484375q-0.4375 1.984375 -1.71875 3.0q-1.265625 1.0 -3.390625 1.0q-2.4375 0 -3.875 -1.53125q-1.4375 -1.53125 -1.4375 -4.234375q0 -2.75 1.4375 -4.265625q1.453125 -1.5312805 3.921875 -1.5312805q2.015625 0 3.203125 0.8750305q1.203125 0.859375 1.71875 2.640625zm1.5491943 2.109375q0 -1.453125 0.71875 -2.8125q0.71875 -1.375 2.03125 -2.09375q1.3125 -0.7187805 2.9375 -0.7187805q2.515625 0 4.109375 1.6406555q1.609375 1.625 1.609375 4.109375q0 2.515625 -1.625 4.171875q-1.609375 1.640625 -4.0625 1.640625q-1.53125 0 -2.90625 -0.6875q-1.375 -0.6875 -2.09375 -2.015625q-0.71875 -1.328125 -0.71875 -3.234375zm3.0 0.15625q0 1.640625 0.78125 2.515625q0.78125 0.875 1.921875 0.875q1.140625 0 1.921875 -0.875q0.78125 -0.875 0.78125 -2.53125q0 -1.625 -0.78125 -2.5q-0.78125 -0.875 -1.921875 -0.875q-1.140625 0 -1.921875 0.875q-0.78125 0.875 -0.78125 2.515625zm20.762451 5.53125l-2.921875 0l0 -5.640625q0 -1.796875 -0.1875 -2.3125q-0.1875 -0.53125 -0.609375 -0.828125q-0.421875 -0.296875 -1.015625 -0.296875q-0.765625 0 -1.375 0.421875q-0.59375 0.421875 -0.828125 1.109375q-0.21875 0.6875 -0.21875 2.53125l0 5.015625l-2.921875 0l0 -11.0625305l2.71875 0l0 1.6250305q1.4375 -1.8750305 3.640625 -1.8750305q0.96875 0 1.765625 0.359375q0.8125 0.34378052 1.21875 0.8906555q0.40625 0.53125 0.5625 1.21875q0.171875 0.6875 0.171875 1.96875l0 6.875zm8.043701 -11.0625305l0 2.3281555l-2.0 0l0 4.46875q0 1.34375 0.046875 1.578125q0.0625 0.21875 0.265625 0.375q0.203125 0.140625 0.5 0.140625q0.40625 0 1.171875 -0.28125l0.25 2.265625q-1.015625 0.4375 -2.3125 0.4375q-0.796875 0 -1.4375 -0.265625q-0.625 -0.265625 -0.921875 -0.6875q-0.296875 -0.421875 -0.40625 -1.140625q-0.09375 -0.515625 -0.09375 -2.0625l0 -4.828125l-1.34375 0l0 -2.3281555l1.34375 0l0 -2.1875l2.9375 -1.71875l0 3.90625l2.0 0zm2.0243225 -1.5l0 -2.703125l2.921875 0l0 2.703125l-2.921875 0zm0 12.5625305l0 -11.0625305l2.921875 0l0 11.0625305l-2.921875 0zm15.988129 0l-2.921875 0l0 -5.640625q0 -1.796875 -0.1875 -2.3125q-0.1875 -0.53125 -0.609375 -0.828125q-0.421875 -0.296875 -1.015625 -0.296875q-0.765625 0 -1.375 0.421875q-0.59375 0.421875 -0.828125 1.109375q-0.21875 0.6875 -0.21875 2.53125l0 5.015625l-2.921875 0l0 -11.0625305l2.71875 0l0 1.6250305q1.4375 -1.8750305 3.640625 -1.8750305q0.96875 0 1.765625 0.359375q0.8125 0.34378052 1.21875 0.8906555q0.40625 0.53125 0.5625 1.21875q0.171875 0.6875 0.171875 1.96875l0 6.875zm10.246826 0l0 -1.65625q-0.609375 0.890625 -1.59375 1.40625q-0.984375 0.5 -2.078125 0.5q-1.109375 0 -2.0 -0.484375q-0.875 -0.5 -1.28125 -1.375q-0.390625 -0.890625 -0.390625 -2.453125l0 -7.0000305l2.921875 0l0 5.0781555q0 2.34375 0.15625 2.875q0.171875 0.515625 0.59375 0.828125q0.4375 0.296875 1.09375 0.296875q0.75 0 1.34375 -0.40625q0.59375 -0.40625 0.8125 -1.015625q0.21875 -0.609375 0.21875 -2.984375l0 -4.6719055l2.921875 0l0 11.0625305l-2.71875 0zm12.153107 -3.515625l2.90625 0.484375q-0.546875 1.609375 -1.765625 2.453125q-1.21875 0.828125 -3.03125 0.828125q-2.890625 0 -4.28125 -1.890625q-1.09375 -1.5 -1.09375 -3.8125q0 -2.75 1.4375 -4.296875q1.4375 -1.5625305 3.640625 -1.5625305q2.46875 0 3.890625 1.6406555q1.421875 1.625 1.359375 4.984375l-7.328125 0q0.03125 1.296875 0.703125 2.03125q0.6875 0.71875 1.703125 0.71875q0.6875 0 1.15625 -0.375q0.46875 -0.375 0.703125 -1.203125zm0.171875 -2.96875q-0.03125 -1.265625 -0.65625 -1.921875q-0.625 -0.671875 -1.53125 -0.671875q-0.953125 0 -1.578125 0.703125q-0.625 0.703125 -0.609375 1.890625l4.375 0z" fill-rule="nonzero"/><path fill="#9fc5e8" d="m612.8097 515.2152l0 0c0 -10.462952 8.947266 -18.944855 19.984253 -18.944855l0 0c5.300171 0 10.38324 1.9959717 14.1310425 5.548828c3.7477417 3.552826 5.8532104 8.3715515 5.8532104 13.396027l0 0c0 10.463013 -8.947266 18.944885 -19.984253 18.944885l0 0c-11.036987 0 -19.984253 -8.481873 -19.984253 -18.944885z" fill-rule="evenodd"/><path stroke="#0000ff" stroke-width="2.0" stroke-linejoin="round" stroke-linecap="butt" d="m612.8097 515.2152l0 0c0 -10.462952 8.947266 -18.944855 19.984253 -18.944855l0 0c5.300171 0 10.38324 1.9959717 14.1310425 5.548828c3.7477417 3.552826 5.8532104 8.3715515 5.8532104 13.396027l0 0c0 10.463013 -8.947266 18.944885 -19.984253 18.944885l0 0c-11.036987 0 -19.984253 -8.481873 -19.984253 -18.944885z" fill-rule="evenodd"/><path fill="#000000" fill-opacity="0.0" d="m612.8097 515.2152l-45.606262 -0.03149414" fill-rule="evenodd"/><path stroke="#00ff00" stroke-width="2.0" stroke-linejoin="round" stroke-linecap="butt" d="m612.8097 515.2152l-33.606262 -0.02319336" fill-rule="evenodd"/><path fill="#00ff00" stroke="#00ff00" stroke-width="2.0" stroke-linecap="butt" d="m579.2057 511.88855l-9.078491 3.2971802l9.073914 3.3097534z" fill-rule="evenodd"/><path fill="#b6d7a8" d="m111.0105 269.02682l5.239441 15.8497925c-0.095336914 0.28799438 -0.16468048 0.5064697 -0.20801544 0.655426c-0.32936096 1.0626221 -0.5677185 1.7279968 -0.7150574 1.9961243c-0.19935608 0.35751343 -0.45503998 0.6355896 -0.76706696 0.834198c-0.31202698 0.19863892 -0.7280655 0.29794312 -1.2481079 0.29794312c-0.38136292 0 -0.8277359 -0.079437256 -1.3391113 -0.23834229l0 0l0.26002502 2.5174866c0.5547104 0.21847534 1.0574188 0.32772827 1.5081253 0.32772827c0.74539185 0 1.3867798 -0.20690918 1.9241638 -0.620697c0.5373764 -0.41046143 1.0140839 -1.0576477 1.4301147 -1.9414978c0.31202698 -0.655426 0.749733 -1.8521118 1.3131104 -3.5900269l5.252449 -16.088135l-2.3402023 0l-2.9512482 9.220886c-0.37269592 1.1718445 -0.6933899 2.3735046 -0.9620819 3.6049194c-0.294693 -1.2810974 -0.62838745 -2.502594 -1.0010834 -3.6645203l-2.8732452 -9.161285z" fill-rule="evenodd"/><path fill="#b6d7a8" d="m131.34421 270.87396c1.187439 0 2.1538544 0.51641846 2.8992462 1.5492554c0.48538208 0.66534424 0.7800751 1.6634216 0.884079 2.9941711l-7.709648 0c0.07800293 -1.3804016 0.4824829 -2.4827576 1.2134323 -3.3070068c0.73384094 -0.8242798 1.6381378 -1.2364197 2.7128906 -1.2364197zm-0.026000977 -2.2046509c-1.9068146 0 -3.45829 0.7348938 -4.6543884 2.2046509c-1.1960983 1.4697876 -1.7941513 3.535431 -1.7941513 6.19693c0 2.572113 0.59082794 4.571533 1.7724838 5.998291c1.1845474 1.4234314 2.7865753 2.1351624 4.806076 2.1351624c1.6034698 0 2.9209137 -0.4468994 3.9523315 -1.3406982c1.0314178 -0.8937683 1.7378082 -2.150055 2.1191711 -3.7687988l-2.4181976 -0.34262085c-0.35536194 1.1321411 -0.8364105 1.9564209 -1.4431152 2.4728088c-0.60672 0.51641846 -1.3391266 0.7746277 -2.1971893 0.7746277c-1.152771 0 -2.114853 -0.461792 -2.8862457 -1.385376c-0.77140045 -0.923584 -1.2004395 -2.254303 -1.2871094 -3.9922485l10.296875 0c0.008666992 -0.31777954 0.013000488 -0.5561218 0.013000488 -0.71502686c0 -2.6118164 -0.5850525 -4.637726 -1.7551575 -6.0777283c-1.1700897 -1.4399719 -2.6782227 -2.1599731 -4.5243835 -2.1599731z" fill-rule="evenodd"/><path fill="#b6d7a8" d="m144.99536 268.6693c-0.71939087 0 -1.3939972 0.10757446 -2.0238342 0.3227539c-0.62693787 0.21185303 -1.1224213 0.4717102 -1.4864502 0.77957153c-0.48538208 0.3972473 -0.8696289 0.8970947 -1.152771 1.4995728c-0.28024292 0.5991821 -0.42036438 1.2513123 -0.42036438 1.9563904c0 0.7746277 0.17045593 1.4830322 0.5113678 2.1252441c0.34381104 0.6388855 0.8465271 1.1403809 1.5081329 1.5045166c0.664505 0.36083984 1.8548279 0.78952026 3.5709686 1.2860718c1.2741089 0.36743164 2.0715027 0.6703491 2.3921967 0.9086914c0.4593811 0.3475647 0.6890564 0.82424927 0.6890564 1.4300537c0 0.67529297 -0.26000977 1.2645264 -0.7800598 1.7677002c-0.52005005 0.4998474 -1.3174438 0.7497864 -2.3921967 0.7497864c-1.0661011 0 -1.8967285 -0.28302002 -2.4918823 -0.8490906c-0.5922699 -0.56607056 -0.9534149 -1.3804016 -1.0834198 -2.4430237l-2.3141937 0.41711426c0.26000977 1.6783142 0.8595123 2.944519 1.7984772 3.798584c0.941864 0.85406494 2.3098602 1.2810974 4.104019 1.2810974c1.0834198 0 2.0541687 -0.21517944 2.9122467 -0.64553833c0.85806274 -0.43362427 1.5139008 -1.0444031 1.9674988 -1.8322449c0.45648193 -0.7911682 0.6847229 -1.6336365 0.6847229 -2.5274353c0 -0.91363525 -0.18635559 -1.6783142 -0.5590515 -2.2940369c-0.37269592 -0.61572266 -0.8869629 -1.084137 -1.5428009 -1.4052429c-0.65293884 -0.32440186 -1.8071442 -0.73983765 -3.462616 -1.2463379c-1.144104 -0.35751343 -1.8331604 -0.585907 -2.0671844 -0.6852112c-0.4073639 -0.18869019 -0.7063904 -0.42703247 -0.8970642 -0.71502686c-0.19068909 -0.27807617 -0.286026 -0.59091187 -0.286026 -0.93847656c0 -0.5462036 0.2296753 -1.0228882 0.6890564 -1.4300537c0.45936584 -0.40719604 1.2264404 -0.6107788 2.3011932 -0.6107788c0.91007996 0 1.6135712 0.22842407 2.1105042 0.6852417c0.49983215 0.45681763 0.80174255 1.0924072 0.90574646 1.9067383l2.2881927 -0.35751343c-0.14733887 -1.0228882 -0.41603088 -1.8388672 -0.8060608 -2.4479675c-0.39004517 -0.61239624 -0.99531555 -1.0973816 -1.8158264 -1.454895c-0.81762695 -0.35751343 -1.7681427 -0.5362549 -2.8515778 -0.5362549z" fill-rule="evenodd"/><path fill="#cc0000" d="m45.964565 303.20013l0 0c0 -10.462982 8.947254 -18.944885 19.984257 -18.944885l0 0c5.300148 0 10.3832245 1.9959717 14.130997 5.548828c3.7477722 3.5528564 5.8532486 8.3715515 5.8532486 13.396057l0 0c0 10.462952 -8.94725 18.944885 -19.984245 18.944885l0 0c-11.037003 0 -19.984257 -8.481934 -19.984257 -18.944885z" fill-rule="evenodd"/><path stroke="#666666" stroke-width="2.0" stroke-linejoin="round" stroke-linecap="butt" d="m45.964565 303.20013l0 0c0 -10.462982 8.947254 -18.944885 19.984257 -18.944885l0 0c5.300148 0 10.3832245 1.9959717 14.130997 5.548828c3.7477722 3.5528564 5.8532486 8.3715515 5.8532486 13.396057l0 0c0 10.462952 -8.94725 18.944885 -19.984245 18.944885l0 0c-11.037003 0 -19.984257 -8.481934 -19.984257 -18.944885z" fill-rule="evenodd"/><path fill="#000000" fill-opacity="0.0" d="m161.83727 303.20013l-37.95199 0l0 0.06298828l-37.95352 0" fill-rule="evenodd"/><path stroke="#00ff00" stroke-width="2.0" stroke-linejoin="round" stroke-linecap="butt" stroke-dasharray="8.0,6.0" d="m161.83727 303.20013l-37.95199 0l0 0.06298828l-25.953522 0" fill-rule="evenodd"/><path fill="#00ff00" stroke="#00ff00" stroke-width="2.0" stroke-linecap="butt" d="m97.931755 299.95966l-9.076195 3.3034668l9.076195 3.3034668z" fill-rule="evenodd"/><path fill="#f1c232" d="m402.40207 19.577427l166.02078 0c2.805359 0 5.4957886 1.1144276 7.479492 3.0981197c1.9837036 1.9836922 3.0981445 4.674156 3.0981445 7.479521l0 52.886925l-176.59842 0z" fill-rule="evenodd"/><path stroke="#b45f06" stroke-width="2.0" stroke-linejoin="round" stroke-linecap="butt" d="m402.40207 19.577427l166.02078 0c2.805359 0 5.4957886 1.1144276 7.479492 3.0981197c1.9837036 1.9836922 3.0981445 4.674156 3.0981445 7.479521l0 52.886925l-176.59842 0z" fill-rule="evenodd"/><path fill="#000000" d="m466.69977 47.22971l-2.390625 0l0 -1.421875q-0.59375 0.828125 -1.40625 1.234375q-0.796875 0.40625 -1.609375 0.40625q-1.671875 0 -2.859375 -1.34375q-1.1875 -1.34375 -1.1875 -3.75q0 -2.453125 1.15625 -3.734375q1.15625 -1.28125 2.921875 -1.28125q1.625 0 2.8125 1.34375l0 -4.8125l2.5625 0l0 13.359375zm-6.84375 -5.046875q0 1.546875 0.4375 2.234375q0.609375 1.015625 1.71875 1.015625q0.890625 0 1.5 -0.75q0.625 -0.765625 0.625 -2.25q0 -1.671875 -0.609375 -2.40625q-0.59375 -0.734375 -1.53125 -0.734375q-0.90625 0 -1.53125 0.734375q-0.609375 0.71875 -0.609375 2.15625zm14.958466 1.96875l2.546875 0.421875q-0.484375 1.40625 -1.546875 2.140625q-1.0625 0.734375 -2.65625 0.734375q-2.515625 0 -3.734375 -1.65625q-0.953125 -1.3125 -0.953125 -3.328125q0 -2.40625 1.25 -3.765625q1.265625 -1.359375 3.1875 -1.359375q2.15625 0 3.40625 1.421875q1.25 1.421875 1.1875 4.375l-6.40625 0q0.03125 1.140625 0.609375 1.78125q0.59375 0.625 1.484375 0.625q0.59375 0 1.0 -0.328125q0.421875 -0.328125 0.625 -1.0625zm0.15625 -2.59375q-0.03125 -1.109375 -0.578125 -1.6875q-0.546875 -0.578125 -1.328125 -0.578125q-0.84375 0 -1.390625 0.609375q-0.546875 0.609375 -0.53125 1.65625l3.828125 0zm13.063232 -1.140625l-2.53125 0.453125q-0.125 -0.75 -0.578125 -1.125q-0.453125 -0.390625 -1.171875 -0.390625q-0.953125 0 -1.53125 0.65625q-0.5625 0.65625 -0.5625 2.203125q0 1.734375 0.578125 2.4375q0.578125 0.703125 1.546875 0.703125q0.734375 0 1.203125 -0.40625q0.46875 -0.421875 0.65625 -1.421875l2.515625 0.421875q-0.390625 1.734375 -1.515625 2.625q-1.109375 0.875 -2.96875 0.875q-2.125 0 -3.390625 -1.328125q-1.25 -1.34375 -1.25 -3.71875q0 -2.390625 1.265625 -3.71875q1.265625 -1.34375 3.421875 -1.34375q1.765625 0 2.796875 0.765625q1.046875 0.75 1.515625 2.3125zm1.9382019 6.8125l0 -13.359375l2.5625 0l0 13.359375l-2.5625 0zm7.089569 -6.71875l-2.328125 -0.421875q0.40625 -1.40625 1.359375 -2.078125q0.953125 -0.671875 2.84375 -0.671875q1.703125 0 2.546875 0.40625q0.84375 0.40625 1.171875 1.03125q0.34375 0.625 0.34375 2.28125l-0.015625 3.0q0 1.265625 0.109375 1.875q0.125 0.609375 0.46875 1.296875l-2.53125 0q-0.109375 -0.25 -0.25 -0.75q-0.0625 -0.234375 -0.09375 -0.3125q-0.65625 0.640625 -1.40625 0.96875q-0.734375 0.3125 -1.59375 0.3125q-1.484375 0 -2.34375 -0.8125q-0.859375 -0.8125 -0.859375 -2.046875q0 -0.828125 0.390625 -1.46875q0.390625 -0.640625 1.09375 -0.96875q0.703125 -0.34375 2.03125 -0.609375q1.796875 -0.328125 2.484375 -0.625l0 -0.25q0 -0.75 -0.359375 -1.0625q-0.359375 -0.3125 -1.375 -0.3125q-0.6875 0 -1.078125 0.28125q-0.375 0.265625 -0.609375 0.9375zm3.421875 2.078125q-0.484375 0.15625 -1.5625 0.390625q-1.0625 0.21875 -1.390625 0.4375q-0.5 0.359375 -0.5 0.90625q0 0.53125 0.40625 0.9375q0.40625 0.390625 1.015625 0.390625q0.703125 0 1.328125 -0.46875q0.46875 -0.34375 0.609375 -0.84375q0.09375 -0.328125 0.09375 -1.25l0 -0.5zm7.500702 4.640625l-2.5625 0l0 -9.671875l2.375 0l0 1.375q0.609375 -0.984375 1.09375 -1.28125q0.484375 -0.3125 1.109375 -0.3125q0.875 0 1.6875 0.484375l-0.796875 2.234375q-0.640625 -0.421875 -1.203125 -0.421875q-0.53125 0 -0.90625 0.296875q-0.375 0.296875 -0.59375 1.078125q-0.203125 0.765625 -0.203125 3.234375l0 2.984375zm10.400879 -3.078125l2.546875 0.421875q-0.484375 1.40625 -1.546875 2.140625q-1.0625 0.734375 -2.65625 0.734375q-2.515625 0 -3.734375 -1.65625q-0.953125 -1.3125 -0.953125 -3.328125q0 -2.40625 1.25 -3.765625q1.265625 -1.359375 3.1875 -1.359375q2.15625 0 3.40625 1.421875q1.25 1.421875 1.1875 4.375l-6.40625 0q0.03125 1.140625 0.609375 1.78125q0.59375 0.625 1.484375 0.625q0.59375 0 1.0 -0.328125q0.421875 -0.328125 0.625 -1.0625zm0.15625 -2.59375q-0.03125 -1.109375 -0.578125 -1.6875q-0.546875 -0.578125 -1.328125 -0.578125q-0.84375 0 -1.390625 0.609375q-0.546875 0.609375 -0.53125 1.65625l3.828125 0z" fill-rule="nonzero"/><path fill="#000000" d="m464.05112 69.22971l0 -13.359379l2.5625 0l0 13.359379l-2.5625 0zm4.5895386 -4.96875q0 -1.2812538 0.625 -2.4687538q0.625 -1.203125 1.78125 -1.828125q1.15625 -0.625 2.578125 -0.625q2.1875 0 3.59375 1.421875q1.40625 1.421875 1.40625 3.6093788q0 2.1875 -1.421875 3.640625q-1.421875 1.4375 -3.5625 1.4375q-1.328125 0 -2.546875 -0.59375q-1.203125 -0.609375 -1.828125 -1.765625q-0.625 -1.171875 -0.625 -2.828125zm2.625 0.125q0 1.453125 0.671875 2.21875q0.6875 0.75 1.6875 0.75q1.0 0 1.671875 -0.75q0.6875 -0.765625 0.6875 -2.234375q0 -1.4218788 -0.6875 -2.1875038q-0.671875 -0.765625 -1.671875 -0.765625q-1.0 0 -1.6875 0.765625q-0.671875 0.765625 -0.671875 2.2031288zm17.802246 -1.9687538l-2.53125 0.453125q-0.125 -0.75 -0.578125 -1.125q-0.453125 -0.390625 -1.171875 -0.390625q-0.953125 0 -1.53125 0.65625q-0.5625 0.65625 -0.5625 2.2031288q0 1.734375 0.578125 2.4375q0.578125 0.703125 1.546875 0.703125q0.734375 0 1.203125 -0.40625q0.46875 -0.421875 0.65625 -1.421875l2.515625 0.421875q-0.390625 1.734375 -1.515625 2.625q-1.109375 0.875 -2.96875 0.875q-2.125 0 -3.390625 -1.328125q-1.25 -1.34375 -1.25 -3.71875q0 -2.3906288 1.265625 -3.7187538q1.265625 -1.34375 3.421875 -1.34375q1.765625 0 2.796875 0.765625q1.046875 0.75 1.515625 2.3125zm3.844452 0.09375l-2.328125 -0.421875q0.40625 -1.40625 1.359375 -2.078125q0.953125 -0.671875 2.84375 -0.671875q1.703125 0 2.546875 0.40625q0.84375 0.40625 1.171875 1.03125q0.34375 0.625 0.34375 2.28125l-0.015625 3.0000038q0 1.265625 0.109375 1.875q0.125 0.609375 0.46875 1.296875l-2.53125 0q-0.109375 -0.25 -0.25 -0.75q-0.0625 -0.234375 -0.09375 -0.3125q-0.65625 0.640625 -1.40625 0.96875q-0.734375 0.3125 -1.59375 0.3125q-1.484375 0 -2.34375 -0.8125q-0.859375 -0.8125 -0.859375 -2.046875q0 -0.828125 0.390625 -1.46875q0.390625 -0.640625 1.09375 -0.96875q0.703125 -0.3437538 2.03125 -0.6093788q1.796875 -0.328125 2.484375 -0.625l0 -0.25q0 -0.75 -0.359375 -1.0625q-0.359375 -0.3125 -1.375 -0.3125q-0.6875 0 -1.078125 0.28125q-0.375 0.265625 -0.609375 0.9375zm3.421875 2.0781288q-0.484375 0.15625 -1.5625 0.390625q-1.0625 0.21875 -1.390625 0.4375q-0.5 0.359375 -0.5 0.90625q0 0.53125 0.40625 0.9375q0.40625 0.390625 1.015625 0.390625q0.703125 0 1.328125 -0.46875q0.46875 -0.34375 0.609375 -0.84375q0.09375 -0.328125 0.09375 -1.25l0 -0.5zm5.0476074 4.640625l0 -13.359379l2.5625 0l0 13.359379l-2.5625 0zm4.2770386 -2.765625l2.5625 -0.390625q0.171875 0.75 0.671875 1.140625q0.5 0.390625 1.40625 0.390625q0.984375 0 1.484375 -0.375q0.34375 -0.25 0.34375 -0.671875q0 -0.296875 -0.1875 -0.484375q-0.1875 -0.1875 -0.859375 -0.34375q-3.09375 -0.6875 -3.921875 -1.25q-1.140625 -0.7812538 -1.140625 -2.1718788q0 -1.265625 0.984375 -2.109375q1.0 -0.859375 3.078125 -0.859375q1.984375 0 2.953125 0.65625q0.96875 0.640625 1.328125 1.90625l-2.40625 0.4375q-0.15625 -0.5625 -0.59375 -0.859375q-0.421875 -0.296875 -1.234375 -0.296875q-1.0 0 -1.4375 0.28125q-0.296875 0.203125 -0.296875 0.515625q0 0.265625 0.25 0.46875q0.34375 0.25 2.390625 0.71875q2.046875 0.453125 2.859375 1.1406288q0.796875 0.671875 0.796875 1.890625q0 1.34375 -1.109375 2.296875q-1.109375 0.953125 -3.28125 0.953125q-1.984375 0 -3.140625 -0.796875q-1.140625 -0.8125 -1.5 -2.1875z" fill-rule="nonzero"/><path fill="#000000" fill-opacity="0.0" d="m490.70126 83.04199l0 25.826256l0.06298828 0l0 25.827293" fill-rule="evenodd"/><path stroke="#00ff00" stroke-width="2.0" stroke-linejoin="round" stroke-linecap="butt" d="m490.7013 83.04199l0 25.826263l0.06298828 0l0 13.827286" fill-rule="evenodd"/><path fill="#00ff00" stroke="#00ff00" stroke-width="2.0" stroke-linecap="butt" d="m487.46082 122.69554l3.3034668 9.076187l3.3034668 -9.076187z" fill-rule="evenodd"/><path fill="#000000" fill-opacity="0.0" d="m322.60892 515.18243l34.003418 0l0 0.06298828l33.996582 0" fill-rule="evenodd"/><path stroke="#00ff00" stroke-width="2.0" stroke-linejoin="round" stroke-linecap="butt" stroke-dasharray="8.0,6.0" d="m322.60892 515.18243l34.003418 0l0 0.06298828l21.996582 0" fill-rule="evenodd"/><path fill="#00ff00" stroke="#00ff00" stroke-width="2.0" stroke-linecap="butt" d="m378.60892 518.5489l9.076202 -3.3034668l-9.076202 -3.3034668z" fill-rule="evenodd"/><path fill="#000000" fill-opacity="0.0" d="m402.3689 303.20013l-41.729767 0l0 -142.4567l25.00534 0" fill-rule="evenodd"/><path stroke="#00ff00" stroke-width="2.0" stroke-linejoin="round" stroke-linecap="butt" d="m402.3689 303.20013l-41.729736 0l0 -142.4567l13.00531 0" fill-rule="evenodd"/><path fill="#00ff00" stroke="#00ff00" stroke-width="2.0" stroke-linecap="butt" d="m373.64447 164.0469l9.076202 -3.3034668l-9.076202 -3.3034668z" fill-rule="evenodd"/><path fill="#d9d9d9" d="m330.63553 266.01636c0 0.6107178 0.18560791 1.1713867 0.55688477 1.6819458c0.37124634 0.5073242 1.1395264 1.0614929 2.30484 1.6625366l-2.4904785 0l0 2.3556824l16.427979 0l0 -2.6174316l-8.600708 0c-1.1756592 0 -2.2584534 -0.14538574 -3.2484741 -0.43621826c-0.6496887 -0.19387817 -1.1567383 -0.51864624 -1.5211182 -0.9742737c-0.36779785 -0.45562744 -0.5517273 -0.9694214 -0.5517273 -1.5413818c0 -0.639801 0.20111084 -1.2796326 0.603302 -1.9194336l-2.583313 -0.9015808c-0.59814453 0.9112549 -0.8971863 1.8079834 -0.8971863 2.690155z" fill-rule="evenodd"/><path fill="#d9d9d9" d="m332.92493 255.4012c0 -1.3281097 0.5362549 -2.4090118 1.6087646 -3.2427063c0.6909485 -0.5428772 1.727356 -0.8724823 3.109253 -0.9888153l0 8.622986c-1.4334717 -0.087249756 -2.5781555 -0.53964233 -3.4341125 -1.3571777c-0.85595703 -0.82077026 -1.283905 -1.8322144 -1.283905 -3.0342865zm-2.2893982 0.029083252c0 2.1327362 0.76312256 3.8679962 2.2893982 5.2057953c1.5262451 1.3377991 3.6712646 2.0066833 6.4350586 2.0066833c2.6709595 0 4.747223 -0.66082764 6.228821 -1.9824524c1.4781189 -1.3248901 2.2171936 -3.1166992 2.2171936 -5.3754425c0 -1.7934265 -0.4640503 -3.2669373 -1.3922119 -4.4205475c-0.9281311 -1.1536102 -2.232666 -1.9436951 -3.9136353 -2.3702393l-0.35577393 2.7046814c1.1756287 0.39746094 2.0315857 0.9355011 2.5678406 1.61409c0.5362549 0.67858887 0.8043823 1.497757 0.8043823 2.4574738c0 1.2893372 -0.4795227 2.365387 -1.4385986 3.22818c-0.9590759 0.86276245 -2.340973 1.3426514 -4.1456604 1.4395752l0 -11.516708c-0.3300171 -0.009689331 -0.57751465 -0.014541626 -0.7425232 -0.014541626c-2.7122192 0 -4.815979 0.6543579 -6.31131 1.9630737c-1.4953308 1.3087311 -2.242981 2.995514 -2.242981 5.060379z" fill-rule="evenodd"/><path fill="#d9d9d9" d="m332.81662 238.59146c0 -1.124527 0.520813 -2.0907135 1.5623779 -2.8985596c1.041565 -0.81108093 2.6090698 -1.216629 4.702545 -1.216629c2.1965942 0 3.8190918 0.41523743 4.8675537 1.245697c1.0450134 0.82724 1.5675049 1.8225098 1.5675049 2.9858246c0 1.1439056 -0.50531006 2.1181793 -1.5159607 2.9227905c-1.0106201 0.80462646 -2.572998 1.2069397 -4.6870728 1.2069397c-2.1140747 0 -3.7245483 -0.42816162 -4.8314514 -1.2844849c-1.110321 -0.8595581 -1.6654968 -1.8467407 -1.6654968 -2.9615784zm-2.1810913 -0.24720764c0 1.008194 0.20968628 1.8661346 0.62905884 2.5738068c0.4159546 0.7076874 1.041565 1.3426514 1.8768921 1.9049225l-2.1347046 0l0 2.3847656l22.723816 0l0 -2.6174316l-7.9974365 0c0.59814453 -0.4459381 1.0931396 -1.0146637 1.4850159 -1.7061768c0.39190674 -0.6947479 0.5878296 -1.478363 0.5878296 -2.3508453c0 -1.1923828 -0.35751343 -2.3282166 -1.0725098 -3.4075165c-0.7184448 -1.0825195 -1.7496948 -1.9065247 -3.0937805 -2.4720154c-1.3475037 -0.5687256 -2.8617554 -0.8530884 -4.542694 -0.8530884c-1.5675354 0 -3.007843 0.25689697 -4.320984 0.7706909c-1.3165894 0.51379395 -2.3358154 1.2747803 -3.0576782 2.2829742c-0.7218933 1.0082092 -1.0828247 2.1715088 -1.0828247 3.489914z" fill-rule="evenodd"/><path fill="#d9d9d9" d="m332.92493 222.27612c0 -1.3281097 0.5362549 -2.4090118 1.6087646 -3.2427063c0.6909485 -0.5428772 1.727356 -0.8724823 3.109253 -0.9888153l0 8.623001c-1.4334717 -0.087249756 -2.5781555 -0.5396576 -3.4341125 -1.357193c-0.85595703 -0.82077026 -1.283905 -1.8321991 -1.283905 -3.0342865zm-2.2893982 0.029083252c0 2.132721 0.76312256 3.867981 2.2893982 5.20578c1.5262451 1.3377991 3.6712646 2.0066986 6.4350586 2.0066986c2.6709595 0 4.747223 -0.6608124 6.228821 -1.9824524c1.4781189 -1.3248749 2.2171936 -3.116684 2.2171936 -5.3754425c0 -1.7934265 -0.4640503 -3.2669373 -1.3922119 -4.4205475c-0.9281311 -1.1536102 -2.232666 -1.9436951 -3.9136353 -2.3702393l-0.35577393 2.7046814c1.1756287 0.39746094 2.0315857 0.9355011 2.5678406 1.61409c0.5362549 0.67858887 0.8043823 1.497757 0.8043823 2.4574738c0 1.2893372 -0.4795227 2.365387 -1.4385986 3.2281647c-0.9590759 0.86279297 -2.340973 1.3426514 -4.1456604 1.4395905l0 -11.516708c-0.3300171 -0.009689331 -0.57751465 -0.014541626 -0.7425232 -0.014541626c-2.7122192 0 -4.815979 0.6543579 -6.31131 1.9630737c-1.4953308 1.3087311 -2.242981 2.995514 -2.242981 5.060379z" fill-rule="evenodd"/><path fill="#d9d9d9" d="m339.18982 202.22368l1.020935 0c1.2272034 0 2.1553345 0.14056396 2.7844238 0.4216919c0.81469727 0.3683777 1.4575195 0.9451904 1.9284363 1.7304077c0.4675293 0.78523254 0.7012634 1.6819458 0.7012634 2.690155c0 1.0178833 -0.24749756 1.7918091 -0.7424927 2.3217468c-0.49502563 0.52671814 -1.1137695 0.79008484 -1.8562622 0.79008484c-0.4847107 0 -0.92471313 -0.1211853 -1.3200378 -0.36354065c-0.39874268 -0.24235535 -0.7012329 -0.5864868 -0.9075012 -1.0324249c-0.2062378 -0.4459381 -0.39187622 -1.2069244 -0.55688477 -2.2829895c-0.28875732 -1.9000549 -0.6393738 -3.3251038 -1.0518799 -4.275131zm-8.554291 3.329956c0 1.3280945 0.19421387 2.4962463 0.5826416 3.5044556c0.38500977 1.008194 0.93673706 1.7788849 1.6551819 2.3120575c0.71499634 0.53318787 1.6551819 0.9161072 2.8204956 1.1487579l0.37124634 -2.5592651c-1.1653137 -0.28112793 -1.9765625 -0.71414185 -2.4337769 -1.2990265c-0.46063232 -0.58810425 -0.69091797 -1.4977417 -0.69091797 -2.7289124c0 -1.3184052 0.31451416 -2.3120575 0.9436035 -2.980957c0.4640503 -0.49441528 1.2632751 -0.74160767 2.3976746 -0.74160767c0.1031189 0 0.34545898 0.004837036 0.72702026 0.014541626c0.37127686 0.99850464 0.6909485 2.5544128 0.9590759 4.667755c0.13406372 1.0372772 0.2732849 1.8128052 0.41766357 2.3265991c0.20626831 0.6979828 0.5104675 1.3264923 0.9126587 1.8855286c0.40219116 0.5558014 0.93673706 1.0065765 1.6036072 1.3523407c0.66345215 0.3425293 1.3973694 0.51379395 2.2017517 0.51379395c1.371582 0 2.4990845 -0.45562744 3.3825378 -1.3668823c0.8800049 -0.9112549 1.3200073 -2.2151337 1.3200073 -3.9116058c0 -1.0275879 -0.18048096 -1.9889374 -0.54141235 -2.8840332c-0.3609314 -0.8983307 -0.9797058 -1.8321991 -1.8562622 -2.8016205c0.7734375 -0.077560425 1.4489136 -0.25204468 2.0264282 -0.5234833l0 -2.7337646c-0.62908936 0.3296051 -1.2856445 0.5509491 -1.9697266 0.66404724c-0.6875 0.10986328 -2.32547 0.16481018 -4.9139404 0.16481018l-3.7125244 0c-1.2375183 0 -2.0934753 0.043624878 -2.5678406 0.13085938c-0.7631531 0.15510559 -1.3939209 0.4265442 -1.8923645 0.8143158c-0.5018921 0.3877716 -0.91781616 0.99365234 -1.2478333 1.8176575c-0.3300171 0.8240204 -0.49499512 1.8952179 -0.49499512 3.2136383z" fill-rule="evenodd"/><path fill="#d9d9d9" d="m325.26782 192.43738l1.6706238 2.60289l4.068329 0l0 1.9194489l2.1656494 0l0 -1.9194489l9.451508 0c1.6706238 0 2.767212 -0.10662842 3.2897034 -0.3199005c0.5190735 -0.2132721 0.93844604 -0.5816498 1.2581482 -1.1051483c0.31967163 -0.5234833 0.4795227 -1.2602386 0.4795227 -2.210266c0 -0.5816498 -0.08248901 -1.24086 -0.24749756 -1.9776154l-2.4595642 0.37806702c0.07220459 0.47502136 0.108306885 0.8579407 0.108306885 1.1487579c0 0.3877716 -0.06704712 0.686676 -0.20111084 0.89671326c-0.13406372 0.20681763 -0.31454468 0.35707092 -0.54141235 0.4507904c-0.22686768 0.09046936 -0.7373352 0.13571167 -1.5314331 0.13571167l-9.606171 0l0 -2.6319733l-2.1656494 0l0 2.6319733l-5.7389526 0z" fill-rule="evenodd"/></g></svg>