<svg version="1.1" viewBox="0.0 0.0 384.0 384.0" fill="none" stroke="none" stroke-linecap="square" stroke-miterlimit="10" xmlns:xlink="http://www.w3.org/1999/xlink" xmlns="http://www.w3.org/2000/svg"><clipPath id="p.0"><path d="m0 0l384.0 0l0 384.0l-384.0 0l0 -384.0z" clip-rule="nonzero"/></clipPath><g clip-path="url(#p.0)"><path fill="#000000" fill-opacity="0.0" d="m0 0l384.0 0l0 384.0l-384.0 0z" fill-rule="evenodd"/><path fill="#434343" d="m0 0l384.0 0l0 384.0l-384.0 0z" fill-rule="evenodd"/><path stroke="#434343" stroke-width="4.0" stroke-linejoin="round" stroke-linecap="butt" d="m0 0l384.0 0l0 384.0l-384.0 0z" fill-rule="evenodd"/><path fill="#ffd966" d="m126.31048 154.26657l162.22556 0c2.116211 0 4.145752 0.84065247 5.6421204 2.3370361c1.4963989 1.4963837 2.3370361 3.5259247 2.3370361 5.6421204l0 39.89485l-170.20471 0z" fill-rule="evenodd"/><path stroke="#b45f06" stroke-width="2.0" stroke-linejoin="round" stroke-linecap="butt" d="m126.31048 154.26657l162.22556 0c2.116211 0 4.145752 0.84065247 5.6421204 2.3370361c1.4963989 1.4963837 2.3370361 3.5259247 2.3370361 5.6421204l0 39.89485l-170.20471 0z" fill-rule="evenodd"/><path fill="#000000" d="m164.06026 183.00357l-1.828125 0l0 -6.90625l1.703125 0l0 0.984375q0.4375 -0.703125 0.78125 -0.921875q0.34375 -0.21875 0.796875 -0.21875q0.625 0 1.203125 0.34375l-0.5625 1.59375q-0.46875 -0.296875 -0.859375 -0.296875q-0.390625 0 -0.65625 0.21875q-0.265625 0.203125 -0.421875 0.765625q-0.15625 0.546875 -0.15625 2.296875l0 2.140625zm7.436783 -2.203125l1.828125 0.3125q-0.34375 1.0 -1.109375 1.53125q-0.765625 0.515625 -1.890625 0.515625q-1.8125 0 -2.671875 -1.171875q-0.6875 -0.953125 -0.6875 -2.390625q0 -1.71875 0.890625 -2.6875q0.90625 -0.96875 2.28125 -0.96875q1.546875 0 2.4375 1.015625q0.890625 1.015625 0.84375 3.125l-4.578125 0q0.015625 0.8125 0.4375 1.265625q0.421875 0.453125 1.0625 0.453125q0.421875 0 0.71875 -0.234375q0.296875 -0.234375 0.4375 -0.765625zm0.109375 -1.84375q-0.015625 -0.796875 -0.40625 -1.203125q-0.390625 -0.421875 -0.953125 -0.421875q-0.59375 0 -0.984375 0.4375q-0.390625 0.4375 -0.390625 1.1875l2.734375 0zm3.2562256 -2.859375l1.703125 0l0 1.015625q0.328125 -0.53125 0.890625 -0.84375q0.578125 -0.328125 1.265625 -0.328125q1.203125 0 2.03125 0.9375q0.84375 0.9375 0.84375 2.625q0 1.734375 -0.84375 2.703125q-0.84375 0.953125 -2.046875 0.953125q-0.578125 0 -1.046875 -0.21875q-0.453125 -0.234375 -0.96875 -0.796875l0 3.484375l-1.828125 0l0 -9.53125zm1.8125 3.328125q0 1.171875 0.453125 1.734375q0.46875 0.546875 1.125 0.546875q0.640625 0 1.0625 -0.5q0.421875 -0.515625 0.421875 -1.6875q0 -1.078125 -0.4375 -1.609375q-0.4375 -0.53125 -1.078125 -0.53125q-0.671875 0 -1.109375 0.515625q-0.4375 0.515625 -0.4375 1.53125zm10.375732 1.375l1.828125 0.3125q-0.34375 1.0 -1.109375 1.53125q-0.765625 0.515625 -1.890625 0.515625q-1.8125 0 -2.671875 -1.171875q-0.6875 -0.953125 -0.6875 -2.390625q0 -1.71875 0.890625 -2.6875q0.90625 -0.96875 2.28125 -0.96875q1.546875 0 2.4375 1.015625q0.890625 1.015625 0.84375 3.125l-4.578125 0q0.015625 0.8125 0.4375 1.265625q0.421875 0.453125 1.0625 0.453125q0.421875 0 0.71875 -0.234375q0.296875 -0.234375 0.4375 -0.765625zm0.109375 -1.84375q-0.015625 -0.796875 -0.40625 -1.203125q-0.390625 -0.421875 -0.953125 -0.421875q-0.59375 0 -0.984375 0.4375q-0.390625 0.4375 -0.390625 1.1875l2.734375 0zm6.4749756 -2.859375l0 1.453125l-1.25 0l0 2.78125q0 0.84375 0.03125 0.984375q0.046875 0.140625 0.171875 0.234375q0.125 0.09375 0.3125 0.09375q0.25 0 0.734375 -0.171875l0.15625 1.421875q-0.640625 0.265625 -1.453125 0.265625q-0.484375 0 -0.890625 -0.15625q-0.390625 -0.171875 -0.578125 -0.4375q-0.1875 -0.265625 -0.265625 -0.71875q-0.046875 -0.3125 -0.046875 -1.28125l0 -3.015625l-0.84375 0l0 -1.453125l0.84375 0l0 -1.375l1.828125 -1.078125l0 2.453125l1.25 0zm1.2664948 -0.9375l0 -1.703125l1.828125 0l0 1.703125l-1.828125 0zm0 7.84375l0 -6.90625l1.828125 0l0 6.90625l-1.828125 0zm6.8748627 -6.90625l0 1.453125l-1.25 0l0 2.78125q0 0.84375 0.03125 0.984375q0.046875 0.140625 0.171875 0.234375q0.125 0.09375 0.3125 0.09375q0.25 0 0.734375 -0.171875l0.15625 1.421875q-0.640625 0.265625 -1.453125 0.265625q-0.484375 0 -0.890625 -0.15625q-0.390625 -0.171875 -0.578125 -0.4375q-0.1875 -0.265625 -0.265625 -0.71875q-0.046875 -0.3125 -0.046875 -1.28125l0 -3.015625l-0.84375 0l0 -1.453125l0.84375 0l0 -1.375l1.828125 -1.078125l0 2.453125l1.25 0zm1.2664948 -0.9375l0 -1.703125l1.828125 0l0 1.703125l-1.828125 0zm0 7.84375l0 -6.90625l1.828125 0l0 6.90625l-1.828125 0zm5.6092377 0l-2.78125 -6.90625l1.90625 0l1.3125 3.515625l0.375 1.1875q0.140625 -0.453125 0.1875 -0.59375q0.09375 -0.296875 0.1875 -0.59375l1.328125 -3.515625l1.875 0l-2.75 6.90625l-1.640625 0zm9.506226 -2.203125l1.828125 0.3125q-0.34375 1.0 -1.109375 1.53125q-0.765625 0.515625 -1.890625 0.515625q-1.8125 0 -2.671875 -1.171875q-0.6875 -0.953125 -0.6875 -2.390625q0 -1.71875 0.890625 -2.6875q0.90625 -0.96875 2.28125 -0.96875q1.546875 0 2.4375 1.015625q0.890625 1.015625 0.84375 3.125l-4.578125 0q0.015625 0.8125 0.4375 1.265625q0.421875 0.453125 1.0625 0.453125q0.421875 0 0.71875 -0.234375q0.296875 -0.234375 0.4375 -0.765625zm0.109375 -1.84375q-0.015625 -0.796875 -0.40625 -1.203125q-0.390625 -0.421875 -0.953125 -0.421875q-0.59375 0 -0.984375 0.4375q-0.390625 0.4375 -0.390625 1.1875l2.734375 0zm6.9279633 4.046875l0 -9.546875l1.828125 0l0 3.4375q0.84375 -0.953125 2.015625 -0.953125q1.25 0 2.078125 0.921875q0.828125 0.90625 0.828125 2.609375q0 1.78125 -0.84375 2.734375q-0.84375 0.953125 -2.046875 0.953125q-0.59375 0 -1.171875 -0.296875q-0.5625 -0.296875 -0.984375 -0.875l0 1.015625l-1.703125 0zm1.8125 -3.609375q0 1.078125 0.34375 1.59375q0.46875 0.734375 1.265625 0.734375q0.609375 0 1.03125 -0.515625q0.421875 -0.53125 0.421875 -1.640625q0 -1.1875 -0.4375 -1.703125q-0.421875 -0.53125 -1.09375 -0.53125q-0.65625 0 -1.09375 0.515625q-0.4375 0.515625 -0.4375 1.546875zm6.4069824 3.609375l0 -9.546875l1.828125 0l0 9.546875l-1.828125 0zm3.2811127 -3.546875q0 -0.921875 0.453125 -1.765625q0.453125 -0.859375 1.265625 -1.296875q0.828125 -0.453125 1.84375 -0.453125q1.5625 0 2.5625 1.015625q1.015625 1.015625 1.015625 2.578125q0 1.5625 -1.015625 2.59375q-1.015625 1.03125 -2.546875 1.03125q-0.953125 0 -1.8125 -0.421875q-0.859375 -0.4375 -1.3125 -1.265625q-0.453125 -0.828125 -0.453125 -2.015625zm1.875 0.09375q0 1.03125 0.484375 1.578125q0.5 0.546875 1.203125 0.546875q0.71875 0 1.203125 -0.546875q0.484375 -0.546875 0.484375 -1.59375q0 -1.015625 -0.484375 -1.5625q-0.484375 -0.546875 -1.203125 -0.546875q-0.703125 0 -1.203125 0.546875q-0.484375 0.546875 -0.484375 1.578125zm12.719482 -1.421875l-1.796875 0.328125q-0.09375 -0.53125 -0.421875 -0.796875q-0.328125 -0.28125 -0.828125 -0.28125q-0.6875 0 -1.09375 0.46875q-0.40625 0.46875 -0.40625 1.578125q0 1.234375 0.40625 1.75q0.421875 0.5 1.109375 0.5q0.53125 0 0.859375 -0.296875q0.328125 -0.296875 0.46875 -1.03125l1.796875 0.3125q-0.28125 1.234375 -1.078125 1.875q-0.796875 0.625 -2.125 0.625q-1.515625 0 -2.421875 -0.953125q-0.90625 -0.953125 -0.90625 -2.65625q0 -1.703125 0.90625 -2.65625q0.90625 -0.953125 2.453125 -0.953125q1.265625 0 2.0 0.546875q0.75 0.53125 1.078125 1.640625zm1.3187256 4.875l0 -9.546875l1.828125 0l0 5.0625l2.140625 -2.421875l2.25 0l-2.359375 2.515625l2.53125 4.390625l-1.96875 0l-1.734375 -3.109375l-0.859375 0.890625l0 2.21875l-1.828125 0z" fill-rule="nonzero"/><path fill="#ffd966" d="m126.34012 262.93066l85.102356 -29.007889l85.102356 29.007889l-85.102356 29.007874z" fill-rule="evenodd"/><path stroke="#b45f06" stroke-width="2.0" stroke-linejoin="round" stroke-linecap="butt" d="m126.34012 262.93066l85.102356 -29.007889l85.102356 29.007889l-85.102356 29.007874z" fill-rule="evenodd"/><path fill="#000000" d="m186.14494 262.65128l-1.96875 0.359375q-0.109375 -0.59375 -0.46875 -0.890625q-0.34375 -0.296875 -0.90625 -0.296875q-0.75 0 -1.203125 0.515625q-0.453125 0.515625 -0.453125 1.734375q0 1.359375 0.453125 1.921875q0.453125 0.546875 1.21875 0.546875q0.578125 0 0.9375 -0.328125q0.375 -0.328125 0.515625 -1.109375l1.984375 0.328125q-0.3125 1.359375 -1.1875 2.0625q-0.875 0.6875 -2.328125 0.6875q-1.671875 0 -2.671875 -1.046875q-0.984375 -1.0625 -0.984375 -2.921875q0 -1.875 0.984375 -2.921875q1.0 -1.046875 2.703125 -1.046875q1.390625 0 2.203125 0.59375q0.828125 0.59375 1.171875 1.8125zm1.0729828 1.453125q0 -1.0 0.484375 -1.9375q0.5 -0.9375 1.40625 -1.421875q0.90625 -0.5 2.015625 -0.5q1.71875 0 2.828125 1.125q1.109375 1.109375 1.109375 2.8125q0 1.734375 -1.125 2.875q-1.109375 1.125 -2.796875 1.125q-1.046875 0 -2.0 -0.46875q-0.9375 -0.46875 -1.4375 -1.375q-0.484375 -0.921875 -0.484375 -2.234375zm2.046875 0.109375q0 1.125 0.53125 1.734375q0.546875 0.59375 1.34375 0.59375q0.78125 0 1.3125 -0.59375q0.53125 -0.609375 0.53125 -1.75q0 -1.125 -0.53125 -1.71875q-0.53125 -0.609375 -1.3125 -0.609375q-0.796875 0 -1.34375 0.609375q-0.53125 0.59375 -0.53125 1.734375zm14.280746 3.796875l-2.015625 0l0 -3.875q0 -1.234375 -0.125 -1.59375q-0.125 -0.359375 -0.421875 -0.5625q-0.296875 -0.203125 -0.703125 -0.203125q-0.515625 0 -0.9375 0.296875q-0.40625 0.28125 -0.5625 0.75q-0.15625 0.46875 -0.15625 1.75l0 3.4375l-2.015625 0l0 -7.59375l1.875 0l0 1.109375q1.0 -1.28125 2.5 -1.28125q0.671875 0 1.21875 0.234375q0.546875 0.234375 0.828125 0.609375q0.296875 0.375 0.40625 0.84375q0.109375 0.46875 0.109375 1.359375l0 4.71875zm8.999496 0l-1.859375 0l0 -1.109375q-0.46875 0.640625 -1.109375 0.96875q-0.625 0.3125 -1.265625 0.3125q-1.3125 0 -2.25 -1.046875q-0.9375 -1.0625 -0.9375 -2.953125q0 -1.9375 0.90625 -2.9375q0.921875 -1.0 2.3125 -1.0q1.265625 0 2.203125 1.046875l0 -3.765625l2.0 0l0 10.484375zm-5.359375 -3.96875q0 1.21875 0.328125 1.765625q0.5 0.78125 1.359375 0.78125q0.703125 0 1.1875 -0.578125q0.484375 -0.59375 0.484375 -1.765625q0 -1.3125 -0.46875 -1.890625q-0.46875 -0.578125 -1.203125 -0.578125q-0.71875 0 -1.203125 0.578125q-0.484375 0.5625 -0.484375 1.6875zm7.3432465 -4.65625l0 -1.859375l2.015625 0l0 1.859375l-2.015625 0zm0 8.625l0 -7.59375l2.015625 0l0 7.59375l-2.015625 0zm7.5563507 -7.59375l0 1.59375l-1.375 0l0 3.0625q0 0.9375 0.03125 1.09375q0.046875 0.140625 0.1875 0.25q0.140625 0.09375 0.34375 0.09375q0.28125 0 0.8125 -0.1875l0.171875 1.5625q-0.703125 0.296875 -1.59375 0.296875q-0.546875 0 -0.984375 -0.171875q-0.421875 -0.1875 -0.640625 -0.46875q-0.203125 -0.296875 -0.28125 -0.796875q-0.0625 -0.359375 -0.0625 -1.421875l0 -3.3125l-0.921875 0l0 -1.59375l0.921875 0l0 -1.515625l2.015625 -1.171875l0 2.6875l1.375 0zm1.3962708 -1.03125l0 -1.859375l2.015625 0l0 1.859375l-2.015625 0zm0 8.625l0 -7.59375l2.015625 0l0 7.59375l-2.015625 0zm3.6188507 -3.90625q0 -1.0 0.484375 -1.9375q0.5 -0.9375 1.40625 -1.421875q0.90625 -0.5 2.015625 -0.5q1.71875 0 2.828125 1.125q1.109375 1.109375 1.109375 2.8125q0 1.734375 -1.125 2.875q-1.109375 1.125 -2.796875 1.125q-1.046875 0 -2.0 -0.46875q-0.9375 -0.46875 -1.4375 -1.375q-0.484375 -0.921875 -0.484375 -2.234375zm2.046875 0.109375q0 1.125 0.53125 1.734375q0.546875 0.59375 1.34375 0.59375q0.78125 0 1.3125 -0.59375q0.53125 -0.609375 0.53125 -1.75q0 -1.125 -0.53125 -1.71875q-0.53125 -0.609375 -1.3125 -0.609375q-0.796875 0 -1.34375 0.609375q-0.53125 0.59375 -0.53125 1.734375zm14.280746 3.796875l-2.015625 0l0 -3.875q0 -1.234375 -0.125 -1.59375q-0.125 -0.359375 -0.421875 -0.5625q-0.296875 -0.203125 -0.703125 -0.203125q-0.515625 0 -0.9375 0.296875q-0.40625 0.28125 -0.5625 0.75q-0.15625 0.46875 -0.15625 1.75l0 3.4375l-2.015625 0l0 -7.59375l1.875 0l0 1.109375q1.0 -1.28125 2.5 -1.28125q0.671875 0 1.21875 0.234375q0.546875 0.234375 0.828125 0.609375q0.296875 0.375 0.40625 0.84375q0.109375 0.46875 0.109375 1.359375l0 4.71875z" fill-rule="nonzero"/><path fill="#000000" fill-opacity="0.0" d="m211.41284 202.14058l0.03149414 31.779526" fill-rule="evenodd"/><path stroke="#b6d7a8" stroke-width="2.0" stroke-linejoin="round" stroke-linecap="butt" d="m211.41286 202.14058l0.019592285 19.779526" fill-rule="evenodd"/><path fill="#b6d7a8" stroke="#b6d7a8" stroke-width="2.0" stroke-linecap="butt" d="m208.129 221.92339l3.3124542 9.072922l3.294464 -9.079468z" fill-rule="evenodd"/><path fill="#000000" fill-opacity="0.0" d="m211.44247 291.93854l0 26.431l0.06300354 0l0 26.419373" fill-rule="evenodd"/><path stroke="#b6d7a8" stroke-width="2.0" stroke-linejoin="round" stroke-linecap="butt" d="m211.44249 291.93854l0 26.431l0.06298828 0l0 14.419373" fill-rule="evenodd"/><path fill="#b6d7a8" stroke="#b6d7a8" stroke-width="2.0" stroke-linecap="butt" d="m208.20201 332.7889l3.3034668 9.076202l3.3034668 -9.076202z" fill-rule="evenodd"/><path fill="#000000" fill-opacity="0.0" d="m247.08136 293.13647l0 50.456696l-27.968506 0l0 -50.456696z" fill-rule="evenodd"/><path fill="#d9ead3" d="m234.59511 299.30835l0 1.109375l0.578125 0q0.953125 0 1.421875 0.203125q0.484375 0.21875 0.78125 0.765625q0.296875 0.546875 0.296875 1.375q0 0.859375 -0.265625 1.6875l-1.390625 -0.28125q0.109375 -0.46875 0.109375 -0.921875q0 -0.4375 -0.203125 -0.625q-0.203125 -0.1875 -0.78125 -0.1875l-0.546875 0l0 1.5l-1.578125 0l0 -1.5l-6.015625 0l0 -2.015625l6.015625 0l0 -1.109375l1.578125 0zm-2.3125 7.2712708l0.328125 -1.828125q1.109375 0.296875 1.625 1.046875q0.53125 0.765625 0.53125 2.234375q0 1.359375 -0.3125 2.015625q-0.3125 0.65625 -0.8125 0.921875q-0.484375 0.265625 -1.796875 0.265625l-2.34375 -0.015625q-1.0 0 -1.484375 0.09375q-0.46875 0.09375 -1.015625 0.359375l0 -1.984375q0.203125 -0.078125 0.59375 -0.203125q0.171875 -0.046875 0.234375 -0.0625q-0.5 -0.515625 -0.75 -1.109375q-0.25 -0.578125 -0.25 -1.25q0 -1.171875 0.640625 -1.859375q0.640625 -0.671875 1.609375 -0.671875q0.640625 0 1.140625 0.3125q0.515625 0.3125 0.78125 0.859375q0.265625 0.5625 0.46875 1.609375q0.265625 1.40625 0.484375 1.953125l0.203125 0q0.578125 0 0.828125 -0.296875q0.25 -0.28125 0.25 -1.078125q0 -0.53125 -0.21875 -0.84375q-0.203125 -0.296875 -0.734375 -0.46875zm-1.625 2.6875q-0.140625 -0.390625 -0.328125 -1.234375q-0.171875 -0.828125 -0.34375 -1.09375q-0.265625 -0.390625 -0.703125 -0.390625q-0.421875 0 -0.734375 0.3125q-0.296875 0.3125 -0.296875 0.8125q0 0.53125 0.359375 1.03125q0.265625 0.359375 0.65625 0.484375q0.265625 0.078125 0.984375 0.078125l0.40625 0zm-3.65625 3.947998l10.484375 0l0 2.015625l-10.484375 0l0 -2.015625zm2.171875 3.3688354l0.296875 2.015625q-0.578125 0.125 -0.890625 0.515625q-0.296875 0.40625 -0.296875 1.109375q0 0.78125 0.28125 1.171875q0.203125 0.265625 0.546875 0.265625q0.21875 0 0.375 -0.140625q0.140625 -0.15625 0.265625 -0.671875q0.53125 -2.4375 0.984375 -3.078125q0.609375 -0.90625 1.703125 -0.90625q0.984375 0 1.65625 0.78125q0.671875 0.78125 0.671875 2.421875q0 1.546875 -0.515625 2.3125q-0.5 0.765625 -1.484375 1.046875l-0.359375 -1.90625q0.453125 -0.109375 0.6875 -0.453125q0.234375 -0.34375 0.234375 -0.96875q0 -0.796875 -0.21875 -1.140625q-0.15625 -0.234375 -0.40625 -0.234375q-0.21875 0 -0.375 0.203125q-0.203125 0.28125 -0.5625 1.875q-0.359375 1.609375 -0.890625 2.25q-0.546875 0.625 -1.5 0.625q-1.046875 0 -1.796875 -0.875q-0.75 -0.859375 -0.75 -2.578125q0 -1.546875 0.625 -2.453125q0.640625 -0.90625 1.71875 -1.1875zm0.25 13.260498l-0.34375 2.0q-1.09375 -0.375 -1.671875 -1.21875q-0.578125 -0.828125 -0.578125 -2.078125q0 -1.984375 1.296875 -2.9375q1.03125 -0.75 2.625 -0.75q1.875 0 2.9375 0.984375q1.078125 0.984375 1.078125 2.5q0 1.6875 -1.125 2.671875q-1.109375 0.984375 -3.421875 0.9375l0 -5.03125q-0.890625 0.015625 -1.390625 0.484375q-0.5 0.46875 -0.5 1.15625q0 0.46875 0.25 0.78125q0.265625 0.328125 0.84375 0.5zm2.03125 0.109375q0.875 -0.015625 1.328125 -0.453125q0.453125 -0.421875 0.453125 -1.03125q0 -0.671875 -0.484375 -1.09375q-0.46875 -0.421875 -1.296875 -0.421875l0 3.0z" fill-rule="nonzero"/><path fill="#000000" fill-opacity="0.0" d="m64.6237 233.92432l48.62992 0l0 28.314972l-48.62992 0z" fill-rule="evenodd"/><path fill="#d9ead3" d="m75.15495 246.41057l0 1.59375l-1.375 0l0 3.0625q0 0.9375 0.03125 1.09375q0.046875 0.140625 0.1875 0.25q0.140625 0.09375 0.34375 0.09375q0.28125 0 0.8125 -0.1875l0.171875 1.5625q-0.703125 0.296875 -1.59375 0.296875q-0.546875 0 -0.984375 -0.171875q-0.421875 -0.1875 -0.640625 -0.46875q-0.203125 -0.296875 -0.28125 -0.796875q-0.0625 -0.359375 -0.0625 -1.421875l0 -3.3125l-0.921875 0l0 -1.59375l0.921875 0l0 -1.515625l2.015625 -1.171875l0 2.6875l1.375 0zm3.3337708 7.59375l-2.015625 0l0 -7.59375l1.859375 0l0 1.078125q0.484375 -0.765625 0.859375 -1.0q0.390625 -0.25 0.875 -0.25q0.6875 0 1.328125 0.375l-0.625 1.75q-0.5 -0.328125 -0.9375 -0.328125q-0.421875 0 -0.71875 0.234375q-0.296875 0.234375 -0.46875 0.84375q-0.15625 0.609375 -0.15625 2.546875l0 2.34375zm8.766129 0l0 -1.140625q-0.40625 0.609375 -1.09375 0.96875q-0.671875 0.34375 -1.421875 0.34375q-0.765625 0 -1.375 -0.328125q-0.609375 -0.34375 -0.875 -0.953125q-0.265625 -0.609375 -0.265625 -1.6875l0 -4.796875l2.0 0l0 3.484375q0 1.609375 0.109375 1.96875q0.109375 0.359375 0.40625 0.578125q0.296875 0.203125 0.75 0.203125q0.515625 0 0.921875 -0.28125q0.40625 -0.28125 0.546875 -0.703125q0.15625 -0.421875 0.15625 -2.046875l0 -3.203125l2.015625 0l0 7.59375l-1.875 0zm8.358871 -2.421875l2.0 0.34375q-0.375 1.09375 -1.21875 1.671875q-0.828125 0.578125 -2.078125 0.578125q-1.984375 0 -2.9375 -1.296875q-0.75 -1.03125 -0.75 -2.625q0 -1.875 0.984375 -2.9375q0.984375 -1.078125 2.5 -1.078125q1.6875 0 2.671875 1.125q0.984375 1.109375 0.9375 3.421875l-5.03125 0q0.015625 0.890625 0.484375 1.390625q0.46875 0.5 1.15625 0.5q0.46875 0 0.78125 -0.25q0.328125 -0.265625 0.5 -0.84375zm0.109375 -2.03125q-0.015625 -0.875 -0.453125 -1.328125q-0.421875 -0.453125 -1.03125 -0.453125q-0.671875 0 -1.09375 0.484375q-0.421875 0.46875 -0.421875 1.296875l3.0 0z" fill-rule="nonzero"/><path fill="#990000" d="m14.622505 254.95804c0 0.45922852 0.13325214 0.88079834 0.3997574 1.2647095c0.2665043 0.38150024 0.8180208 0.79818726 1.6545506 1.2501526l-1.7878027 0l0 1.7713318l11.792832 0l0 -1.9681396l-6.1740265 0c-0.8439312 0 -1.6212368 -0.10934448 -2.331915 -0.32803345c-0.46638298 -0.14578247 -0.8303604 -0.38998413 -1.0919285 -0.732605c-0.2640381 -0.34259033 -0.39605713 -0.7289276 -0.39605713 -1.1590118c0 -0.48109436 0.14435768 -0.962204 0.43307114 -1.4433136l-1.8544283 -0.6779175c-0.42936897 0.6852112 -0.64405346 1.3594818 -0.64405346 2.0228271z" fill-rule="evenodd"/><path fill="#990000" d="m16.265951 246.97609c0 -0.9986572 0.38495064 -1.8114166 1.1548538 -2.4383087c0.49599457 -0.40821838 1.2399864 -0.65605164 2.2319756 -0.7435303l0 6.483963c-1.0290031 -0.06561279 -1.8507271 -0.40577698 -2.465168 -1.0205231c-0.6144409 -0.61717224 -0.9216614 -1.3777008 -0.9216614 -2.281601zm-1.643446 0.021865845c0 1.6036835 0.5478153 2.908493 1.643446 3.914444c1.0956306 1.0059357 2.635435 1.5089111 4.6194134 1.5089111c1.9173546 0 3.4078064 -0.49690247 4.4713573 -1.4906921c1.0610828 -0.9962311 1.5916252 -2.3435516 1.5916252 -4.041992c0 -1.3485565 -0.3331318 -2.456543 -0.99939346 -3.3239899c-0.6662617 -0.8674469 -1.6027279 -1.4615326 -2.8094025 -1.7822723l-0.2553997 2.0337524c0.8439312 0.2988739 1.4583721 0.7034302 1.8433228 1.2136993c0.38495064 0.5102539 0.5774269 1.1262207 0.5774269 1.8478699c0 0.9694977 -0.34423447 1.7786255 -1.0327053 2.4273834c-0.68847084 0.64875793 -1.68046 1.0095978 -2.9759693 1.082489l0 -8.659866c-0.2368927 -0.007293701 -0.41456223 -0.010940552 -0.5330086 -0.010940552c-1.9469662 0 -3.457159 0.49205017 -4.5305805 1.47612c-1.0734215 0.9840698 -1.6101322 2.2524414 -1.6101322 3.8050842z" fill-rule="evenodd"/><path fill="#990000" d="m16.188221 234.3362c0 -0.84558105 0.37384605 -1.5720978 1.1215401 -2.1795502c0.747694 -0.60987854 1.8729362 -0.91482544 3.3757267 -0.91482544c1.5768185 0 2.7415428 0.3122406 3.4941711 0.9366913c0.7501621 0.6220398 1.1252422 1.3704224 1.1252422 2.245163c0 0.8601532 -0.36274147 1.5927429 -1.0882263 2.197754c-0.72548676 0.60502625 -1.8470268 0.907547 -3.364622 0.907547c-1.5175972 0 -2.6736832 -0.32196045 -3.4682636 -0.96585083c-0.79704475 -0.6463318 -1.1955681 -1.3886414 -1.1955681 -2.2269287zm-1.5657158 -0.18588257c0 0.7581024 0.15052605 1.4032135 0.4515772 1.9353485c0.29858494 0.532135 0.747694 1.0095825 1.3473291 1.432373l-1.5324011 0l0 1.7932129l16.312305 0l0 -1.9681549l-5.7409534 0c0.42936707 -0.3353119 0.784708 -0.76297 1.0660172 -1.2829437c0.28131104 -0.52241516 0.42196655 -1.1116486 0.42196655 -1.7676849c0 -0.89660645 -0.25663567 -1.7506866 -0.7699032 -2.5622406c-0.5157356 -0.81399536 -1.2560272 -1.4335938 -2.220871 -1.8588104c-0.96731377 -0.42765808 -2.054308 -0.6414795 -3.2609825 -0.6414795c-1.1252403 0 -2.1591797 0.19317627 -3.101818 0.57951355c-0.9451046 0.38633728 -1.6767578 0.9585571 -2.1949615 1.7166595c-0.51820374 0.7581024 -0.7773056 1.632843 -0.7773056 2.6242065z" fill-rule="evenodd"/><path fill="#990000" d="m16.265951 222.06805c0 -0.9986572 0.38495064 -1.8114166 1.1548538 -2.4383087c0.49599457 -0.40821838 1.2399864 -0.65605164 2.2319756 -0.7435303l0 6.483963c-1.0290031 -0.06561279 -1.8507271 -0.40577698 -2.465168 -1.0205231c-0.6144409 -0.61717224 -0.9216614 -1.3777008 -0.9216614 -2.281601zm-1.643446 0.021865845c0 1.6036835 0.5478153 2.908493 1.643446 3.914444c1.0956306 1.0059357 2.635435 1.5089111 4.6194134 1.5089111c1.9173546 0 3.4078064 -0.49690247 4.4713573 -1.4906921c1.0610828 -0.9962311 1.5916252 -2.3435516 1.5916252 -4.041992c0 -1.3485565 -0.3331318 -2.456543 -0.99939346 -3.3239899c-0.6662617 -0.8674469 -1.6027279 -1.4615326 -2.8094025 -1.7822723l-0.2553997 2.0337524c0.8439312 0.2988739 1.4583721 0.7034302 1.8433228 1.2136993c0.38495064 0.5102539 0.5774269 1.1262207 0.5774269 1.8478699c0 0.9694977 -0.34423447 1.7786255 -1.0327053 2.4273834c-0.68847084 0.64875793 -1.68046 1.0095978 -2.9759693 1.082489l0 -8.659866c-0.2368927 -0.007293701 -0.41456223 -0.010940552 -0.5330086 -0.010940552c-1.9469662 0 -3.457159 0.49205017 -4.5305805 1.47612c-1.0734215 0.9840698 -1.6101322 2.2524414 -1.6101322 3.8050842z" fill-rule="evenodd"/><path fill="#990000" d="m20.763218 206.98984l0.73288727 0c0.8809452 0 1.5472088 0.10569763 1.998785 0.3170929c0.58482933 0.2769928 1.046278 0.7107239 1.3843441 1.3011627c0.335598 0.5904541 0.503397 1.2647247 0.503397 2.0228271c0 0.7653961 -0.17766953 1.3473358 -0.5330086 1.7458191c-0.35533905 0.39605713 -0.7995148 0.5940857 -1.3325233 0.5940857c-0.34793663 0 -0.6637955 -0.09111023 -0.9475727 -0.27334595c-0.28624535 -0.18223572 -0.503397 -0.44100952 -0.6514549 -0.7763214c-0.14805794 -0.33532715 -0.28131104 -0.907547 -0.3997574 -1.7166748c-0.20728111 -1.4287262 -0.45898056 -2.5002747 -0.75509644 -3.2146454zm-6.1407127 2.5039215c0 0.9986572 0.13942146 1.8770447 0.4182644 2.635147c0.27637577 0.7581024 0.672431 1.3376007 1.1881676 1.7385254c0.5132675 0.40092468 1.1881657 0.68885803 2.0246944 0.86380005l0.2665043 -1.924408c-0.8365288 -0.21139526 -1.41889 -0.53700256 -1.7470856 -0.9767914c-0.33066368 -0.44223022 -0.49599457 -1.1262207 -0.49599457 -2.0519867c0 -0.9913635 0.22578812 -1.7385254 0.67736626 -2.2415009c0.33312988 -0.37176514 0.9068546 -0.55763245 1.7211761 -0.55763245c0.074028015 0 0.24799728 0.0036315918 0.521904 0.010925293c0.2665043 0.7508087 0.49599457 1.9207764 0.68847084 3.5098724c0.09623718 0.77996826 0.19617653 1.3631287 0.29981804 1.749466c0.14805794 0.5248413 0.36644363 0.9974365 0.6551571 1.4178009c0.28871346 0.41792297 0.67243004 0.7568817 1.1511517 1.0168762c0.4762535 0.2575531 1.0030937 0.38633728 1.5805206 0.38633728c0.9845867 0 1.793972 -0.3426056 2.428154 -1.0278168c0.63171387 -0.6851959 0.9475727 -1.6656342 0.9475727 -2.9412842c0 -0.7726898 -0.12955093 -1.4955597 -0.3886528 -2.1686096c-0.25910187 -0.67549133 -0.7032757 -1.3777008 -1.3325233 -2.106659c0.55521774 -0.058303833 1.0401077 -0.18951416 1.4546719 -0.39361572l0 -2.0556335c-0.45157814 0.24784851 -0.92289734 0.41429138 -1.4139557 0.4993286c-0.49352837 0.082611084 -1.6693554 0.123916626 -3.5274868 0.123916626l-2.6650467 0c-0.8883476 0 -1.5027885 0.032806396 -1.8433228 0.09841919c-0.5478153 0.116622925 -1.0006275 0.3207245 -1.3584337 0.6123047c-0.36027527 0.2915802 -0.65885925 0.7471771 -0.89575195 1.3667755c-0.23689365 0.6195984 -0.35534 1.4250793 -0.35534 2.4164429z" fill-rule="evenodd"/><path fill="#990000" d="m10.769292 199.63115l1.1992712 1.9572144l2.9204473 0l0 1.4433136l1.5546103 0l0 -1.4433136l6.7847652 0c1.1992702 0 1.9864464 -0.08018494 2.3615265 -0.24055481c0.3726139 -0.16036987 0.673666 -0.43736267 0.9031563 -0.83099365c0.22949028 -0.39363098 0.34423447 -0.94763184 0.34423447 -1.6620026c0 -0.43736267 -0.059223175 -0.93304443 -0.17766953 -1.4870453l-1.7655945 0.2842865c0.051820755 0.357193 0.077732086 0.64512634 0.077732086 0.86380005c0 0.2915802 -0.0481205 0.51634216 -0.14435768 0.6742859c-0.09623718 0.15550232 -0.22578812 0.26849365 -0.3886528 0.33895874c-0.16286278 0.06802368 -0.5293083 0.10205078 -1.0993309 0.10205078l-6.895809 0l0 -1.9790955l-1.5546103 0l0 1.9790955l-4.1197186 0z" fill-rule="evenodd"/><path fill="#000000" fill-opacity="0.0" d="m126.34012 262.93066l-84.97638 0l0 -75.74805" fill-rule="evenodd"/><path stroke="#b6d7a8" stroke-width="2.0" stroke-linejoin="round" stroke-linecap="butt" d="m126.34012 262.93066l-84.97638 0l0 -63.748047" fill-rule="evenodd"/><path fill="#b6d7a8" stroke="#b6d7a8" stroke-width="2.0" stroke-linecap="butt" d="m44.667206 199.18262l-3.3034668 -9.076187l-3.303463 9.076187z" fill-rule="evenodd"/><path fill="#cfe2f3" d="m182.0586 344.8004l58.715363 0l0 0c7.691864 0 13.927353 7.114624 13.927353 15.891022c0 8.776367 -6.235489 15.891022 -13.927353 15.891022l-58.715363 0l0 0c-7.691864 0 -13.927353 -7.1146545 -13.927353 -15.891022c0 -8.776398 6.235489 -15.891022 13.927353 -15.891022z" fill-rule="evenodd"/><path stroke="#0b5394" stroke-width="2.0" stroke-linejoin="round" stroke-linecap="butt" d="m182.0586 344.8004l58.715363 0l0 0c7.691864 0 13.927353 7.114624 13.927353 15.891022c0 8.776367 -6.235489 15.891022 -13.927353 15.891022l-58.715363 0l0 0c-7.691864 0 -13.927353 -7.1146545 -13.927353 -15.891022c0 -8.776398 6.235489 -15.891022 13.927353 -15.891022z" fill-rule="evenodd"/><path fill="#000000" d="m190.63478 360.61642l-1.796875 0.328125q-0.09375 -0.53125 -0.421875 -0.796875q-0.328125 -0.28125 -0.828125 -0.28125q-0.6875 0 -1.09375 0.46875q-0.40625 0.46875 -0.40625 1.578125q0 1.234375 0.40625 1.75q0.421875 0.5 1.109375 0.5q0.53125 0 0.859375 -0.296875q0.328125 -0.296875 0.46875 -1.03125l1.796875 0.3125q-0.28125 1.234375 -1.078125 1.875q-0.796875 0.625 -2.125 0.625q-1.515625 0 -2.421875 -0.953125q-0.90625 -0.953125 -0.90625 -2.65625q0 -1.703125 0.90625 -2.65625q0.90625 -0.953125 2.453125 -0.953125q1.265625 0 2.0 0.546875q0.75 0.53125 1.078125 1.640625zm0.9593506 1.328125q0 -0.921875 0.453125 -1.765625q0.453125 -0.859375 1.265625 -1.296875q0.828125 -0.453125 1.84375 -0.453125q1.5625 0 2.5625 1.015625q1.015625 1.015625 1.015625 2.578125q0 1.5625 -1.015625 2.59375q-1.015625 1.03125 -2.546875 1.03125q-0.953125 0 -1.8125 -0.421875q-0.859375 -0.4375 -1.3125 -1.265625q-0.453125 -0.828125 -0.453125 -2.015625zm1.875 0.09375q0 1.03125 0.484375 1.578125q0.5 0.546875 1.203125 0.546875q0.71875 0 1.203125 -0.546875q0.484375 -0.546875 0.484375 -1.59375q0 -1.015625 -0.484375 -1.5625q-0.484375 -0.546875 -1.203125 -0.546875q-0.703125 0 -1.203125 0.546875q-0.484375 0.546875 -0.484375 1.578125zm12.985107 3.453125l-1.828125 0l0 -3.53125q0 -1.109375 -0.125 -1.4375q-0.109375 -0.328125 -0.375 -0.515625q-0.265625 -0.1875 -0.640625 -0.1875q-0.46875 0 -0.859375 0.265625q-0.375 0.265625 -0.515625 0.703125q-0.140625 0.421875 -0.140625 1.578125l0 3.125l-1.828125 0l0 -6.90625l1.703125 0l0 1.015625q0.90625 -1.171875 2.28125 -1.171875q0.609375 0 1.109375 0.21875q0.5 0.21875 0.75 0.5625q0.265625 0.328125 0.359375 0.765625q0.109375 0.421875 0.109375 1.21875l0 4.296875zm5.0163574 -6.90625l0 1.453125l-1.25 0l0 2.78125q0 0.84375 0.03125 0.984375q0.046875 0.140625 0.171875 0.234375q0.125 0.09375 0.3125 0.09375q0.25 0 0.734375 -0.171875l0.15625 1.421875q-0.640625 0.265625 -1.453125 0.265625q-0.484375 0 -0.890625 -0.15625q-0.390625 -0.171875 -0.578125 -0.4375q-0.1875 -0.265625 -0.265625 -0.71875q-0.046875 -0.3125 -0.046875 -1.28125l0 -3.015625l-0.84375 0l0 -1.453125l0.84375 0l0 -1.375l1.828125 -1.078125l0 2.453125l1.25 0zm1.2664948 -0.9375l0 -1.703125l1.828125 0l0 1.703125l-1.828125 0zm0 7.84375l0 -6.90625l1.828125 0l0 6.90625l-1.828125 0zm9.999863 0l-1.828125 0l0 -3.53125q0 -1.109375 -0.125 -1.4375q-0.109375 -0.328125 -0.375 -0.515625q-0.265625 -0.1875 -0.640625 -0.1875q-0.46875 0 -0.859375 0.265625q-0.375 0.265625 -0.515625 0.703125q-0.140625 0.421875 -0.140625 1.578125l0 3.125l-1.828125 0l0 -6.90625l1.703125 0l0 1.015625q0.90625 -1.171875 2.28125 -1.171875q0.609375 0 1.109375 0.21875q0.5 0.21875 0.75 0.5625q0.265625 0.328125 0.359375 0.765625q0.109375 0.421875 0.109375 1.21875l0 4.296875zm6.3913574 0l0 -1.03125q-0.375 0.546875 -1.0 0.875q-0.609375 0.3125 -1.28125 0.3125q-0.703125 0 -1.265625 -0.296875q-0.546875 -0.3125 -0.796875 -0.859375q-0.234375 -0.5625 -0.234375 -1.53125l0 -4.375l1.828125 0l0 3.171875q0 1.453125 0.09375 1.78125q0.109375 0.328125 0.375 0.53125q0.265625 0.1875 0.671875 0.1875q0.46875 0 0.84375 -0.25q0.375 -0.265625 0.5 -0.640625q0.140625 -0.390625 0.140625 -1.875l0 -2.90625l1.828125 0l0 6.90625l-1.703125 0zm7.5944824 -2.203125l1.828125 0.3125q-0.34375 1.0 -1.109375 1.53125q-0.765625 0.515625 -1.890625 0.515625q-1.8125 0 -2.671875 -1.171875q-0.6875 -0.953125 -0.6875 -2.390625q0 -1.71875 0.890625 -2.6875q0.90625 -0.96875 2.28125 -0.96875q1.546875 0 2.4375 1.015625q0.890625 1.015625 0.84375 3.125l-4.578125 0q0.015625 0.8125 0.4375 1.265625q0.421875 0.453125 1.0625 0.453125q0.421875 0 0.71875 -0.234375q0.296875 -0.234375 0.4375 -0.765625zm0.109375 -1.84375q-0.015625 -0.796875 -0.40625 -1.203125q-0.390625 -0.421875 -0.953125 -0.421875q-0.59375 0 -0.984375 0.4375q-0.390625 0.4375 -0.390625 1.1875l2.734375 0z" fill-rule="nonzero"/><path fill="#000000" fill-opacity="0.0" d="m296.5152 178.20358l24.999878 0l0 182.48819l-66.826645 0" fill-rule="evenodd"/><path stroke="#b6d7a8" stroke-width="2.0" stroke-linejoin="round" stroke-linecap="butt" stroke-dasharray="8.0,6.0" d="m296.51523 178.20358l24.999847 0l0 182.48819l-54.82663 0" fill-rule="evenodd"/><path fill="#b6d7a8" stroke="#b6d7a8" stroke-width="2.0" stroke-linecap="butt" d="m266.68845 357.3883l-9.076202 3.3034668l9.076202 3.3034668z" fill-rule="evenodd"/><path fill="#ffe599" d="m143.61163 54.482197l10.338577 -41.354332l125.28346 0l-10.338593 41.354332z" fill-rule="evenodd"/><path stroke="#b45f06" stroke-width="2.0" stroke-linejoin="round" stroke-linecap="butt" d="m143.61163 54.482197l10.338577 -41.354332l125.28346 0l-10.338593 41.354332z" fill-rule="evenodd"/><path fill="#000000" d="m182.05739 30.605032l-1.703125 0l0 -1.015625q-0.421875 0.59375 -1.0 0.890625q-0.578125 0.28125 -1.15625 0.28125q-1.1875 0 -2.046875 -0.953125q-0.84375 -0.96875 -0.84375 -2.6875q0 -1.75 0.828125 -2.65625q0.828125 -0.921875 2.09375 -0.921875q1.15625 0 2.0 0.953125l0 -3.4375l1.828125 0l0 9.546875zm-4.875 -3.609375q0 1.109375 0.296875 1.609375q0.4375 0.71875 1.234375 0.71875q0.640625 0 1.078125 -0.53125q0.4375 -0.546875 0.4375 -1.609375q0 -1.203125 -0.4375 -1.71875q-0.421875 -0.53125 -1.09375 -0.53125q-0.640625 0 -1.078125 0.515625q-0.4375 0.515625 -0.4375 1.546875zm10.672607 1.40625l1.828125 0.3125q-0.34375 1.0 -1.109375 1.53125q-0.765625 0.515625 -1.890625 0.515625q-1.8125 0 -2.671875 -1.171875q-0.6875 -0.953125 -0.6875 -2.390625q0 -1.71875 0.890625 -2.6875q0.90625 -0.96875 2.28125 -0.96875q1.546875 0 2.4375 1.015625q0.890625 1.015625 0.84375 3.125l-4.578125 0q0.015625 0.8125 0.4375 1.265625q0.421875 0.453125 1.0625 0.453125q0.421875 0 0.71875 -0.234375q0.296875 -0.234375 0.4375 -0.765625zm0.109375 -1.84375q-0.015625 -0.796875 -0.40625 -1.203125q-0.390625 -0.421875 -0.953125 -0.421875q-0.59375 0 -0.984375 0.4375q-0.390625 0.4375 -0.390625 1.1875l2.734375 0zm2.5062256 -2.859375l1.015625 0l0 -0.53125q0 -0.859375 0.1875 -1.28125q0.1875 -0.4375 0.671875 -0.703125q0.5 -0.28125 1.265625 -0.28125q0.78125 0 1.53125 0.234375l-0.25 1.28125q-0.4375 -0.109375 -0.84375 -0.109375q-0.390625 0 -0.5625 0.1875q-0.171875 0.1875 -0.171875 0.703125l0 0.5l1.359375 0l0 1.4375l-1.359375 0l0 5.46875l-1.828125 0l0 -5.46875l-1.015625 0l0 -1.4375zm5.2352448 -0.9375l0 -1.703125l1.828125 0l0 1.703125l-1.828125 0zm0 7.84375l0 -6.90625l1.828125 0l0 6.90625l-1.828125 0zm9.999863 0l-1.828125 0l0 -3.53125q0 -1.109375 -0.125 -1.4375q-0.109375 -0.328125 -0.375 -0.515625q-0.265625 -0.1875 -0.640625 -0.1875q-0.46875 0 -0.859375 0.265625q-0.375 0.265625 -0.515625 0.703125q-0.140625 0.421875 -0.140625 1.578125l0 3.125l-1.828125 0l0 -6.90625l1.703125 0l0 1.015625q0.90625 -1.171875 2.28125 -1.171875q0.609375 0 1.109375 0.21875q0.5 0.21875 0.75 0.5625q0.265625 0.328125 0.359375 0.765625q0.109375 0.421875 0.109375 1.21875l0 4.296875zm5.8444824 -2.203125l1.828125 0.3125q-0.34375 1.0 -1.109375 1.53125q-0.765625 0.515625 -1.890625 0.515625q-1.8125 0 -2.671875 -1.171875q-0.6875 -0.953125 -0.6875 -2.390625q0 -1.71875 0.890625 -2.6875q0.90625 -0.96875 2.28125 -0.96875q1.546875 0 2.4375 1.015625q0.890625 1.015625 0.84375 3.125l-4.578125 0q0.015625 0.8125 0.4375 1.265625q0.421875 0.453125 1.0625 0.453125q0.421875 0 0.71875 -0.234375q0.296875 -0.234375 0.4375 -0.765625zm0.109375 -1.84375q-0.015625 -0.796875 -0.40625 -1.203125q-0.390625 -0.421875 -0.953125 -0.421875q-0.59375 0 -0.984375 0.4375q-0.390625 0.4375 -0.390625 1.1875l2.734375 0zm7.0060883 4.046875l0 -9.546875l1.828125 0l0 9.546875l-1.828125 0zm3.2811127 -3.546875q0 -0.921875 0.453125 -1.765625q0.453125 -0.859375 1.2656097 -1.296875q0.828125 -0.453125 1.84375 -0.453125q1.5625 0 2.5625 1.015625q1.015625 1.015625 1.015625 2.578125q0 1.5625 -1.015625 2.59375q-1.015625 1.03125 -2.546875 1.03125q-0.953125 0 -1.8125 -0.421875q-0.85935974 -0.4375 -1.3124847 -1.265625q-0.453125 -0.828125 -0.453125 -2.015625zm1.8749847 0.09375q0 1.03125 0.484375 1.578125q0.5 0.546875 1.203125 0.546875q0.71875 0 1.203125 -0.546875q0.484375 -0.546875 0.484375 -1.59375q0 -1.015625 -0.484375 -1.5625q-0.484375 -0.546875 -1.203125 -0.546875q-0.703125 0 -1.203125 0.546875q-0.484375 0.546875 -0.484375 1.578125zm12.719482 -1.421875l-1.796875 0.328125q-0.09375 -0.53125 -0.421875 -0.796875q-0.328125 -0.28125 -0.828125 -0.28125q-0.6875 0 -1.09375 0.46875q-0.40625 0.46875 -0.40625 1.578125q0 1.234375 0.40625 1.75q0.421875 0.5 1.109375 0.5q0.53125 0 0.859375 -0.296875q0.328125 -0.296875 0.46875 -1.03125l1.796875 0.3125q-0.28125 1.234375 -1.078125 1.875q-0.796875 0.625 -2.125 0.625q-1.515625 0 -2.421875 -0.953125q-0.90625 -0.953125 -0.90625 -2.65625q0 -1.703125 0.90625 -2.65625q0.90625 -0.953125 2.453125 -0.953125q1.265625 0 2.0 0.546875q0.75 0.53125 1.078125 1.640625zm2.7562256 0.078125l-1.671875 -0.3125q0.28125 -1.0 0.96875 -1.46875q0.6875 -0.484375 2.03125 -0.484375q1.21875 0 1.8125 0.296875q0.609375 0.28125 0.84375 0.734375q0.25 0.4375 0.25 1.625l-0.015625 2.140625q0 0.90625 0.078125 1.34375q0.09375 0.421875 0.34375 0.921875l-1.8125 0q-0.078125 -0.1875 -0.171875 -0.546875q-0.046875 -0.15625 -0.078125 -0.203125q-0.46875 0.453125 -1.0 0.6875q-0.53125 0.21875 -1.140625 0.21875q-1.0625 0 -1.6875 -0.578125q-0.609375 -0.578125 -0.609375 -1.46875q0 -0.578125 0.28125 -1.03125q0.28125 -0.46875 0.78125 -0.703125q0.515625 -0.25 1.46875 -0.4375q1.28125 -0.234375 1.765625 -0.453125l0 -0.171875q0 -0.53125 -0.265625 -0.75q-0.25 -0.234375 -0.96875 -0.234375q-0.484375 0 -0.765625 0.203125q-0.265625 0.1875 -0.4375 0.671875zm2.4375 1.484375q-0.34375 0.109375 -1.109375 0.28125q-0.765625 0.15625 -1.0 0.3125q-0.359375 0.25 -0.359375 0.640625q0 0.390625 0.28125 0.671875q0.296875 0.28125 0.734375 0.28125q0.5 0 0.953125 -0.328125q0.328125 -0.25 0.4375 -0.609375q0.0625 -0.234375 0.0625 -0.890625l0 -0.359375zm3.5999756 3.3125l0 -9.546875l1.828125 0l0 9.546875l-1.828125 0z" fill-rule="nonzero"/><path fill="#000000" d="m185.38379 46.60503l-2.78125 -6.90625l1.90625 0l1.3125 3.515625l0.375 1.1875q0.140625 -0.453125 0.1875 -0.59375q0.09375 -0.296875 0.1875 -0.59375l1.328125 -3.515625l1.875 0l-2.75 6.90625l-1.640625 0zm6.8812256 -4.796875l-1.671875 -0.3125q0.28125 -1.0 0.96875 -1.46875q0.6875 -0.484375 2.03125 -0.484375q1.21875 0 1.8125 0.296875q0.609375 0.28125 0.84375 0.734375q0.25 0.4375 0.25 1.625l-0.015625 2.140625q0 0.90625 0.078125 1.34375q0.09375 0.421875 0.34375 0.921875l-1.8125 0q-0.078125 -0.1875 -0.171875 -0.546875q-0.046875 -0.15625 -0.078125 -0.203125q-0.46875 0.453125 -1.0 0.6875q-0.53125 0.21875 -1.140625 0.21875q-1.0625 0 -1.6875 -0.578125q-0.609375 -0.578125 -0.609375 -1.46875q0 -0.578125 0.28125 -1.03125q0.28125 -0.46875 0.78125 -0.703125q0.515625 -0.25 1.46875 -0.4375q1.28125 -0.234375 1.765625 -0.453125l0 -0.171875q0 -0.53125 -0.265625 -0.75q-0.25 -0.234375 -0.96875 -0.234375q-0.484375 0 -0.765625 0.203125q-0.265625 0.1875 -0.4375 0.671875zm2.4375 1.484375q-0.34375 0.109375 -1.109375 0.28125q-0.765625 0.15625 -1.0 0.3125q-0.359375 0.25 -0.359375 0.640625q0 0.390625 0.28125 0.671875q0.296875 0.28125 0.734375 0.28125q0.5 0 0.953125 -0.328125q0.328125 -0.25 0.4375 -0.609375q0.0625 -0.234375 0.0625 -0.890625l0 -0.359375zm5.3499756 3.3125l-1.828125 0l0 -6.90625l1.703125 0l0 0.984375q0.4375 -0.703125 0.78125 -0.921875q0.34375 -0.21875 0.796875 -0.21875q0.625 0 1.203125 0.34375l-0.5625 1.59375q-0.46875 -0.296875 -0.859375 -0.296875q-0.390625 0 -0.65625 0.21875q-0.265625 0.203125 -0.421875 0.765625q-0.15625 0.546875 -0.15625 2.296875l0 2.140625zm3.4367828 -7.84375l0 -1.703125l1.828125 0l0 1.703125l-1.828125 0zm0 7.84375l0 -6.90625l1.828125 0l0 6.90625l-1.828125 0zm5.0779877 -4.796875l-1.671875 -0.3125q0.28125 -1.0 0.96875 -1.46875q0.6875 -0.484375 2.03125 -0.484375q1.21875 0 1.8125 0.296875q0.609375 0.28125 0.84375 0.734375q0.25 0.4375 0.25 1.625l-0.015625 2.140625q0 0.90625 0.078125 1.34375q0.09375 0.421875 0.34375 0.921875l-1.8125 0q-0.078125 -0.1875 -0.171875 -0.546875q-0.046875 -0.15625 -0.078125 -0.203125q-0.46875 0.453125 -1.0 0.6875q-0.53125 0.21875 -1.140625 0.21875q-1.0625 0 -1.6875 -0.578125q-0.609375 -0.578125 -0.609375 -1.46875q0 -0.578125 0.28125 -1.03125q0.28125 -0.46875 0.78125 -0.703125q0.515625 -0.25 1.46875 -0.4375q1.28125 -0.234375 1.765625 -0.453125l0 -0.171875q0 -0.53125 -0.265625 -0.75q-0.25 -0.234375 -0.96875 -0.234375q-0.484375 0 -0.765625 0.203125q-0.265625 0.1875 -0.4375 0.671875zm2.4375 1.484375q-0.34375 0.109375 -1.109375 0.28125q-0.765625 0.15625 -1.0 0.3125q-0.359375 0.25 -0.359375 0.640625q0 0.390625 0.28125 0.671875q0.296875 0.28125 0.734375 0.28125q0.5 0 0.953125 -0.328125q0.328125 -0.25 0.4375 -0.609375q0.0625 -0.234375 0.0625 -0.890625l0 -0.359375zm3.5218506 3.3125l0 -9.546875l1.828125 0l0 3.4375q0.84375 -0.953125 2.015625 -0.953125q1.25 0 2.078125 0.921875q0.828125 0.90625 0.828125 2.609375q0 1.78125 -0.84375 2.734375q-0.84375 0.953125 -2.046875 0.953125q-0.59375 0 -1.171875 -0.296875q-0.5625 -0.296875 -0.984375 -0.875l0 1.015625l-1.703125 0zm1.8125 -3.609375q0 1.078125 0.34375 1.59375q0.46875 0.734375 1.265625 0.734375q0.609375 0 1.03125 -0.515625q0.421875 -0.53125 0.421875 -1.640625q0 -1.1875 -0.4375 -1.703125q-0.421875 -0.53125 -1.09375 -0.53125q-0.65625 0 -1.09375 0.515625q-0.4375 0.515625 -0.4375 1.546875zm6.4069824 3.609375l0 -9.546875l1.8281097 0l0 9.546875l-1.8281097 0zm7.7029724 -2.203125l1.828125 0.3125q-0.34375 1.0 -1.109375 1.53125q-0.765625 0.515625 -1.890625 0.515625q-1.8125 0 -2.671875 -1.171875q-0.6875 -0.953125 -0.6875 -2.390625q0 -1.71875 0.890625 -2.6875q0.90625 -0.96875 2.28125 -0.96875q1.546875 0 2.4375 1.015625q0.890625 1.015625 0.84375 3.125l-4.578125 0q0.015625 0.8125 0.4375 1.265625q0.421875 0.453125 1.0625 0.453125q0.421875 0 0.71875 -0.234375q0.296875 -0.234375 0.4375 -0.765625zm0.109375 -1.84375q-0.015625 -0.796875 -0.40625 -1.203125q-0.390625 -0.421875 -0.953125 -0.421875q-0.59375 0 -0.984375 0.4375q-0.390625 0.4375 -0.390625 1.1875l2.734375 0zm2.6624756 2.078125l1.828125 -0.28125q0.125 0.53125 0.484375 0.8125q0.359375 0.265625 1.0 0.265625q0.703125 0 1.0625 -0.25q0.25 -0.1875 0.25 -0.484375q0 -0.21875 -0.140625 -0.359375q-0.125 -0.125 -0.609375 -0.234375q-2.203125 -0.484375 -2.796875 -0.890625q-0.828125 -0.5625 -0.828125 -1.5625q0 -0.890625 0.703125 -1.5q0.71875 -0.609375 2.203125 -0.609375q1.421875 0 2.109375 0.46875q0.703125 0.453125 0.953125 1.359375l-1.71875 0.3125q-0.109375 -0.40625 -0.421875 -0.609375q-0.3125 -0.21875 -0.890625 -0.21875q-0.71875 0 -1.03125 0.203125q-0.203125 0.140625 -0.203125 0.359375q0 0.203125 0.1875 0.34375q0.234375 0.171875 1.6875 0.515625q1.46875 0.328125 2.0625 0.8125q0.5625 0.484375 0.5625 1.359375q0 0.953125 -0.796875 1.640625q-0.78125 0.671875 -2.34375 0.671875q-1.40625 0 -2.234375 -0.5625q-0.828125 -0.578125 -1.078125 -1.5625z" fill-rule="nonzero"/><path fill="#000000" fill-opacity="0.0" d="m211.42265 54.482197l0 28.472439" fill-rule="evenodd"/><path stroke="#b6d7a8" stroke-width="2.0" stroke-linejoin="round" stroke-linecap="butt" d="m211.42265 54.482197l0 16.472439" fill-rule="evenodd"/><path fill="#b6d7a8" stroke="#b6d7a8" stroke-width="2.0" stroke-linecap="butt" d="m208.11919 70.954636l3.3034668 9.076195l3.3034668 -9.076195z" fill-rule="evenodd"/><path fill="#990000" d="m364.6534 248.71606c0 -0.60847473 -0.0753479 -1.1790771 -0.22601318 -1.711792c-0.14834595 -0.5302887 -0.33029175 -0.94937134 -0.5458679 -1.2572784c-0.27816772 -0.41053772 -0.62820435 -0.7355499 -1.0500793 -0.9750366c-0.41955566 -0.23703003 -0.8761902 -0.35554504 -1.3699341 -0.35554504c-0.54241943 0 -1.0384521 0.14416504 -1.4881592 0.43252563c-0.44735718 0.290802 -0.79855347 0.7160034 -1.0535278 1.2756042c-0.25265503 0.56204224 -0.55285645 1.5688477 -0.9005432 3.0203857c-0.2572937 1.0776672 -0.46939087 1.7521362 -0.6362915 2.0233765c-0.2434082 0.3885498 -0.57717896 0.5828247 -1.0013733 0.5828247c-0.47286987 0 -0.88549805 -0.21994019 -1.2378235 -0.6598053c-0.3500061 -0.43984985 -0.5250244 -1.1143188 -0.5250244 -2.0233612c0 -0.90171814 0.19818115 -1.6042786 0.594574 -2.1076813c0.3963623 -0.5009613 0.96661377 -0.80641174 1.7106934 -0.91638184l-0.29208374 -1.9573975c-1.1752319 0.21994019 -2.0618591 0.727005 -2.659912 1.5211945c-0.598053 0.7966461 -0.8970642 1.9537354 -0.8970642 3.4712524c0 0.91638184 0.15066528 1.7374725 0.45199585 2.4632416c0.30368042 0.72576904 0.73135376 1.2804871 1.28302 1.664154c0.5540161 0.38609314 1.1439514 0.57914734 1.7698059 0.57914734c0.6397705 0 1.1752319 -0.15762329 1.6063843 -0.4728546c0.43115234 -0.31523132 0.7591553 -0.7502136 0.9839783 -1.3049316c0.22717285 -0.55226135 0.5180969 -1.5285187 0.8727417 -2.9287567c0.2503357 -0.96769714 0.41027832 -1.5505066 0.47982788 -1.7484436c0.1321106 -0.34455872 0.29901123 -0.5974884 0.5006714 -0.7587738c0.19473267 -0.1612854 0.41378784 -0.2419281 0.6571655 -0.2419281c0.3824768 0 0.7162781 0.1942749 1.0013733 0.5828247c0.28512573 0.3885498 0.42767334 1.0373383 0.42767334 1.9463959c0 0.76976013 -0.15994263 1.3647919 -0.47982788 1.7851105c-0.31988525 0.42276 -0.7649231 0.6781311 -1.3351746 0.766098l0.2503662 1.9353943c0.71624756 -0.12461853 1.2876282 -0.35188293 1.7141418 -0.6817932c0.428833 -0.32989502 0.7684326 -0.84184265 1.0187683 -1.5358429c0.2503357 -0.6915741 0.3755188 -1.4955444 0.3755188 -2.4119263z" fill-rule="evenodd"/><path fill="#990000" d="m368.27298 258.47003l-1.1265564 -1.9683838l-2.7433472 0l0 -1.4515533l-1.4603577 0l0 1.4515533l-6.373352 0c-1.1265564 0 -1.8659973 0.08062744 -2.2183228 0.24191284c-0.3500061 0.1612854 -0.6328125 0.43988037 -0.8483887 0.8357544c-0.21557617 0.39587402 -0.32336426 0.95303345 -0.32336426 1.6714783c0 0.43984985 0.055633545 0.938385 0.16690063 1.4955444l1.6585388 -0.2859192c-0.048675537 -0.3592224 -0.073028564 -0.6488037 -0.073028564 -0.8687439c0 -0.2932434 0.045196533 -0.5192566 0.1355896 -0.6781006c0.090423584 -0.15640259 0.21209717 -0.27005005 0.3651123 -0.34091187c0.15298462 -0.06842041 0.49719238 -0.102630615 1.0326538 -0.102630615l6.477661 0l0 1.990387l1.4603577 0l0 -1.990387l3.8699036 0z" fill-rule="evenodd"/><path fill="#990000" d="m363.09918 267.13535c0 0.9750366 -0.3534851 1.7900085 -1.0604858 2.4449158c-0.7046509 0.65734863 -1.7419739 0.98602295 -3.111908 0.98602295c-1.4533997 0 -2.534729 -0.3262329 -3.244049 -0.97869873c-0.70932007 -0.6524658 -1.0639648 -1.4698792 -1.0639648 -2.45224c0 -0.98968506 0.35232544 -1.8107605 1.0570068 -2.4632263c0.70700073 -0.6524658 1.7698059 -0.97869873 3.1884155 -0.97869873c1.4186096 0 2.4790955 0.3262329 3.1814575 0.97869873c0.70236206 0.6524658 1.0535278 1.4735413 1.0535278 2.4632263zm1.5542297 0c0 -1.4442139 -0.41027832 -2.668518 -1.2308655 -3.6728516c-0.9874573 -1.202301 -2.5069275 -1.8034363 -4.5583496 -1.8034363c-1.870636 0 -3.3031616 0.50338745 -4.297577 1.5101929c-0.9944153 1.0092468 -1.4916382 2.3312683 -1.4916382 3.966095c0 1.0190125 0.22601318 1.9586182 0.67800903 2.8187866c0.45202637 0.86260986 1.0859985 1.5187378 1.9019165 1.9683838c0.8182678 0.4520874 1.9401855 0.6781311 3.3657532 0.6781311c1.7593689 0 3.1374207 -0.5095215 4.1341553 -1.5285339c0.99905396 -1.0190125 1.4985962 -2.3312683 1.4985962 -3.9367676z" fill-rule="evenodd"/><path fill="#990000" d="m363.18265 279.92438c0 0.85040283 -0.3511963 1.5810547 -1.0535278 2.191986c-0.70236206 0.6133423 -1.7593689 0.92004395 -3.171051 0.92004395c-1.4812012 0 -2.5752869 -0.31402588 -3.2822876 -0.9420471c-0.7046814 -0.62557983 -1.0570068 -1.3782349 -1.0570068 -2.257965c0 -0.8650818 0.34075928 -1.6018372 1.0222473 -2.2103271c0.68148804 -0.6084595 1.7350159 -0.9126892 3.1605835 -0.9126892c1.4255676 0 2.5115662 0.323761 3.257965 0.971344c0.74871826 0.6500244 1.1230774 1.3965759 1.1230774 2.2396545zm1.4707642 0.18692017c0 -0.76242065 -0.14138794 -1.4112244 -0.42419434 -1.9463806c-0.28048706 -0.53515625 -0.70236206 -1.0153503 -1.265625 -1.4405518l1.4394836 0l0 -1.8034363l-15.323181 0l0 1.9793701l5.392853 0c-0.40335083 0.33724976 -0.7371216 0.767334 -1.0013733 1.2902832c-0.26428223 0.5253906 -0.39639282 1.117981 -0.39639282 1.777771c0 0.9017334 0.24105835 1.7606812 0.72320557 2.5768738c0.48446655 0.81863403 1.1798706 1.4417725 2.0862122 1.8694153c0.9086609 0.43008423 1.9297485 0.6451416 3.0632324 0.6451416c1.0570374 0 2.0282593 -0.1942749 2.9137573 -0.5828247c0.88778687 -0.3885498 1.5750732 -0.9640503 2.0618591 -1.726471c0.4867859 -0.76242065 0.7301636 -1.6421509 0.7301636 -2.6391907z" fill-rule="evenodd"/><path fill="#000000" fill-opacity="0.0" d="m126.31048 178.20358l-37.36709 0l0 0.06298828l-37.373066 0" fill-rule="evenodd"/><path stroke="#b6d7a8" stroke-width="2.0" stroke-linejoin="round" stroke-linecap="butt" stroke-dasharray="8.0,6.0" d="m126.31048 178.20358l-37.36708 0l0 0.06298828l-25.373074 0" fill-rule="evenodd"/><path fill="#b6d7a8" stroke="#b6d7a8" stroke-width="2.0" stroke-linecap="butt" d="m63.570324 174.9631l-9.076195 3.3034668l9.076195 3.3034668z" fill-rule="evenodd"/><path fill="#f9cb9c" d="m187.10901 104.36806l0 0c0 -11.828461 10.886185 -21.41732 24.314957 -21.41732l0 0c13.428787 0 24.314972 9.58886 24.314972 21.41732l0 0c0 11.828461 -10.886185 21.41732 -24.314972 21.41732l0 0c-13.428772 0 -24.314957 -9.58886 -24.314957 -21.41732z" fill-rule="evenodd"/><path stroke="#b45f06" stroke-width="2.0" stroke-linejoin="round" stroke-linecap="butt" d="m187.10901 104.36806l0 0c0 -11.828461 10.886185 -21.41732 24.314957 -21.41732l0 0c13.428787 0 24.314972 9.58886 24.314972 21.41732l0 0c0 11.828461 -10.886185 21.41732 -24.314972 21.41732l0 0c-13.428772 0 -24.314957 -9.58886 -24.314957 -21.41732z" fill-rule="evenodd"/><path fill="#434343" d="m210.57948 109.16806l-1.703125 0l0 -1.015625q-0.421875 0.59375 -1.0 0.890625q-0.578125 0.28125 -1.15625 0.28125q-1.1875 0 -2.046875 -0.953125q-0.84375 -0.96875 -0.84375 -2.6875q0 -1.75 0.828125 -2.65625q0.828125 -0.921875 2.09375 -0.921875q1.15625 0 2.0 0.953125l0 -3.4375l1.828125 0l0 9.546875zm-4.875 -3.609375q0 1.109375 0.296875 1.609375q0.4375 0.71875 1.234375 0.71875q0.640625 0 1.078125 -0.53125q0.4375 -0.546875 0.4375 -1.609375q0 -1.203125 -0.4375 -1.71875q-0.421875 -0.53125 -1.09375 -0.53125q-0.640625 0 -1.078125 0.515625q-0.4375 0.515625 -0.4375 1.546875zm6.2507324 0.0625q0 -0.921875 0.453125 -1.765625q0.453125 -0.859375 1.265625 -1.296875q0.828125 -0.453125 1.84375 -0.453125q1.5625 0 2.5625 1.015625q1.015625 1.015625 1.015625 2.578125q0 1.5625 -1.015625 2.59375q-1.015625 1.03125 -2.546875 1.03125q-0.953125 0 -1.8125 -0.421875q-0.859375 -0.4375 -1.3125 -1.265625q-0.453125 -0.828125 -0.453125 -2.015625zm1.875 0.09375q0 1.03125 0.484375 1.578125q0.5 0.546875 1.203125 0.546875q0.71875 0 1.203125 -0.546875q0.484375 -0.546875 0.484375 -1.59375q0 -1.015625 -0.484375 -1.5625q-0.484375 -0.546875 -1.203125 -0.546875q-0.703125 0 -1.203125 0.546875q-0.484375 0.546875 -0.484375 1.578125z" fill-rule="nonzero"/><path fill="#000000" fill-opacity="0.0" d="m211.42397 125.78538l0 28.47245" fill-rule="evenodd"/><path stroke="#b6d7a8" stroke-width="2.0" stroke-linejoin="round" stroke-linecap="butt" d="m211.42397 125.785385l0 16.472443" fill-rule="evenodd"/><path fill="#b6d7a8" stroke="#b6d7a8" stroke-width="2.0" stroke-linecap="butt" d="m208.1205 142.25783l3.3034668 9.076187l3.3034668 -9.076187z" fill-rule="evenodd"/><path fill="#efefef" d="m72.623634 152.25761c-0.44142914 0 -0.8466568 0.11076355 -1.215683 0.3323059c-0.36668396 0.2215271 -0.76724243 0.67996216 -1.2016678 1.3753357l0 -1.4861145l-1.702652 0l0 9.802734l1.8918381 0l0 -5.132126c0 -0.70150757 0.10510254 -1.347641 0.31530762 -1.938385c0.14013672 -0.38768005 0.37486267 -0.6902313 0.7041855 -0.90766907c0.3293152 -0.21948242 0.70067596 -0.32922363 1.1140823 -0.32922363c0.46244812 0 0.92489624 0.11999512 1.3873444 0.3600006l0.6516342 -1.5414886c-0.658638 -0.35691833 -1.3067703 -0.5353699 -1.9443893 -0.5353699z" fill-rule="evenodd"/><path fill="#efefef" d="m80.2961 153.62372c0.95993805 0 1.7411957 0.31999207 2.3437805 0.9599762c0.39237976 0.41229248 0.63061523 1.0307312 0.7146988 1.8553162l-6.232567 0c0.063064575 -0.85536194 0.39004517 -1.5384064 0.98095703 -2.0491638c0.59323883 -0.5107422 1.3242874 -0.76612854 2.1931305 -0.76612854zm-0.021018982 -1.3661041c-1.5414963 0 -2.795723 0.45536804 -3.7626572 1.3661041c-0.96694183 0.9107361 -1.4504166 2.190689 -1.4504166 3.839859c0 1.5937958 0.47763062 2.8327332 1.4328995 3.7167969c0.9575958 0.88201904 2.2526855 1.3230286 3.8852768 1.3230286c1.296257 0 2.3612976 -0.2769165 3.1951065 -0.83073425c0.8338089 -0.553833 1.4048691 -1.3322601 1.7131653 -2.335312l-1.9549026 -0.21229553c-0.28727722 0.7015228 -0.6761551 1.212265 -1.1666336 1.5322571c-0.49047852 0.31999207 -1.08255 0.47998047 -1.7762299 0.47998047c-0.9319 0 -1.7096558 -0.28614807 -2.3332672 -0.85842896c-0.6236038 -0.57229614 -0.9704437 -1.3968811 -1.0405121 -2.473755l8.324097 0c0.0070114136 -0.19691467 0.010513306 -0.3446045 0.010513306 -0.44306946c0 -1.618393 -0.47296143 -2.8737335 -1.4188843 -3.7660217c-0.9459152 -0.89227295 -2.1651 -1.3384094 -3.6575546 -1.3384094z" fill-rule="evenodd"/><path fill="#efefef" d="m91.878365 153.63295c0.8618393 0 1.5870438 0.31384277 2.1756134 0.94151306c0.58856964 0.6276703 0.8828583 1.6122437 0.8828583 2.9537354c0 1.2184143 -0.28961182 2.1250458 -0.8688431 2.7198944c-0.57689667 0.59280396 -1.2787476 0.88920593 -2.105545 0.88920593c-0.81980133 0 -1.5309906 -0.3107605 -2.1335754 -0.93226624c-0.60259247 -0.621521 -0.9038849 -1.5599518 -0.9038849 -2.8152924c0 -1.2984161 0.28144073 -2.2491455 0.8443222 -2.8522034c0.56521606 -0.60305786 1.2682343 -0.9045868 2.1090546 -0.9045868zm2.9008179 -4.882904l0 4.8552094c-0.3293152 -0.39997864 -0.75673676 -0.7240753 -1.2822418 -0.9722595c-0.5255127 -0.2502594 -1.1245956 -0.37538147 -1.7972488 -0.37538147c-0.91789246 0 -1.7481995 0.21231079 -2.4909286 0.63690186c-0.74272156 0.42460632 -1.2997589 1.0358582 -1.6711197 1.833786c-0.37136078 0.7958679 -0.557045 1.6830139 -0.557045 2.661438c0 1.0030365 0.20436859 1.8912201 0.61309814 2.6645203c0.41106415 0.7712555 0.9891281 1.3722534 1.7341843 1.803009c0.7473984 0.43075562 1.5660248 0.6461334 2.4558868 0.6461334c1.3733368 0 2.4138489 -0.48612976 3.1215363 -1.4584045l0 1.2368774l1.7552109 0l0 -13.53183z" fill-rule="evenodd"/><path fill="#efefef" d="m104.16481 153.63295c0.93190765 0 1.7108307 0.31280518 2.3367767 0.9384308c0.628273 0.6235657 0.94241333 1.5414886 0.94241333 2.7537537c0 1.2861023 -0.3117981 2.2429962 -0.93540955 2.8706665c-0.6236038 0.6276703 -1.4048615 0.9414978 -2.3437805 0.9414978c-0.9459152 0 -1.7306824 -0.31178284 -2.3542862 -0.9353485c-0.62361145 -0.6256256 -0.93540955 -1.5661011 -0.93540955 -2.8214417c0 -1.2553406 0.3117981 -2.1937714 0.93540955 -2.815277c0.6236038 -0.621521 1.408371 -0.9322815 2.3542862 -0.9322815zm0 -1.3753357c-1.3803406 0 -2.550476 0.36306763 -3.5104141 1.0891876c-1.1491165 0.8738251 -1.723671 2.2183838 -1.723671 4.0337067c0 1.6553345 0.4811325 2.9229736 1.4433975 3.802948c0.96460724 0.8799591 2.2281723 1.3199463 3.7906876 1.3199463c0.97395325 0 1.8719864 -0.19999695 2.6941223 -0.5999756c0.8244705 -0.3999939 1.4515762 -0.96099854 1.8813324 -1.6830139c0.43208313 -0.7240753 0.6481247 -1.7168732 0.6481247 -2.978363c0 -1.5568695 -0.486969 -2.7763062 -1.4609146 -3.6583252c-0.97395325 -0.884079 -2.2281723 -1.3261108 -3.7626648 -1.3261108z" fill-rule="evenodd"/><path fill="#f9cb9c" d="m22.028872 33.805737l17.314436 -21.417324l51.943306 0l17.314438 21.417324l-17.314438 21.41732l-51.943306 0z" fill-rule="evenodd"/><path stroke="#b45f06" stroke-width="2.0" stroke-linejoin="round" stroke-linecap="butt" d="m22.028872 33.805737l17.314436 -21.417324l51.943306 0l17.314438 21.417324l-17.314438 21.41732l-51.943306 0z" fill-rule="evenodd"/><path fill="#434343" d="m55.62289 33.730736l-1.796875 0.328125q-0.09375 -0.53125 -0.421875 -0.796875q-0.328125 -0.28125 -0.828125 -0.28125q-0.6875 0 -1.09375 0.46875q-0.40625 0.46875 -0.40625 1.578125q0 1.234375 0.40625 1.75q0.421875 0.5 1.109375 0.5q0.53125 0 0.859375 -0.296875q0.328125 -0.296875 0.46875 -1.03125l1.796875 0.3125q-0.28125 1.234375 -1.078125 1.875q-0.796875 0.625 -2.125 0.625q-1.515625 0 -2.421875 -0.953125q-0.90625 -0.953125 -0.90625 -2.65625q0 -1.703125 0.90625 -2.65625q0.90625 -0.953125 2.453125 -0.953125q1.265625 0 2.0 0.546875q0.75 0.53125 1.078125 1.640625zm0.5218506 -2.03125l1.9375 0l1.65625 4.90625l1.609375 -4.90625l1.90625 0l-2.453125 6.640625l-0.421875 1.203125q-0.25 0.609375 -0.46875 0.921875q-0.21875 0.328125 -0.5 0.515625q-0.28125 0.203125 -0.703125 0.3125q-0.40625 0.125 -0.921875 0.125q-0.53125 0 -1.03125 -0.125l-0.171875 -1.421875q0.4375 0.078125 0.78125 0.078125q0.640625 0 0.9375 -0.375q0.3125 -0.375 0.46875 -0.953125l-2.625 -6.921875zm14.303097 2.03125l-1.796875 0.328125q-0.09375 -0.53125 -0.421875 -0.796875q-0.328125 -0.28125 -0.828125 -0.28125q-0.6875 0 -1.09375 0.46875q-0.40625 0.46875 -0.40625 1.578125q0 1.234375 0.40625 1.75q0.421875 0.5 1.109375 0.5q0.53125 0 0.859375 -0.296875q0.328125 -0.296875 0.46875 -1.03125l1.796875 0.3125q-0.28125 1.234375 -1.078125 1.875q-0.796875 0.625 -2.125 0.625q-1.515625 0 -2.421875 -0.953125q-0.90625 -0.953125 -0.90625 -2.65625q0 -1.703125 0.90625 -2.65625q0.90625 -0.953125 2.453125 -0.953125q1.265625 0 2.0 0.546875q0.75 0.53125 1.078125 1.640625zm1.3812256 4.875l0 -9.546875l1.828125 0l0 9.546875l-1.828125 0zm7.7029877 -2.203125l1.828125 0.3125q-0.34375 1.0 -1.109375 1.53125q-0.765625 0.515625 -1.890625 0.515625q-1.8125 0 -2.671875 -1.171875q-0.6875 -0.953125 -0.6875 -2.390625q0 -1.71875 0.890625 -2.6875q0.90625 -0.96875 2.28125 -0.96875q1.546875 0 2.4375 1.015625q0.890625 1.015625 0.84375 3.125l-4.578125 0q0.015625 0.8125 0.4375 1.265625q0.421875 0.453125 1.0625 0.453125q0.421875 0 0.71875 -0.234375q0.296875 -0.234375 0.4375 -0.765625zm0.109375 -1.84375q-0.015625 -0.796875 -0.40625 -1.203125q-0.390625 -0.421875 -0.953125 -0.421875q-0.59375 0 -0.984375 0.4375q-0.390625 0.4375 -0.390625 1.1875l2.734375 0z" fill-rule="nonzero"/><path fill="#000000" fill-opacity="0.0" d="m108.60105 33.805737l40.188972 0" fill-rule="evenodd"/><path stroke="#b6d7a8" stroke-width="2.0" stroke-linejoin="round" stroke-linecap="butt" d="m108.60105 33.805737l28.188972 0" fill-rule="evenodd"/><path fill="#b6d7a8" stroke="#b6d7a8" stroke-width="2.0" stroke-linecap="butt" d="m136.79002 37.1092l9.076202 -3.303463l-9.076202 -3.303465z" fill-rule="evenodd"/><path fill="#e06666" d="m31.155085 178.19955l0 0c0 -4.966217 4.5688114 -8.992126 10.204725 -8.992126l0 0c5.635914 0 10.204723 4.0259094 10.204723 8.992126l0 0c0 4.966217 -4.5688095 8.992126 -10.204723 8.992126l0 0c-5.635914 0 -10.204725 -4.0259094 -10.204725 -8.992126z" fill-rule="evenodd"/><path stroke="#434343" stroke-width="2.0" stroke-linejoin="round" stroke-linecap="butt" d="m31.155085 178.19955l0 0c0 -4.966217 4.5688114 -8.992126 10.204725 -8.992126l0 0c5.635914 0 10.204723 4.0259094 10.204723 8.992126l0 0c0 4.966217 -4.5688095 8.992126 -10.204723 8.992126l0 0c-5.635914 0 -10.204725 -4.0259094 -10.204725 -8.992126z" fill-rule="evenodd"/><path fill="#000000" fill-opacity="0.0" d="m41.35981 169.20743l0 -64.850395l145.7638 0" fill-rule="evenodd"/><path stroke="#b6d7a8" stroke-width="2.0" stroke-linejoin="round" stroke-linecap="butt" d="m41.35981 169.20743l0 -64.85039l133.76376 0" fill-rule="evenodd"/><path fill="#b6d7a8" stroke="#b6d7a8" stroke-width="2.0" stroke-linecap="butt" d="m175.12358 107.6605l9.076202 -3.3034592l-9.076202 -3.3034668z" fill-rule="evenodd"/></g></svg>