<svg version="1.1" viewBox="0.0 0.0 596.9606299212599 701.7139107611548" fill="none" stroke="none" stroke-linecap="square" stroke-miterlimit="10" xmlns:xlink="http://www.w3.org/1999/xlink" xmlns="http://www.w3.org/2000/svg"><clipPath id="p.0"><path d="m0 0l596.96063 0l0 701.7139l-596.96063 0l0 -701.7139z" clip-rule="nonzero"/></clipPath><g clip-path="url(#p.0)"><path fill="#000000" fill-opacity="0.0" d="m0 0l596.96063 0l0 701.7139l-596.96063 0z" fill-rule="evenodd"/><path fill="#434343" d="m-1.6010499 -1.1391076l598.5512 0l0 702.86615l-598.5512 0z" fill-rule="evenodd"/><path stroke="#434343" stroke-width="4.0" stroke-linejoin="round" stroke-linecap="butt" d="m-1.6010499 -1.1391076l598.5512 0l0 702.86615l-598.5512 0z" fill-rule="evenodd"/><path fill="#f1c232" d="m215.41208 399.08792l208.15726 0c2.923706 0 5.727661 1.161438 7.795044 3.2288208c2.0673523 2.0673523 3.2287903 4.8713074 3.2287903 7.7950134l0 55.11789l-219.18109 0z" fill-rule="evenodd"/><path stroke="#cc0000" stroke-width="2.0" stroke-linejoin="round" stroke-linecap="butt" d="m215.41208 399.08792l208.15726 0c2.923706 0 5.727661 1.161438 7.795044 3.2288208c2.0673523 2.0673523 3.2287903 4.8713074 3.2287903 7.7950134l0 55.11789l-219.18109 0z" fill-rule="evenodd"/><path fill="#000000" d="m258.75458 439.0788l-2.5625 0l0 -9.671875l2.375 0l0 1.375q0.609375 -0.984375 1.09375 -1.28125q0.484375 -0.3125 1.109375 -0.3125q0.875 0 1.6875 0.484375l-0.796875 2.234375q-0.640625 -0.421875 -1.203125 -0.421875q-0.53125 0 -0.90625 0.296875q-0.375 0.296875 -0.59375 1.078125q-0.203125 0.765625 -0.203125 3.234375l0 2.984375zm10.400879 -3.078125l2.546875 0.421875q-0.484375 1.40625 -1.546875 2.140625q-1.0625 0.734375 -2.65625 0.734375q-2.515625 0 -3.734375 -1.65625q-0.953125 -1.3125 -0.953125 -3.328125q0 -2.40625 1.25 -3.765625q1.265625 -1.359375 3.1875 -1.359375q2.15625 0 3.40625 1.421875q1.25 1.421875 1.1875 4.375l-6.40625 0q0.03125 1.140625 0.609375 1.78125q0.59375 0.625 1.484375 0.625q0.59375 0 1.0 -0.328125q0.421875 -0.328125 0.625 -1.0625zm0.15625 -2.59375q-0.03125 -1.109375 -0.578125 -1.6875q-0.546875 -0.578125 -1.328125 -0.578125q-0.84375 0 -1.390625 0.609375q-0.546875 0.609375 -0.53125 1.65625l3.828125 0zm4.5476074 -4.0l2.390625 0l0 1.421875q0.46875 -0.734375 1.25 -1.1875q0.796875 -0.453125 1.765625 -0.453125q1.6875 0 2.859375 1.328125q1.171875 1.3125 1.171875 3.671875q0 2.421875 -1.1875 3.765625q-1.1875 1.34375 -2.859375 1.34375q-0.8125 0 -1.46875 -0.3125q-0.640625 -0.328125 -1.359375 -1.09375l0 4.875l-2.5625 0l0 -13.359375zm2.53125 4.671875q0 1.625 0.640625 2.40625q0.65625 0.78125 1.578125 0.78125q0.90625 0 1.484375 -0.71875q0.59375 -0.71875 0.59375 -2.34375q0 -1.515625 -0.609375 -2.25q-0.609375 -0.75 -1.515625 -0.75q-0.9375 0 -1.5625 0.734375q-0.609375 0.71875 -0.609375 2.140625zm14.536591 1.921875l2.546875 0.421875q-0.484375 1.40625 -1.546875 2.140625q-1.0625 0.734375 -2.65625 0.734375q-2.515625 0 -3.734375 -1.65625q-0.953125 -1.3125 -0.953125 -3.328125q0 -2.40625 1.25 -3.765625q1.265625 -1.359375 3.1875 -1.359375q2.15625 0 3.40625 1.421875q1.25 1.421875 1.1875 4.375l-6.40625 0q0.03125 1.140625 0.609375 1.78125q0.59375 0.625 1.484375 0.625q0.59375 0 1.0 -0.328125q0.421875 -0.328125 0.625 -1.0625zm0.15625 -2.59375q-0.03125 -1.109375 -0.578125 -1.6875q-0.546875 -0.578125 -1.328125 -0.578125q-0.84375 0 -1.390625 0.609375q-0.546875 0.609375 -0.53125 1.65625l3.828125 0zm9.063232 -4.0l0 2.03125l-1.75 0l0 3.90625q0 1.1875 0.046875 1.390625q0.046875 0.1875 0.21875 0.3125q0.1875 0.125 0.4375 0.125q0.359375 0 1.03125 -0.25l0.21875 2.0q-0.890625 0.375 -2.015625 0.375q-0.703125 0 -1.265625 -0.234375q-0.546875 -0.234375 -0.8125 -0.59375q-0.25 -0.375 -0.34375 -1.0q-0.09375 -0.453125 -0.09375 -1.8125l0 -4.21875l-1.171875 0l0 -2.03125l1.171875 0l0 -1.921875l2.578125 -1.5l0 3.421875l1.75 0zm1.775177 -1.3125l0 -2.375l2.5625 0l0 2.375l-2.5625 0zm0 10.984375l0 -9.671875l2.5625 0l0 9.671875l-2.5625 0zm9.620789 -9.671875l0 2.03125l-1.75 0l0 3.90625q0 1.1875 0.046875 1.390625q0.046875 0.1875 0.21875 0.3125q0.1875 0.125 0.4375 0.125q0.359375 0 1.03125 -0.25l0.21875 2.0q-0.890625 0.375 -2.015625 0.375q-0.703125 0 -1.265625 -0.234375q-0.546875 -0.234375 -0.8125 -0.59375q-0.25 -0.375 -0.34375 -1.0q-0.09375 -0.453125 -0.09375 -1.8125l0 -4.21875l-1.171875 0l0 -2.03125l1.171875 0l0 -1.921875l2.578125 -1.5l0 3.421875l1.75 0zm1.775177 -1.3125l0 -2.375l2.5625 0l0 2.375l-2.5625 0zm0 10.984375l0 -9.671875l2.5625 0l0 9.671875l-2.5625 0zm7.839569 0l-3.90625 -9.671875l2.6875 0l1.828125 4.9375l0.53125 1.640625q0.203125 -0.625 0.265625 -0.828125q0.125 -0.40625 0.265625 -0.8125l1.84375 -4.9375l2.625 0l-3.84375 9.671875l-2.296875 0zm13.313202 -3.078125l2.546875 0.421875q-0.484375 1.40625 -1.546875 2.140625q-1.0625 0.734375 -2.65625 0.734375q-2.515625 0 -3.734375 -1.65625q-0.953125 -1.3125 -0.953125 -3.328125q0 -2.40625 1.25 -3.765625q1.265625 -1.359375 3.1875 -1.359375q2.15625 0 3.40625 1.421875q1.25 1.421875 1.1875 4.375l-6.40625 0q0.03125 1.140625 0.609375 1.78125q0.59375 0.625 1.484375 0.625q0.59375 0 1.0 -0.328125q0.421875 -0.328125 0.625 -1.0625zm0.15625 -2.59375q-0.03125 -1.109375 -0.578125 -1.6875q-0.546875 -0.578125 -1.328125 -0.578125q-0.84375 0 -1.390625 0.609375q-0.546875 0.609375 -0.53125 1.65625l3.828125 0zm9.699646 5.671875l0 -13.359375l2.5625 0l0 4.8125q1.171875 -1.34375 2.796875 -1.34375q1.765625 0 2.921875 1.28125q1.15625 1.28125 1.15625 3.671875q0 2.484375 -1.1875 3.828125q-1.171875 1.328125 -2.859375 1.328125q-0.828125 0 -1.640625 -0.40625q-0.796875 -0.421875 -1.375 -1.234375l0 1.421875l-2.375 0zm2.53125 -5.046875q0 1.5 0.484375 2.21875q0.65625 1.03125 1.765625 1.03125q0.84375 0 1.4375 -0.71875q0.59375 -0.734375 0.59375 -2.296875q0 -1.65625 -0.609375 -2.390625q-0.59375 -0.734375 -1.53125 -0.734375q-0.921875 0 -1.53125 0.71875q-0.609375 0.71875 -0.609375 2.171875zm8.974121 5.046875l0 -13.359375l2.5625 0l0 13.359375l-2.5625 0zm4.5895386 -4.96875q0 -1.28125 0.625 -2.46875q0.625 -1.203125 1.78125 -1.828125q1.15625 -0.625 2.578125 -0.625q2.1875 0 3.59375 1.421875q1.40625 1.421875 1.40625 3.609375q0 2.1875 -1.421875 3.640625q-1.421875 1.4375 -3.5625 1.4375q-1.328125 0 -2.546875 -0.59375q-1.203125 -0.609375 -1.828125 -1.765625q-0.625 -1.171875 -0.625 -2.828125zm2.625 0.125q0 1.453125 0.671875 2.21875q0.6875 0.75 1.6875 0.75q1.0 0 1.671875 -0.75q0.6875 -0.765625 0.6875 -2.234375q0 -1.421875 -0.6875 -2.1875q-0.671875 -0.765625 -1.671875 -0.765625q-1.0 0 -1.6875 0.765625q-0.671875 0.765625 -0.671875 2.203125zm17.802246 -1.96875l-2.53125 0.453125q-0.125 -0.75 -0.578125 -1.125q-0.453125 -0.390625 -1.171875 -0.390625q-0.953125 0 -1.53125 0.65625q-0.5625 0.65625 -0.5625 2.203125q0 1.734375 0.578125 2.4375q0.578125 0.703125 1.546875 0.703125q0.734375 0 1.203125 -0.40625q0.46875 -0.421875 0.65625 -1.421875l2.515625 0.421875q-0.390625 1.734375 -1.515625 2.625q-1.109375 0.875 -2.96875 0.875q-2.125 0 -3.390625 -1.328125q-1.25 -1.34375 -1.25 -3.71875q0 -2.390625 1.265625 -3.71875q1.265625 -1.34375 3.421875 -1.34375q1.765625 0 2.796875 0.765625q1.046875 0.75 1.515625 2.3125zm1.8444519 6.8125l0 -13.359375l2.5625 0l0 7.09375l3.0 -3.40625l3.140625 0l-3.296875 3.53125l3.53125 6.140625l-2.75 0l-2.4375 -4.34375l-1.1875 1.25l0 3.09375l-2.5625 0z" fill-rule="nonzero"/><path fill="#f9cb9c" d="m201.31758 85.14829l35.09282 -66.14173l212.27725 0l-35.092804 66.14173z" fill-rule="evenodd"/><path stroke="#cc0000" stroke-width="2.0" stroke-linejoin="round" stroke-linecap="butt" d="m201.31758 85.14829l35.09282 -66.14173l212.27725 0l-35.092804 66.14173z" fill-rule="evenodd"/><path fill="#000000" d="m305.2707 46.557426l-2.71875 0l0 -1.625q-0.671875 0.953125 -1.59375 1.421875q-0.921875 0.453125 -1.859375 0.453125q-1.90625 0 -3.265625 -1.53125q-1.359375 -1.546875 -1.359375 -4.296875q0 -2.8125 1.3125 -4.265625q1.328125 -1.46875 3.359375 -1.46875q1.84375 0 3.203125 1.546875l0 -5.499998l2.921875 0l0 15.265623zm-7.8125 -5.765625q0 1.765625 0.5 2.5625q0.703125 1.140625 1.96875 1.140625q1.015625 0 1.71875 -0.859375q0.71875 -0.859375 0.71875 -2.5625q0 -1.90625 -0.6875 -2.75q-0.6875 -0.84375 -1.765625 -0.84375q-1.046875 0 -1.75 0.828125q-0.703125 0.828125 -0.703125 2.484375zm17.106201 2.25l2.90625 0.484375q-0.546875 1.609375 -1.765625 2.453125q-1.21875 0.828125 -3.03125 0.828125q-2.890625 0 -4.28125 -1.890625q-1.09375 -1.5 -1.09375 -3.8125q0 -2.75 1.4375 -4.296875q1.4375 -1.5625 3.640625 -1.5625q2.46875 0 3.890625 1.640625q1.421875 1.625 1.359375 4.984375l-7.328125 0q0.03125 1.296875 0.703125 2.03125q0.6875 0.71875 1.703125 0.71875q0.6875 0 1.15625 -0.375q0.46875 -0.375 0.703125 -1.203125zm0.171875 -2.96875q-0.03125 -1.265625 -0.65625 -1.921875q-0.625 -0.671875 -1.53125 -0.671875q-0.953125 0 -1.578125 0.703125q-0.625 0.703125 -0.609375 1.890625l4.375 0zm4.0023193 -4.578125l1.625 0l0 -0.828125q0 -1.390625 0.296875 -2.078125q0.296875 -0.6874981 1.09375 -1.1249981q0.796875 -0.4375 2.015625 -0.4375q1.25 0 2.453125 0.375l-0.40625 2.046873q-0.6875 -0.171875 -1.34375 -0.171875q-0.625 0 -0.90625 0.296875q-0.28125 0.296875 -0.28125 1.140625l0 0.78125l2.1875 0l0 2.296875l-2.1875 0l0 8.765625l-2.921875 0l0 -8.765625l-1.625 0l0 -2.296875zm8.3836975 -1.5l0 -2.703123l2.921875 0l0 2.703123l-2.921875 0zm0 12.5625l0 -11.0625l2.921875 0l0 11.0625l-2.921875 0zm15.988129 0l-2.921875 0l0 -5.640625q0 -1.796875 -0.1875 -2.3125q-0.1875 -0.53125 -0.609375 -0.828125q-0.421875 -0.296875 -1.015625 -0.296875q-0.765625 0 -1.375 0.421875q-0.59375 0.421875 -0.828125 1.109375q-0.21875 0.6875 -0.21875 2.53125l0 5.015625l-2.921875 0l0 -11.0625l2.71875 0l0 1.625q1.4375 -1.875 3.640625 -1.875q0.96875 0 1.765625 0.359375q0.8125 0.34375 1.21875 0.890625q0.40625 0.53125 0.5625 1.21875q0.171875 0.6875 0.171875 1.96875l0 6.875zm9.371826 -3.515625l2.90625 0.484375q-0.546875 1.609375 -1.765625 2.453125q-1.21875 0.828125 -3.03125 0.828125q-2.890625 0 -4.28125 -1.890625q-1.09375 -1.5 -1.09375 -3.8125q0 -2.75 1.4375 -4.296875q1.4375 -1.5625 3.640625 -1.5625q2.46875 0 3.890625 1.640625q1.421875 1.625 1.359375 4.984375l-7.328125 0q0.03125 1.296875 0.703125 2.03125q0.6875 0.71875 1.703125 0.71875q0.6875 0 1.15625 -0.375q0.46875 -0.375 0.703125 -1.203125zm0.171875 -2.96875q-0.03125 -1.265625 -0.65625 -1.921875q-0.625 -0.671875 -1.53125 -0.671875q-0.953125 0 -1.578125 0.703125q-0.625 0.703125 -0.609375 1.890625l4.375 0z" fill-rule="nonzero"/><path fill="#000000" d="m253.02573 72.55743l0 -15.265625l2.921875 0l0 15.265625l-2.921875 0zm5.253784 -5.6875q0 -1.453125 0.71875 -2.8125q0.71875 -1.375 2.03125 -2.09375q1.3125 -0.71875 2.9375 -0.71875q2.515625 0 4.109375 1.640625q1.609375 1.625 1.609375 4.109375q0 2.515625 -1.625 4.171875q-1.609375 1.640625 -4.0625 1.640625q-1.53125 0 -2.90625 -0.6875q-1.375 -0.6875 -2.09375 -2.015625q-0.71875 -1.328125 -0.71875 -3.234375zm3.0 0.15625q0 1.640625 0.78125 2.515625q0.78125 0.875 1.921875 0.875q1.140625 0 1.921875 -0.875q0.78125 -0.875 0.78125 -2.53125q0 -1.625 -0.78125 -2.5q-0.78125 -0.875 -1.921875 -0.875q-1.140625 0 -1.921875 0.875q-0.78125 0.875 -0.78125 2.515625zm20.340576 -2.265625l-2.875 0.53125q-0.15625 -0.875 -0.671875 -1.3125q-0.515625 -0.4375 -1.328125 -0.4375q-1.09375 0 -1.75 0.765625q-0.65625 0.75 -0.65625 2.515625q0 1.96875 0.65625 2.78125q0.671875 0.8125 1.78125 0.8125q0.84375 0 1.375 -0.46875q0.53125 -0.46875 0.75 -1.625l2.859375 0.484375q-0.4375 1.984375 -1.71875 3.0q-1.265625 1.0 -3.390625 1.0q-2.4375 0 -3.875 -1.53125q-1.4375 -1.53125 -1.4375 -4.234375q0 -2.75 1.4375 -4.265625q1.453125 -1.53125 3.921875 -1.53125q2.015625 0 3.203125 0.875q1.203125 0.859375 1.71875 2.640625zm4.4085693 0.109375l-2.65625 -0.484375q0.453125 -1.59375 1.546875 -2.359375q1.09375 -0.78125 3.25 -0.78125q1.953125 0 2.90625 0.46875q0.96875 0.453125 1.359375 1.171875q0.390625 0.71875 0.390625 2.625l-0.03125 3.40625q0 1.46875 0.125 2.15625q0.140625 0.6875 0.53125 1.484375l-2.890625 0q-0.109375 -0.296875 -0.28125 -0.859375q-0.078125 -0.265625 -0.109375 -0.34375q-0.75 0.71875 -1.609375 1.09375q-0.84375 0.359375 -1.8125 0.359375q-1.703125 0 -2.6875 -0.921875q-0.984375 -0.9375 -0.984375 -2.34375q0 -0.9375 0.4375 -1.671875q0.453125 -0.734375 1.25 -1.125q0.8125 -0.390625 2.34375 -0.6875q2.046875 -0.390625 2.84375 -0.71875l0 -0.296875q0 -0.84375 -0.421875 -1.203125q-0.421875 -0.359375 -1.578125 -0.359375q-0.78125 0 -1.21875 0.3125q-0.4375 0.3125 -0.703125 1.078125zm3.921875 2.375q-0.5625 0.1875 -1.78125 0.453125q-1.21875 0.25 -1.59375 0.5q-0.578125 0.40625 -0.578125 1.03125q0 0.625 0.453125 1.078125q0.46875 0.4375 1.171875 0.4375q0.796875 0 1.515625 -0.515625q0.53125 -0.40625 0.6875 -0.96875q0.125 -0.375 0.125 -1.4375l0 -0.578125zm5.7523193 5.3125l0 -15.265625l2.921875 0l0 15.265625l-2.921875 0zm14.898163 0l-4.46875 -11.0625l3.078125 0l2.078125 5.640625l0.609375 1.890625q0.234375 -0.71875 0.296875 -0.953125q0.15625 -0.46875 0.3125 -0.9375l2.109375 -5.640625l3.0 0l-4.390625 11.0625l-2.625 0zm11.002319 -7.6875l-2.65625 -0.484375q0.453125 -1.59375 1.546875 -2.359375q1.09375 -0.78125 3.25 -0.78125q1.953125 0 2.90625 0.46875q0.96875 0.453125 1.359375 1.171875q0.390625 0.71875 0.390625 2.625l-0.03125 3.40625q0 1.46875 0.125 2.15625q0.140625 0.6875 0.53125 1.484375l-2.890625 0q-0.109375 -0.296875 -0.28125 -0.859375q-0.078125 -0.265625 -0.109375 -0.34375q-0.75 0.71875 -1.609375 1.09375q-0.84375 0.359375 -1.8125 0.359375q-1.703125 0 -2.6875 -0.921875q-0.984375 -0.9375 -0.984375 -2.34375q0 -0.9375 0.4375 -1.671875q0.453125 -0.734375 1.25 -1.125q0.8125 -0.390625 2.34375 -0.6875q2.046875 -0.390625 2.84375 -0.71875l0 -0.296875q0 -0.84375 -0.421875 -1.203125q-0.421875 -0.359375 -1.578125 -0.359375q-0.78125 0 -1.21875 0.3125q-0.4375 0.3125 -0.703125 1.078125zm3.921875 2.375q-0.5625 0.1875 -1.78125 0.453125q-1.21875 0.25 -1.59375 0.5q-0.578125 0.40625 -0.578125 1.03125q0 0.625 0.453125 1.078125q0.46875 0.4375 1.171875 0.4375q0.796875 0 1.515625 -0.515625q0.53125 -0.40625 0.6875 -0.96875q0.125 -0.375 0.125 -1.4375l0 -0.578125zm8.549194 5.3125l-2.921875 0l0 -11.0625l2.71875 0l0 1.578125q0.703125 -1.125 1.25 -1.46875q0.5625 -0.359375 1.265625 -0.359375q1.0 0 1.9375 0.5625l-0.90625 2.546875q-0.75 -0.484375 -1.375 -0.484375q-0.625 0 -1.046875 0.34375q-0.421875 0.328125 -0.671875 1.21875q-0.25 0.890625 -0.25 3.703125l0 3.421875zm5.503174 -12.5625l0 -2.703125l2.921875 0l0 2.703125l-2.921875 0zm0 12.5625l0 -11.0625l2.921875 0l0 11.0625l-2.921875 0zm8.113159 -7.6875l-2.65625 -0.484375q0.453125 -1.59375 1.546875 -2.359375q1.09375 -0.78125 3.25 -0.78125q1.953125 0 2.90625 0.46875q0.96875 0.453125 1.359375 1.171875q0.390625 0.71875 0.390625 2.625l-0.03125 3.40625q0 1.46875 0.125 2.15625q0.140625 0.6875 0.53125 1.484375l-2.890625 0q-0.109375 -0.296875 -0.28125 -0.859375q-0.078125 -0.265625 -0.109375 -0.34375q-0.75 0.71875 -1.609375 1.09375q-0.84375 0.359375 -1.8125 0.359375q-1.703125 0 -2.6875 -0.921875q-0.984375 -0.9375 -0.984375 -2.34375q0 -0.9375 0.4375 -1.671875q0.453125 -0.734375 1.25 -1.125q0.8125 -0.390625 2.34375 -0.6875q2.046875 -0.390625 2.84375 -0.71875l0 -0.296875q0 -0.84375 -0.421875 -1.203125q-0.421875 -0.359375 -1.578125 -0.359375q-0.78125 0 -1.21875 0.3125q-0.4375 0.3125 -0.703125 1.078125zm3.921875 2.375q-0.5625 0.1875 -1.78125 0.453125q-1.21875 0.25 -1.59375 0.5q-0.578125 0.40625 -0.578125 1.03125q0 0.625 0.453125 1.078125q0.46875 0.4375 1.171875 0.4375q0.796875 0 1.515625 -0.515625q0.53125 -0.40625 0.6875 -0.96875q0.125 -0.375 0.125 -1.4375l0 -0.578125zm5.6273193 5.3125l0 -15.265625l2.921875 0l0 5.5q1.359375 -1.546875 3.21875 -1.546875q2.015625 0 3.328125 1.46875q1.328125 1.453125 1.328125 4.203125q0 2.828125 -1.34375 4.359375q-1.34375 1.53125 -3.28125 1.53125q-0.9375 0 -1.859375 -0.46875q-0.921875 -0.484375 -1.59375 -1.40625l0 1.625l-2.71875 0zm2.90625 -5.765625q0 1.71875 0.546875 2.53125q0.75 1.171875 2.015625 1.171875q0.96875 0 1.640625 -0.828125q0.6875 -0.828125 0.6875 -2.609375q0 -1.890625 -0.6875 -2.734375q-0.6875 -0.84375 -1.75 -0.84375q-1.0625 0 -1.765625 0.828125q-0.6875 0.8125 -0.6875 2.484375zm10.246826 5.765625l0 -15.265625l2.921875 0l0 15.265625l-2.921875 0zm12.331879 -3.515625l2.90625 0.484375q-0.546875 1.609375 -1.765625 2.453125q-1.21875 0.828125 -3.03125 0.828125q-2.890625 0 -4.28125 -1.890625q-1.09375 -1.5 -1.09375 -3.8125q0 -2.75 1.4375 -4.296875q1.4375 -1.5625 3.640625 -1.5625q2.46875 0 3.890625 1.640625q1.421875 1.625 1.359375 4.984375l-7.328125 0q0.03125 1.296875 0.703125 2.03125q0.6875 0.71875 1.703125 0.71875q0.6875 0 1.15625 -0.375q0.46875 -0.375 0.703125 -1.203125zm0.171875 -2.96875q-0.03125 -1.265625 -0.65625 -1.921875q-0.625 -0.671875 -1.53125 -0.671875q-0.953125 0 -1.578125 0.703125q-0.625 0.703125 -0.609375 1.890625l4.375 0zm4.2523193 3.328125l2.9375 -0.453125q0.1875 0.859375 0.75 1.3125q0.578125 0.4375 1.609375 0.4375q1.140625 0 1.71875 -0.421875q0.375 -0.296875 0.375 -0.78125q0 -0.328125 -0.203125 -0.546875q-0.21875 -0.21875 -0.984375 -0.390625q-3.53125 -0.78125 -4.484375 -1.421875q-1.3125 -0.90625 -1.3125 -2.5q0 -1.4375 1.125 -2.40625q1.140625 -0.984375 3.53125 -0.984375q2.265625 0 3.375 0.75q1.109375 0.734375 1.515625 2.171875l-2.75 0.515625q-0.1875 -0.640625 -0.6875 -0.984375q-0.484375 -0.34375 -1.40625 -0.34375q-1.15625 0 -1.65625 0.3125q-0.328125 0.234375 -0.328125 0.59375q0 0.3125 0.296875 0.53125q0.390625 0.296875 2.71875 0.828125q2.34375 0.53125 3.28125 1.296875q0.90625 0.78125 0.90625 2.1875q0 1.515625 -1.265625 2.609375q-1.265625 1.09375 -3.765625 1.09375q-2.25 0 -3.578125 -0.90625q-1.3125 -0.921875 -1.71875 -2.5z" fill-rule="nonzero"/><path fill="#f1c232" d="m200.16798 166.97244l123.68504 -45.055122l123.68503 45.055122l-123.68503 45.055115z" fill-rule="evenodd"/><path stroke="#cc0000" stroke-width="2.0" stroke-linejoin="round" stroke-linecap="butt" d="m200.16798 166.97244l123.68504 -45.055122l123.68503 45.055122l-123.68503 45.055115z" fill-rule="evenodd"/><path fill="#000000" d="m291.6668 167.07994l-2.53125 0.453125q-0.125 -0.75 -0.578125 -1.125q-0.453125 -0.390625 -1.171875 -0.390625q-0.953125 0 -1.53125 0.65625q-0.5625 0.65625 -0.5625 2.203125q0 1.734375 0.578125 2.4375q0.578125 0.703125 1.546875 0.703125q0.734375 0 1.203125 -0.40625q0.46875 -0.421875 0.65625 -1.421875l2.515625 0.421875q-0.390625 1.734375 -1.515625 2.625q-1.109375 0.875 -2.96875 0.875q-2.125 0 -3.390625 -1.328125q-1.25 -1.34375 -1.25 -3.71875q0 -2.390625 1.265625 -3.71875q1.265625 -1.34375 3.421875 -1.34375q1.765625 0 2.796875 0.765625q1.046875 0.75 1.515625 2.3125zm1.3444824 1.84375q0 -1.28125 0.625 -2.46875q0.625 -1.203125 1.78125 -1.828125q1.15625 -0.625 2.578125 -0.625q2.1875 0 3.59375 1.421875q1.40625 1.421875 1.40625 3.609375q0 2.1875 -1.421875 3.640625q-1.421875 1.4375 -3.5625 1.4375q-1.328125 0 -2.546875 -0.59375q-1.203125 -0.609375 -1.828125 -1.765625q-0.625 -1.171875 -0.625 -2.828125zm2.625 0.125q0 1.453125 0.671875 2.21875q0.6875 0.75 1.6875 0.75q1.0 0 1.671875 -0.75q0.6875 -0.765625 0.6875 -2.234375q0 -1.421875 -0.6875 -2.1875q-0.671875 -0.765625 -1.671875 -0.765625q-1.0 0 -1.6875 0.765625q-0.671875 0.765625 -0.671875 2.203125zm18.16159 4.84375l-2.5625 0l0 -4.9375q0 -1.5625 -0.171875 -2.015625q-0.15625 -0.46875 -0.53125 -0.71875q-0.359375 -0.265625 -0.875 -0.265625q-0.671875 0 -1.203125 0.375q-0.53125 0.359375 -0.734375 0.96875q-0.1875 0.59375 -0.1875 2.21875l0 4.375l-2.546875 0l0 -9.671875l2.375 0l0 1.421875q1.265625 -1.640625 3.1875 -1.640625q0.84375 0 1.546875 0.3125q0.703125 0.296875 1.0625 0.78125q0.359375 0.46875 0.5 1.078125q0.140625 0.59375 0.140625 1.703125l0 6.015625zm11.474121 0l-2.390625 0l0 -1.421875q-0.59375 0.828125 -1.40625 1.234375q-0.796875 0.40625 -1.609375 0.40625q-1.671875 0 -2.859375 -1.34375q-1.1875 -1.34375 -1.1875 -3.75q0 -2.453125 1.15625 -3.734375q1.15625 -1.28125 2.921875 -1.28125q1.625 0 2.8125 1.34375l0 -4.8125l2.5625 0l0 13.359375zm-6.84375 -5.046875q0 1.546875 0.4375 2.234375q0.609375 1.015625 1.71875 1.015625q0.890625 0 1.5 -0.75q0.625 -0.765625 0.625 -2.25q0 -1.671875 -0.609375 -2.40625q-0.59375 -0.734375 -1.53125 -0.734375q-0.90625 0 -1.53125 0.734375q-0.609375 0.71875 -0.609375 2.15625zm9.364716 -5.9375l0 -2.375l2.5625 0l0 2.375l-2.5625 0zm0 10.984375l0 -9.671875l2.5625 0l0 9.671875l-2.5625 0zm9.620819 -9.671875l0 2.03125l-1.75 0l0 3.90625q0 1.1875 0.046875 1.390625q0.046875 0.1875 0.21875 0.3125q0.1875 0.125 0.4375 0.125q0.359375 0 1.03125 -0.25l0.21875 2.0q-0.890625 0.375 -2.015625 0.375q-0.703125 0 -1.265625 -0.234375q-0.546875 -0.234375 -0.8125 -0.59375q-0.25 -0.375 -0.34375 -1.0q-0.09375 -0.453125 -0.09375 -1.8125l0 -4.21875l-1.171875 0l0 -2.03125l1.171875 0l0 -1.921875l2.578125 -1.5l0 3.421875l1.75 0zm1.775177 -1.3125l0 -2.375l2.5625 0l0 2.375l-2.5625 0zm0 10.984375l0 -9.671875l2.5625 0l0 9.671875l-2.5625 0zm4.5895386 -4.96875q0 -1.28125 0.625 -2.46875q0.625 -1.203125 1.78125 -1.828125q1.15625 -0.625 2.578125 -0.625q2.1875 0 3.59375 1.421875q1.40625 1.421875 1.40625 3.609375q0 2.1875 -1.421875 3.640625q-1.421875 1.4375 -3.5625 1.4375q-1.328125 0 -2.546875 -0.59375q-1.203125 -0.609375 -1.828125 -1.765625q-0.625 -1.171875 -0.625 -2.828125zm2.625 0.125q0 1.453125 0.671875 2.21875q0.6875 0.75 1.6875 0.75q1.0 0 1.671875 -0.75q0.6875 -0.765625 0.6875 -2.234375q0 -1.421875 -0.6875 -2.1875q-0.671875 -0.765625 -1.671875 -0.765625q-1.0 0 -1.6875 0.765625q-0.671875 0.765625 -0.671875 2.203125zm18.161621 4.84375l-2.5625 0l0 -4.9375q0 -1.5625 -0.171875 -2.015625q-0.15625 -0.46875 -0.53125 -0.71875q-0.359375 -0.265625 -0.875 -0.265625q-0.671875 0 -1.203125 0.375q-0.53125 0.359375 -0.734375 0.96875q-0.1875 0.59375 -0.1875 2.21875l0 4.375l-2.546875 0l0 -9.671875l2.375 0l0 1.421875q1.265625 -1.640625 3.1875 -1.640625q0.84375 0 1.546875 0.3125q0.703125 0.296875 1.0625 0.78125q0.359375 0.46875 0.5 1.078125q0.140625 0.59375 0.140625 1.703125l0 6.015625z" fill-rule="nonzero"/><path fill="#000000" fill-opacity="0.0" d="m323.85303 212.02756l0 69.82678" fill-rule="evenodd"/><path stroke="#b7b7b7" stroke-width="2.0" stroke-linejoin="round" stroke-linecap="butt" d="m323.85303 212.02756l0 57.826782" fill-rule="evenodd"/><path fill="#b7b7b7" stroke="#b7b7b7" stroke-width="2.0" stroke-linecap="butt" d="m320.54956 269.85434l3.3034668 9.076172l3.3034668 -9.076172z" fill-rule="evenodd"/><path fill="#000000" fill-opacity="0.0" d="m325.00262 85.14829l-1.1338501 36.755905" fill-rule="evenodd"/><path stroke="#b7b7b7" stroke-width="2.0" stroke-linejoin="round" stroke-linecap="butt" d="m325.00262 85.14829l-0.763855 24.76162" fill-rule="evenodd"/><path fill="#b7b7b7" stroke="#b7b7b7" stroke-width="2.0" stroke-linecap="butt" d="m320.9369 109.808044l3.0220337 9.173744l3.581726 -8.970024z" fill-rule="evenodd"/><path fill="#f1c232" d="m215.41208 534.1391l208.8082 0c2.751068 0 5.389435 1.0928955 7.3347473 3.038147c1.945282 1.9453125 3.038147 4.583679 3.038147 7.334778l0 51.86328l-219.18109 0z" fill-rule="evenodd"/><path stroke="#cc0000" stroke-width="2.0" stroke-linejoin="round" stroke-linecap="butt" d="m215.41208 534.1391l208.8082 0c2.751068 0 5.389435 1.0928955 7.3347473 3.038147c1.945282 1.9453125 3.038147 4.583679 3.038147 7.334778l0 51.86328l-219.18109 0z" fill-rule="evenodd"/><path fill="#000000" d="m280.07016 554.4585l-2.328125 -0.421875q0.40625 -1.40625 1.359375 -2.078125q0.953125 -0.671875 2.84375 -0.671875q1.703125 0 2.546875 0.40625q0.84375 0.40625 1.171875 1.03125q0.34375 0.625 0.34375 2.28125l-0.015625 3.0q0 1.265625 0.109375 1.875q0.125 0.609375 0.46875 1.296875l-2.53125 0q-0.109375 -0.25 -0.25 -0.75q-0.0625 -0.234375 -0.09375 -0.3125q-0.65625 0.640625 -1.40625 0.96875q-0.734375 0.3125 -1.59375 0.3125q-1.484375 0 -2.34375 -0.8125q-0.859375 -0.8125 -0.859375 -2.046875q0 -0.828125 0.390625 -1.46875q0.390625 -0.640625 1.09375 -0.96875q0.703125 -0.34375 2.03125 -0.609375q1.796875 -0.328125 2.484375 -0.625l0 -0.25q0 -0.75 -0.359375 -1.0625q-0.359375 -0.3125 -1.375 -0.3125q-0.6875 0 -1.078125 0.28125q-0.375 0.265625 -0.609375 0.9375zm3.421875 2.078125q-0.484375 0.15625 -1.5625 0.390625q-1.0625 0.21875 -1.390625 0.4375q-0.5 0.359375 -0.5 0.90625q0 0.53125 0.40625 0.9375q0.40625 0.390625 1.015625 0.390625q0.703125 0 1.328125 -0.46875q0.46875 -0.34375 0.609375 -0.84375q0.09375 -0.328125 0.09375 -1.25l0 -0.5zm5.0476074 4.640625l0 -13.359375l2.5625 0l0 13.359375l-2.5625 0zm9.620789 -9.671875l0 2.03125l-1.75 0l0 3.90625q0 1.1875 0.046875 1.390625q0.046875 0.1875 0.21875 0.3125q0.1875 0.125 0.4375 0.125q0.359375 0 1.03125 -0.25l0.21875 2.0q-0.890625 0.375 -2.015625 0.375q-0.703125 0 -1.265625 -0.234375q-0.546875 -0.234375 -0.8125 -0.59375q-0.25 -0.375 -0.34375 -1.0q-0.09375 -0.453125 -0.09375 -1.8125l0 -4.21875l-1.171875 0l0 -2.03125l1.171875 0l0 -1.921875l2.578125 -1.5l0 3.421875l1.75 0zm7.368927 6.59375l2.546875 0.421875q-0.484375 1.40625 -1.546875 2.140625q-1.0625 0.734375 -2.65625 0.734375q-2.515625 0 -3.734375 -1.65625q-0.953125 -1.3125 -0.953125 -3.328125q0 -2.40625 1.25 -3.765625q1.265625 -1.359375 3.1875 -1.359375q2.15625 0 3.40625 1.421875q1.25 1.421875 1.1875 4.375l-6.40625 0q0.03125 1.140625 0.609375 1.78125q0.59375 0.625 1.484375 0.625q0.59375 0 1.0 -0.328125q0.421875 -0.328125 0.625 -1.0625zm0.15625 -2.59375q-0.03125 -1.109375 -0.578125 -1.6875q-0.546875 -0.578125 -1.328125 -0.578125q-0.84375 0 -1.390625 0.609375q-0.546875 0.609375 -0.53125 1.65625l3.828125 0zm7.0788574 5.671875l-2.5625 0l0 -9.671875l2.375 0l0 1.375q0.609375 -0.984375 1.09375 -1.28125q0.484375 -0.3125 1.109375 -0.3125q0.875 0 1.6875 0.484375l-0.796875 2.234375q-0.640625 -0.421875 -1.203125 -0.421875q-0.53125 0 -0.90625 0.296875q-0.375 0.296875 -0.59375 1.078125q-0.203125 0.765625 -0.203125 3.234375l0 2.984375zm13.604004 0l-2.5625 0l0 -4.9375q0 -1.5625 -0.171875 -2.015625q-0.15625 -0.46875 -0.53125 -0.71875q-0.359375 -0.265625 -0.875 -0.265625q-0.671875 0 -1.203125 0.375q-0.53125 0.359375 -0.734375 0.96875q-0.1875 0.59375 -0.1875 2.21875l0 4.375l-2.546875 0l0 -9.671875l2.375 0l0 1.421875q1.265625 -1.640625 3.1875 -1.640625q0.84375 0 1.546875 0.3125q0.703125 0.296875 1.0625 0.78125q0.359375 0.46875 0.5 1.078125q0.140625 0.59375 0.140625 1.703125l0 6.015625zm4.505371 -6.71875l-2.328125 -0.421875q0.40625 -1.40625 1.359375 -2.078125q0.953125 -0.671875 2.84375 -0.671875q1.703125 0 2.546875 0.40625q0.84375 0.40625 1.171875 1.03125q0.34375 0.625 0.34375 2.28125l-0.015625 3.0q0 1.265625 0.109375 1.875q0.125 0.609375 0.46875 1.296875l-2.53125 0q-0.109375 -0.25 -0.25 -0.75q-0.0625 -0.234375 -0.09375 -0.3125q-0.65625 0.640625 -1.40625 0.96875q-0.734375 0.3125 -1.59375 0.3125q-1.484375 0 -2.34375 -0.8125q-0.859375 -0.8125 -0.859375 -2.046875q0 -0.828125 0.390625 -1.46875q0.390625 -0.640625 1.09375 -0.96875q0.703125 -0.34375 2.03125 -0.609375q1.796875 -0.328125 2.484375 -0.625l0 -0.25q0 -0.75 -0.359375 -1.0625q-0.359375 -0.3125 -1.375 -0.3125q-0.6875 0 -1.078125 0.28125q-0.375 0.265625 -0.609375 0.9375zm3.421875 2.078125q-0.484375 0.15625 -1.5625 0.390625q-1.0625 0.21875 -1.390625 0.4375q-0.5 0.359375 -0.5 0.90625q0 0.53125 0.40625 0.9375q0.40625 0.390625 1.015625 0.390625q0.703125 0 1.328125 -0.46875q0.46875 -0.34375 0.609375 -0.84375q0.09375 -0.328125 0.09375 -1.25l0 -0.5zm9.485077 -5.03125l0 2.03125l-1.75 0l0 3.90625q0 1.1875 0.046875 1.390625q0.046875 0.1875 0.21875 0.3125q0.1875 0.125 0.4375 0.125q0.359375 0 1.03125 -0.25l0.21875 2.0q-0.890625 0.375 -2.015625 0.375q-0.703125 0 -1.265625 -0.234375q-0.546875 -0.234375 -0.8125 -0.59375q-0.25 -0.375 -0.34375 -1.0q-0.09375 -0.453125 -0.09375 -1.8125l0 -4.21875l-1.171875 0l0 -2.03125l1.171875 0l0 -1.921875l2.578125 -1.5l0 3.421875l1.75 0zm1.775177 -1.3125l0 -2.375l2.5625 0l0 2.375l-2.5625 0zm0 10.984375l0 -9.671875l2.5625 0l0 9.671875l-2.5625 0zm7.839569 0l-3.90625 -9.671875l2.6875 0l1.828125 4.9375l0.53125 1.640625q0.203125 -0.625 0.265625 -0.828125q0.125 -0.40625 0.265625 -0.8125l1.84375 -4.9375l2.625 0l-3.84375 9.671875l-2.296875 0zm13.313202 -3.078125l2.546875 0.421875q-0.484375 1.40625 -1.546875 2.140625q-1.0625 0.734375 -2.65625 0.734375q-2.515625 0 -3.734375 -1.65625q-0.953125 -1.3125 -0.953125 -3.328125q0 -2.40625 1.25 -3.765625q1.265625 -1.359375 3.1875 -1.359375q2.15625 0 3.40625 1.421875q1.25 1.421875 1.1875 4.375l-6.40625 0q0.03125 1.140625 0.609375 1.78125q0.59375 0.625 1.484375 0.625q0.59375 0 1.0 -0.328125q0.421875 -0.328125 0.625 -1.0625zm0.15625 -2.59375q-0.03125 -1.109375 -0.578125 -1.6875q-0.546875 -0.578125 -1.328125 -0.578125q-0.84375 0 -1.390625 0.609375q-0.546875 0.609375 -0.53125 1.65625l3.828125 0z" fill-rule="nonzero"/><path fill="#000000" d="m300.35458 583.17725l0 -13.359375l2.5625 0l0 4.8125q1.171875 -1.34375 2.796875 -1.34375q1.765625 0 2.921875 1.28125q1.15625 1.28125 1.15625 3.671875q0 2.484375 -1.1875 3.828125q-1.171875 1.328125 -2.859375 1.328125q-0.828125 0 -1.640625 -0.40625q-0.796875 -0.421875 -1.375 -1.234375l0 1.421875l-2.375 0zm2.53125 -5.046875q0 1.5 0.484375 2.21875q0.65625 1.03125 1.765625 1.03125q0.84375 0 1.4375 -0.71875q0.59375 -0.734375 0.59375 -2.296875q0 -1.65625 -0.609375 -2.390625q-0.59375 -0.734375 -1.53125 -0.734375q-0.921875 0 -1.53125 0.71875q-0.609375 0.71875 -0.609375 2.171875zm8.974121 5.046875l0 -13.359375l2.5625 0l0 13.359375l-2.5625 0zm4.5895386 -4.96875q0 -1.28125 0.625 -2.46875q0.625 -1.203125 1.78125 -1.828125q1.15625 -0.625 2.578125 -0.625q2.1875 0 3.59375 1.421875q1.40625 1.421875 1.40625 3.609375q0 2.1875 -1.421875 3.640625q-1.421875 1.4375 -3.5625 1.4375q-1.328125 0 -2.546875 -0.59375q-1.203125 -0.609375 -1.828125 -1.765625q-0.625 -1.171875 -0.625 -2.828125zm2.625 0.125q0 1.453125 0.671875 2.21875q0.6875 0.75 1.6875 0.75q1.0 0 1.671875 -0.75q0.6875 -0.765625 0.6875 -2.234375q0 -1.421875 -0.6875 -2.1875q-0.671875 -0.765625 -1.671875 -0.765625q-1.0 0 -1.6875 0.765625q-0.671875 0.765625 -0.671875 2.203125zm17.802246 -1.96875l-2.53125 0.453125q-0.125 -0.75 -0.578125 -1.125q-0.453125 -0.390625 -1.171875 -0.390625q-0.953125 0 -1.53125 0.65625q-0.5625 0.65625 -0.5625 2.203125q0 1.734375 0.578125 2.4375q0.578125 0.703125 1.546875 0.703125q0.734375 0 1.203125 -0.40625q0.46875 -0.421875 0.65625 -1.421875l2.515625 0.421875q-0.390625 1.734375 -1.515625 2.625q-1.109375 0.875 -2.96875 0.875q-2.125 0 -3.390625 -1.328125q-1.25 -1.34375 -1.25 -3.71875q0 -2.390625 1.265625 -3.71875q1.265625 -1.34375 3.421875 -1.34375q1.765625 0 2.796875 0.765625q1.046875 0.75 1.515625 2.3125zm1.8444519 6.8125l0 -13.359375l2.5625 0l0 7.09375l3.0 -3.40625l3.140625 0l-3.296875 3.53125l3.53125 6.140625l-2.75 0l-2.4375 -4.34375l-1.1875 1.25l0 3.09375l-2.5625 0z" fill-rule="nonzero"/><path fill="#000000" fill-opacity="0.0" d="m446.08005 121.9042l81.007904 0l0 45.354332l-81.007904 0z" fill-rule="evenodd"/><path fill="#d9d9d9" d="m455.33005 140.3217l1.625 0l0 -0.828125q0 -1.390625 0.296875 -2.078125q0.296875 -0.6875 1.09375 -1.125q0.796875 -0.4375 2.015625 -0.4375q1.25 0 2.453125 0.375l-0.40625 2.046875q-0.6875 -0.171875 -1.34375 -0.171875q-0.625 0 -0.90625 0.296875q-0.28125 0.296875 -0.28125 1.140625l0 0.78125l2.1875 0l0 2.296875l-2.1875 0l0 8.765625l-2.921875 0l0 -8.765625l-1.625 0l0 -2.296875zm10.5711975 3.375l-2.65625 -0.484375q0.453125 -1.59375 1.546875 -2.359375q1.09375 -0.78125 3.25 -0.78125q1.953125 0 2.90625 0.46875q0.96875 0.453125 1.359375 1.171875q0.390625 0.71875 0.390625 2.625l-0.03125 3.40625q0 1.46875 0.125 2.15625q0.140625 0.6875 0.53125 1.484375l-2.890625 0q-0.109375 -0.296875 -0.28125 -0.859375q-0.078125 -0.265625 -0.109375 -0.34375q-0.75 0.71875 -1.609375 1.09375q-0.84375 0.359375 -1.8125 0.359375q-1.703125 0 -2.6875 -0.921875q-0.984375 -0.9375 -0.984375 -2.34375q0 -0.9375 0.4375 -1.671875q0.453125 -0.734375 1.25 -1.125q0.8125 -0.390625 2.34375 -0.6875q2.046875 -0.390625 2.84375 -0.71875l0 -0.296875q0 -0.84375 -0.421875 -1.203125q-0.421875 -0.359375 -1.578125 -0.359375q-0.78125 0 -1.21875 0.3125q-0.4375 0.3125 -0.703125 1.078125zm3.921875 2.375q-0.5625 0.1875 -1.78125 0.453125q-1.21875 0.25 -1.59375 0.5q-0.578125 0.40625 -0.578125 1.03125q0 0.625 0.453125 1.078125q0.46875 0.4375 1.171875 0.4375q0.796875 0 1.515625 -0.515625q0.53125 -0.40625 0.6875 -0.96875q0.125 -0.375 0.125 -1.4375l0 -0.578125zm5.7523193 5.3125l0 -15.265625l2.921875 0l0 15.265625l-2.921875 0zm4.8943787 -3.15625l2.9375 -0.453125q0.1875 0.859375 0.75 1.3125q0.578125 0.4375 1.609375 0.4375q1.140625 0 1.71875 -0.421875q0.375 -0.296875 0.375 -0.78125q0 -0.328125 -0.203125 -0.546875q-0.21875 -0.21875 -0.984375 -0.390625q-3.53125 -0.78125 -4.484375 -1.421875q-1.3125 -0.90625 -1.3125 -2.5q0 -1.4375 1.125 -2.40625q1.140625 -0.984375 3.53125 -0.984375q2.265625 0 3.375 0.75q1.109375 0.734375 1.515625 2.171875l-2.75 0.515625q-0.1875 -0.640625 -0.6875 -0.984375q-0.484375 -0.34375 -1.40625 -0.34375q-1.15625 0 -1.65625 0.3125q-0.328125 0.234375 -0.328125 0.59375q0 0.3125 0.296875 0.53125q0.390625 0.296875 2.71875 0.828125q2.34375 0.53125 3.28125 1.296875q0.90625 0.78125 0.90625 2.1875q0 1.515625 -1.265625 2.609375q-1.265625 1.09375 -3.765625 1.09375q-2.25 0 -3.578125 -0.90625q-1.3125 -0.921875 -1.71875 -2.5zm19.299194 -0.359375l2.90625 0.484375q-0.546875 1.609375 -1.765625 2.453125q-1.21875 0.828125 -3.03125 0.828125q-2.890625 0 -4.28125 -1.890625q-1.09375 -1.5 -1.09375 -3.8125q0 -2.75 1.4375 -4.296875q1.4375 -1.5625 3.640625 -1.5625q2.46875 0 3.890625 1.640625q1.421875 1.625 1.359375 4.984375l-7.328125 0q0.03125 1.296875 0.703125 2.03125q0.6875 0.71875 1.703125 0.71875q0.6875 0 1.15625 -0.375q0.46875 -0.375 0.703125 -1.203125zm0.171875 -2.96875q-0.03125 -1.265625 -0.65625 -1.921875q-0.625 -0.671875 -1.53125 -0.671875q-0.953125 0 -1.578125 0.703125q-0.625 0.703125 -0.609375 1.890625l4.375 0z" fill-rule="nonzero"/><path fill="#000000" fill-opacity="0.0" d="m370.3727 213.87534l0 66.14172l-45.35434 0l0 -66.14172z" fill-rule="evenodd"/><path fill="#d9d9d9" d="m351.9552 229.48471l-2.328125 0l0 -2.0l-4.46875 0q-1.34375 0 -1.578125 0.046875q-0.21875 0.0625 -0.375 0.265625q-0.140625 0.203125 -0.140625 0.5q0 0.40625 0.28125 1.171875l-2.265625 0.25q-0.4375 -1.015625 -0.4375 -2.3125q0 -0.796875 0.265625 -1.4375q0.265625 -0.625 0.6875 -0.921875q0.421875 -0.296875 1.140625 -0.40625q0.515625 -0.09375 2.0625 -0.09375l4.828125 0l0 -1.34375l2.328125 0l0 1.34375l2.1875 0l1.71875 2.9375l-3.90625 0l0 2.0zm-11.0625 4.8211823l0 -2.921875l11.0625 0l0 2.71875l-1.578125 0q1.125 0.703125 1.46875 1.25q0.359375 0.5625 0.359375 1.265625q0 1.0 -0.5625 1.9375l-2.546875 -0.90625q0.484375 -0.75 0.484375 -1.375q0 -0.625 -0.34375 -1.046875q-0.328125 -0.421875 -1.21875 -0.671875q-0.890625 -0.25 -3.703125 -0.25l-3.421875 0zm0 12.784439l1.65625 0q-0.890625 -0.609375 -1.40625 -1.59375q-0.5 -0.984375 -0.5 -2.078125q0 -1.109375 0.484375 -2.0q0.5 -0.875 1.375 -1.28125q0.890625 -0.390625 2.453125 -0.390625l7.0 0l0 2.921875l-5.078125 0q-2.34375 0 -2.875 0.15625q-0.515625 0.171875 -0.828125 0.59375q-0.296875 0.4375 -0.296875 1.09375q0 0.75 0.40625 1.34375q0.40625 0.59375 1.015625 0.8125q0.609375 0.21875 2.984375 0.21875l4.671875 0l0 2.921875l-11.0625 0l0 -2.71875zm3.515625 12.153076l-0.484375 2.90625q-1.609375 -0.546875 -2.453125 -1.765625q-0.828125 -1.21875 -0.828125 -3.03125q0 -2.890625 1.890625 -4.28125q1.5 -1.09375 3.8125 -1.09375q2.75 0 4.296875 1.4375q1.5625 1.4375 1.5625 3.640625q0 2.46875 -1.640625 3.890625q-1.625 1.421875 -4.984375 1.359375l0 -7.328125q-1.296875 0.03125 -2.03125 0.703125q-0.71875 0.6875 -0.71875 1.703125q0 0.6875 0.375 1.15625q0.375 0.46875 1.203125 0.703125zm2.96875 0.171875q1.265625 -0.03125 1.921875 -0.65625q0.671875 -0.625 0.671875 -1.53125q0 -0.953125 -0.703125 -1.578125q-0.703125 -0.625 -1.890625 -0.609375l0 4.375z" fill-rule="nonzero"/><path fill="#f4cccc" d="m455.182 398.07642c-0.9988098 0 -1.9354248 0.12661743 -2.809906 0.3798828c-0.87042236 0.24938965 -1.5583496 0.5552368 -2.0637817 0.91763306c-0.67388916 0.4675598 -1.2073975 1.0559082 -1.6004944 1.7650757c-0.3890686 0.7052307 -0.58361816 1.4728394 -0.58361816 2.302765c0 0.9117737 0.23666382 1.7456055 0.70999146 2.5015259c0.47732544 0.75201416 1.175293 1.3423157 2.093872 1.7709045c0.9225769 0.42471313 2.5752258 0.9293213 4.9579163 1.5137634c1.7689514 0.43252563 2.876068 0.789032 3.321289 1.0695801c0.6378174 0.40911865 0.95669556 0.97021484 0.95669556 1.683258c0 0.79486084 -0.36102295 1.4884338 -1.0830383 2.0806885c-0.7220154 0.5883484 -1.8291321 0.88253784 -3.3213196 0.88253784c-1.480133 0 -2.6333923 -0.33312988 -3.4597168 -0.99942017c-0.82229614 -0.6662903 -1.3237 -1.6248169 -1.5042114 -2.8755798l-3.2130127 0.4909668c0.36102295 1.9754639 1.1933594 3.4658508 2.4970093 4.4711304c1.3076782 1.0052795 3.2070007 1.5079346 5.697998 1.5079346c1.5042114 0 2.8519897 -0.2532959 4.043335 -0.75982666c1.1913452 -0.5104065 2.1018982 -1.2293091 2.731659 -2.1566467c0.63378906 -0.9312744 0.9506836 -1.9229126 0.9506836 -2.974945c0 -1.0754089 -0.25872803 -1.9754639 -0.7761841 -2.7002258c-0.51745605 -0.72473145 -1.2314758 -1.276062 -2.1420288 -1.6540222c-0.90652466 -0.38183594 -2.5090332 -0.8708496 -4.8074646 -1.4670105c-1.5884705 -0.42080688 -2.545166 -0.68966675 -2.8700562 -0.8065491c-0.5655823 -0.22210693 -0.9807739 -0.5026245 -1.2455139 -0.84161377c-0.26474 -0.32730103 -0.39709473 -0.6955261 -0.39709473 -1.1046448c0 -0.6429138 0.31887817 -1.20401 0.95666504 -1.683258c0.63778687 -0.47924805 1.7027893 -0.7189026 3.1949768 -0.7189026c1.2635498 0 2.2402954 0.26885986 2.9302063 0.8065796c0.6939697 0.5376892 1.1131287 1.2857971 1.2575378 2.2443237l3.1769104 -0.42080688c-0.20455933 -1.20401 -0.5776062 -2.1644592 -1.1191406 -2.8814087c-0.5415039 -0.7208252 -1.3818665 -1.2916565 -2.5210571 -1.7124634c-1.1351929 -0.4208374 -2.454895 -0.6312256 -3.9591064 -0.6312256z" fill-rule="evenodd"/><path fill="#f4cccc" d="m471.19293 391.99213l-3.231079 1.8936768l0 4.6114197l-2.3826904 0l0 2.4547424l2.3826904 0l0 10.713226c0 1.8936462 0.13238525 3.1366272 0.39712524 3.7288818c0.26474 0.5883484 0.7220154 1.0637207 1.3718262 1.4260864c0.6498413 0.36236572 1.5643921 0.5435486 2.7437134 0.5435486c0.7220154 0 1.5403137 -0.09350586 2.454895 -0.2805481l-0.46932983 -2.7878723c-0.58966064 0.08181763 -1.0649719 0.12271118 -1.4259949 0.12271118c-0.48135376 0 -0.8523865 -0.07595825 -1.1131287 -0.22793579c-0.25671387 -0.15194702 -0.4432373 -0.35650635 -0.5595703 -0.613678c-0.11230469 -0.25717163 -0.16845703 -0.8357849 -0.16845703 -1.7358704l0 -10.88855l3.2671509 0l0 -2.4547424l-3.2671509 0l0 -6.5050964z" fill-rule="evenodd"/><path fill="#f4cccc" d="m485.41684 400.68896c1.6004639 0 2.9382324 0.59420776 4.0132446 1.7826233c1.0790405 1.1845093 1.6185303 2.9281616 1.6185303 5.2309265c0 2.4430542 -0.53549194 4.260742 -1.6065063 5.453064c-1.0709839 1.1922913 -2.4127502 1.7884521 -4.0252686 1.7884521c-1.6245728 0 -2.972351 -0.59225464 -4.0433655 -1.7767639c-1.0709839 -1.1884155 -1.6065063 -2.9749146 -1.6065063 -5.3595276c0 -2.384613 0.53552246 -4.1672363 1.6065063 -5.3478394c1.0710144 -1.1806335 2.4187927 -1.770935 4.0433655 -1.770935zm0 -2.6125488c-2.3706665 0 -4.38031 0.68966675 -6.0289307 2.0690002c-1.9735413 1.6598816 -2.9602966 4.2139893 -2.9602966 7.662323c0 3.1444092 0.82632446 5.5523987 2.4789429 7.2239685c1.6566467 1.6715698 3.8267517 2.5073547 6.5102844 2.5073547c1.6726685 0 3.2149963 -0.37991333 4.626953 -1.1397095c1.4159851 -0.75979614 2.4930115 -1.82547 3.231079 -3.1970215c0.74209595 -1.3754272 1.1131287 -3.261322 1.1131287 -5.6576233c0 -2.957367 -0.83636475 -5.2738037 -2.5090332 -6.9492493c-1.672699 -1.6793823 -3.8267517 -2.519043 -6.4621277 -2.519043z" fill-rule="evenodd"/><path fill="#f4cccc" d="m506.40973 400.54868c1.3959045 0 2.5952759 0.59033203 3.5980835 1.770935c1.0068359 1.1806335 1.5102539 2.9573975 1.5102539 5.3303223c0 2.4898071 -0.5154419 4.3289185 -1.5463562 5.517334c-1.026886 1.1845093 -2.262329 1.7767639 -3.7063904 1.7767639c-1.4199829 0 -2.629364 -0.5727844 -3.6281738 -1.7183228c-0.9988098 -1.1455383 -1.4981995 -2.9164734 -1.4981995 -5.3127747c0 -2.3963013 0.53149414 -4.2217712 1.5944519 -5.4764404c1.0670166 -1.2585449 2.29245 -1.8878174 3.6763306 -1.8878174zm0.30685425 -2.4722595c-1.2515259 0 -2.3164978 0.2376709 -3.1949768 0.7130432c-0.8784485 0.47146606 -1.6666565 1.180603 -2.364624 2.1274414l0 -2.4196777l-2.9602966 0l0 25.757324l3.249115 0l0 -9.065033c0.55355835 0.6779785 1.2595215 1.2390442 2.1179504 1.683258c0.86239624 0.44418335 1.835144 0.6662903 2.9181824 0.6662903c1.480133 0 2.8901062 -0.40524292 4.2298584 -1.2156982c1.34375 -0.8143616 2.3666382 -1.9832764 3.0686035 -3.506775c0.70599365 -1.5274048 1.05896 -3.2437744 1.05896 -5.1491394c0 -1.7767639 -0.31884766 -3.4093628 -0.95666504 -4.8977966c-0.6378174 -1.4923401 -1.5824585 -2.6476135 -2.8339539 -3.4658813c-1.2514954 -0.8182373 -2.6955566 -1.227356 -4.3321533 -1.227356z" fill-rule="evenodd"/><path fill="#000000" fill-opacity="0.0" d="m215.41208 432.15878l-71.831085 0l0 0.06298828l-71.822464 0" fill-rule="evenodd"/><path stroke="#b7b7b7" stroke-width="2.0" stroke-linejoin="round" stroke-linecap="butt" stroke-dasharray="8.0,6.0" d="m215.41208 432.15878l-71.831085 0l0 0.06298828l-59.822464 0" fill-rule="evenodd"/><path fill="#b7b7b7" stroke="#b7b7b7" stroke-width="2.0" stroke-linecap="butt" d="m83.75853 428.91833l-9.076195 3.3034363l9.076195 3.3034668z" fill-rule="evenodd"/><path fill="#000000" fill-opacity="0.0" d="m447.53806 166.97244l108.22049 0l0 248.0" fill-rule="evenodd"/><path stroke="#b7b7b7" stroke-width="2.0" stroke-linejoin="round" stroke-linecap="butt" d="m447.53806 166.97244l108.22049 0l0 236.0" fill-rule="evenodd"/><path fill="#b7b7b7" stroke="#b7b7b7" stroke-width="2.0" stroke-linecap="butt" d="m552.4551 402.97244l3.3034668 9.076202l3.3034668 -9.076202z" fill-rule="evenodd"/><path fill="#f1c232" d="m54.547207 52.077427l22.55811 -22.677164l67.67433 0l22.558105 22.677164l-22.558105 22.677166l-67.67433 0z" fill-rule="evenodd"/><path stroke="#cc0000" stroke-width="2.0" stroke-linejoin="round" stroke-linecap="butt" d="m54.547207 52.077427l22.55811 -22.677164l67.67433 0l22.558105 22.677164l-22.558105 22.677166l-67.67433 0z" fill-rule="evenodd"/><path fill="#000000" d="m97.380646 52.184925l-2.53125 0.453125q-0.125 -0.75 -0.578125 -1.125q-0.453125 -0.390625 -1.171875 -0.390625q-0.953125 0 -1.53125 0.65625q-0.5625 0.65625 -0.5625 2.203125q0 1.734375 0.578125 2.4375q0.578125 0.703125 1.546875 0.703125q0.734375 0 1.203125 -0.40625q0.46875 -0.421875 0.65625 -1.421875l2.515625 0.421875q-0.390625 1.734375 -1.515625 2.625q-1.109375 0.875 -2.96875 0.875q-2.125 0 -3.390625 -1.328125q-1.25 -1.34375 -1.25 -3.71875q0 -2.390625 1.265625 -3.71875q1.265625 -1.34375 3.421875 -1.34375q1.765625 0 2.796875 0.765625q1.046875 0.75 1.515625 2.3125zm0.71946716 -2.859375l2.71875 0l2.328125 6.859375l2.25 -6.859375l2.65625 0l-3.421875 9.3125l-0.609375 1.6875q-0.328125 0.84375 -0.640625 1.28125q-0.3125 0.453125 -0.703125 0.71875q-0.390625 0.28125 -0.96875 0.4375q-0.578125 0.15625 -1.3125 0.15625q-0.734375 0 -1.453125 -0.15625l-0.21875 -2.0q0.59375 0.125 1.078125 0.125q0.890625 0 1.3125 -0.53125q0.4375 -0.515625 0.671875 -1.328125l-3.6875 -9.703125zm20.031967 2.859375l-2.53125 0.453125q-0.125 -0.75 -0.578125 -1.125q-0.453125 -0.390625 -1.171875 -0.390625q-0.953125 0 -1.53125 0.65625q-0.5625 0.65625 -0.5625 2.203125q0 1.734375 0.578125 2.4375q0.578125 0.703125 1.546875 0.703125q0.734375 0 1.203125 -0.40625q0.46875 -0.421875 0.65625 -1.421875l2.515625 0.421875q-0.390625 1.734375 -1.515625 2.625q-1.109375 0.875 -2.96875 0.875q-2.125 0 -3.390625 -1.328125q-1.25 -1.34375 -1.25 -3.71875q0 -2.390625 1.265625 -3.71875q1.265625 -1.34375 3.421875 -1.34375q1.765625 0 2.796875 0.765625q1.046875 0.75 1.515625 2.3125zm1.9382172 6.8125l0 -13.359375l2.5625 0l0 13.359375l-2.5625 0zm10.777054 -3.078125l2.546875 0.421875q-0.484375 1.40625 -1.546875 2.140625q-1.0625 0.734375 -2.65625 0.734375q-2.515625 0 -3.734375 -1.65625q-0.953125 -1.3125 -0.953125 -3.328125q0 -2.40625 1.25 -3.765625q1.265625 -1.359375 3.1875 -1.359375q2.15625 0 3.40625 1.421875q1.25 1.421875 1.1875 4.375l-6.40625 0q0.03125 1.140625 0.609375 1.78125q0.59375 0.625 1.484375 0.625q0.59375 0 1.0 -0.328125q0.421875 -0.328125 0.625 -1.0625zm0.15625 -2.59375q-0.03125 -1.109375 -0.578125 -1.6875q-0.546875 -0.578125 -1.328125 -0.578125q-0.84375 0 -1.390625 0.609375q-0.546875 0.609375 -0.53125 1.65625l3.828125 0z" fill-rule="nonzero"/><path fill="#000000" fill-opacity="0.0" d="m167.33775 52.077427l51.527557 0" fill-rule="evenodd"/><path stroke="#b7b7b7" stroke-width="2.0" stroke-linejoin="round" stroke-linecap="butt" d="m167.33777 52.077427l39.527557 0" fill-rule="evenodd"/><path fill="#b7b7b7" stroke="#b7b7b7" stroke-width="2.0" stroke-linecap="butt" d="m206.86533 55.380894l9.076187 -3.3034668l-9.076187 -3.303463z" fill-rule="evenodd"/><path fill="#cfe2f3" d="m267.9868 637.3504l114.031586 0l0 0c14.938446 0 27.048462 10.152893 27.048462 22.677185c0 12.524231 -12.110016 22.677124 -27.048462 22.677124l-114.031586 0l0 0c-14.938461 0 -27.048462 -10.152893 -27.048462 -22.677124c0 -12.524292 12.110001 -22.677185 27.048462 -22.677185z" fill-rule="evenodd"/><path stroke="#000000" stroke-width="2.0" stroke-linejoin="round" stroke-linecap="butt" d="m267.9868 637.3504l114.031586 0l0 0c14.938446 0 27.048462 10.152893 27.048462 22.677185c0 12.524231 -12.110016 22.677124 -27.048462 22.677124l-114.031586 0l0 0c-14.938461 0 -27.048462 -10.152893 -27.048462 -22.677124c0 -12.524292 12.110001 -22.677185 27.048462 -22.677185z" fill-rule="evenodd"/><path fill="#000000" d="m295.91815 660.1351l-2.53125 0.453125q-0.125 -0.75 -0.578125 -1.125q-0.453125 -0.390625 -1.171875 -0.390625q-0.953125 0 -1.53125 0.65625q-0.5625 0.65625 -0.5625 2.203125q0 1.734375 0.578125 2.4375q0.578125 0.703125 1.546875 0.703125q0.734375 0 1.203125 -0.40625q0.46875 -0.421875 0.65625 -1.421875l2.515625 0.421875q-0.390625 1.734375 -1.515625 2.625q-1.109375 0.875 -2.96875 0.875q-2.125 0 -3.390625 -1.328125q-1.25 -1.34375 -1.25 -3.71875q0 -2.390625 1.265625 -3.71875q1.265625 -1.34375 3.421875 -1.34375q1.765625 0 2.796875 0.765625q1.046875 0.75 1.515625 2.3125zm1.3444824 1.84375q0 -1.28125 0.625 -2.46875q0.625 -1.203125 1.78125 -1.828125q1.15625 -0.625 2.578125 -0.625q2.1875 0 3.59375 1.421875q1.40625 1.421875 1.40625 3.609375q0 2.1875 -1.421875 3.640625q-1.421875 1.4375 -3.5625 1.4375q-1.328125 0 -2.546875 -0.59375q-1.203125 -0.609375 -1.828125 -1.765625q-0.625 -1.171875 -0.625 -2.828125zm2.625 0.125q0 1.453125 0.671875 2.21875q0.6875 0.75 1.6875 0.75q1.0 0 1.671875 -0.75q0.6875 -0.765625 0.6875 -2.234375q0 -1.421875 -0.6875 -2.1875q-0.671875 -0.765625 -1.671875 -0.765625q-1.0 0 -1.6875 0.765625q-0.671875 0.765625 -0.671875 2.203125zm18.16159 4.84375l-2.5625 0l0 -4.9375q0 -1.5625 -0.171875 -2.015625q-0.15625 -0.46875 -0.53125 -0.71875q-0.359375 -0.265625 -0.875 -0.265625q-0.671875 0 -1.203125 0.375q-0.53125 0.359375 -0.734375 0.96875q-0.1875 0.59375 -0.1875 2.21875l0 4.375l-2.546875 0l0 -9.671875l2.375 0l0 1.421875q1.265625 -1.640625 3.1875 -1.640625q0.84375 0 1.546875 0.3125q0.703125 0.296875 1.0625 0.78125q0.359375 0.46875 0.5 1.078125q0.140625 0.59375 0.140625 1.703125l0 6.015625zm7.036621 -9.671875l0 2.03125l-1.75 0l0 3.90625q0 1.1875 0.046875 1.390625q0.046875 0.1875 0.21875 0.3125q0.1875 0.125 0.4375 0.125q0.359375 0 1.03125 -0.25l0.21875 2.0q-0.890625 0.375 -2.015625 0.375q-0.703125 0 -1.265625 -0.234375q-0.546875 -0.234375 -0.8125 -0.59375q-0.25 -0.375 -0.34375 -1.0q-0.09375 -0.453125 -0.09375 -1.8125l0 -4.21875l-1.171875 0l0 -2.03125l1.171875 0l0 -1.921875l2.578125 -1.5l0 3.421875l1.75 0zm1.775177 -1.3125l0 -2.375l2.5625 0l0 2.375l-2.5625 0zm0 10.984375l0 -9.671875l2.5625 0l0 9.671875l-2.5625 0zm13.980164 0l-2.5625 0l0 -4.9375q0 -1.5625 -0.171875 -2.015625q-0.15625 -0.46875 -0.53125 -0.71875q-0.359375 -0.265625 -0.875 -0.265625q-0.671875 0 -1.203125 0.375q-0.53125 0.359375 -0.734375 0.96875q-0.1875 0.59375 -0.1875 2.21875l0 4.375l-2.546875 0l0 -9.671875l2.375 0l0 1.421875q1.265625 -1.640625 3.1875 -1.640625q0.84375 0 1.546875 0.3125q0.703125 0.296875 1.0625 0.78125q0.359375 0.46875 0.5 1.078125q0.140625 0.59375 0.140625 1.703125l0 6.015625zm8.958496 0l0 -1.453125q-0.53125 0.78125 -1.390625 1.234375q-0.859375 0.4375 -1.8125 0.4375q-0.96875 0 -1.75 -0.421875q-0.765625 -0.4375 -1.125 -1.203125q-0.34375 -0.78125 -0.34375 -2.140625l0 -6.125l2.5625 0l0 4.4375q0 2.046875 0.140625 2.515625q0.140625 0.453125 0.515625 0.71875q0.375 0.265625 0.953125 0.265625q0.65625 0 1.171875 -0.359375q0.515625 -0.359375 0.703125 -0.890625q0.203125 -0.53125 0.203125 -2.609375l0 -4.078125l2.546875 0l0 9.671875l-2.375 0zm10.630341 -3.078125l2.546875 0.421875q-0.484375 1.40625 -1.546875 2.140625q-1.0625 0.734375 -2.65625 0.734375q-2.515625 0 -3.734375 -1.65625q-0.953125 -1.3125 -0.953125 -3.328125q0 -2.40625 1.25 -3.765625q1.265625 -1.359375 3.1875 -1.359375q2.15625 0 3.40625 1.421875q1.25 1.421875 1.1875 4.375l-6.40625 0q0.03125 1.140625 0.609375 1.78125q0.59375 0.625 1.484375 0.625q0.59375 0 1.0 -0.328125q0.421875 -0.328125 0.625 -1.0625zm0.15625 -2.59375q-0.03125 -1.109375 -0.578125 -1.6875q-0.546875 -0.578125 -1.328125 -0.578125q-0.84375 0 -1.390625 0.609375q-0.546875 0.609375 -0.53125 1.65625l3.828125 0z" fill-rule="nonzero"/><path fill="#000000" fill-opacity="0.0" d="m325.00262 596.3753l0 40.97638" fill-rule="evenodd"/><path stroke="#b7b7b7" stroke-width="2.0" stroke-linejoin="round" stroke-linecap="butt" d="m325.00262 596.3753l0 28.97638" fill-rule="evenodd"/><path fill="#b7b7b7" stroke="#b7b7b7" stroke-width="2.0" stroke-linecap="butt" d="m321.69916 625.3517l3.3034668 9.076233l3.3034668 -9.076233z" fill-rule="evenodd"/><path fill="#000000" fill-opacity="0.0" d="m538.5696 565.2559l-51.988434 0l0 0.06298828l-51.980103 0" fill-rule="evenodd"/><path stroke="#b7b7b7" stroke-width="2.0" stroke-linejoin="round" stroke-linecap="butt" stroke-dasharray="8.0,6.0" d="m538.5696 565.2559l-51.988434 0l0 0.06298828l-39.980103 0" fill-rule="evenodd"/><path fill="#b7b7b7" stroke="#b7b7b7" stroke-width="2.0" stroke-linecap="butt" d="m446.60104 562.01544l-9.076202 3.3034668l9.076202 3.3034668z" fill-rule="evenodd"/><path fill="#f9cb9c" d="m286.4987 319.2206l0 0c0 -20.630249 16.72409 -37.35434 37.35434 -37.35434l0 0c9.906982 0 19.408203 3.9355469 26.413483 10.940826c7.00531 7.00531 10.940826 16.50653 10.940826 26.413513l0 0c0 20.630219 -16.72409 37.35431 -37.35431 37.35431l0 0c-20.630249 0 -37.35434 -16.72409 -37.35434 -37.35431z" fill-rule="evenodd"/><path stroke="#cc0000" stroke-width="2.0" stroke-linejoin="round" stroke-linecap="butt" d="m286.4987 319.2206l0 0c0 -20.630249 16.72409 -37.35434 37.35434 -37.35434l0 0c9.906982 0 19.408203 3.9355469 26.413483 10.940826c7.00531 7.00531 10.940826 16.50653 10.940826 26.413513l0 0c0 20.630219 -16.72409 37.35431 -37.35431 37.35431l0 0c-20.630249 0 -37.35434 -16.72409 -37.35434 -37.35431z" fill-rule="evenodd"/><path fill="#434343" d="m322.3335 327.7606l-3.0625 0l0 -1.828125q-0.765625 1.0625 -1.796875 1.59375q-1.03125 0.515625 -2.09375 0.515625q-2.140625 0 -3.671875 -1.71875q-1.53125 -1.734375 -1.53125 -4.828125q0 -3.171875 1.484375 -4.8125q1.5 -1.65625 3.765625 -1.65625q2.09375 0 3.609375 1.734375l0 -6.1875l3.296875 0l0 17.1875zm-8.796875 -6.5q0 2.0 0.5625 2.890625q0.796875 1.28125 2.21875 1.28125q1.140625 0 1.9375 -0.953125q0.796875 -0.96875 0.796875 -2.890625q0 -2.15625 -0.78125 -3.09375q-0.765625 -0.9375 -1.96875 -0.9375q-1.171875 0 -1.96875 0.9375q-0.796875 0.921875 -0.796875 2.765625zm11.285156 0.09375q0 -1.640625 0.796875 -3.171875q0.8125 -1.53125 2.296875 -2.34375q1.484375 -0.8125 3.3125 -0.8125q2.828125 0 4.625 1.84375q1.8125 1.828125 1.8125 4.625q0 2.828125 -1.828125 4.6875q-1.828125 1.859375 -4.59375 1.859375q-1.703125 0 -3.265625 -0.765625q-1.546875 -0.78125 -2.359375 -2.265625q-0.796875 -1.5 -0.796875 -3.65625zm3.375 0.1875q0 1.84375 0.875 2.828125q0.875 0.984375 2.171875 0.984375q1.28125 0 2.15625 -0.984375q0.875 -0.984375 0.875 -2.859375q0 -1.828125 -0.875 -2.8125q-0.875 -0.984375 -2.15625 -0.984375q-1.296875 0 -2.171875 0.984375q-0.875 0.984375 -0.875 2.84375z" fill-rule="nonzero"/><path fill="#000000" fill-opacity="0.0" d="m325.00262 465.22964l0 59.9935l-270.4567 0l0 -75.86749" fill-rule="evenodd"/><path stroke="#b7b7b7" stroke-width="2.0" stroke-linejoin="round" stroke-linecap="butt" d="m325.00262 465.22964l0 59.9935l-270.4567 0l0 -63.867493" fill-rule="evenodd"/><path fill="#b7b7b7" stroke="#b7b7b7" stroke-width="2.0" stroke-linecap="butt" d="m57.849396 461.35565l-3.303463 -9.076202l-3.3034668 9.076202z" fill-rule="evenodd"/><path fill="#e06666" d="m37.356956 432.15878l0 0c0 -9.497559 7.699291 -17.196838 17.19685 -17.196838l0 0c4.5608864 0 8.934975 1.8117981 12.160007 5.0368347c3.2250366 3.2250366 5.0368423 7.599121 5.0368423 12.160004l0 0c0 9.497559 -7.699295 17.196869 -17.19685 17.196869l0 0c-9.497559 0 -17.19685 -7.6993103 -17.19685 -17.196869z" fill-rule="evenodd"/><path stroke="#cc0000" stroke-width="2.0" stroke-linejoin="round" stroke-linecap="butt" d="m37.356956 432.15878l0 0c0 -9.497559 7.699291 -17.196838 17.19685 -17.196838l0 0c4.5608864 0 8.934975 1.8117981 12.160007 5.0368347c3.2250366 3.2250366 5.0368423 7.599121 5.0368423 12.160004l0 0c0 9.497559 -7.699295 17.196869 -17.19685 17.196869l0 0c-9.497559 0 -17.19685 -7.6993103 -17.19685 -17.196869z" fill-rule="evenodd"/><path fill="#000000" fill-opacity="0.0" d="m54.553806 414.96194l0 -95.74805l231.93701 0" fill-rule="evenodd"/><path stroke="#b7b7b7" stroke-width="2.0" stroke-linejoin="round" stroke-linecap="butt" d="m54.553806 414.96194l0 -95.74805l219.93701 0" fill-rule="evenodd"/><path fill="#b7b7b7" stroke="#b7b7b7" stroke-width="2.0" stroke-linecap="butt" d="m274.4908 322.51736l9.076202 -3.3034668l-9.076202 -3.3034668z" fill-rule="evenodd"/><path fill="#f4cccc" d="m102.079544 403.27676c-0.7142792 0 -1.3699799 0.21038818 -1.967102 0.63119507c-0.59334564 0.42080688 -1.2414856 1.2916565 -1.9444275 2.6125183l0 -2.8229065l-2.7550812 0l0 18.620728l3.0611954 0l0 -9.748718c0 -1.33255 0.17006683 -2.559906 0.5102005 -3.6820679c0.22676086 -0.73638916 0.606575 -1.3111267 1.1394501 -1.7241211c0.53287506 -0.41693115 1.1337738 -0.6253662 1.8027039 -0.6253662c0.74829865 0 1.4965897 0.22793579 2.2448807 0.6838074l1.0544128 -2.928131c-1.0657501 -0.677948 -2.1144943 -1.0169373 -3.1462326 -1.0169373z" fill-rule="evenodd"/><path fill="#f4cccc" d="m114.494415 405.87173c1.5532761 0 2.8174362 0.6078491 3.792488 1.8235168c0.6349106 0.7831421 1.020401 1.9579163 1.1564484 3.5242615l-10.084953 0c0.10204315 -1.6247864 0.63113403 -2.9223022 1.5872879 -3.8924866c0.95993805 -0.9701843 2.1428452 -1.4552917 3.548729 -1.4552917zm-0.03401184 -2.5949707c-2.494316 0 -4.523773 0.86499023 -6.0883865 2.5949707c-1.5646133 1.7299805 -2.3469238 4.161316 -2.3469238 7.2940063c0 3.0274658 0.77285767 5.38089 2.318573 7.060211c1.5494995 1.6754456 3.6450958 2.513153 6.286804 2.513153c2.0974884 0 3.8208313 -0.526001 5.1700287 -1.5780334c1.3491898 -1.052002 2.2732239 -2.5306702 2.772087 -4.4360046l-3.1632462 -0.40325928c-0.46484375 1.33255 -1.0940933 2.3027344 -1.8877411 2.9105835c-0.79364014 0.6078186 -1.7516861 0.91174316 -2.8741226 0.91174316c-1.507927 0 -2.7664185 -0.5435486 -3.7754822 -1.6306458c-1.0090637 -1.0870667 -1.570282 -2.6534119 -1.6836624 -4.699005l13.469284 0c0.01133728 -0.37405396 0.01700592 -0.65460205 0.01700592 -0.84161377c0 -3.0742493 -0.76529694 -5.4588013 -2.2958984 -7.1537476c-1.5306015 -1.6949158 -3.5033722 -2.5423584 -5.9183197 -2.5423584z" fill-rule="evenodd"/><path fill="#f4cccc" d="m133.23576 405.88928c1.3945465 0 2.5680084 0.5961304 3.5203857 1.7884216c0.95236206 1.1922913 1.4285583 3.0625305 1.4285583 5.610779c0 2.3144226 -0.46862793 4.036621 -1.4058838 5.166565c-0.93348694 1.1260681 -2.0691528 1.6890869 -3.407013 1.6890869c-1.3265076 0 -2.477295 -0.5903015 -3.4523468 -1.7709045c-0.9750519 -1.180603 -1.4625702 -2.9631958 -1.4625702 -5.347748c0 -2.4664001 0.45539856 -4.2723694 1.3661957 -5.4179077c0.9145813 -1.1455383 2.0521393 -1.7182922 3.412674 -1.7182922zm4.6938477 -9.27533l0 9.222717c-0.5328827 -0.75979614 -1.2244873 -1.3754272 -2.0748138 -1.8468933c-0.8503418 -0.4753418 -1.8197174 -0.7130127 -2.908142 -0.7130127c-1.48526 0 -2.8287811 0.40325928 -4.0305786 1.2098083c-1.2018127 0.8065491 -2.1031647 1.9676819 -2.7040634 3.483368c-0.6009064 1.5117798 -0.90135956 3.1969604 -0.90135956 5.055542c0 1.905304 0.33068848 3.5924377 0.9920578 5.061371c0.6651535 1.4650269 1.6005173 2.606659 2.806099 3.4248962c1.2093658 0.8182373 2.5339966 1.227356 3.9738922 1.227356c2.2222137 0 3.9058685 -0.9234314 5.0509796 -2.7703247l0 2.3495178l2.8401184 0l0 -25.704346z" fill-rule="evenodd"/><path fill="#f4cccc" d="m153.11656 405.88928c1.5079193 0 2.7683105 0.59417725 3.7811432 1.7825623c1.0166321 1.1845093 1.5249329 2.928131 1.5249329 5.230896c0 2.4430237 -0.50453186 4.260681 -1.5135956 5.4529724c-1.0090485 1.1922607 -2.2732239 1.7884216 -3.7924805 1.7884216c-1.5305939 0 -2.8004303 -0.59225464 -3.809494 -1.7767334c-1.0090637 -1.1884155 -1.5135956 -2.974884 -1.5135956 -5.3594666c0 -2.3845825 0.50453186 -4.1671753 1.5135956 -5.3477783c1.0090637 -1.1805725 2.2789001 -1.770874 3.809494 -1.770874zm0 -2.6125183c-2.2335358 0 -4.126953 0.68963623 -5.6802216 2.0689697c-1.8594055 1.6598511 -2.789093 4.213928 -2.789093 7.662201c0 3.1443787 0.7785187 5.5523376 2.3355713 7.223877c1.5608368 1.6715393 3.605423 2.5072937 6.1337433 2.5072937c1.5759583 0 3.0290833 -0.3798828 4.359375 -1.139679c1.3340759 -0.75979614 2.348816 -1.8254395 3.0441895 -3.1969604c0.699173 -1.3754272 1.0487518 -3.261261 1.0487518 -5.6575317c0 -2.9573364 -0.7879791 -5.2737427 -2.363922 -6.949188c-1.5759583 -1.6793213 -3.605423 -2.518982 -6.088394 -2.518982z" fill-rule="evenodd"/><path fill="#f4cccc" d="m102.079544 488.6719c-0.7142792 0 -1.3699799 0.21038818 -1.967102 0.63119507c-0.59334564 0.42080688 -1.2414856 1.2916565 -1.9444275 2.6125183l0 -2.8229065l-2.7550812 0l0 18.620728l3.0611954 0l0 -9.748718c0 -1.33255 0.17006683 -2.559906 0.5102005 -3.6820679c0.22676086 -0.73638916 0.606575 -1.3111267 1.1394501 -1.7241211c0.53287506 -0.41693115 1.1337738 -0.6253662 1.8027039 -0.6253662c0.74829865 0 1.4965897 0.22793579 2.2448807 0.6838074l1.0544128 -2.928131c-1.0657501 -0.677948 -2.1144943 -1.0169373 -3.1462326 -1.0169373z" fill-rule="evenodd"/><path fill="#f4cccc" d="m114.494415 491.26688c1.5532761 0 2.8174362 0.6078491 3.792488 1.8235168c0.6349106 0.7831421 1.020401 1.9579163 1.1564484 3.5242615l-10.084953 0c0.10204315 -1.6247864 0.63114166 -2.9222717 1.5872879 -3.8924866c0.95993805 -0.9701843 2.1428452 -1.4552917 3.548729 -1.4552917zm-0.03401184 -2.5949707c-2.494316 0 -4.523773 0.86499023 -6.088394 2.5949707c-1.5646133 1.7299805 -2.3469162 4.161316 -2.3469162 7.2940063c0 3.0274658 0.77285767 5.38089 2.318573 7.060211c1.5494995 1.6754456 3.6450958 2.513153 6.286804 2.513153c2.0974884 0 3.8208313 -0.526001 5.1700287 -1.5780334c1.3491898 -1.052002 2.2732239 -2.5306702 2.772087 -4.4360046l-3.1632462 -0.40325928c-0.46484375 1.33255 -1.0940933 2.3027344 -1.8877411 2.9105835c-0.79364014 0.6078186 -1.7516861 0.91174316 -2.8741226 0.91174316c-1.507927 0 -2.7664185 -0.5435486 -3.7754822 -1.6306458c-1.0090637 -1.0870667 -1.570282 -2.6534119 -1.6836624 -4.699005l13.469284 0c0.01133728 -0.37405396 0.01700592 -0.65460205 0.01700592 -0.84161377c0 -3.0742493 -0.76529694 -5.4588013 -2.2958984 -7.1537476c-1.5306015 -1.6949158 -3.5033722 -2.5423584 -5.9183197 -2.5423584z" fill-rule="evenodd"/><path fill="#f4cccc" d="m134.15413 491.14413c1.3151855 0 2.4451752 0.5903015 3.3899841 1.7709045c0.9486084 1.180603 1.4228973 2.9573364 1.4228973 5.3302307c0 2.4897766 -0.48562622 4.3288574 -1.4569092 5.517273c-0.9674835 1.1844788 -2.1315002 1.7767334 -3.492035 1.7767334c-1.3378601 0 -2.477295 -0.5727539 -3.418335 -1.7182922c-0.94104004 -1.1455383 -1.41156 -2.9164429 -1.41156 -5.3127136c0 -2.3962708 0.50076294 -4.22171 1.5022583 -5.476349c1.0052795 -1.2585144 2.159851 -1.8877869 3.4636993 -1.8877869zm0.28910828 -2.472229c-1.1791229 0 -2.1825256 0.2376709 -3.0101776 0.7130432c-0.82766724 0.47143555 -1.570282 1.1805725 -2.2278748 2.127411l0 -2.4196472l-2.789093 0l0 25.756958l3.061203 0l0 -9.064911c0.52153015 0.677948 1.186676 1.2390442 1.9954376 1.6832275c0.8125458 0.44418335 1.7290192 0.66625977 2.7494202 0.66625977c1.3945465 0 2.7229614 -0.4052124 3.9852295 -1.2156677c1.2660522 -0.81433105 2.2297668 -1.9832458 2.8911285 -3.5067139c0.66516113 -1.5273743 0.99772644 -3.243744 0.99772644 -5.149048c0 -1.7767639 -0.30044556 -3.4093323 -0.9013519 -4.8977356c-0.6009064 -1.4923096 -1.490921 -2.647583 -2.670044 -3.4658203c-1.1791382 -0.8182373 -2.5396729 -1.227356 -4.081604 -1.227356z" fill-rule="evenodd"/><path fill="#f4cccc" d="m153.23561 491.26688c1.5532684 0 2.8174286 0.6078491 3.7924805 1.8235168c0.6349182 0.7831421 1.020401 1.9579163 1.1564636 3.5242615l-10.084961 0c0.10203552 -1.6247864 0.63113403 -2.9222717 1.5872955 -3.8924866c0.9599304 -0.9701843 2.1428375 -1.4552917 3.5487213 -1.4552917zm-0.03401184 -2.5949707c-2.4943085 0 -4.523773 0.86499023 -6.088394 2.5949707c-1.5646057 1.7299805 -2.3469238 4.161316 -2.3469238 7.2940063c0 3.0274658 0.77285767 5.38089 2.3185883 7.060211c1.5494843 1.6754456 3.6450958 2.513153 6.286789 2.513153c2.0974884 0 3.8208313 -0.526001 5.1700287 -1.5780334c1.3491974 -1.052002 2.2732239 -2.5306702 2.7720947 -4.4360046l-3.1632385 -0.40325928c-0.464859 1.33255 -1.094101 2.3027344 -1.8877411 2.9105835c-0.7936554 0.6078186 -1.7516937 0.91174316 -2.8741302 0.91174316c-1.5079346 0 -2.7664185 -0.5435486 -3.7754822 -1.6306458c-1.0090637 -1.0870667 -1.570282 -2.6534119 -1.68367 -4.699005l13.469284 0c0.01133728 -0.37405396 0.01701355 -0.65460205 0.01701355 -0.84161377c0 -3.0742493 -0.76530457 -5.4588013 -2.2958984 -7.1537476c-1.5306091 -1.6949158 -3.5033722 -2.5423584 -5.9183197 -2.5423584z" fill-rule="evenodd"/><path fill="#f4cccc" d="m176.6878 498.368l0 1.1572266c0 1.3909912 -0.1643982 2.4430237 -0.49319458 3.1560364c-0.4308319 0.9234619 -1.1054382 1.6520691 -2.0237885 2.1858826c-0.9183655 0.5299072 -1.967102 0.79486084 -3.1462402 0.79486084c-1.1904602 0 -2.0955963 -0.2805481 -2.715393 -0.84161377c-0.61602783 -0.5610962 -0.9240265 -1.2624207 -0.9240265 -2.1040344c0 -0.54940796 0.14172363 -1.0481262 0.42515564 -1.4962158c0.28344727 -0.45199585 0.6859436 -0.79486084 1.2074738 -1.028656c0.5215454 -0.23376465 1.41156 -0.44418335 2.6700592 -0.63119507c2.2221985 -0.32730103 3.888855 -0.72473145 4.999954 -1.1922913zm-3.8945312 -9.696106c-1.5532684 0 -2.9194794 0.22012329 -4.0986023 0.6604309c-1.1791229 0.43640137 -2.08049 1.0617676 -2.7040558 1.8760986c-0.62358093 0.8104553 -1.0714264 1.8760986 -1.3435364 3.1969604l2.9931793 0.42080688c0.3287964 -1.3208618 0.83522034 -2.240387 1.5192566 -2.758606c0.6878357 -0.52212524 1.7516937 -0.7831726 3.1915894 -0.7831726c1.5419312 0 2.7040558 0.35650635 3.486374 1.0695496c0.57821655 0.526001 0.8673401 1.4319153 0.8673401 2.7177124c0 0.116882324 -0.0056762695 0.39157104 -0.01701355 0.82406616c-1.1677856 0.42080688 -2.987503 0.7831726 -5.459137 1.0870972c-1.21315 0.15194702 -2.120163 0.30975342 -2.7210693 0.4734192c-0.8163147 0.23376465 -1.5513916 0.5786133 -2.2052002 1.0344849c-0.6500397 0.45587158 -1.1772461 1.0617371 -1.5816193 1.8176575c-0.40060425 0.75198364 -0.6009064 1.5838623 -0.6009064 2.4956055c0 1.554657 0.5328827 2.832672 1.5986328 3.8340454c1.0657501 0.99746704 2.590683 1.4961853 4.5747986 1.4961853c1.2017975 0 2.326126 -0.20455933 3.3729858 -0.613678c1.0506287 -0.40911865 2.1428375 -1.1104431 3.2766113 -2.1040344c0.0907135 0.87667847 0.29478455 1.642334 0.61224365 2.2969055l3.1972504 0c-0.3854828 -0.7130127 -0.6443634 -1.4572449 -0.7766266 -2.232605c-0.12849426 -0.77926636 -0.19274902 -2.6358948 -0.19274902 -5.5698547l0 -4.2080994c0 -1.4026794 -0.05102539 -2.3728638 -0.15306091 -2.9105835c-0.18139648 -0.86499023 -0.4988556 -1.579956 -0.9523773 -2.144928c-0.45350647 -0.5688782 -1.1621246 -1.0403442 -2.125824 -1.4143982c-0.9637146 -0.37405396 -2.2165375 -0.5610657 -3.758484 -0.5610657z" fill-rule="evenodd"/><path fill="#f4cccc" d="m188.1333 482.5877l-3.0442047 1.8936462l0 4.6113586l-2.244873 0l0 2.454712l2.244873 0l0 10.713043c0 1.8936462 0.12472534 3.1365967 0.3741455 3.7288513c0.24943542 0.5883484 0.68026733 1.0636902 1.292511 1.4260559c0.61224365 0.36236572 1.4739075 0.5435486 2.585022 0.5435486c0.68026733 0 1.4512329 -0.09350586 2.3128967 -0.2805481l-0.4421692 -2.7878418c-0.55555725 0.08181763 -1.0033875 0.1227417 -1.3435211 0.1227417c-0.45352173 0 -0.8031006 -0.07598877 -1.0487518 -0.22793579c-0.24186707 -0.15197754 -0.41760254 -0.35653687 -0.5272064 -0.613678c-0.1058197 -0.25717163 -0.15872192 -0.8357849 -0.15872192 -1.7358398l0 -10.888397l3.0782013 0l0 -2.454712l-3.0782013 0l0 -6.505005z" fill-rule="evenodd"/><path fill="#e06666" d="m538.5696 565.2559l0 0c0 -9.497559 7.69928 -17.196838 17.196838 -17.196838l0 0c4.560852 0 8.934937 1.8117676 12.159973 5.036804c3.2250366 3.2250366 5.036865 7.599121 5.036865 12.160034l0 0c0 9.497559 -7.69928 17.196838 -17.196838 17.196838l0 0c-9.497559 0 -17.196838 -7.69928 -17.196838 -17.196838z" fill-rule="evenodd"/><path stroke="#cc0000" stroke-width="2.0" stroke-linejoin="round" stroke-linecap="butt" d="m538.5696 565.2559l0 0c0 -9.497559 7.69928 -17.196838 17.196838 -17.196838l0 0c4.560852 0 8.934937 1.8117676 12.159973 5.036804c3.2250366 3.2250366 5.036865 7.599121 5.036865 12.160034l0 0c0 9.497559 -7.69928 17.196838 -17.196838 17.196838l0 0c-9.497559 0 -17.196838 -7.69928 -17.196838 -17.196838z" fill-rule="evenodd"/><path fill="#000000" fill-opacity="0.0" d="m555.7664 582.45276l0 77.57483l-146.70868 0" fill-rule="evenodd"/><path stroke="#b7b7b7" stroke-width="2.0" stroke-linejoin="round" stroke-linecap="butt" d="m555.7664 582.45276l0 77.57483l-134.70868 0" fill-rule="evenodd"/><path fill="#b7b7b7" stroke="#b7b7b7" stroke-width="2.0" stroke-linecap="butt" d="m421.05774 656.7241l-9.076202 3.3034668l9.076202 3.3034058z" fill-rule="evenodd"/><path fill="#000000" fill-opacity="0.0" d="m323.85303 356.57492l1.1653442 42.519684" fill-rule="evenodd"/><path stroke="#b7b7b7" stroke-width="2.0" stroke-linejoin="round" stroke-linecap="butt" d="m323.85303 356.57492l0.83657837 30.5242" fill-rule="evenodd"/><path fill="#b7b7b7" stroke="#b7b7b7" stroke-width="2.0" stroke-linecap="butt" d="m321.3874 387.18964l3.5508728 8.982269l3.0535583 -9.1633z" fill-rule="evenodd"/><path fill="#f4cccc" d="m461.98068 538.0266c1.5532837 0 2.8174438 0.6077881 3.7924805 1.8234863c0.6349182 0.7831421 1.0204163 1.9579468 1.1564636 3.524231l-10.084961 0c0.10205078 -1.6247559 0.63113403 -2.9222412 1.5872803 -3.892456c0.9599304 -0.9701538 2.1428528 -1.4552612 3.5487366 -1.4552612zm-0.0340271 -2.5949707c-2.4942932 0 -4.523773 0.86499023 -6.088379 2.5949707c-1.5646057 1.7299805 -2.3469238 4.161316 -2.3469238 7.2940063c0 3.0274658 0.77285767 5.3808594 2.318573 7.0601807c1.5494995 1.6754761 3.645111 2.5131836 6.286804 2.5131836c2.0975037 0 3.8208313 -0.526001 5.170044 -1.578064c1.3491821 -1.052002 2.2732239 -2.5306396 2.7720642 -4.435974l-3.1632385 -0.4033203c-0.46484375 1.3325806 -1.0940857 2.3027954 -1.8877258 2.9105835c-0.79364014 0.6078491 -1.751709 0.9118042 -2.8741455 0.9118042c-1.507904 0 -2.7664185 -0.5435791 -3.7754822 -1.6306763c-1.0090637 -1.0870361 -1.570282 -2.6533813 -1.6836548 -4.6989746l13.469299 0c0.0113220215 -0.37408447 0.016998291 -0.65460205 0.016998291 -0.84161377c0 -3.0742798 -0.7652893 -5.4588623 -2.2958984 -7.1537476c-1.5306091 -1.6949463 -3.5033875 -2.5423584 -5.918335 -2.5423584z" fill-rule="evenodd"/><path fill="#f4cccc" d="m473.83432 528.7688l0 25.704346l3.0612183 0l0 -25.704346z" fill-rule="evenodd"/><path fill="#f4cccc" d="m487.5757 535.43164c-0.94104004 0 -1.8234863 0.12658691 -2.6473694 0.3798828c-0.8200989 0.24932861 -1.4682312 0.5552368 -1.9444275 0.91760254c-0.6349182 0.4675293 -1.1375732 1.0559082 -1.5079346 1.7650146c-0.36657715 0.70526123 -0.5498657 1.4728394 -0.5498657 2.3027954c0 0.91174316 0.22296143 1.7455444 0.6689148 2.5014648c0.44973755 0.7519531 1.1073303 1.3422852 1.9727783 1.770874c0.8692322 0.42468262 2.4263 0.92926025 4.671173 1.5137329c1.6666565 0.43249512 2.7097168 0.78900146 3.1292114 1.0695801c0.60092163 0.40911865 0.9013672 0.9701538 0.9013672 1.6832275c0 0.79486084 -0.34014893 1.4884033 -1.0204163 2.0806274c-0.68026733 0.5883789 -1.7233276 0.88256836 -3.1292114 0.88256836c-1.3945618 0 -2.481079 -0.33319092 -3.259613 -0.9994507c-0.77474976 -0.66625977 -1.2471619 -1.6247559 -1.4172363 -2.8754883l-3.0271912 0.49090576c0.34014893 1.9754639 1.1243591 3.4658203 2.3526 4.4710693c1.2320557 1.00531 3.021515 1.5079346 5.3684387 1.5079346c1.4172363 0 2.6870728 -0.2532959 3.8095093 -0.75982666c1.1224365 -0.510376 1.9803162 -1.2293091 2.5736694 -2.1566162c0.59710693 -0.9312134 0.8956909 -1.9228516 0.8956909 -2.9748535c0 -1.0754395 -0.24377441 -1.9754639 -0.7312927 -2.7001953c-0.4875183 -0.72473145 -1.1602478 -1.276062 -2.0181274 -1.6539917c-0.854126 -0.38189697 -2.363922 -0.8708496 -4.5294495 -1.467041c-1.496582 -0.42077637 -2.3979492 -0.68963623 -2.704071 -0.80651855c-0.53286743 -0.22210693 -0.92401123 -0.5026245 -1.1734314 -0.84161377c-0.24945068 -0.3272705 -0.37417603 -0.6954956 -0.37417603 -1.1046143c0 -0.6428833 0.30047607 -1.2039795 0.9013672 -1.6832275c0.6008911 -0.47924805 1.6043091 -0.7188721 3.0101929 -0.7188721c1.1904602 0 2.1107178 0.26885986 2.7607422 0.80651855c0.6538086 0.5377197 1.0487366 1.2858276 1.1847839 2.2443237l2.9931946 -0.4208374c-0.19274902 -1.2039795 -0.54422 -2.1644287 -1.0544128 -2.8813477c-0.5102234 -0.7208252 -1.3019714 -1.291626 -2.3752747 -1.7124634c-1.069519 -0.42077637 -2.3128967 -0.63116455 -3.730133 -0.63116455z" fill-rule="evenodd"/><path fill="#f4cccc" d="m506.50415 538.0266c1.5532532 0 2.8174133 0.6077881 3.7924805 1.8234863c0.6349182 0.7831421 1.0203857 1.9579468 1.1564636 3.524231l-10.084961 0c0.10202026 -1.6247559 0.63113403 -2.9222412 1.5872803 -3.892456c0.9599304 -0.9701538 2.1428528 -1.4552612 3.5487366 -1.4552612zm-0.0340271 -2.5949707c-2.4943237 0 -4.523773 0.86499023 -6.088379 2.5949707c-1.5646057 1.7299805 -2.3469238 4.161316 -2.3469238 7.2940063c0 3.0274658 0.77285767 5.3808594 2.318573 7.0601807c1.5494995 1.6754761 3.645111 2.5131836 6.286804 2.5131836c2.0974731 0 3.8208313 -0.526001 5.1700134 -1.578064c1.3492126 -1.052002 2.2732239 -2.5306396 2.7721252 -4.435974l-3.163269 -0.4033203c-0.46484375 1.3325806 -1.0940857 2.3027954 -1.8877258 2.9105835c-0.79367065 0.6078491 -1.751709 0.9118042 -2.8741455 0.9118042c-1.5079346 0 -2.7664185 -0.5435791 -3.7754822 -1.6306763c-1.0090637 -1.0870361 -1.570282 -2.6533813 -1.6836548 -4.6989746l13.469299 0c0.011291504 -0.37408447 0.016967773 -0.65460205 0.016967773 -0.84161377c0 -3.0742798 -0.7652588 -5.4588623 -2.2958984 -7.1537476c-1.5305786 -1.6949463 -3.503357 -2.5423584 -5.9183044 -2.5423584z" fill-rule="evenodd"/><path fill="#e06666" d="m538.5696 432.15878l0 0c0 -9.497559 7.69928 -17.196838 17.196838 -17.196838l0 0c4.560852 0 8.934937 1.8117981 12.159973 5.0368347c3.2250366 3.2250366 5.036865 7.599121 5.036865 12.160004l0 0c0 9.497559 -7.69928 17.196869 -17.196838 17.196869l0 0c-9.497559 0 -17.196838 -7.6993103 -17.196838 -17.196869z" fill-rule="evenodd"/><path stroke="#cc0000" stroke-width="2.0" stroke-linejoin="round" stroke-linecap="butt" d="m538.5696 432.15878l0 0c0 -9.497559 7.69928 -17.196838 17.196838 -17.196838l0 0c4.560852 0 8.934937 1.8117981 12.159973 5.0368347c3.2250366 3.2250366 5.036865 7.599121 5.036865 12.160004l0 0c0 9.497559 -7.69928 17.196869 -17.196838 17.196869l0 0c-9.497559 0 -17.196838 -7.6993103 -17.196838 -17.196869z" fill-rule="evenodd"/><path fill="#000000" fill-opacity="0.0" d="m434.59317 432.15878l51.988403 0l0 0.06298828l51.980133 0" fill-rule="evenodd"/><path stroke="#b7b7b7" stroke-width="2.0" stroke-linejoin="round" stroke-linecap="butt" stroke-dasharray="8.0,6.0" d="m434.59317 432.15878l51.988403 0l0 0.06298828l39.980133 0" fill-rule="evenodd"/><path fill="#b7b7b7" stroke="#b7b7b7" stroke-width="2.0" stroke-linecap="butt" d="m526.5617 435.52524l9.076172 -3.3034668l-9.076172 -3.3034363z" fill-rule="evenodd"/><path fill="#000000" fill-opacity="0.0" d="m555.7664 449.35565l0 49.35135l0.06298828 0l0 49.35733" fill-rule="evenodd"/><path stroke="#d9d9d9" stroke-width="2.0" stroke-linejoin="round" stroke-linecap="butt" d="m555.7664 449.35565l0 49.35138l0.06298828 0l0 37.3573" fill-rule="evenodd"/><path fill="#d9d9d9" stroke="#d9d9d9" stroke-width="2.0" stroke-linecap="butt" d="m552.52594 536.06433l3.3034668 9.076172l3.3034668 -9.076172z" fill-rule="evenodd"/></g></svg>