<svg version="1.1" viewBox="0.0 0.0 569.7217847769028 465.3569553805774" fill="none" stroke="none" stroke-linecap="square" stroke-miterlimit="10" xmlns:xlink="http://www.w3.org/1999/xlink" xmlns="http://www.w3.org/2000/svg"><clipPath id="p.0"><path d="m0 0l569.7218 0l0 465.35696l-569.7218 0l0 -465.35696z" clip-rule="nonzero"/></clipPath><g clip-path="url(#p.0)"><path fill="#000000" fill-opacity="0.0" d="m0 0l569.7218 0l0 465.35696l-569.7218 0z" fill-rule="evenodd"/><path fill="#434343" d="m-0.93963253 -1.6929134l569.7323 0l0 465.3543l-569.7323 0z" fill-rule="evenodd"/><path stroke="#000000" stroke-width="1.0" stroke-linejoin="round" stroke-linecap="butt" d="m-0.93963253 -1.6929134l569.7323 0l0 465.3543l-569.7323 0z" fill-rule="evenodd"/><path fill="#cfe2f3" d="m98.67848 26.797901l66.57483 0l0 0c8.721481 0 15.791641 9.391445 15.791641 20.976376c0 11.584934 -7.07016 20.97638 -15.791641 20.97638l-66.57483 0l0 0c-8.721481 0 -15.791641 -9.391445 -15.791641 -20.97638c0 -11.58493 7.07016 -20.976376 15.791641 -20.976376z" fill-rule="evenodd"/><path stroke="#3c78d8" stroke-width="2.0" stroke-linejoin="round" stroke-linecap="butt" d="m98.67848 26.797901l66.57483 0l0 0c8.721481 0 15.791641 9.391445 15.791641 20.976376c0 11.584934 -7.07016 20.97638 -15.791641 20.97638l-66.57483 0l0 0c-8.721481 0 -15.791641 -9.391445 -15.791641 -20.97638c0 -11.58493 7.07016 -20.976376 15.791641 -20.976376z" fill-rule="evenodd"/><path fill="#000000" d="m112.18487 51.928654l2.5625 -0.390625q0.171875 0.75 0.671875 1.140625q0.5 0.390625 1.40625 0.390625q0.984375 0 1.484375 -0.375q0.34375 -0.25 0.34375 -0.671875q0 -0.296875 -0.1875 -0.484375q-0.1875 -0.1875 -0.859375 -0.34375q-3.09375 -0.6875 -3.921875 -1.25q-1.140625 -0.78125 -1.140625 -2.171875q0 -1.265625 0.984375 -2.109375q1.0 -0.859375 3.078125 -0.859375q1.984375 0 2.953125 0.65625q0.96875 0.640625 1.328125 1.90625l-2.40625 0.4375q-0.15625 -0.5625 -0.59375 -0.859375q-0.421875 -0.296875 -1.234375 -0.296875q-1.0 0 -1.4375 0.28125q-0.296875 0.203125 -0.296875 0.515625q0 0.265625 0.25 0.46875q0.34375 0.25 2.390625 0.71875q2.046875 0.453125 2.859375 1.140625q0.796875 0.671875 0.796875 1.890625q0 1.34375 -1.109375 2.296875q-1.109375 0.953125 -3.28125 0.953125q-1.984375 0 -3.140625 -0.796875q-1.140625 -0.8125 -1.5 -2.1875zm15.719467 -6.90625l0 2.03125l-1.75 0l0 3.90625q0 1.1875 0.046875 1.390625q0.046875 0.1875 0.21875 0.3125q0.1875 0.125 0.4375 0.125q0.359375 0 1.03125 -0.25l0.21875763 2.0q-0.8906326 0.375 -2.0156326 0.375q-0.703125 0 -1.265625 -0.234375q-0.546875 -0.234375 -0.8125 -0.59375q-0.25 -0.375 -0.34375 -1.0q-0.09375 -0.453125 -0.09375 -1.8125l0 -4.21875l-1.171875 0l0 -2.03125l1.171875 0l0 -1.921875l2.578125 -1.5l0 3.421875l1.75 0zm3.6814346 2.953125l-2.328125 -0.421875q0.40625 -1.40625 1.359375 -2.078125q0.953125 -0.671875 2.84375 -0.671875q1.703125 0 2.546875 0.40625q0.84375 0.40625 1.171875 1.03125q0.34375 0.625 0.34375 2.28125l-0.015625 3.0q0 1.265625 0.109375 1.875q0.125 0.609375 0.46875 1.296875l-2.53125 0q-0.109375 -0.25 -0.25 -0.75q-0.0625 -0.234375 -0.09375 -0.3125q-0.65625 0.640625 -1.40625 0.96875q-0.734375 0.3125 -1.59375 0.3125q-1.484375 0 -2.34375 -0.8125q-0.859375 -0.8125 -0.859375 -2.046875q0 -0.828125 0.390625 -1.46875q0.390625 -0.640625 1.09375 -0.96875q0.703125 -0.34375 2.03125 -0.609375q1.796875 -0.328125 2.484375 -0.625l0 -0.25q0 -0.75 -0.359375 -1.0625q-0.359375 -0.3125 -1.375 -0.3125q-0.6875 0 -1.078125 0.28125q-0.375 0.265625 -0.609375 0.9375zm3.421875 2.078125q-0.484375 0.15625 -1.5625 0.390625q-1.0625 0.21875 -1.390625 0.4375q-0.5 0.359375 -0.5 0.90625q0 0.53125 0.40625 0.9375q0.40625 0.390625 1.015625 0.390625q0.703125 0 1.328125 -0.46875q0.46875 -0.34375 0.609375 -0.84375q0.09375 -0.328125 0.09375 -1.25l0 -0.5zm7.500717 4.640625l-2.5625 0l0 -9.671875l2.375 0l0 1.375q0.609375 -0.984375 1.09375 -1.28125q0.484375 -0.3125 1.109375 -0.3125q0.875 0 1.6875 0.484375l-0.796875 2.234375q-0.640625 -0.421875 -1.203125 -0.421875q-0.53125 0 -0.90625 0.296875q-0.375 0.296875 -0.59375 1.078125q-0.203125 0.765625 -0.203125 3.234375l0 2.984375zm9.244644 -9.671875l0 2.03125l-1.75 0l0 3.90625q0 1.1875 0.046875 1.390625q0.046875 0.1875 0.21875 0.3125q0.1875 0.125 0.4375 0.125q0.359375 0 1.03125 -0.25l0.21875 2.0q-0.890625 0.375 -2.015625 0.375q-0.703125 0 -1.265625 -0.234375q-0.546875 -0.234375 -0.8125 -0.59375q-0.25 -0.375 -0.34375 -1.0q-0.09375 -0.453125 -0.09375 -1.8125l0 -4.21875l-1.171875 0l0 -2.03125l1.171875 0l0 -1.921875l2.578125 -1.5l0 3.421875l1.75 0z" fill-rule="nonzero"/><path fill="#efefef" d="m283.99344 312.5875l-1.1937256 -2.3322144l-2.906952 0l0 -1.7198486l-1.5473938 0l0 1.7198486l-6.7533875 0c-1.1936951 0 -1.9772339 0.09555054 -2.350586 0.2866516c-0.37088013 0.19110107 -0.6705322 0.5211487 -0.8989868 0.99020386c-0.22842407 0.46905518 -0.34262085 1.1292114 -0.34262085 1.9804382c0 0.5211792 0.058929443 1.1118164 0.17684937 1.7719727l1.7574158 -0.33877563c-0.051574707 -0.42559814 -0.07736206 -0.7687073 -0.07736206 -1.0292969c0 -0.34744263 0.04788208 -0.6152649 0.14367676 -0.8034668c0.09579468 -0.18530273 0.22473145 -0.3199463 0.38684082 -0.40390015c0.16210938 -0.08105469 0.52685547 -0.12161255 1.0942688 -0.12161255l6.8638916 0l0 2.3582764l1.5473938 0l0 -2.3582764l4.1006775 0z" fill-rule="evenodd"/><path fill="#efefef" d="m280.15805 322.32028c0 -0.5472107 -0.1326294 -1.0495605 -0.3979187 -1.507019c-0.2652588 -0.45458984 -0.8142395 -0.95114136 -1.6468811 -1.489685l1.7795105 0l0 -2.1107178l-11.738251 0l0 2.3452454l6.145447 0c0.84002686 0 1.613739 0.13027954 2.3211365 0.39086914c0.4642334 0.17373657 0.82650757 0.46472168 1.0868835 0.8729553c0.26281738 0.40826416 0.39422607 0.8686218 0.39422607 1.3811035c0 0.5732727 -0.14370728 1.1465454 -0.4310913 1.7198486l1.8458557 0.8078003c0.42739868 -0.8164978 0.64108276 -1.6199646 0.64108276 -2.4104004z" fill-rule="evenodd"/><path fill="#efefef" d="m279.89276 326.0727l-7.272827 0c-0.8474121 0 -1.4663696 0.04776001 -1.8569031 0.14331055c-0.5821228 0.13897705 -1.0746155 0.37930298 -1.477417 0.72094727c-0.4003601 0.34454346 -0.7331848 0.87005615 -0.9984741 1.5765381c-0.2652588 0.7093506 -0.39788818 1.47229 -0.39788818 2.2887878c0 1.8501282 0.6631775 3.3137512 1.9895325 4.3908386l-1.7242737 0l0 2.0976868l11.738251 0l0 -2.3452454l-6.2891235 0c-1.0021362 0 -1.7672424 -0.12884521 -2.2953491 -0.38653564c-0.52560425 -0.25479126 -0.94195557 -0.69055176 -1.2489624 -1.307251c-0.30459595 -0.61672974 -0.45687866 -1.276886 -0.45687866 -1.9804382c0 -0.70358276 0.1486206 -1.2942505 0.44580078 -1.7719727c0.29968262 -0.4777527 0.7110901 -0.7904358 1.2342529 -0.93811035c0.36108398 -0.09555054 1.0610962 -0.14331055 2.1000671 -0.14331055l6.510193 0z" fill-rule="evenodd"/><path fill="#efefef" d="m278.52222 346.67178c0 1.1900024 -0.3831787 2.1585083 -1.1495056 2.9055176c-0.49371338 0.48641968 -1.2342529 0.7817383 -2.2216492 0.8859863l0 -7.726288c1.024231 0.07815552 1.8421631 0.4835205 2.4537354 1.2160339c0.6116028 0.7354431 0.91741943 1.6416931 0.91741943 2.71875zm1.6358337 -0.026031494c0 -1.9109497 -0.5452881 -3.4657593 -1.6358337 -4.664459c-1.0905762 -1.1986694 -2.6232605 -1.7980347 -4.598053 -1.7980347c-1.9084778 0 -3.3920288 0.59210205 -4.450653 1.7763367c-1.0561829 1.1870728 -1.584259 2.792572 -1.584259 4.816437c0 1.6069336 0.3315735 2.9272156 0.994751 3.9608765c0.6631775 1.0336304 1.5953369 1.7415466 2.7964172 2.1237488l0.25421143 -2.4234314c-0.84002686 -0.35614014 -1.4516296 -0.8382263 -1.8347778 -1.446228c-0.3831787 -0.6080322 -0.57476807 -1.3420105 -0.57476807 -2.2019348c0 -1.1552429 0.34265137 -2.1194153 1.0279236 -2.8924866c0.68530273 -0.7730713 1.672699 -1.2030334 2.9621887 -1.2898865l0 10.319092c0.23580933 0.00869751 0.4126587 0.013031006 0.5305481 0.013031006c1.9379578 0 3.441162 -0.5863037 4.509613 -1.7589111c1.0684509 -1.1726379 1.6026917 -2.684021 1.6026917 -4.534149z" fill-rule="evenodd"/><path fill="#000000" fill-opacity="0.0" d="m258.50394 282.7139l0 111.90552" fill-rule="evenodd"/><path stroke="#efefef" stroke-width="2.0" stroke-linejoin="round" stroke-linecap="butt" d="m258.50394 282.7139l0 99.90552" fill-rule="evenodd"/><path fill="#efefef" stroke="#efefef" stroke-width="2.0" stroke-linecap="butt" d="m255.20047 382.61942l3.3034668 9.076202l3.3034668 -9.076202z" fill-rule="evenodd"/><path fill="#000000" fill-opacity="0.0" d="m178.51968 418.56955l-141.28325 0l0 -280.53543l24.999783 0" fill-rule="evenodd"/><path stroke="#efefef" stroke-width="2.0" stroke-linejoin="round" stroke-linecap="butt" d="m178.51968 418.56955l-141.28325 0l0 -280.53543l12.999783 0" fill-rule="evenodd"/><path fill="#efefef" stroke="#efefef" stroke-width="2.0" stroke-linecap="butt" d="m50.23622 141.33759l9.076195 -3.3034668l-9.076195 -3.3034668z" fill-rule="evenodd"/><path fill="#000000" fill-opacity="0.0" d="m131.9659 68.750656l0 45.354332" fill-rule="evenodd"/><path stroke="#efefef" stroke-width="2.0" stroke-linejoin="round" stroke-linecap="butt" d="m131.9659 68.750656l0 33.354332" fill-rule="evenodd"/><path fill="#efefef" stroke="#efefef" stroke-width="2.0" stroke-linecap="butt" d="m128.66243 102.10499l3.3034668 9.076195l3.3034668 -9.076195z" fill-rule="evenodd"/><path fill="#ffd966" d="m140.01575 248.9029l118.48819 -33.811035l118.48819 33.811035l-118.48819 33.811005z" fill-rule="evenodd"/><path stroke="#bf9000" stroke-width="2.0" stroke-linejoin="round" stroke-linecap="butt" d="m140.01575 248.9029l118.48819 -33.811035l118.48819 33.811035l-118.48819 33.811005z" fill-rule="evenodd"/><path fill="#000000" d="m226.31773 249.01039l-2.53125 0.453125q-0.125 -0.75 -0.578125 -1.125q-0.453125 -0.390625 -1.171875 -0.390625q-0.953125 0 -1.53125 0.65625q-0.5625 0.65625 -0.5625 2.203125q0 1.734375 0.578125 2.4375q0.578125 0.703125 1.546875 0.703125q0.734375 0 1.203125 -0.40625q0.46875 -0.421875 0.65625 -1.421875l2.515625 0.421875q-0.390625 1.734375 -1.515625 2.625q-1.109375 0.87498474 -2.96875 0.87498474q-2.125 0 -3.390625 -1.3281097q-1.25 -1.34375 -1.25 -3.71875q0 -2.390625 1.265625 -3.71875q1.265625 -1.34375 3.421875 -1.34375q1.765625 0 2.796875 0.765625q1.046875 0.75 1.515625 2.3125zm1.3444672 1.84375q0 -1.28125 0.625 -2.46875q0.625 -1.203125 1.78125 -1.828125q1.15625 -0.625 2.578125 -0.625q2.1875 0 3.59375 1.421875q1.40625 1.421875 1.40625 3.609375q0 2.1875 -1.421875 3.640625q-1.421875 1.4374847 -3.5625 1.4374847q-1.328125 0 -2.546875 -0.59373474q-1.203125 -0.609375 -1.828125 -1.765625q-0.625 -1.171875 -0.625 -2.828125zm2.625 0.125q0 1.453125 0.671875 2.21875q0.6875 0.75 1.6875 0.75q1.0 0 1.671875 -0.75q0.6875 -0.765625 0.6875 -2.234375q0 -1.421875 -0.6875 -2.1875q-0.671875 -0.765625 -1.671875 -0.765625q-1.0 0 -1.6875 0.765625q-0.671875 0.765625 -0.671875 2.203125zm18.161606 4.84375l-2.5625 0l0 -4.9375q0 -1.5625 -0.171875 -2.015625q-0.15625 -0.46875 -0.53125 -0.71875q-0.359375 -0.265625 -0.875 -0.265625q-0.671875 0 -1.203125 0.375q-0.53125 0.359375 -0.734375 0.96875q-0.1875 0.59375 -0.1875 2.21875l0 4.375l-2.546875 0l0 -9.671875l2.375 0l0 1.421875q1.265625 -1.640625 3.1875 -1.640625q0.84375 0 1.546875 0.3125q0.703125 0.296875 1.0625 0.78125q0.359375 0.46875 0.5 1.078125q0.140625 0.59375 0.140625 1.703125l0 6.015625zm11.474106 0l-2.390625 0l0 -1.421875q-0.59375 0.828125 -1.40625 1.234375q-0.796875 0.40623474 -1.609375 0.40623474q-1.671875 0 -2.859375 -1.3437347q-1.1875 -1.34375 -1.1875 -3.75q0 -2.453125 1.15625 -3.734375q1.15625 -1.28125 2.921875 -1.28125q1.625 0 2.8125 1.34375l0 -4.8125l2.5625 0l0 13.359375zm-6.84375 -5.046875q0 1.546875 0.4375 2.234375q0.609375 1.015625 1.71875 1.015625q0.890625 0 1.5 -0.75q0.625 -0.765625 0.625 -2.25q0 -1.671875 -0.609375 -2.40625q-0.59375 -0.734375 -1.53125 -0.734375q-0.90625 0 -1.53125 0.734375q-0.609375 0.71875 -0.609375 2.15625zm9.364746 -5.9375l0 -2.375l2.5625 0l0 2.375l-2.5625 0zm0 10.984375l0 -9.671875l2.5625 0l0 9.671875l-2.5625 0zm9.620789 -9.671875l0 2.03125l-1.75 0l0 3.90625q0 1.1875 0.046875 1.390625q0.046875 0.1875 0.21875 0.3125q0.1875 0.125 0.4375 0.125q0.359375 0 1.03125 -0.25l0.21875 2.0q-0.890625 0.37498474 -2.015625 0.37498474q-0.703125 0 -1.265625 -0.23435974q-0.546875 -0.234375 -0.8125 -0.59375q-0.25 -0.375 -0.34375 -1.0q-0.09375 -0.453125 -0.09375 -1.8125l0 -4.21875l-1.171875 0l0 -2.03125l1.171875 0l0 -1.921875l2.578125 -1.5l0 3.421875l1.75 0zm1.775177 -1.3125l0 -2.375l2.5625 0l0 2.375l-2.5625 0zm0 10.984375l0 -9.671875l2.5625 0l0 9.671875l-2.5625 0zm4.589569 -4.96875q0 -1.28125 0.625 -2.46875q0.625 -1.203125 1.78125 -1.828125q1.15625 -0.625 2.578125 -0.625q2.1875 0 3.59375 1.421875q1.40625 1.421875 1.40625 3.609375q0 2.1875 -1.421875 3.640625q-1.421875 1.4374847 -3.5625 1.4374847q-1.328125 0 -2.546875 -0.59373474q-1.203125 -0.609375 -1.828125 -1.765625q-0.625 -1.171875 -0.625 -2.828125zm2.625 0.125q0 1.453125 0.671875 2.21875q0.6875 0.75 1.6875 0.75q1.0 0 1.671875 -0.75q0.6875 -0.765625 0.6875 -2.234375q0 -1.421875 -0.6875 -2.1875q-0.671875 -0.765625 -1.671875 -0.765625q-1.0 0 -1.6875 0.765625q-0.671875 0.765625 -0.671875 2.203125zm18.16159 4.84375l-2.5625 0l0 -4.9375q0 -1.5625 -0.171875 -2.015625q-0.15625 -0.46875 -0.53125 -0.71875q-0.359375 -0.265625 -0.875 -0.265625q-0.671875 0 -1.203125 0.375q-0.53125 0.359375 -0.734375 0.96875q-0.1875 0.59375 -0.1875 2.21875l0 4.375l-2.546875 0l0 -9.671875l2.375 0l0 1.421875q1.265625 -1.640625 3.1875 -1.640625q0.84375 0 1.546875 0.3125q0.703125 0.296875 1.0625 0.78125q0.359375 0.46875 0.5 1.078125q0.140625 0.59375 0.140625 1.703125l0 6.015625z" fill-rule="nonzero"/><path fill="#000000" fill-opacity="0.0" d="m376.99213 248.9029l41.825104 0l0 0.06298828l41.82843 0" fill-rule="evenodd"/><path stroke="#efefef" stroke-width="2.0" stroke-linejoin="round" stroke-linecap="butt" d="m376.99213 248.9029l41.825104 0l0 0.06298828l29.82843 0" fill-rule="evenodd"/><path fill="#efefef" stroke="#efefef" stroke-width="2.0" stroke-linecap="butt" d="m448.64566 252.26935l9.076202 -3.3034668l-9.076202 -3.3034668z" fill-rule="evenodd"/><path fill="#efefef" d="m82.80804 391.1488c-0.50193024 0 -0.96269226 0.14447021 -1.3822937 0.43341064c-0.4169464 0.28894043 -0.872406 0.88690186 -1.3663712 1.7938843l0 -1.9383545l-1.9360123 0l0 12.785858l2.1511307 0l0 -6.6939087c0 -0.91500854 0.119506836 -1.7577515 0.3585205 -2.5282898c0.1593399 -0.50564575 0.426239 -0.90026855 0.8006973 -1.1838684c0.3744583 -0.2862854 0.7967148 -0.42941284 1.266777 -0.42941284c0.52583313 0 1.0516586 0.15652466 1.5774918 0.46954346l0.7409439 -2.0105896c-0.748909 -0.46551514 -1.4858704 -0.6982727 -2.210884 -0.6982727z" fill-rule="evenodd"/><path fill="#efefef" d="m91.53206 392.93063c1.0914993 0 1.9798355 0.4173584 2.6650162 1.2521057c0.44615936 0.53775024 0.717041 1.3443909 0.81264496 2.4199219l-7.0867767 0c0.07170868 -1.1156616 0.44350433 -2.0065918 1.1154022 -2.67276c0.6745529 -0.6661682 1.5057907 -0.9992676 2.4937134 -0.9992676zm-0.023895264 -1.7818298c-1.7527771 0 -3.178894 0.5939331 -4.2783585 1.7818298c-1.0994644 1.1878967 -1.6492004 2.8573608 -1.6492004 5.0083923c0 2.0787964 0.54309845 3.6947632 1.6292801 4.84787c1.0888443 1.1504211 2.5614395 1.725647 4.4177856 1.725647c1.4739227 0 2.684929 -0.36120605 3.6330185 -1.0835571c0.9480896 -0.7223511 1.5974121 -1.7376709 1.9479675 -3.0459595l-2.2228394 -0.2769165c-0.32665253 0.91500854 -0.76882935 1.5811768 -1.3265305 1.9985352c-0.5576935 0.41738892 -1.2309189 0.6260681 -2.0196686 0.6260681c-1.0596313 0 -1.943985 -0.37322998 -2.653061 -1.11969c-0.7090759 -0.74642944 -1.103447 -1.8219604 -1.1831207 -3.226532l9.464973 0c0.007965088 -0.25686646 0.011947632 -0.4494934 0.011947632 -0.5779114c0 -2.1109009 -0.53778076 -3.7482605 -1.6133499 -4.912079c-1.0755615 -1.1637878 -2.4618454 -1.745697 -4.158844 -1.745697z" fill-rule="evenodd"/><path fill="#efefef" d="m105.34709 392.84634c0.9241867 0 1.7182465 0.40533447 2.3821716 1.2160034c0.6665878 0.8106384 0.9998779 2.0306396 0.9998779 3.6599731c0 1.7095947 -0.3412552 2.9723816 -1.0237732 3.788391c-0.679863 0.813324 -1.4978256 1.2200012 -2.4538803 1.2200012c-0.9401245 0 -1.7408218 -0.39331055 -2.4020996 -1.1798706c-0.66127014 -0.7865906 -0.9919052 -2.0025635 -0.9919052 -3.6479492c0 -1.6453857 0.35188293 -2.8988037 1.0556412 -3.7602844c0.7064209 -0.86416626 1.517746 -1.2962646 2.4339676 -1.2962646zm0.20316315 -1.6975403c-0.82858276 0 -1.5336761 0.16320801 -2.1152802 0.4895935c-0.581604 0.32373047 -1.103447 0.81066895 -1.5655441 1.4607849l0 -1.661438l-1.9599152 0l0 17.685883l2.1511307 0l0 -6.224365c0.3664856 0.46551514 0.8338928 0.85076904 1.402214 1.1557617c0.57097626 0.3050232 1.2149887 0.45751953 1.9320297 0.45751953c0.9799652 0 1.9134445 -0.27825928 2.8004532 -0.8347473c0.8896637 -0.55914307 1.5668716 -1.3617859 2.0316238 -2.4078674c0.46740723 -1.0487671 0.70111084 -2.227295 0.70111084 -3.5355835c0 -1.2200012 -0.21113586 -2.3410034 -0.63339233 -3.3630066c-0.42225647 -1.0246887 -1.0476761 -1.8179321 -1.8762589 -2.3797913c-0.82858276 -0.5618286 -1.7846451 -0.8427429 -2.8681717 -0.8427429z" fill-rule="evenodd"/><path fill="#efefef" d="m118.75579 392.93063c1.0914993 0 1.9798355 0.4173584 2.6650162 1.2521057c0.44615936 0.53775024 0.717041 1.3443909 0.81264496 2.4199219l-7.0867767 0c0.07170868 -1.1156616 0.44350433 -2.0065918 1.1154022 -2.67276c0.6745529 -0.6661682 1.5057907 -0.9992676 2.4937134 -0.9992676zm-0.023895264 -1.7818298c-1.7527771 0 -3.178894 0.5939331 -4.2783585 1.7818298c-1.0994644 1.1878967 -1.6492004 2.8573608 -1.6492004 5.0083923c0 2.0787964 0.5430908 3.6947632 1.6292801 4.84787c1.0888443 1.1504211 2.5614395 1.725647 4.4177856 1.725647c1.4739151 0 2.6849213 -0.36120605 3.6330109 -1.0835571c0.9480972 -0.7223511 1.5974197 -1.7376709 1.9479675 -3.0459595l-2.2228317 -0.2769165c-0.32665253 0.91500854 -0.76882935 1.5811768 -1.3265305 1.9985352c-0.5577011 0.41738892 -1.2309189 0.6260681 -2.0196686 0.6260681c-1.0596313 0 -1.943985 -0.37322998 -2.653061 -1.11969c-0.7090759 -0.74642944 -1.103447 -1.8219604 -1.1831207 -3.226532l9.464966 0c0.007972717 -0.25686646 0.011955261 -0.4494934 0.011955261 -0.5779114c0 -2.1109009 -0.53778076 -3.7482605 -1.6133499 -4.912079c-1.0755615 -1.1637878 -2.4618454 -1.745697 -4.158844 -1.745697z" fill-rule="evenodd"/><path fill="#efefef" d="m135.23582 397.80658l0 0.7946167c0 0.95510864 -0.11552429 1.6774902 -0.34655762 2.1670837c-0.3027649 0.6340637 -0.7768097 1.1343689 -1.4221497 1.5009155c-0.6453247 0.36386108 -1.3822937 0.54577637 -2.2108765 0.54577637c-0.83654785 0 -1.4725952 -0.19262695 -1.9081268 -0.57788086c-0.4328766 -0.3852539 -0.6493225 -0.8668518 -0.6493225 -1.4447327c0 -0.37722778 0.099594116 -0.71969604 0.2987671 -1.0273743c0.19917297 -0.31033325 0.4820099 -0.54577637 0.8484955 -0.7062988c0.3664856 -0.16052246 0.99191284 -0.30499268 1.8762665 -0.43341064c1.561554 -0.22473145 2.732727 -0.49765015 3.513504 -0.81869507zm-2.7367096 -6.657776c-1.0914917 0 -2.0515442 0.15115356 -2.880127 0.4534912c-0.82858276 0.29962158 -1.4619598 0.7290344 -1.9001541 1.288208c-0.43819427 0.55648804 -0.75289917 1.288208 -0.94410706 2.1951904l2.103325 0.28894043c0.23104858 -0.9069824 0.58691406 -1.5383606 1.0675964 -1.8941956c0.4833374 -0.3585205 1.2309265 -0.53778076 2.242752 -0.53778076c1.0835266 0 1.9001617 0.24481201 2.4498901 0.7344055c0.4063263 0.36120605 0.6094971 0.98321533 0.6094971 1.8661194c0 0.08026123 -0.003982544 0.26889038 -0.011962891 0.56585693c-0.8206024 0.28894043 -2.0993347 0.53775024 -3.8361664 0.74642944c-0.8524933 0.1043396 -1.4898682 0.21270752 -1.9121246 0.32507324c-0.5736389 0.16052246 -1.0901642 0.39730835 -1.5496063 0.71032715c-0.4567871 0.3130188 -0.82725525 0.7290344 -1.1114197 1.2480774c-0.28150177 0.5163574 -0.42225647 1.0875549 -0.42225647 1.713623c0 1.0674744 0.3744583 1.9450073 1.1233673 2.6325989c0.7489166 0.684906 1.8204956 1.0273743 3.214737 1.0273743c0.8445282 0 1.6345978 -0.14047241 2.370224 -0.42138672c0.7382965 -0.2809143 1.5057983 -0.7625122 2.3025055 -1.4447327c0.06375122 0.6019592 0.20715332 1.1276855 0.43023682 1.577179l2.2467346 0c-0.27088928 -0.48962402 -0.45280457 -1.0006104 -0.5457611 -1.53302c-0.090286255 -0.5350952 -0.13543701 -1.8099365 -0.13543701 -3.824524l0 -2.8894653c0 -0.96313477 -0.035842896 -1.6293335 -0.107559204 -1.9985352c-0.12747192 -0.5939331 -0.35055542 -1.0848694 -0.6692352 -1.4728088c-0.3186798 -0.390625 -0.81663513 -0.71435547 -1.4938354 -0.9711914c-0.6772156 -0.25683594 -1.5575867 -0.3852539 -2.6411133 -0.3852539z" fill-rule="evenodd"/><path fill="#efefef" d="m143.27866 386.97113l-2.1391754 1.3002625l0 3.1663513l-1.5774841 0l0 1.6855164l1.5774841 0l0 7.356079c0 1.3002625 0.087646484 2.153717 0.2629242 2.5603638c0.17527771 0.4039917 0.47802734 0.7304077 0.9082489 0.9792175c0.43022156 0.24880981 1.0357361 0.37322998 1.8165131 0.37322998c0.47802734 0 1.0197906 -0.064208984 1.6252899 -0.19262695l-0.31071472 -1.9142761c-0.39039612 0.05618286 -0.7050934 0.08425903 -0.94410706 0.08425903c-0.3186798 0 -0.5643463 -0.05215454 -0.73695374 -0.15649414c-0.16996765 -0.1043396 -0.29345703 -0.24481201 -0.3704834 -0.42138672c-0.07435608 -0.1765747 -0.11154175 -0.57388306 -0.11154175 -1.1918945l0 -7.476471l2.163086 0l0 -1.6855164l-2.163086 0l0 -4.466614z" fill-rule="evenodd"/><path fill="#cc0000" d="m402.87323 231.37907l0 0.78845215c0 0.9477539 -0.125 1.6645355 -0.375 2.1503448c-0.32754517 0.6291809 -0.8404541 1.1256104 -1.5386658 1.4893188c-0.69821167 0.3610382 -1.495575 0.54156494 -2.3920593 0.54156494c-0.90512085 0 -1.5932922 -0.19114685 -2.0645142 -0.5734253c-0.46835327 -0.38227844 -0.70254517 -0.86013794 -0.70254517 -1.4335632c0 -0.37431335 0.10775757 -0.7141266 0.3232727 -1.0194244c0.21548462 -0.30795288 0.5215149 -0.54156494 0.9180298 -0.70085144c0.3965149 -0.1592865 1.0731812 -0.30264282 2.0300293 -0.43006897c1.6895142 -0.22299194 2.956665 -0.4937744 3.8014526 -0.8123474zm-11.766388 -11.444611c-1.0171814 0 -1.8087769 0.17388916 -2.3748474 0.5216522c-0.5631714 0.3451233 -0.9568176 0.7964325 -1.1809387 1.3539276c-0.16378784 0.4141388 -0.2456665 1.047287 -0.2456665 1.8994598l0 1.3499451l-2.0559082 0l0 1.6724854l2.0559082 0l0 11.014542l2.3144836 0l0 -11.014542l2.6765137 0l0 -1.6724854l-2.6765137 0l0 -1.1707458c0 -0.7645569 0.14654541 -1.2862244 0.4396057 -1.5649719c0.29309082 -0.27874756 0.7930603 -0.41812134 1.4999084 -0.41812134c0.43099976 0 0.8878479 0.03982544 1.370575 0.11946106l0.3491211 -1.8755798c-0.7930298 -0.14335632 -1.5171204 -0.21502686 -2.1722412 -0.21502686zm8.805389 4.838272c-1.1809692 0 -2.2196655 0.1499939 -3.11615 0.4499817c-0.8964844 0.29733276 -1.5817871 0.7234192 -2.0559082 1.2782593c-0.47409058 0.55218506 -0.8145752 1.2782593 -1.0214539 2.1782227l2.2756958 0.28671265c0.24996948 -0.8999634 0.63500977 -1.5264893 1.1550903 -1.8795624c0.5229492 -0.3557434 1.3317871 -0.53359985 2.4265442 -0.53359985c1.1723328 0 2.0558777 0.24290466 2.6506653 0.728714c0.43963623 0.35839844 0.6594238 0.9756317 0.6594238 1.8516998c0 0.07963562 -0.0043029785 0.26679993 -0.012908936 0.56147766c-0.8878784 0.28671265 -2.2713928 0.53359985 -4.1505737 0.7406616c-0.92233276 0.10354614 -1.6119385 0.21105957 -2.0688171 0.32255554c-0.620636 0.1592865 -1.1795044 0.39422607 -1.6766052 0.704834c-0.49420166 0.3106079 -0.89505005 0.7234192 -1.2024841 1.2384491c-0.30459595 0.5123596 -0.45687866 1.0791473 -0.45687866 1.7003632c0 1.0592346 0.40515137 1.9299927 1.2154236 2.612259c0.81030273 0.67962646 1.969696 1.0194244 3.4782104 1.0194244c0.9137268 0 1.7685547 -0.13937378 2.5644531 -0.41812134c0.7987976 -0.27874756 1.6292114 -0.7565918 2.491211 -1.4335632c0.06896973 0.59732056 0.2241211 1.1189728 0.46548462 1.5649719l2.4308472 0c-0.2930603 -0.48580933 -0.48989868 -0.99287415 -0.5904541 -1.521164c-0.097717285 -0.5309448 -0.14654541 -1.795929 -0.14654541 -3.7949524l0 -2.8671265c0 -0.955719 -0.03878784 -1.616745 -0.116363525 -1.9831085c-0.13793945 -0.5893402 -0.37930298 -1.0764923 -0.7240906 -1.4614258c-0.34481812 -0.38760376 -0.88357544 -0.7088165 -1.616272 -0.9636841c-0.73269653 -0.2548523 -1.6852112 -0.38227844 -2.857544 -0.38227844z" fill-rule="evenodd"/><path fill="#cc0000" d="m408.7823 220.23312l0 17.513351l2.3273926 0l0 -17.513351z" fill-rule="evenodd"/><path fill="#cc0000" d="m419.2298 224.77274c-0.7154846 0 -1.3864136 0.08627319 -2.0127869 0.25883484c-0.62353516 0.16990662 -1.1163025 0.37831116 -1.4783325 0.62519836c-0.48272705 0.318573 -0.8648987 0.71943665 -1.1464844 1.202591c-0.27871704 0.48051453 -0.4180603 1.0034943 -0.4180603 1.5689545c0 0.6212158 0.16952515 1.189331 0.50857544 1.704361c0.34191895 0.5123596 0.8418884 0.9145508 1.4998779 1.2065735c0.6608887 0.28936768 1.844696 0.63316345 3.5514832 1.0313721c1.2671509 0.29467773 2.0601807 0.5375824 2.3791199 0.72872925c0.45687866 0.27874756 0.68530273 0.661026 0.68530273 1.1468506c0 0.54156494 -0.25860596 1.0141144 -0.77578735 1.417633c-0.5172119 0.40086365 -1.3102722 0.6013031 -2.3791504 0.6013031c-1.0602722 0 -1.8863525 -0.22698975 -2.4782715 -0.680954c-0.5890198 -0.45394897 -0.94821167 -1.1070251 -1.0775146 -1.959198l-2.3015442 0.33450317c0.25860596 1.3459473 0.8548279 2.3613892 1.7886658 3.0463257c0.93670654 0.68492126 2.2972412 1.0273743 4.081604 1.0273743c1.0774841 0 2.0429382 -0.17254639 2.8963318 -0.5176697c0.85339355 -0.34777832 1.5056458 -0.8375702 1.9567566 -1.4694061c0.4539795 -0.6344757 0.68096924 -1.3101196 0.68096924 -2.0269012c0 -0.73269653 -0.18530273 -1.3459473 -0.55596924 -1.8397369c-0.3706665 -0.4937744 -0.8821411 -0.86943054 -1.5343933 -1.1269379c-0.649353 -0.26016235 -1.7972717 -0.593338 -3.443695 -0.9995117c-1.1378479 -0.28671265 -1.8231506 -0.4698944 -2.0559082 -0.54953c-0.40512085 -0.15132141 -0.70251465 -0.34246826 -0.8921509 -0.5734253c-0.18966675 -0.22299194 -0.28448486 -0.47387695 -0.28448486 -0.7526245c0 -0.43803406 0.22845459 -0.8203125 0.68530273 -1.1468506c0.45687866 -0.32652283 1.2197571 -0.48979187 2.2886353 -0.48979187c0.90509033 0 1.6047668 0.1831665 2.0989685 0.54953c0.49710083 0.36634827 0.7973633 0.8760681 0.9008179 1.529129l2.2756958 -0.28671265c-0.14654541 -0.8203125 -0.41375732 -1.4747162 -0.80166626 -1.9631805c-0.38790894 -0.49113464 -0.98986816 -0.88005066 -1.8059082 -1.1667633c-0.8131714 -0.28671265 -1.7584839 -0.43006897 -2.8359985 -0.43006897z" fill-rule="evenodd"/><path fill="#cc0000" d="m433.621 226.5408c1.1809387 0 2.1420898 0.4141388 2.8833923 1.2424164c0.48272705 0.53359985 0.7758179 1.3340149 0.87924194 2.4012146l-7.6675415 0c0.07757568 -1.1070251 0.4798584 -1.9910583 1.2068176 -2.6520844c0.7298279 -0.66104126 1.6291809 -0.99154663 2.6980896 -0.99154663zm-0.025878906 -1.7680664c-1.8963928 0 -3.439392 0.58935547 -4.6289673 1.7680664c-1.1895752 1.1786957 -1.7843628 2.835266 -1.7843628 4.969681c0 2.0627441 0.58761597 3.6661987 1.7628174 4.8103943c1.1780701 1.1415405 2.7713318 1.7123108 4.7798157 1.7123108c1.5947266 0 2.9049683 -0.35838318 3.9307556 -1.0751648c1.0257874 -0.7167816 1.7283325 -1.7242584 2.107605 -3.0224304l-2.4049988 -0.274765c-0.35342407 0.90792847 -0.83184814 1.5689545 -1.4352417 1.9830933c-0.60339355 0.4141388 -1.3317871 0.6212158 -2.1851807 0.6212158c-1.1464844 0 -2.103302 -0.37034607 -2.8704834 -1.111023c-0.7671814 -0.7406616 -1.1938782 -1.8078766 -1.2800903 -3.2016144l10.240631 0c0.008636475 -0.2548523 0.012939453 -0.44599915 0.012939453 -0.5734253c0 -2.0946045 -0.58184814 -3.7192993 -1.7455444 -4.874115c-1.1637268 -1.1548157 -2.6636047 -1.7322235 -4.499695 -1.7322235z" fill-rule="evenodd"/><path fill="#cfe2f3" d="m475.55 227.95801l62.84503 0l0 0c8.232849 0 14.906921 9.391449 14.906921 20.97638c0 11.58493 -6.6740723 20.97638 -14.906921 20.97638l-62.84503 0l0 0c-8.23288 0 -14.906952 -9.391449 -14.906952 -20.97638c0 -11.58493 6.6740723 -20.97638 14.906952 -20.97638z" fill-rule="evenodd"/><path stroke="#3c78d8" stroke-width="2.0" stroke-linejoin="round" stroke-linecap="butt" d="m475.55 227.95801l62.84503 0l0 0c8.232849 0 14.906921 9.391449 14.906921 20.97638c0 11.58493 -6.6740723 20.97638 -14.906921 20.97638l-62.84503 0l0 0c-8.23288 0 -14.906952 -9.391449 -14.906952 -20.97638c0 -11.58493 6.6740723 -20.97638 14.906952 -20.97638z" fill-rule="evenodd"/><path fill="#000000" d="m487.71982 253.08876l2.5625 -0.390625q0.171875 0.75 0.671875 1.140625q0.5 0.390625 1.40625 0.390625q0.984375 0 1.484375 -0.375q0.34375 -0.25 0.34375 -0.671875q0 -0.296875 -0.1875 -0.484375q-0.1875 -0.1875 -0.859375 -0.34375q-3.09375 -0.6875 -3.921875 -1.25q-1.140625 -0.78125 -1.140625 -2.171875q0 -1.265625 0.984375 -2.109375q1.0 -0.859375 3.078125 -0.859375q1.984375 0 2.953125 0.65625q0.96875 0.640625 1.328125 1.90625l-2.40625 0.4375q-0.15625 -0.5625 -0.59375 -0.859375q-0.421875 -0.296875 -1.234375 -0.296875q-1.0 0 -1.4375 0.28125q-0.296875 0.203125 -0.296875 0.515625q0 0.265625 0.25 0.46875q0.34375 0.25 2.390625 0.71875q2.046875 0.453125 2.859375 1.140625q0.796875 0.671875 0.796875 1.890625q0 1.34375 -1.109375 2.296875q-1.109375 0.95310974 -3.28125 0.95310974q-1.984375 0 -3.140625 -0.79685974q-1.140625 -0.8125 -1.5 -2.1875zm15.719452 -6.90625l0 2.03125l-1.75 0l0 3.90625q0 1.1875 0.046875 1.390625q0.046875 0.1875 0.21875 0.3125q0.1875 0.125 0.4375 0.125q0.359375 0 1.03125 -0.25l0.21875 2.0q-0.890625 0.37498474 -2.015625 0.37498474q-0.703125 0 -1.265625 -0.23435974q-0.546875 -0.234375 -0.8125 -0.59375q-0.25 -0.375 -0.34375 -1.0q-0.09375 -0.453125 -0.09375 -1.8125l0 -4.21875l-1.171875 0l0 -2.03125l1.171875 0l0 -1.921875l2.578125 -1.5l0 3.421875l1.75 0zm1.181427 4.703125q0 -1.28125 0.625 -2.46875q0.625 -1.203125 1.78125 -1.828125q1.15625 -0.625 2.578125 -0.625q2.1875 0 3.5937805 1.421875q1.40625 1.421875 1.40625 3.609375q0 2.1875 -1.421875 3.640625q-1.4219055 1.4374847 -3.5625305 1.4374847q-1.328125 0 -2.546875 -0.59373474q-1.203125 -0.609375 -1.828125 -1.765625q-0.625 -1.171875 -0.625 -2.828125zm2.625 0.125q0 1.453125 0.671875 2.21875q0.6875 0.75 1.6875 0.75q1.0 0 1.671875 -0.75q0.6875 -0.765625 0.6875 -2.234375q0 -1.421875 -0.6875 -2.1875q-0.671875 -0.765625 -1.671875 -0.765625q-1.0 0 -1.6875 0.765625q-0.671875 0.765625 -0.671875 2.203125zm9.286591 -4.828125l2.390625 0l0 1.421875q0.46875 -0.734375 1.25 -1.1875q0.796875 -0.453125 1.765625 -0.453125q1.6875 0 2.859375 1.328125q1.171875 1.3125 1.171875 3.671875q0 2.421875 -1.1875 3.765625q-1.1875 1.3437347 -2.859375 1.3437347q-0.8125 0 -1.46875 -0.31248474q-0.640625 -0.328125 -1.359375 -1.09375l0 4.8749847l-2.5625 0l0 -13.35936zm2.53125 4.671875q0 1.625 0.640625 2.40625q0.65625 0.78125 1.578125 0.78125q0.90625 0 1.484375 -0.71875q0.59375 -0.71875 0.59375 -2.34375q0 -1.515625 -0.609375 -2.25q-0.609375 -0.75 -1.515625 -0.75q-0.9375 0 -1.5625 0.734375q-0.609375 0.71875 -0.609375 2.140625z" fill-rule="nonzero"/><path fill="#cfe2f3" d="m178.51968 394.6168l159.9685 0l0 47.905518l-159.9685 0z" fill-rule="evenodd"/><path stroke="#3c78d8" stroke-width="2.0" stroke-linejoin="round" stroke-linecap="butt" d="m178.51968 394.6168l159.9685 0l0 47.905518l-159.9685 0z" fill-rule="evenodd"/><path fill="#000000" d="m193.87027 425.48956l-2.5625 0l0 -9.671875l2.375 0l0 1.375q0.609375 -0.984375 1.09375 -1.28125q0.484375 -0.3125 1.109375 -0.3125q0.875 0 1.6875 0.484375l-0.796875 2.234375q-0.640625 -0.421875 -1.203125 -0.421875q-0.53125 0 -0.90625 0.296875q-0.375 0.296875 -0.59375 1.078125q-0.203125 0.765625 -0.203125 3.234375l0 2.984375zm10.400894 -3.078125l2.546875 0.421875q-0.484375 1.40625 -1.546875 2.140625q-1.0625 0.734375 -2.65625 0.734375q-2.515625 0 -3.734375 -1.65625q-0.953125 -1.3125 -0.953125 -3.328125q0 -2.40625 1.25 -3.765625q1.265625 -1.359375 3.1875 -1.359375q2.15625 0 3.40625 1.421875q1.25 1.421875 1.1875 4.375l-6.40625 0q0.03125 1.140625 0.609375 1.78125q0.59375 0.625 1.484375 0.625q0.59375 0 1.0 -0.328125q0.421875 -0.328125 0.625 -1.0625zm0.15625 -2.59375q-0.03125 -1.109375 -0.578125 -1.6875q-0.546875 -0.578125 -1.328125 -0.578125q-0.84375 0 -1.390625 0.609375q-0.546875 0.609375 -0.53125 1.65625l3.828125 0zm4.547592 -4.0l2.390625 0l0 1.421875q0.46875 -0.734375 1.25 -1.1875q0.796875 -0.453125 1.765625 -0.453125q1.6875 0 2.859375 1.328125q1.171875 1.3125 1.171875 3.671875q0 2.421875 -1.1875 3.765625q-1.1875 1.34375 -2.859375 1.34375q-0.8125 0 -1.46875 -0.3125q-0.640625 -0.328125 -1.359375 -1.09375l0 4.875l-2.5625 0l0 -13.359375zm2.53125 4.671875q0 1.625 0.640625 2.40625q0.65625 0.78125 1.578125 0.78125q0.90625 0 1.484375 -0.71875q0.59375 -0.71875 0.59375 -2.34375q0 -1.515625 -0.609375 -2.25q-0.609375 -0.75 -1.515625 -0.75q-0.9375 0 -1.5625 0.734375q-0.609375 0.71875 -0.609375 2.140625zm14.536606 1.921875l2.546875 0.421875q-0.484375 1.40625 -1.546875 2.140625q-1.0625 0.734375 -2.65625 0.734375q-2.515625 0 -3.734375 -1.65625q-0.953125 -1.3125 -0.953125 -3.328125q0 -2.40625 1.25 -3.765625q1.265625 -1.359375 3.1875 -1.359375q2.15625 0 3.40625 1.421875q1.25 1.421875 1.1875 4.375l-6.40625 0q0.03125 1.140625 0.609375 1.78125q0.59375 0.625 1.484375 0.625q0.59375 0 1.0 -0.328125q0.421875 -0.328125 0.625 -1.0625zm0.15625 -2.59375q-0.03125 -1.109375 -0.578125 -1.6875q-0.546875 -0.578125 -1.328125 -0.578125q-0.84375 0 -1.390625 0.609375q-0.546875 0.609375 -0.53125 1.65625l3.828125 0zm9.063217 -4.0l0 2.03125l-1.75 0l0 3.90625q0 1.1875 0.046875 1.390625q0.046875 0.1875 0.21875 0.3125q0.1875 0.125 0.4375 0.125q0.359375 0 1.03125 -0.25l0.21875 2.0q-0.890625 0.375 -2.015625 0.375q-0.703125 0 -1.265625 -0.234375q-0.546875 -0.234375 -0.8125 -0.59375q-0.25 -0.375 -0.34375 -1.0q-0.09375 -0.453125 -0.09375 -1.8125l0 -4.21875l-1.171875 0l0 -2.03125l1.171875 0l0 -1.921875l2.578125 -1.5l0 3.421875l1.75 0zm1.775177 -1.3125l0 -2.375l2.5625 0l0 2.375l-2.5625 0zm0 10.984375l0 -9.671875l2.5625 0l0 9.671875l-2.5625 0zm9.620804 -9.671875l0 2.03125l-1.75 0l0 3.90625q0 1.1875 0.046875 1.390625q0.046875 0.1875 0.21875 0.3125q0.1875 0.125 0.4375 0.125q0.359375 0 1.03125 -0.25l0.21875 2.0q-0.890625 0.375 -2.015625 0.375q-0.703125 0 -1.265625 -0.234375q-0.546875 -0.234375 -0.8125 -0.59375q-0.25 -0.375 -0.34375 -1.0q-0.09375 -0.453125 -0.09375 -1.8125l0 -4.21875l-1.171875 0l0 -2.03125l1.171875 0l0 -1.921875l2.578125 -1.5l0 3.421875l1.75 0zm1.775177 -1.3125l0 -2.375l2.5625 0l0 2.375l-2.5625 0zm0 10.984375l0 -9.671875l2.5625 0l0 9.671875l-2.5625 0zm7.839554 0l-3.90625 -9.671875l2.6875 0l1.828125 4.9375l0.53125 1.640625q0.203125 -0.625 0.265625 -0.828125q0.125 -0.40625 0.265625 -0.8125l1.84375 -4.9375l2.625 0l-3.84375 9.671875l-2.296875 0zm13.313232 -3.078125l2.546875 0.421875q-0.484375 1.40625 -1.546875 2.140625q-1.0625 0.734375 -2.65625 0.734375q-2.515625 0 -3.734375 -1.65625q-0.953125 -1.3125 -0.953125 -3.328125q0 -2.40625 1.25 -3.765625q1.265625 -1.359375 3.1875 -1.359375q2.15625 0 3.40625 1.421875q1.25 1.421875 1.1875 4.375l-6.40625 0q0.03125 1.140625 0.609375 1.78125q0.59375 0.625 1.484375 0.625q0.59375 0 1.0 -0.328125q0.421875 -0.328125 0.625 -1.0625zm0.15625 -2.59375q-0.03125 -1.109375 -0.578125 -1.6875q-0.546875 -0.578125 -1.328125 -0.578125q-0.84375 0 -1.390625 0.609375q-0.546875 0.609375 -0.53125 1.65625l3.828125 0zm9.699646 5.671875l0 -13.359375l2.5625 0l0 4.8125q1.171875 -1.34375 2.796875 -1.34375q1.765625 0 2.921875 1.28125q1.15625 1.28125 1.15625 3.671875q0 2.484375 -1.1875 3.828125q-1.171875 1.328125 -2.859375 1.328125q-0.828125 0 -1.640625 -0.40625q-0.796875 -0.421875 -1.375 -1.234375l0 1.421875l-2.375 0zm2.53125 -5.046875q0 1.5 0.484375 2.21875q0.65625 1.03125 1.765625 1.03125q0.84375 0 1.4375 -0.71875q0.59375 -0.734375 0.59375 -2.296875q0 -1.65625 -0.609375 -2.390625q-0.59375 -0.734375 -1.53125 -0.734375q-0.921875 0 -1.53125 0.71875q-0.609375 0.71875 -0.609375 2.171875zm8.974091 5.046875l0 -13.359375l2.5625 0l0 13.359375l-2.5625 0zm4.589569 -4.96875q0 -1.28125 0.625 -2.46875q0.625 -1.203125 1.78125 -1.828125q1.15625 -0.625 2.578125 -0.625q2.1875 0 3.59375 1.421875q1.40625 1.421875 1.40625 3.609375q0 2.1875 -1.421875 3.640625q-1.421875 1.4375 -3.5625 1.4375q-1.328125 0 -2.546875 -0.59375q-1.203125 -0.609375 -1.828125 -1.765625q-0.625 -1.171875 -0.625 -2.828125zm2.625 0.125q0 1.453125 0.671875 2.21875q0.6875 0.75 1.6875 0.75q1.0 0 1.671875 -0.75q0.6875 -0.765625 0.6875 -2.234375q0 -1.421875 -0.6875 -2.1875q-0.671875 -0.765625 -1.671875 -0.765625q-1.0 0 -1.6875 0.765625q-0.671875 0.765625 -0.671875 2.203125zm17.802216 -1.96875l-2.53125 0.453125q-0.125 -0.75 -0.578125 -1.125q-0.453125 -0.390625 -1.171875 -0.390625q-0.953125 0 -1.53125 0.65625q-0.5625 0.65625 -0.5625 2.203125q0 1.734375 0.578125 2.4375q0.578125 0.703125 1.546875 0.703125q0.734375 0 1.203125 -0.40625q0.46875 -0.421875 0.65625 -1.421875l2.515625 0.421875q-0.390625 1.734375 -1.515625 2.625q-1.109375 0.875 -2.96875 0.875q-2.125 0 -3.390625 -1.328125q-1.25 -1.34375 -1.25 -3.71875q0 -2.390625 1.265625 -3.71875q1.265625 -1.34375 3.421875 -1.34375q1.765625 0 2.796875 0.765625q1.046875 0.75 1.515625 2.3125zm1.8444824 6.8125l0 -13.359375l2.5625 0l0 7.09375l3.0 -3.40625l3.140625 0l-3.296875 3.53125l3.53125 6.140625l-2.75 0l-2.4375 -4.34375l-1.1875 1.25l0 3.09375l-2.5625 0z" fill-rule="nonzero"/><path fill="#ffd966" d="m62.23622 138.04726l27.891861 -23.952759l83.6756 0l27.891861 23.952759l-27.891861 23.952744l-83.6756 0z" fill-rule="evenodd"/><path stroke="#bf9000" stroke-width="2.0" stroke-linejoin="round" stroke-linecap="butt" d="m62.23622 138.04726l27.891861 -23.952759l83.6756 0l27.891861 23.952759l-27.891861 23.952744l-83.6756 0z" fill-rule="evenodd"/><path fill="#000000" d="m119.75017 135.29538l1.421875 0l0 -0.734375q0 -1.21875 0.25 -1.8125q0.265625 -0.609375 0.953125 -0.984375q0.703125 -0.375 1.78125 -0.375q1.09375 0 2.140625 0.328125l-0.359375 1.78125q-0.609375 -0.140625 -1.171875 -0.140625q-0.546875 0 -0.796875 0.265625q-0.234375 0.25 -0.234375 0.984375l0 0.6875l1.90625 0l0 2.015625l-1.90625 0l0 7.65625l-2.5625 0l0 -7.65625l-1.421875 0l0 -2.015625zm6.743927 4.703125q0 -1.28125 0.625 -2.46875q0.625 -1.203125 1.78125 -1.828125q1.15625 -0.625 2.578125 -0.625q2.1875 0 3.59375 1.421875q1.40625 1.421875 1.40625 3.609375q0 2.1875 -1.421875 3.640625q-1.421875 1.4375 -3.5625 1.4375q-1.328125 0 -2.546875 -0.59375q-1.203125 -0.609375 -1.828125 -1.765625q-0.625 -1.171875 -0.625 -2.828125zm2.625 0.125q0 1.453125 0.671875 2.21875q0.6875 0.75 1.6875 0.75q1.0 0 1.671875 -0.75q0.6875 -0.765625 0.6875 -2.234375q0 -1.421875 -0.6875 -2.1875q-0.671875 -0.765625 -1.671875 -0.765625q-1.0 0 -1.6875 0.765625q-0.671875 0.765625 -0.671875 2.203125zm11.817856 4.84375l-2.5625 0l0 -9.671875l2.375 0l0 1.375q0.609375 -0.984375 1.09375 -1.28125q0.484375 -0.3125 1.109375 -0.3125q0.875 0 1.6875 0.484375l-0.796875 2.234375q-0.640625 -0.421875 -1.203125 -0.421875q-0.53125 0 -0.90625 0.296875q-0.375 0.296875 -0.59375 1.078125q-0.203125 0.765625 -0.203125 3.234375l0 2.984375z" fill-rule="nonzero"/><path fill="#000000" fill-opacity="0.0" d="m201.69554 138.04726l56.818893 0l0 77.03937" fill-rule="evenodd"/><path stroke="#efefef" stroke-width="2.0" stroke-linejoin="round" stroke-linecap="butt" d="m201.69554 138.04726l56.818893 0l0 70.185196" fill-rule="evenodd"/><path fill="#efefef" stroke="#efefef" stroke-width="2.0" stroke-linecap="butt" d="m258.51443 208.23244l-2.249176 -2.2491608l2.249176 6.179535l2.249176 -6.179535z" fill-rule="evenodd"/></g></svg>