<svg version="1.1" viewBox="0.0 0.0 384.0 384.0" fill="none" stroke="none" stroke-linecap="square" stroke-miterlimit="10" xmlns:xlink="http://www.w3.org/1999/xlink" xmlns="http://www.w3.org/2000/svg"><clipPath id="p.0"><path d="m0 0l384.0 0l0 384.0l-384.0 0l0 -384.0z" clip-rule="nonzero"/></clipPath><g clip-path="url(#p.0)"><path fill="#000000" fill-opacity="0.0" d="m0 0l384.0 0l0 384.0l-384.0 0z" fill-rule="evenodd"/><path fill="#434343" d="m0.17093754 0.30742046l384.0 0l0 384.0l-384.0 0z" fill-rule="evenodd"/><path stroke="#000000" stroke-width="1.0" stroke-linejoin="round" stroke-linecap="butt" d="m0.17093754 0.30742046l384.0 0l0 384.0l-384.0 0z" fill-rule="evenodd"/><path fill="#f6b26b" d="m215.84982 258.8592l68.26773 -34.03151l68.2677 34.03151l-68.2677 34.031494z" fill-rule="evenodd"/><path stroke="#b45f06" stroke-width="2.0" stroke-linejoin="round" stroke-linecap="butt" d="m215.84982 258.8592l68.26773 -34.03151l68.2677 34.03151l-68.2677 34.031494z" fill-rule="evenodd"/><path fill="#000000" d="m263.8324 255.21918l0 -11.453125l2.1875 0l0 4.125q1.015625 -1.15625 2.40625 -1.15625q1.515625 0 2.5 1.09375q1.0 1.09375 1.0 3.15625q0 2.125 -1.015625 3.28125q-1.0 1.140625 -2.453125 1.140625q-0.703125 0 -1.40625 -0.359375q-0.6875 -0.359375 -1.1875 -1.046875l0 1.21875l-2.03125 0zm2.171875 -4.328125q0 1.28125 0.40625 1.90625q0.578125 0.875 1.515625 0.875q0.734375 0 1.234375 -0.625q0.515625 -0.625 0.515625 -1.953125q0 -1.421875 -0.515625 -2.046875q-0.515625 -0.640625 -1.3125 -0.640625q-0.796875 0 -1.328125 0.625q-0.515625 0.609375 -0.515625 1.859375zm9.7890625 4.328125l-2.1875 0l0 -8.296875l2.03125 0l0 1.171875q0.53125 -0.828125 0.9375 -1.09375q0.421875 -0.265625 0.953125 -0.265625q0.75 0 1.453125 0.40625l-0.6875 1.921875q-0.546875 -0.359375 -1.03125 -0.359375q-0.453125 0 -0.78125 0.25q-0.3125 0.25 -0.5 0.921875q-0.1875 0.65625 -0.1875 2.78125l0 2.5625zm8.9296875 -2.640625l2.1875 0.359375q-0.421875 1.203125 -1.328125 1.84375q-0.90625 0.625 -2.28125 0.625q-2.15625 0 -3.203125 -1.421875q-0.8125 -1.125 -0.8125 -2.859375q0 -2.0625 1.078125 -3.21875q1.078125 -1.171875 2.71875 -1.171875q1.859375 0 2.921875 1.21875q1.078125 1.21875 1.03125 3.75l-5.5 0q0.015625 0.96875 0.515625 1.515625q0.515625 0.546875 1.28125 0.546875q0.515625 0 0.859375 -0.28125q0.359375 -0.28125 0.53125 -0.90625zm0.125 -2.21875q-0.015625 -0.953125 -0.484375 -1.453125q-0.46875 -0.5 -1.140625 -0.5q-0.71875 0 -1.1875 0.53125q-0.46875 0.515625 -0.46875 1.421875l3.28125 0zm5.6171875 -0.90625l-2.0 -0.359375q0.34375 -1.203125 1.15625 -1.78125q0.828125 -0.578125 2.4375 -0.578125q1.46875 0 2.1875 0.34375q0.71875 0.34375 1.015625 0.890625q0.296875 0.53125 0.296875 1.953125l-0.03125 2.5625q0 1.09375 0.109375 1.625q0.109375 0.515625 0.390625 1.109375l-2.171875 0q-0.078125 -0.21875 -0.203125 -0.65625q-0.0625 -0.1875 -0.078125 -0.25q-0.5625 0.546875 -1.203125 0.828125q-0.640625 0.265625 -1.375 0.265625q-1.28125 0 -2.015625 -0.6875q-0.734375 -0.703125 -0.734375 -1.765625q0 -0.703125 0.328125 -1.25q0.34375 -0.5625 0.9375 -0.84375q0.609375 -0.296875 1.75 -0.515625q1.546875 -0.296875 2.140625 -0.546875l0 -0.21875q0 -0.625 -0.3125 -0.890625q-0.3125 -0.28125 -1.1875 -0.28125q-0.578125 0 -0.90625 0.234375q-0.328125 0.234375 -0.53125 0.8125zm2.9375 1.78125q-0.421875 0.140625 -1.34375 0.34375q-0.90625 0.1875 -1.1875 0.375q-0.4375 0.296875 -0.4375 0.765625q0 0.46875 0.34375 0.8125q0.34375 0.328125 0.875 0.328125q0.59375 0 1.140625 -0.390625q0.390625 -0.296875 0.515625 -0.734375q0.09375 -0.28125 0.09375 -1.0625l0 -0.4375zm4.2421875 3.984375l0 -11.453125l2.1875 0l0 6.078125l2.578125 -2.921875l2.703125 0l-2.84375 3.03125l3.046875 5.265625l-2.375 0l-2.078125 -3.734375l-1.03125 1.078125l0 2.65625l-2.1875 0z" fill-rule="nonzero"/><path fill="#000000" d="m285.10583 271.26605l-2.0 0q0 -0.4375 0 -0.53125q0 -0.96875 0.3125 -1.59375q0.328125 -0.625 1.28125 -1.40625q0.96875 -0.78125 1.15625 -1.015625q0.28125 -0.390625 0.28125 -0.84375q0 -0.640625 -0.515625 -1.09375q-0.5 -0.46875 -1.375 -0.46875q-0.828125 0 -1.390625 0.484375q-0.5625 0.46875 -0.78125 1.453125l-2.015625 -0.25q0.09375 -1.40625 1.1875 -2.375q1.109375 -0.984375 2.90625 -0.984375q1.890625 0 3.0 1.0q1.125 0.984375 1.125 2.296875q0 0.71875 -0.40625 1.375q-0.40625 0.640625 -1.75 1.765625q-0.703125 0.578125 -0.875 0.9375q-0.15625 0.34375 -0.140625 1.25zm-2.0 2.953125l0 -2.203125l2.203125 0l0 2.203125l-2.203125 0z" fill-rule="nonzero"/><path fill="#cfe2f3" d="m167.75015 9.207349l60.976303 0l0 0c7.9880524 0 14.463654 7.527116 14.463654 16.812283c0 9.28517 -6.475601 16.812284 -14.463654 16.812284l-60.976303 0l0 0c-7.9880524 0 -14.463654 -7.527115 -14.463654 -16.812284c0 -9.285168 6.475601 -16.812283 14.463654 -16.812283z" fill-rule="evenodd"/><path stroke="#3c78d8" stroke-width="2.0" stroke-linejoin="round" stroke-linecap="butt" d="m167.75015 9.207349l60.976303 0l0 0c7.9880524 0 14.463654 7.527116 14.463654 16.812283c0 9.28517 -6.475601 16.812284 -14.463654 16.812284l-60.976303 0l0 0c-7.9880524 0 -14.463654 -7.527115 -14.463654 -16.812284c0 -9.285168 6.475601 -16.812283 14.463654 -16.812283z" fill-rule="evenodd"/><path fill="#000000" d="m180.58987 28.145256l2.25 -0.21875q0.203125 1.140625 0.828125 1.671875q0.625 0.53125 1.671875 0.53125q1.125 0 1.6875 -0.46875q0.5625 -0.484375 0.5625 -1.109375q0 -0.40625 -0.234375 -0.6875q-0.234375 -0.296875 -0.828125 -0.5q-0.40625 -0.140625 -1.859375 -0.5q-1.859375 -0.46875 -2.609375 -1.140625q-1.046875 -0.9375 -1.046875 -2.296875q0 -0.875 0.484375 -1.640625q0.5 -0.765625 1.4375 -1.15625q0.9375 -0.40625 2.25 -0.40625q2.15625 0 3.25 0.953125q1.09375 0.9375 1.140625 2.515625l-2.3125 0.109375q-0.140625 -0.890625 -0.640625 -1.265625q-0.484375 -0.390625 -1.453125 -0.390625q-1.015625 0 -1.578125 0.40625q-0.375 0.265625 -0.375 0.71875q0 0.40625 0.34375 0.6875q0.4375 0.375 2.125 0.78125q1.6875 0.390625 2.5 0.8125q0.8125 0.421875 1.265625 1.171875q0.453125 0.734375 0.453125 1.8125q0 0.984375 -0.546875 1.84375q-0.546875 0.859375 -1.546875 1.28125q-1.0 0.421875 -2.484375 0.421875q-2.171875 0 -3.34375 -1.0q-1.15625 -1.015625 -1.390625 -2.9375zm15.046875 -4.5625l0 1.75l-1.5 0l0 3.34375q0 1.015625 0.046875 1.1875q0.046875 0.15625 0.1875 0.265625q0.15625 0.109375 0.375 0.109375q0.3125 0 0.890625 -0.203125l0.1875 1.703125q-0.765625 0.328125 -1.734375 0.328125q-0.59375 0 -1.078125 -0.203125q-0.46875 -0.203125 -0.703125 -0.515625q-0.21875 -0.3125 -0.296875 -0.859375q-0.078125 -0.375 -0.078125 -1.546875l0 -3.609375l-1.0 0l0 -1.75l1.0 0l0 -1.65625l2.203125 -1.28125l0 2.9375l1.5 0zm3.171875 2.53125l-2.0 -0.359375q0.34375 -1.203125 1.15625 -1.78125q0.828125 -0.578125 2.4375 -0.578125q1.46875 0 2.1875 0.34375q0.71875 0.34375 1.015625 0.890625q0.296875 0.53125 0.296875 1.953125l-0.03125 2.5625q0 1.09375 0.109375 1.625q0.109375 0.515625 0.390625 1.109375l-2.171875 0q-0.078125 -0.21875 -0.203125 -0.65625q-0.0625 -0.1875 -0.078125 -0.25q-0.5625 0.546875 -1.203125 0.828125q-0.640625 0.265625 -1.375 0.265625q-1.28125 0 -2.015625 -0.6875q-0.734375 -0.703125 -0.734375 -1.765625q0 -0.703125 0.328125 -1.25q0.34375 -0.5625 0.9375 -0.84375q0.609375 -0.296875 1.75 -0.515625q1.546875 -0.296875 2.140625 -0.546875l0 -0.21875q0 -0.625 -0.3125 -0.890625q-0.3125 -0.28125 -1.1875 -0.28125q-0.578125 0 -0.90625 0.234375q-0.328125 0.234375 -0.53125 0.8125zm2.9375 1.78125q-0.421875 0.140625 -1.34375 0.34375q-0.90625 0.1875 -1.1875 0.375q-0.4375 0.296875 -0.4375 0.765625q0 0.46875 0.34375 0.8125q0.34375 0.328125 0.875 0.328125q0.59375 0 1.140625 -0.390625q0.390625 -0.296875 0.515625 -0.734375q0.09375 -0.28125 0.09375 -1.0625l0 -0.4375zm6.4140625 3.984375l-2.1875 0l0 -8.296875l2.03125 0l0 1.171875q0.53125 -0.828125 0.9375 -1.09375q0.421875 -0.265625 0.953125 -0.265625q0.75 0 1.453125 0.40625l-0.6875 1.921875q-0.546875 -0.359375 -1.03125 -0.359375q-0.453125 0 -0.78125 0.25q-0.3125 0.25 -0.5 0.921875q-0.1875 0.65625 -0.1875 2.78125l0 2.5625zm7.9296875 -8.296875l0 1.75l-1.5 0l0 3.34375q0 1.015625 0.046875 1.1875q0.046875 0.15625 0.1875 0.265625q0.15625 0.109375 0.375 0.109375q0.3125 0 0.890625 -0.203125l0.1875 1.703125q-0.765625 0.328125 -1.734375 0.328125q-0.59375 0 -1.078125 -0.203125q-0.46875 -0.203125 -0.703125 -0.515625q-0.21875 -0.3125 -0.296875 -0.859375q-0.078125 -0.375 -0.078125 -1.546875l0 -3.609375l-1.0 0l0 -1.75l1.0 0l0 -1.65625l2.203125 -1.28125l0 2.9375l1.5 0z" fill-rule="nonzero"/><path fill="#d9d9d9" d="m309.4124 300.95667l-10.963623 4.21402c-0.19918823 -0.076660156 -0.3503418 -0.13244629 -0.45336914 -0.16729736c-0.73501587 -0.26489258 -1.195282 -0.456604 -1.3807678 -0.57510376c-0.24728394 -0.16033936 -0.43963623 -0.3659973 -0.57702637 -0.61694336c-0.13739014 -0.25097656 -0.2060852 -0.5855713 -0.2060852 -1.0038452c0 -0.30673218 0.05496216 -0.66574097 0.16488647 -1.0770264l0 0l-1.7414246 0.20913696c-0.15112305 0.44613647 -0.22668457 0.85046387 -0.22668457 1.2129517c0 0.5995178 0.14312744 1.115387 0.4293518 1.5476074c0.28393555 0.43218994 0.7315979 0.8156128 1.3429565 1.1502075c0.45339966 0.25097656 1.2811584 0.6029968 2.483307 1.0561218l11.128479 4.2244873l0 -1.8822021l-6.3782654 -2.3736572c-0.8106079 -0.29974365 -1.6417847 -0.5576782 -2.4935913 -0.7737732c0.8861389 -0.23703003 1.7310791 -0.5054016 2.5348206 -0.8051758l6.337036 -2.310913z" fill-rule="evenodd"/><path fill="#d9d9d9" d="m308.1347 317.31088c0 0.9550171 -0.35720825 1.7322998 -1.0716248 2.3318176c-0.4602661 0.39038086 -1.1506348 0.6274109 -2.0711365 0.7110596l0 -6.2008057c0.954834 0.06274414 1.7173462 0.38806152 2.287506 0.97595215c0.5701599 0.5902405 0.8552551 1.3175354 0.8552551 2.1819763zm1.5249939 -0.020935059c0 -1.5336304 -0.5083313 -2.7814636 -1.5249939 -3.7434692c-1.0166931 -0.9620056 -2.4455261 -1.4430237 -4.2865295 -1.4430237c-1.7791748 0 -3.1622314 0.4751892 -4.1491394 1.4255981c-0.98461914 0.9527283 -1.4769287 2.241211 -1.4769287 3.8654785c0 1.2896423 0.30914307 2.3492432 0.92736816 3.1788025c0.6182556 0.82958984 1.4872437 1.3977356 2.606964 1.7044373l0.23699951 -1.9449158c-0.7831116 -0.28582764 -1.353302 -0.6727295 -1.7105103 -1.1607056c-0.35720825 -0.48797607 -0.5357971 -1.0770264 -0.5357971 -1.7671814c0 -0.92715454 0.3194275 -1.7009277 0.9582825 -2.32135c0.638855 -0.6204529 1.5593567 -0.96551514 2.7615051 -1.0352173l0 8.281677c0.21981812 0.006958008 0.3847046 0.010437012 0.4945984 0.010437012c1.8066711 0 3.2080383 -0.47055054 4.2041016 -1.4116516c0.99606323 -0.9411011 1.4940796 -2.1540527 1.4940796 -3.638916z" fill-rule="evenodd"/><path fill="#d9d9d9" d="m309.6597 328.29034c0 -0.57858276 -0.074401855 -1.1211853 -0.22323608 -1.6277466c-0.14654541 -0.50424194 -0.32629395 -0.9027405 -0.5392456 -1.1955261c-0.27478027 -0.39038086 -0.62054443 -0.6994324 -1.0372925 -0.92715454c-0.41445923 -0.22540283 -0.86553955 -0.33810425 -1.3532715 -0.33810425c-0.53582764 0 -1.0258484 0.13708496 -1.4700623 0.4112854c-0.44192505 0.27651978 -0.7888489 0.68084717 -1.0407104 1.2129822c-0.24960327 0.53445435 -0.5461426 1.4918213 -0.8896179 2.8721008c-0.2541504 1.0247498 -0.46368408 1.6660767 -0.62854004 1.9240112c-0.24041748 0.36947632 -0.5701599 0.5541992 -0.9891968 0.5541992c-0.46713257 0 -0.8746948 -0.20913696 -1.2227478 -0.6274109c-0.34576416 -0.4182434 -0.51864624 -1.0596008 -0.51864624 -1.9240112c0 -0.8574524 0.19577026 -1.5255127 0.5873413 -2.004181c0.39154053 -0.4763794 0.954834 -0.7668457 1.6898804 -0.8713989l-0.28851318 -1.8612671c-1.1609497 0.20910645 -2.0368042 0.6912842 -2.6275635 1.4465027c-0.5907898 0.7575073 -0.88616943 1.8577881 -0.88616943 3.3008118c0 0.8713684 0.14883423 1.6521301 0.4465027 2.3422852c0.2999878 0.6901245 0.7224426 1.2176208 1.2674255 1.582428c0.5472717 0.36715698 1.1300354 0.5507202 1.7482605 0.5507202c0.6319885 0 1.1609497 -0.14987183 1.586853 -0.449646c0.42590332 -0.29974365 0.74990845 -0.7133484 0.9720154 -1.2408447c0.22439575 -0.5251465 0.5117798 -1.4534607 0.8621216 -2.7849426c0.24728394 -0.92019653 0.40530396 -1.4743958 0.47399902 -1.6626282c0.13049316 -0.32763672 0.29537964 -0.56814575 0.4945984 -0.7214966c0.19232178 -0.15335083 0.40872192 -0.2300415 0.6491394 -0.2300415c0.37783813 0 0.70755005 0.1847229 0.9891968 0.5541992c0.28164673 0.36947632 0.42248535 0.9864197 0.42248535 1.8508301c0 0.7319641 -0.1579895 1.2977905 -0.47399902 1.6974487c-0.315979 0.40200806 -0.75564575 0.6448364 -1.3189392 0.7284851l0.24731445 1.8403625c0.70755005 -0.118499756 1.2719727 -0.33459473 1.6932983 -0.6483154c0.4236145 -0.3136902 0.75909424 -0.8005066 1.0063782 -1.4604187c0.24731445 -0.6576233 0.37094116 -1.4221191 0.37094116 -2.293518z" fill-rule="evenodd"/><path fill="#cfe2f3" d="m234.88957 152.73134l92.19411 0c1.6609497 0 3.2538452 0.6598053 4.428314 1.8342743c1.174469 1.1744537 1.8342896 2.7673798 1.8342896 4.428314l0 31.31221l-98.45671 0z" fill-rule="evenodd"/><path stroke="#3c78d8" stroke-width="2.0" stroke-linejoin="round" stroke-linecap="butt" d="m234.88957 152.73134l92.19411 0c1.6609497 0 3.2538452 0.6598053 4.428314 1.8342743c1.174469 1.1744537 1.8342896 2.7673798 1.8342896 4.428314l0 31.31221l-98.45671 0z" fill-rule="evenodd"/><path fill="#000000" d="m253.68909 177.37874l0 -11.453125l8.484375 0l0 1.9375l-6.171875 0l0 2.53125l5.75 0l0 1.9375l-5.75 0l0 3.109375l6.390625 0l0 1.9375l-8.703125 0zm9.59375 0l3.0 -4.28125l-2.875 -4.015625l2.6875 0l1.46875 2.28125l1.546875 -2.28125l2.578125 0l-2.8125 3.921875l3.0625 4.375l-2.6875 0l-1.6875 -2.578125l-1.703125 2.578125l-2.578125 0zm14.7578125 -2.640625l2.1875 0.359375q-0.421875 1.203125 -1.328125 1.84375q-0.90625 0.625 -2.28125 0.625q-2.15625 0 -3.203125 -1.421875q-0.8125 -1.125 -0.8125 -2.859375q0 -2.0625 1.078125 -3.21875q1.078125 -1.171875 2.71875 -1.171875q1.859375 0 2.921875 1.21875q1.078125 1.21875 1.03125 3.75l-5.5 0q0.015625 0.96875 0.515625 1.515625q0.515625 0.546875 1.28125 0.546875q0.515625 0 0.859375 -0.28125q0.359375 -0.28125 0.53125 -0.90625zm0.125 -2.21875q-0.015625 -0.953125 -0.484375 -1.453125q-0.46875 -0.5 -1.140625 -0.5q-0.71875 0 -1.1875 0.53125q-0.46875 0.515625 -0.46875 1.421875l3.28125 0zm11.2109375 -0.984375l-2.171875 0.390625q-0.109375 -0.65625 -0.5 -0.984375q-0.375 -0.328125 -1.0 -0.328125q-0.8125 0 -1.3125 0.578125q-0.484375 0.5625 -0.484375 1.890625q0 1.46875 0.5 2.078125q0.5 0.609375 1.328125 0.609375q0.625 0 1.015625 -0.34375q0.40625 -0.359375 0.578125 -1.234375l2.15625 0.375q-0.34375 1.484375 -1.296875 2.25q-0.953125 0.75 -2.546875 0.75q-1.828125 0 -2.90625 -1.140625q-1.078125 -1.15625 -1.078125 -3.1875q0 -2.0625 1.078125 -3.203125q1.09375 -1.140625 2.9375 -1.140625q1.515625 0 2.40625 0.65625q0.90625 0.640625 1.296875 1.984375zm7.1171875 5.84375l0 -1.25q-0.453125 0.671875 -1.1875 1.0625q-0.734375 0.375 -1.5625 0.375q-0.828125 0 -1.5 -0.359375q-0.65625 -0.375 -0.953125 -1.03125q-0.296875 -0.671875 -0.296875 -1.84375l0 -5.25l2.1875 0l0 3.8125q0 1.75 0.125 2.140625q0.125 0.390625 0.4375 0.625q0.328125 0.234375 0.8125 0.234375q0.5625 0 1.0 -0.3125q0.453125 -0.3125 0.609375 -0.765625q0.171875 -0.453125 0.171875 -2.234375l0 -3.5l2.203125 0l0 8.296875l-2.046875 0zm8.1171875 -8.296875l0 1.75l-1.5 0l0 3.34375q0 1.015625 0.046875 1.1875q0.046875 0.15625 0.1875 0.265625q0.15625 0.109375 0.375 0.109375q0.3125 0 0.890625 -0.203125l0.1875 1.703125q-0.765625 0.328125 -1.734375 0.328125q-0.59375 0 -1.078125 -0.203125q-0.46875 -0.203125 -0.703125 -0.515625q-0.21875 -0.3125 -0.296875 -0.859375q-0.078125 -0.375 -0.078125 -1.546875l0 -3.609375l-1.0 0l0 -1.75l1.0 0l0 -1.65625l2.203125 -1.28125l0 2.9375l1.5 0zm6.328125 5.65625l2.1875 0.359375q-0.421875 1.203125 -1.328125 1.84375q-0.90625 0.625 -2.28125 0.625q-2.15625 0 -3.203125 -1.421875q-0.8125 -1.125 -0.8125 -2.859375q0 -2.0625 1.078125 -3.21875q1.078125 -1.171875 2.71875 -1.171875q1.859375 0 2.921875 1.21875q1.078125 1.21875 1.03125 3.75l-5.5 0q0.015625 0.96875 0.515625 1.515625q0.515625 0.546875 1.28125 0.546875q0.515625 0 0.859375 -0.28125q0.359375 -0.28125 0.53125 -0.90625zm0.125 -2.21875q-0.015625 -0.953125 -0.484375 -1.453125q-0.46875 -0.5 -1.140625 -0.5q-0.71875 0 -1.1875 0.53125q-0.46875 0.515625 -0.46875 1.421875l3.28125 0z" fill-rule="nonzero"/><path fill="#000000" fill-opacity="0.0" d="m198.23729 118.21148l0 53.322838l36.661423 0" fill-rule="evenodd"/><path stroke="#efefef" stroke-width="2.0" stroke-linejoin="round" stroke-linecap="butt" d="m198.23729 118.21148l0 53.322838l24.661407 0" fill-rule="evenodd"/><path fill="#efefef" stroke="#efefef" stroke-width="2.0" stroke-linecap="butt" d="m222.89871 174.83778l9.076187 -3.3034668l-9.076187 -3.3034668z" fill-rule="evenodd"/><path fill="#000000" fill-opacity="0.0" d="m215.84982 258.8592l-149.03937 0l0 -143.84253" fill-rule="evenodd"/><path stroke="#efefef" stroke-width="2.0" stroke-linejoin="round" stroke-linecap="butt" d="m215.84982 258.8592l-149.03937 0l0 -131.84253" fill-rule="evenodd"/><path fill="#efefef" stroke="#efefef" stroke-width="2.0" stroke-linecap="butt" d="m70.11392 127.01666l-3.3034668 -9.076195l-3.3034668 9.076195z" fill-rule="evenodd"/><path fill="#000000" fill-opacity="0.0" d="m284.11755 292.8907l0.03149414 48.283447" fill-rule="evenodd"/><path stroke="#efefef" stroke-width="2.0" stroke-linejoin="round" stroke-linecap="butt" d="m284.11752 292.8907l0.02368164 36.283478" fill-rule="evenodd"/><path fill="#efefef" stroke="#efefef" stroke-width="2.0" stroke-linecap="butt" d="m280.83774 329.1763l3.3093872 9.074036l3.2975464 -9.078339z" fill-rule="evenodd"/><path fill="#000000" fill-opacity="0.0" d="m198.23831 42.831917l0 16.800797l0.06298828 0l0 16.805504" fill-rule="evenodd"/><path stroke="#efefef" stroke-width="2.0" stroke-linejoin="round" stroke-linecap="butt" d="m198.23831 42.831917l0 16.800797l0.06298828 0l0 4.805504" fill-rule="evenodd"/><path fill="#efefef" stroke="#efefef" stroke-width="2.0" stroke-linecap="butt" d="m194.99783 64.43822l3.3034668 9.076195l3.3034668 -9.076195z" fill-rule="evenodd"/><path fill="#000000" fill-opacity="0.0" d="m284.11792 190.30614l0 17.26088l0.06298828 0l0 17.258804" fill-rule="evenodd"/><path stroke="#efefef" stroke-width="2.0" stroke-linejoin="round" stroke-linecap="butt" d="m284.11792 190.30614l0 17.26088l0.06298828 0l0 5.2588043" fill-rule="evenodd"/><path fill="#efefef" stroke="#efefef" stroke-width="2.0" stroke-linecap="butt" d="m280.87744 212.82584l3.3034668 9.076187l3.3034668 -9.076187z" fill-rule="evenodd"/><path fill="#f6b26b" d="m137.2591 97.33006l24.391281 -20.881416l73.17384 0l24.391266 20.881416l-24.391266 20.881416l-73.17384 0z" fill-rule="evenodd"/><path stroke="#b45f06" stroke-width="2.0" stroke-linejoin="round" stroke-linecap="butt" d="m137.2591 97.33006l24.391281 -20.881416l73.17384 0l24.391266 20.881416l-24.391266 20.881416l-73.17384 0z" fill-rule="evenodd"/><path fill="#000000" d="m187.76073 94.89319l1.21875 0l0 -0.625q0 -1.046875 0.21875 -1.5625q0.234375 -0.515625 0.828125 -0.84375q0.59375 -0.328125 1.515625 -0.328125q0.9375 0 1.828125 0.28125l-0.296875 1.53125q-0.515625 -0.125 -1.0 -0.125q-0.484375 0 -0.6875 0.234375q-0.203125 0.21875 -0.203125 0.84375l0 0.59375l1.640625 0l0 1.71875l-1.640625 0l0 6.578125l-2.203125 0l0 -6.578125l-1.21875 0l0 -1.71875zm5.78125 4.03125q0 -1.09375 0.53125 -2.109375q0.546875 -1.03125 1.53125 -1.5625q1.0 -0.546875 2.21875 -0.546875q1.875 0 3.078125 1.21875q1.203125 1.21875 1.203125 3.09375q0 1.875 -1.21875 3.125q-1.203125 1.234375 -3.046875 1.234375q-1.140625 0 -2.1875 -0.515625q-1.03125 -0.515625 -1.578125 -1.515625q-0.53125 -1.0 -0.53125 -2.421875zm2.25 0.109375q0 1.234375 0.578125 1.890625q0.59375 0.65625 1.453125 0.65625q0.859375 0 1.4375 -0.65625q0.59375 -0.65625 0.59375 -1.90625q0 -1.21875 -0.59375 -1.875q-0.578125 -0.65625 -1.4375 -0.65625q-0.859375 0 -1.453125 0.65625q-0.578125 0.65625 -0.578125 1.890625zm10.1328125 4.15625l-2.1875 0l0 -8.296875l2.03125 0l0 1.171875q0.53125 -0.828125 0.9375 -1.09375q0.421875 -0.265625 0.953125 -0.265625q0.75 0 1.453125 0.40625l-0.6875 1.921875q-0.546875 -0.359375 -1.03125 -0.359375q-0.453125 0 -0.78125 0.25q-0.3125 0.25 -0.5 0.921875q-0.1875 0.65625 -0.1875 2.78125l0 2.5625z" fill-rule="nonzero"/><path fill="#d9d9d9" d="m35.430096 207.26848c0 0.47105408 0.13191986 0.9034729 0.39575195 1.2972717c0.2638359 0.3912964 0.8098297 0.81874084 1.6379776 1.2823181l-1.7698936 0l0 1.816925l11.674694 0l0 -2.018814l-6.112175 0c-0.8354759 0 -1.6049957 -0.1121521 -2.3085556 -0.33647156c-0.46171188 -0.14953613 -0.82204056 -0.40000916 -1.0809898 -0.7514343c-0.2613907 -0.35142517 -0.39208603 -0.7477112 -0.39208603 -1.188858c0 -0.4934845 0.14291 -0.986969 0.42873 -1.4804535l-1.8358498 -0.69537354c-0.4250679 0.70285034 -0.63760376 1.3944702 -0.63760376 2.0748901z" fill-rule="evenodd"/><path fill="#d9d9d9" d="m37.05708 199.08109c0 -1.024353 0.3810959 -1.8580475 1.1432838 -2.5010834c0.49102783 -0.41871643 1.2275658 -0.67292786 2.2096176 -0.7626648l0 6.6508636c-1.0186958 -0.06729126 -1.8321877 -0.41622925 -2.4404716 -1.0467987c-0.6082878 -0.63305664 -0.9124298 -1.4131622 -0.9124298 -2.3403168zm-1.6269836 0.02243042c0 1.6449585 0.5423279 2.9833527 1.6269836 4.0151825c1.0846558 1.0318451 2.6090317 1.54776 4.573139 1.54776c1.8981438 0 3.3736649 -0.50968933 4.4265633 -1.529068c1.0504532 -1.0218658 1.5756798 -2.4038696 1.5756798 -4.1460266c0 -1.383255 -0.32979584 -2.5197754 -0.9893799 -3.409546c-0.65958786 -0.8897705 -1.5866737 -1.4991455 -2.7812614 -1.8281403l-0.25284195 2.0861053c0.8354759 0.30654907 1.4437637 0.7215271 1.8248596 1.2449188c0.38109207 0.523407 0.57164 1.1552124 0.57164 1.8954468c0 0.9944458 -0.34078598 1.8244019 -1.022358 2.489853c-0.6815758 0.6654663 -1.6636276 1.0355835 -2.9461594 1.1103516l0 -8.882751c-0.23451614 -0.0074768066 -0.41040802 -0.01121521 -0.527668 -0.01121521c-1.9274597 0 -3.4225235 0.5046997 -4.4851913 1.5140991c-1.0626717 1.0093994 -1.5940056 2.3104095 -1.5940056 3.9030304z" fill-rule="evenodd"/><path fill="#d9d9d9" d="m36.980125 186.11584c0 -0.8673401 0.37010193 -1.6125488 1.1103058 -2.2356415c0.74020386 -0.62557983 1.8541756 -0.93836975 3.3419113 -0.93836975c1.5610199 0 2.714077 0.32026672 3.4591675 0.9608002c0.74264526 0.63804626 1.1139679 1.4056854 1.1139679 2.3029327c0 0.8822937 -0.35910797 1.6337433 -1.0773239 2.2543488c-0.71821976 0.6205902 -1.8285217 0.93089294 -3.3309174 0.93089294c-1.5023918 0 -2.6468964 -0.33024597 -3.4335175 -0.99072266c-0.7890625 -0.66296387 -1.1835938 -1.4243774 -1.1835938 -2.2842407zm-1.5500298 -0.19065857c0 0.7776184 0.14902115 1.439331 0.44705582 1.9851532c0.29559326 0.5458374 0.74020386 1.0355835 1.3338318 1.4692535l-1.5170517 0l0 1.8393555l16.148895 0l0 -2.018814l-5.683445 0c0.4250679 -0.3439331 0.77684784 -0.7825928 1.0553398 -1.3159637c0.27849197 -0.53585815 0.41773987 -1.1402435 0.41773987 -1.8131866c0 -0.91967773 -0.25406265 -1.7957458 -0.7621918 -2.628189c-0.5105667 -0.8349304 -1.2434425 -1.4704895 -2.1986237 -1.9066467c-0.9576225 -0.43865967 -2.0337257 -0.6579895 -3.2283134 -0.6579895c-1.1139679 0 -2.1375504 0.19815063 -3.0707436 0.59443665c-0.9356384 0.39627075 -1.6599617 0.9832306 -2.1729736 1.760849c-0.51301193 0.77760315 -0.7695198 1.6748505 -0.7695198 2.691742z" fill-rule="evenodd"/><path fill="#d9d9d9" d="m37.05708 173.53194c0 -1.024353 0.3810959 -1.8580475 1.1432838 -2.501068c0.49102783 -0.41871643 1.2275658 -0.6729431 2.2096176 -0.7626648l0 6.6508484c-1.0186958 -0.06729126 -1.8321877 -0.41622925 -2.4404716 -1.0467834c-0.6082878 -0.63305664 -0.9124298 -1.4131775 -0.9124298 -2.340332zm-1.6269836 0.02243042c0 1.6449585 0.5423279 2.9833527 1.6269836 4.0151978c1.0846558 1.0318298 2.6090317 1.5477448 4.573139 1.5477448c1.8981438 0 3.3736649 -0.50968933 4.4265633 -1.5290527c1.0504532 -1.0218658 1.5756798 -2.403885 1.5756798 -4.146042c0 -1.383255 -0.32979584 -2.5197754 -0.9893799 -3.409546c-0.65958786 -0.8897705 -1.5866737 -1.4991455 -2.7812614 -1.8281403l-0.25284195 2.0861053c0.8354759 0.30656433 1.4437637 0.72154236 1.8248596 1.2449341c0.38109207 0.5233917 0.57164 1.1551971 0.57164 1.8954315c0 0.9944458 -0.34078598 1.8244019 -1.022358 2.4898682c-0.6815758 0.66545105 -1.6636276 1.0355682 -2.9461594 1.1103363l0 -8.882751c-0.23451614 -0.0074768066 -0.41040802 -0.01121521 -0.527668 -0.01121521c-1.9274597 0 -3.4225235 0.5046997 -4.4851913 1.5140991c-1.0626717 1.0094147 -1.5940056 2.3104248 -1.5940056 3.9030304z" fill-rule="evenodd"/><path fill="#d9d9d9" d="m41.509293 158.06563l0.7255478 0c0.8721199 0 1.5317078 0.1084137 1.9787598 0.32525635c0.57897186 0.28411865 1.0357971 0.7290039 1.3704758 1.3346558c0.33223724 0.6056366 0.49835587 1.2972717 0.49835587 2.0748749c0 0.7850952 -0.17589188 1.382019 -0.5276718 1.7907715c-0.35177994 0.40625 -0.7915039 0.609375 -1.3191719 0.609375c-0.3444519 0 -0.65714645 -0.09346008 -0.93807983 -0.2803955c-0.2833786 -0.18692017 -0.49835587 -0.45236206 -0.6449318 -0.7963104c-0.14657593 -0.3439331 -0.27849197 -0.93089294 -0.39575195 -1.760849c-0.20520401 -1.4654999 -0.45438004 -2.564621 -0.7475319 -3.2973785zm-6.079197 2.5683746c0 1.024353 0.13802719 1.9253387 0.41407394 2.7029572c0.27360916 0.7776184 0.6656952 1.3720398 1.1762657 1.7832794c0.5081253 0.41123962 1.1762619 0.70658875 2.0044136 0.8860321l0.2638321 -1.973938c-0.8281479 -0.21684265 -1.4046745 -0.55081177 -1.7295837 -1.0019379c-0.32735062 -0.45361328 -0.49102402 -1.1551971 -0.49102402 -2.1047974c0 -1.0168762 0.223526 -1.7832794 0.670578 -2.2991943c0.32979584 -0.3813324 0.89777374 -0.57199097 1.7039337 -0.57199097c0.073287964 0 0.24551392 0.0037384033 0.51667786 0.01121521c0.2638359 0.7701416 0.49102402 1.9701996 0.68157196 3.6002045c0.09527588 0.8000488 0.19421387 1.3982086 0.29681396 1.7944946c0.14657593 0.53834534 0.3627739 1.0231171 0.6485939 1.4542999c0.28582382 0.42868042 0.6656952 0.7763672 1.1396217 1.043045c0.47148132 0.26419067 0.9930458 0.396286 1.5646896 0.396286c0.97472 0 1.7759972 -0.35142517 2.4038277 -1.0542755c0.6253853 -0.7028351 0.93807983 -1.7084961 0.93807983 -3.016983c0 -0.792572 -0.12825394 -1.5340576 -0.384758 -2.2244415c-0.25650787 -0.6928711 -0.69623184 -1.4131622 -1.3191757 -2.1608734c0.5496559 -0.059814453 1.0296898 -0.19439697 1.4400978 -0.40374756l0 -2.1085358c-0.447052 0.25421143 -0.9136505 0.42494202 -1.3997917 0.5121765c-0.4885826 0.084732056 -1.6526299 0.12710571 -3.4921455 0.12710571l-2.6383514 0c-0.87944794 0 -1.4877357 0.03364563 -1.8248558 0.10093689c-0.5423279 0.119644165 -0.9906044 0.32899475 -1.3448257 0.6280823c-0.35666656 0.29908752 -0.6522598 0.7664032 -0.8867798 1.401947c-0.23451996 0.6355438 -0.35177994 1.4617615 -0.35177994 2.478653z" fill-rule="evenodd"/><path fill="#d9d9d9" d="m31.615484 150.51753l1.1872578 2.0075836l2.8911896 0l0 1.4804688l1.5390358 0l0 -1.4804688l6.716797 0c1.1872597 0 1.9665489 -0.08224487 2.3378716 -0.24673462c0.36888123 -0.164505 0.6669159 -0.44862366 0.8941078 -0.8523865c0.22719193 -0.40376282 0.34078598 -0.97203064 0.34078598 -1.704773c0 -0.44862366 -0.058628082 -0.957077 -0.17588806 -1.5253296l-1.7479095 0.29161072c0.051303864 0.36637878 0.07695389 0.66171265 0.07695389 0.8860321c0 0.29908752 -0.04763794 0.52963257 -0.14291 0.6916199c-0.09527588 0.15951538 -0.223526 0.27540588 -0.3847618 0.34768677c-0.161232 0.0697937 -0.5240021 0.10469055 -1.0883179 0.10469055l-6.826729 0l0 -2.0300293l-1.5390358 0l0 2.0300293l-4.0784473 0z" fill-rule="evenodd"/><path fill="#cfe2f3" d="m250.75209 341.16843l66.7863 0l0 0c8.749207 0 15.841797 7.52713 15.841797 16.812286c0 9.285156 -7.0925903 16.812286 -15.841797 16.812286l-66.7863 0l0 0c-8.749191 0 -15.841812 -7.52713 -15.841812 -16.812286c0 -9.285156 7.092621 -16.812286 15.841812 -16.812286z" fill-rule="evenodd"/><path stroke="#3c78d8" stroke-width="2.0" stroke-linejoin="round" stroke-linecap="butt" d="m250.75209 341.16843l66.7863 0l0 0c8.749207 0 15.841797 7.52713 15.841797 16.812286c0 9.285156 -7.0925903 16.812286 -15.841797 16.812286l-66.7863 0l0 0c-8.749191 0 -15.841812 -7.52713 -15.841812 -16.812286c0 -9.285156 7.092621 -16.812286 15.841812 -16.812286z" fill-rule="evenodd"/><path fill="#000000" d="m266.94992 360.10632l2.25 -0.21875q0.203125 1.140625 0.828125 1.671875q0.625 0.53125 1.671875 0.53125q1.125 0 1.6875 -0.46875q0.5625 -0.484375 0.5625 -1.109375q0 -0.40625 -0.234375 -0.6875q-0.234375 -0.296875 -0.828125 -0.5q-0.40625 -0.140625 -1.859375 -0.5q-1.859375 -0.46875 -2.609375 -1.140625q-1.046875 -0.9375 -1.046875 -2.296875q0 -0.875 0.484375 -1.640625q0.5 -0.765625 1.4375 -1.15625q0.9375 -0.40625 2.25 -0.40625q2.15625 0 3.25 0.953125q1.09375 0.9375 1.140625 2.515625l-2.3125 0.109375q-0.140625 -0.890625 -0.640625 -1.265625q-0.484375 -0.390625 -1.453125 -0.390625q-1.015625 0 -1.578125 0.40625q-0.375 0.265625 -0.375 0.71875q0 0.40625 0.34375 0.6875q0.4375 0.375 2.125 0.78125q1.6875 0.390625 2.5 0.8125q0.8125 0.421875 1.265625 1.171875q0.453125 0.734375 0.453125 1.8125q0 0.984375 -0.546875 1.84375q-0.546875 0.859375 -1.546875 1.28125q-1.0 0.421875 -2.484375 0.421875q-2.171875 0 -3.34375 -1.0q-1.15625 -1.015625 -1.390625 -2.9375zm15.046875 -4.5625l0 1.75l-1.5 0l0 3.34375q0 1.015625 0.046875 1.1875q0.046875 0.15625 0.1875 0.265625q0.15625 0.109375 0.375 0.109375q0.3125 0 0.890625 -0.203125l0.1875 1.703125q-0.765625 0.328125 -1.734375 0.328125q-0.59375 0 -1.078125 -0.203125q-0.46875 -0.203125 -0.703125 -0.515625q-0.21875 -0.3125 -0.296875 -0.859375q-0.078125 -0.375 -0.078125 -1.546875l0 -3.609375l-1.0 0l0 -1.75l1.0 0l0 -1.65625l2.203125 -1.28125l0 2.9375l1.5 0zm1.015625 4.03125q0 -1.09375 0.53125 -2.109375q0.546875 -1.03125 1.53125 -1.5625q1.0 -0.546875 2.21875 -0.546875q1.875 0 3.078125 1.21875q1.203125 1.21875 1.203125 3.09375q0 1.875 -1.21875 3.125q-1.203125 1.234375 -3.046875 1.234375q-1.140625 0 -2.1875 -0.515625q-1.03125 -0.515625 -1.578125 -1.515625q-0.53125 -1.0 -0.53125 -2.421875zm2.25 0.109375q0 1.234375 0.578125 1.890625q0.59375 0.65625 1.453125 0.65625q0.859375 0 1.4375 -0.65625q0.59375 -0.65625 0.59375 -1.90625q0 -1.21875 -0.59375 -1.875q-0.578125 -0.65625 -1.4375 -0.65625q-0.859375 0 -1.453125 0.65625q-0.578125 0.65625 -0.578125 1.890625zm7.9765625 -4.140625l2.046875 0l0 1.21875q0.390625 -0.625 1.0625 -1.015625q0.6875 -0.390625 1.515625 -0.390625q1.453125 0 2.453125 1.140625q1.015625 1.125 1.015625 3.140625q0 2.078125 -1.015625 3.234375q-1.015625 1.15625 -2.46875 1.15625q-0.6875 0 -1.25 -0.265625q-0.546875 -0.28125 -1.171875 -0.953125l0 4.1875l-2.1875 0l0 -11.453125zm2.171875 4.0q0 1.40625 0.546875 2.078125q0.5625 0.65625 1.359375 0.65625q0.765625 0 1.265625 -0.609375q0.515625 -0.609375 0.515625 -2.015625q0 -1.296875 -0.53125 -1.921875q-0.515625 -0.640625 -1.296875 -0.640625q-0.796875 0 -1.328125 0.625q-0.53125 0.609375 -0.53125 1.828125z" fill-rule="nonzero"/><path fill="#d9d9d9" d="m159.01123 237.60013c-1.3179169 0 -2.4109802 0.6586151 -3.27919 1.9758453l0 -1.7124023l-2.4453278 0l0 11.65741l2.6327057 0l0 -5.2798615c0 -1.3025818 0.06663513 -2.1953583 0.19987488 -2.6783447c0.1353302 -0.48298645 0.38414 -0.87083435 0.7464142 -1.1635437c0.36227417 -0.2927246 0.7713928 -0.43907166 1.227356 -0.43907166c0.35601807 0 0.6599884 0.10244751 0.91192627 0.30734253c0.2539978 0.20491028 0.43721008 0.49273682 0.5496521 0.86351013c0.11242676 0.36834717 0.16864014 1.1818542 0.16864014 2.4405212l0 5.9494476l2.632721 0l0 -7.244705c0 -0.9001007 -0.048934937 -1.5916443 -0.14678955 -2.0746307c-0.09576416 -0.48298645 -0.26753235 -0.9147339 -0.51530457 -1.2952728c-0.2456665 -0.38052368 -0.6089783 -0.692749 -1.0899353 -0.9366913c-0.48094177 -0.24636841 -1.0118561 -0.3695526 -1.5927429 -0.3695526z" fill-rule="evenodd"/><path fill="#d9d9d9" d="m169.55147 240.11383c0.68707275 0 1.2627563 0.3073578 1.7270355 0.9220581c0.4663849 0.6147003 0.6995697 1.4928436 0.6995697 2.6344452c0 1.1708527 -0.23318481 2.0636444 -0.6995697 2.6783447c-0.46427917 0.6147003 -1.0399628 0.9220581 -1.7270355 0.9220581c-0.6870575 0 -1.2648315 -0.3073578 -1.7332764 -0.9220581c-0.46846008 -0.6147003 -0.7026825 -1.5001678 -0.7026825 -2.6564026c0 -1.1562195 0.23422241 -2.041687 0.7026825 -2.6563873c0.46844482 -0.6147003 1.0462189 -0.9220581 1.7332764 -0.9220581zm-0.0093688965 -2.5137024c-0.9743805 0 -1.8571625 0.25247192 -2.6483307 0.7574005c-0.789093 0.50494385 -1.3991241 1.2367249 -1.8300934 2.1953735c-0.4309845 0.9586487 -0.6464691 1.9502258 -0.6464691 2.9747314c0 1.3391724 0.21548462 2.475891 0.6464691 3.410141c0.43096924 0.9318085 1.0597382 1.6392059 1.8863068 2.1221924c0.8286438 0.4829712 1.6989288 0.72447205 2.610855 0.72447205c1.4740753 0 2.696228 -0.5793457 3.6664429 -1.7380066c0.9723053 -1.1611023 1.4584656 -2.6234741 1.4584656 -4.387085c0 -1.7489777 -0.48095703 -3.1954803 -1.4428406 -4.339508c-0.9618988 -1.1464691 -2.1954956 -1.7197113 -3.7008057 -1.7197113z" fill-rule="evenodd"/><path fill="#f4cccc" d="m49.233643 97.33192l0 0c0 -9.767174 7.8685074 -17.685036 17.574806 -17.685036l0 0c4.661125 0 9.131348 1.8632355 12.427261 5.179825c3.2959137 3.3165894 5.147537 7.81485 5.147537 12.505211l0 0c0 9.767181 -7.8685074 17.685043 -17.574799 17.685043l0 0c-9.706299 0 -17.574806 -7.917862 -17.574806 -17.685043z" fill-rule="evenodd"/><path stroke="#cc0000" stroke-width="2.0" stroke-linejoin="round" stroke-linecap="butt" d="m49.233643 97.33192l0 0c0 -9.767174 7.8685074 -17.685036 17.574806 -17.685036l0 0c4.661125 0 9.131348 1.8632355 12.427261 5.179825c3.2959137 3.3165894 5.147537 7.81485 5.147537 12.505211l0 0c0 9.767181 -7.8685074 17.685043 -17.574799 17.685043l0 0c-9.706299 0 -17.574806 -7.917862 -17.574806 -17.685043z" fill-rule="evenodd"/><path fill="#000000" fill-opacity="0.0" d="m84.38325 97.33192l26.437775 0l0 0.06299591l26.444115 0" fill-rule="evenodd"/><path stroke="#efefef" stroke-width="2.0" stroke-linejoin="round" stroke-linecap="butt" d="m84.38325 97.33192l26.437775 0l0 0.06299591l14.444122 0" fill-rule="evenodd"/><path fill="#efefef" stroke="#efefef" stroke-width="2.0" stroke-linecap="butt" d="m125.265144 100.69837l9.076195 -3.3034592l-9.076195 -3.3034668z" fill-rule="evenodd"/></g></svg>