<svg version="1.1" viewBox="0.0 0.0 673.3490813648294 558.1023622047244" fill="none" stroke="none" stroke-linecap="square" stroke-miterlimit="10" xmlns:xlink="http://www.w3.org/1999/xlink" xmlns="http://www.w3.org/2000/svg"><clipPath id="p.0"><path d="m0 0l673.34906 0l0 558.10236l-673.34906 0l0 -558.10236z" clip-rule="nonzero"/></clipPath><g clip-path="url(#p.0)"><path fill="#000000" fill-opacity="0.0" d="m0 0l673.34906 0l0 558.10236l-673.34906 0z" fill-rule="evenodd"/><path fill="#000000" fill-opacity="0.0" d="m78.29396 276.5853l26.882965 0l0 209.92126l26.880814 0" fill-rule="evenodd"/><path stroke="#c2c2c2" stroke-width="2.0" stroke-linejoin="round" stroke-linecap="butt" d="m87.29396 276.5853l17.882973 0l0 209.92126l26.880806 0" fill-rule="evenodd"/><path fill="#c2c2c2" stroke="#c2c2c2" stroke-width="2.0" stroke-linecap="butt" d="m87.29396 274.37375l-6.076195 2.2115479l6.076195 2.2115479z" fill-rule="evenodd"/><path fill="#155b54" d="m32.336143 535.3884l0 0c-5.0764847 0 -9.191786 -4.1152954 -9.191786 -9.191772l0 -499.22272c0 -2.4378147 0.9684162 -4.7757797 2.6922112 -6.4995747c1.723793 -1.723793 4.06176 -2.6922112 6.4995747 -2.6922112l36.766037 0c5.076477 0 9.19178 4.115303 9.19178 9.191786l0 499.22272c0 5.076477 -4.115303 9.191772 -9.19178 9.191772z" fill-rule="evenodd"/><path fill="#ffffff" d="m54.17041 283.3715l0 5.546875l3.46875 1.25l0 1.8125l-13.265625 -5.0625l0 -1.53125l13.265625 -5.078125l0 1.796875l-3.46875 1.265625zm-1.4375 5.03125l0 -4.515625l-6.203125 2.265625l6.203125 2.25zm-4.953125 -11.217163l1.234375 -0.046875q-1.40625 -1.125 -1.40625 -2.953125q0 -3.125 3.515625 -3.15625l6.515625 0l0 1.6875l-6.515625 0q-1.078125 0.015625 -1.578125 0.5q-0.515625 0.46875 -0.515625 1.484375q0 0.8125 0.4375 1.4375q0.4375 0.609375 1.15625 0.96875l7.015625 0l0 1.671875l-9.859375 0l0 -1.59375zm7.390625 -11.918732l-7.390625 -2.296875l0 -1.796875l11.375 3.953125q2.46875 0.921875 2.46875 2.921875l-0.03125 0.328125l-0.125 0.625l-1.359375 0l0.03125 -0.453125q0 -0.859375 -0.34375 -1.328125q-0.34375 -0.484375 -1.265625 -0.796875l-1.0 -0.375l-9.75 3.515625l0 -1.84375l7.390625 -2.453125z" fill-rule="nonzero"/><path fill="#1b786e" d="m132.05943 468.1314l0 0c0 -5.076477 4.1152954 -9.191772 9.191772 -9.191772l89.144 0c2.4378052 0 4.775772 0.9684143 6.4995728 2.6921997c1.7237854 1.7238159 2.692215 4.0617676 2.692215 6.4995728l0 36.766052c0 5.076477 -4.1153107 9.191772 -9.191788 9.191772l-89.144 0c-5.076477 0 -9.191772 -4.1152954 -9.191772 -9.191772z" fill-rule="evenodd"/><path fill="#ffffff" d="m165.11316 489.9657l-5.546875 0l-1.25 3.46875l-1.8125 0l5.0625 -13.265625l1.53125 0l5.078125 13.265625l-1.796875 0l-1.265625 -3.46875zm-5.03125 -1.4375l4.515625 0l-2.265625 -6.203125l-2.25 6.203125zm11.217163 -4.953125l0.046875 1.234375q1.125 -1.40625 2.953125 -1.40625q3.125 0 3.15625 3.515625l0 6.515625l-1.6875 0l0 -6.515625q-0.015625 -1.078125 -0.5 -1.578125q-0.46875 -0.515625 -1.484375 -0.515625q-0.8125 0 -1.4375 0.4375q-0.609375 0.4375 -0.96875 1.15625l0 7.015625l-1.671875 0l0 -9.859375l1.59375 0zm11.918732 7.390625l2.296875 -7.390625l1.796875 0l-3.953125 11.375q-0.921875 2.46875 -2.921875 2.46875l-0.328125 -0.03125l-0.625 -0.125l0 -1.359375l0.453125 0.03125q0.859375 0 1.328125 -0.34375q0.484375 -0.34375 0.796875 -1.265625l0.375 -1.0l-3.515625 -9.75l1.84375 0l2.453125 7.390625zm10.733353 -2.890625l-3.125 0l0 5.359375l-1.75 0l0 -13.265625l4.390625 0q2.234375 0 3.4375 1.03125q1.21875 1.015625 1.21875 2.953125q0 1.25 -0.671875 2.171875q-0.671875 0.921875 -1.859375 1.375l3.109375 5.625l0 0.109375l-1.875 0l-2.875 -5.359375zm-3.125 -1.4375l2.6875 0q1.3125 0 2.078125 -0.671875q0.765625 -0.671875 0.765625 -1.8125q0 -1.21875 -0.734375 -1.875q-0.734375 -0.65625 -2.109375 -0.671875l-2.6875 0l0 5.03125zm13.565186 6.984375q-2.0 0 -3.265625 -1.3125q-1.25 -1.328125 -1.25 -3.53125l0 -0.3125q0 -1.46875 0.5625 -2.609375q0.5625 -1.15625 1.5625 -1.796875q1.015625 -0.65625 2.1875 -0.65625q1.921875 0 2.984375 1.265625q1.0625 1.265625 1.0625 3.625l0 0.6875l-6.671875 0q0.03125 1.46875 0.84375 2.375q0.828125 0.890625 2.078125 0.890625q0.890625 0 1.515625 -0.359375q0.625 -0.375 1.078125 -0.96875l1.03125 0.796875q-1.234375 1.90625 -3.71875 1.90625zm-0.203125 -8.84375q-1.015625 0 -1.71875 0.75q-0.6875 0.734375 -0.84375 2.078125l4.9375 0l0 -0.125q-0.078125 -1.28125 -0.703125 -1.984375q-0.609375 -0.71875 -1.671875 -0.71875zm6.8369293 8.65625l0 -8.546875l-1.5625 0l0 -1.3125l1.5625 0l0 -1.015625q0 -1.578125 0.84375 -2.4375q0.84375 -0.875 2.390625 -0.875q0.59375 0 1.15625 0.15625l-0.09375 1.375q-0.421875 -0.09375 -0.90625 -0.09375q-0.8125 0 -1.265625 0.484375q-0.4375 0.484375 -0.4375 1.375l0 1.03125l2.09375 0l0 1.3125l-2.09375 0l0 8.546875l-1.6875 0z" fill-rule="nonzero"/><path fill="#1d7e74" d="m331.16272 22.958109l0 0c0 -2.849905 2.3103027 -5.1602077 5.1602173 -5.1602077l106.84494 0c1.3685608 0 2.6810913 0.543663 3.6488037 1.5113888c0.9677429 0.96772766 1.5114136 2.2802467 1.5114136 3.648819l0 20.640215c0 2.849903 -2.3103027 5.160206 -5.1602173 5.160206l-106.84494 0c-2.8499146 0 -5.1602173 -2.3103027 -5.1602173 -5.160206z" fill-rule="evenodd"/><path fill="#ffffff" d="m368.15192 38.358215l0 -10.421875l2.953125 0q1.359375 0 2.390625 0.609375q1.046875 0.59375 1.609375 1.703125q0.578125 1.109375 0.59375 2.546875l0 0.671875q0 1.46875 -0.578125 2.578125q-0.5625 1.109375 -1.625 1.703125q-1.046875 0.59375 -2.453125 0.609375l-2.890625 0zm1.375 -9.28125l0 8.15625l1.453125 0q1.59375 0 2.46875 -0.984375q0.890625 -0.984375 0.890625 -2.8125l0 -0.609375q0 -1.78125 -0.84375 -2.765625q-0.828125 -0.984375 -2.359375 -0.984375l-1.609375 0zm7.6891174 5.34375q0 -1.140625 0.4375 -2.046875q0.453125 -0.921875 1.25 -1.40625q0.796875 -0.5 1.828125 -0.5q1.578125 0 2.546875 1.09375q0.984375 1.09375 0.984375 2.921875l0 0.09375q0 1.125 -0.4375 2.03125q-0.4375 0.890625 -1.25 1.390625q-0.796875 0.5 -1.84375 0.5q-1.5625 0 -2.546875 -1.09375q-0.96875 -1.09375 -0.96875 -2.890625l0 -0.09375zm1.328125 0.15625q0 1.28125 0.59375 2.0625q0.59375 0.78125 1.59375 0.78125q1.015625 0 1.609375 -0.78125q0.59375 -0.796875 0.59375 -2.21875q0 -1.28125 -0.609375 -2.0625q-0.59375 -0.796875 -1.59375 -0.796875q-0.984375 0 -1.59375 0.78125q-0.59375 0.78125 -0.59375 2.234375zm12.155518 3.015625q-0.765625 0.90625 -2.265625 0.90625q-1.234375 0 -1.890625 -0.71875q-0.640625 -0.71875 -0.65625 -2.125l0 -5.046875l1.328125 0l0 5.015625q0 1.75 1.4375 1.75q1.515625 0 2.015625 -1.125l0 -5.640625l1.328125 0l0 7.75l-1.265625 0l-0.03125 -0.765625zm9.860809 -3.015625q0 1.765625 -0.828125 2.84375q-0.8125 1.078125 -2.1875 1.078125q-1.46875 0 -2.265625 -1.03125l-0.0625 0.890625l-1.21875 0l0 -11.0l1.328125 0l0 4.109375q0.796875 -1.0 2.203125 -1.0q1.421875 0 2.21875 1.078125q0.8125 1.0625 0.8125 2.90625l0 0.125zm-1.328125 -0.15625q0 -1.34375 -0.53125 -2.078125q-0.515625 -0.75 -1.5 -0.75q-1.3125 0 -1.875 1.21875l0 3.34375q0.609375 1.21875 1.890625 1.21875q0.953125 0 1.484375 -0.734375q0.53125 -0.734375 0.53125 -2.21875zm4.4257812 3.9375l-1.328125 0l0 -11.0l1.328125 0l0 11.0zm5.337982 0.140625q-1.578125 0 -2.5625 -1.03125q-0.984375 -1.03125 -0.984375 -2.765625l0 -0.25q0 -1.140625 0.4375 -2.046875q0.4375 -0.90625 1.21875 -1.421875q0.796875 -0.515625 1.71875 -0.515625q1.515625 0 2.34375 1.0q0.84375 1.0 0.84375 2.84375l0 0.546875l-5.25 0q0.03125 1.15625 0.671875 1.859375q0.640625 0.703125 1.625 0.703125q0.703125 0 1.1875 -0.28125q0.5 -0.296875 0.859375 -0.765625l0.8125 0.625q-0.984375 1.5 -2.921875 1.5zm-0.171875 -6.9375q-0.796875 0 -1.34375 0.59375q-0.546875 0.578125 -0.671875 1.625l3.875 0l0 -0.109375q-0.046875 -1.0 -0.546875 -1.546875q-0.484375 -0.5625 -1.3125 -0.5625z" fill-rule="nonzero"/><path fill="#1d7e74" d="m331.16272 66.70323l0 0c0 -2.849907 2.3103027 -5.1602097 5.1602173 -5.1602097l106.84494 0c1.3685608 0 2.6810913 0.543663 3.6488037 1.5113907c0.9677429 0.96772766 1.5114136 2.280243 1.5114136 3.648819l0 20.640213c0 2.8498993 -2.3103027 5.1602097 -5.1602173 5.1602097l-106.84494 0c-2.8499146 0 -5.1602173 -2.3103104 -5.1602173 -5.1602097z" fill-rule="evenodd"/><path fill="#ffffff" d="m380.31046 77.50959l-4.375 0l0 4.59375l-1.375 0l0 -10.421875l6.46875 0l0 1.140625l-5.09375 0l0 3.5625l4.375 0l0 1.125zm3.5853882 4.59375l-1.328125 0l0 -11.0l1.328125 0l0 11.0zm1.7754517 -3.9375q0 -1.140625 0.4375 -2.046875q0.453125 -0.921875 1.25 -1.40625q0.796875 -0.5 1.828125 -0.5q1.578125 0 2.546875 1.09375q0.984375 1.09375 0.984375 2.921875l0 0.09375q0 1.125 -0.4375 2.03125q-0.4375 0.890625 -1.25 1.390625q-0.796875 0.5 -1.84375 0.5q-1.5625 0 -2.546875 -1.09375q-0.96875 -1.09375 -0.96875 -2.890625l0 -0.09375zm1.328125 0.15625q0 1.28125 0.59375 2.0625q0.59375 0.78125 1.59375 0.78125q1.015625 0 1.609375 -0.78125q0.59375 -0.796875 0.59375 -2.21875q0 -1.28125 -0.609375 -2.0625q-0.59375 -0.796875 -1.59375 -0.796875q-0.984375 0 -1.59375 0.78125q-0.59375 0.78125 -0.59375 2.234375zm12.155518 3.78125q-0.109375 -0.234375 -0.1875 -0.8125q-0.921875 0.953125 -2.203125 0.953125q-1.140625 0 -1.875 -0.640625q-0.734375 -0.65625 -0.734375 -1.640625q0 -1.21875 0.921875 -1.875q0.921875 -0.671875 2.578125 -0.671875l1.296875 0l0 -0.609375q0 -0.703125 -0.421875 -1.109375q-0.40625 -0.40625 -1.21875 -0.40625q-0.703125 0 -1.1875 0.359375q-0.484375 0.34375 -0.484375 0.859375l-1.328125 0q0 -0.578125 0.40625 -1.109375q0.421875 -0.546875 1.125 -0.859375q0.703125 -0.328125 1.546875 -0.328125q1.34375 0 2.09375 0.671875q0.765625 0.671875 0.796875 1.84375l0 3.5625q0 1.0625 0.265625 1.703125l0 0.109375l-1.390625 0zm-2.203125 -1.015625q0.625 0 1.1875 -0.3125q0.5625 -0.328125 0.8125 -0.84375l0 -1.578125l-1.046875 0q-2.421875 0 -2.421875 1.421875q0 0.625 0.40625 0.96875q0.421875 0.34375 1.0625 0.34375zm7.1909485 -8.609375l0 1.875l1.453125 0l0 1.03125l-1.453125 0l0 4.796875q0 0.46875 0.1875 0.703125q0.203125 0.234375 0.671875 0.234375q0.21875 0 0.625 -0.09375l0 1.078125q-0.53125 0.140625 -1.015625 0.140625q-0.890625 0 -1.34375 -0.53125q-0.453125 -0.546875 -0.453125 -1.53125l0 -4.796875l-1.40625 0l0 -1.03125l1.40625 0l0 -1.875l1.328125 0z" fill-rule="nonzero"/><path fill="#1d7e74" d="m331.93195 435.70645l0 0c0 -2.8499146 2.3103027 -5.1602173 5.160187 -5.1602173l106.84494 0c1.3685913 0 2.6810913 0.54367065 3.6488342 1.511383c0.9677124 0.9677124 1.511383 2.280243 1.511383 3.6488342l0 20.640198c0 2.8499146 -2.3103027 5.1602173 -5.1602173 5.1602173l-106.84494 0c-2.849884 0 -5.160187 -2.3103027 -5.160187 -5.1602173z" fill-rule="evenodd"/><path fill="#ffffff" d="m381.21448 449.98154l4.9375 0l0 1.125l-6.328125 0l0 -10.421875l1.390625 0l0 9.296875zm7.730072 1.125l-1.328125 0l0 -7.75l1.328125 0l0 7.75zm-1.421875 -9.796875q0 -0.328125 0.1875 -0.546875q0.203125 -0.21875 0.578125 -0.21875q0.390625 0 0.59375 0.21875q0.203125 0.21875 0.203125 0.546875q0 0.328125 -0.203125 0.546875q-0.203125 0.203125 -0.59375 0.203125q-0.375 0 -0.578125 -0.203125q-0.1875 -0.21875 -0.1875 -0.546875zm8.056702 7.75q0 -0.546875 -0.40625 -0.84375q-0.40625 -0.296875 -1.421875 -0.5q-1.0 -0.21875 -1.59375 -0.515625q-0.578125 -0.3125 -0.875 -0.71875q-0.28125 -0.421875 -0.28125 -1.0q0 -0.9375 0.8125 -1.59375q0.8125 -0.671875 2.0625 -0.671875q1.3125 0 2.125 0.6875q0.828125 0.671875 0.828125 1.734375l-1.328125 0q0 -0.546875 -0.46875 -0.9375q-0.453125 -0.390625 -1.15625 -0.390625q-0.734375 0 -1.140625 0.3125q-0.40625 0.3125 -0.40625 0.828125q0 0.46875 0.375 0.71875q0.390625 0.25 1.375 0.46875q1.0 0.21875 1.609375 0.53125q0.609375 0.296875 0.90625 0.734375q0.296875 0.4375 0.296875 1.0625q0 1.03125 -0.828125 1.65625q-0.828125 0.625 -2.15625 0.625q-0.921875 0 -1.640625 -0.328125q-0.71875 -0.328125 -1.125 -0.921875q-0.390625 -0.59375 -0.390625 -1.28125l1.3125 0q0.046875 0.671875 0.53125 1.0625q0.5 0.390625 1.3125 0.390625q0.75 0 1.203125 -0.296875q0.46875 -0.3125 0.46875 -0.8125zm4.838379 -7.578125l0 1.875l1.453125 0l0 1.03125l-1.453125 0l0 4.796875q0 0.46875 0.1875 0.703125q0.203125 0.234375 0.671875 0.234375q0.21875 0 0.625 -0.09375l0 1.078125q-0.53125 0.140625 -1.015625 0.140625q-0.890625 0 -1.34375 -0.53125q-0.453125 -0.546875 -0.453125 -1.53125l0 -4.796875l-1.40625 0l0 -1.03125l1.40625 0l0 -1.875l1.328125 0z" fill-rule="nonzero"/><path fill="#000000" fill-opacity="0.0" d="m239.58788 142.62993l45.787033 0l0 -109.35434l45.803528 0" fill-rule="evenodd"/><path stroke="#c2c2c2" stroke-width="2.0" stroke-linejoin="round" stroke-linecap="butt" d="m248.58789 142.62993l36.787018 0l0 -109.35434l45.803528 0" fill-rule="evenodd"/><path fill="#c2c2c2" stroke="#c2c2c2" stroke-width="2.0" stroke-linecap="butt" d="m248.58789 140.41837l-6.0762024 2.211563l6.0762024 2.2115479z" fill-rule="evenodd"/><path fill="#000000" fill-opacity="0.0" d="m239.58788 142.62993l45.787033 0l0 -65.60631l45.803528 0" fill-rule="evenodd"/><path stroke="#c2c2c2" stroke-width="2.0" stroke-linejoin="round" stroke-linecap="butt" d="m248.58789 142.62993l36.787018 0l0 -65.60631l45.803528 0" fill-rule="evenodd"/><path fill="#c2c2c2" stroke="#c2c2c2" stroke-width="2.0" stroke-linecap="butt" d="m248.58789 140.41837l-6.0762024 2.211563l6.0762024 2.2115479z" fill-rule="evenodd"/><path fill="#000000" fill-opacity="0.0" d="m331.93195 446.02655l-46.172333 0l0 40.472443l-46.174133 0" fill-rule="evenodd"/><path stroke="#c2c2c2" stroke-width="2.0" stroke-linejoin="round" stroke-linecap="butt" d="m331.93192 446.02652l-46.172302 0l0 40.472443l-37.17415 0" fill-rule="evenodd"/><path fill="#c2c2c2" stroke="#c2c2c2" stroke-width="2.0" stroke-linecap="butt" d="m248.58546 484.2874l-6.076187 2.2115479l6.076187 2.2115784z" fill-rule="evenodd"/><path fill="#000000" fill-opacity="0.0" d="m448.3281 33.278214l71.9556 0l0 174.96063l71.94989 0" fill-rule="evenodd"/><path stroke="#c2c2c2" stroke-width="2.0" stroke-linejoin="round" stroke-linecap="butt" d="m457.3281 33.278214l62.955597 0l0 174.96063l71.94989 0" fill-rule="evenodd"/><path fill="#c2c2c2" stroke="#c2c2c2" stroke-width="2.0" stroke-linecap="butt" d="m457.3281 31.066662l-6.0762024 2.2115517l6.0762024 2.2115555z" fill-rule="evenodd"/><path fill="#000000" fill-opacity="0.0" d="m592.23883 486.51443l-71.570496 0l0 -40.472443l-71.5791 0" fill-rule="evenodd"/><path stroke="#c2c2c2" stroke-width="2.0" stroke-linejoin="round" stroke-linecap="butt" d="m592.23883 486.51443l-71.570496 0l0 -40.472443l-62.5791 0" fill-rule="evenodd"/><path fill="#c2c2c2" stroke="#c2c2c2" stroke-width="2.0" stroke-linecap="butt" d="m458.08923 443.83044l-6.0762024 2.2115479l6.0762024 2.2115479z" fill-rule="evenodd"/><path fill="#1b786e" d="m132.06032 124.2469l0 0c0 -5.0764847 4.1153107 -9.191788 9.191788 -9.191788l89.144 0c2.4378052 0 4.775772 0.96842194 6.4995728 2.692215c1.7237854 1.723793 2.6921997 4.06176 2.6921997 6.4995728l0 36.766037c0 5.076477 -4.1152954 9.191788 -9.191772 9.191788l-89.144 0c-5.076477 0 -9.191788 -4.1153107 -9.191788 -9.191788z" fill-rule="evenodd"/><path fill="#ffffff" d="m165.975 146.08118l-5.546875 0l-1.25 3.46875l-1.8125 0l5.0625 -13.265625l1.53125 0l5.078125 13.265625l-1.796875 0l-1.265625 -3.46875zm-5.03125 -1.4375l4.515625 0l-2.265625 -6.203125l-2.25 6.203125zm11.217163 -4.953125l0.046875 1.234375q1.125 -1.40625 2.953125 -1.40625q3.125 0 3.15625 3.515625l0 6.515625l-1.6875 0l0 -6.515625q-0.015625 -1.078125 -0.5 -1.578125q-0.46875 -0.515625 -1.484375 -0.515625q-0.8125 0 -1.4375 0.4375q-0.609375 0.4375 -0.96875 1.15625l0 7.015625l-1.671875 0l0 -9.859375l1.59375 0zm11.918732 7.390625l2.296875 -7.390625l1.796875 0l-3.953125 11.375q-0.921875 2.46875 -2.921875 2.46875l-0.328125 -0.03125l-0.625 -0.125l0 -1.359375l0.453125 0.03125q0.859375 0 1.328125 -0.34375q0.484375 -0.34375 0.796875 -1.265625l0.375 -1.0l-3.515625 -9.75l1.84375 0l2.453125 7.390625zm10.264603 0.140625l3.78125 -10.9375l1.921875 0l-4.921875 13.265625l-1.546875 0l-4.921875 -13.265625l1.90625 0l3.78125 10.9375zm12.872284 2.328125q-0.140625 -0.296875 -0.234375 -1.03125q-1.171875 1.21875 -2.8125 1.21875q-1.453125 0 -2.390625 -0.828125q-0.921875 -0.828125 -0.921875 -2.09375q0 -1.53125 1.15625 -2.375q1.171875 -0.859375 3.296875 -0.859375l1.640625 0l0 -0.78125q0 -0.890625 -0.53125 -1.40625q-0.515625 -0.53125 -1.546875 -0.53125q-0.90625 0 -1.515625 0.46875q-0.609375 0.453125 -0.609375 1.09375l-1.703125 0q0 -0.734375 0.515625 -1.421875q0.53125 -0.6875 1.421875 -1.078125q0.90625 -0.40625 1.984375 -0.40625q1.703125 0 2.671875 0.859375q0.96875 0.84375 1.0 2.328125l0 4.53125q0 1.359375 0.34375 2.171875l0 0.140625l-1.765625 0zm-2.796875 -1.28125q0.796875 0 1.5 -0.40625q0.71875 -0.421875 1.03125 -1.078125l0 -2.015625l-1.3125 0q-3.109375 0 -3.109375 1.8125q0 0.796875 0.53125 1.25q0.53125 0.4375 1.359375 0.4375zm8.694855 1.28125l-1.6875 0l0 -14.0l1.6875 0l0 14.0z" fill-rule="nonzero"/><path fill="#000000" fill-opacity="0.0" d="m78.29396 276.5853l26.882965 0l0 -133.95274l26.880814 0" fill-rule="evenodd"/><path stroke="#c2c2c2" stroke-width="2.0" stroke-linejoin="round" stroke-linecap="butt" d="m87.29396 276.5853l17.882973 0l0 -133.95274l26.880806 0" fill-rule="evenodd"/><path fill="#c2c2c2" stroke="#c2c2c2" stroke-width="2.0" stroke-linecap="butt" d="m87.29396 274.37375l-6.076195 2.2115479l6.076195 2.2115479z" fill-rule="evenodd"/><path fill="#000000" fill-opacity="0.0" d="m449.08667 388.1665l71.57623 0l0 -179.93701l71.573364 0" fill-rule="evenodd"/><path stroke="#c2c2c2" stroke-width="2.0" stroke-linejoin="round" stroke-linecap="butt" d="m458.0867 388.1665l62.576202 0l0 -179.93701l71.573425 0" fill-rule="evenodd"/><path fill="#c2c2c2" stroke="#c2c2c2" stroke-width="2.0" stroke-linecap="butt" d="m458.0867 385.95496l-6.0762024 2.2115479l6.0762024 2.2115479z" fill-rule="evenodd"/><path fill="#1d7e74" d="m331.16272 110.448715l0 0c0 -2.8498993 2.3103027 -5.160202 5.1602173 -5.160202l106.84494 0c1.3685608 0 2.6810913 0.543663 3.6488037 1.5113907c0.9677429 0.96772003 1.5114136 2.280243 1.5114136 3.6488113l0 20.640213c0 2.8499146 -2.3103027 5.1602173 -5.1602173 5.1602173l-106.84494 0c-2.8499146 0 -5.1602173 -2.3103027 -5.1602173 -5.1602173z" fill-rule="evenodd"/><path fill="#ffffff" d="m376.06198 124.72382l4.9375 0l0 1.125l-6.328125 0l0 -10.421875l1.390625 0l0 9.296875zm5.948822 -2.8125q0 -1.140625 0.4375 -2.046875q0.453125 -0.921875 1.25 -1.40625q0.796875 -0.5 1.828125 -0.5q1.578125 0 2.546875 1.09375q0.984375 1.09375 0.984375 2.921875l0 0.09375q0 1.125 -0.4375 2.03125q-0.4375 0.890625 -1.25 1.390625q-0.796875 0.5 -1.84375 0.5q-1.5625 0 -2.546875 -1.09375q-0.96875 -1.09375 -0.96875 -2.890625l0 -0.09375zm1.328125 0.15625q0 1.28125 0.59375 2.0625q0.59375 0.78125 1.59375 0.78125q1.015625 0 1.609375 -0.78125q0.59375 -0.796875 0.59375 -2.21875q0 -1.28125 -0.609375 -2.0625q-0.59375 -0.796875 -1.59375 -0.796875q-0.984375 0 -1.59375 0.78125q-0.59375 0.78125 -0.59375 2.234375zm8.624268 -3.96875l0.046875 0.984375q0.890625 -1.125 2.3125 -1.125q2.46875 0 2.484375 2.78125l0 5.109375l-1.328125 0l0 -5.125q0 -0.84375 -0.375 -1.234375q-0.375 -0.40625 -1.171875 -0.40625q-0.640625 0 -1.140625 0.34375q-0.484375 0.34375 -0.75 0.90625l0 5.515625l-1.328125 0l0 -7.75l1.25 0zm6.5242004 3.8125q0 -1.8125 0.828125 -2.875q0.84375 -1.078125 2.234375 -1.078125q1.40625 0 2.203125 1.0l0.0625 -0.859375l1.21875 0l0 7.5625q0 1.5 -0.890625 2.3593826q-0.890625 0.875 -2.40625 0.875q-0.828125 0 -1.640625 -0.359375q-0.796875 -0.359375 -1.21875 -0.9843826l0.6875 -0.78125q0.859375 1.046875 2.078125 1.046875q0.96875 0 1.5 -0.546875q0.546875 -0.546875 0.546875 -1.53125l0 -0.65625q-0.78125 0.90625 -2.15625 0.90625q-1.359375 0 -2.203125 -1.09375q-0.84375 -1.09375 -0.84375 -2.984375zm1.328125 0.15625q0 1.3125 0.53125 2.0625q0.546875 0.734375 1.515625 0.734375q1.25 0 1.828125 -1.140625l0 -3.53125q-0.609375 -1.109375 -1.8125 -1.109375q-0.96875 0 -1.515625 0.75q-0.546875 0.75 -0.546875 2.234375z" fill-rule="nonzero"/><path fill="#1d7e74" d="m331.16272 154.19383l0 0c0 -2.8498993 2.3103027 -5.160202 5.1602173 -5.160202l106.84494 0c1.3685608 0 2.6810913 0.54367065 3.6488037 1.511383c0.9677429 0.96772766 1.5114136 2.2802582 1.5114136 3.648819l0 20.640213c0 2.8499146 -2.3103027 5.1602173 -5.1602173 5.1602173l-106.84494 0c-2.8499146 0 -5.1602173 -2.3103027 -5.1602173 -5.1602173z" fill-rule="evenodd"/><path fill="#ffffff" d="m384.00272 169.59395l-1.375 0l0 -10.421875l1.375 0l0 10.421875zm3.548584 -7.75l0.046875 0.984375q0.890625 -1.125 2.3125 -1.125q2.46875 0 2.484375 2.78125l0 5.109375l-1.328125 0l0 -5.125q0 -0.84375 -0.375 -1.234375q-0.375 -0.40625 -1.171875 -0.40625q-0.640625 0 -1.140625 0.34375q-0.484375 0.34375 -0.75 0.90625l0 5.515625l-1.328125 0l0 -7.75l1.25 0zm8.633575 -1.875l0 1.875l1.453125 0l0 1.03125l-1.453125 0l0 4.796875q0 0.46875 0.1875 0.703125q0.203125 0.234375 0.671875 0.234375q0.21875 0 0.625 -0.09375l0 1.078125q-0.53125 0.140625 -1.015625 0.140625q-0.890625 0 -1.34375 -0.53125q-0.453125 -0.546875 -0.453125 -1.53125l0 -4.796875l-1.40625 0l0 -1.03125l1.40625 0l0 -1.875l1.328125 0z" fill-rule="nonzero"/><path fill="#000000" fill-opacity="0.0" d="m239.58788 142.62993l45.787033 0l0 -21.858276l45.803528 0" fill-rule="evenodd"/><path stroke="#c2c2c2" stroke-width="2.0" stroke-linejoin="round" stroke-linecap="butt" d="m248.58789 142.62993l36.787018 0l0 -21.858276l45.803528 0" fill-rule="evenodd"/><path fill="#c2c2c2" stroke="#c2c2c2" stroke-width="2.0" stroke-linecap="butt" d="m248.58789 140.41837l-6.0762024 2.211563l6.0762024 2.2115479z" fill-rule="evenodd"/><path fill="#000000" fill-opacity="0.0" d="m239.58788 142.62993l45.787033 0l0 21.889755l45.803528 0" fill-rule="evenodd"/><path stroke="#c2c2c2" stroke-width="2.0" stroke-linejoin="round" stroke-linecap="butt" d="m248.58789 142.62993l36.787018 0l0 21.889755l45.803528 0" fill-rule="evenodd"/><path fill="#c2c2c2" stroke="#c2c2c2" stroke-width="2.0" stroke-linecap="butt" d="m248.58789 140.41837l-6.0762024 2.211563l6.0762024 2.2115479z" fill-rule="evenodd"/><path fill="#1d7e74" d="m331.92133 197.93753l0 0c0 -2.8498993 2.3103027 -5.160202 5.1602173 -5.160202l106.84491 0c1.3685913 0 2.6810913 0.5436554 3.6488342 1.511383c0.9677124 0.96772766 1.511383 2.2802582 1.511383 3.648819l0 20.640213c0 2.8499146 -2.3103027 5.1602173 -5.1602173 5.1602173l-106.84491 0c-2.8499146 0 -5.1602173 -2.3103027 -5.1602173 -5.1602173z" fill-rule="evenodd"/><path fill="#ffffff" d="m377.1697 208.69702q-1.765625 -0.515625 -2.578125 -1.25q-0.796875 -0.75 -0.796875 -1.828125q0 -1.234375 0.984375 -2.03125q0.984375 -0.8125 2.546875 -0.8125q1.078125 0 1.921875 0.421875q0.84375 0.40625 1.296875 1.140625q0.46875 0.734375 0.46875 1.59375l-1.390625 0q0 -0.9375 -0.609375 -1.484375q-0.59375 -0.546875 -1.6875 -0.546875q-1.015625 0 -1.578125 0.453125q-0.5625 0.453125 -0.5625 1.234375q0 0.640625 0.53125 1.09375q0.546875 0.4375 1.84375 0.796875q1.296875 0.359375 2.03125 0.8125q0.734375 0.4375 1.078125 1.03125q0.359375 0.578125 0.359375 1.375q0 1.265625 -0.984375 2.03125q-0.984375 0.75 -2.640625 0.75q-1.078125 0 -2.015625 -0.40625q-0.921875 -0.421875 -1.421875 -1.125q-0.5 -0.71875 -0.5 -1.625l1.375 0q0 0.9375 0.6875 1.484375q0.703125 0.546875 1.875 0.546875q1.09375 0 1.671875 -0.4375q0.578125 -0.453125 0.578125 -1.21875q0 -0.765625 -0.546875 -1.171875q-0.53125 -0.421875 -1.9375 -0.828125zm6.7418823 -2.171875q0.875 -1.078125 2.28125 -1.078125q2.46875 0 2.484375 2.78125l0 5.109375l-1.328125 0l0 -5.125q0 -0.84375 -0.375 -1.234375q-0.375 -0.40625 -1.171875 -0.40625q-0.640625 0 -1.140625 0.34375q-0.484375 0.34375 -0.75 0.90625l0 5.515625l-1.328125 0l0 -11.0l1.328125 0l0 4.1875zm6.4005127 2.875q0 -1.140625 0.4375 -2.046875q0.453125 -0.921875 1.25 -1.40625q0.796875 -0.5 1.828125 -0.5q1.578125 0 2.546875 1.09375q0.984375 1.09375 0.984375 2.921875l0 0.09375q0 1.125 -0.4375 2.03125q-0.4375 0.890625 -1.25 1.390625q-0.796875 0.5 -1.84375 0.5q-1.5625 0 -2.546875 -1.09375q-0.96875 -1.09375 -0.96875 -2.890625l0 -0.09375zm1.328125 0.15625q0 1.28125 0.59375 2.0625q0.59375 0.78125 1.59375 0.78125q1.015625 0 1.609375 -0.78125q0.59375 -0.796875 0.59375 -2.21875q0 -1.28125 -0.609375 -2.0625q-0.59375 -0.796875 -1.59375 -0.796875q-0.984375 0 -1.59375 0.78125q-0.59375 0.78125 -0.59375 2.234375zm11.124268 -2.78125q-0.3125 -0.046875 -0.65625 -0.046875q-1.296875 0 -1.765625 1.109375l0 5.5l-1.328125 0l0 -7.75l1.296875 0l0.015625 0.90625q0.65625 -1.046875 1.84375 -1.046875q0.390625 0 0.59375 0.109375l0 1.21875zm3.3643188 -3.0625l0 1.875l1.453125 0l0 1.03125l-1.453125 0l0 4.796875q0 0.46875 0.1875 0.703125q0.203125 0.234375 0.671875 0.234375q0.21875 0 0.625 -0.09375l0 1.078125q-0.53125 0.140625 -1.015625 0.140625q-0.890625 0 -1.34375 -0.53125q-0.453125 -0.546875 -0.453125 -1.53125l0 -4.796875l-1.40625 0l0 -1.03125l1.40625 0l0 -1.875l1.328125 0z" fill-rule="nonzero"/><path fill="#1d7e74" d="m331.92133 241.68265l0 0c0 -2.8498993 2.3103027 -5.160202 5.1602173 -5.160202l106.84491 0c1.3685913 0 2.6810913 0.54367065 3.6488342 1.5113983c0.9677124 0.9677124 1.511383 2.280243 1.511383 3.6488037l0 20.640228c0 2.849884 -2.3103027 5.160187 -5.1602173 5.160187l-106.84491 0c-2.8499146 0 -5.1602173 -2.3103027 -5.1602173 -5.160187z" fill-rule="evenodd"/><path fill="#ffffff" d="m377.40155 257.08276l0 -10.421875l3.40625 0q1.703125 0 2.546875 0.703125q0.859375 0.703125 0.859375 2.078125q0 0.734375 -0.421875 1.296875q-0.40625 0.546875 -1.125 0.859375q0.859375 0.234375 1.34375 0.90625q0.484375 0.65625 0.484375 1.578125q0 1.390625 -0.90625 2.203125q-0.90625 0.796875 -2.5625 0.796875l-3.625 0zm1.375 -4.875l0 3.75l2.28125 0q0.953125 0 1.5 -0.5q0.5625 -0.5 0.5625 -1.359375q0 -1.890625 -2.046875 -1.890625l-2.296875 0zm0 -1.09375l2.078125 0q0.90625 0 1.4375 -0.453125q0.546875 -0.453125 0.546875 -1.234375q0 -0.859375 -0.5 -1.234375q-0.5 -0.390625 -1.53125 -0.390625l-2.03125 0l0 3.3125zm10.077484 4.03125l1.8125 -5.8125l1.40625 0l-3.109375 8.9375q-0.71875 1.9375 -2.296875 1.9375l-0.25 -0.015625l-0.5 -0.09375l0 -1.078125l0.359375 0.03125q0.671875 0 1.046875 -0.28125q0.390625 -0.265625 0.625 -0.984375l0.296875 -0.78125l-2.765625 -7.671875l1.453125 0l1.921875 5.8125zm6.200165 -7.6875l0 1.875l1.453125 0l0 1.03125l-1.453125 0l0 4.796875q0 0.46875 0.1875 0.703125q0.203125 0.234375 0.671875 0.234375q0.21875 0 0.625 -0.09375l0 1.078125q-0.53125 0.140625 -1.015625 0.140625q-0.890625 0 -1.34375 -0.53125q-0.453125 -0.546875 -0.453125 -1.53125l0 -4.796875l-1.40625 0l0 -1.03125l1.40625 0l0 -1.875l1.328125 0zm6.2094727 9.765625q-1.578125 0 -2.5625 -1.03125q-0.984375 -1.03125 -0.984375 -2.765625l0 -0.25q0 -1.140625 0.4375 -2.046875q0.4375 -0.90625 1.21875 -1.421875q0.796875 -0.515625 1.71875 -0.515625q1.515625 0 2.34375 1.0q0.84375 1.0 0.84375 2.84375l0 0.546875l-5.25 0q0.03125 1.15625 0.671875 1.859375q0.640625 0.703125 1.625 0.703125q0.703125 0 1.1875 -0.28125q0.5 -0.296875 0.859375 -0.765625l0.8125 0.625q-0.984375 1.5 -2.921875 1.5zm-0.171875 -6.9375q-0.796875 0 -1.34375 0.59375q-0.546875 0.578125 -0.671875 1.625l3.875 0l0 -0.109375q-0.046875 -1.0 -0.546875 -1.546875q-0.484375 -0.5625 -1.3125 -0.5625z" fill-rule="nonzero"/><path fill="#1d7e74" d="m331.92133 285.42813l0 0c0 -2.849884 2.3103027 -5.160187 5.1602173 -5.160187l106.84491 0c1.3685913 0 2.6810913 0.54364014 3.6488342 1.511383c0.9677124 0.9677124 1.511383 2.280243 1.511383 3.6488037l0 20.640228c0 2.8499146 -2.3103027 5.1602173 -5.1602173 5.1602173l-106.84491 0c-2.8499146 0 -5.1602173 -2.3103027 -5.1602173 -5.1602173z" fill-rule="evenodd"/><path fill="#ffffff" d="m386.08353 290.40637l0 7.09375q-0.015625 1.46875 -0.9375 2.40625q-0.90625 0.9375 -2.484375 1.046875l-0.359375 0.015625q-1.71875 0 -2.734375 -0.921875q-1.015625 -0.921875 -1.03125 -2.546875l0 -7.09375l1.359375 0l0 7.0625q0 1.125 0.625 1.75q0.625 0.625 1.78125 0.625q1.15625 0 1.765625 -0.609375q0.625 -0.625 0.625 -1.765625l0 -7.0625l1.390625 0zm3.206787 2.671875l0.046875 0.984375q0.890625 -1.125 2.3125 -1.125q2.46875 0 2.484375 2.78125l0 5.109375l-1.328125 0l0 -5.125q0 -0.84375 -0.375 -1.234375q-0.375 -0.40625 -1.171875 -0.40625q-0.640625 0 -1.140625 0.34375q-0.484375 0.34375 -0.75 0.90625l0 5.515625l-1.328125 0l0 -7.75l1.25 0zm8.2742 7.75l-1.328125 0l0 -7.75l1.328125 0l0 7.75zm-1.421875 -9.796875q0 -0.328125 0.1875 -0.546875q0.203125 -0.21875 0.578125 -0.21875q0.390625 0 0.59375 0.21875q0.203125 0.21875 0.203125 0.546875q0 0.328125 -0.203125 0.546875q-0.203125 0.203125 -0.59375 0.203125q-0.375 0 -0.578125 -0.203125q-0.1875 -0.21875 -0.1875 -0.546875zm5.337982 0.171875l0 1.875l1.453125 0l0 1.03125l-1.453125 0l0 4.796875q0 0.46875 0.1875 0.703125q0.203125 0.234375 0.671875 0.234375q0.21875 0 0.625 -0.09375l0 1.078125q-0.53125 0.140625 -1.015625 0.140625q-0.890625 0 -1.34375 -0.53125q-0.453125 -0.546875 -0.453125 -1.53125l0 -4.796875l-1.40625 0l0 -1.03125l1.40625 0l0 -1.875l1.328125 0z" fill-rule="nonzero"/><path fill="#1d7e74" d="m331.92133 329.17328l0 0c0 -2.8499146 2.3103027 -5.1602173 5.1602173 -5.1602173l106.84491 0c1.3685913 0 2.6810913 0.54367065 3.6488342 1.511383c0.9677124 0.9677429 1.511383 2.280243 1.511383 3.6488342l0 20.640198c0 2.8499146 -2.3103027 5.1602173 -5.1602173 5.1602173l-106.84491 0c-2.8499146 0 -5.1602173 -2.3103027 -5.1602173 -5.1602173z" fill-rule="evenodd"/><path fill="#ffffff" d="m365.09616 344.57336l0 -10.421875l3.40625 0q1.703125 0 2.546875 0.703125q0.859375 0.703125 0.859375 2.078125q0 0.734375 -0.421875 1.296875q-0.40625 0.546875 -1.125 0.859375q0.859375 0.234375 1.34375 0.90625q0.484375 0.65625 0.484375 1.578125q0 1.390625 -0.90625 2.203125q-0.90625 0.796875 -2.5625 0.796875l-3.625 0zm1.375 -4.875l0 3.75l2.28125 0q0.953125 0 1.5 -0.5q0.5625 -0.5 0.5625 -1.359375q0 -1.890625 -2.046875 -1.890625l-2.296875 0zm0 -1.09375l2.078125 0q0.90625 0 1.4375 -0.453125q0.546875 -0.453125 0.546875 -1.234375q0 -0.859375 -0.5 -1.234375q-0.5 -0.390625 -1.53125 -0.390625l-2.03125 0l0 3.3125zm7.202484 2.03125q0 -1.140625 0.4375 -2.046875q0.453125 -0.921875 1.25 -1.40625q0.796875 -0.5 1.828125 -0.5q1.578125 0 2.546875 1.09375q0.984375 1.09375 0.984375 2.921875l0 0.09375q0 1.125 -0.4375 2.03125q-0.4375 0.890625 -1.25 1.390625q-0.796875 0.5 -1.84375 0.5q-1.5625 0 -2.546875 -1.09375q-0.96875 -1.09375 -0.96875 -2.890625l0 -0.09375zm1.328125 0.15625q0 1.28125 0.59375 2.0625q0.59375 0.78125 1.59375 0.78125q1.015625 0 1.609375 -0.78125q0.59375 -0.796875 0.59375 -2.21875q0 -1.28125 -0.609375 -2.0625q-0.59375 -0.796875 -1.59375 -0.796875q-0.984375 0 -1.59375 0.78125q-0.59375 0.78125 -0.59375 2.234375zm7.0305176 -0.15625q0 -1.140625 0.4375 -2.046875q0.453125 -0.921875 1.25 -1.40625q0.796875 -0.5 1.828125 -0.5q1.578125 0 2.546875 1.09375q0.984375 1.09375 0.984375 2.921875l0 0.09375q0 1.125 -0.4375 2.03125q-0.4375 0.890625 -1.25 1.390625q-0.796875 0.5 -1.84375 0.5q-1.5625 0 -2.546875 -1.09375q-0.96875 -1.09375 -0.96875 -2.890625l0 -0.09375zm1.328125 0.15625q0 1.28125 0.59375 2.0625q0.59375 0.78125 1.59375 0.78125q1.015625 0 1.609375 -0.78125q0.59375 -0.796875 0.59375 -2.21875q0 -1.28125 -0.609375 -2.0625q-0.59375 -0.796875 -1.59375 -0.796875q-0.984375 0 -1.59375 0.78125q-0.59375 0.78125 -0.59375 2.234375zm8.811768 3.78125l-1.328125 0l0 -11.0l1.328125 0l0 11.0zm5.337982 0.140625q-1.578125 0 -2.5625 -1.03125q-0.984375 -1.03125 -0.984375 -2.765625l0 -0.25q0 -1.140625 0.4375 -2.046875q0.4375 -0.90625 1.21875 -1.421875q0.796875 -0.515625 1.71875 -0.515625q1.515625 0 2.34375 1.0q0.84375 1.0 0.84375 2.84375l0 0.546875l-5.25 0q0.03125 1.15625 0.671875 1.859375q0.640625 0.703125 1.625 0.703125q0.703125 0 1.1875 -0.28125q0.5 -0.296875 0.859375 -0.765625l0.8125 0.625q-0.984375 1.5 -2.921875 1.5zm-0.171875 -6.9375q-0.796875 0 -1.34375 0.59375q-0.546875 0.578125 -0.671875 1.625l3.875 0l0 -0.109375q-0.046875 -1.0 -0.546875 -1.546875q-0.484375 -0.5625 -1.3125 -0.5625zm9.499023 6.796875q-0.109375 -0.234375 -0.1875 -0.8125q-0.921875 0.953125 -2.203125 0.953125q-1.140625 0 -1.875 -0.640625q-0.734375 -0.65625 -0.734375 -1.640625q0 -1.21875 0.921875 -1.875q0.921875 -0.671875 2.578125 -0.671875l1.296875 0l0 -0.609375q0 -0.703125 -0.421875 -1.109375q-0.40625 -0.40625 -1.21875 -0.40625q-0.703125 0 -1.1875 0.359375q-0.484375 0.34375 -0.484375 0.859375l-1.328125 0q0 -0.578125 0.40625 -1.109375q0.421875 -0.546875 1.125 -0.859375q0.703125 -0.328125 1.546875 -0.328125q1.34375 0 2.09375 0.671875q0.765625 0.671875 0.796875 1.84375l0 3.5625q0 1.0625 0.265625 1.703125l0 0.109375l-1.390625 0zm-2.203125 -1.015625q0.625 0 1.1875 -0.3125q0.5625 -0.328125 0.8125 -0.84375l0 -1.578125l-1.046875 0q-2.421875 0 -2.421875 1.421875q0 0.625 0.40625 0.96875q0.421875 0.34375 1.0625 0.34375zm6.6440735 -6.734375l0.046875 0.984375q0.890625 -1.125 2.3125 -1.125q2.46875 0 2.484375 2.78125l0 5.109375l-1.328125 0l0 -5.125q0 -0.84375 -0.375 -1.234375q-0.375 -0.40625 -1.171875 -0.40625q-0.640625 0 -1.140625 0.34375q-0.484375 0.34375 -0.75 0.90625l0 5.515625l-1.328125 0l0 -7.75l1.25 0z" fill-rule="nonzero"/><path fill="#1d7e74" d="m331.92133 377.84637l0 0c0 -2.849884 2.3103027 -5.160187 5.1602173 -5.160187l106.84491 0c1.3685913 0 2.6810913 0.54364014 3.6488342 1.511383c0.9677124 0.9677124 1.511383 2.280243 1.511383 3.6488037l0 20.640228c0 2.8499146 -2.3103027 5.1602173 -5.1602173 5.1602173l-106.84491 0c-2.8499146 0 -5.1602173 -2.3103027 -5.1602173 -5.1602173z" fill-rule="evenodd"/><path fill="#ffffff" d="m384.1073 389.934q-0.1875 1.65625 -1.21875 2.5625q-1.03125 0.890625 -2.734375 0.890625q-1.84375 0 -2.953125 -1.3125q-1.109375 -1.328125 -1.109375 -3.546875l0 -1.0q0 -1.453125 0.515625 -2.546875q0.515625 -1.109375 1.46875 -1.703125q0.953125 -0.59375 2.203125 -0.59375q1.65625 0 2.65625 0.9375q1.0 0.921875 1.171875 2.546875l-1.375 0q-0.1875 -1.234375 -0.78125 -1.796875q-0.59375 -0.5625 -1.671875 -0.5625q-1.3125 0 -2.0625 0.984375q-0.75 0.96875 -0.75 2.765625l0 1.0q0 1.703125 0.703125 2.703125q0.71875 1.0 1.984375 1.0q1.140625 0 1.75 -0.515625q0.625 -0.515625 0.828125 -1.8125l1.375 0zm2.9925842 -3.5q0.875 -1.078125 2.28125 -1.078125q2.46875 0 2.484375 2.78125l0 5.109375l-1.328125 0l0 -5.125q0 -0.84375 -0.375 -1.234375q-0.375 -0.40625 -1.171875 -0.40625q-0.640625 0 -1.140625 0.34375q-0.484375 0.34375 -0.75 0.90625l0 5.515625l-1.328125 0l0 -11.0l1.328125 0l0 4.1875zm11.525513 6.8125q-0.109375 -0.234375 -0.1875 -0.8125q-0.921875 0.953125 -2.203125 0.953125q-1.140625 0 -1.875 -0.640625q-0.734375 -0.65625 -0.734375 -1.640625q0 -1.21875 0.921875 -1.875q0.921875 -0.671875 2.578125 -0.671875l1.296875 0l0 -0.609375q0 -0.703125 -0.421875 -1.109375q-0.40625 -0.40625 -1.21875 -0.40625q-0.703125 0 -1.1875 0.359375q-0.484375 0.34375 -0.484375 0.859375l-1.328125 0q0 -0.578125 0.40625 -1.109375q0.421875 -0.546875 1.125 -0.859375q0.703125 -0.328125 1.546875 -0.328125q1.34375 0 2.09375 0.671875q0.765625 0.671875 0.796875 1.84375l0 3.5625q0 1.0625 0.265625 1.703125l0 0.109375l-1.390625 0zm-2.203125 -1.015625q0.625 0 1.1875 -0.3125q0.5625 -0.328125 0.8125 -0.84375l0 -1.578125l-1.046875 0q-2.421875 0 -2.421875 1.421875q0 0.625 0.40625 0.96875q0.421875 0.34375 1.0625 0.34375zm9.1440735 -5.546875q-0.3125 -0.046875 -0.65625 -0.046875q-1.296875 0 -1.765625 1.109375l0 5.5l-1.328125 0l0 -7.75l1.296875 0l0.015625 0.90625q0.65625 -1.046875 1.84375 -1.046875q0.390625 0 0.59375 0.109375l0 1.21875z" fill-rule="nonzero"/><path fill="#1d7e74" d="m331.93195 475.95856l0 0c0 -2.8499146 2.3103027 -5.1602173 5.160187 -5.1602173l106.84494 0c1.3685913 0 2.6810913 0.54367065 3.6488342 1.5114136c0.9677124 0.9677124 1.511383 2.280243 1.511383 3.6488037l0 20.640228c0 2.849884 -2.3103027 5.160187 -5.1602173 5.160187l-106.84494 0c-2.849884 0 -5.160187 -2.3103027 -5.160187 -5.160187z" fill-rule="evenodd"/><path fill="#ffffff" d="m378.1891 486.48367q0 1.53125 -0.515625 2.671875q-0.515625 1.140625 -1.453125 1.75q-0.9375 0.59375 -2.203125 0.59375q-1.234375 0 -2.1875 -0.59375q-0.953125 -0.609375 -1.484375 -1.734375q-0.515625 -1.125 -0.53125 -2.59375l0 -0.75q0 -1.5 0.515625 -2.65625q0.53125 -1.15625 1.484375 -1.765625q0.953125 -0.609375 2.1875 -0.609375q1.25 0 2.203125 0.609375q0.953125 0.59375 1.46875 1.75q0.515625 1.140625 0.515625 2.671875l0 0.65625zm-1.359375 -0.671875q0 -1.859375 -0.75 -2.84375q-0.734375 -0.984375 -2.078125 -0.984375q-1.296875 0 -2.046875 0.984375q-0.75 0.984375 -0.765625 2.75l0 0.765625q0 1.796875 0.75 2.828125q0.75 1.03125 2.078125 1.03125q1.328125 0 2.0625 -0.96875q0.734375 -0.984375 0.75 -2.78125l0 -0.78125zm9.763672 1.765625q0 1.765625 -0.8125 2.84375q-0.8125 1.078125 -2.1875 1.078125q-1.40625 0 -2.21875 -0.890625l0 3.734375l-1.328125 0l0 -10.734375l1.21875 0l0.0625 0.859375q0.796875 -1.0 2.234375 -1.0q1.40625 0 2.21875 1.0625q0.8125 1.046875 0.8125 2.921875l0 0.125zm-1.328125 -0.15625q0 -1.3125 -0.5625 -2.0625q-0.546875 -0.765625 -1.53125 -0.765625q-1.203125 0 -1.796875 1.0625l0 3.703125q0.59375 1.0625 1.8125 1.0625q0.953125 0 1.515625 -0.75q0.5625 -0.765625 0.5625 -2.25zm4.800812 -5.6875l0 1.875l1.453125 0l0 1.03125l-1.453125 0l0 4.796875q0 0.46875 0.1875 0.703125q0.203125 0.234375 0.671875 0.234375q0.21875 0 0.625 -0.09375l0 1.078125q-0.53125 0.140625 -1.015625 0.140625q-0.890625 0 -1.34375 -0.53125q-0.453125 -0.546875 -0.453125 -1.53125l0 -4.796875l-1.40625 0l0 -1.03125l1.40625 0l0 -1.875l1.328125 0zm4.4282227 9.625l-1.328125 0l0 -7.75l1.328125 0l0 7.75zm-1.421875 -9.796875q0 -0.328125 0.1875 -0.546875q0.203125 -0.21875 0.578125 -0.21875q0.390625 0 0.59375 0.21875q0.203125 0.21875 0.203125 0.546875q0 0.328125 -0.203125 0.546875q-0.203125 0.203125 -0.59375 0.203125q-0.375 0 -0.578125 -0.203125q-0.1875 -0.21875 -0.1875 -0.546875zm3.1973572 5.859375q0 -1.140625 0.4375 -2.046875q0.453125 -0.921875 1.25 -1.40625q0.796875 -0.5 1.828125 -0.5q1.578125 0 2.546875 1.09375q0.984375 1.09375 0.984375 2.921875l0 0.09375q0 1.125 -0.4375 2.03125q-0.4375 0.890625 -1.25 1.390625q-0.796875 0.5 -1.84375 0.5q-1.5625 0 -2.546875 -1.09375q-0.96875 -1.09375 -0.96875 -2.890625l0 -0.09375zm1.328125 0.15625q0 1.28125 0.59375 2.0625q0.59375 0.78125 1.59375 0.78125q1.015625 0 1.609375 -0.78125q0.59375 -0.796875 0.59375 -2.21875q0 -1.28125 -0.609375 -2.0625q-0.59375 -0.796875 -1.59375 -0.796875q-0.984375 0 -1.59375 0.78125q-0.59375 0.78125 -0.59375 2.234375zm8.624268 -3.96875l0.046875 0.984375q0.890625 -1.125 2.3125 -1.125q2.46875 0 2.484375 2.78125l0 5.109375l-1.328125 0l0 -5.125q0 -0.84375 -0.375 -1.234375q-0.375 -0.40625 -1.171875 -0.40625q-0.640625 0 -1.140625 0.34375q-0.484375 0.34375 -0.75 0.90625l0 5.515625l-1.328125 0l0 -7.75l1.25 0z" fill-rule="nonzero"/><path fill="#1d7e74" d="m331.93195 517.1314l0 0c0 -2.8499146 2.3103027 -5.1602173 5.160187 -5.1602173l106.84494 0c1.3685913 0 2.6810913 0.54364014 3.6488342 1.5114136c0.9677124 0.9677124 1.511383 2.2802124 1.511383 3.6488037l0 20.640198c0 2.8499146 -2.3103027 5.1602173 -5.1602173 5.1602173l-106.84494 0c-2.849884 0 -5.160187 -2.3103027 -5.160187 -5.1602173z" fill-rule="evenodd"/><path fill="#ffffff" d="m361.94672 527.344l2.71875 -5.234375l1.5625 0l-3.59375 6.53125l0 3.890625l-1.375 0l0 -3.890625l-3.59375 -6.53125l1.578125 0l2.703125 5.234375zm4.602478 1.25q0 -1.140625 0.4375 -2.046875q0.453125 -0.921875 1.25 -1.40625q0.796875 -0.5 1.828125 -0.5q1.578125 0 2.546875 1.09375q0.984375 1.09375 0.984375 2.921875l0 0.09375q0 1.125 -0.4375 2.03125q-0.4375 0.890625 -1.25 1.390625q-0.796875 0.5 -1.84375 0.5q-1.5625 0 -2.546875 -1.09375q-0.96875 -1.09375 -0.96875 -2.890625l0 -0.09375zm1.328125 0.15625q0 1.28125 0.59375 2.0625q0.59375 0.78125 1.59375 0.78125q1.015625 0 1.609375 -0.78125q0.59375 -0.796875 0.59375 -2.21875q0 -1.28125 -0.609375 -2.0625q-0.59375 -0.796875 -1.59375 -0.796875q-0.984375 0 -1.59375 0.78125q-0.59375 0.78125 -0.59375 2.234375zm12.155518 3.015625q-0.765625 0.90625 -2.265625 0.90625q-1.234375 0 -1.890625 -0.71875q-0.640625 -0.71875 -0.65625 -2.125l0 -5.046875l1.328125 0l0 5.015625q0 1.75 1.4375 1.75q1.515625 0 2.015625 -1.125l0 -5.640625l1.328125 0l0 7.75l-1.265625 0l-0.03125 -0.765625zm7.048279 -5.796875q-0.3125 -0.046875 -0.65625 -0.046875q-1.296875 0 -1.765625 1.109375l0 5.5l-1.328125 0l0 -7.75l1.296875 0l0.015625 0.90625q0.65625 -1.046875 1.84375 -1.046875q0.390625 0 0.59375 0.109375l0 1.21875zm9.084381 3.25q-0.1875 1.65625 -1.21875 2.5625q-1.03125 0.890625 -2.734375 0.890625q-1.84375 0 -2.953125 -1.3125q-1.109375 -1.328125 -1.109375 -3.546875l0 -1.0q0 -1.453125 0.515625 -2.546875q0.515625 -1.109375 1.46875 -1.703125q0.953125 -0.59375 2.203125 -0.59375q1.65625 0 2.65625 0.9375q1.0 0.921875 1.171875 2.546875l-1.375 0q-0.1875 -1.234375 -0.78125 -1.796875q-0.59375 -0.5625 -1.671875 -0.5625q-1.3125 0 -2.0625 0.984375q-0.75 0.96875 -0.75 2.765625l0 1.0q0 1.703125 0.703125 2.703125q0.71875 1.0 1.984375 1.0q1.140625 0 1.75 -0.515625q0.625 -0.515625 0.828125 -1.8125l1.375 0zm3.1019287 3.3125l-1.328125 0l0 -11.0l1.328125 0l0 11.0zm6.900482 0q-0.109375 -0.234375 -0.1875 -0.8125q-0.921875 0.953125 -2.203125 0.953125q-1.140625 0 -1.875 -0.640625q-0.734375 -0.65625 -0.734375 -1.640625q0 -1.21875 0.921875 -1.875q0.921875 -0.671875 2.578125 -0.671875l1.296875 0l0 -0.609375q0 -0.703125 -0.421875 -1.109375q-0.40625 -0.40625 -1.21875 -0.40625q-0.703125 0 -1.1875 0.359375q-0.484375 0.34375 -0.484375 0.859375l-1.328125 0q0 -0.578125 0.40625 -1.109375q0.421875 -0.546875 1.125 -0.859375q0.703125 -0.328125 1.546875 -0.328125q1.34375 0 2.09375 0.671875q0.765625 0.671875 0.796875 1.84375l0 3.5625q0 1.0625 0.265625 1.703125l0 0.109375l-1.390625 0zm-2.203125 -1.015625q0.625 0 1.1875 -0.3125q0.5625 -0.328125 0.8125 -0.84375l0 -1.578125l-1.046875 0q-2.421875 0 -2.421875 1.421875q0 0.625 0.40625 0.96875q0.421875 0.34375 1.0625 0.34375zm9.9096985 -1.03125q0 -0.546875 -0.40625 -0.84375q-0.40625 -0.296875 -1.421875 -0.5q-1.0 -0.21875 -1.59375 -0.515625q-0.578125 -0.3125 -0.875 -0.71875q-0.28125 -0.421875 -0.28125 -1.0q0 -0.9375 0.8125 -1.59375q0.8125 -0.671875 2.0625 -0.671875q1.3125 0 2.125 0.6875q0.828125 0.671875 0.828125 1.734375l-1.328125 0q0 -0.546875 -0.46875 -0.9375q-0.453125 -0.390625 -1.15625 -0.390625q-0.734375 0 -1.140625 0.3125q-0.40625 0.3125 -0.40625 0.828125q0 0.46875 0.375 0.71875q0.390625 0.25 1.375 0.46875q1.0 0.21875 1.609375 0.53125q0.609375 0.296875 0.90625 0.734375q0.296875 0.4375 0.296875 1.0625q0 1.03125 -0.828125 1.65625q-0.828125 0.625 -2.15625 0.625q-0.921875 0 -1.640625 -0.328125q-0.71875 -0.328125 -1.125 -0.921875q-0.390625 -0.59375 -0.390625 -1.28125l1.3125 0q0.046875 0.671875 0.53125 1.0625q0.5 0.390625 1.3125 0.390625q0.75 0 1.203125 -0.296875q0.46875 -0.3125 0.46875 -0.8125zm7.557129 0q0 -0.546875 -0.40625 -0.84375q-0.40625 -0.296875 -1.421875 -0.5q-1.0 -0.21875 -1.59375 -0.515625q-0.578125 -0.3125 -0.875 -0.71875q-0.28125 -0.421875 -0.28125 -1.0q0 -0.9375 0.8125 -1.59375q0.8125 -0.671875 2.0625 -0.671875q1.3125 0 2.125 0.6875q0.828125 0.671875 0.828125 1.734375l-1.328125 0q0 -0.546875 -0.46875 -0.9375q-0.453125 -0.390625 -1.15625 -0.390625q-0.734375 0 -1.140625 0.3125q-0.40625 0.3125 -0.40625 0.828125q0 0.46875 0.375 0.71875q0.390625 0.25 1.375 0.46875q1.0 0.21875 1.609375 0.53125q0.609375 0.296875 0.90625 0.734375q0.296875 0.4375 0.296875 1.0625q0 1.03125 -0.828125 1.65625q-0.828125 0.625 -2.15625 0.625q-0.921875 0 -1.640625 -0.328125q-0.71875 -0.328125 -1.125 -0.921875q-0.390625 -0.59375 -0.390625 -1.28125l1.3125 0q0.046875 0.671875 0.53125 1.0625q0.5 0.390625 1.3125 0.390625q0.75 0 1.203125 -0.296875q0.46875 -0.3125 0.46875 -0.8125z" fill-rule="nonzero"/><path fill="#155b54" d="m601.4306 399.5328l0 0c-5.076477 0 -9.191772 -4.1152954 -9.191772 -9.191772l0 -364.19913c0 -2.4378128 0.9684448 -4.7757797 2.6921997 -6.4995728c1.7238159 -1.7237949 4.0617676 -2.692213 6.4995728 -2.692213l36.766052 0c5.076477 0 9.191772 4.115303 9.191772 9.191786l0 364.19913c0 5.076477 -4.1152954 9.191772 -9.191772 9.191772z" fill-rule="evenodd"/><path fill="#ffffff" d="m626.73364 229.30583l0 1.765625l-10.21875 6.671875l10.21875 0l0 1.75l-13.265625 0l0 -1.75l10.265625 -6.703125l-10.265625 0l0 -1.734375l13.265625 0zm-5.015625 -2.3936157q-1.453125 0 -2.609375 -0.5625q-1.15625 -0.578125 -1.78125 -1.59375q-0.625 -1.015625 -0.625 -2.3125q0 -2.015625 1.390625 -3.25q1.390625 -1.25 3.703125 -1.25l0.125 0q1.4375 0 2.578125 0.546875q1.140625 0.546875 1.78125 1.578125q0.640625 1.015625 0.640625 2.359375q0 2.0 -1.390625 3.25q-1.40625 1.234375 -3.703125 1.234375l-0.109375 0zm0.203125 -1.6875q1.640625 0 2.640625 -0.765625q0.984375 -0.765625 0.984375 -2.03125q0 -1.296875 -1.0 -2.046875q-1.015625 -0.75 -2.828125 -0.75q-1.625 0 -2.625 0.765625q-1.015625 0.765625 -1.015625 2.046875q0 1.25 1.0 2.015625q0.984375 0.765625 2.84375 0.765625zm-7.4375 -11.686768l2.390625 0l0 -1.84375l1.3125 0l0 1.84375l6.109375 0q0.59375 0 0.890625 -0.234375q0.296875 -0.25 0.296875 -0.84375q0 -0.296875 -0.109375 -0.8125l1.359375 0q0.1875 0.671875 0.1875 1.296875q0 1.125 -0.6875 1.703125q-0.6875 0.578125 -1.9375 0.578125l-6.109375 0l0 1.796875l-1.3125 0l0 -1.796875l-2.390625 0l0 -1.6875zm3.59375 -5.4848785q-1.375 -1.125 -1.375 -2.921875q0 -3.125 3.515625 -3.15625l6.515625 0l0 1.6875l-6.515625 0q-1.078125 0.015625 -1.578125 0.5q-0.515625 0.46875 -0.515625 1.484375q0 0.8125 0.4375 1.4375q0.4375 0.609375 1.15625 0.96875l7.015625 0l0 1.671875l-14.0 0l0 -1.671875l5.34375 0zm8.65625 -10.431763l0 1.6875l-9.859375 0l0 -1.6875l9.859375 0zm-12.46875 1.828125q-0.40625 0 -0.6875 -0.25q-0.296875 -0.25 -0.296875 -0.734375q0 -0.5 0.296875 -0.75q0.28125 -0.265625 0.6875 -0.265625q0.40625 0 0.6875 0.265625q0.265625 0.25 0.265625 0.75q0 0.484375 -0.265625 0.734375q-0.28125 0.25 -0.6875 0.25zm2.609375 -6.12117l1.234375 -0.046875q-1.40625 -1.125 -1.40625 -2.953125q0 -3.125 3.515625 -3.15625l6.515625 0l0 1.6875l-6.515625 0q-1.078125 0.015625 -1.578125 0.5q-0.515625 0.46875 -0.515625 1.484375q0 0.8125 0.4375 1.4375q0.4375 0.609375 1.15625 0.96875l7.015625 0l0 1.671875l-9.859375 0l0 -1.59375zm4.84375 -8.293732q-2.296875 0 -3.65625 -1.0625q-1.359375 -1.0625 -1.359375 -2.828125q0 -1.796875 1.265625 -2.8125l-1.09375 -0.078125l0 -1.546875l9.625 0q1.90625 0 3.0 1.140625q1.109375 1.125 1.109375 3.046875q0 1.0625 -0.453125 2.09375q-0.453125 1.015625 -1.25 1.546875l-1.0 -0.875q1.328125 -1.078125 1.328125 -2.65625q0 -1.21875 -0.6875 -1.90625q-0.6875 -0.6875 -1.953125 -0.6875l-0.84375 0q1.171875 1.0 1.171875 2.75q0 1.734375 -1.390625 2.8125q-1.40625 1.0625 -3.8125 1.0625zm0.203125 -1.6875q1.65625 0 2.609375 -0.6875q0.953125 -0.6875 0.953125 -1.921875q0 -1.59375 -1.453125 -2.328125l-4.5 0q-1.40625 0.765625 -1.40625 2.3125q0 1.234375 0.953125 1.9375q0.953125 0.6875 2.84375 0.6875z" fill-rule="nonzero"/><path fill="#155b54" d="m601.4306 541.0971l0 0c-5.076477 0 -9.191772 -4.1152954 -9.191772 -9.191772l0 -90.7818c0 -2.4378052 0.9684448 -4.775757 2.6921997 -6.4995728c1.7238159 -1.7237854 4.0617676 -2.6921997 6.4995728 -2.6921997l36.766052 0c5.076477 0 9.191772 4.1152954 9.191772 9.191772l0 90.7818c0 5.076477 -4.1152954 9.191772 -9.191772 9.191772z" fill-rule="evenodd"/><path fill="#ffffff" d="m626.73364 491.09973l0 1.765625l-10.21875 6.671875l10.21875 0l0 1.75l-13.265625 0l0 -1.75l10.265625 -6.703125l-10.265625 0l0 -1.734375l13.265625 0zm-0.96875 -8.924866q1.15625 0.984375 1.15625 2.890625q0 1.578125 -0.921875 2.40625q-0.921875 0.8125 -2.703125 0.828125l-6.421875 0l0 -1.6875l6.375 0q2.234375 0 2.234375 -1.828125q0 -1.921875 -1.4375 -2.5625l-7.171875 0l0 -1.6875l9.859375 0l0 1.609375l-0.96875 0.03125zm0.96875 -6.0346375l0 1.6875l-14.0 0l0 -1.6875l14.0 0zm0 -4.527405l0 1.6875l-14.0 0l0 -1.6875l14.0 0z" fill-rule="nonzero"/><path fill="#000000" fill-opacity="0.0" d="m592.23883 486.51443l-71.570496 0l0 -0.22045898l-71.5791 0" fill-rule="evenodd"/><path stroke="#c2c2c2" stroke-width="2.0" stroke-linejoin="round" stroke-linecap="butt" d="m592.23883 486.51443l-71.570496 0l0 -0.22045898l-62.5791 0" fill-rule="evenodd"/><path fill="#c2c2c2" stroke="#c2c2c2" stroke-width="2.0" stroke-linecap="butt" d="m458.08923 484.0824l-6.0762024 2.2115784l6.0762024 2.2115479z" fill-rule="evenodd"/><path fill="#000000" fill-opacity="0.0" d="m592.23883 486.51443l-71.570496 0l0 40.944855l-71.5791 0" fill-rule="evenodd"/><path stroke="#c2c2c2" stroke-width="2.0" stroke-linejoin="round" stroke-linecap="butt" d="m592.23883 486.51443l-71.570496 0l0 40.944855l-62.5791 0" fill-rule="evenodd"/><path fill="#c2c2c2" stroke="#c2c2c2" stroke-width="2.0" stroke-linecap="butt" d="m458.08923 525.24774l-6.0762024 2.2115479l6.0762024 2.211609z" fill-rule="evenodd"/><path fill="#000000" fill-opacity="0.0" d="m239.58788 142.62993l46.166763 0l0 65.63779l46.179688 0" fill-rule="evenodd"/><path stroke="#c2c2c2" stroke-width="2.0" stroke-linejoin="round" stroke-linecap="butt" d="m248.58789 142.62993l37.16678 0l0 65.63779l46.179688 0" fill-rule="evenodd"/><path fill="#c2c2c2" stroke="#c2c2c2" stroke-width="2.0" stroke-linecap="butt" d="m248.58789 140.41837l-6.0762024 2.211563l6.0762024 2.2115479z" fill-rule="evenodd"/><path fill="#000000" fill-opacity="0.0" d="m239.58788 142.62993l46.166763 0l0 245.54329l46.179688 0" fill-rule="evenodd"/><path stroke="#c2c2c2" stroke-width="2.0" stroke-linejoin="round" stroke-linecap="butt" d="m248.58789 142.62993l37.16678 0l0 245.54329l46.179688 0" fill-rule="evenodd"/><path fill="#c2c2c2" stroke="#c2c2c2" stroke-width="2.0" stroke-linecap="butt" d="m248.58789 140.41837l-6.0762024 2.211563l6.0762024 2.2115479z" fill-rule="evenodd"/><path fill="#000000" fill-opacity="0.0" d="m239.58788 142.62993l46.166763 0l0 153.13387l46.179688 0" fill-rule="evenodd"/><path stroke="#c2c2c2" stroke-width="2.0" stroke-linejoin="round" stroke-linecap="butt" d="m248.58789 142.62993l37.16678 0l0 153.13387l46.179688 0" fill-rule="evenodd"/><path fill="#c2c2c2" stroke="#c2c2c2" stroke-width="2.0" stroke-linecap="butt" d="m248.58789 140.41837l-6.0762024 2.211563l6.0762024 2.2115479z" fill-rule="evenodd"/><path fill="#000000" fill-opacity="0.0" d="m239.58788 142.62993l46.166763 0l0 196.85039l46.179688 0" fill-rule="evenodd"/><path stroke="#c2c2c2" stroke-width="2.0" stroke-linejoin="round" stroke-linecap="butt" d="m248.58789 142.62993l37.16678 0l0 196.85039l46.179688 0" fill-rule="evenodd"/><path fill="#c2c2c2" stroke="#c2c2c2" stroke-width="2.0" stroke-linecap="butt" d="m248.58789 140.41837l-6.0762024 2.211563l6.0762024 2.2115479z" fill-rule="evenodd"/><path fill="#000000" fill-opacity="0.0" d="m239.58788 142.62993l46.166763 0l0 109.38582l46.179688 0" fill-rule="evenodd"/><path stroke="#c2c2c2" stroke-width="2.0" stroke-linejoin="round" stroke-linecap="butt" d="m248.58789 142.62993l37.16678 0l0 109.38582l46.179688 0" fill-rule="evenodd"/><path fill="#c2c2c2" stroke="#c2c2c2" stroke-width="2.0" stroke-linecap="butt" d="m248.58789 140.41837l-6.0762024 2.211563l6.0762024 2.2115479z" fill-rule="evenodd"/><path fill="#000000" fill-opacity="0.0" d="m331.93195 486.27866l-46.172333 0l0 0.2204895l-46.174133 0" fill-rule="evenodd"/><path stroke="#c2c2c2" stroke-width="2.0" stroke-linejoin="round" stroke-linecap="butt" d="m331.93192 486.27866l-46.172302 0l0 0.2204895l-37.17415 0" fill-rule="evenodd"/><path fill="#c2c2c2" stroke="#c2c2c2" stroke-width="2.0" stroke-linecap="butt" d="m248.58546 484.2876l-6.076187 2.2115479l6.076187 2.2115479z" fill-rule="evenodd"/><path fill="#000000" fill-opacity="0.0" d="m331.93195 527.45154l-46.172333 0l0 -40.944916l-46.174133 0" fill-rule="evenodd"/><path stroke="#c2c2c2" stroke-width="2.0" stroke-linejoin="round" stroke-linecap="butt" d="m331.93192 527.45154l-46.172302 0l0 -40.944885l-37.17415 0" fill-rule="evenodd"/><path fill="#c2c2c2" stroke="#c2c2c2" stroke-width="2.0" stroke-linecap="butt" d="m248.58546 484.29507l-6.076187 2.2115784l6.076187 2.2115479z" fill-rule="evenodd"/><path fill="#000000" fill-opacity="0.0" d="m619.81366 431.93176l0 -32.409454" fill-rule="evenodd"/><path stroke="#b7b7b7" stroke-width="2.0" stroke-linejoin="round" stroke-linecap="butt" d="m619.81366 431.93176l0 -20.409454" fill-rule="evenodd"/><path fill="#b7b7b7" stroke="#b7b7b7" stroke-width="2.0" stroke-linecap="butt" d="m623.1171 411.5223l-3.3034668 -9.076202l-3.3034668 9.076202z" fill-rule="evenodd"/><path fill="#000000" fill-opacity="0.0" d="m449.08667 339.49338l71.57623 0l0 -131.2441l71.573364 0" fill-rule="evenodd"/><path stroke="#c2c2c2" stroke-width="2.0" stroke-linejoin="round" stroke-linecap="butt" d="m458.0867 339.49338l62.576202 0l0 -131.2441l71.573425 0" fill-rule="evenodd"/><path fill="#c2c2c2" stroke="#c2c2c2" stroke-width="2.0" stroke-linecap="butt" d="m458.0867 337.28183l-6.0762024 2.2115479l6.0762024 2.2115479z" fill-rule="evenodd"/><path fill="#000000" fill-opacity="0.0" d="m449.08667 252.00276l71.57623 0l0 -43.74803l71.573364 0" fill-rule="evenodd"/><path stroke="#c2c2c2" stroke-width="2.0" stroke-linejoin="round" stroke-linecap="butt" d="m458.0867 252.00276l62.576202 0l0 -43.74803l71.573425 0" fill-rule="evenodd"/><path fill="#c2c2c2" stroke="#c2c2c2" stroke-width="2.0" stroke-linecap="butt" d="m458.0867 249.79121l-6.0762024 2.2115479l6.0762024 2.211563z" fill-rule="evenodd"/><path fill="#000000" fill-opacity="0.0" d="m449.08667 208.25764l71.57623 0l0 0.06298828l71.573364 0" fill-rule="evenodd"/><path stroke="#c2c2c2" stroke-width="2.0" stroke-linejoin="round" stroke-linecap="butt" d="m458.0867 208.25764l62.576202 0l0 0.06300354l71.573425 0" fill-rule="evenodd"/><path fill="#c2c2c2" stroke="#c2c2c2" stroke-width="2.0" stroke-linecap="butt" d="m458.0867 206.0461l-6.0762024 2.2115479l6.0762024 2.211563z" fill-rule="evenodd"/><path fill="#000000" fill-opacity="0.0" d="m449.08667 295.74826l71.57623 0l0 -87.49608l71.573364 0" fill-rule="evenodd"/><path stroke="#c2c2c2" stroke-width="2.0" stroke-linejoin="round" stroke-linecap="butt" d="m458.0867 295.74826l62.576202 0l0 -87.49606l71.573425 0" fill-rule="evenodd"/><path fill="#c2c2c2" stroke="#c2c2c2" stroke-width="2.0" stroke-linecap="butt" d="m458.0867 293.5367l-6.0762024 2.2115479l6.0762024 2.2115479z" fill-rule="evenodd"/><path fill="#000000" fill-opacity="0.0" d="m448.3281 164.51395l71.9556 0l0 43.716537l71.94989 0" fill-rule="evenodd"/><path stroke="#c2c2c2" stroke-width="2.0" stroke-linejoin="round" stroke-linecap="butt" d="m457.3281 164.51395l62.955597 0l0 43.716537l71.94989 0" fill-rule="evenodd"/><path fill="#c2c2c2" stroke="#c2c2c2" stroke-width="2.0" stroke-linecap="butt" d="m457.3281 162.30238l-6.0762024 2.211563l6.0762024 2.2115479z" fill-rule="evenodd"/><path fill="#000000" fill-opacity="0.0" d="m448.3281 120.76882l71.9556 0l0 87.46458l71.94989 0" fill-rule="evenodd"/><path stroke="#c2c2c2" stroke-width="2.0" stroke-linejoin="round" stroke-linecap="butt" d="m457.3281 120.76882l62.955597 0l0 87.46456l71.94989 0" fill-rule="evenodd"/><path fill="#c2c2c2" stroke="#c2c2c2" stroke-width="2.0" stroke-linecap="butt" d="m457.3281 118.55727l-6.0762024 2.2115555l6.0762024 2.2115555z" fill-rule="evenodd"/><path fill="#000000" fill-opacity="0.0" d="m448.3281 77.02334l71.9556 0l0 131.21259l71.94989 0" fill-rule="evenodd"/><path stroke="#c2c2c2" stroke-width="2.0" stroke-linejoin="round" stroke-linecap="butt" d="m457.3281 77.02334l62.955597 0l0 131.21259l71.94989 0" fill-rule="evenodd"/><path fill="#c2c2c2" stroke="#c2c2c2" stroke-width="2.0" stroke-linecap="butt" d="m457.3281 74.81178l-6.0762024 2.2115555l6.0762024 2.2115479z" fill-rule="evenodd"/></g></svg>