<svg version="1.1" viewBox="0.0 0.0 625.5301837270341 195.03149606299212" fill="none" stroke="none" stroke-linecap="square" stroke-miterlimit="10" xmlns:xlink="http://www.w3.org/1999/xlink" xmlns="http://www.w3.org/2000/svg"><clipPath id="p.0"><path d="m0 0l625.5302 0l0 195.0315l-625.5302 0l0 -195.0315z" clip-rule="nonzero"/></clipPath><g clip-path="url(#p.0)"><path fill="#000000" fill-opacity="0.0" d="m0 0l625.5302 0l0 195.0315l-625.5302 0z" fill-rule="evenodd"/><path fill="#1d7e74" d="m525.12494 47.49223l0 0c0 -2.849903 2.3103027 -5.1602097 5.1602173 -5.1602097l66.52997 0c1.3685913 0 2.6810913 0.543663 3.6488037 1.5113907c0.9677124 0.96772766 1.5114136 2.2802467 1.5114136 3.648819l0 20.640217c0 2.8498993 -2.3103027 5.160202 -5.1602173 5.160202l-66.52997 0l0 0c-2.8499146 0 -5.1602173 -2.3103027 -5.1602173 -5.160202z" fill-rule="evenodd"/><path fill="#ffffff" d="m541.9566 62.892338l0 -10.421875l2.953125 0q1.359375 0 2.390625 0.609375q1.046875 0.59375 1.609375 1.703125q0.578125 1.109375 0.59375 2.546875l0 0.671875q0 1.46875 -0.578125 2.578125q-0.5625 1.109375 -1.625 1.703125q-1.046875 0.59375 -2.453125 0.609375l-2.890625 0zm1.375 -9.28125l0 8.15625l1.453125 0q1.59375 0 2.46875 -0.984375q0.890625 -0.984375 0.890625 -2.8125l0 -0.609375q0 -1.78125 -0.84375 -2.765625q-0.828125 -0.984375 -2.359375 -0.984375l-1.609375 0zm7.689148 5.34375q0 -1.140625 0.4375 -2.046875q0.453125 -0.921875 1.25 -1.40625q0.796875 -0.5 1.828125 -0.5q1.578125 0 2.546875 1.09375q0.984375 1.09375 0.984375 2.921875l0 0.09375q0 1.125 -0.4375 2.03125q-0.4375 0.890625 -1.25 1.390625q-0.796875 0.5 -1.84375 0.5q-1.5625 0 -2.546875 -1.09375q-0.96875 -1.09375 -0.96875 -2.890625l0 -0.09375zm1.328125 0.15625q0 1.28125 0.59375 2.0625q0.59375 0.78125 1.59375 0.78125q1.015625 0 1.609375 -0.78125q0.59375 -0.796875 0.59375 -2.21875q0 -1.28125 -0.609375 -2.0625q-0.59375 -0.796875 -1.59375 -0.796875q-0.984375 0 -1.59375 0.78125q-0.59375 0.78125 -0.59375 2.234375zm12.155518 3.015625q-0.765625 0.90625 -2.265625 0.90625q-1.234375 0 -1.890625 -0.71875q-0.640625 -0.71875 -0.65625 -2.125l0 -5.046875l1.328125 0l0 5.015625q0 1.75 1.4375 1.75q1.515625 0 2.015625 -1.125l0 -5.640625l1.328125 0l0 7.75l-1.265625 0l-0.03125 -0.765625zm9.860779 -3.015625q0 1.765625 -0.828125 2.84375q-0.8125 1.078125 -2.1875 1.078125q-1.46875 0 -2.265625 -1.03125l-0.0625 0.890625l-1.21875 0l0 -11.0l1.328125 0l0 4.109375q0.796875 -1.0 2.203125 -1.0q1.421875 0 2.21875 1.078125q0.8125 1.0625 0.8125 2.90625l0 0.125zm-1.328125 -0.15625q0 -1.34375 -0.53125 -2.078125q-0.515625 -0.75 -1.5 -0.75q-1.3125 0 -1.875 1.21875l0 3.34375q0.609375 1.21875 1.890625 1.21875q0.953125 0 1.484375 -0.734375q0.53125 -0.734375 0.53125 -2.21875zm4.4258423 3.9375l-1.328125 0l0 -11.0l1.328125 0l0 11.0zm5.3379517 0.140625q-1.578125 0 -2.5625 -1.03125q-0.984375 -1.03125 -0.984375 -2.765625l0 -0.25q0 -1.140625 0.4375 -2.046875q0.4375 -0.90625 1.21875 -1.421875q0.796875 -0.515625 1.71875 -0.515625q1.515625 0 2.34375 1.0q0.84375 1.0 0.84375 2.84375l0 0.546875l-5.25 0q0.03125 1.15625 0.671875 1.859375q0.640625 0.703125 1.625 0.703125q0.703125 0 1.1875 -0.28125q0.5 -0.296875 0.859375 -0.765625l0.8125 0.625q-0.984375 1.5 -2.921875 1.5zm-0.171875 -6.9375q-0.796875 0 -1.34375 0.59375q-0.546875 0.578125 -0.671875 1.625l3.875 0l0 -0.109375q-0.046875 -1.0 -0.546875 -1.546875q-0.484375 -0.5625 -1.3125 -0.5625z" fill-rule="nonzero"/><path fill="#1d7e74" d="m426.7744 47.49194l0 0c0 -2.849903 2.3103027 -5.160206 5.160187 -5.160206l66.53 0c1.3685608 0 2.6810913 0.543663 3.6488037 1.5113869c0.9677429 0.96772766 1.511383 2.2802467 1.511383 3.648819l0 20.640217c0 2.8498993 -2.3103027 5.160202 -5.160187 5.160202l-66.53 0l0 0c-2.849884 0 -5.160187 -2.3103027 -5.160187 -5.160202z" fill-rule="evenodd"/><path fill="#ffffff" d="m455.76465 58.298298l-4.375 0l0 4.59375l-1.375 0l0 -10.421875l6.46875 0l0 1.140625l-5.09375 0l0 3.5625l4.375 0l0 1.125zm3.5853882 4.59375l-1.328125 0l0 -11.0l1.328125 0l0 11.0zm1.7754517 -3.9375q0 -1.140625 0.4375 -2.046875q0.453125 -0.921875 1.25 -1.40625q0.796875 -0.5 1.828125 -0.5q1.578125 0 2.546875 1.09375q0.984375 1.09375 0.984375 2.921875l0 0.09375q0 1.125 -0.4375 2.03125q-0.4375 0.890625 -1.25 1.390625q-0.796875 0.5 -1.84375 0.5q-1.5625 0 -2.546875 -1.09375q-0.96875 -1.09375 -0.96875 -2.890625l0 -0.09375zm1.328125 0.15625q0 1.28125 0.59375 2.0625q0.59375 0.78125 1.59375 0.78125q1.015625 0 1.609375 -0.78125q0.59375 -0.796875 0.59375 -2.21875q0 -1.28125 -0.609375 -2.0625q-0.59375 -0.796875 -1.59375 -0.796875q-0.984375 0 -1.59375 0.78125q-0.59375 0.78125 -0.59375 2.234375zm12.155518 3.78125q-0.109375 -0.234375 -0.1875 -0.8125q-0.921875 0.953125 -2.203125 0.953125q-1.140625 0 -1.875 -0.640625q-0.734375 -0.65625 -0.734375 -1.640625q0 -1.21875 0.921875 -1.875q0.921875 -0.671875 2.578125 -0.671875l1.296875 0l0 -0.609375q0 -0.703125 -0.421875 -1.109375q-0.40625 -0.40625 -1.21875 -0.40625q-0.703125 0 -1.1875 0.359375q-0.484375 0.34375 -0.484375 0.859375l-1.328125 0q0 -0.578125 0.40625 -1.109375q0.421875 -0.546875 1.125 -0.859375q0.703125 -0.328125 1.546875 -0.328125q1.34375 0 2.09375 0.671875q0.765625 0.671875 0.796875 1.84375l0 3.5625q0 1.0625 0.265625 1.703125l0 0.109375l-1.390625 0zm-2.203125 -1.015625q0.625 0 1.1875 -0.3125q0.5625 -0.328125 0.8125 -0.84375l0 -1.578125l-1.046875 0q-2.421875 0 -2.421875 1.421875q0 0.625 0.40625 0.96875q0.421875 0.34375 1.0625 0.34375zm7.1909485 -8.609375l0 1.875l1.453125 0l0 1.03125l-1.453125 0l0 4.796875q0 0.46875 0.1875 0.703125q0.203125 0.234375 0.671875 0.234375q0.21875 0 0.625 -0.09375l0 1.078125q-0.53125 0.140625 -1.015625 0.140625q-0.890625 0 -1.34375 -0.53125q-0.453125 -0.546875 -0.453125 -1.53125l0 -4.796875l-1.40625 0l0 -1.03125l1.40625 0l0 -1.875l1.328125 0z" fill-rule="nonzero"/><path fill="#1d7e74" d="m328.42633 47.49193l0 0c0 -2.849907 2.3103027 -5.1602097 5.160187 -5.1602097l66.53 0c1.3685608 0 2.6810913 0.543663 3.6488037 1.5113907c0.9677429 0.96772766 1.511383 2.2802467 1.511383 3.648819l0 20.640213c0 2.849907 -2.3103027 5.1602097 -5.160187 5.1602097l-66.53 0l0 0c-2.849884 0 -5.160187 -2.3103027 -5.160187 -5.1602097z" fill-rule="evenodd"/><path fill="#ffffff" d="m353.1681 61.767036l4.9375 0l0 1.125l-6.328125 0l0 -10.421875l1.390625 0l0 9.296875zm5.948822 -2.8125q0 -1.140625 0.4375 -2.046875q0.453125 -0.921875 1.25 -1.40625q0.796875 -0.5 1.828125 -0.5q1.578125 0 2.546875 1.09375q0.984375 1.09375 0.984375 2.921875l0 0.09375q0 1.125 -0.4375 2.03125q-0.4375 0.890625 -1.25 1.390625q-0.796875 0.5 -1.84375 0.5q-1.5625 0 -2.546875 -1.09375q-0.96875 -1.09375 -0.96875 -2.890625l0 -0.09375zm1.328125 0.15625q0 1.28125 0.59375 2.0625q0.59375 0.78125 1.59375 0.78125q1.015625 0 1.609375 -0.78125q0.59375 -0.796875 0.59375 -2.21875q0 -1.28125 -0.609375 -2.0625q-0.59375 -0.796875 -1.59375 -0.796875q-0.984375 0 -1.59375 0.78125q-0.59375 0.78125 -0.59375 2.234375zm8.624268 -3.96875l0.046875 0.984375q0.890625 -1.125 2.3125 -1.125q2.46875 0 2.484375 2.78125l0 5.109375l-1.328125 0l0 -5.125q0 -0.84375 -0.375 -1.234375q-0.375 -0.40625 -1.171875 -0.40625q-0.640625 0 -1.140625 0.34375q-0.484375 0.34375 -0.75 0.90625l0 5.515625l-1.328125 0l0 -7.75l1.25 0zm6.5242004 3.8125q0 -1.8125 0.828125 -2.875q0.84375 -1.078125 2.234375 -1.078125q1.40625 0 2.203125 1.0l0.0625 -0.859375l1.21875 0l0 7.5625q0 1.5 -0.890625 2.359375q-0.890625 0.875 -2.40625 0.875q-0.828125 0 -1.640625 -0.359375q-0.796875 -0.359375 -1.21875 -0.984375l0.6875 -0.78125q0.859375 1.046875 2.078125 1.046875q0.96875 0 1.5 -0.546875q0.546875 -0.546875 0.546875 -1.53125l0 -0.65625q-0.78125 0.90625 -2.15625 0.90625q-1.359375 0 -2.203125 -1.09375q-0.84375 -1.09375 -0.84375 -2.984375zm1.328125 0.15625q0 1.3125 0.53125 2.0625q0.546875 0.734375 1.515625 0.734375q1.25 0 1.828125 -1.140625l0 -3.53125q-0.609375 -1.109375 -1.8125 -1.109375q-0.96875 0 -1.515625 0.75q-0.546875 0.75 -0.546875 2.234375z" fill-rule="nonzero"/><path fill="#1d7e74" d="m230.07823 48.011375l0 0c0 -2.849907 2.3103027 -5.1602097 5.1602173 -5.1602097l66.52998 0c1.3685608 0 2.6810913 0.543663 3.6488037 1.5113907c0.9677429 0.96772766 1.511383 2.2802467 1.511383 3.648819l0 20.640213c0 2.849907 -2.3103027 5.1602097 -5.160187 5.1602097l-66.52998 0l0 0c-2.8499146 0 -5.1602173 -2.3103027 -5.1602173 -5.1602097z" fill-rule="evenodd"/><path fill="#ffffff" d="m262.76074 63.411484l-1.375 0l0 -10.421875l1.375 0l0 10.421875zm3.548584 -7.75l0.046875 0.984375q0.890625 -1.125 2.3125 -1.125q2.46875 0 2.484375 2.78125l0 5.109375l-1.328125 0l0 -5.125q0 -0.84375 -0.375 -1.234375q-0.375 -0.40625 -1.171875 -0.40625q-0.640625 0 -1.140625 0.34375q-0.484375 0.34375 -0.75 0.90625l0 5.515625l-1.328125 0l0 -7.75l1.25 0zm8.633575 -1.875l0 1.875l1.453125 0l0 1.03125l-1.453125 0l0 4.796875q0 0.46875 0.1875 0.703125q0.203125 0.234375 0.671875 0.234375q0.21875 0 0.625 -0.09375l0 1.078125q-0.53125 0.140625 -1.015625 0.140625q-0.890625 0 -1.34375 -0.53125q-0.453125 -0.546875 -0.453125 -1.53125l0 -4.796875l-1.40625 0l0 -1.03125l1.40625 0l0 -1.875l1.328125 0z" fill-rule="nonzero"/><path fill="#1d7e74" d="m129.98962 47.492516l0 0c0 -2.849903 2.3103027 -5.1602097 5.160202 -5.1602097l66.52998 0c1.3685608 0 2.6810913 0.543663 3.6488037 1.5113907c0.96772766 0.96772766 1.5113983 2.2802467 1.5113983 3.648819l0 20.640213c0 2.849907 -2.3103027 5.1602097 -5.160202 5.1602097l-66.52998 0l0 0c-2.8498993 0 -5.160202 -2.3103027 -5.160202 -5.1602097z" fill-rule="evenodd"/><path fill="#ffffff" d="m155.08052 58.252q-1.765625 -0.515625 -2.578125 -1.25q-0.796875 -0.75 -0.796875 -1.828125q0 -1.234375 0.984375 -2.03125q0.984375 -0.8125 2.546875 -0.8125q1.078125 0 1.921875 0.421875q0.84375 0.40625 1.296875 1.140625q0.46875 0.734375 0.46875 1.59375l-1.390625 0q0 -0.9375 -0.609375 -1.484375q-0.59375 -0.546875 -1.6875 -0.546875q-1.015625 0 -1.578125 0.453125q-0.5625 0.453125 -0.5625 1.234375q0 0.640625 0.53125 1.09375q0.546875 0.4375 1.84375 0.796875q1.296875 0.359375 2.03125 0.8125q0.734375 0.4375 1.078125 1.03125q0.359375 0.578125 0.359375 1.375q0 1.265625 -0.984375 2.03125q-0.984375 0.75 -2.640625 0.75q-1.078125 0 -2.015625 -0.40625q-0.921875 -0.421875 -1.421875 -1.125q-0.5 -0.71875 -0.5 -1.625l1.375 0q0 0.9375 0.6875 1.484375q0.703125 0.546875 1.875 0.546875q1.09375 0 1.671875 -0.4375q0.578125 -0.453125 0.578125 -1.21875q0 -0.765625 -0.546875 -1.171875q-0.53125 -0.421875 -1.9375 -0.828125zm6.741867 -2.171875q0.875 -1.078125 2.28125 -1.078125q2.46875 0 2.484375 2.78125l0 5.109375l-1.328125 0l0 -5.125q0 -0.84375 -0.375 -1.234375q-0.375 -0.40625 -1.171875 -0.40625q-0.640625 0 -1.140625 0.34375q-0.484375 0.34375 -0.75 0.90625l0 5.515625l-1.328125 0l0 -11.0l1.328125 0l0 4.1875zm6.4005127 2.875q0 -1.140625 0.4375 -2.046875q0.453125 -0.921875 1.25 -1.40625q0.796875 -0.5 1.828125 -0.5q1.578125 0 2.546875 1.09375q0.984375 1.09375 0.984375 2.921875l0 0.09375q0 1.125 -0.4375 2.03125q-0.4375 0.890625 -1.25 1.390625q-0.796875 0.5 -1.84375 0.5q-1.5625 0 -2.546875 -1.09375q-0.96875 -1.09375 -0.96875 -2.890625l0 -0.09375zm1.328125 0.15625q0 1.28125 0.59375 2.0625q0.59375 0.78125 1.59375 0.78125q1.015625 0 1.609375 -0.78125q0.59375 -0.796875 0.59375 -2.21875q0 -1.28125 -0.609375 -2.0625q-0.59375 -0.796875 -1.59375 -0.796875q-0.984375 0 -1.59375 0.78125q-0.59375 0.78125 -0.59375 2.234375zm11.124268 -2.78125q-0.3125 -0.046875 -0.65625 -0.046875q-1.296875 0 -1.765625 1.109375l0 5.5l-1.328125 0l0 -7.75l1.296875 0l0.015625 0.90625q0.65625 -1.046875 1.84375 -1.046875q0.390625 0 0.59375 0.109375l0 1.21875zm3.3643188 -3.0625l0 1.875l1.453125 0l0 1.03125l-1.453125 0l0 4.796875q0 0.46875 0.1875 0.703125q0.203125 0.234375 0.671875 0.234375q0.21875 0 0.625 -0.09375l0 1.078125q-0.53125 0.140625 -1.015625 0.140625q-0.890625 0 -1.34375 -0.53125q-0.453125 -0.546875 -0.453125 -1.53125l0 -4.796875l-1.40625 0l0 -1.03125l1.40625 0l0 -1.875l1.328125 0z" fill-rule="nonzero"/><path fill="#1d7e74" d="m23.555119 48.011913l0 0c0 -2.849903 2.3103027 -5.160206 5.1602077 -5.160206l66.529976 0c1.368576 0 2.6810913 0.543663 3.648819 1.5113869c0.96772766 0.96772766 1.5113907 2.2802467 1.5113907 3.648819l0 20.640217c0 2.8498993 -2.3103027 5.160202 -5.1602097 5.160202l-66.529976 0l0 0c-2.849905 0 -5.1602077 -2.3103027 -5.1602077 -5.160202z" fill-rule="evenodd"/><path fill="#ffffff" d="m48.877853 63.41202l0 -10.421875l3.40625 0q1.703125 0 2.546875 0.703125q0.859375 0.703125 0.859375 2.078125q0 0.734375 -0.421875 1.296875q-0.40625 0.546875 -1.125 0.859375q0.859375 0.234375 1.34375 0.90625q0.484375 0.65625 0.484375 1.578125q0 1.390625 -0.90625 2.203125q-0.90625 0.796875 -2.5625 0.796875l-3.625 0zm1.375 -4.875l0 3.75l2.28125 0q0.953125 0 1.5 -0.5q0.5625 -0.5 0.5625 -1.359375q0 -1.890625 -2.046875 -1.890625l-2.296875 0zm0 -1.09375l2.078125 0q0.90625 0 1.4375 -0.453125q0.546875 -0.453125 0.546875 -1.234375q0 -0.859375 -0.5 -1.234375q-0.5 -0.390625 -1.53125 -0.390625l-2.03125 0l0 3.3125zm10.077499 4.03125l1.8125 -5.8125l1.40625 0l-3.109375 8.937504q-0.71875 1.9375 -2.296875 1.9375l-0.25 -0.015625l-0.5 -0.09375l0 -1.078125l0.359375 0.03125q0.671875 0 1.046875 -0.28125q0.390625 -0.265625 0.625 -0.984375l0.296875 -0.7812538l-2.765625 -7.671875l1.453125 0l1.921875 5.8125zm6.2001495 -7.6875l0 1.875l1.453125 0l0 1.03125l-1.453125 0l0 4.796875q0 0.46875 0.1875 0.703125q0.203125 0.234375 0.671875 0.234375q0.21875 0 0.625 -0.09375l0 1.078125q-0.53125 0.140625 -1.015625 0.140625q-0.890625 0 -1.34375 -0.53125q-0.453125 -0.546875 -0.453125 -1.53125l0 -4.796875l-1.40625 0l0 -1.03125l1.40625 0l0 -1.875l1.328125 0zm6.209488 9.765625q-1.578125 0 -2.5625 -1.03125q-0.984375 -1.03125 -0.984375 -2.765625l0 -0.25q0 -1.140625 0.4375 -2.046875q0.4375 -0.90625 1.21875 -1.421875q0.796875 -0.515625 1.71875 -0.515625q1.515625 0 2.34375 1.0q0.84375 1.0 0.84375 2.84375l0 0.546875l-5.25 0q0.03125 1.15625 0.671875 1.859375q0.640625 0.703125 1.625 0.703125q0.703125 0 1.1875 -0.28125q0.5 -0.296875 0.859375 -0.765625l0.8125 0.625q-0.984375 1.5 -2.921875 1.5zm-0.171875 -6.9375q-0.796875 0 -1.34375 0.59375q-0.546875 0.578125 -0.671875 1.625l3.875 0l0 -0.109375q-0.046875 -1.0 -0.546875 -1.546875q-0.484375 -0.5625 -1.3125 -0.5625z" fill-rule="nonzero"/><path fill="#1d7e74" d="m230.07797 126.90012l0 0c0 -2.849907 2.3103027 -5.1602097 5.160202 -5.1602097l66.52998 0c1.3685608 0 2.6810913 0.543663 3.6488037 1.5113907c0.9677429 0.96772766 1.5114136 2.2802505 1.5114136 3.648819l0 20.64022c0 2.8498993 -2.3103027 5.160202 -5.1602173 5.160202l-66.52998 0l0 0c-2.8498993 0 -5.160202 -2.3103027 -5.160202 -5.160202z" fill-rule="evenodd"/><path fill="#ffffff" d="m262.10648 138.98773q-0.1875 1.65625 -1.21875 2.5625q-1.03125 0.890625 -2.734375 0.890625q-1.84375 0 -2.953125 -1.3125q-1.109375 -1.328125 -1.109375 -3.546875l0 -1.0q0 -1.453125 0.515625 -2.546875q0.515625 -1.109375 1.46875 -1.703125q0.953125 -0.59375 2.203125 -0.59375q1.65625 0 2.65625 0.9375q1.0 0.921875 1.171875 2.546875l-1.375 0q-0.1875 -1.234375 -0.78125 -1.796875q-0.59375 -0.5625 -1.671875 -0.5625q-1.3125 0 -2.0625 0.984375q-0.75 0.96875 -0.75 2.765625l0 1.0q0 1.703125 0.703125 2.703125q0.71875 1.0 1.984375 1.0q1.140625 0 1.75 -0.515625q0.625 -0.515625 0.828125 -1.8125l1.375 0zm2.9925537 -3.5q0.875 -1.078125 2.28125 -1.078125q2.46875 0 2.484375 2.78125l0 5.109375l-1.328125 0l0 -5.125q0 -0.84375 -0.375 -1.234375q-0.375 -0.40625 -1.171875 -0.40625q-0.640625 0 -1.140625 0.34375q-0.484375 0.34375 -0.75 0.90625l0 5.515625l-1.328125 0l0 -11.0l1.328125 0l0 4.1875zm11.525513 6.8125q-0.109375 -0.234375 -0.1875 -0.8125q-0.921875 0.953125 -2.203125 0.953125q-1.140625 0 -1.875 -0.640625q-0.734375 -0.65625 -0.734375 -1.640625q0 -1.21875 0.921875 -1.875q0.921875 -0.671875 2.578125 -0.671875l1.296875 0l0 -0.609375q0 -0.703125 -0.421875 -1.109375q-0.40625 -0.40625 -1.21875 -0.40625q-0.703125 0 -1.1875 0.359375q-0.484375 0.34375 -0.484375 0.859375l-1.328125 0q0 -0.578125 0.40625 -1.109375q0.421875 -0.546875 1.125 -0.859375q0.703125 -0.328125 1.546875 -0.328125q1.34375 0 2.09375 0.671875q0.765625 0.671875 0.796875 1.84375l0 3.5625q0 1.0625 0.265625 1.703125l0 0.109375l-1.390625 0zm-2.203125 -1.015625q0.625 0 1.1875 -0.3125q0.5625 -0.328125 0.8125 -0.84375l0 -1.578125l-1.046875 0q-2.421875 0 -2.421875 1.421875q0 0.625 0.40625 0.96875q0.421875 0.34375 1.0625 0.34375zm9.1440735 -5.546875q-0.3125 -0.046875 -0.65625 -0.046875q-1.296875 0 -1.765625 1.109375l0 5.5l-1.328125 0l0 -7.75l1.296875 0l0.015625 0.90625q0.65625 -1.046875 1.84375 -1.046875q0.390625 0 0.59375 0.109375l0 1.21875z" fill-rule="nonzero"/><path fill="#000000" fill-opacity="0.0" d="m100.40551 58.33202l29.574806 -0.50393677" fill-rule="evenodd"/><path stroke="#c2c2c2" stroke-width="2.0" stroke-linejoin="round" stroke-linecap="butt" d="m100.40551 58.33202l20.57611 -0.3506012" fill-rule="evenodd"/><path fill="#c2c2c2" stroke="#c2c2c2" stroke-width="2.0" stroke-linecap="butt" d="m121.0193 60.19265l6.037636 -2.3147545l-6.1129913 -2.1077118z" fill-rule="evenodd"/><path fill="#000000" fill-opacity="0.0" d="m268.50317 121.739914l0 -47.937004" fill-rule="evenodd"/><path stroke="#c2c2c2" stroke-width="2.0" stroke-linejoin="round" stroke-linecap="butt" d="m268.50314 121.739914l0 -38.937004" fill-rule="evenodd"/><path fill="#c2c2c2" stroke="#c2c2c2" stroke-width="2.0" stroke-linecap="butt" d="m270.71472 82.80291l-2.2115784 -6.076195l-2.2115479 6.076195z" fill-rule="evenodd"/><path fill="#000000" fill-opacity="0.0" d="m206.84001 57.812622l23.244095 0.50393677" fill-rule="evenodd"/><path stroke="#c2c2c2" stroke-width="2.0" stroke-linejoin="round" stroke-linecap="butt" d="m206.84001 57.812622l14.246216 0.30886078" fill-rule="evenodd"/><path fill="#c2c2c2" stroke="#c2c2c2" stroke-width="2.0" stroke-linecap="butt" d="m221.03828 60.33252l6.122711 -2.0793343l-6.02684 -2.3427353z" fill-rule="evenodd"/><path fill="#000000" fill-opacity="0.0" d="m306.92862 58.331482l21.51181 -0.50393677" fill-rule="evenodd"/><path stroke="#c2c2c2" stroke-width="2.0" stroke-linejoin="round" stroke-linecap="butt" d="m306.92865 58.331482l12.514252 -0.29315948" fill-rule="evenodd"/><path fill="#c2c2c2" stroke="#c2c2c2" stroke-width="2.0" stroke-linecap="butt" d="m319.49472 60.24927l6.0227356 -2.3532524l-6.126343 -2.0686455z" fill-rule="evenodd"/><path fill="#000000" fill-opacity="0.0" d="m405.2767 57.812035l21.51181 0" fill-rule="evenodd"/><path stroke="#c2c2c2" stroke-width="2.0" stroke-linejoin="round" stroke-linecap="butt" d="m405.2767 57.812035l12.51181 0" fill-rule="evenodd"/><path fill="#c2c2c2" stroke="#c2c2c2" stroke-width="2.0" stroke-linecap="butt" d="m417.7885 60.023586l6.0762024 -2.2115517l-6.0762024 -2.2115555z" fill-rule="evenodd"/><path fill="#000000" fill-opacity="0.0" d="m503.6248 57.812046l21.51181 0" fill-rule="evenodd"/><path stroke="#c2c2c2" stroke-width="2.0" stroke-linejoin="round" stroke-linecap="butt" d="m503.6248 57.81205l12.51181 0" fill-rule="evenodd"/><path fill="#c2c2c2" stroke="#c2c2c2" stroke-width="2.0" stroke-linecap="butt" d="m516.1366 60.0236l6.076233 -2.2115517l-6.076233 -2.2115555z" fill-rule="evenodd"/></g></svg>