<svg version="1.1" viewBox="0.0 0.0 602.5564304461942 442.8976377952756" fill="none" stroke="none" stroke-linecap="square" stroke-miterlimit="10" xmlns:xlink="http://www.w3.org/1999/xlink" xmlns="http://www.w3.org/2000/svg"><clipPath id="p.0"><path d="m0 0l602.55646 0l0 442.89764l-602.55646 0l0 -442.89764z" clip-rule="nonzero"/></clipPath><g clip-path="url(#p.0)"><path fill="#000000" fill-opacity="0.0" d="m0 0l602.55646 0l0 442.89764l-602.55646 0z" fill-rule="evenodd"/><path fill="#434343" d="m-0.010498688 -1.6115485l602.5512 0l0 442.89764l-602.5512 0z" fill-rule="evenodd"/><path stroke="#000000" stroke-width="1.0" stroke-linejoin="round" stroke-linecap="butt" d="m-0.010498688 -1.6115485l602.5512 0l0 442.89764l-602.5512 0z" fill-rule="evenodd"/><path fill="#1155cc" d="m134.75078 116.667755c3.5612335 0 6.6210175 1.648468 9.179367 4.9453964c2.5685883 3.296936 3.8528748 8.258659 3.8528748 14.88517c0 6.952942 -1.3149872 12.088745 -3.9449768 15.407455c-2.619751 3.3078003 -5.771637 4.9617157 -9.455658 4.9617157c-3.6226196 0 -6.708 -1.5995026 -9.256111 -4.7985077c-2.5481186 -3.1990051 -3.8221817 -8.144409 -3.8221817 -14.836197c0 -6.691803 1.3559265 -11.789528 4.0677795 -15.293205c2.7220917 -3.5145493 5.8483887 -5.2718277 9.378906 -5.2718277zm0.78286743 -6.9039764c-3.1928253 0 -5.90979 0.66374207 -8.150909 1.9912186c-2.2411118 1.316597 -4.251976 3.296936 -6.032593 5.9410095l0 -6.75708l-7.552246 0l0 71.92864l8.289055 0l0 -25.314575c1.4122086 1.8932953 3.2132874 3.460144 5.4032364 4.700577c2.20018 1.2404327 4.681778 1.8606415 7.4447937 1.8606415c3.776123 0 7.373169 -1.1316223 10.791122 -3.3948517c3.4281921 -2.2741241 6.0377045 -5.5384216 7.8285522 -9.792877c1.8010864 -4.265335 2.7016144 -9.058411 2.7016144 -14.379196c0 -4.961731 -0.81355286 -9.520851 -2.4406586 -13.677383c-1.6271057 -4.167404 -4.037079 -7.3936157 -7.229904 -9.678619c-3.19281 -2.2850037 -6.8768463 -3.4275055 -11.052063 -3.4275055z" fill-rule="evenodd"/><path fill="#e69138" d="m208.91043 95.727036c-2.6361237 0 -4.5365753 0.15140533 -5.7013702 0.45420837c-1.7165527 0.48449707 -3.1265564 1.1910477 -4.230057 2.119667c-1.1034851 0.91851807 -2.0332794 2.1499405 -2.789383 3.6942596c-0.7458801 1.5443268 -1.2567444 3.5882874 -1.5326233 6.1318817c-0.15325928 1.6048813 -0.245224 4.9357834 -0.27586365 9.992683c-0.030654907 5.0569077 -0.29119873 8.630051 -0.7816467 10.719437c-0.49043274 2.0893707 -1.4815369 3.7346344 -2.973297 4.9357758c-1.4815369 1.1910553 -3.4024353 1.8168488 -5.76268 1.8774109l0 7.4036713c2.3602448 0.060562134 4.281143 0.69647217 5.76268 1.9076996c1.4917603 1.2112427 2.4828644 2.8615417 2.973297 4.9509277c0.490448 2.0893707 0.7509918 5.8593445 0.7816467 11.309906c0.030639648 5.4505463 0.23500061 9.371918 0.6130371 11.764114c0.38827515 2.3921814 1.2261047 4.365494 2.5135193 5.9199066c1.2873993 1.5645142 2.9119873 2.6950073 4.873749 3.3914642c1.3487091 0.48449707 3.5250397 0.72673035 6.5289917 0.72673035l2.5748138 0l0 -7.131134l-1.425354 0c-2.9119873 0 -4.868637 -0.40879822 -5.8699493 -1.2263794c-0.9911041 -0.8175812 -1.6092682 -2.2559204 -1.8544769 -4.3150177c-0.12261963 -1.1203918 -0.18391418 -4.6329803 -0.18391418 -10.53775c0 -6.510391 -0.7612152 -11.193832 -2.283615 -14.0503235c-1.5121918 -2.8665924 -3.9541779 -4.996338 -7.3259583 -6.389267c2.8506775 -1.3626404 4.9401703 -2.922104 6.268448 -4.6783905c1.3384857 -1.7562866 2.2835999 -4.254471 2.8353577 -7.4945145c0.33717346 -2.089386 0.5057678 -7.100868 0.5057678 -15.034454c0 -3.9365158 0.52108765 -6.470009 1.5632782 -7.600502c1.0421753 -1.1405792 3.1572113 -1.7108688 6.3450623 -1.7108688l1.425354 0l0 -7.1311417z" fill-rule="evenodd"/><path fill="#e69138" d="m113.79761 277.99918l0 7.131134l1.4253464 0c2.9119873 0 4.863533 0.40374756 5.8546295 1.2112427c1.0013199 0.7973938 1.6092606 2.2105103 1.8238297 4.239319c0.15325928 1.1506653 0.22988892 4.678406 0.22988892 10.58316c0 6.5104065 0.7203369 11.138306 2.161003 13.883789c1.4406738 2.735382 3.9235306 4.935791 7.4485703 6.601227c-2.6974182 1.1203918 -4.7817993 2.6899414 -6.2531204 4.708679c-1.4713211 2.0086365 -2.4522018 4.6935425 -2.9426422 8.054718c-0.27587128 2.0288086 -0.41381073 6.8283386 -0.41381073 14.398529c0 3.9667969 -0.52108765 6.515442 -1.5632782 7.645935c-1.0421829 1.1405945 -3.1572113 1.7108765 -6.34507 1.7108765l-1.4253464 0l0 7.131134l2.5748138 0c2.636116 0 4.5365753 -0.16653442 5.7013702 -0.4996338c1.7165451 -0.48449707 3.1265564 -1.19104 4.230049 -2.1196594c1.1034927 -0.91851807 2.0281754 -2.1448975 2.7740555 -3.6791382c0.75608826 -1.5241089 1.2720795 -3.57312 1.5479584 -6.147003c0.15325928 -1.6048889 0.24520874 -4.935791 0.27586365 -9.992676c0.030654907 -5.0569153 0.29119873 -8.619965 0.7816467 -10.689148c0.49043274 -2.0793152 1.4764252 -3.7245483 2.957962 -4.935791c1.4917603 -1.2112427 3.4177551 -1.8471375 5.778 -1.9076843l0 -7.4036865c-2.3602448 -0.060546875 -4.2862396 -0.69647217 -5.778 -1.9076843c-1.4815369 -1.2112427 -2.4675293 -2.851471 -2.957962 -4.9206543c-0.490448 -2.0792847 -0.7509918 -5.844208 -0.7816467 -11.294769c-0.030654907 -5.4505615 -0.2401123 -9.371918 -0.6283722 -11.764099c-0.37805176 -2.392212 -1.2107697 -4.3756104 -2.4981842 -5.9501953c-1.2874069 -1.5746155 -2.9119873 -2.6950073 -4.873749 -3.3611755c-1.3487167 -0.48449707 -3.5250397 -0.7267456 -6.5289917 -0.7267456z" fill-rule="evenodd"/><path fill="#38761d" d="m204.07352 219.60078c-3.6250305 0 -6.9810486 0.80433655 -10.068054 2.4130096c-3.078186 1.6003876 -5.3713837 4.0050964 -6.879608 7.214157c-1.5082245 3.2090454 -2.2623444 6.952942 -2.2623444 11.231674c0 6.617111 1.7507782 11.700195 5.2523193 15.249222c3.510376 3.5407257 8.149704 5.3111115 13.917999 5.3111115c4.6040497 0 8.484863 -1.2852783 11.642426 -3.855835c3.1663818 -2.5788574 5.133255 -6.14447 5.900589 -10.696854l-7.0251465 -0.8582306c-0.5027313 3.358307 -1.6934357 5.8459473 -3.5720978 7.462906c-1.8786621 1.6169739 -4.2203827 2.4254456 -7.0251465 2.4254456c-3.4927368 0 -6.3239594 -1.2064972 -8.493683 -3.6195068c-2.1697235 -2.4130096 -3.254593 -6.2812805 -3.254593 -11.604828c0 -5.2489166 1.1245575 -9.084015 3.3736572 -11.505325c2.249115 -2.4295807 5.172943 -3.6443787 8.771515 -3.6443787c2.3814087 0 4.410019 0.6716614 6.0858154 2.0149841c1.6846313 1.3433228 2.8576813 3.345871 3.5191803 6.0076447l6.9457703 -1.0074921c-0.8202667 -4.0050964 -2.6856995 -7.093918 -5.596298 -9.266449c-2.910614 -2.180832 -6.654709 -3.2712555 -11.2323 -3.2712555z" fill-rule="evenodd"/><path fill="#38761d" d="m244.79555 225.16066c3.5191956 0 6.460663 1.2645569 8.824432 3.7936401c2.372589 2.520813 3.5588837 6.231537 3.5588837 11.132187c0 5.1991577 -1.1774902 9.067429 -3.532425 11.604828c-2.35495 2.537384 -5.305237 3.806076 -8.850891 3.806076c-3.5720978 0 -6.5356293 -1.2604065 -8.890579 -3.7812042c-2.35495 -2.5290985 -3.5324097 -6.3310394 -3.5324097 -11.405823c0 -5.074768 1.1774597 -8.868423 3.5324097 -11.380936c2.35495 -2.5125122 5.3184814 -3.7687683 8.890579 -3.7687683zm0 -5.5598755c-5.212631 0 -9.631454 1.4677124 -13.256485 4.403122c-4.339447 3.5324402 -6.5091705 8.967941 -6.5091705 16.306458c0 6.691757 1.8169098 11.816284 5.45076 15.373596c3.6426697 3.5573425 8.414307 5.3359985 14.314896 5.3359985c3.677948 0 7.0692444 -0.8085022 10.173889 -2.4254456c3.1134796 -1.6169739 5.4816437 -3.8848724 7.104538 -6.8036957c1.6317139 -2.927124 2.4475403 -6.940506 2.4475403 -12.040161c0 -6.2937317 -1.8389587 -11.223389 -5.5169067 -14.789001c-3.677948 -3.5739136 -8.414307 -5.3608704 -14.209061 -5.3608704z" fill-rule="evenodd"/><path fill="#38761d" d="m272.73737 205.42126l0 54.703125l7.144226 0l0 -54.703125z" fill-rule="evenodd"/><path fill="#38761d" d="m308.06155 225.16066c3.5191956 0 6.460663 1.2645569 8.824432 3.7936401c2.372589 2.520813 3.5588684 6.231537 3.5588684 11.132187c0 5.1991577 -1.1774597 9.067429 -3.5324097 11.604828c-2.35495 2.537384 -5.305237 3.806076 -8.850891 3.806076c-3.572113 0 -6.5356445 -1.2604065 -8.8905945 -3.7812042c-2.3549194 -2.5290985 -3.5324097 -6.3310394 -3.5324097 -11.405823c0 -5.074768 1.1774902 -8.868423 3.5324097 -11.380936c2.35495 -2.5125122 5.3184814 -3.7687683 8.8905945 -3.7687683zm0 -5.5598755c-5.2126465 0 -9.63147 1.4677124 -13.2565 4.403122c-4.339447 3.5324402 -6.5091553 8.967941 -6.5091553 16.306458c0 6.691757 1.816925 11.816284 5.450775 15.373596c3.6426697 3.5573425 8.414276 5.3359985 14.31488 5.3359985c3.677948 0 7.0692444 -0.8085022 10.173889 -2.4254456c3.1134644 -1.6169739 5.481659 -3.8848724 7.1045227 -6.8036957c1.6317139 -2.927124 2.4475708 -6.940506 2.4475708 -12.040161c0 -6.2937317 -1.8389893 -11.223389 -5.5169373 -14.789001c-3.677948 -3.5739136 -8.414307 -5.3608704 -14.209045 -5.3608704z" fill-rule="evenodd"/><path fill="#38761d" d="m351.64127 219.60078c-1.6669922 0 -3.197235 0.44778442 -4.5908203 1.343338c-1.3847351 0.89553833 -2.8973694 2.748825 -4.537903 5.55986l0 -6.0076447l-6.429779 0l0 39.62805l7.1441956 0l0 -20.746887c0 -2.835907 0.39691162 -5.4479218 1.1907043 -7.8360596c0.5292053 -1.5671997 1.4156189 -2.7902985 2.6592407 -3.6692657c1.2436218 -0.8872528 2.6460266 -1.3308716 4.2071533 -1.3308716c1.7463684 0 3.4927368 0.4850769 5.239105 1.4552612l2.460785 -6.231537c-2.4872437 -1.4428253 -4.9348145 -2.1642456 -7.342682 -2.1642456z" fill-rule="evenodd"/><path fill="#000000" fill-opacity="0.0" d="m239.48148 320.5883l114.80316 0l0 28.850372l-114.80316 0z" fill-rule="evenodd"/><path fill="#efefef" d="m250.02835 350.06827l0 -15.265625l4.953125 0q2.8125 0 3.671875 0.234375q1.296875 0.34375 2.1875 1.5q0.890625 1.140625 0.890625 2.953125q0 1.40625 -0.515625 2.375q-0.515625 0.953125 -1.296875 1.5q-0.78125 0.546875 -1.59375 0.71875q-1.109375 0.21875 -3.203125 0.21875l-2.0 0l0 5.765625l-3.09375 0zm3.09375 -12.6875l0 4.328125l1.6875 0q1.8125 0 2.421875 -0.234375q0.625 -0.234375 0.96875 -0.75q0.359375 -0.515625 0.359375 -1.1875q0 -0.828125 -0.5 -1.359375q-0.484375 -0.546875 -1.234375 -0.6875q-0.546875 -0.109375 -2.21875 -0.109375l-1.484375 0zm13.913208 12.6875l-2.921875 0l0 -11.0625l2.71875 0l0 1.578125q0.703125 -1.125 1.25 -1.46875q0.5625 -0.359375 1.265625 -0.359375q1.0 0 1.9375 0.5625l-0.90625 2.546875q-0.75 -0.484375 -1.375 -0.484375q-0.625 0 -1.046875 0.34375q-0.421875 0.328125 -0.671875 1.21875q-0.25 0.890625 -0.25 3.703125l0 3.421875zm4.831299 -5.6875q0 -1.453125 0.71875 -2.8125q0.71875 -1.375 2.03125 -2.09375q1.3125 -0.71875 2.9375 -0.71875q2.515625 0 4.109375 1.640625q1.609375 1.625 1.609375 4.109375q0 2.515625 -1.625 4.171875q-1.609375 1.640625 -4.0625 1.640625q-1.53125 0 -2.90625 -0.6875q-1.375 -0.6875 -2.09375 -2.015625q-0.71875 -1.328125 -0.71875 -3.234375zm3.0 0.15625q0 1.640625 0.78125 2.515625q0.78125 0.875 1.921875 0.875q1.140625 0 1.921875 -0.875q0.78125 -0.875 0.78125 -2.53125q0 -1.625 -0.78125 -2.5q-0.78125 -0.875 -1.921875 -0.875q-1.140625 0 -1.921875 0.875q-0.78125 0.875 -0.78125 2.515625zm10.621826 -5.53125l2.71875 0l0 1.625q0.53125 -0.828125 1.4375 -1.34375q0.90625 -0.53125 2.015625 -0.53125q1.921875 0 3.265625 1.515625q1.34375 1.5 1.34375 4.203125q0 2.765625 -1.359375 4.3125q-1.34375 1.53125 -3.265625 1.53125q-0.921875 0 -1.671875 -0.359375q-0.734375 -0.375 -1.5625 -1.25l0 5.5625l-2.921875 0l0 -15.265625zm2.890625 5.34375q0 1.859375 0.734375 2.75q0.75 0.890625 1.8125 0.890625q1.015625 0 1.6875 -0.8125q0.6875 -0.8125 0.6875 -2.6875q0 -1.734375 -0.703125 -2.578125q-0.703125 -0.84375 -1.734375 -0.84375q-1.0625 0 -1.78125 0.828125q-0.703125 0.828125 -0.703125 2.453125zm16.621826 2.203125l2.90625 0.484375q-0.546875 1.609375 -1.765625 2.453125q-1.21875 0.828125 -3.03125 0.828125q-2.890625 0 -4.28125 -1.890625q-1.09375 -1.5 -1.09375 -3.8125q0 -2.75 1.4375 -4.296875q1.4375 -1.5625 3.640625 -1.5625q2.46875 0 3.890625 1.640625q1.421875 1.625 1.359375 4.984375l-7.328125 0q0.03125 1.296875 0.703125 2.03125q0.6875 0.71875 1.703125 0.71875q0.6875 0 1.15625 -0.375q0.46875 -0.375 0.703125 -1.203125zm0.171875 -2.96875q-0.03125 -1.265625 -0.65625 -1.921875q-0.625 -0.671875 -1.53125 -0.671875q-0.953125 0 -1.578125 0.703125q-0.625 0.703125 -0.609375 1.890625l4.375 0zm8.080444 6.484375l-2.921875 0l0 -11.0625l2.71875 0l0 1.578125q0.703125 -1.125 1.25 -1.46875q0.5625 -0.359375 1.265625 -0.359375q1.0 0 1.9375 0.5625l-0.90625 2.546875q-0.75 -0.484375 -1.375 -0.484375q-0.625 0 -1.046875 0.34375q-0.421875 0.328125 -0.671875 1.21875q-0.25 0.890625 -0.25 3.703125l0 3.421875zm10.581329 -11.0625l0 2.328125l-2.0 0l0 4.46875q0 1.34375 0.046875 1.578125q0.0625 0.21875 0.265625 0.375q0.203125 0.140625 0.5 0.140625q0.40625 0 1.171875 -0.28125l0.25 2.265625q-1.015625 0.4375 -2.3125 0.4375q-0.796875 0 -1.4375 -0.265625q-0.625 -0.265625 -0.921875 -0.6875q-0.296875 -0.421875 -0.40625 -1.140625q-0.09375 -0.515625 -0.09375 -2.0625l0 -4.828125l-1.34375 0l0 -2.328125l1.34375 0l0 -2.1875l2.9375 -1.71875l0 3.90625l2.0 0zm0.633667 0l3.125 0l2.640625 7.859375l2.578125 -7.859375l3.03125 0l-3.90625 10.640625l-0.6875 1.9375q-0.390625 0.96875 -0.75 1.46875q-0.34375 0.515625 -0.796875 0.828125q-0.453125 0.328125 -1.109375 0.5q-0.65625 0.171875 -1.5 0.171875q-0.84375 0 -1.65625 -0.171875l-0.25 -2.296875q0.6875 0.140625 1.234375 0.140625q1.015625 0 1.5 -0.609375q0.5 -0.59375 0.765625 -1.515625l-4.21875 -11.09375z" fill-rule="nonzero"/><path fill="#000000" fill-opacity="0.0" d="m416.5622 320.58817l101.98425 0l0 28.850372l-101.98425 0z" fill-rule="evenodd"/><path fill="#efefef" d="m431.01532 350.06815l-5.46875 -15.265625l3.34375 0l3.875 11.296875l3.734375 -11.296875l3.265625 0l-5.46875 15.265625l-3.28125 0zm11.3142395 -7.6875l-2.65625 -0.484375q0.453125 -1.59375 1.546875 -2.359375q1.09375 -0.78125 3.25 -0.78125q1.953125 0 2.90625 0.46875q0.96875 0.453125 1.359375 1.171875q0.390625 0.71875 0.390625 2.625l-0.03125 3.40625q0 1.46875 0.125 2.15625q0.140625 0.6875 0.53125 1.484375l-2.890625 0q-0.109375 -0.296875 -0.28125 -0.859375q-0.078125 -0.265625 -0.109375 -0.34375q-0.75 0.71875 -1.609375 1.09375q-0.84375 0.359375 -1.8125 0.359375q-1.703125 0 -2.6875 -0.921875q-0.984375 -0.9375 -0.984375 -2.34375q0 -0.9375 0.4375 -1.671875q0.453125 -0.734375 1.25 -1.125q0.8125 -0.390625 2.34375 -0.6875q2.046875 -0.390625 2.84375 -0.71875l0 -0.296875q0 -0.84375 -0.421875 -1.203125q-0.421875 -0.359375 -1.578125 -0.359375q-0.78125 0 -1.21875 0.3125q-0.4375 0.3125 -0.703125 1.078125zm3.921875 2.375q-0.5625 0.1875 -1.78125 0.453125q-1.21875 0.25 -1.59375 0.5q-0.578125 0.40625 -0.578125 1.03125q0 0.625 0.453125 1.078125q0.46875 0.4375 1.171875 0.4375q0.796875 0 1.515625 -0.515625q0.53125 -0.40625 0.6875 -0.96875q0.125 -0.375 0.125 -1.4375l0 -0.578125zm5.7523193 5.3125l0 -15.265625l2.921875 0l0 15.265625l-2.921875 0zm13.206909 0l0 -1.65625q-0.609375 0.890625 -1.59375 1.40625q-0.984375 0.5 -2.078125 0.5q-1.109375 0 -2.0 -0.484375q-0.875 -0.5 -1.28125 -1.375q-0.390625 -0.890625 -0.390625 -2.453125l0 -7.0l2.921875 0l0 5.078125q0 2.34375 0.15625 2.875q0.171875 0.515625 0.59375 0.828125q0.4375 0.296875 1.09375 0.296875q0.75 0 1.34375 -0.40625q0.59375 -0.40625 0.8125 -1.015625q0.21875 -0.609375 0.21875 -2.984375l0 -4.671875l2.921875 0l0 11.0625l-2.71875 0zm12.153076 -3.515625l2.90625 0.484375q-0.546875 1.609375 -1.765625 2.453125q-1.21875 0.828125 -3.03125 0.828125q-2.890625 0 -4.28125 -1.890625q-1.09375 -1.5 -1.09375 -3.8125q0 -2.75 1.4375 -4.296875q1.4375 -1.5625 3.640625 -1.5625q2.46875 0 3.890625 1.640625q1.421875 1.625 1.359375 4.984375l-7.328125 0q0.03125 1.296875 0.703125 2.03125q0.6875 0.71875 1.703125 0.71875q0.6875 0 1.15625 -0.375q0.46875 -0.375 0.703125 -1.203125zm0.171875 -2.96875q-0.03125 -1.265625 -0.65625 -1.921875q-0.625 -0.671875 -1.53125 -0.671875q-0.953125 0 -1.578125 0.703125q-0.625 0.703125 -0.609375 1.890625l4.375 0z" fill-rule="nonzero"/><path fill="#000000" fill-opacity="0.0" d="m332.66907 374.68414l145.70078 0l0 38.80316l-145.70078 0z" fill-rule="evenodd"/><path fill="#efefef" d="m343.21594 388.89853l5.625 0q1.90625 0 2.90625 0.296875q1.34375 0.390625 2.296875 1.40625q0.96875 1.0 1.46875 2.46875q0.5 1.453125 0.5 3.609375q0 1.875 -0.46875 3.25q-0.578125 1.65625 -1.640625 2.6875q-0.796875 0.78125 -2.15625 1.21875q-1.03125 0.328125 -2.734375 0.328125l-5.796875 0l0 -15.265625zm3.078125 2.578125l0 10.109375l2.296875 0q1.296875 0 1.875 -0.140625q0.75 -0.1875 1.234375 -0.625q0.5 -0.453125 0.8125 -1.484375q0.3125 -1.03125 0.3125 -2.796875q0 -1.765625 -0.3125 -2.703125q-0.3125 -0.953125 -0.875 -1.484375q-0.5625 -0.53125 -1.421875 -0.71875q-0.65625 -0.15625 -2.53125 -0.15625l-1.390625 0zm18.714996 9.171875l2.90625 0.484375q-0.546875 1.609375 -1.765625 2.453125q-1.21875 0.828125 -3.03125 0.828125q-2.890625 0 -4.28125 -1.890625q-1.09375 -1.5 -1.09375 -3.8125q0 -2.75 1.4375 -4.296875q1.4375 -1.5625 3.640625 -1.5625q2.46875 0 3.890625 1.640625q1.421875 1.625 1.359375 4.984375l-7.328125 0q0.03125 1.296875 0.703125 2.03125q0.6875 0.71875 1.703125 0.71875q0.6875 0 1.15625 -0.375q0.46875 -0.375 0.703125 -1.203125zm0.171875 -2.96875q-0.03125 -1.265625 -0.65625 -1.921875q-0.625 -0.671875 -1.53125 -0.671875q-0.953125 0 -1.578125 0.703125q-0.625 0.703125 -0.609375 1.890625l4.375 0zm14.924194 -1.3125l-2.875 0.53125q-0.15625 -0.875 -0.671875 -1.3125q-0.515625 -0.4375 -1.328125 -0.4375q-1.09375 0 -1.75 0.765625q-0.65625 0.75 -0.65625 2.515625q0 1.96875 0.65625 2.78125q0.671875 0.8125 1.78125 0.8125q0.84375 0 1.375 -0.46875q0.53125 -0.46875 0.75 -1.625l2.859375 0.484375q-0.4375 1.984375 -1.71875 3.0q-1.265625 1.0 -3.390625 1.0q-2.4375 0 -3.875 -1.53125q-1.4375 -1.53125 -1.4375 -4.234375q0 -2.75 1.4375 -4.265625q1.453125 -1.53125 3.921875 -1.53125q2.015625 0 3.203125 0.875q1.203125 0.859375 1.71875 2.640625zm2.2210693 7.796875l0 -15.265625l2.921875 0l0 15.265625l-2.921875 0zm8.113129 -7.6875l-2.65625 -0.484375q0.453125 -1.59375 1.546875 -2.359375q1.09375 -0.78125 3.25 -0.78125q1.953125 0 2.90625 0.46875q0.96875 0.453125 1.359375 1.171875q0.390625 0.71875 0.390625 2.625l-0.03125 3.40625q0 1.46875 0.125 2.15625q0.140625 0.6875 0.53125 1.484375l-2.890625 0q-0.109375 -0.296875 -0.28125 -0.859375q-0.078125 -0.265625 -0.109375 -0.34375q-0.75 0.71875 -1.609375 1.09375q-0.84375 0.359375 -1.8125 0.359375q-1.703125 0 -2.6875 -0.921875q-0.984375 -0.9375 -0.984375 -2.34375q0 -0.9375 0.4375 -1.671875q0.453125 -0.734375 1.25 -1.125q0.8125 -0.390625 2.34375 -0.6875q2.046875 -0.390625 2.84375 -0.71875l0 -0.296875q0 -0.84375 -0.421875 -1.203125q-0.421875 -0.359375 -1.578125 -0.359375q-0.78125 0 -1.21875 0.3125q-0.4375 0.3125 -0.703125 1.078125zm3.921875 2.375q-0.5625 0.1875 -1.78125 0.453125q-1.21875 0.25 -1.59375 0.5q-0.578125 0.40625 -0.578125 1.03125q0 0.625 0.453125 1.078125q0.46875 0.4375 1.171875 0.4375q0.796875 0 1.515625 -0.515625q0.53125 -0.40625 0.6875 -0.96875q0.125 -0.375 0.125 -1.4375l0 -0.578125zm8.549194 5.3125l-2.921875 0l0 -11.0625l2.71875 0l0 1.578125q0.703125 -1.125 1.25 -1.46875q0.5625 -0.359375 1.265625 -0.359375q1.0 0 1.9375 0.5625l-0.90625 2.546875q-0.75 -0.484375 -1.375 -0.484375q-0.625 0 -1.046875 0.34375q-0.421875 0.328125 -0.671875 1.21875q-0.25 0.890625 -0.25 3.703125l0 3.421875zm7.6907043 -7.6875l-2.65625 -0.484375q0.453125 -1.59375 1.546875 -2.359375q1.09375 -0.78125 3.25 -0.78125q1.953125 0 2.90625 0.46875q0.96875 0.453125 1.359375 1.171875q0.390625 0.71875 0.390625 2.625l-0.03125 3.40625q0 1.46875 0.125 2.15625q0.140625 0.6875 0.53125 1.484375l-2.890625 0q-0.109375 -0.296875 -0.28125 -0.859375q-0.078125 -0.265625 -0.109375 -0.34375q-0.75 0.71875 -1.609375 1.09375q-0.84375 0.359375 -1.8125 0.359375q-1.703125 0 -2.6875 -0.921875q-0.984375 -0.9375 -0.984375 -2.34375q0 -0.9375 0.4375 -1.671875q0.453125 -0.734375 1.25 -1.125q0.8125 -0.390625 2.34375 -0.6875q2.046875 -0.390625 2.84375 -0.71875l0 -0.296875q0 -0.84375 -0.421875 -1.203125q-0.421875 -0.359375 -1.578125 -0.359375q-0.78125 0 -1.21875 0.3125q-0.4375 0.3125 -0.703125 1.078125zm3.921875 2.375q-0.5625 0.1875 -1.78125 0.453125q-1.21875 0.25 -1.59375 0.5q-0.578125 0.40625 -0.578125 1.03125q0 0.625 0.453125 1.078125q0.46875 0.4375 1.171875 0.4375q0.796875 0 1.515625 -0.515625q0.53125 -0.40625 0.6875 -0.96875q0.125 -0.375 0.125 -1.4375l0 -0.578125zm10.830444 -5.75l0 2.328125l-2.0 0l0 4.46875q0 1.34375 0.046875 1.578125q0.0625 0.21875 0.265625 0.375q0.203125 0.140625 0.5 0.140625q0.40625 0 1.171875 -0.28125l0.25 2.265625q-1.015625 0.4375 -2.3125 0.4375q-0.796875 0 -1.4375 -0.265625q-0.625 -0.265625 -0.921875 -0.6875q-0.296875 -0.421875 -0.40625 -1.140625q-0.09375 -0.515625 -0.09375 -2.0625l0 -4.828125l-1.34375 0l0 -2.328125l1.34375 0l0 -2.1875l2.9375 -1.71875l0 3.90625l2.0 0zm2.024292 -1.5l0 -2.703125l2.921875 0l0 2.703125l-2.921875 0zm0 12.5625l0 -11.0625l2.921875 0l0 11.0625l-2.921875 0zm5.253784 -5.6875q0 -1.453125 0.71875 -2.8125q0.71875 -1.375 2.03125 -2.09375q1.3125 -0.71875 2.9375 -0.71875q2.515625 0 4.109375 1.640625q1.609375 1.625 1.609375 4.109375q0 2.515625 -1.625 4.171875q-1.609375 1.640625 -4.0625 1.640625q-1.53125 0 -2.90625 -0.6875q-1.375 -0.6875 -2.09375 -2.015625q-0.71875 -1.328125 -0.71875 -3.234375zm3.0 0.15625q0 1.640625 0.78125 2.515625q0.78125 0.875 1.921875 0.875q1.140625 0 1.921875 -0.875q0.78125 -0.875 0.78125 -2.53125q0 -1.625 -0.78125 -2.5q-0.78125 -0.875 -1.921875 -0.875q-1.140625 0 -1.921875 0.875q-0.78125 0.875 -0.78125 2.515625zm20.762451 5.53125l-2.921875 0l0 -5.640625q0 -1.796875 -0.1875 -2.3125q-0.1875 -0.53125 -0.609375 -0.828125q-0.421875 -0.296875 -1.015625 -0.296875q-0.765625 0 -1.375 0.421875q-0.59375 0.421875 -0.828125 1.109375q-0.21875 0.6875 -0.21875 2.53125l0 5.015625l-2.921875 0l0 -11.0625l2.71875 0l0 1.625q1.4375 -1.875 3.640625 -1.875q0.96875 0 1.765625 0.359375q0.8125 0.34375 1.21875 0.890625q0.40625 0.53125 0.5625 1.21875q0.171875 0.6875 0.171875 1.96875l0 6.875z" fill-rule="nonzero"/><path fill="#000000" fill-opacity="0.0" d="m184.86351 289.74277l0 29.569794l176.90334 0l0 -27.721924" fill-rule="evenodd"/><path stroke="#ea9999" stroke-width="2.0" stroke-linejoin="round" stroke-linecap="butt" d="m184.86351 289.74277l0 29.569794l176.90334 0l0 -27.721924" fill-rule="evenodd"/><path fill="#000000" fill-opacity="0.0" d="m398.8547 289.74277l0 29.569794l119.67111 0l0 -26.798004" fill-rule="evenodd"/><path stroke="#ea9999" stroke-width="2.0" stroke-linejoin="round" stroke-linecap="butt" d="m398.8547 289.74277l0 29.569794l119.67111 0l0 -26.798004" fill-rule="evenodd"/><path fill="#000000" fill-opacity="0.0" d="m184.86351 350.73l0 29.569763l360.94403 0l0 -29.569763" fill-rule="evenodd"/><path stroke="#ea9999" stroke-width="2.0" stroke-linejoin="round" stroke-linecap="butt" d="m184.86351 350.73l0 29.569763l360.94403 0l0 -29.569763" fill-rule="evenodd"/><path fill="#000000" fill-opacity="0.0" d="m107.90551 28.506561l114.803154 0l0 49.51181l-114.803154 0z" fill-rule="evenodd"/><path fill="#efefef" d="m117.671135 53.01781l3.0 -0.296875q0.28125 1.515625 1.109375 2.234375q0.828125 0.703125 2.234375 0.703125q1.484375 0 2.234375 -0.625q0.765625 -0.640625 0.765625 -1.484375q0 -0.546875 -0.328125 -0.921875q-0.3125 -0.375 -1.109375 -0.65625q-0.53125 -0.1875 -2.46875 -0.671875q-2.46875 -0.609375 -3.46875 -1.515625q-1.40625 -1.25 -1.40625 -3.0625q0 -1.171875 0.65625 -2.1875q0.65625 -1.015625 1.90625 -1.546875q1.25 -0.53125 3.0 -0.53125q2.875 0 4.3281326 1.265625q1.453125 1.265625 1.53125 3.359375l-3.0781326 0.140625q-0.203125 -1.171875 -0.859375 -1.6875q-0.640625 -0.515625 -1.953125 -0.515625q-1.34375 0 -2.09375 0.546875q-0.5 0.359375 -0.5 0.953125q0 0.53125 0.46875 0.921875q0.578125 0.484375 2.828125 1.015625q2.25 0.53125 3.328125 1.109375q1.0781326 0.5625 1.6875076 1.546875q0.609375 0.984375 0.609375 2.421875q0 1.3125 -0.734375 2.46875q-0.734375 1.140625 -2.0625076 1.703125q-1.328125 0.546875 -3.3125 0.546875q-2.90625 0 -4.453125 -1.328125q-1.546875 -1.34375 -1.859375 -3.90625zm21.397575 1.453125l2.90625 0.484375q-0.546875 1.609375 -1.765625 2.453125q-1.21875 0.828125 -3.03125 0.828125q-2.890625 0 -4.28125 -1.890625q-1.09375 -1.5 -1.09375 -3.8125q0 -2.75 1.4375 -4.296875q1.4375 -1.5625 3.640625 -1.5625q2.46875 0 3.890625 1.640625q1.421875 1.625 1.359375 4.984375l-7.328125 0q0.03125 1.296875 0.703125 2.03125q0.6875 0.71875 1.703125 0.71875q0.6875 0 1.15625 -0.375q0.46875 -0.375 0.703125 -1.203125zm0.171875 -2.96875q-0.03125 -1.265625 -0.65625 -1.921875q-0.625 -0.671875 -1.53125 -0.671875q-0.953125 0 -1.578125 0.703125q-0.625 0.703125 -0.609375 1.890625l4.375 0zm5.2835693 6.484375l0 -15.265625l2.921875 0l0 15.265625l-2.921875 0zm12.331894 -3.515625l2.90625 0.484375q-0.546875 1.609375 -1.765625 2.453125q-1.21875 0.828125 -3.03125 0.828125q-2.890625 0 -4.28125 -1.890625q-1.09375 -1.5 -1.09375 -3.8125q0 -2.75 1.4375 -4.296875q1.4375 -1.5625 3.640625 -1.5625q2.46875 0 3.890625 1.640625q1.421875 1.625 1.359375 4.984375l-7.328125 0q0.03125 1.296875 0.703125 2.03125q0.6875 0.71875 1.703125 0.71875q0.6875 0 1.15625 -0.375q0.46875 -0.375 0.703125 -1.203125zm0.171875 -2.96875q-0.03125 -1.265625 -0.65625 -1.921875q-0.625 -0.671875 -1.53125 -0.671875q-0.953125 0 -1.578125 0.703125q-0.625 0.703125 -0.609375 1.890625l4.375 0zm14.924194 -1.3125l-2.875 0.53125q-0.15625 -0.875 -0.671875 -1.3125q-0.515625 -0.4375 -1.328125 -0.4375q-1.09375 0 -1.75 0.765625q-0.65625 0.75 -0.65625 2.515625q0 1.96875 0.65625 2.78125q0.671875 0.8125 1.78125 0.8125q0.84375 0 1.375 -0.46875q0.53125 -0.46875 0.75 -1.625l2.859375 0.484375q-0.4375 1.984375 -1.71875 3.0q-1.265625 1.0 -3.390625 1.0q-2.4375 0 -3.875 -1.53125q-1.4375 -1.53125 -1.4375 -4.234375q0 -2.75 1.4375 -4.265625q1.453125 -1.53125 3.921875 -1.53125q2.015625 0 3.203125 0.875q1.203125 0.859375 1.71875 2.640625zm7.2991943 -3.265625l0 2.328125l-2.0 0l0 4.46875q0 1.34375 0.046875 1.578125q0.0625 0.21875 0.265625 0.375q0.203125 0.140625 0.5 0.140625q0.40625 0 1.171875 -0.28125l0.25 2.265625q-1.015625 0.4375 -2.3125 0.4375q-0.796875 0 -1.4375 -0.265625q-0.625 -0.265625 -0.921875 -0.6875q-0.296875 -0.421875 -0.40625 -1.140625q-0.09375 -0.515625 -0.09375 -2.0625l0 -4.828125l-1.34375 0l0 -2.328125l1.34375 0l0 -2.1875l2.9375 -1.71875l0 3.90625l2.0 0zm1.3524323 5.375q0 -1.453125 0.71875 -2.8125q0.71875 -1.375 2.03125 -2.09375q1.3125 -0.71875 2.9375 -0.71875q2.515625 0 4.109375 1.640625q1.609375 1.625 1.609375 4.109375q0 2.515625 -1.625 4.171875q-1.609375 1.640625 -4.0625 1.640625q-1.53125 0 -2.90625 -0.6875q-1.375 -0.6875 -2.09375 -2.015625q-0.71875 -1.328125 -0.71875 -3.234375zm3.0 0.15625q0 1.640625 0.78125 2.515625q0.78125 0.875 1.921875 0.875q1.140625 0 1.921875 -0.875q0.78125 -0.875 0.78125 -2.53125q0 -1.625 -0.78125 -2.5q-0.78125 -0.875 -1.921875 -0.875q-1.140625 0 -1.921875 0.875q-0.78125 0.875 -0.78125 2.515625zm13.496826 5.53125l-2.921875 0l0 -11.0625l2.71875 0l0 1.578125q0.703125 -1.125 1.25 -1.46875q0.5625 -0.359375 1.265625 -0.359375q1.0 0 1.9375 0.5625l-0.90625 2.546875q-0.75 -0.484375 -1.375 -0.484375q-0.625 0 -1.046875 0.34375q-0.421875 0.328125 -0.671875 1.21875q-0.25 0.890625 -0.25 3.703125l0 3.421875z" fill-rule="nonzero"/><path fill="#cc0000" d="m421.39417 219.60078c-1.6669617 0 -3.197235 0.44778442 -4.5908203 1.343338c-1.3847351 0.89553833 -2.8973694 2.748825 -4.537903 5.55986l0 -6.0076447l-6.429779 0l0 39.62805l7.144226 0l0 -20.746887c0 -2.835907 0.3968811 -5.4479218 1.1907043 -7.8360596c0.5291748 -1.5671997 1.4155884 -2.7902985 2.6592102 -3.6692657c1.2436218 -0.8872528 2.6460266 -1.3308716 4.2071533 -1.3308716c1.7463684 0 3.4927368 0.4850769 5.239105 1.4552612l2.460785 -6.231537c-2.4872437 -1.4428253 -4.9348145 -2.1642456 -7.342682 -2.1642456z" fill-rule="evenodd"/><path fill="#cc0000" d="m450.36795 225.12335c3.6250305 0 6.5753174 1.2935638 8.850891 3.8807068c1.4817505 1.6667175 2.3814087 4.166794 2.6989136 7.500229l-23.536224 0c0.23812866 -3.4578247 1.4729614 -6.219101 3.7044067 -8.283829c2.2402954 -2.064743 5.000946 -3.097107 8.282013 -3.097107zm-0.07937622 -5.5225677c-5.821228 0 -10.557587 1.8408508 -14.209076 5.5225677c-3.6514893 3.6817017 -5.477234 8.855988 -5.477234 15.522842c0 6.442993 1.8037109 11.451431 5.4111023 15.02533c3.616211 3.565628 8.506897 5.3484344 14.672089 5.3484344c4.895111 0 8.917053 -1.1194458 12.065796 -3.358307c3.1487427 -2.2388916 5.305237 -5.385742 6.4694824 -9.440598l-7.3823547 -0.8582306c-1.0848694 2.835907 -2.5534058 4.90065 -4.405609 6.194214c-1.8522034 1.2935791 -4.0880737 1.9403534 -6.707611 1.9403534c-3.5191956 0 -6.4562683 -1.1567535 -8.811218 -3.4702454c-2.3549194 -2.313507 -3.6647034 -5.646942 -3.9293213 -10.000305l31.43457 0c0.02645874 -0.796051 0.03967285 -1.3930817 0.03967285 -1.7910919c0 -6.5424957 -1.7860413 -11.617279 -5.3581543 -15.22435c-3.572113 -3.607071 -8.176147 -5.410614 -13.812134 -5.410614z" fill-rule="evenodd"/><path fill="#cc0000" d="m494.1064 225.16066c3.2546082 0 5.9931946 1.268692 8.215851 3.8060913c2.2226562 2.537384 3.3339844 6.5176086 3.3339844 11.940659c0 4.925522 -1.093689 8.590637 -3.281067 10.995346c-2.1785278 2.3964233 -4.828949 3.594635 -7.951233 3.594635c-3.0958252 0 -5.7815247 -1.2562561 -8.057098 -3.7687683c-2.2755737 -2.5125122 -3.4133606 -6.3061523 -3.4133606 -11.380936c0 -5.2489166 1.0628357 -9.092316 3.188446 -11.530197c2.1344604 -2.4378815 4.789276 -3.6568298 7.9644775 -3.6568298zm10.954468 -19.739395l0 19.627457c-1.2436218 -1.6169739 -2.8576965 -2.927124 -4.8421936 -3.9304657c-1.9844971 -1.0116425 -4.246826 -1.5174713 -6.7869873 -1.5174713c-3.466278 0 -6.6018066 0.85824585 -9.406555 2.574707c-2.804779 1.7164764 -4.9083557 4.1875305 -6.31073 7.413162c-1.4023743 3.2173462 -2.1035767 6.8036957 -2.1035767 10.759033c0 4.05484 0.77175903 7.64534 2.3152466 10.771469c1.5523376 3.1178284 3.7352905 5.5474396 6.5488586 7.2887726c2.8224182 1.741333 5.913849 2.61203 9.274261 2.61203c5.1861877 0 9.115509 -1.9652405 11.787964 -5.895706l0 5.0001373l6.628235 0l0 -54.703125z" fill-rule="evenodd"/><path fill="#e69138" d="m367.0562 221.39381l0 7.6494904l8.136475 0l0 -7.6494904zm0 31.978577l0 7.6494904l8.136475 0l0 -7.6494904z" fill-rule="evenodd"/><path fill="#e69138" d="m525.7787 218.7241l0 7.6494904l8.136475 0l0 -7.6494904zm0 31.978577l0 7.6494904l4.048401 0c-0.07940674 2.263733 -0.47631836 3.9967957 -1.1907349 5.1991577c-0.7144165 1.2106628 -1.8257446 2.1269226 -3.3339844 2.7488403l1.9844971 2.87323c2.302063 -0.9453125 3.9822388 -2.2844849 5.0406494 -4.0175476c1.0584106 -1.724762 1.5876465 -3.9926453 1.5876465 -6.8036804l0 -7.6494904z" fill-rule="evenodd"/><path fill="#000000" fill-opacity="0.0" d="m107.90551 92.4042l0 -24.750656l126.11811 0l0 29.46457" fill-rule="evenodd"/><path stroke="#ea9999" stroke-width="2.0" stroke-linejoin="round" stroke-linecap="butt" d="m107.90551 92.4042l0 -24.750656l126.11811 0l0 29.46457" fill-rule="evenodd"/><path fill="#000000" fill-opacity="0.0" d="m88.39895 99.2231l-13.530182 0l0 273.31494l19.845146 0" fill-rule="evenodd"/><path stroke="#ea9999" stroke-width="2.0" stroke-linejoin="round" stroke-linecap="butt" d="m88.39895 99.2231l-13.530182 0l0 273.31494l19.845146 0" fill-rule="evenodd"/><path fill="#f3f3f3" d="m48.70866 268.2653c0 2.3214417 0.7765846 4.1944275 2.3297539 5.618927c1.5506172 1.42453 3.7283745 2.1367798 6.5332756 2.1367798c2.6516304 0 4.7425346 -0.7084961 6.2727127 -2.1254578c1.5276222 -1.4169922 2.291439 -3.225891 2.291439 -5.426758c0 -1.7787476 -0.44577026 -3.2459717 -1.3373108 -4.4016724c-0.8940964 -1.1582031 -2.2607841 -1.986023 -4.1000633 -2.48349l-1.0460892 3.244751c1.2338486 0.27886963 2.1381607 0.73861694 2.7129364 1.3792725c0.5747757 0.6406555 0.86216354 1.4057007 0.86216354 2.2950745c0 1.2059326 -0.45215607 2.1857605 -1.3564682 2.9394836c-0.90431595 0.7536926 -2.4217186 1.1305542 -4.5522194 1.1305542c-2.0078812 0 -3.460144 -0.38186646 -4.3567924 -1.1456299c-0.8966522 -0.76626587 -1.3449745 -1.7637024 -1.3449745 -2.9922485c0 -0.8893738 0.25289917 -1.6443481 0.7587013 -2.2648926c0.50580215 -0.6230774 1.1955338 -1.0325928 2.069191 -1.2285767l-0.8046837 -3.312561c-1.3488083 0.37686157 -2.3834 0.9421387 -3.1037865 1.6958618c-1.2185211 1.2662354 -1.8277855 2.913086 -1.8277855 4.9405823z" fill-rule="evenodd"/><path fill="#f3f3f3" d="m48.70866 252.91216c0 1.2737732 0.19542313 2.3616333 0.5862732 3.263565c0.39084625 0.8994446 0.96051025 1.5890808 1.7089958 2.0689392c0.7459297 0.47735596 1.5480614 0.71603394 2.4063911 0.71603394c1.333477 0 2.4638672 -0.50875854 3.3911743 -1.5262756c0.6590729 -0.72354126 1.2146912 -1.982254 1.6668472 -3.7760925c0.35252762 -1.3943634 0.59776306 -2.2875214 0.73571014 -2.6794434c0.20692062 -0.5728302 0.45087814 -0.9735565 0.7318802 -1.202179c0.2784462 -0.23114014 0.6169243 -0.3467102 1.0154343 -0.3467102c0.62075806 0 1.1636009 0.2738495 1.6285324 0.82154846c0.46237183 0.54519653 0.69356155 1.3566895 0.69356155 2.434494c0 1.0175171 -0.2605667 1.8265076 -0.7816963 2.4269562c-0.5211296 0.59794617 -1.337307 0.9949188 -2.4485397 1.1908722l0.3218727 3.2560425c1.8852615 -0.2185669 3.3209229 -0.8893738 4.306984 -2.0124207c0.9834976 -1.1230164 1.4752502 -2.7322083 1.4752502 -4.82753c0 -1.4395905 -0.20436096 -2.6417694 -0.6130905 -3.6065216c-0.4112854 -0.9647522 -1.0384293 -1.7109222 -1.8814316 -2.2385254c-0.8430023 -0.52760315 -1.7473145 -0.7913971 -2.7129364 -0.7913971c-1.0652504 0 -1.959343 0.2210846 -2.6822815 0.66326904c-0.7254944 0.43966675 -1.2964401 1.0501709 -1.7128296 1.8315277c-0.41894913 0.77882385 -0.8238449 1.982254 -1.2146912 3.6102753c-0.39085007 1.6280212 -0.76636887 2.6530762 -1.1265602 3.0751495c-0.28355408 0.33163452 -0.624588 0.49745178 -1.023098 0.49745178c-0.43683243 0 -0.7855263 -0.17712402 -1.046093 -0.5313568c-0.4061737 -0.5502167 -0.60926056 -1.3114624 -0.60926056 -2.2837524c0 -0.94215393 0.19031525 -1.6481323 0.5709419 -2.1179352c0.37807465 -0.47233582 1.0001106 -0.78009033 1.8661041 -0.9233093l-0.14944077 -3.3464813c-1.5480614 0.052764893 -2.7857437 0.605484 -3.713047 1.6581726c-0.9273033 1.0501709 -1.3909569 2.615387 -1.3909569 4.695633z" fill-rule="evenodd"/><path fill="#f3f3f3" d="m48.70866 237.46857c0 1.2737732 0.19542313 2.3616333 0.5862732 3.2635803c0.39084625 0.8994293 0.96051025 1.5890808 1.7089958 2.0689392c0.7459297 0.47735596 1.5480614 0.71603394 2.4063911 0.71603394c1.333477 0 2.4638672 -0.50875854 3.3911743 -1.5262756c0.6590729 -0.7235565 1.2146912 -1.982254 1.6668472 -3.7760925c0.35252762 -1.3943787 0.59776306 -2.2875214 0.73571014 -2.6794586c0.20692062 -0.57281494 0.45087814 -0.97354126 0.7318802 -1.2021637c0.2784462 -0.23114014 0.6169243 -0.3467102 1.0154343 -0.3467102c0.62075806 0 1.1636009 0.2738495 1.6285324 0.82154846c0.46237183 0.5451813 0.69356155 1.3566742 0.69356155 2.434494c0 1.0175018 -0.2605667 1.8264923 -0.7816963 2.4269562c-0.5211296 0.59794617 -1.337307 0.9948883 -2.4485397 1.1908569l0.3218727 3.2560425c1.8852615 -0.2185669 3.3209229 -0.8893738 4.306984 -2.0124054c0.9834976 -1.1230316 1.4752502 -2.7322235 1.4752502 -4.827545c0 -1.4395905 -0.20436096 -2.6417542 -0.6130905 -3.6065063c-0.4112854 -0.9647522 -1.0384293 -1.7109375 -1.8814316 -2.2385406c-0.8430023 -0.5275879 -1.7473145 -0.7913971 -2.7129364 -0.7913971c-1.0652504 0 -1.959343 0.22109985 -2.6822815 0.66326904c-0.7254944 0.43966675 -1.2964401 1.0501709 -1.7128296 1.8315277c-0.41894913 0.7788391 -0.8238449 1.9822693 -1.2146912 3.6102905c-0.39085007 1.6280212 -0.76636887 2.653061 -1.1265602 3.0751495c-0.28355408 0.33163452 -0.624588 0.49745178 -1.023098 0.49745178c-0.43683243 0 -0.7855263 -0.17712402 -1.046093 -0.5313721c-0.4061737 -0.5502167 -0.60926056 -1.3114624 -0.60926056 -2.2837524c0 -0.9421387 0.19031525 -1.6481171 0.5709419 -2.1179352c0.37807465 -0.47232056 1.0001106 -0.78009033 1.8661041 -0.92329407l-0.14944077 -3.3464966c-1.5480614 0.052764893 -2.7857437 0.605484 -3.713047 1.6581726c-0.9273033 1.0501709 -1.3909569 2.615387 -1.3909569 4.695633z" fill-rule="evenodd"/><path fill="#f3f3f3" d="m51.84693 215.42245c0 -1.3566742 0.019161224 -2.1706848 0.05747986 -2.4420319c0.09196472 -0.5426636 0.31293106 -0.9622345 0.66290665 -1.2586975c0.34741974 -0.29896545 0.8046837 -0.4484558 1.3717957 -0.4484558c0.50580215 0 0.9273033 0.11305237 1.2645035 0.33917236c0.33720398 0.22610474 0.5747757 0.5389099 0.7127228 0.93836975c0.13794708 0.3994751 0.20691681 1.4019012 0.20691681 3.007309l0 2.4759521l-4.276325 0zm-2.8508835 5.9581146l16.852402 0l0 -3.3464966l-7.035244 0l0 -0.6783447c0 -0.76878357 0.06386566 -1.3302917 0.19159317 -1.6845398c0.12517166 -0.35424805 0.35891342 -0.6896515 0.7012253 -1.0062103c0.3397522 -0.31655884 1.164875 -0.90444946 2.4753609 -1.7636871l3.6670647 -2.4194183l0 -4.0022125l-3.287712 2.0237122c-1.3104858 0.79893494 -2.2224617 1.4345703 -2.7359276 1.9068909c-0.5134659 0.46981812 -0.9847832 1.0665131 -1.413948 1.7900696c-0.21458054 -1.4546661 -0.7331543 -2.5475464 -1.5557251 -3.278656c-0.825119 -0.73109436 -1.8699341 -1.0966492 -3.1344376 -1.0966492c-0.99627686 0 -1.8814316 0.24119568 -2.6554604 0.7235718c-0.7740288 0.4823761 -1.3117638 1.125534 -1.6132011 1.9295044c-0.30399323 0.80145264 -0.45598984 2.0877838 -0.45598984 3.8590088z" fill-rule="evenodd"/><path fill="#f3f3f3" d="m53.640232 204.76118l7.7249756 0c1.1495476 0 2.0500298 -0.14320374 2.7014427 -0.4296112c0.65141296 -0.28640747 1.1572113 -0.7499542 1.5174026 -1.3906097c0.36019135 -0.6406555 0.54029083 -1.364212 0.54029083 -2.1706848c0 -0.7913971 -0.1877594 -1.5426025 -0.5632782 -2.253601c-0.3755188 -0.71351624 -0.8889847 -1.2888489 -1.5403976 -1.7260132l1.8277817 0l0 -2.9507751l-12.208218 0l0 3.1768951l5.1499825 0c1.7473145 0 2.8457756 0.07913208 3.2953758 0.2374115c0.4470482 0.15827942 0.822567 0.45224 1.1265602 0.8818512c0.30143738 0.4296112 0.45215607 0.9157562 0.45215607 1.458435c0 0.47483826 -0.112400055 0.8667755 -0.33720016 1.1757965c-0.22735596 0.309021 -0.533905 0.52256775 -0.9196434 0.6406555c-0.3882904 0.11557007 -1.4407692 0.1733551 -3.1574287 0.1733551l-5.6098022 0z" fill-rule="evenodd"/><path fill="#f3f3f3" d="m48.996048 190.54993l16.852402 0l0 -3.1769104l-16.852402 0z" fill-rule="evenodd"/><path fill="#f3f3f3" d="m55.835873 179.34598c0 -0.64819336 0.24395752 -1.19841 0.7318802 -1.6506348c0.485363 -0.45222473 1.1955299 -0.6896515 2.130497 -0.71224976l0 4.7483826c-0.88132095 0.007537842 -1.5787163 -0.21479797 -2.0921822 -0.66703796c-0.51346207 -0.45222473 -0.770195 -1.0250397 -0.770195 -1.7184601zm-2.4715347 0.1921997c0 1.590332 0.5734978 2.9055634 1.7204933 3.9456787c1.1444397 1.0401306 2.7282639 1.5601959 4.7514725 1.5601959c1.6936722 0 3.0961227 -0.39570618 4.2073517 -1.1871033c1.3871231 -1.0024414 2.0806885 -2.5475464 2.0806885 -4.63533c0 -1.3190002 -0.30782318 -2.416916 -0.92346954 -3.2937317c-0.61820984 -0.8793335 -1.5174103 -1.5224915 -2.6976128 -1.9295044l-0.54029083 3.1655884c0.61309433 0.1733551 1.0575867 0.42962646 1.3334808 0.7687988c0.27589035 0.33917236 0.41383743 0.7574768 0.41383743 1.2549286c0 0.73109436 -0.2656746 1.3416138 -0.7970238 1.8315277c-0.5339012 0.48991394 -1.2798309 0.74617004 -2.2377892 0.76878357l0 -7.9592133c-2.4753647 -0.04522705 -4.312088 0.4484558 -5.5101776 1.4810486c-1.2006378 1.0325928 -1.8009605 2.4420319 -1.8009605 4.2283325z" fill-rule="evenodd"/></g></svg>